<svg version="1.2" baseProfile="tiny-ps" xmlns="http://www.w3.org/2000/svg" viewBox="0 0 4958 2336" width="4958" height="2336">
	<title>Shape 1</title>
	<style>
		tspan { white-space:pre }
		.shp0 { fill: #dbd7cb } 
		.shp1 { fill: #beddd7 } 
		.shp2 { fill: #cfdfc4 } 
		.shp3 { fill: #bfded8 } 
	</style>
	<path id="light orange background flower 1" class="shp0" d="M236.33 2336.01C244.37 2330.98 252.7 2326.81 261.33 2323.51C281.63 2315.77 296.64 2316.3 316.78 2308.15C329.92 2302.83 339.47 2296.76 347.54 2288.8C363.87 2272.66 367.65 2258.22 366.9 2248.95C365.81 2235.42 356.87 2219.67 345.26 2218.21C334.44 2216.85 325.39 2228.35 316.78 2238.7C315.23 2240.57 286.31 2271.16 281.47 2276.27C266.97 2291.61 256.06 2300.77 241.61 2307.01C231.12 2311.55 220.04 2314.16 208.58 2314.98C206.14 2299.27 208.4 2283.38 215.5 2269.35C220.04 2260.39 226.6 2252.2 234.78 2245.53C248.24 2234.55 260.69 2232.46 273.83 2227.69C289.77 2221.9 301.42 2210.56 315.64 2202.27C346 2184.58 380.14 2180.19 377.35 2156.73C375.84 2144.01 357.17 2120.09 377.35 2102.69C384.43 2096.59 350.14 2083.87 315.64 2082.72C298.71 2082.16 283.22 2084.22 268.95 2088.42C255.57 2092.35 245.07 2097.19 236.33 2102.69C221.17 2112.23 208.49 2125.01 198.83 2140.19" />
	<path id="light blue background leaf 1" class="shp1" d="M237.11 701.44C246.76 688.83 258.06 678.53 271.16 670.81C282.82 663.93 292.47 661.9 304.07 654.92C323.29 643.35 334.43 630.43 340.38 619.75C347.57 606.85 349.77 592.5 350.6 585.71C353.29 563.66 361.44 529.37 359.67 528.98C357.36 528.47 352.5 575.42 318.82 597.06C309.54 603.02 291.57 606.34 272.29 610.67C257.69 613.96 249.33 615.83 246.19 611.81C240.07 603.97 256.23 580.01 271.16 564.15C278.74 556.1 289.16 547.51 301.8 539.19C314.9 530.57 324.09 526.65 333.57 515.37C341.96 505.39 344.86 495.41 350.6 481.33C358.46 462.03 364.62 451.25 361.34 448.61C357.69 445.68 344.7 457.94 330.17 460.9C317.42 463.51 309.36 459.79 297.26 460.9C286.35 461.9 276.45 465.64 263.21 472.25C236.18 485.74 210.76 502.36 204.2 510.83C173.7 550.2 189.08 606.55 184.91 607.27C178.79 608.33 169.84 471.34 132.16 352.78C123.67 326.07 97.38 246.18 122.77 161.86C132.75 128.74 151.54 86.28 179.29 83.26C205.95 80.35 247.57 136.92 272.66 154.49C283.91 162.37 304.09 173.04 323.84 181.96C353.59 195.39 372.06 199.95 377.35 194.46C384.23 187.32 372.29 159.92 346.37 115.19C330.9 88.49 316.65 68.06 299.69 51.32C272.15 24.15 240.71 8.57 225.97 4.65C210.48 0.52 190.05 -1.51 164.54 2.19C99.06 11.69 41.14 59.7 -0.08 117.65" />
	<path id="light yellow background leaf 1" class="shp2" d="M4934.05 1853.12C4919.26 1856.29 4904.79 1860.21 4890.67 1864.87C4879.2 1868.66 4867.39 1873.36 4854.36 1881.83C4827.22 1899.44 4816.41 1919.99 4814.15 1934.23C4813.48 1938.5 4813.71 1941.61 4815.59 1943.56C4823.7 1951.97 4856.62 1932.49 4867.28 1925.61C4876.82 1919.46 4886.53 1912.25 4890.97 1907.67C4900.09 1898.27 4906.12 1888.35 4911.5 1889.87C4914 1890.58 4915.7 1893.58 4916.1 1896.18C4918.01 1908.4 4892.99 1922.34 4880.2 1928.48C4867.29 1934.69 4849.84 1936.77 4836.41 1947.15C4812.14 1965.9 4804.17 2001.39 4811.5 2006.53C4817.06 2010.43 4835.35 1992.63 4868 1971.55C4882.25 1962.35 4893.95 1956.28 4894.56 1957.2C4895.51 1958.61 4867.02 1975.11 4848.61 2005.29C4835.4 2026.95 4832.79 2046.84 4827.79 2077.78C4822.45 2110.84 4816.2 2136.96 4815.66 2169.02C4815.28 2191.7 4817.35 2211.27 4821.51 2226.23C4839.16 2289.73 4889.39 2324.42 4890.67 2323.18C4892 2321.89 4848.51 2271.23 4838.18 2234.07C4835.09 2222.95 4835.88 2214.79 4832.79 2203.67C4831.92 2200.57 4830.42 2195.32 4832.33 2194.02C4835.42 2191.92 4845.58 2201.43 4861.23 2213.48C4864.28 2215.83 4875.92 2221.05 4886.24 2224.76C4889.3 2225.86 4892.63 2226.85 4894.58 2225.25C4898.69 2221.84 4891.71 2207.35 4880.35 2182.1C4876.4 2173.31 4870.83 2161.48 4859.27 2150.71C4852.94 2144.82 4845.72 2139.56 4842.1 2137.96C4838.58 2136.42 4834.86 2135.29 4832.33 2131.52C4827.89 2124.91 4831.58 2116.65 4834.26 2106.09C4835.97 2099.36 4836.66 2082.5 4839.65 2082.06C4842.15 2081.7 4845.7 2088.61 4850.93 2101.19C4856.64 2114.9 4859.71 2124.32 4868.09 2134.04C4876.96 2144.32 4888.3 2151.04 4890.16 2149.24C4892.03 2147.44 4879.82 2131.69 4873.98 2119.33C4868.23 2107.17 4866.47 2096.91 4861.23 2084.51C4858.42 2077.88 4854.97 2068.66 4853.38 2065.39C4852.31 2063.18 4849.93 2057.67 4849 2052.36C4847.71 2045.06 4848.12 2037.4 4850.44 2030.58C4852.42 2024.76 4859.88 2015.38 4870.06 2006.06C4873.04 2003.33 4875.59 2001.18 4878.16 1998.2C4886.78 1988.22 4889.85 1977.11 4890.67 1977.37C4891.61 1977.66 4890.23 1991.83 4882.81 2008.51C4878.8 2017.52 4870.09 2027.3 4867.6 2039.4C4865.21 2051.06 4869.02 2068.32 4881.83 2090.89C4890.38 2105.97 4903.9 2127.92 4909.29 2125.7C4914.23 2123.67 4906.01 2092.33 4906.35 2070.29C4906.57 2055.64 4909.31 2034.67 4912.72 2014.39C4914.86 2001.67 4917.11 1990.8 4913.21 1977.13C4911.03 1969.46 4907.79 1962.56 4906.84 1953.59C4906.26 1948.14 4906.31 1942.39 4906.84 1939.86C4910.34 1922.92 4927.66 1915.35 4935.28 1901.61C4940.65 1891.93 4943.19 1880.61 4943.13 1869.74C4943.09 1863.84 4942.25 1858.03 4940.67 1852.37" />
	<path id="Shape 1" class="shp3" d="M4929.63 743.91C4913.05 740.24 4898.12 733.17 4885.7 722.52C4870.82 709.75 4865.72 697.19 4856.42 678.6C4844.19 654.15 4832.88 640.31 4836.5 636.1C4843.76 627.65 4886.91 645.02 4914.99 670.72C4918.79 674.2 4923.1 678.47 4924 677.76C4925.88 676.28 4912.54 653.09 4893.59 631.3C4882.74 618.83 4871.43 610.18 4860.92 596.39C4850.47 582.67 4841.49 566.15 4835.02 547.97C4820.32 506.66 4831.49 473.88 4830.51 424.1C4830.06 401.37 4828.33 387.17 4832.33 386.11C4838.76 384.41 4856.72 436.62 4875.57 468.02C4882.89 480.22 4919.34 520.73 4931.88 560.36C4941.11 589.52 4939.74 612.38 4946.53 642.56C4949.58 656.16 4953.34 669.66 4957.79 683.1" />
</svg>