<svg version="1.2" baseProfile="tiny-ps" xmlns="http://www.w3.org/2000/svg" viewBox="0 0 171 227" width="171" height="227">
	<title>bg-firstname2-svg</title>
	<style>
		tspan { white-space:pre }
		.shp0 { fill: #000000 } 
		.shp1 { fill: none;stroke: #224256;stroke-linecap:round;stroke-linejoin:round;stroke-width: 2 } 
		.shp2 { fill: none } 
		.shp3 { fill: #224256 } 
		.shp4 { fill: #faeb9a } 
		.shp5 { fill: #ffffff } 
		.shp6 { fill: #c4a198 } 
	</style>
	<path id="Layer" class="shp0" d="M117.5 103.7C117.5 103.7 114 105.7 111.4 103.8C109.4 102.3 107.1 101.7 105 102.2C103.3 102.6 100.8 103.8 98.7 107.7C97.8 109.4 96.5 110.4 94.9 110.8C92.7 111.3 90.6 110.4 90.1 110C89 109.2 86.3 107.9 83.4 108.6C81.7 109 79.4 110.1 77.6 113.5C76.6 115.4 75.2 116.6 73.5 117C71.8 117.4 70.1 116.9 69.1 116.3C67.7 115.3 65.1 114.4 62.2 115C59.6 115.5 57.3 117.2 55.6 119.9C54.3 122 52.7 123.2 50.7 123.6C48.5 124.1 46.5 123.3 45.8 122.8C45.3 122.4 44.6 122.6 44.2 123.1C43.8 123.6 44 124.3 44.5 124.7C45.3 125.3 47.1 126 49.3 126C49.9 126 50.5 125.9 51.1 125.8C53.6 125.3 55.8 123.7 57.4 121.1C58.8 118.9 60.5 117.6 62.5 117.2C64.5 116.8 66.6 117.4 67.6 118.1C68.9 119 71.2 119.8 73.8 119.2C75.4 118.8 77.7 117.7 79.3 114.6C80.4 112.5 81.9 111.2 83.6 110.9C85.7 110.4 87.7 111.4 88.4 111.9C89.5 112.8 92.3 113.7 95 113.1C97.3 112.6 99.1 111.1 100.3 108.9C101.6 106.4 103.3 104.9 105 104.5C106.5 104.2 108.1 104.6 109.5 105.7C113.3 108.5 117.9 105.9 118.1 105.7C118.6 105.4 118.8 104.7 118.5 104.1C118.7 103.6 118 103.4 117.5 103.7Z" />
	<path id="Layer" class="shp1" d="M17.1 66L19.3 73.6" />
	<path id="Layer" class="shp1" d="M14.4 70.9L22 68.7" />
	<g id="Layer">
		<path id="Layer" class="shp2" d="M13.9 143.2C14.4 143.1 14.8 142.7 15 142.3C15.2 141.9 15.3 141.3 15.2 140.9C15 140.1 14.2 139.5 13.4 139.5C13.2 139.5 13.1 139.5 12.9 139.6C12.4 139.7 12 140.1 11.8 140.5C11.6 140.9 11.5 141.5 11.6 141.9C11.9 142.9 12.9 143.5 13.9 143.2Z" />
		<path id="Layer" class="shp3" d="M66 21.1C66.1 21.5 66.5 21.8 67 21.8C67.1 21.8 67.2 21.8 67.3 21.8C67.8 21.6 68.1 21.1 68 20.6L67.2 17.7L65.3 18.3L66 21.1Z" />
		<path id="Layer" class="shp3" d="M65.7 12.9C65.5 12.4 65 12.1 64.5 12.2C64 12.4 63.7 12.9 63.8 13.4L64.6 16.3L66.5 15.7L65.7 12.9Z" />
		<path id="Layer" class="shp3" d="M69.4 14.9L66.5 15.7L64.6 16.3L61.7 17.1C61.2 17.3 60.9 17.8 61 18.3C61.1 18.7 61.5 19 62 19C62.1 19 62.2 19 62.3 19L65.2 18.2L67.1 17.6L70 16.8C70.5 16.6 70.8 16.1 70.7 15.6C70.5 15.1 70 14.8 69.4 14.9Z" />
		<path id="Layer" fill-rule="evenodd" class="shp3" d="M9.7 142.4C9.4 141.4 9.5 140.3 10 139.4C10.5 138.4 11.3 137.8 12.3 137.5C14.3 136.9 16.5 138.1 17.1 140.2C17.4 141.2 17.3 142.3 16.8 143.2C16.3 144.2 15.5 144.8 14.5 145.1C14.1 145.3 13.8 145.3 13.4 145.3C11.7 145.3 10.1 144.2 9.7 142.4ZM11.5 141.9C11.7 142.9 12.8 143.5 13.8 143.2C14.3 143.1 14.6 142.7 14.9 142.3C15.2 141.9 15.2 141.4 15.1 140.9C14.9 140 14.1 139.5 13.3 139.5C13.1 139.5 13 139.6 12.8 139.6C12.3 139.7 11.9 140.1 11.7 140.5C11.5 140.9 11.4 141.4 11.5 141.9Z" />
	</g>
	<g id="Layer">
		<path id="Layer" class="shp2" d="M160.7 120.2C160.5 120.2 160.4 120.2 160.2 120.3C159.2 120.6 158.6 121.6 158.9 122.6C159.2 123.6 160.2 124.2 161.2 123.9C162.2 123.6 162.8 122.6 162.5 121.6C162.3 120.8 161.5 120.2 160.7 120.2Z" />
		<path id="Layer" fill-rule="evenodd" class="shp3" d="M164.4 121C165 123 163.8 125.2 161.7 125.8C161.3 126 161 126 160.6 126C159 126 157.4 124.9 156.9 123.2C156.3 121.2 157.5 119 159.6 118.4C161.7 117.8 163.9 119 164.4 121ZM162.5 121.6C162.3 120.7 161.5 120.2 160.7 120.2C160.5 120.2 160.4 120.3 160.2 120.3C159.2 120.5 158.6 121.6 158.9 122.6C159.1 123.6 160.2 124.2 161.2 123.9C162.2 123.6 162.8 122.6 162.5 121.6Z" />
	</g>
	<path id="Layer" class="shp1" d="M119.5 35L118.9 42.9" />
	<path id="Layer" class="shp1" d="M115.2 38.7L123.2 39.2" />
	<path id="Layer" class="shp1" d="M142.5 101.6L148 87.9" />
	<g id="Layer">
		<path id="Layer" class="shp4" d="M145 82.7C145.7 84.4 147 85.6 148.7 86.3C151.7 87.5 155 86.4 156.7 83.9C150.7 82.8 146.5 80.4 144.6 79C144.4 80.3 144.5 81.5 145 82.7Z" />
		<path id="Layer" fill-rule="evenodd" class="shp4" d="M157.1 81.9C150.9 80.8 146.7 78.1 145.2 77C145.9 75.5 147.1 74.4 148.6 73.8C149.4 73.5 150.3 73.3 151.2 73.3C152 73.3 152.9 73.5 153.7 73.8C155.4 74.5 156.7 75.8 157.4 77.4C158 78.9 158.1 80.5 157.6 82C157.5 82 157.3 82 157.1 81.9ZM154.8 76C154.3 75.7 153.7 75.8 153.4 76.3C153.1 76.8 153.2 77.4 153.7 77.7C153.8 77.7 154.8 78.3 154.7 79.4C154.7 79.9 155.1 80.4 155.6 80.5L155.7 80.5C156.2 80.5 156.6 80.1 156.7 79.6C156.9 77.7 155.6 76.3 154.8 76Z" />
		<path id="Layer" class="shp3" d="M158.3 84.1L158.2 84.1C157.7 84 157.3 84 156.8 83.9C156.8 83.9 156.8 83.9 156.7 83.9C154.9 86.4 151.6 87.5 148.7 86.3C147 85.6 145.7 84.4 145 82.7C144.5 81.5 144.4 80.3 144.5 79.1C143.7 78.6 143.3 78.2 143.3 78.2C143 77.9 142.9 77.5 143 77.2C142.3 79.3 142.3 81.5 143.2 83.6C144.1 85.7 145.8 87.4 148 88.3C149.1 88.7 150.2 88.9 151.3 88.9C154.6 88.9 157.8 87 159.2 83.8C158.9 84 158.6 84.1 158.3 84.1Z" />
		<path id="Layer" class="shp3" d="M154.5 72C152.3 71.1 150 71.1 147.8 72.1C145.7 73 144 74.7 143.1 76.9C143.1 77 143.1 77 143 77.1C143 77 143.1 76.9 143.2 76.8C143.6 76.4 144.2 76.3 144.6 76.7C144.6 76.7 144.8 76.9 145.2 77.1C145.9 75.7 147.1 74.6 148.6 73.9C149.4 73.5 150.3 73.4 151.2 73.4C152.1 73.4 152.9 73.6 153.7 73.9C155.4 74.6 156.7 75.8 157.4 77.5C158 79 158.1 80.6 157.6 82.1C157.9 82.1 158.1 82.2 158.4 82.2C158.9 82.3 159.3 82.8 159.3 83.3C159.3 83.4 159.3 83.5 159.2 83.5C159.2 83.4 159.3 83.4 159.3 83.3C161.1 78.9 158.9 73.8 154.5 72Z" />
		<path id="Layer" class="shp3" d="M158.4 82.2C158.1 82.2 157.9 82.1 157.6 82.1C157.4 82.1 157.3 82 157.1 82C150.9 80.9 146.7 78.2 145.2 77.1C144.8 76.8 144.6 76.7 144.6 76.7C144.2 76.3 143.5 76.4 143.2 76.8C143.1 76.9 143.1 77 143 77.1L143 77.2C142.9 77.6 143 78 143.3 78.2C143.4 78.2 143.8 78.6 144.5 79.1C146.5 80.4 150.7 82.9 156.6 84C156.6 84 156.6 84 156.7 84C157.1 84.1 157.6 84.2 158.1 84.2L158.2 84.2C158.5 84.2 158.8 84 159 83.7C159 83.6 159.1 83.6 159.1 83.5C159.1 83.4 159.2 83.4 159.2 83.3C159.3 82.7 159 82.2 158.4 82.2Z" />
		<path id="Layer" class="shp5" d="M154.8 75.8C154.3 75.5 153.7 75.7 153.4 76.1C153.1 76.6 153.3 77.2 153.7 77.5C153.7 77.5 154.8 78.2 154.7 79.2C154.6 79.7 155 80.3 155.6 80.3L155.7 80.3C156.2 80.3 156.6 79.9 156.7 79.4C156.9 77.7 155.6 76.3 154.8 75.8Z" />
	</g>
	<g id="Layer">
		<path id="Layer" fill-rule="evenodd" class="shp6" d="M48.3 80.87L63.41 76.02C63.93 75.85 64.5 76.16 64.68 76.7L69.78 92.61C69.96 93.16 69.68 93.74 69.16 93.91L54.05 98.76C53.52 98.93 52.96 98.62 52.78 98.07L47.67 82.17C47.5 81.62 47.78 81.04 48.3 80.87ZM54.35 96.47L67.58 92.22L63.11 78.31L49.88 82.55L54.35 96.47Z" />
		<path id="Layer" fill-rule="evenodd" class="shp6" d="M99.3 61.2L106.96 85.06C107.13 85.61 106.85 86.19 106.33 86.35L83.66 93.63C83.14 93.8 82.57 93.49 82.4 92.94L75.05 70.08L67.5 72.51L74.84 95.37C75.02 95.92 74.74 96.5 74.22 96.67L51.54 103.95C51.02 104.12 50.46 103.81 50.28 103.26L42.62 79.4C42.44 78.85 42.72 78.27 43.24 78.11L54.58 74.46L47.24 51.6C47.06 51.05 47.34 50.47 47.86 50.3L70.53 43.02C71.05 42.86 71.62 43.16 71.8 43.71L79.14 66.58L98.03 60.51C98.55 60.34 99.12 60.65 99.3 61.2ZM65.61 73.12L44.83 79.79L51.85 101.66L72.63 94.98L65.61 73.12ZM77.25 67.18L70.23 45.32L49.45 51.99L56.47 73.86L77.25 67.18ZM97.73 62.8L76.95 69.47L83.97 91.34L104.75 84.67L97.73 62.8Z" />
		<path id="Layer" fill-rule="evenodd" class="shp6" d="M79.79 71.85C79.61 71.3 79.89 70.72 80.42 70.55L95.53 65.7C96.05 65.53 96.62 65.84 96.79 66.39L101.9 82.3C102.08 82.84 101.8 83.42 101.28 83.59L86.16 88.45C85.64 88.61 85.08 88.3 84.9 87.75L79.79 71.85ZM86.47 86.16L99.69 81.91L95.22 67.99L82 72.24L86.47 86.16Z" />
		<path id="Layer" fill-rule="evenodd" class="shp6" d="M69.29 48.91L74.4 64.81C74.58 65.36 74.3 65.94 73.78 66.11L58.66 70.96C58.14 71.13 57.58 70.82 57.4 70.27L52.29 54.36C52.12 53.82 52.4 53.23 52.92 53.07L68.03 48.21C68.55 48.05 69.12 48.35 69.29 48.91ZM67.73 50.5L54.5 54.75L58.97 68.67L72.19 64.42L67.73 50.5Z" />
		<path id="Layer" fill-rule="evenodd" class="shp6" d="M60.24 82.27C61.75 83.01 62.43 84.86 61.77 86.41C62.43 86.81 62.92 87.44 63.16 88.19C63.68 89.83 62.83 91.56 61.27 92.05L57.49 93.27C56.97 93.44 56.41 93.13 56.23 92.58L53.67 84.63C53.5 84.08 53.78 83.5 54.3 83.33L58.08 82.11C58.78 81.88 59.56 81.94 60.24 82.27ZM61.26 88.77C61.08 88.22 60.51 87.91 59.99 88.08L57.16 88.99L57.8 90.98L60.63 90.07C61.15 89.9 61.43 89.32 61.26 88.77ZM59.98 84.79C59.8 84.24 59.24 83.93 58.72 84.1L55.88 85.01L56.52 87L59.35 86.09C59.88 85.92 60.16 85.34 59.98 84.79Z" />
		<path id="Layer" fill-rule="evenodd" class="shp6" d="M60.7 65.81C60.16 65.71 59.78 65.17 59.86 64.6L61.08 55.44C61.12 55.26 61.2 55.1 61.31 54.97C61.68 54.53 62.34 54.49 62.77 54.89L69.11 61.63C69.5 62.05 69.5 62.71 69.11 63.1C68.72 63.5 68.09 63.48 67.7 63.06L65.76 61L62.21 62.14L61.84 64.95C61.84 64.95 61.84 64.95 61.84 64.95C61.76 65.52 61.26 65.9 60.71 65.81C60.71 65.81 60.71 65.81 60.7 65.81ZM62.51 59.85L64.18 59.32L62.78 57.83L62.51 59.85Z" />
		<path id="Layer" class="shp6" d="M92.72 73.18C93.25 73.01 93.53 72.43 93.35 71.88C93.17 71.33 92.61 71.02 92.08 71.19L86.42 73.01C85.9 73.18 85.61 73.76 85.79 74.31L88.35 82.26C88.52 82.81 89.09 83.12 89.61 82.95L95.28 81.13C95.8 80.97 96.08 80.38 95.9 79.84C95.73 79.29 95.16 78.98 94.64 79.15L89.92 80.66L89.28 78.67L94 77.16C94.52 76.99 94.8 76.41 94.63 75.86C94.45 75.31 93.88 75 93.36 75.17L88.64 76.69L88 74.7L92.72 73.18Z" />
	</g>
</svg>