<svg version="1.2" baseProfile="tiny-ps" xmlns="http://www.w3.org/2000/svg" viewBox="0 0 4432 3239" width="4432" height="3239">
	<title></title>
	<style>
		tspan { white-space:pre }
		.shp0 { opacity: 0.4;fill: #c7c1be } 
		.shp1 { opacity: 0.4;fill: #739d9b } 
		.shp2 { opacity: 0.4;fill: #c3766c } 
		.shp3 { opacity: 0.4;fill: #cea265 } 
		.shp4 { opacity: 0.4;fill: #a7ccc9 } 
		.shp5 { opacity: 0.4;fill: #f79a8a } 
	</style>
	<path id="grey leaves" class="shp0" d="M1860.64 246.05C1861.34 247.25 1875.68 233.71 1876.38 232.98C1890.34 218.61 1901.84 202.17 1912.85 185.5C1942.73 140.26 1974.37 87.92 2027.07 66.53C2033.61 63.87 2068.71 48.85 2075.44 57.07C2076.68 58.59 2046.94 71.88 2044.55 72.99C2023.42 82.82 2006.31 95.54 1990.27 112.44C1952.78 151.92 1921.68 228.85 1865.16 242.98M1877.73 235.73C1871.93 231.32 1865.96 226.54 1862.29 219.95C1859.66 215.21 1857.99 209.7 1857.03 204.38C1856.5 201.49 1856.34 198.59 1856.34 195.65C1856.34 194.08 1856.44 191.94 1856.54 190.36C1857.17 179.65 1863.05 185.47 1868.76 193.66C1876.26 204.4 1882.66 218.86 1880.57 232.31M1895.93 214.74C1892.52 214.98 1888.31 210.1 1886.52 207.85C1878.99 198.38 1875.7 185.1 1874.59 173.26C1874.36 170.83 1874.28 169.13 1874.39 166.72C1874.83 156.99 1880.08 157.19 1886.62 164.62C1888.57 166.84 1890.43 169.16 1892.15 171.56C1894.94 175.45 1896.98 179.67 1898.33 184.28C1900.61 192.1 1900.08 200.28 1898.36 208.14M1914.93 183.95C1914.96 186.4 1909.23 182 1909.18 181.95C1905.53 178.04 1902.75 173.26 1900.55 168.42C1894.51 155.15 1891.13 140.26 1895.97 126.07C1897 123.06 1899.85 114.7 1903.39 113.49C1907.1 112.22 1912.07 123.44 1912.94 125.39C1920.09 141.27 1921.55 160.12 1918.83 177.18M1936.69 152.66C1936.08 154.77 1932.49 149.61 1932.14 149.13C1929.03 144.83 1926.41 140.07 1924.65 135.07C1919.89 121.53 1921.23 105.96 1926.45 92.72C1927.77 89.37 1930.89 82.4 1935.02 81.28C1938.54 80.32 1941.62 93.26 1942.28 95.31C1946.91 109.71 1948.62 124.46 1945.97 139.45M1968.31 112.59C1968.22 114.04 1964.06 111.38 1963.84 111.19C1960.61 108.3 1958.98 104.07 1957.74 100.01C1953.21 85.2 1955.37 66.43 1959.9 51.82C1960.47 49.97 1964.65 37.69 1968.34 38.51C1971.19 39.14 1973.32 50.91 1973.86 52.99C1978.5 70.68 1978.14 90.48 1972.29 107.83M1992.72 87.1C1992.74 87.29 1990.6 85.61 1990.48 85.45C1989.48 84.23 1988.99 82.75 1988.58 81.25C1987.44 77.04 1987.04 72.68 1987.3 68.33C1988.19 53.67 1994.49 37.31 2004.6 26.51C2006.3 24.69 2013.9 16.55 2017.29 17.84C2020.82 19.19 2018.22 32.1 2017.85 34.16C2015.1 49.52 2010.33 64.84 2004.31 79.22M2031.11 62.85C2027.88 67.16 2026.55 49.54 2026.68 48.42C2028.31 34.01 2037.54 19.85 2047.24 9.47C2048.39 8.25 2058 -2.32 2061.04 0.45C2064.15 3.27 2058.77 17.68 2057.97 20.49C2052.44 39.84 2041.38 59.37 2025.66 72.35M2059.35 56.6C2060.29 58.41 2055.55 53.85 2055.58 51.82C2055.66 47.15 2057.45 42.36 2059.31 38.15C2065.08 25.08 2074.37 13.3 2087.17 6.69C2089.39 5.55 2098.35 0.57 2101.04 2.9C2102.57 4.23 2094.14 17 2093.45 18.14C2085.34 31.49 2075.19 45.55 2062.74 55.15M1884.15 230.72C1880.59 236.52 1885.28 241.83 1890.38 245.68C1899.44 252.53 1908.37 255.1 1919.61 253.63C1920.22 253.55 1932.47 251.59 1932.33 250.78C1931.85 247.85 1926.45 243.16 1924.58 241.2C1922.38 238.89 1919.87 236.84 1917.16 235.15C1912.98 232.55 1908.23 230.93 1903.36 230.22C1896.74 229.25 1888.34 228.74 1881.94 231.07M1908.11 215.76C1906.5 214.39 1908 220.25 1908.33 220.73C1910.32 223.64 1913.28 226.02 1916.25 227.86C1925.3 233.47 1935.51 235.39 1946.04 234.86C1948.36 234.74 1953.24 235.04 1955.13 233.26C1957.46 231.05 1949.07 223.99 1948.16 223.25C1939.42 216.17 1928.41 209.61 1917.46 206.87M1928.18 192.68C1924.66 192.42 1935.45 202.47 1936.19 203.01C1946.5 210.55 1958.27 214.19 1971.02 212.49C1973.69 212.14 1982.1 210.95 1983.09 207.43C1984.16 203.62 1974.37 197.41 1972.16 195.82C1959.97 187.03 1945.92 178.96 1930.7 183.95M1945.93 160.04C1942.1 160.59 1952.07 173.66 1952.94 174.34C1962.58 181.8 1978.12 181.4 1989.5 179.67C1991.42 179.37 1999.2 179.26 2000.65 177.41C2001.73 176.02 1990.32 170.3 1989.66 169.99C1977.68 164.21 1965.44 158.67 1951.89 159.88M1969.67 135.28C1961.46 135.2 1964.95 143.97 1969.09 147.46C1978.11 155.07 1990.27 160.15 2002.02 160.93C2003.71 161.04 2013.01 162.11 2014.18 159.95C2016.1 156.44 2006.93 147.11 2004.93 145.3C1994.46 135.81 1979.68 128.23 1965.17 130.91M1988.2 112.59C1979.34 114.2 1993.13 126.78 1995.15 128.2C2002.07 133.04 2009.88 137.45 2018.34 138.73C2030.69 140.59 2034.6 134.62 2025.96 125.32C2023.37 122.54 2020.44 120.11 2017.36 117.9C2013.17 114.91 2008.65 112.46 2004.11 110.05M2013.23 92.9C2010.09 91.36 2016.83 103.61 2017.55 104.39C2024.62 112.06 2034.2 118.72 2044.53 120.84C2047.61 121.47 2054.73 122.77 2056.83 119.14C2058.72 115.85 2049.72 107.48 2048.03 105.64C2038.98 95.77 2026.04 83.57 2011.7 84.74M2037.37 70.11C2034.28 69.44 2037.46 80.97 2037.89 81.7C2043.54 91.44 2055.52 96.97 2065.95 99.78C2067.97 100.33 2075.76 102.73 2077.62 100.37C2079.24 98.32 2073.67 93.2 2072.69 92.26C2064.52 84.51 2054.09 76.9 2043.16 73.86M2057.32 62.51C2055.31 62.84 2060.34 68.3 2060.75 68.72C2065.99 74.09 2073.07 78.31 2080.4 80C2085.99 81.3 2091.78 80.73 2097.21 79.02C2098.4 78.65 2102.91 77.12 2101.63 75C2096.53 66.61 2081.67 63.77 2073.11 61.63M2068.37 60.03C2066.14 61.56 2067.22 57.15 2067.55 56.46C2069.24 52.94 2071.69 49.75 2074.32 46.88C2080.84 39.76 2090 34.29 2099.7 33.21C2101.85 32.97 2112.63 31.5 2113.79 34.55C2114.72 37 2107.15 42.44 2105.88 43.45C2095.54 51.57 2083.41 57.83 2070.4 60.06M27.66 2603.64C25.98 2606.6 31.65 2597.98 32.66 2594.74C34.53 2588.74 35.25 2582.63 35.57 2576.38C36.66 2555.4 41.48 2530.4 64.28 2521.51C67.07 2520.42 62.15 2529.85 61.72 2530.93C59.41 2536.69 54.3 2547.69 64.77 2548.88C88.27 2551.54 73.4 2525.84 77.64 2519.85C85.46 2508.79 108.37 2500.78 121.83 2499.69C123.09 2499.59 120.71 2503.74 120.48 2504.4C119.25 2507.99 116.01 2520.02 122.26 2521.23C134.21 2523.56 132.73 2500.54 137.46 2495.39C148.13 2483.79 174.46 2493.58 187.7 2495.05C190.19 2495.32 202.95 2495.36 204.75 2497.82C206.8 2500.61 198.65 2513.47 197.5 2515.9C193.01 2525.42 186.44 2542.78 175.34 2547.42C166.96 2550.92 157.74 2535.16 149.69 2547.98C141.92 2560.34 171.66 2552.32 168.8 2562.87C163.96 2580.7 126.61 2599.95 108.19 2596.96C103.47 2596.19 102.81 2587.92 95.33 2589.68C79.03 2593.52 102.15 2609.19 97.32 2612.96C81.83 2625.04 47.13 2612.47 29.67 2611.16" />
	<path id="dark blue leaves" class="shp1" d="M2022.7 3128.74C2009.81 3093.53 1996.27 3049.18 1999.97 3011.5C2000.8 3003.04 2002.87 2994.68 2005.79 2986.7C2030.87 2918.31 2038.7 2994.59 2043.77 3023.12C2046.48 3038.44 2047.56 3054.04 2048.02 3069.58C2048.84 3098.1 2046.52 3126.66 2043.12 3154.95M2003.97 3125.97C2001.63 3125.35 1994.6 3116.7 1992.03 3115.01C1974.26 3103.33 1955.71 3088.3 1949.1 3067.22C1946.39 3058.57 1946.42 3049.59 1948.49 3040.82C1948.59 3040.38 1950.38 3032.47 1951.58 3032.8C1954.17 3033.5 1957.53 3038.73 1959.32 3040.57C1965.93 3047.34 1972.91 3053.71 1979.71 3060.29C1987.11 3067.46 1993.7 3075.06 1999.13 3083.84C2007.23 3096.93 2011.38 3109.51 2012.63 3124.75M2060.64 3123.99C2055.64 3122.5 2058.37 3102.96 2058.71 3099.54C2060.34 3082.99 2071.24 3070.13 2080.71 3057.3C2081.45 3056.29 2089.87 3044.91 2090.22 3045.31C2091.62 3046.91 2090.32 3052.17 2090.22 3053.88C2089.7 3062.22 2089.17 3070.56 2088.63 3078.89C2088.12 3086.68 2088.05 3094.65 2086.72 3102.36C2084.61 3114.47 2078.94 3125.89 2072.59 3136.3M1097.67 249.35C1085.51 252.13 1067.82 243.95 1059.82 235.88C1058.62 234.66 1050.91 226.45 1052.22 223.94C1053.78 220.93 1058.66 227.6 1062.13 227.22C1067.16 226.67 1075.55 219.93 1073.18 214.42C1067.97 202.24 1052.15 213.47 1045.7 210.64C1038.34 207.41 1032.76 189.62 1030.87 183.03C1030.01 180.03 1026.75 168.26 1028.89 165.17C1029.7 164 1029.98 167.81 1030.78 169C1032.36 171.37 1034.46 173.46 1037.29 174.38C1042.84 176.16 1046.25 170.95 1046.79 166.22C1047.5 159.98 1042.1 153.43 1036.35 151.05C1035.61 150.74 1029.43 150.13 1029.22 149.59C1024.52 137.82 1035.07 113.17 1039.09 102.13C1040.07 99.42 1041.57 91.43 1044.42 89.6C1044.81 89.35 1054.95 98.45 1055.62 98.98C1064.15 105.87 1071.87 113.55 1078.81 121.94C1080.56 124.06 1085.77 128.88 1085.56 131.96C1085.35 135.04 1079.1 139.57 1078.29 143.72C1076.94 150.55 1084.76 153.84 1090.61 151.74C1099.76 148.45 1101.65 142.03 1106.81 150.1C1111.91 158.07 1114.26 167.46 1115.12 176.7C1115.23 177.85 1116.48 184.41 1115.45 185.4C1112.13 188.61 1103.6 190.86 1106.34 198.29C1109.84 207.79 1122.09 193.1 1125.13 195.65C1128.76 198.68 1126.72 206.92 1126.13 210.68C1123.86 224.98 1113.93 239.59 1101.43 247.63M278.52 1319.71C282.2 1320.07 273.82 1313.95 271.08 1311.47C264.97 1305.95 257.78 1301.81 250.55 1297.94C230.51 1287.24 192.09 1276.87 171.86 1293.73C159.94 1303.66 198.58 1306.07 187.93 1321.09C177.19 1336.25 161.08 1312.66 150.62 1311.71C142.49 1310.97 131.71 1319.84 125.72 1324.28C114.86 1332.3 103.76 1343.09 96.12 1354.27C95.64 1354.98 88.21 1365.85 89.6 1367.24C93.69 1371.33 113.45 1368.7 107.74 1382.03C101.74 1396.02 83.28 1386.98 73.52 1393.49C54 1406.51 46.1 1446.43 42.65 1467.95C42.11 1471.37 37.62 1487.26 40.03 1490.47C42.51 1493.78 57.28 1485.85 59.2 1484.98C75.32 1477.67 102.67 1462.9 109.72 1444.88C112.47 1437.87 103.28 1433.16 107.02 1426.35C116.27 1409.48 128.2 1435.54 134.39 1436.05C142.22 1436.7 153.82 1429.27 159.85 1425.23C176.79 1413.87 195.19 1397.03 204.48 1378.45C207 1373.43 191.23 1365.51 200.66 1357.85C212.01 1348.63 219.7 1371.2 228.27 1369.23C244.55 1365.47 267.36 1334.69 277.44 1321.25M204.84 3170.31C201.71 3164.05 194.1 3160.54 191.26 3153.2C181.64 3128.38 179.79 3094.11 156.94 3076.51C149.08 3070.45 136.59 3063.64 126.51 3067.78C108.82 3075.05 114.18 3104.95 121.25 3117.28C141.43 3152.42 182.05 3169.15 215.11 3189.31M2126.54 3238.8C2127.41 3238.79 2128.16 3238.75 2129 3238.99M199.43 3181.3C189.61 3181.87 172.24 3171.59 163.89 3166.62C139.94 3152.36 119.33 3133.08 98.63 3114.62C85.55 3102.97 71.33 3089.64 53.09 3087.72C48.71 3087.25 44.08 3087.34 39.77 3088.26C3 3096.14 43.44 3138.57 57.58 3148.43C103.61 3180.53 154.41 3176.34 205.92 3188.7M219.38 3180.17C216.46 3181.19 206.79 3155.41 206.14 3153.25C198.13 3126.38 195.88 3101.2 211.02 3076.37C214.41 3070.82 223.05 3055.5 231.41 3056.32C246.95 3057.84 245.97 3084.41 244.34 3094.73C238.81 3129.69 215.21 3161.72 225.98 3198.35" />
	<path id="dark cream leaves" class="shp2" d="M2403.63 1019.29C2400.67 1019.84 2408.62 1001.14 2409.19 1000.17C2414.85 990.56 2426.94 975.97 2439.74 975.97C2440.58 975.97 2437.56 984.46 2437.38 985.04C2435.86 989.94 2431.78 1002.56 2440.31 1003.6C2469.56 1007.16 2444.96 974.04 2457.8 967.84C2460.3 966.63 2462.98 966.37 2465.72 966.62C2468.97 966.92 2475.74 966.77 2477.93 969.83C2480.97 974.09 2475.67 985.42 2484.21 986.25C2498.34 987.62 2491.23 972.28 2496.35 967.48C2503.24 961.02 2532.31 974.84 2534.47 983.04C2535.33 986.32 2531.11 992.05 2529.76 994.82C2526.14 1002.17 2515.63 1029.86 2504.63 1029.86C2497.51 1029.86 2499.92 1012.61 2487.78 1023.44C2477.99 1032.18 2492.9 1046.64 2481.86 1053.49C2470.59 1060.48 2463.52 1038.86 2451.8 1038.86C2442.15 1038.86 2447.65 1054.71 2443.81 1057.7C2431.64 1067.17 2401.82 1042.59 2396.55 1032.72M3390.12 169.03C3390.35 168.61 3384.16 168.74 3384.05 168.75C3370.22 169.95 3358.48 177.75 3349.6 185.64C3326.07 206.55 3329.43 236.69 3329.43 262.63C3329.43 264.33 3327.72 287.01 3329.7 287.15C3336.57 287.63 3349.57 271.74 3352.67 268.62C3373.22 247.94 3392.54 225.43 3399.25 199.31C3400.03 196.24 3403.18 167.04 3393.46 167.04M4431.2 779.8C4430.03 780.25 4426.23 768.18 4425.88 767.29C4422.03 757.82 4417.08 748.63 4411.59 740.01C4398.2 719.02 4376.19 704.5 4355.2 692.03C4327.84 675.77 4293.11 673.18 4261.96 669.62C4255.29 668.85 4248.59 668.1 4241.9 667.58C4232.77 666.88 4229.93 670.75 4236.23 676.95C4238.73 679.41 4241.4 681.7 4244.09 683.95C4248.04 687.26 4251.87 690.8 4256.02 693.85C4282.93 713.62 4312.75 725.74 4345.15 732.9C4374.41 739.36 4409.09 741.04 4431.49 763.44M4415.13 762.06C4415.74 761.1 4407.28 757.95 4406.45 757.62C4395.48 753.28 4383.92 750.14 4372.08 749.72C4351.84 749.02 4337.65 759.99 4322.25 771.79C4314.95 777.38 4305.54 784.31 4300.73 792.41C4300.34 793.06 4312.63 790.65 4314.03 790.4C4322.92 788.78 4331.91 787.54 4340.89 786.55C4368.29 783.55 4401.92 780.18 4422 758.43M4418.85 733.7C4419.79 732.91 4416.63 732.62 4415.64 731.9C4413.7 730.47 4412.13 728.7 4410.57 726.88C4405.75 721.27 4400.79 715.7 4396.52 709.65C4386.98 696.16 4382.59 680.14 4380.28 663.97C4379.69 659.85 4379.29 655.77 4379.29 651.6C4379.29 651.4 4379.22 648.25 4379.77 648.39C4381.06 648.74 4382.69 653.26 4383.28 654.24C4386.24 659.22 4389.49 664.03 4392.76 668.8C4400.15 679.58 4408.12 689.96 4413.54 701.94C4420.2 716.67 4421.76 732.15 4423.11 748.04" />
	<path id="darkyellow  leaves" class="shp3" d="M3025.98 1652.14C3011.46 1650.06 2996.48 1677.35 2993.84 1687.25C2984.67 1721.72 3007.09 1761.78 3045.82 1754.2C3058.37 1751.75 3069.38 1738.93 3071.88 1726.72C3072.81 1722.2 3072.35 1717.72 3071.51 1713.24C3071.09 1711 3070.73 1704.61 3069.71 1706.65C3065.78 1714.52 3064.14 1725.66 3057.43 1731.74C3043.82 1744.07 3016.62 1741.79 3009.27 1723.72C2997.53 1694.88 3029.7 1687.55 3042.45 1671.15C3050.67 1660.58 3041.14 1652.85 3031.06 1652.13M1292.87 3066.76C1294.42 3061.88 1282.87 3069.3 1277.75 3069.43C1267.17 3069.7 1257.03 3067.75 1247.3 3063.51C1220.48 3051.8 1203.25 3031.72 1195.56 3003.71C1194.82 3001.04 1188.37 2982.3 1190.93 2979.74C1193.8 2976.87 1211.21 2983.11 1214.44 2983.81C1242.83 2989.97 1271.63 2999.06 1287.47 3025.46C1292.27 3033.45 1296.04 3042.31 1297.84 3051.47C1298.73 3056 1302.12 3068.52 1298.86 3065.26M4216.03 1696.74C4219.82 1693.47 4206.9 1692.6 4202.7 1689.89C4193.84 1684.18 4178.44 1672.58 4179.17 1660.23C4179.78 1649.82 4203.87 1677.39 4202.22 1654.25C4200.77 1633.89 4145.76 1651.28 4162 1602.43C4164.03 1596.32 4181.76 1619.29 4189.34 1600.27C4195.94 1583.73 4170.8 1586.29 4165.18 1577.95C4155.21 1563.17 4167.58 1512.68 4184.49 1506.51C4200.88 1500.53 4231.83 1547.87 4235.37 1562.08C4237.77 1571.7 4217.72 1582.33 4225.11 1589.75C4236.51 1601.18 4245.67 1578.94 4250.79 1584.81C4260.43 1595.86 4266.78 1622.05 4255.8 1634.64C4250.17 1641.08 4239 1635.67 4238.15 1647.87C4236.66 1669.26 4257.35 1651.65 4261.36 1656.4C4271.05 1667.89 4234.6 1698.97 4224.56 1704.01M661.42 1831.31C665.92 1831.72 658.38 1822.77 657.51 1818.33C655.68 1808.98 653.58 1791.69 662.08 1784.41C669.24 1778.28 666.39 1811.26 680.42 1795.67C692.77 1781.96 646.96 1757.05 688.95 1736.98C694.2 1734.48 690.36 1760.42 707.5 1753.44C722.41 1747.36 704.98 1732.6 706.88 1723.7C710.26 1707.95 750.9 1684.34 765.52 1691.48C779.68 1698.4 768.26 1748.23 761.23 1759.45C756.46 1767.04 736.97 1760.65 736.78 1770.12C736.48 1784.71 756.71 1776.73 756.1 1783.74C754.95 1796.95 741.87 1817.51 726.79 1818.25C719.06 1818.63 715.58 1807.96 707.1 1815.06C692.25 1827.5 716.68 1829.93 716.1 1835.52C714.7 1849.03 671.6 1844.79 662.03 1841.41M3935.78 2089.47C3930.34 2076.58 3949.35 2058.82 3960.53 2056.67C3973.02 2054.28 3979.42 2065.73 3990.98 2065.73C4004.14 2065.73 4013.44 2052.79 4026.56 2052.58C4039.57 2052.37 4044.91 2065.73 4056.26 2065.5C4069.23 2065.23 4087.29 2054.73 4093.23 2071.9C4100.2 2092.04 4080.2 2124.02 4058.63 2125.18C4047.69 2125.76 4038.06 2117.44 4026.62 2121.95C4016.35 2125.99 4010.25 2136.54 3999.35 2140.17C3989.69 2143.39 3980.65 2137.55 3971.55 2135.73C3967.6 2134.94 3964.86 2142.16 3960.3 2141.21C3943.06 2137.62 3935.72 2102.77 3931.47 2089.31M3288.84 2939.6C3286.99 2953.47 3261.59 2959.13 3250.87 2955.3C3238.89 2951.03 3239.19 2937.92 3229.22 2932.06C3217.88 2925.38 3203.3 2931.81 3191.89 2925.33C3180.58 2918.92 3182.75 2904.69 3172.85 2899.14C3161.54 2892.79 3140.65 2892.67 3144.24 2874.87C3148.45 2853.97 3181.9 2836.56 3201.09 2846.51C3210.81 2851.55 3214.88 2863.61 3227.03 2865.53C3237.93 2867.25 3248.54 2861.26 3259.78 2863.66C3269.73 2865.79 3274.56 2875.4 3281.48 2881.59C3284.48 2884.27 3290.51 2879.45 3293.95 2882.57C3306.99 2894.42 3295.63 2928.17 3292.47 2941.92" />
	<path id="light green leaves" class="shp4" d="M1533.93 1845.92C1529.99 1845.03 1534.29 1853.23 1534.24 1856.11C1534.06 1866.95 1532.34 1877.9 1528.26 1887.99C1523.2 1900.5 1477.08 1960.85 1459.16 1950.98C1451.36 1946.68 1456.45 1917.99 1457.68 1911.9C1463.53 1882.97 1494.41 1835.6 1526.41 1830.58M2183.52 2529.15C2183.84 2529.01 2183.04 2524.73 2183.09 2524.23C2183.41 2521.05 2186.13 2517.15 2187.78 2514.6C2194.44 2504.23 2204.48 2494.51 2216.55 2491.2C2218.94 2490.55 2221.47 2490.17 2223.94 2490.08C2233.6 2489.72 2231.6 2494.11 2228.38 2503.09C2226.36 2508.71 2230.4 2516 2236.95 2514.91C2250.69 2512.62 2246.9 2499.87 2254.21 2494.02C2261.46 2488.22 2278.33 2491 2286.43 2492.52C2290.62 2493.3 2298.71 2494.03 2301.94 2497.27C2303.69 2499.02 2288.11 2510.96 2296.25 2516.66C2306.65 2523.94 2308.12 2507.34 2314.89 2507.65C2330.03 2508.34 2342.71 2531.19 2349.55 2542.12C2350.97 2544.4 2358.51 2553.23 2357.68 2556.13C2357.05 2558.34 2350 2562 2348.17 2563.51C2337.17 2572.57 2328.32 2580.47 2312.83 2576.9C2302.55 2574.52 2311.71 2556.74 2302.76 2557.82C2295.41 2558.7 2295.35 2571.54 2290.37 2575.52C2287.68 2577.67 2276.65 2575.79 2273.79 2575.64C2269.86 2575.44 2266.12 2574.64 2262.47 2573.14C2259.93 2572.1 2249.96 2565.06 2249.96 2561.26C2249.96 2558.09 2264.96 2550.41 2250.83 2546.37C2240.59 2543.44 2240.89 2556.65 2233.76 2560.07C2218.46 2567.41 2192.51 2551.97 2185.03 2539.05M3.83 268.09C2.28 267.22 3.97 257.62 3.97 256.07C3.97 240.51 2.97 224.82 2.17 209.29C-0.19 163.57 -4.64 119.4 19.24 77.97C25.84 66.52 33.54 56.39 44.03 48.26C50 43.64 56.4 39.47 62.99 35.79C66.94 33.58 70.63 32.53 74.97 31.52C96.09 26.59 92.48 37.36 91.47 58.44C90.56 77.31 87.73 96.34 84.33 114.91C80.28 137.05 74.91 159.02 64.63 179.17C48.79 210.23 25.92 236.99 4.22 264.11M78.67 232.02C80.33 232.95 77.4 228.39 77.23 226.49C76.82 221.83 77.23 217.09 77.76 212.46C79.49 197.33 83.2 182.19 92.02 169.54C106 149.49 127.1 136.82 151.09 133.25C151.99 133.12 176.14 131.49 176.14 132.2C176.14 137.94 166.21 150.41 163.61 155.66C145.58 192.21 122.14 214.02 85 230.26M1541.41 1155.7C1546.74 1161.47 1541.91 1188.49 1541.39 1195.26C1539.26 1223.17 1539.26 1248.68 1556.99 1271.96C1564.06 1281.25 1572.17 1290.94 1581.82 1297.64C1587.52 1301.61 1593.84 1304.67 1600.06 1307.73C1605.86 1310.58 1622.28 1320.27 1629.47 1316.67C1632.65 1315.08 1630.81 1299.53 1630.69 1297C1629.76 1277.51 1626.05 1258.4 1619.88 1239.91C1606.15 1198.73 1573.12 1188.5 1545.33 1160.71M953.68 2535.86C953.8 2536.3 953.74 2536.61 953.51 2537.05M947.78 2538.1C948.76 2542.85 939.59 2543.49 934.98 2544.95C919.56 2549.85 901.91 2549.01 886.09 2546.86C820 2537.86 774.48 2479.11 709.71 2466.77C706.8 2466.22 715.6 2467.37 718.54 2467.74C724.68 2468.51 730.82 2469.29 736.9 2470.45C756.23 2474.13 770.15 2481.92 787.17 2490.46C814.7 2504.25 841.06 2525.07 870.07 2535.33C892.75 2543.35 918.5 2543.33 942.17 2541.95M942.06 2544.6C945.26 2547.26 941.23 2555.68 939.64 2557.89C934.22 2565.47 925.08 2571.32 916.2 2573.6C915.69 2573.73 904.6 2575.63 904.62 2575.29C904.83 2572.17 913.78 2564.76 915.78 2562.69C918.82 2559.55 922.02 2556.65 925.59 2554.12C930.68 2550.51 936.3 2546.86 942.06 2544.4M917.25 2547.14C918.45 2550.08 913.63 2554.9 912.09 2556.67C905.58 2564.18 896 2568.14 886.71 2570.78C880.53 2572.54 872.99 2574.02 878.94 2567.31C880.28 2565.8 880.11 2566 881.34 2564.64C883.19 2562.6 885.06 2560.58 887.12 2558.75C890.36 2555.85 893.86 2553.05 897.82 2551.22C903.48 2548.59 909.55 2546.98 915.65 2545.79M881.58 2546.46C884.59 2545.93 875.72 2556.16 875.11 2556.66C866.7 2563.56 855.43 2567.16 844.67 2567.74C843.63 2567.79 835.36 2568.13 834.81 2566.51C834.02 2564.19 842.85 2558.02 844.15 2557.01C854.1 2549.24 867.42 2542.82 880.27 2543.11M850.56 2535.62C852.26 2534.71 850.15 2539.48 850.03 2539.67C847.81 2543.03 844.66 2545.74 841.09 2547.57C832.42 2552 822.04 2554.59 812.33 2553.85C811.56 2553.79 798.35 2552.66 798.38 2552.38C798.64 2550.08 807.14 2545.53 808.87 2544.43C818.17 2538.5 828.56 2535.41 839.44 2534.2C841.61 2533.96 848.6 2532.47 850.42 2534.27M823.97 2520.05C822.8 2521.86 823.27 2524.49 821.76 2526.42C814.84 2535.32 799.24 2538.01 788.89 2538.79C782.65 2539.26 775.69 2539.26 769.61 2537.56C769.17 2537.44 764.54 2536.28 764.66 2535.65C765.08 2533.45 773.03 2530.14 774.65 2529.28C777.76 2527.62 780.93 2526.09 784.18 2524.71C789.05 2522.65 794.01 2520.9 799.27 2520.21C808.87 2518.94 817.75 2522.26 827.02 2521.72M794.26 2503.18C792.9 2520.44 765.07 2526.15 750.93 2526.82C745.85 2527.06 740.65 2527.27 735.58 2526.83C734.91 2526.77 731.31 2527.04 731.5 2525.67C731.76 2523.89 735.27 2522.34 736.52 2521.53C741.61 2518.25 746.71 2515.02 751.99 2512.04C757.01 2509.21 762 2506.49 767.58 2504.93C776.07 2502.54 785.1 2502.12 793.87 2502.52M769.27 2489.92C770.75 2489.52 769.04 2493.18 768.09 2494.39C765.3 2497.93 761.67 2500.32 757.64 2502.26C746.98 2507.39 734.63 2507.98 723.01 2507.23C721.47 2507.13 713.5 2507.54 712.61 2505.83C711.93 2504.53 722.75 2499.4 723.56 2498.96C736.78 2491.83 750.5 2488.28 765.53 2489.17M743.26 2475.91C741.76 2476.48 742.19 2479.15 740.94 2480.17C736.81 2483.51 731.98 2486.37 726.84 2487.7C718.16 2489.94 708.49 2489.01 699.69 2488.07C699.29 2488.02 691.82 2486.81 692.05 2486.42C693.56 2483.99 700.49 2482.31 702.87 2481.46C715.06 2477.12 728.07 2476.2 740.86 2477.06M728.37 2472.18C728.27 2472.58 716.52 2472.83 715.83 2472.84C707.09 2472.96 697.99 2472.08 689.88 2468.64C688.17 2467.92 686.53 2467.05 685 2466C671.78 2456.94 690.79 2459.84 696.81 2460.84C701.04 2461.55 705.2 2462.7 709.31 2463.9C715.25 2465.64 722.39 2467.34 727.86 2470.3M742.88 2471.85C741.4 2473.44 732.97 2465.78 732.13 2465.06C725.24 2459.11 718.36 2451.58 714.29 2443.33C713.74 2442.2 710.73 2436.21 711.57 2434.79C712.24 2433.64 720.96 2440.11 721.5 2440.48C723.76 2442.05 725.79 2443.81 727.78 2445.7C731.02 2448.78 734.01 2452.11 736.7 2455.68C740.41 2460.59 743.82 2466.87 745.37 2472.89M758.5 2478.2C758.29 2478.53 750.78 2468.25 750.21 2467.37C745.93 2460.75 741.5 2452.51 740.53 2444.56C739.48 2435.96 744.79 2434.58 749.99 2441.52C751.36 2443.36 752.54 2445.36 753.64 2447.37C755.87 2451.44 757.94 2455.68 759.45 2460.08C761.77 2466.84 762.58 2473.9 764.04 2480.83M780.27 2489.51C780.29 2489.5 778.29 2486.18 778.14 2485.9C776.79 2483.51 775.63 2481.04 774.65 2478.47C771.76 2470.9 768.78 2461.64 769.99 2453.42C770.19 2452.02 771.15 2445.67 773.19 2445.39C774.87 2445.16 778.86 2454.4 779.47 2455.61C785.8 2468.13 785.81 2479.75 786.55 2493.2M801.89 2503.96C803.01 2504.12 801.55 2500.12 801.47 2499.98C799.06 2495.51 795.68 2491.66 793.31 2487.15C787.23 2475.56 788.18 2462.71 789.93 2450.16C790.13 2448.75 790.26 2440.58 791.66 2439.63C791.74 2439.58 793.23 2442.98 793.25 2443.03C794.91 2447.21 796.48 2451.41 797.92 2455.68C802.9 2470.54 804.05 2483.96 800.52 2499.22M823.22 2513.01C819.76 2511.18 817.88 2504.29 816.75 2501.02C813.02 2490.26 811.01 2479.23 810.94 2467.82C810.89 2458.69 812.34 2448.15 818.02 2458.47C818.85 2459.98 819.64 2461.49 820.42 2463.02C821.79 2465.72 823.04 2468.43 824.1 2471.26C826.13 2476.68 827.48 2482.34 828.03 2488.12C828.84 2496.76 827.95 2505.59 826.58 2514.13M849.73 2530.4C849.91 2528.59 846.78 2525.94 845.98 2524.66C843.56 2520.83 841.38 2516.72 839.6 2512.55C835.03 2501.83 833.34 2484.91 837.39 2473.47C837.42 2473.41 840.95 2478.03 841.24 2478.49C843.66 2482.3 845.9 2486.28 847.5 2490.51C852.35 2503.35 854.43 2517.91 854.09 2531.65M872.9 2537.64C872.97 2537.5 869.43 2535.79 869.29 2535.67C867.25 2533.87 865.88 2531.32 864.68 2528.93C859.84 2519.26 856.63 2507.8 856.01 2496.99C855.91 2495.36 855.2 2487.12 857.4 2485.85C859.11 2484.86 866.33 2495.95 866.88 2496.77C875.53 2509.81 882.1 2525.3 879.05 2541.26M903.26 2547.03C902.08 2543.63 896.82 2541.21 894.35 2538.99C890.31 2535.35 887.24 2530.75 885.02 2525.78C883.37 2522.08 882.22 2518.09 881.38 2514.13C880.79 2511.37 880.43 2508.61 880.25 2505.8C880.15 2504.24 880.12 2503.09 880.13 2501.55C880.19 2487.1 888.28 2502.74 891.69 2507.98C898.7 2518.75 904.28 2530.9 905.27 2543.91M924.37 2546.28C919.54 2540.83 913.84 2537.75 909.86 2530.61C907.99 2527.24 906.47 2523.74 905.17 2520.11C903.41 2515.21 901.56 2509.85 901.54 2504.57C901.53 2503.76 901.66 2500.52 903.09 2500.64C906.05 2500.9 910.21 2507.87 911.68 2510.01C917.61 2518.6 927.03 2534.81 925.78 2545.94M941.67 2542.91C940.9 2541.79 936.62 2541.69 935.35 2540.81C931.22 2537.93 928.66 2532.73 926.41 2528.38C924.49 2524.66 922.79 2520.82 921.32 2516.9C920.31 2514.17 919.36 2511.34 918.67 2508.51C918.4 2507.43 918.1 2505.74 917.97 2504.6C916.53 2492.15 926.48 2507.56 929.18 2510.83C936.31 2519.48 943.64 2530.34 943.59 2542.09M947.02 2539.7C947.64 2538.84 946.49 2541.76 946.12 2542.76C945.37 2544.84 944.31 2546.77 943.55 2548.84C941.21 2555.2 941.66 2560.95 944.78 2566.89C945.02 2567.35 947.33 2571.99 947.83 2571.92C948.72 2571.8 950.57 2565.49 950.89 2564.77C954.34 2557.03 955.57 2543.96 948.85 2537.71M949.13 2539.66C949.07 2540.45 943.43 2532.84 942.74 2531.45C939.78 2525.51 937.11 2518.78 936.47 2512.12C936.27 2510.09 936.32 2508.06 936.25 2506.02C936.25 2505.74 936.07 2503.38 936.09 2503.38C937.99 2503.74 940.98 2509.26 941.93 2510.71C947.09 2518.63 950.26 2529.25 948.92 2538.72M3157.51 2450.12C3159.02 2450.89 3166.63 2413.15 3166.96 2411.68C3172.94 2384.74 3184.61 2364.26 3202.3 2343.29C3242.45 2295.71 3284.34 2244.62 3308.03 2186.44C3314.96 2169.43 3327.91 2137.75 3322.64 2118.69C3321.59 2114.9 3325.08 2126.2 3325.65 2130.09C3327.04 2139.58 3327.23 2148.78 3325.75 2158.28C3321.13 2188.06 3314.39 2213.7 3299.82 2240.48C3277.65 2281.22 3240.02 2302.48 3211.84 2337.13C3187.35 2367.26 3176.39 2408.89 3164.52 2444.93M3166.51 2437.29C3165.55 2438.85 3166.46 2442.89 3166.69 2444.55C3167.53 2450.87 3168.7 2462.28 3175.56 2465.54C3183.3 2469.21 3181.09 2455.64 3179.88 2452.46C3178.94 2450.02 3177.67 2447.74 3176.26 2445.54C3173.52 2441.27 3168.02 2439.11 3165.65 2435.03M3169 2419.94C3170.38 2419.89 3169.05 2422.71 3169.35 2424.05C3170.04 2427.1 3171.04 2430.02 3172.26 2432.89C3174.18 2437.39 3185.53 2456.47 3192.94 2450.77C3195.49 2448.81 3192.51 2443.1 3191.62 2441.03C3187.28 2430.88 3178.67 2426.18 3170.24 2419.95M3174.74 2403.24C3175.5 2402.51 3174.49 2405.37 3174.69 2406.41C3175.2 2409.19 3176.08 2411.84 3177.27 2414.4C3180.36 2421.05 3185.77 2426.68 3192.19 2430.26C3193.72 2431.12 3197.31 2432.93 3199.01 2431.56C3201.9 2429.23 3198.71 2423.22 3197.5 2420.96C3191.95 2410.6 3184.84 2409.85 3176.41 2403.7M3183.01 2386.96C3182.72 2385.13 3180.96 2386.67 3181.36 2388.45C3182.07 2391.59 3184.07 2394.57 3185.9 2397.15C3190.88 2404.18 3196.71 2411.71 3204.32 2416.03C3206.81 2417.43 3211.3 2419.76 3213.9 2417.43C3217.63 2414.09 3214.35 2408.06 3212.39 2404.7C3204.41 2391.03 3196.16 2391.16 3183.24 2386.49M3189.03 2369.37C3189.41 2367.96 3190.09 2372.11 3190.68 2373.46C3191.85 2376.12 3193.53 2378.62 3195.52 2380.76C3200.7 2386.34 3209.63 2390.52 3216.96 2392.31C3218.85 2392.77 3222.92 2393.84 3224.61 2392.29C3228.1 2389.11 3223.16 2381.83 3221.1 2379.49C3214.18 2371.61 3202.14 2369.68 3192.19 2368.9M3199.12 2353.6C3199.98 2354.16 3201.06 2358 3201.85 2358.97C3205.01 2362.86 3208.96 2366.54 3213.29 2369.09C3219.95 2373.01 3224.44 2367.79 3219.58 2361.77C3215.3 2356.46 3207.79 2355.91 3201.8 2353.78M3212.14 2336.97C3213.45 2337.79 3215.06 2344.8 3215.93 2346.26C3219.96 2352.97 3225.51 2359.24 3231.88 2363.83C3241.11 2370.49 3254.08 2365.82 3244.56 2354.45C3236.13 2344.38 3224.35 2343.09 3214.01 2336.4M3229.2 2319.58C3224.34 2323.25 3232.86 2333.72 3234.79 2336.5C3241.51 2346.19 3251.31 2358.6 3263.45 2361.54C3272.23 2363.66 3275.84 2355.07 3273.42 2347.86C3271.95 2343.49 3268.27 2339.93 3264.83 2337.06C3260.53 2333.46 3255.75 2330.2 3250.75 2327.66C3243.73 2324.11 3236.07 2322.66 3228.95 2319.55M3242.86 2303.4C3242.47 2317.8 3257.07 2333.09 3269.8 2338.98C3272.16 2340.07 3274.68 2340.93 3277.2 2341.58C3278.87 2342.01 3280.56 2342.25 3282.27 2342.38C3298.76 2343.58 3284.41 2325.55 3278.91 2321.22C3275.49 2318.53 3271.78 2316.22 3268.11 2313.91C3260.26 2308.98 3251.76 2305.6 3243.8 2300.97M3265.6 2281.06C3263.58 2279.59 3264.26 2286.13 3264.32 2286.56C3265 2291.19 3266.87 2295.7 3269.1 2299.78C3274.4 2309.48 3282.28 2319.48 3292.25 2324.72C3295.69 2326.54 3301.28 2328.35 3304.98 2326.06C3310.08 2322.9 3302.33 2313.93 3300.1 2311.6C3290.02 2301.07 3277.8 2293.03 3267.19 2283.1M3277.81 2266.37C3275.53 2265.93 3280.15 2278.61 3280.39 2279.16C3285.15 2289.92 3292.77 2299.43 3302.85 2305.59C3305.71 2307.34 3313.28 2312.01 3316.3 2307.94C3319.54 2303.56 3313 2296.87 3310.27 2294.39C3299.52 2284.61 3285.9 2278.61 3275.27 2268.68M3283.59 2251.04C3284.02 2251.42 3286.1 2259.23 3286.98 2260.65C3291.36 2267.79 3297.06 2274.67 3304.35 2278.98C3307.28 2280.71 3314.97 2284.8 3318.52 2282.49C3323.65 2279.16 3315.46 2270.79 3312.88 2269.21C3303.89 2263.75 3291.35 2262.27 3283.76 2254.74M3296.72 2235.61C3294.82 2235.27 3300.81 2246.94 3301.05 2247.32C3306.98 2256.6 3314.56 2264.49 3325.13 2268.1C3327.92 2269.05 3332.79 2271.18 3335.1 2268.11C3338.95 2262.98 3332.74 2255.55 3329.54 2251.96C3325.16 2247.05 3319.93 2242.97 3313.95 2240.18C3306.98 2236.93 3299.68 2235.79 3294.56 2229.75M3308.13 2213.2C3303.28 2211.6 3310.84 2223.94 3310.95 2224.1C3317.27 2232.67 3326.11 2240.95 3335.75 2245.64C3338.75 2247.1 3346.8 2249.97 3349.13 2245.62C3351.38 2241.41 3346.71 2234.97 3344.23 2231.97C3334.85 2220.64 3318.12 2219.87 3307.23 2210.68M3312.7 2194.13C3313.74 2192.85 3314.28 2197.05 3315.21 2198.41C3317.23 2201.36 3319.64 2203.91 3322.38 2206.2C3329.84 2212.43 3338.19 2217.51 3347.94 2218.83C3350.37 2219.16 3355.35 2219.94 3357.23 2217.55C3359.95 2214.09 3353.64 2207.88 3351.36 2206.34C3340.72 2199.19 3327.91 2199.85 3316.02 2196.44M3318.82 2180.74C3316.77 2181.56 3322.55 2187.85 3323.69 2188.94C3328.51 2193.6 3345.71 2199.24 3349.17 2189.79C3350.55 2186.01 3346.8 2183.83 3343.83 2182.59C3336.04 2179.32 3327.72 2181.23 3319.92 2178.71M3322.07 2163.24C3319.73 2164.94 3330.98 2169.18 3331.81 2169.36C3335.7 2170.24 3340.35 2171.03 3344.23 2169.68C3352.29 2166.89 3346.4 2162.22 3340.92 2161.52C3338.98 2161.27 3337.04 2161.35 3335.08 2161.44C3331.49 2161.59 3327.9 2161.81 3324.31 2161.9M3324.5 2146.51C3323.86 2147.41 3328.75 2149.57 3329.73 2150.02C3334.4 2152.16 3340.25 2153.5 3345.35 2152.19C3347.61 2151.61 3354.06 2146.31 3349.55 2144.17C3344 2141.55 3333.71 2142.21 3327.79 2143.25M3325.03 2141.78C3324.65 2142.64 3320.49 2144.15 3319.7 2144.55C3313.01 2147.96 3305.68 2146.6 3298.98 2149.41C3296.33 2150.52 3292 2153.99 3293.03 2157.34C3294.1 2160.85 3299.06 2160.97 3302.01 2160.77C3309.65 2160.24 3315.3 2154.88 3320.43 2149.72M3322.55 2159.05C3314.38 2167.9 3295.68 2160.68 3288.07 2169.9C3283.36 2175.61 3291.98 2179.74 3296.83 2178.8C3304.72 2177.29 3312.05 2170.07 3317.52 2164.6M3317.32 2178.51C3318.45 2177.65 3314.75 2179.72 3313.48 2180.35C3310.58 2181.78 3307.77 2183.33 3304.7 2184.37C3297.42 2186.83 3289.57 2186.93 3282.43 2189.87C3279.99 2190.88 3276.82 2193.12 3277.58 2196.24C3278.77 2201.14 3285.38 2200.63 3288.94 2199.72C3298.49 2197.27 3308.39 2191.69 3314.63 2183.98M3307.98 2200.61C3305.97 2202.57 3301.05 2203 3298.5 2203.45C3288.53 2205.22 3270.77 2201.39 3262.66 2208.11C3255.03 2214.44 3264.52 2223.67 3271.88 2223.42C3284.1 2223.01 3296.15 2212.9 3305.88 2206.36M3293.45 2227.96C3287.6 2228.89 3282.26 2232.12 3275.98 2232.61C3264.92 2233.47 3247.93 2227.7 3239.39 2237.98C3234.75 2243.55 3245.35 2249.8 3249.73 2250.31C3262.03 2251.75 3277.28 2243.1 3287.73 2237.55M3278.49 2255.09C3278.23 2253.64 3265.57 2257 3264.12 2257.12C3256.07 2257.76 3240.97 2254.92 3234.22 2260.13C3229.68 2263.64 3232.79 2268.37 3236.72 2270.73C3242.26 2274.07 3249.51 2274.21 3255.75 2273.46C3260.78 2272.85 3265.51 2271.29 3270.06 2269.1M3257.75 2281.27C3262.02 2278.61 3247.49 2282.15 3244.1 2281.98C3237.95 2281.67 3215.83 2274.16 3214.02 2285.12C3213.38 2289.03 3220.08 2289.6 3222.59 2289.85C3232.47 2290.8 3243.11 2288.37 3252.24 2284.78M3246.23 2296.12C3247.08 2296.13 3242.49 2297.03 3242 2297.06C3239.25 2297.22 3236.49 2297.11 3233.75 2297.14C3226.42 2297.22 3218.7 2297.4 3211.5 2298.89C3208.94 2299.42 3205.01 2300.39 3204.04 2303.24C3202.79 2306.9 3208.26 2309.57 3210.83 2310.55C3218.9 2313.62 3227.06 2310.11 3234.39 2306.67M3225.11 2320.62C3225.38 2320.47 3228.51 2319.03 3228.36 2318.96C3225.97 2317.77 3218.84 2319.59 3216.04 2319.29C3205.83 2318.2 3195.3 2314.07 3184.96 2315.66C3180.21 2316.4 3173.95 2319.14 3173.81 2324.78C3173.62 2332.09 3182.22 2334.06 3187.93 2333.68C3200.18 2332.87 3211.95 2327.04 3223.29 2322.79M3208.57 2337.66C3208.65 2337.43 3204.46 2337.48 3204.04 2337.47C3200.54 2337.45 3197.1 2337.57 3193.61 2338C3184.75 2339.08 3174.1 2341.12 3167.07 2347.1C3159.9 2353.21 3172.34 2355.28 3176.6 2354.39C3187.62 2352.09 3197.46 2345.33 3206.96 2339.65M3191.86 2360.67C3194.47 2360.73 3191.49 2359.17 3189.95 2359.19C3187.16 2359.21 3184.39 2359.71 3181.7 2360.4C3176.06 2361.84 3156.37 2367.77 3157.79 2376.52C3158.38 2380.1 3165.03 2378.42 3167.05 2377.84C3175.67 2375.4 3182.99 2369.94 3190.73 2365.67M3181.65 2380.18C3182.13 2379.86 3171.11 2383.09 3169.18 2384.12C3160.98 2388.52 3152.37 2393.57 3146.57 2401.03C3144.56 2403.62 3141.54 2409.06 3143.73 2412.41C3146.6 2416.8 3153 2413.31 3155.64 2410.79C3163.36 2403.39 3169.42 2394.1 3176.24 2385.9M3173.36 2403C3163.81 2407.63 3155.45 2412.29 3148.53 2421.12C3146.48 2423.73 3140.1 2438.69 3149.65 2435.06C3154.98 2433.03 3158.5 2426.45 3161.41 2421.99C3164.56 2417.18 3167.64 2412.33 3170.89 2407.58M3166.03 2432.23C3166.27 2431.92 3163 2433.48 3162.83 2433.61C3160.98 2435.04 3159.29 2436.65 3157.69 2438.36C3153.56 2442.74 3141.51 2453.35 3145.55 2460.67C3147.1 2463.47 3151.03 2460.28 3152.45 2459.07C3157.87 2454.47 3160 2447.77 3162.15 2441.21M3164.87 2441.03C3164.87 2438.47 3159.23 2449.27 3158.9 2450.11C3156.14 2457.1 3147.8 2474.96 3159.14 2479.46C3164.25 2481.49 3166.35 2477.32 3166.76 2472.88C3167.56 2464.2 3166.69 2455.38 3167.63 2446.66" />
	<path id="cream leaves" class="shp5" d="M2656.79 267.72C2653.53 272.8 2665.92 275.92 2668.89 281.16C2676.15 293.95 2679.69 308.21 2682.62 322.51C2688.13 349.44 2693.65 374.39 2710.25 397.03C2721.37 412.22 2734.94 423.58 2751.87 431.84C2762.27 436.91 2773.39 441.51 2784.59 444.47C2790.85 446.13 2824.18 454.87 2830.31 448.74C2832.31 446.73 2822.75 416.18 2822.04 412.84C2812.85 369.99 2795.03 333.91 2756.87 310.42C2726.39 291.67 2688.33 284.24 2659.98 262.99M3357.9 1031.63C3368.65 1027.48 3378.51 1010.07 3385.27 1001.85C3403.39 979.79 3421.59 957.9 3446.97 943.91C3457.47 938.12 3470.85 930.9 3483.3 932.49C3518.35 936.98 3501.7 978.48 3485.37 992.75C3447.17 1026.15 3396.76 1016.34 3354 1035.97M3365.8 1019.4C3365.69 1019.94 3368.75 1010.77 3369.26 1009C3371.14 1002.48 3373.03 995.94 3374.65 989.35C3379.2 970.93 3379.73 948.3 3391.85 932.8C3395.78 927.77 3404.53 917.99 3411.88 921.91C3421.74 927.18 3416.13 944.9 3413.22 952.36C3403.64 976.95 3384.77 996.74 3365.79 1014.44M3357.51 1057.97C3357.5 1057.97 3360.1 1057 3360.52 1056.83C3363.01 1055.84 3365.63 1055.29 3368.3 1055.03C3375.24 1054.36 3382.39 1054.85 3389.25 1055.99C3408.8 1059.24 3431.7 1068.58 3445.68 1083.05C3450.43 1087.97 3457.38 1097.32 3453.54 1104.62C3448.17 1114.84 3432.68 1108.15 3425.94 1103.58C3406.87 1090.65 3390.24 1067.17 3366.25 1062.99M4162.57 238.58C4134.91 265.22 4100.68 280.45 4068.26 301.69C4040.56 319.84 4018.85 343.47 4007.6 374.96C4004.05 384.88 4001.41 395.08 3999.96 405.52C3999.49 408.93 3999.11 412.34 3999.02 415.78C3998.99 417.36 3998.97 421.99 3999.47 420.5C4012.42 381.52 4030.79 341.32 4065.32 316.84C4108.92 285.92 4162.64 276.99 4183.99 220.99M4000.81 396.96C4002.7 393.16 3986.66 393.97 3986.31 394.04C3973.54 396.6 3960.01 406.41 3954.51 418.39C3953.62 420.33 3949.9 427.08 3951.3 429.43C3952.58 431.55 3964.74 426.18 3965.85 425.71C3979.34 420.02 3992.97 411.82 4001.79 399.81M3998.15 416.63C3998.04 416.9 3997.98 415.66 3997.75 415.84C3990.12 421.87 3984.41 431.45 3981.11 440.46C3976.79 452.24 3975.96 465.68 3979.23 477.85C3979.64 479.36 3982.57 489.82 3985.81 488.94C3989.45 487.94 3994.02 477.18 3995.43 474.24C4003.4 457.57 4005.61 434.98 3999.96 417.06M4006.73 401.82C4005.31 401.58 4007.69 417.38 4008.2 418.89C4012.35 431.11 4022.73 442.48 4034.3 448.28C4036.32 449.3 4033.57 428.34 4033.14 426.99C4029.37 414.9 4020.86 401.46 4010.03 394.43M4021.49 363.45C4013.06 375.55 4025.15 398.33 4035.19 406.02C4036 406.64 4050.55 417.11 4050.95 416.45C4053.03 412.97 4047.94 399.21 4046.97 395.82C4045.61 391.06 4043.99 386.42 4041.99 381.89C4037.92 372.71 4032.67 366.45 4022.8 363.81M4040.67 333.48C4038.19 331.61 4038.23 347.09 4038.4 347.78C4041.27 359.87 4047.99 371.2 4058.41 378.07C4059.26 378.63 4067.53 384.22 4068.97 383.06C4070.6 381.76 4067.5 371.01 4067.2 369.47C4064.17 353.71 4059.28 339.98 4045.53 330.98M4068.6 312.1C4048.31 324.7 4099.42 394.67 4090.04 346.79C4089.03 341.63 4087.67 336.59 4085.9 331.64C4082.85 323.16 4078.76 316.35 4070.91 311.73M4099.95 294.81C4092.8 304.9 4091.16 316.75 4096.62 329.98C4098.13 333.64 4100.44 336.82 4102.93 339.85C4110.65 349.26 4117.31 350.56 4117.97 338.41C4118.15 335 4118.3 331.57 4118.35 328.15C4118.45 322.07 4118.1 316.04 4116.92 310.07C4114.9 299.86 4110.3 294.23 4101.54 289.21M4130.73 278.59C4130.47 277.04 4128.53 278.24 4127.93 278.74C4122.93 282.98 4122.55 290.85 4122.5 296.87C4122.41 308.29 4133.1 340.3 4149.38 340.3C4150.99 340.3 4152.86 321.68 4152.97 320.61C4154.73 303.13 4150.72 282.61 4135.39 272.35M4151.52 256.53C4154.64 259.66 4152.68 265.35 4153.97 269.58C4157.01 279.59 4162.62 289.87 4171.38 295.87C4172.66 296.74 4179.24 301.47 4181.06 300.86C4185.23 299.47 4179.95 292.11 4179.68 287.72C4178.81 273.61 4177.26 256.84 4166.24 246.67M4004.81 371.67C3996.3 357.72 3975.83 364.11 3964.02 370.14C3961.66 371.34 3948.42 378 3952.85 382.78C3955.46 385.6 3967.48 384.31 3970.66 384.28C3975.87 384.23 3981.13 384.05 3986.31 383.39C3993.26 382.51 3999.55 381.13 4005.27 376.96M4014.35 360.11C4009.71 356.18 3999.43 354.35 3993.83 351.17C3990.42 349.24 3987.19 347.14 3984.32 344.46C3973.66 334.5 3979.48 328.67 3994.16 329.37C4006.15 329.94 4019.71 335.04 4023.41 347.67M4042.08 324.6C4032.14 327.51 4018.81 322.6 4010.58 317.28C4009.76 316.75 4002.15 312.11 4003.06 310.29C4004.56 307.28 4022.27 303.81 4025.46 302.8C4030.85 301.1 4036.27 298.97 4041.99 298.75C4052.09 298.38 4057.87 303.62 4065.1 309.51M4077.75 298.92C4078.78 295.83 4071.16 299.71 4067.98 299.03C4059.57 297.24 4051.62 293.56 4043.21 291.82C4040.25 291.21 4037.2 290.93 4034.19 290.82C4032.48 290.76 4028.51 292.29 4029.05 290.66C4037.87 264.13 4078.86 275.16 4091.92 289.27M4119.68 269.14C4120.03 269.14 4111.46 262.45 4110.06 261.87C4101.46 258.31 4091.77 256.58 4082.58 258.27C4081.86 258.4 4072.46 259.97 4072.46 261.15C4072.46 261.87 4081.81 266.77 4082.52 267.25C4093.58 274.69 4107.38 282.38 4121.12 280.56M4148.66 254.62C4148.91 254.69 4145.37 252.4 4144.73 251.94C4141.89 249.94 4138.95 248.43 4135.66 247.28C4130.49 245.49 4097.67 239.64 4095.96 247.78C4095.19 251.44 4109.74 255.99 4111.72 256.71C4125.23 261.68 4145.02 270.42 4158.55 261.37M926.17 1040.04C932.52 1011.81 947.74 988.04 959.33 961.22C969.23 938.32 973.09 914.45 967.12 889.97C965.23 882.26 962.66 874.75 959.24 867.58C958.13 865.24 956.95 862.93 955.58 860.73C954.95 859.72 953.04 856.8 953.35 857.95C961.36 887.84 966.47 920.75 954.9 950.48C940.29 988.01 910.19 1015.91 919.98 1060M962.27 873.32C962.65 876.48 972.4 869.33 972.6 869.14C979.57 862.23 984.01 850.45 982.5 840.63C982.26 839.04 981.8 833.25 979.95 832.36C978.26 831.55 972.84 839.97 972.34 840.73C966.2 849.9 961.03 860.71 960.46 871.93M955.78 859.84C955.73 859.62 956.29 860.38 956.36 860.17C958.66 853.2 958.27 844.81 956.62 837.77C954.45 828.57 949.4 819.77 942.3 813.47C941.41 812.69 935.22 807.32 933.56 809.22C931.68 811.36 933.26 820.03 933.6 822.46C935.49 836.25 943.48 851.38 954.46 860.32M956.52 872.71C957.52 872.27 949.46 863.32 948.52 862.58C940.84 856.61 929.59 853.76 919.9 854.91C918.21 855.11 928.64 867.15 929.47 867.83C936.85 873.87 947.78 878.8 957.51 878.73M963.15 902.98C963.43 891.87 946.38 882.55 936.87 881.87C936.11 881.82 922.61 881.27 922.63 881.85C922.77 884.89 931.68 891.44 933.69 893.18C936.52 895.6 939.46 897.86 942.6 899.87C948.97 903.96 954.87 905.72 962.17 903.29M963.51 929.78C965.84 929.93 959.4 920.21 959.01 919.84C952.18 913.43 943.26 909.09 933.85 909.09C933.09 909.09 925.57 909 925.14 910.33C924.66 911.82 931.06 917.3 931.89 918.14C940.33 926.8 949.1 933.42 961.49 933.37M954.8 954.82C962.34 938.47 901.16 915.65 926.93 941.89C929.7 944.71 932.65 947.32 935.81 949.7C941.25 953.77 946.65 956.36 953.5 956.01M942.25 978.7C942.56 969.39 938.68 961.25 929.75 955.19C927.29 953.52 924.52 952.47 921.69 951.59C912.93 948.88 908.2 950.82 912.83 958.74C914.13 960.96 915.46 963.18 916.84 965.36C919.3 969.22 922.02 972.87 925.24 976.14C930.75 981.72 935.97 983.35 943.56 982.88M929.61 1001.67C930.42 1002.54 931.14 1000.98 931.3 1000.41C932.7 995.67 929.67 990.56 927.2 986.76C922.52 979.53 902.53 963.83 892.29 970.58C891.27 971.25 897.81 983.73 898.19 984.46C904.33 996.18 915.37 1007.43 929.26 1007.52M925.68 1024.17C922.41 1023.5 921.29 1019.1 918.72 1016.97C912.66 1011.94 904.87 1007.8 896.86 1007.66C895.7 1007.64 889.6 1007.39 888.7 1008.53C886.66 1011.13 893.03 1013.57 895.02 1016.23C901.42 1024.74 909.35 1034.65 920.5 1036.48M970.24 890.89C981.37 896.14 991.6 883.63 996.53 874.93C997.52 873.19 1003.09 863.52 998.32 862.35C995.51 861.65 988.48 867.45 986.49 868.79C983.23 870.98 980 873.28 977.01 875.84C973 879.27 969.62 882.75 967.75 887.75M969.03 902.12C973.57 902.66 980.8 899.56 985.65 899.23C988.59 899.03 991.49 899.01 994.41 899.51C1005.25 901.35 1004 907.44 994.48 913.08C986.7 917.69 976.05 920.11 968.48 913.7M966.3 935.96C971.35 930.01 981.78 927.56 989.16 927.5C989.9 927.49 996.6 927.25 996.79 928.78C997.09 931.29 987.39 940.83 985.8 942.78C983.11 946.09 980.59 949.68 977.08 952.18C970.88 956.6 965.07 955.71 958.07 955M954.51 966.9C955.14 969.28 958.33 963.68 960.61 962.78C966.65 960.42 973.17 959.45 979.19 957.05C981.3 956.21 983.33 955.12 985.27 953.94C986.38 953.27 988.24 950.66 988.58 951.91C994.03 972.26 963.66 982.32 949.59 978.86M940.48 1003.03C940.26 1003.18 948.42 1003.83 949.55 1003.62C956.43 1002.29 963.25 999.36 968.33 994.49C968.73 994.11 973.99 989.22 973.5 988.48C973.21 988.03 965.28 988.82 964.64 988.81C954.6 988.72 942.73 989.61 934.84 996.44M928.26 1024.19C928.08 1024.25 931.26 1024.22 931.85 1024.24C934.46 1024.32 936.95 1024.06 939.49 1023.41C943.49 1022.4 966.56 1012.47 964.26 1006.63C963.23 1004.01 952.19 1007.19 950.64 1007.55C940.08 1010.03 924 1012.74 919.24 1024.04M4114.28 3195.82C4114.3 3195.72 4102.29 3186.05 4101.63 3185.43C4093.89 3178.25 4082.62 3165.92 4085.07 3154.16C4085.24 3153.33 4100.81 3168.49 4107.08 3159.42C4115.87 3146.72 4093.71 3145.1 4088.44 3137.84C4082.3 3129.39 4084.63 3110.31 4087.95 3101.13C4093.11 3086.88 4103.38 3111.81 4112.97 3100.54C4126.64 3084.48 4099.31 3085.91 4098.8 3078.14C4097.84 3063.33 4123.26 3028.95 4138.37 3024.4C4140.46 3023.77 4146.12 3033.7 4146.95 3035.04C4153.42 3045.48 4163.76 3060.23 4163.76 3072.99C4163.76 3083.77 4140.56 3085.78 4150.2 3098.06C4162.05 3113.15 4169.41 3089.07 4175.41 3095.52C4185.77 3106.65 4186.5 3138.82 4179.09 3151.91C4176.74 3156.07 4166.86 3153.64 4164.13 3160.84C4158.38 3175.98 4181.17 3169.88 4181.61 3177.39C4182.09 3185.7 4172.51 3192.96 4166.46 3197.13C4151.58 3207.37 4136.58 3217.09 4122.3 3228.11" />
	<text id="Layer 7" style="transform: matrix(1,0,0,1,3136,3697)" >
	</text>
</svg>