<svg version="1.2" baseProfile="tiny-ps" xmlns="http://www.w3.org/2000/svg" viewBox="0 0 1080 1519" width="1080" height="1519">
	<title>Layer3</title>
	<style>
		tspan { white-space:pre }
		.shp0 { opacity: 0.502;fill: #67b8a7 } 
		.shp1 { opacity: 0.502;fill: #c0ba3e } 
		.shp2 { opacity: 0.502;fill: #295c6d } 
	</style>
	<g id="Layer3">
		<path id="Green" class="shp0" d="M418.14 611.19C416.36 612.07 414.29 601.82 414.17 601.26C411.68 590.2 411.25 578.99 412.62 567.74C416.09 539.12 439.55 512.32 460.76 494.17C463.64 491.71 476.59 478.69 481.26 479.36C481.78 479.43 481.04 488.31 481.02 488.77C480.59 499.84 480.26 510.93 479.32 521.98C476.33 556.92 456.04 603.94 417.94 612.9M415.03 610.85C415.26 610.85 411.9 608.98 411.38 608.66C408.38 606.77 405.67 604.45 403.14 601.98C396.54 595.54 390.37 588.05 385.47 580.23C372.73 559.89 373.28 536.11 378.07 513.3C379.32 507.36 380.99 501.49 383.13 495.81C383.47 494.9 384.64 490.57 386.05 490.52C387.96 490.44 391.03 495.91 391.8 497.11C396.28 504.08 400.23 511.64 403.49 519.26C415.85 548.17 426.07 581.15 416.79 612.39M414.68 564.42C408.24 546.09 412.51 522.34 418.67 504.71C419.98 500.94 421.46 497.22 423.03 493.55C423.91 491.51 424.63 489.79 425.66 487.86C427.53 484.37 429.65 485.54 429.86 489.5C430.21 496.33 430.39 503.14 430.29 509.97C430.22 515.25 430.05 520.52 429.77 525.79C429.17 536.99 428.44 548.29 425.4 559.13M412.18 605.92C413.2 604.06 410.35 601.9 409.18 600.88C404.06 596.41 396.48 593.83 390.13 591.77C371.73 585.81 360.37 590.61 343.25 597.64C336.47 600.43 328.35 602.56 321.94 606.08C321.69 606.22 324.78 607.54 325.07 607.67C327.44 608.78 329.75 610.04 332.06 611.26C338.2 614.48 344.53 617.25 351.09 619.5C375.54 627.88 400.08 628.51 420.26 610.85M435.36 605.18C435.09 605.33 439.47 595.24 440.18 594.23C444.65 587.82 450.19 581.86 456 576.65C470.23 563.88 488.02 555.27 506.37 550.19C509.96 549.2 518.99 545.05 522.82 546.2C523.09 546.28 519.38 552.48 519.21 552.74C514.37 560.13 508.53 567 502.35 573.29C485.08 590.89 458.98 604.74 434.31 607.59" />
		<path id="yellow" class="shp1" d="M322.01 646.85C322.44 646.15 316.2 640.84 315.87 640.49C308.64 632.84 301.54 625.02 295.05 616.71C278.76 595.84 268.32 570.59 263.95 544.51C262.95 538.58 258.96 527.19 260.49 521.07C261.06 518.76 261.73 525.67 262.41 527.95C263.75 532.4 265.21 536.81 266.72 541.2C270.64 552.63 274.99 563.94 280.17 574.87C291.05 597.86 303.95 620.24 318 641.43C319.51 643.71 334.82 657.04 334.82 658.59M271.46 564.65C272.42 564.7 271.09 562.77 270.96 561.82C270.66 559.44 270.47 557.04 270.45 554.64C270.37 547.31 272.32 540.09 275.37 533.45C276.49 531.01 277.71 528.62 279.1 526.32C279.18 526.18 281.38 522.75 281.43 522.85C282.61 525.03 279.83 533 279.46 535.31C277.69 546.41 275.63 557 272.55 567.76M278.03 579.28C277.43 579.65 277.57 576.69 277.57 576.4C277.56 572.84 278.34 569.34 279.18 565.9C281.42 556.58 284.79 545.88 290.87 538.28C291.33 537.71 295.58 532.19 296.37 532.42C296.88 532.57 296.36 535.45 296.35 535.6C295.99 539.1 295.55 542.6 295.06 546.09C293.05 560.63 289.69 572.12 280.88 583.68M287.47 598.79C286.24 596.44 288.31 590.47 288.8 588.18C291.08 577.74 294.28 566.9 300.27 557.96C302.94 553.97 306.28 550.32 309.8 547.06C310 546.89 313.06 544.4 313.1 544.52C313.44 545.55 311.79 548.76 311.51 549.74C310.14 554.56 308.76 559.36 307.32 564.16C305.88 568.94 304.45 573.74 302.74 578.44C300.06 585.79 296.61 593.09 291.01 598.69M295.99 612.85C295.43 614.19 295.84 609.34 295.89 609.02C296.31 605.86 297.29 602.78 298.4 599.8C302.58 588.5 308.65 577.54 316.1 568.06C316.21 567.93 323.1 560.81 323.26 561.13C323.52 561.64 322.17 564.11 322.02 564.52C320.63 568.31 319.26 572.11 317.9 575.91C312.74 590.39 308.04 603.49 297.02 614.52M305.66 626.13C305.06 626.09 305.52 623.15 305.54 623.02C306.13 618.7 307.24 614.39 308.45 610.21C311.34 600.14 315.93 590.91 322 582.38C323.97 579.6 325.91 577.38 329.14 576.2C330.01 575.88 331.48 574.23 331.7 575.13C332.38 577.83 330.34 583.15 329.75 585.79C329.1 588.75 328.24 591.63 327.3 594.52C325.77 599.23 324.36 604.06 322.42 608.62C319.77 614.87 314.09 624.67 308.1 628.26M312.06 636.1C315.02 632.01 318.49 623.1 321.89 617.77C324.22 614.1 326.98 610.72 329.81 607.43C332.99 603.74 335.8 599.37 339.65 596.33C339.97 596.08 342.58 593.76 342.93 594.07C343.47 594.56 342.34 596.87 342.18 597.34C340.98 600.78 339.82 604.23 338.6 607.66C334.3 619.77 330.24 635.08 316.87 639.53M315.53 638.67C315.65 638.31 315.11 639.32 314.79 639.51C313.96 639.99 313.05 640.24 312.11 640.37C308.7 640.85 304.99 640.54 301.6 640.18C290.68 639.02 281.14 634.25 272.96 627.07C271.92 626.16 266.23 621.91 266.58 620.12C266.85 618.78 269.21 620.94 270.57 621.17C273.2 621.63 275.87 621.9 278.51 622.3C291.4 624.25 303.97 627.45 314.67 635.2M308.95 626.1C309.47 627.07 305.29 626.68 305.13 626.67C301.53 626.42 297.99 625.86 294.57 624.68C284.7 621.3 276.92 615.29 269.51 608.12C268.8 607.44 262.6 602.23 263.08 600.81C263.48 599.6 265.51 601.64 266.73 602.02C268.9 602.69 271.09 603.32 273.26 603.97C285.38 607.62 295.48 613.57 304.67 622.23M294.21 606.83C295.84 607.87 291.49 607.39 291.2 607.34C287.63 606.72 284.1 605.67 280.76 604.28C271.19 600.28 261.22 592.69 255 584.33C254.67 583.89 249.06 576.57 249.71 575.7C249.86 575.51 252.11 576.8 252.16 576.83C255.25 578.39 258.31 579.97 261.28 581.75C271.39 587.79 281.91 594.79 289.86 603.59M284.17 586.36C284.52 585.8 282.86 586.63 282.2 586.57C280.81 586.45 279.42 586.21 278.07 585.86C274.02 584.82 270.19 583.04 266.5 581.1C255.75 575.45 244.21 567.64 239.22 556C238.98 555.44 240.29 556.61 240.85 556.86C241.73 557.26 242.63 557.6 243.53 557.94C246.72 559.12 249.85 560.43 252.93 561.9C261.38 565.92 269.27 570.44 275.4 577.61M274.37 567.58C274.4 568.59 271.99 567.47 271.7 567.36C268.4 566.14 265.18 564.59 262.1 562.89C254.73 558.82 247.37 553.74 242.36 546.85C241.41 545.54 236.76 539.14 237.52 537.24C237.83 536.46 238.95 538.13 239.68 538.55C241.11 539.35 242.58 540.07 244.03 540.82C245.89 541.8 247.73 542.82 249.52 543.91C252.28 545.58 254.98 547.33 257.6 549.21C262.18 552.48 266.27 555.99 269.81 560.37M269.13 549.76C265.88 549.21 263.03 546.75 260.42 544.84C253.95 540.13 246.78 534.33 242.78 527.23C241.03 524.11 239.9 520.48 239.15 516.99C238.87 515.71 238.6 514.41 238.4 513.11C238.31 512.54 237.92 510.89 238.17 511.4C240.06 515.18 244.09 517.89 247.09 520.71C249.3 522.78 251.34 525.05 253.31 527.35C256.49 531.06 259.5 534.92 262.08 539.06M264.67 534.94C263.45 536.07 258.38 526.76 258.04 526.12C254.26 518.99 252.09 511.73 251.82 503.63C251.65 498.63 252.63 494.06 254.84 498.58C255.5 499.91 255.77 500.48 256.36 501.89C257.28 504.11 258.11 506.37 258.88 508.65C260.25 512.66 261.57 516.75 262.48 520.9C263.88 527.22 263.97 533.58 264.42 540M265 543.14C265.54 541.79 262.78 535.03 262.54 533.42C261.58 526.96 261.88 520.32 263.1 513.91C264.39 507.1 267.48 501.82 270.96 495.98C271.44 495.17 273.42 491 274.75 491C275.11 491 275.21 498.41 275.21 498.43C275.24 500.14 275.24 501.84 275.17 503.56C275.06 506.47 274.82 509.37 274.54 512.27C273.49 523.24 270.13 533.11 263.78 542.18" />
		<path id="Blue" class="shp2" d="M791 313C788.66 317.03 787.8 322.05 790 326C790.89 327.59 794.14 330.56 799.79 331.95C804.58 333.12 809.79 332.2 810 333C810.23 333.85 805.93 336.25 800.8 337C797.4 337.5 788.03 338.13 783.96 331.95C780.63 326.9 782.34 320.89 783.96 317.8C785.5 314.84 787.98 312.51 791 311M185 1397C185.96 1394.33 187.19 1391.84 188 1391C191.26 1387.64 197.17 1388.59 199 1389C202.33 1389.74 206.38 1391.6 208.14 1395.4C209.61 1398.56 209.22 1401.93 208.14 1404.38C205.89 1409.5 200.7 1411.18 197.31 1411.33C194.77 1411.44 189.69 1410.84 187.71 1407.45C187.21 1406.59 187.06 1405.16 186 1404C185.06 1402.97 183.28 1401.81 181.78 1402.34C179.71 1403.07 179.52 1406.4 179.54 1407.45C179.55 1408.65 180.56 1411.86 183.42 1414.8C186.52 1418.01 189.74 1419.61 192.61 1420.32C197.46 1421.52 204.13 1420.96 209.16 1416.44C210.51 1415.22 213.44 1410.79 214.88 1405.2C216.62 1398.43 215.84 1392.33 215 1390C213.41 1385.55 210.39 1381.48 206.1 1379.05C200.17 1375.7 193.52 1376.09 188.53 1378.23C185.9 1379.36 180.72 1383.14 177.29 1390.49C175.23 1394.89 175.19 1397.92 176 1399C177.43 1400.89 180.92 1401.37 183 1400C184.25 1399.17 184.68 1397.89 185 1397ZM501.48 599.37C501.43 599.03 511.48 589.63 512.45 588.44C522.53 575.9 530.16 562.02 537.04 547.54C551.5 517.13 559.94 480.73 580.67 453.75C593.33 437.27 629.86 422.05 635.27 452.81C636.24 458.33 635.78 463.96 634.83 469.44C629.47 500.21 603.83 523.83 580.67 542.62C555.18 563.3 524.94 578.15 503.46 603.44M508.47 582.53C508.11 584.29 510.06 579.26 510.43 577.5C511.01 574.69 511.43 571.85 511.74 569C512.78 559.68 512.77 550.26 512.7 540.89C512.54 517.8 509.63 493.28 514.76 470.54C516.82 461.4 522.63 448.1 533.91 448.72C552.74 449.75 555.41 471.44 554.51 486.32C552.56 518.47 538.41 550.94 519.44 576.51M524.08 585.16C525.27 585.18 525.22 583.04 526.07 582.21C529.28 579.08 533.12 576.6 536.96 574.32C548.15 567.68 560.73 562.16 573.53 559.66C593.43 555.77 617.12 556.86 635.33 566.62C638.63 568.39 641.76 570.57 644.22 573.42C657.87 589.22 643.56 601.51 627.89 606.15C610.38 611.32 589.72 601.24 573.53 595.49C552.18 587.92 529.98 583.63 507.89 590.49M391.33 626.63C392 626.7 389.28 631.37 389.02 631.74C385.86 636.31 382.06 639.68 377.02 642.08C363.37 648.58 349.6 647.84 335.22 644.35C300.58 635.96 271.75 609.93 235.96 606.3C227.22 605.41 218.2 605.75 209.67 607.95C208.51 608.25 201.32 609.56 201.18 611.5C201.17 611.72 218.3 613.79 219.73 614.08C231.75 616.52 242.52 621.35 254.13 625.11C266.57 629.14 279.67 632.84 290.95 639.61C305.76 648.49 321.79 662.39 340.01 662.55C351.39 662.65 362.4 656.71 371.66 650.68C377.48 646.89 383.37 642.81 387.98 637.57M298.78 644.92C300.31 642.96 293.38 643.81 292.56 643.95C286.81 644.96 282 647.47 277.84 651.55C270.56 658.71 263.18 665.86 256 673.12C251.38 677.8 248.68 682.83 242.39 685.85C233.64 690.06 222.07 688.71 213.04 686.12C211.42 685.66 200.17 682.01 200.35 682.42C203.76 690.05 215.59 692.76 222.69 694.14C231.1 695.78 240.63 697.59 249.07 695.12C257.61 692.63 264.17 685.57 270.2 679.4C277.01 672.43 283.96 665.42 291.43 659.15C297 654.49 304.06 653.39 311.16 653.31C313.3 653.29 315.44 653.39 317.54 653.82C318.48 654 320.2 655.81 320.2 654.86C320.2 653.82 317.63 651.03 317.06 650.19C312 642.75 307.5 641.92 299.24 643.66M401.06 624.16C399.99 624.76 403.65 620.42 404.08 620.02C406.4 617.81 409.09 615.87 411.85 614.24C421.5 608.55 431.35 608 442.2 609.43C457.4 611.42 473.21 623.02 488.57 616.6C500.27 611.71 507.76 599.29 518.07 592.2C521.67 589.72 527.09 586.41 531.7 586.41C532.58 586.41 530.19 587.31 529.52 587.86C528.33 588.85 527.24 589.96 526.16 591.06C522.62 594.66 519.41 598.56 515.92 602.19C512.15 606.13 507.96 609.67 504.43 613.84C498.74 620.57 493.87 628.33 485.25 631.63C466 639 455.23 624.07 439.02 617.56C427.14 612.79 412.98 616.41 402.39 622.62M524.94 574.57C524.78 574.54 524.85 574.19 524.86 574.09M261.87 520.06C261.86 520.06 261.85 520.05 261.83 520.05M798.26 297.37C798.08 299.24 791.55 301.67 790.19 302.78C785.48 306.63 780.86 311.69 779.74 317.85C778.94 322.26 779.11 328.26 781.2 332.31C783.52 336.82 788.12 339.78 792.77 341.39C809.43 347.16 823.43 337.79 826.7 320.25C828.82 308.92 822.01 295.43 809.69 295.19C807.3 295.14 801.82 295.83 802.04 299.38C802.25 302.78 807.38 303.48 809.75 304.48C814.64 306.54 817.33 310.15 817.14 315.57C816.67 328.26 804.72 341.09 791.59 332.98C781.61 326.81 790.78 313.1 797.51 308.55C799.87 306.96 803.45 305.89 805.14 303.48C807.98 299.42 800.24 298.98 798.21 299.56M483.32 82.9C484.28 82.25 489.54 83.55 490.72 83.7C498.22 84.68 505.71 86.2 513.16 87.54C540.28 92.44 567.18 98.81 594.22 104.21C601.91 105.75 609.54 107.6 617.2 109.28C618.26 109.52 625.25 110.16 624.65 112.36C621.46 124.07 603.36 119.06 595.31 117.89C564.75 113.44 534.97 105.86 504.81 99.47C502.88 99.06 500.94 98.67 499 98.29C497.16 97.94 495.33 97.58 493.49 97.22C489.66 96.48 472.44 91.93 480.84 85.29M611.11 116.89C611.8 116.04 610.84 119.08 610.54 120.14C609.91 122.32 609.14 124.49 608.26 126.58C605.44 133.34 600.79 139.26 595.4 144.15C591.32 147.84 587.82 152.44 583.25 155.53C569.46 164.85 551.54 166.38 535.53 163.68C514.49 160.14 495.06 140.23 491.85 119.24C490.84 112.57 490.67 105.62 490.67 98.88C490.67 95.78 491.71 91.92 489.12 89.51C486.88 87.42 483.33 88.89 481.5 90.8C477.52 94.94 476.69 101.04 476.56 106.51C475.19 165.65 549.66 199.23 595.66 164.4C606.43 156.24 616.56 142.77 620.72 129.86C621.6 127.12 625.11 113.98 618.03 114.94M599.13 36.13C599.3 36.05 597.67 35.31 597.54 35.25C596.37 34.69 595.06 34 594.53 32.73C593.3 29.8 597.21 26.8 599.36 25.68C607.11 21.66 617.34 22.37 625.44 24.79C627.16 25.3 634.43 27.19 633.71 30.07C632.97 33.04 626.31 34.45 623.95 35.07C614.57 37.57 603.99 37.98 594.41 36.17M511.21 11.85C510.57 12.31 509.01 9.67 508.82 9.39C507.09 6.74 504.96 2.55 509.41 1.41C518.89 -1.02 531.03 4.79 538.03 10.86C540.16 12.7 544.95 18.41 543.18 21.77C541.9 24.19 535.6 22.58 533.63 22.28C523.41 20.74 514.31 14.29 505.64 8.98M490.37 24.54C490.5 23.67 488.25 22.69 487.75 22.45C484.02 20.69 479.57 19.59 475.45 19.64C459.87 19.82 455.46 39.7 465.32 49.69C475.73 60.24 501.47 47.09 494.78 31.96C493.16 28.31 487.03 25.51 484.8 30.3C482.72 34.79 488.18 39.7 483.98 43.82C477.34 50.33 468.3 44.28 468.56 35.93C468.81 28.14 476.53 27.25 482.47 28.74C485.63 29.53 490.38 30.7 489.87 25.86M363.55 368.55C364.13 367.61 360.36 369.31 359.99 369.45C357.04 370.55 354.09 371.67 351.12 372.74C342.83 375.73 333.93 378.3 325.15 379.31C322.22 379.65 317.51 380.54 316.84 376.35C315.98 371 325.36 368.06 328.79 366.77C340.05 362.54 352.28 358.68 364.3 357.47C365.83 357.31 367.39 357.24 368.94 357.21C372.92 357.14 377.94 359.04 373.19 362.95C369.41 366.07 364.19 368.11 359.63 369.8M336.3 342.54C332.31 338.44 334.23 351.33 334.55 353.77C336.05 365.34 339.37 375.83 344.44 386.29C345.53 388.53 349.59 399.15 353.39 397.79C357.77 396.22 358.09 387.09 358.33 383.52C359.1 371.94 356.33 357.9 350.41 347.81C348.14 343.96 343.77 338.88 338.63 339.86M13.16 441.44C13.76 439.48 22.6 451.89 24.11 453.79C30.72 462.06 37.84 470.52 45.9 477.45C66.88 495.48 100.9 494.86 125.55 485.67C153.18 475.37 171.73 448.21 172 418.71C172.08 410.07 172.45 401.6 171.29 393C170.8 389.37 168.47 383.69 170.5 380.18C174.77 372.79 183.02 382.05 184.61 386.75C187.4 394.95 187.02 404.94 187.09 413.49C187.16 421.79 188.14 430.51 185.75 438.6C175.86 472.04 143.62 498.29 110.49 506.17C101.95 508.2 92.18 507.98 83.38 508.2C55.47 508.88 21.62 488.89 7.81 464.79C4.25 458.58 0.69 450.87 0.69 443.56C0.69 433.58 8.33 436.53 12.69 441.08M68.18 385.01C69.37 386.2 69 381.39 67.82 380.23C65.56 378.02 62.04 376.85 58.95 376.7C53.11 376.41 49.23 382.9 50.04 388.25C51.18 395.75 63.84 400.64 68.92 394.34C71.17 391.56 70.63 388.04 69.98 384.79M105.92 369.67C104.48 369.85 104.08 367.42 102.95 366.52C100.91 364.89 98.49 364.33 95.93 364.86C93.69 365.31 91.57 366.24 89.71 367.57C88.47 368.46 87.25 369.52 86.33 370.74C76.99 383.15 106.17 393.13 106.17 376.59C106.17 374.88 105.64 373.24 104.9 371.71M1015 735.85C1013.13 732.97 1005.72 735.68 1003.68 736.81C997.57 740.17 997.06 747.58 1001.21 752.73C1010.47 764.22 1029.89 748.25 1017.21 737.68M1055.21 739.68C1050.36 732.36 1029.3 743.67 1036.88 753.11C1046.39 764.94 1066.25 750.36 1055.04 741.13M1038.81 794.51C1002.55 778.75 978.02 822.65 985.45 853.63C988.09 864.62 998.38 874.96 1008 880.59C1046.07 902.91 1100.79 850.71 1071.37 813.95C1066.59 807.96 1060.12 803.53 1052.71 801.5C1050.99 801.03 1043.39 799.41 1044.41 803.49C1045.46 807.68 1052.91 811.07 1056.15 813.27C1064.02 818.61 1071.5 827.73 1069.52 837.94C1065.44 858.97 1026.97 879.72 1011.51 858.8C1001.81 845.68 1004.23 822.79 1016.4 811.99C1017.3 811.19 1018.18 810.55 1019 810.07C1023.87 807.24 1029.69 807.47 1037.07 807.7C1038.69 807.75 1041.88 807.83 1043.4 805.78C1044.44 804.38 1044.4 802.33 1043.7 800.08M1008 826C1009.07 822.7 1010.76 819.65 1013 817C1016.2 813.21 1020.48 810.29 1025.33 808.8C1027.82 808.03 1034.62 807.41 1041.72 809.02C1045.08 809.78 1048.28 810.89 1051.46 812.34C1058.43 815.52 1067.02 823.39 1069 822C1070.73 820.78 1069.11 814.75 1066.3 810.13C1062.46 803.82 1056.73 800.71 1050.8 798.17C1037.14 792.32 1024.1 791.32 1020.68 792.41C1016.19 793.84 1010.86 796.96 1005.4 803.7C1000.91 809.24 998.06 815.89 997 823M797 309C799.22 306.86 801.98 305.44 805 305C807.64 304.61 809.74 304.93 811.03 305.42C813.04 306.18 815.43 308.93 816.91 308.41C817.96 308.04 818.47 306.49 818.46 305.32C818.44 303.43 816.74 301.91 813.61 299.44C811.08 297.43 809.44 296.27 807.11 295.82C805.11 295.44 803.49 295.68 802 296C795.29 297.45 790.85 300.5 790 302C788.67 304.34 788.41 307.15 789 310M486.04 36.66C485.86 33.34 484.91 30.71 483 29C481.63 27.77 478.5 27.07 478.32 25.72C478.17 24.58 479.77 23.41 481.22 22.61C482.66 21.82 486.21 20.41 489.04 22.19C490.64 23.19 490.85 24.75 492 27C493.8 30.5 496.09 31.94 496 35C495.95 36.76 495.23 38.44 494 40M573 1420C573.2 1417.19 573.87 1414.5 575 1412C577.05 1407.45 579.99 1404.85 581.76 1403.91C583.95 1402.74 586.98 1401.71 589 1403C590.32 1403.85 591.31 1406.58 591.14 1411.34C591.04 1414.31 590.35 1417.81 590.03 1419.23C589.46 1421.72 589.06 1424.29 588.82 1426.94M1024 808C1032.59 809.08 1040.74 811.68 1047.97 815.86C1054.38 819.58 1058.36 823.91 1060 827C1062.37 831.48 1063.2 837.19 1062 846C1060.88 854.27 1057.3 861.79 1058.44 862.52C1060.81 864.06 1079.24 849 1078 830C1077.76 826.35 1076.72 822.04 1074 817C1070.79 811.04 1064.88 804.34 1053.05 799.04C1042.8 794.45 1033.48 794.19 1029 795C1021.63 796.33 1014.92 799.99 1009.56 805.39M740.07 1202.87C746.11 1198.64 730.86 1206.39 728.61 1207.22C718.61 1210.94 709.53 1214.29 698.89 1214.29C696.81 1214.29 686.55 1215.4 686.41 1211.91C686.21 1206.67 694.97 1203.62 698.62 1202.36C711.02 1198.07 735 1187.54 748.07 1190.65C754.48 1192.18 745.43 1200.11 743.11 1201.32M709.63 1176.05C710.62 1172.51 710.9 1188.9 711.23 1191.37C712.2 1198.64 715.7 1237.66 731.32 1231.5C735.88 1229.69 736.1 1222.44 735.82 1218.48C734.93 1205.98 730.19 1192.37 724.6 1181.19C722.77 1177.53 716.69 1166.98 711.81 1173.36M651.02 1379.58C653.37 1376.85 645.88 1377.86 644.85 1378.57C636.11 1384.56 636.06 1397.9 648.04 1399.87C660.99 1401.99 664.84 1382 652.32 1377.62M689.37 1373C676.43 1377.35 669.51 1402.9 688.44 1401.71C701.78 1400.88 702.37 1378.75 688.8 1377.85M578.5 1411.75C575.76 1409.34 572.59 1420.7 572.43 1421.44C570.33 1431.15 572.64 1441.45 575.27 1450.84C583.71 1481 614.93 1503.74 643.23 1513.89C653.7 1517.64 669.81 1523.15 679.16 1514.11C684.36 1509.1 678.47 1499.68 673.04 1497.68C666.6 1495.3 657.63 1497.78 650.88 1497.27C635.68 1496.12 622.01 1488.88 611.61 1477.77C600.55 1465.96 592.36 1449.54 590.49 1433.42C589.86 1427.97 592.83 1409.37 588.6 1405.14C585.67 1402.21 580.9 1408.36 579.77 1410.32" />
	</g>
</svg>