<svg version="1.2" xmlns="http://www.w3.org/2000/svg" viewBox="0 0 100 100" width="100" height="100">
	<title>Nouveau projet</title>
	<style>
		.s0 { fill: #ff5c70 } 
	</style>
	<path id="Forme 1" class="s0" d="m63.4 4.5c0 0 23.7 0.3 27.7 6.7 6.3 10.5 4.4 17.3 6.1 24 1.8 7.4 0 24.6-0.3 35.5-0.3 10.9-2.6 16.8-6.1 18.7-10.9 5.9-15.1 5-23.8 6.4-7.4 1.2-14.5 0.9-26.5 0.3-12-0.5-20.6-1.7-28.2-3.9-7.5-2.2-9.2-5.9-9.5-8.6-0.2-2.8 2.3-9 2-22.4-0.3-13.4-2.8-28.8-2.8-34.6 0-5.8 0.8-12.9 4.2-15.9 3.3-3 9.5-4.8 14.2-5 4.8-0.3 22.6-1.7 22.6-1.7z"/>
</svg>