<svg version="1.2" baseProfile="tiny-ps" xmlns="http://www.w3.org/2000/svg" viewBox="0 0 1903 951" width="1903" height="951">
	<title>Grey Stemset 1</title>
	<style>
		tspan { white-space:pre }
		.shp0 { fill: #e9e9e9 } 
		.shp1 { fill: #514527 } 
		.shp2 { fill: #f7a186 } 
		.shp3 { fill: #c6c6c6 } 
		.shp4 { fill: #367a91 } 
		.shp5 { fill: #67b8a7 } 
		.shp6 { fill: #bfb93d } 
		.shp7 { fill: #c2ba3e } 
		.shp8 { fill: #f89462 } 
		.shp9 { fill: #b4b6b5 } 
	</style>
	<g id="Zebra">
		<path id="Layer 2" class="shp0" d="M1285.96 904.82C1286.41 905.34 1275.75 903.12 1274.69 902.89C1260.07 899.74 1245.37 896.89 1230.84 893.32C1192.33 883.86 1154.31 871.2 1118.73 853.57C996.9 793.18 969.77 700.44 967.85 571.47C967.56 552.58 973.43 442.54 996.17 435.21C1012.3 430 1040.31 457.04 1053.79 464.12C1095.86 486.21 1141.91 499.97 1190.12 499.97C1251.07 499.97 1286.01 458.36 1333.19 458.36C1333.49 458.36 1334.13 458.23 1334.36 458.45" />
		<path id="Layer 3" class="shp0" d="M1078.73 150.1C1073.96 153.01 1049.32 147.68 1042.95 148.22C984.07 153.21 920.56 172.6 877.61 214.94C835.89 256.07 829.9 331.7 848.7 384.9C856.51 406.98 870.98 424.91 880.64 445.95C905.69 500.51 887.72 599.32 901.54 619.53C927.3 657.19 1036.45 660.85 1069.7 629.29C1103.54 597.19 1080.08 557.33 1096.95 521.55C1115.08 483.11 1147.67 453.54 1165.41 414.5C1201.29 335.54 1205.05 190.41 1100.66 163.17" />
		<path id="Layer 4" class="shp0" d="M1126.72 193.15C1127.3 192.84 1125.13 159.09 1126.15 146.47C1129.17 109.17 1136.1 61.41 1164.43 33.74C1202.97 -3.9 1212.04 48.29 1208.38 79.26C1201.46 137.85 1172.7 188.59 1145.78 239.85" />
		<path id="Layer 5" class="shp0" d="M881.23 260.73C883.99 261.3 866.98 240.28 865.11 237.8C854.02 223.07 843.16 208.17 833.47 192.47C807.39 150.23 757.6 35.74 829.66 5.71C932.59 -37.19 937.07 193.69 936.11 246.59" />
		<path id="Layer 6" class="shp1" d="M998.42 205.07C998.79 206.11 983.36 177.02 980.74 170.49C975.65 157.86 948.38 82.51 962.48 69.98C963.83 68.77 967.08 77.38 967.26 77.8C975.54 96.87 980.94 119.81 995 135.62C995.96 136.71 997.21 138.46 998.9 138.16C1012.49 135.76 997.32 82.74 1014.33 77.5C1016.46 76.85 1017.91 132.23 1023.51 130.74C1030.49 128.88 1037.31 91.59 1042.07 84.34C1042.57 83.58 1046.09 77.26 1047.44 78.77C1052.99 85.02 1036.63 121.85 1045.19 124.49C1049.4 125.78 1071.88 80.41 1075.76 86.88C1081.64 96.69 1059.16 131.31 1059.16 144.81C1059.16 170.1 1088 196.04 1067.75 221.19C1037.72 258.48 986.85 216.33 983.28 180.56" />
		<path id="Layer 7" class="shp1" d="M846.9 368C844.21 369.38 850.18 355.76 850.36 355.4C863.26 330.52 882.74 312.68 910.33 305.78C911.44 305.5 923.14 302.82 923.71 304.51C924.17 305.9 893.74 327.2 891.38 329.22C872.03 345.81 856.05 365.55 849.78 390.66" />
		<path id="Layer 8" class="shp1" d="M874.51 432.54C878.8 435.78 877.84 422.28 880.15 417.43C883.13 411.17 905.47 373.93 916.87 379.63C916.91 379.65 915.67 381.47 915.6 381.58C910.61 389.35 905.46 397.01 900.85 405.02C892.44 419.64 890.07 437.29 881.71 451.22" />
		<path id="Layer 9" class="shp1" d="M898.18 552.92C894.51 551.89 903.6 544.23 904.09 543.86C921.69 530.46 943.86 524.26 965.33 522.38C1006.32 518.8 1113.26 523.67 1099.22 592.92C1078.63 694.47 822.68 673.14 886.2 555.56" />
		<path id="Layer 10" class="shp1" d="M969.24 371.24C967.73 370.15 966.2 381.93 965.97 383.54C965.18 389.12 962.7 419.86 975.78 418.23C992.76 416.1 993.09 362.73 973 369.42" />
		<path id="Layer 11" class="shp1" d="M1044.79 377.34C1039.72 381.16 1038.11 389.5 1037.15 395.64C1036.47 400.03 1036.5 404.47 1036.77 408.9C1039.5 453.19 1076.47 389.75 1049.78 376.41" />
		<path id="Layer 12" class="shp2" d="M914.24 496.91C913.75 492.7 923.75 489.23 926.17 488.33C933.27 485.67 965.48 475.54 969.51 487.94C974.1 502.07 919.64 516.47 915.65 502.49" />
		<path id="Layer 13" class="shp2" d="M1030.92 498.89C1034.6 498.18 1040.55 491.49 1049.69 491.05C1054.73 490.81 1059.94 490.99 1064.9 491.96C1115.74 501.97 1037.42 520.99 1026.49 504.59" />
		<path id="Layer 14" class="shp2" d="M927.08 560.48C927.39 560.8 926.27 559.73 925.94 560.01C922.54 562.88 921.35 572.72 921.05 577.48C920.54 585.65 925.04 596.92 932.38 595.21C945.64 592.11 946.32 558.93 931.12 557.66" />
		<path id="Layer 15" class="shp2" d="M1048.64 553.91C1046.17 552.5 1043.92 560.97 1043.67 561.85C1041.77 568.62 1039.01 593.17 1052.42 592.19C1064.47 591.3 1063.24 556.4 1051.07 555.64" />
		<path id="Layer 16" class="shp0" d="M972.58 611.77C971.29 611.87 976.09 612.52 976.88 612.67C980.59 613.4 984.34 613.91 988.12 614.16C994.77 614.6 1001.47 614.29 1007.98 612.89C1008.73 612.73 1017.31 609.41 1017.75 609.87C1017.98 610.11 1014.33 612.24 1014.13 612.34C1009.84 614.63 1005.04 616.62 1000.42 618.21C991.9 621.14 982.1 622.23 973.44 619.19C969.18 617.7 963.88 615.11 961.58 611.21C960.83 609.95 958.66 608.21 959.77 607.24C961.58 605.66 970.67 611.2 972.65 611.92" />
		<path id="Layer 17" class="shp1" d="M1184.13 329.74C1182.09 315.69 1141.6 298.33 1129.57 295.63C1128.26 295.33 1107.66 291.02 1107.21 293.27C1107.12 293.74 1110.25 294.6 1110.37 294.64C1118.87 297.73 1127.42 301.52 1135.31 305.94C1152.71 315.68 1179.46 335.56 1183.75 357.02" />
		<path id="Layer 18" class="shp1" d="M1178.92 503.79C1198.19 531.75 1188.55 602.55 1180.15 633.6C1177.93 641.81 1168.59 657.5 1168.59 665.78C1168.59 668.62 1172.93 662.07 1174.8 659.93C1177.6 656.72 1180.22 653.35 1182.86 650.01C1191.88 638.6 1201.13 627.15 1208.68 614.69C1225.91 586.28 1236.27 549.12 1234.65 515.72C1234.37 509.93 1230.23 504.13 1230.23 498.88" />
		<path id="Layer 19" class="shp1" d="M1009.22 745.63C1010.21 744.88 1051.13 724.71 1061.79 716.73C1093.15 693.26 1111.81 663.07 1128.93 628.82C1129.87 626.93 1127.76 632.87 1127.14 634.88C1125.32 640.79 1123.35 646.66 1121.15 652.44C1115.44 667.42 1108.43 681.86 1100.68 695.89C1086.05 722.35 1068.3 748.76 1045.96 769.39C1044.16 771.05 1028.33 786.94 1025.05 785.3C1021.48 783.52 1018.98 775.23 1017.14 772.1C1012.37 764 1006.32 757.43 1005.44 747.7" />
		<path id="Layer 20" class="shp1" d="M1113.14 851.49C1117.89 854.23 1132.33 835.86 1134.85 833.18C1158.42 808.09 1179.93 779.86 1194.13 748.34C1198.23 739.24 1202.03 729.95 1205.05 720.44C1206.2 716.81 1207.3 713.14 1208.26 709.45C1208.74 707.58 1210.03 701.93 1209.61 703.81C1200.05 746.87 1191.58 787.99 1175.8 829.4C1162.03 865.5 1155.31 889.36 1117.94 856.66" />
		<path id="Layer 21" class="shp1" d="M1227.26 894.37C1229.46 899.04 1232.59 885.51 1234.79 880.85C1239.27 871.35 1243.4 861.64 1247.28 851.88C1258.3 824.11 1270.5 793.15 1274.96 763.39C1275.15 762.09 1274.34 765.95 1274.1 767.25C1273.34 771.47 1273.02 775.76 1272.61 780.02C1271.49 791.49 1270.34 802.98 1269.68 814.49C1268.36 837.5 1268.94 860.73 1263.05 883.2C1257.6 903.95 1251.72 900.58 1230.09 896.97" />
		<path id="Layer 22" class="shp1" d="M1268.93 481.81C1270.09 480.37 1269.98 486.28 1270.11 487.25C1271.25 496.1 1272.08 505.01 1272.39 513.94C1273.11 534.41 1273.31 555.44 1270.18 575.73C1269.03 583.2 1267.85 590.68 1266.61 598.13C1266.2 600.58 1263.25 606.59 1265.47 605.48C1271.59 602.43 1277.23 581.69 1279.45 576.23C1288.48 554.03 1332.6 411.97 1267.47 477.12" />
		<path id="Layer 23" class="shp2" d="M879.31 214.05C879.44 213.77 879.56 212.89 879.36 212.65C870.36 202.15 863.99 189.76 857.56 177.51C842.3 148.43 816.3 106.9 835.42 73.77C844.54 57.99 862.35 62.87 871.75 75.53C889.1 98.87 898.3 130.15 908.48 157.12C912.5 167.78 916.4 178.45 920.12 189.2C920.45 190.17 921.54 191.93 921.54 191.93C921.54 191.93 920.28 191.74 919.67 191.59C913.82 190.13 907.1 188.2 901.1 189.77C890.74 192.49 885.17 203.08 880.72 211.97" />
		<path id="Layer 24" class="shp2" d="M1142.87 185.31C1140.78 187.68 1141.44 172.21 1141.46 171.37C1141.59 162.92 1141.43 154.45 1141.68 145.99C1142.34 123.51 1139.17 89.36 1153.32 70.19C1157.79 64.14 1166.73 52.05 1175.86 55.09C1187.46 58.96 1186.52 78.67 1185.34 87.8C1181.46 117.58 1168.76 145.48 1162.57 174.78C1161.91 177.9 1159.58 200.58 1156.9 201.92C1155.39 202.67 1155.18 199.02 1154.11 197.72C1151.17 194.15 1147.44 191.9 1144.07 188.86" />
		<path id="Layer 25" class="shp1" d="M846.99 288.89C856.56 274.64 922.04 217.67 936.83 239.86C939.79 244.3 926.69 243.19 921.71 245.1C912.26 248.73 902.79 253.04 894.13 258.32C867.01 274.88 858.11 297.62 844.82 324.21" />
		<path id="Layer 26" class="shp1" d="M1181.1 259.07C1181 237.26 1111.32 215.66 1102.39 229.07C1099.56 233.3 1112.48 230.52 1117.43 231.73C1127.35 234.14 1136.97 237.74 1145.77 242.97C1159.04 250.86 1167.45 263.21 1176.84 275.04C1179.52 278.41 1182.34 281.8 1184.52 285.53C1185.75 287.65 1185.93 294.64 1187.02 292.44C1189.83 286.83 1186.6 266.57 1183.45 260.91" />
		<path id="Layer 27" class="shp1" d="M1168.23 397.01C1166.94 396.42 1155.22 379.44 1151.36 376.42C1142.89 369.77 1133.56 365.08 1122.93 363.19C1122.1 363.04 1111.67 361.48 1112.11 362.67C1113.73 367.13 1130.68 372.82 1134.8 375.53C1150.09 385.57 1161.77 403.02 1161.77 421.71" />
		<path id="Layer 28" class="shp3" d="M1121.08 499.85C1123.4 496.89 1115.99 505.44 1113.88 508.56C1109.42 515.15 1105.39 521.97 1102.5 529.4C1095.75 546.76 1109.65 560.02 1111.85 577.83C1113.19 588.72 1111.66 598.85 1110.53 609.6C1110.49 609.97 1110.16 612.74 1110.58 612.95C1113.92 614.62 1126.92 594.29 1128.11 592.23C1137.87 575.41 1143.24 554.97 1154.39 539.29C1159.07 532.71 1172.41 522.6 1170.98 513.45C1168.59 498.14 1133.87 499.87 1123.33 502.35" />
		<path id="Layer 29" class="shp3" d="M983.04 669.68C983.09 669.56 983.07 669.62 983.1 669.49" />
		<path id="Layer 30" class="shp3" d="M984.28 667.03C1001.69 663.49 1029.35 663.83 1049.35 654.9C1066.88 647.08 1083.52 628.2 1097.28 622.3C1099.68 621.27 1095.23 627.12 1093.93 629.39C1091.45 633.72 1088.77 637.97 1085.96 642.09C1076.6 655.81 1064.84 666.61 1051.77 676.72C1044.99 681.97 1037.89 686.77 1030.72 691.46C1026.25 694.38 1021.69 697.16 1017.09 699.87C975.76 724.23 993.52 684.54 983.46 664.41" />
		<path id="Layer 31" class="shp3" d="M1053.43 805.65C1052.85 805.57 1068.86 787.54 1070.24 785.96C1080.6 774.08 1090.71 761.76 1099.75 748.85C1115.06 727.01 1126.82 702.36 1136.3 677.49C1138.67 671.3 1141.98 650.39 1147.13 646.27C1147.99 645.58 1147.15 648.48 1147.02 649.57C1146.39 654.77 1145.69 659.95 1144.88 665.12C1142.92 677.6 1140.63 690.01 1137.9 702.34C1135.93 711.21 1133.93 720.08 1131.3 728.78C1123.13 755.85 1109.67 779.87 1093.65 802.94C1089.22 809.33 1080.88 822.89 1071.28 822.46C1065.32 822.19 1059.76 814.4 1056.28 810.31" />
		<path id="Layer 32" class="shp3" d="M1096.08 842.65C1096.27 842.83 1095.38 842.69 1095.33 842.44C1094.7 839.5 1100.03 833.9 1101.46 831.91C1106.9 824.33 1112.66 816.99 1118.06 809.38C1133.68 787.33 1148.05 764.49 1159 739.72C1162.5 731.82 1165.51 723.73 1168.4 715.59C1169.67 712.03 1170.99 708.49 1172.25 704.93C1172.59 703.97 1173.29 701.05 1173.29 702.07C1173.29 737.11 1152.11 791.09 1131.14 819.33C1125.16 827.37 1112.71 846.87 1099.92 841.53" />
		<path id="Layer 33" class="shp3" d="M1240.48 497.66C1239.99 497.23 1240.88 497.69 1241.02 498.2C1242.96 505.12 1242.99 513.36 1243.16 520.47C1243.6 538.68 1242.53 557.18 1240.13 575.23C1237.79 592.88 1233.32 610.78 1225.05 626.66C1221.97 632.59 1218.12 638.08 1214.54 643.71C1214.18 644.28 1208.4 651.59 1209.49 651.67C1217.82 652.26 1230.94 627.85 1234.25 622.51C1253.35 591.72 1264.57 553.52 1267.92 517.56C1269.81 497.29 1275.45 473.17 1251.53 489.11" />
		<path id="Layer 34" class="shp3" d="M1175.67 874.16C1174.29 870.51 1182.54 860.23 1183.84 857.52C1192.97 838.57 1201.36 819.31 1208.78 799.62C1217.46 776.58 1224.31 752.88 1230.69 729.12C1231.36 726.62 1233.28 705.88 1235.44 704.59C1236.56 703.92 1236.18 707.1 1236.39 708.39C1237.29 713.86 1238.34 719.31 1239.24 724.78C1241.53 738.59 1242.94 752.63 1243.87 766.59C1245.14 785.52 1238.88 872.86 1218.52 887.58C1210.4 893.44 1183.84 885.29 1176.06 881.1" />
		<path id="Layer 35" class="shp3" d="M867.08 220.89C864.99 221.65 858.71 211.55 857.79 210.39C847.9 197.97 838.8 185.17 830.51 171.63C806.13 131.81 774.85 46.66 834.49 21.17C889.75 -2.44 913.4 92.51 922.09 129.76C923.62 136.31 933.9 176.81 929.34 181.94C927.65 183.84 924.03 168.66 923.58 167.22C920.56 157.46 917.4 147.72 913.65 138.2C910.96 131.36 907.79 124.63 904.4 118.11C894.84 99.69 867.09 42.31 837.08 56.67C822.89 63.45 820.47 79.2 819.76 93.5C818.14 126.53 832.78 155.96 851.84 181.7C857.97 189.98 882.12 211.2 871.07 221.32" />
		<path id="Layer 36" class="shp3" d="M860.97 403.4C861.22 403.36 862.43 397.27 862.44 397.25C864.16 392.66 866.66 388.44 869.16 384.25C879.96 366.13 893.53 349.34 910.39 336.53C912.02 335.29 928.85 322.8 931.06 325.02C931.5 325.46 916.91 338.11 916.24 338.73C907.63 346.79 899.71 355.27 892.94 364.97C878.71 385.36 875.1 402.61 870.55 425.4C870.29 426.67 868.94 423.38 868.2 422.33C865.89 419.08 863.89 415.73 862.11 412.16" />
		<path id="Layer 37" class="shp3" d="M838.65 340.92C838.96 341.19 840.17 338.24 840.38 337.82C841.77 335.17 843.27 332.58 844.8 330C848.83 323.22 853.16 316.61 857.89 310.29C871.73 291.79 889.17 273.57 910.15 263.14C911.37 262.54 932.49 253.69 933.27 257.05C933.4 257.64 931.41 258.67 931.3 258.73C923.98 263.17 916.44 266.97 909.53 272.11C895.48 282.57 882.8 295.35 871.51 308.71C862.42 319.46 854.78 330.85 848.68 343.53C847.84 345.27 844.6 357.09 842.69 357.73C841.43 358.15 839.93 351.64 839.86 351.16" />
		<path id="Layer 38" class="shp3" d="M858.16 254.24C854.12 252.05 870.55 235.93 871.31 235.23C885.82 221.86 902.96 210.95 921.28 203.62C925.67 201.87 940.02 196.43 944.92 200.89C945.6 201.51 940.15 203.76 939.93 203.86C935.32 206.02 930.74 208.27 926.22 210.63C913.23 217.39 900.81 225.39 888.96 233.98C878.95 241.24 869 248.68 861.63 258.73C860.42 260.38 850.35 275.71 849.49 272.31" />
		<path id="Layer 39" class="shp3" d="M1163.59 47.78C1161.12 49 1168.55 45.22 1171.25 44.72C1176.51 43.76 1184.18 43.33 1188.8 46.45C1201.13 54.77 1198.44 78.96 1195.37 90.82C1189.23 114.58 1180.1 137.5 1173.17 161.03C1170.64 169.64 1167.6 178.12 1165.26 186.79C1164.23 190.61 1162.42 198.42 1162.77 198.3C1165.27 197.46 1176.4 165.55 1177.63 162.04C1188.11 132.18 1202.58 95 1202.28 62.81C1202.19 53.44 1199.72 35.28 1188.23 32.35C1175.71 29.15 1161.29 41.23 1154.66 50.48C1137.36 74.61 1128.61 102.67 1132.08 132.16C1133.24 142.09 1134.11 152.04 1135.15 161.99C1135.51 165.5 1135.91 169.02 1136.49 172.5C1136.79 174.29 1136.82 179.25 1137.88 177.77C1141.95 172.08 1138.96 152.61 1139.22 145.88C1140.37 116.5 1141.95 81.74 1162.19 58.25C1165.77 54.09 1179.9 36.93 1187.56 42.04" />
		<path id="Layer 40" class="shp3" d="M1169.47 224.52C1173.55 227.34 1155.15 213.65 1153.13 212.3C1139.38 203.14 1125.3 195.91 1108.96 192.64C1107.79 192.41 1087 189.24 1087 191.11C1087 191.39 1098.17 194.85 1098.65 195.04C1112.22 200.26 1125.61 206.18 1138.26 213.36C1148.43 219.13 1158.41 225.65 1167.47 233.07C1170.44 235.51 1173.1 238.2 1175.28 241.37C1176.3 242.86 1177.71 247.66 1178.21 245.93C1178.9 243.5 1175.85 238.63 1174.95 236.62" />
		<path id="Layer 41" class="shp3" d="M1183.34 303.68C1192.84 306.63 1177.91 286.16 1169.34 277.96C1157.79 266.93 1118.27 249.47 1101.53 256.91C1100.15 257.52 1104.41 257.83 1105.85 258.3C1109.56 259.51 1113.16 261.09 1116.73 262.67C1126.22 266.85 1135.66 271.36 1144.35 277.05C1155.04 284.06 1166.55 292.93 1173.94 303.53C1177.44 308.55 1184.98 337.87 1186.5 324.58C1186.85 321.51 1186.91 318.37 1186.98 315.28" />
		<path id="Layer 42" class="shp3" d="M1177.32 365.68C1176.68 368.25 1176.54 360.36 1175.43 357.97C1173.13 353.06 1169.08 348.77 1165.16 345.11C1151.76 332.59 1135.89 327.42 1118.12 324.2C1117.04 324 1103.48 321.24 1103.11 323.1C1102.94 323.97 1116.84 329.32 1117.74 329.76C1128.03 334.85 1138.12 340.79 1147.23 347.8C1156.93 355.27 1165.05 364.49 1169.91 375.81C1171.67 379.89 1172.57 384 1173.22 388.37C1173.57 390.73 1174.13 397.86 1174.13 395.47C1174.13 386.95 1179.48 379.18 1178.54 370.05" />
		<path id="Layer 43" class="shp3" d="M1129.61 464.32C1130.71 464.94 1134.37 448.4 1134.52 447.46C1137.15 431.8 1135.16 416.57 1127.47 402.57C1124.17 396.56 1120.28 391.5 1115.15 386.98C1112.82 384.94 1104.74 381.66 1107.81 381.28C1116.11 380.24 1128.97 389.54 1133.99 395.04C1167.14 431.28 1146.8 439.74 1127.28 469.67" />
		<path id="Layer 44" class="shp3" d="M891.96 470.19C889.96 471.99 892.32 464.8 892.99 462.19C894.35 456.83 896.37 451.57 898.55 446.51C904.35 433.03 911.49 420.03 920.37 408.33C921.28 407.12 929.18 395.54 932.07 397.34C933.29 398.11 923.01 417.6 922.29 419.26C916.34 432.89 912.14 446.8 909.48 461.42C905.93 480.96 901.54 503.16 904.78 523.15C905.52 527.71 908.75 540.19 901.38 542.24C898.67 542.99 896.63 528.05 896.44 526.55C894.25 508.8 894.2 491.85 890.01 474.28" />
		<path id="Layer 45" class="shp3" d="M903.28 506.34C904.48 504.72 904.75 511.97 907.66 516.53C911.67 522.82 916.78 525.6 924.3 524.97C947.47 523.04 968.39 505.5 996.28 505.5C1021.65 505.5 1041.09 523.13 1065.85 525.79C1076.73 526.95 1091.27 523.97 1095.49 512.17C1097.68 506.02 1110.28 475.68 1115.92 478.5C1116.45 478.76 1112.37 488 1103.11 507.32C1098.86 516.21 1094.35 525.24 1091.99 534.85C1091.21 538.02 1091.74 547.14 1089.88 549.62C1089.15 550.6 1086.66 548.83 1086.09 548.43C1078.07 542.69 1072.13 537.03 1062.59 533.65C1039.45 525.45 1016.24 516.69 991.39 516.29C967.76 515.91 945.12 524.73 924.16 535C918.8 537.62 906.02 550.11 899.89 547.85C894.88 546 897.17 534.49 897.73 530.87" />
		<path id="Layer 46" class="shp3" d="M1154.1 65.43C1162.71 61.99 1166.27 50.75 1179.29 52.48C1192.32 54.2 1191.65 71.53 1190.53 81.19C1187.29 108.99 1175.94 136.76 1168.37 163.61C1165.23 174.77 1160.87 186.77 1160.54 198.47C1160.53 198.99 1160.32 200.66 1161.04 200.93C1162.75 201.59 1166.23 192.82 1166.59 192.06C1171.47 181.74 1175.94 171.09 1179.65 160.29C1190.07 129.96 1205.55 93.31 1202.9 60.53C1200.07 25.4 1174.8 24.79 1158.18 53.89" />
	</g>
	<path id="dark blue leafset 7" class="shp4" d="M679.24 949.02C676.44 954.82 630.32 936.98 604.24 932.35C599.91 931.59 543.11 921.59 508.4 903.19C500.9 899.21 490.67 892.33 491.73 886.52C492.62 881.67 502.88 879.53 508.4 874.02C511.83 870.59 518.28 862.53 516.73 853.19C515.93 848.37 513.98 845.64 512.57 844.86C504.59 840.46 490.79 858.91 475.06 857.36C465.7 856.43 459.46 850.15 454.23 844.86C434.85 825.26 421.13 808.3 404.23 786.53C397.33 777.64 387.68 765.37 391.73 757.36C395.12 750.64 407.63 751.55 416.73 744.86C422.34 740.73 423.68 736.58 429.23 732.36C431.74 730.46 433.68 729.25 433.4 728.2C432.66 725.47 417.7 725.91 404.23 728.2C395.08 729.75 388.89 731.69 383.39 728.2C373.81 722.1 372.4 704.3 375.06 699.03C392.07 665.33 365.21 605.84 366.73 594.87C368.63 581.18 401.01 624.72 444.49 623.48C451.39 629.31 458.78 633.68 466.73 636.53C477.8 640.52 486.3 640.38 487.56 644.87C490.06 653.72 460.21 667.71 462.56 674.03C463.81 677.37 477.16 676.47 483.4 678.2C494.3 681.22 500.8 687.86 508.49 695.77C526.76 714.57 540.13 727.02 546.72 744.8C551.49 757.65 551.47 768.96 550.07 774.03C545.63 790.06 527.72 800.59 529.23 803.19C530.79 805.88 549.67 794.43 566.73 799.03C579.73 802.53 588.26 815.43 590.77 813.77C592.95 812.34 589.89 801.68 583.4 790.69C578.53 782.45 564.86 769.72 566.73 765.69C568.9 761.06 583.73 764.98 604.24 765.69C624.89 766.42 637.54 763.23 637.57 761.53C637.63 758.22 589.45 761.32 570.9 732.36C569.47 730.13 568.04 727.25 566.73 724.03C557.56 701.37 564.5 678.34 566.67 670.01C579.22 621.86 552.05 554.31 566.73 549.04C570.65 547.63 578.49 554.33 587.57 557.37C591.6 558.72 600.64 560.34 608.4 561.54C613.26 562.29 616.25 562.63 616.74 561.54C617.86 558.99 601.48 549.44 591.73 536.54C587.02 530.3 584.61 525.25 583.4 519.87C580.52 507.03 585.29 496.16 587.57 490.71C590.6 483.45 614.61 425.97 616.74 419.88C618.66 414.37 620.61 408.44 625.07 407.38C636.46 404.66 649.77 445.11 675.07 465.71C694.1 481.21 713.26 487.07 712.57 499.04C712.33 503.22 709.76 506.5 704.24 511.54C695.72 519.32 678.46 529.36 679.24 532.37C680.08 535.62 695.07 538.08 708.41 532.37C714.17 529.91 717.27 526.97 720.91 528.21C728.61 530.83 728.34 548.67 729.24 561.54C730.88 585.01 738.88 610.3 751.18 635.94C758.96 652.15 770.56 671.51 762.57 686.53C757.95 695.23 749.53 697.25 737.57 703.2C716.86 713.5 703.57 727.15 704.24 728.2C704.82 729.1 717.52 723.33 725.07 719.86C733.49 716 742.94 711.58 750.07 715.7C755.77 718.99 757.49 726.21 758.41 732.36C760.86 748.84 758.56 768.37 760.33 768.9C762 769.4 763.49 754.14 775.07 736.53C787.54 717.57 787.44 699.33 795.23 685.8C797.26 682.3 805.52 680.48 812.58 682.37C823.53 685.29 828.24 699.47 829.24 699.03C830.08 698.67 829.05 687.96 821.83 676.66C819.07 672.34 816.7 669.85 816.74 665.7C816.84 656.13 829.66 649.97 839.29 643.42C851.8 634.91 862.25 623.24 870.87 608.52C872.55 613.61 873.96 618.78 875.08 624.04C877.6 635.85 877.61 645.27 878.35 657.55C879.22 672.05 879.19 692.48 880.01 695.77C880.63 698.23 882.21 704.03 879.24 707.36C873.09 714.3 851.34 704.61 850.08 707.36C849.1 709.5 862.12 715.6 862.58 724.03C862.94 730.72 855.93 735.66 850.08 740.7C843.23 746.58 836.15 754.17 830.97 762.25C826.03 769.96 822.91 777.67 816.74 778.19C809.68 778.8 803.51 768.27 800.08 769.86C796.24 771.64 801.53 785.73 795.91 790.69C789.12 796.68 774.02 785.02 766.74 790.69C760.27 795.74 765.26 809.83 766.74 824.03C770.12 856.45 750.17 884.29 754.24 886.52C758.2 888.69 778.01 865.68 795.91 836.52C807.37 817.85 820.85 792.59 829.24 794.86C835.83 796.64 834.16 814.65 845.91 824.03C848.09 825.76 854.59 830.36 858.41 828.19C863.49 825.31 860.92 812 858.41 799.03C855.75 785.27 853.12 771.1 854.24 765.69C858.92 743.09 904.5 722.82 912.58 715.7C925.68 704.14 935.56 691.85 941.75 694.87C944.42 696.16 944.89 699.57 945.91 703.2C950.09 717.94 962.44 729.74 966.75 728.2C969.18 727.33 969.71 719.47 970.92 707.36C971.12 705.33 971.94 699.66 975.08 694.87C979.4 688.27 985.69 685.49 988.89 684.14C997.24 680.63 1014.11 677.21 1024.63 670.01C1031.64 665.21 1034.86 660.33 1037.58 661.53C1041.7 663.35 1039.47 676.24 1037.1 690.79C1034.57 706.24 1030.39 731 1029.62 736.49C1027.43 751.94 1026.85 762.45 1022.97 763.08C1016.42 764.15 1007.42 735.59 1004.25 736.53C1001.64 737.3 1002.47 758.18 1005.51 773.06C1006.04 775.63 1007.69 783.18 1004.25 790.69C1000.9 798.02 994.44 801.58 991.75 803.19C985.8 806.75 976.53 815.34 968.11 825.41C957.6 837.98 953.69 848.25 946.5 847.84C936.92 847.3 929.95 827.87 929.25 828.19C928.56 828.51 938.53 846.15 933.41 861.52C930.34 870.76 923.53 874.72 914.09 881.92C907.38 887.02 873.16 913.08 869.21 916.82C868.2 917.76 865.53 920.34 862.58 919.85C853.76 918.39 850.36 890.64 850.08 890.69C849.8 890.74 857.19 916.02 845.91 928.19C838.64 936.02 826.87 935.07 817.68 935.1C784.64 935.18 763.59 950.94 729.24 949.02C721.46 948.58 714.92 947.35 708.41 944.85C692.91 938.91 685.35 928.86 673.06 916.82C669.61 913.44 652.53 896.99 650.07 899.02C647.79 900.91 656.9 919.71 670.9 936.52C676.44 943.17 680.36 946.68 679.24 949.02Z" />
	<path id="Green Leafset 1" class="shp5" d="M1181.89 896.29C1161.91 889.1 1149.99 881.21 1140.79 870.61C1133.72 862.46 1126.73 848.03 1121.65 829.05C1115.4 805.71 1112.84 783.74 1113.24 768.35C1113.62 753.94 1117.72 735.15 1122.11 715.59C1125.88 698.85 1131.09 679.93 1137.06 660.96C1143.8 639.53 1149.7 623.43 1154.25 624.04C1157.97 624.53 1160.88 647.76 1162.28 652.55C1167.3 669.72 1175.62 678.77 1181.89 695.51C1185.19 704.31 1188.73 720.14 1191.23 735.2C1194.6 755.47 1196.15 774.2 1195.9 791.7C1195.43 825.65 1188.4 850.89 1188.9 851C1189.51 851.13 1205.48 815.56 1204.77 770.69C1204.6 759.55 1204.08 743.78 1208.51 727.26C1212.58 712.09 1219.6 698.05 1229.99 683.84C1254.48 650.37 1288.71 627.38 1306.58 615.2C1332.31 597.66 1363.36 574.61 1392.04 555.9C1411.31 543.33 1428.41 537.47 1448.09 525.55C1458.48 519.25 1470.52 511.82 1475.1 515.71C1481.31 520.97 1467.78 541.86 1454.62 575.51C1443.85 603.04 1441.73 625.23 1428.47 652.09C1419.62 670.02 1408.67 686.5 1394.38 705.32C1370.34 736.98 1335.84 773.75 1337.4 775.36C1338.63 776.62 1362.39 755.41 1383.64 740.8C1411.36 721.75 1440.41 708.37 1456.96 704.38C1482.57 698.21 1500.31 702.66 1526.54 700.18C1536.96 699.19 1547.04 698.08 1550.1 703.2C1555.23 711.75 1536.88 731.24 1516.73 752.48C1504.34 765.55 1480.41 792.69 1468.17 803.84C1432.88 835.97 1399.58 859.01 1368.23 875.28C1323.54 898.46 1279.47 908.79 1256.15 909.37C1236.32 909.85 1211.11 906.81 1181.89 896.29Z" />
	<path id="Green Leafset 2" class="shp5" d="M554.23 907.35C552.93 907.1 551.64 906.85 550.33 906.6C536.1 903.94 521.46 902.04 506.73 900.96C488.8 899.64 467.95 899.75 446.47 900.96C432.62 901.74 410.64 902.77 410.18 902.9C408.42 903.41 401.49 905.44 400.06 903.19C398.32 900.44 407.56 892.3 410.18 882.82C411.06 879.67 411.17 872.73 410.83 865.97C410.47 858.89 409.81 854.01 408.39 853.19C403.6 850.43 394.1 859.92 377.14 869.21C370.87 872.65 365.96 874.44 362.56 874.02C347.96 872.23 345.09 847.41 329.23 836.52C325.87 834.22 320.26 830.97 320.89 828.19C321.68 824.72 331.97 825.71 337.56 819.86C341.84 815.38 339.89 811.52 343.45 805.73C344.91 803.34 346.63 801.22 345.89 799.03C345.01 796.39 340.99 794.87 337.56 794.86C330.74 794.84 326.85 801.39 320.89 803.19C314.03 805.27 305.37 803.52 300.06 799.03C289.58 790.17 295.92 772.17 288.37 758.43C281.19 745.38 265.5 739.46 266.72 736.53C268.3 732.74 293.08 738.88 300.06 740.7C309.81 743.24 317.34 745.68 327.89 744.18C332.44 743.54 342.8 741.96 346.04 740.94C348.44 740.18 352.01 738.95 354.23 740.7C357.84 743.54 354.83 751.98 353.16 764.26C351.71 774.99 351.94 781.22 354.23 782.36C357.97 784.23 367.49 777.25 371.31 768.15C372.61 765.05 372.53 760.99 375.06 757.36C380.31 749.83 391.57 749.02 395.89 749.03C405.04 749.05 411.84 753.3 423.14 761.02C430.99 766.39 436.67 770.31 437.56 774.03C439.86 783.62 428.62 793.29 419.9 810.91C416.31 818.16 415.09 822.42 416.73 824.03C419.56 826.8 429.45 820.43 446.47 812.85C453.92 809.54 460.06 807.46 464.61 807.67C480.59 808.42 490.59 823.57 503.49 840.06C514.49 854.13 525.45 862.33 536.53 876.34C538.26 878.52 547.93 889.1 559.21 894.48C570.64 899.93 594.13 906.56 607.16 894.48C612.59 889.44 617.29 875.48 613.64 853.02C609.87 829.89 599.22 810.87 585.78 794.71C570.79 776.72 555.63 767.96 539.77 751.31C531.44 742.56 526.55 734.3 518.39 725.39C495.82 700.78 474.81 686.2 478.86 676.16C479.53 674.5 485.31 670.82 491.82 667.09C495.49 664.99 497.19 662.65 500.89 660.61C502.24 659.87 504.1 658.9 504.23 657.37C504.48 654.45 498.22 651.65 491.73 649.03C480.13 644.36 471.79 641.54 466.55 635.34C461.17 628.98 460.45 622.02 459.43 613.96C458.82 609.18 455.98 591.71 454.24 580.28C452.11 566.22 449.87 557.85 454.23 553.21C463.02 543.85 487.54 553.3 487.56 553.21C487.58 553.13 473.29 545.68 454.23 540.71C450.57 539.75 439.94 537.11 435.45 528.45C433.79 525.24 433.46 522.29 433.4 519.87C433.02 504.99 441.62 476.36 443.23 460.43C444 452.72 444.62 439.09 443.88 426.74C443.42 419.14 442.77 413.59 445.9 411.55C455.12 405.51 483.98 445.19 504.13 454.59C507.1 455.98 516.24 459.9 519.69 468.85C520.28 470.4 520.68 472.07 520.9 474.04C522.2 486.04 514.55 495.32 509.97 510.31C507.59 518.07 507.21 523.58 508.4 524.04C510.67 524.92 517.26 506.78 525.07 507.37C532.56 507.94 535.18 529.81 544.31 542.05C551.57 551.8 558.63 555.18 559.86 564.73C560.63 570.74 557.51 582.18 545.9 594.87C539.63 601.73 520.26 612.79 520.9 619.87C521.6 627.6 540.72 631.65 550.07 640.7C555.68 646.13 563.52 659 566.98 677.45C568.9 687.64 567.82 698.96 566.98 712.44C566.33 722.91 565.91 732.79 566.98 740.29C568.63 751.77 572.69 764.38 581.24 779.16C586.53 788.32 597.29 801.15 598.73 803.13C611.59 820.82 618.7 852.28 629.24 853.19C644.54 854.51 661.05 813.41 668.71 786.94C672.47 773.93 675.76 753.3 678.43 733.81C679.89 723.17 681.55 710.96 681.67 704.01C682.24 671.56 673.22 650.66 663.53 622.39C656.49 601.86 655.34 585.54 647.33 565.38C644.96 559.42 634.46 531.92 640.2 504.48C642.69 492.59 646.65 484.34 652.51 483.1C655.85 482.39 662.49 485.3 670.66 492.17C672.67 493.87 674.25 495.35 675.07 494.88C677.36 493.54 672.16 477.67 668.71 470.14C668.19 469.02 666.68 465.32 666.74 461.54C666.77 459.73 668.24 454.71 670.66 450.06C671.71 448.04 672.86 446.15 675.07 444.88C677.45 443.5 679.71 443.63 681.67 443.58C687.62 443.45 690.94 442.4 691.74 440.71C693.23 437.55 687.23 433.38 687.57 428.21C687.97 422.15 698.78 416.58 701.76 413.13C705.02 409.36 707.87 399.91 712.57 399.05C718.54 397.96 725.03 406.1 730.91 415.08C748.66 442.17 754.91 458.35 749.06 464.96C747.19 467.07 738.96 468.43 729.24 469.88C725.09 470.49 717.46 471.7 716.66 475.33C715.71 479.61 725.58 483.96 727.67 492.17C728.8 496.57 727.85 500.2 727.03 503.18C724.92 510.8 715.86 543.56 715.36 544.64C698.97 580.21 683.17 603.99 688.8 632.75C691.27 645.41 698.35 662.06 707.59 662.55C716.71 663.03 724.86 647.6 728.32 637.93C733.17 624.42 731.17 614.64 730.91 598.42C730.77 589.61 734.99 568.11 738.69 549.83C739.28 546.9 741.4 537.15 745.91 536.54C750.26 535.95 758.18 549.16 762.57 553.21C769.88 559.95 777.23 563.25 778.21 562.14C779.94 560.2 760.55 545.26 758.41 524.04C757.26 512.71 763.2 501.98 770.44 485.69C777.14 470.59 782.32 457.89 787.93 458.48C793.58 459.07 794.51 473.05 804.24 478.21C810.41 481.48 818.82 481.54 820.91 478.21C824.55 472.41 806.5 459.39 808.41 444.88C809.78 434.44 819.34 428.05 831.34 420.26C847.85 409.55 858.66 401.28 862.58 403.21C873.06 408.4 863.05 438.86 861.8 486.99C861.26 507.68 860.62 532.43 862.45 538.17C863.44 541.28 866.23 549.23 862.58 553.21C855.95 560.43 833.35 547.49 829.24 553.21C826.39 557.17 836.51 569.25 838.47 578.98C840.65 589.77 837.46 598.45 831.34 613.32C824.1 630.92 815.63 644.45 808.02 661.9C804.59 669.78 801.33 677.81 795.91 678.2C785.11 678.97 774.92 647.8 770.91 649.03C767.03 650.22 776.79 681.25 766.74 707.36C761.05 722.15 749.43 730.99 735.45 746.12C724.84 757.61 718.11 768.22 706.94 779.16C700.12 785.85 688.49 794.92 679.73 805.08C665.83 821.18 661.45 836.37 650.07 853.19C641.89 865.27 633.89 872.6 630.48 884.11C627.85 892.99 627.76 900.5 621.41 906.79C613.96 914.17 601.85 915.96 587.07 913.92" />
	<path id="Yellow Leafset 1" class="shp6" d="M1308.43 607.37C1301.57 595.69 1297.03 584.45 1295.93 574.04C1295.74 572.28 1295.15 567.87 1294.07 564.34C1291.58 556.19 1286.7 549.79 1284.01 546.54C1280.18 541.91 1275.27 535.49 1270.86 529.52C1264.19 520.5 1261.11 514.51 1262.59 511.54C1265.28 506.16 1283.24 506.22 1291.76 503.21C1299.71 500.4 1304.33 497.68 1304.26 494.88C1304.12 489.33 1282.65 486.39 1269.31 474.6C1264.76 470.58 1261.54 466.69 1259.25 463C1249.8 447.76 1251.56 431.51 1252.29 423.54C1255.44 389 1251.3 367 1262.59 361.55C1274.75 355.68 1295.02 371.32 1295.93 369.88C1296.78 368.53 1276.91 357.45 1275.09 340.72C1274.64 336.53 1275.16 332.91 1276.28 329.94C1281.42 316.2 1297.82 316.8 1304.26 303.22C1306.39 298.72 1306.35 295.26 1308.43 294.89C1312.77 294.09 1319.11 313.53 1327.34 323.75C1333.41 331.28 1351.5 342.44 1350.1 349.05C1348.09 358.49 1320.87 361.25 1320.93 361.55C1320.97 361.78 1337.11 356.87 1345.14 363.98C1352.61 370.6 1346.72 382.35 1347.46 401.11C1347.89 412 1359.03 440.04 1351.33 446.75C1349.85 448.03 1348.28 448.53 1345.93 449.04C1338.16 450.74 1322.26 450.11 1320.93 453.21C1319.44 456.67 1332.21 464.5 1337.59 474.04C1343.89 485.21 1342.59 499.15 1345.14 499.35C1346.99 499.51 1349.78 493.27 1350.1 486.54C1350.43 479.44 1347.42 474.19 1345.93 469.88C1340.18 453.22 1356.24 438.58 1370.93 411.55C1383.11 389.12 1386.08 373.08 1396.2 372.49C1408.83 371.74 1419.71 397.03 1425.1 394.88C1428.7 393.44 1425.78 379.3 1429.26 369.88C1434.75 355.07 1449.74 348.21 1457.33 344.64C1474.15 336.7 1494.28 327.22 1500.66 322.2C1506.01 317.99 1509.05 314.78 1512.6 315.72C1522.14 318.24 1516.04 346.66 1520.77 391.05C1522 402.5 1524.26 420.17 1516.77 424.05C1507.35 428.92 1487.89 407.83 1483.43 411.55C1479.91 414.48 1491.15 431.8 1490.6 449.84C1490.47 454.09 1489.94 457.91 1489.05 461.45C1484.88 477.97 1473.6 484.39 1458.1 500.13C1447.63 510.76 1442.57 518.61 1433.43 519.87C1416.48 522.23 1400.18 502.39 1396.2 505.54C1393.44 507.73 1401.37 524.51 1403.17 534.94C1404.11 540.42 1404.57 546.34 1404.26 549.04C1403.16 558.75 1391.67 577.29 1365.25 593.73C1349.78 603.36 1332.59 610.09 1314.19 613.84" />
	<path id="Yellow Leafset 2" class="shp7" d="M570.9 761.53C576.88 750.32 576.74 739.6 575.49 731.86C573.73 720.93 570.13 710.6 565.67 701.29C562.75 695.21 560.05 690.45 560.21 683.28C560.5 670.75 569.25 661.68 574.4 656.54C584.69 646.27 596.87 634.12 601.69 631.44C609.38 627.16 617.55 624.31 618.61 617.79C619.58 611.88 614.45 604.46 608.24 603.06C601.29 601.48 594.86 607.81 591.32 611.24C583.3 619.03 576.11 622.85 568.94 631.44C559.29 643 554.54 652.89 547.66 652.18C545.55 651.96 543.36 650.75 542.2 648.9C539.85 645.17 542.06 639.38 546.57 631.98C550.99 624.73 557.01 617.05 559.66 614.52C571.46 603.3 581.08 597.62 588.05 585.05C591.78 578.31 592.88 573 591.32 568.13C589.19 561.46 582.59 557.05 576.58 556.12C570.32 555.16 561.71 558.18 551.48 570.31C543.9 579.29 538.96 591.07 537.83 603.6C536.78 615.32 539.29 623.6 535.65 625.43C532.63 626.95 527.3 623.06 524.19 619.43C514.2 607.81 518.82 587.93 522 578.5C526.15 566.2 532.81 556.49 540.56 549.57C548.91 542.12 564.06 536.26 573.86 523.92C576.78 520.24 579.33 515.83 579.31 510.28C579.29 504.1 576.04 498.23 571.67 495C567.06 491.59 552.56 491.55 532.37 499.91C515.44 506.92 501.14 517.84 496.9 522.83C482.07 540.28 480.99 561.21 479.98 561.03C478.87 560.85 482.46 537.12 489.26 512.46C492.29 501.47 496.37 489.17 507.27 478.08C515.47 469.73 524.97 464.98 538.38 458.43C551.13 452.2 558.43 448.53 558.03 444.79C557.58 440.68 546.6 439.69 529.65 434.97C518.21 431.77 511.42 429.31 502.9 432.24C497.17 434.21 487.73 442.04 480.52 457.34C470.05 479.58 468.71 498.51 470.7 509.19C473.87 526.21 482.64 535.66 477.79 547.94C475.78 553.05 471.21 559.14 465.79 559.4C459.43 559.7 453.36 551.9 447.77 539.2C441.14 524.14 440.75 510.88 441.77 501C444.19 477.68 456.23 454.7 460.87 432.78C462.32 425.94 463.48 417.39 458.69 412.59C452.42 406.32 438.09 408.75 429.22 415.32C422.48 420.3 417.9 428.69 415.57 444.79C412.8 463.95 414.63 481.48 417.21 490.63C421.13 504.53 438.76 529.19 433.4 536.54C430.55 540.43 423.59 540.72 418.85 539.2C411 536.7 406.23 528.24 402.47 514.65C395.41 489.06 395.56 465.43 397.56 451.88C399.95 435.68 403.56 426.08 400.06 424.05C395.98 421.67 384.11 430.43 379.55 442.06C374.3 455.44 380.15 468.77 383.92 478.08C390.85 495.24 399.07 517.77 394.83 520.65C391.42 522.96 379.1 513.18 371.36 501C365.44 491.68 363.05 482.24 361.54 468.8C358.54 442.11 360.11 417.28 363.72 410.41C365.52 406.98 368.71 401.72 366.73 399.05C363.47 394.66 347.33 398.76 336.98 408.22C323.11 420.89 322.54 441.15 323.33 450.79C324.42 464.03 329.9 478.35 340.25 489.54C350.71 500.85 374.65 507.35 377.37 521.19C377.98 524.32 378.06 529.88 374.64 533.2C368.32 539.32 353.31 533.7 344.62 528.29C334.48 521.98 329.06 513.18 326.06 508.1C320.52 498.71 313.26 487.48 311.32 482.45C309.21 476.96 306.51 447.41 295.89 440.71C287.85 435.64 275.77 437.31 268.75 443.15C257.3 452.69 260.99 473.25 264.38 484.63C270.26 504.36 285.13 519.2 300.41 527.74C315.68 536.29 336.16 537.05 336.43 541.39C336.71 545.85 320.03 552.99 303.14 551.21C294.8 550.33 285.62 546.48 274.21 538.66C262.1 530.35 248.65 520.63 243.64 515.19C242.11 513.53 236.64 507.46 228.36 506.46C218.95 505.33 207.95 510.95 205.98 518.47C202.4 532.18 229.54 548.22 236 551.76C249.13 558.93 264.02 562.58 279.12 562.67C293.96 562.76 307.06 558.12 307.5 559.4C308.02 560.9 294.15 569.22 276.39 571.4C263.43 573 248.78 571.06 233.27 564.31C220.64 558.81 210.78 551.51 205.98 546.3C197.05 536.61 193.73 527.11 185.79 526.65C178.58 526.24 171.24 533.5 168.87 540.84C165.46 551.4 172.4 563.26 182.51 573.59C191.18 582.44 202.63 588.29 216.35 591.05C244.56 596.74 269.28 585.2 269.84 586.69C270.28 587.84 256.75 596.33 237.64 599.24C227.36 600.8 210.37 600.26 191.25 594.33C169.9 587.7 151.55 576.57 145.94 570.86C136.92 561.67 131.21 551.16 122.47 551.76C115.3 552.25 108.83 560.05 107.19 567.58C102.86 587.45 130.36 614.04 159.04 621.61C168.65 624.15 184.98 623.51 203.8 619.98C226.02 615.8 242.17 610.63 243.1 612.88C243.97 615.01 227.52 620.46 216.35 633.62C212.51 638.15 210.41 641.75 204.89 645.08C195.37 650.82 185.03 650.09 170.51 647.81C157.29 645.74 142.87 642.8 136.67 640.17C127.4 636.24 115.89 628.24 103.92 618.34C90.15 606.96 82.89 599.75 71.71 599.78C58.5 599.82 43.83 609.52 42.24 621.07C41.01 630.02 49.05 641.55 71.17 654.9C89.24 665.82 119.41 678.69 146.49 671.28C158.63 667.95 169.86 661.3 183.39 665.7C189.22 667.6 191.77 670.05 192.34 672.37C193.92 678.88 182.72 687.73 164.5 698.02C152.87 704.59 140.6 709.51 133.39 711.12C112.89 715.69 96.25 711.93 71.71 707.84C51.11 704.41 38.57 703.38 35.69 707.84C30.76 715.48 41.96 735.47 58.39 742.75C68.46 747.21 79.06 746.26 96.67 740.7C107.77 737.19 120.27 732.37 125.72 729.42C152.44 714.96 167.37 702.82 170.14 705.5C173.33 708.59 160.39 727.8 147.25 741.72C138.33 751.17 129.78 757.35 122.3 760.86C114.85 764.36 101.24 767.38 85.39 767.7C71.65 767.97 56.41 767.71 46.09 766.67C43.26 766.39 31.95 765.83 22.17 770.09C10 775.38 -1.86 787.21 0.64 794.69C1.78 798.12 7.55 801.31 18.75 802.89C36.14 805.34 55.45 800.04 59.08 798.79C93.7 786.89 116.89 785.99 132.89 765.99C137.3 760.48 140.96 752.84 141.72 753.2C142.98 753.79 138.5 770.53 127.08 785.81C121.87 792.78 109.51 803.67 94.62 812.8C79.99 821.76 69.58 826.15 60.78 839.11C52.55 851.25 51.69 860.74 52.92 867.47C55.33 880.6 66.81 893.23 76.16 892.08C81.01 891.48 88.71 881.16 96.33 863.03C99.04 856.57 106.93 843.67 116.49 832.62C117.04 831.99 118.96 829.86 119.57 830.23C121.22 831.23 112.83 850.82 105.55 867.82C103.62 872.33 97.84 887.09 100.43 903.01C101.99 912.61 106.76 926.21 113.41 926.59C117.74 926.84 122.01 921.44 125.72 913.95C135.59 894.01 130.75 871.74 127.08 845.6C126.62 842.27 126 834.14 127.08 826.81C127.96 820.86 132.16 808.14 140.41 796.4C143.22 792.4 145 790.34 145.89 790.69C148.38 791.69 141.33 812.46 141.78 831.25C142.29 852.99 148.75 872.03 161.6 884.9C171.05 894.37 187.04 903.96 194.07 898.91C198.87 895.46 198.19 885.99 196.8 879.09C194.72 868.76 188.61 860.62 185.86 856.88C182.02 851.65 176.87 836.86 171.51 824.42C167.65 815.46 164.96 804.49 161.26 793.66C157.97 784.04 153.2 769.98 159.55 760.86C161.3 758.35 164.35 755.22 165.7 750.61C166.54 747.75 166.59 744.86 166.72 744.86C167.08 744.88 167.75 766.24 170.83 786.15C172.8 798.93 175.88 810.96 185.86 816.9C193.8 821.62 205.87 822.35 209.79 816.9C212.72 812.81 210.29 806.36 206.03 797.42C202.57 790.17 197.72 780.63 195.77 777.6C188.13 765.73 182.61 755.7 181.42 747.53C180.73 742.8 181.08 732.96 183.81 722.93C185.89 715.29 191.58 698.43 195.89 699.03C201.41 699.8 203.98 729.21 203.63 752.32C203.43 766.17 202.15 783.08 212.86 798.45C221.14 810.32 235.67 820.03 241.91 816.22C245.8 813.85 246.28 806.34 244.3 795.03C241.24 777.54 232.7 765.64 225.16 755.39C216.94 744.21 211.06 735.9 207.74 723.27C205.57 715.06 204.88 706.42 205.69 697.99C206.49 689.49 208.43 682.73 210.81 677.48C213.79 670.92 218.15 666.49 222.77 660.06C226.82 654.42 228.85 650.78 229.95 651.17C232.2 651.98 229.05 665.46 226.19 682.61C221.17 712.69 221.4 730.64 230.29 746.17C236.97 757.82 244.67 765.24 252.85 764.62C259.29 764.13 265.29 758.78 267.54 752.66C271.41 742.13 263.78 730.34 261.73 727.03C257.13 719.61 251.58 681.26 248.06 656.98C247.16 650.73 246.04 637.93 250.13 624.74C251.89 619.06 254.57 613.27 258.3 607.46C262.22 601.35 267.8 594.83 276.27 588.33C281.53 584.29 286.23 581.2 287.56 582.37C289.15 583.77 285.06 590.65 281.41 597.19C276.49 606.01 271.75 615.21 269.27 621.93C260.21 646.55 264.22 675.76 279.22 694.87C287.06 704.84 302.1 717.62 311.05 713.19C317.17 710.18 318.16 700.23 318.29 696.39C318.66 684.95 312.77 676.13 310.58 672.58C306.91 666.62 301.46 648.28 300.31 628.47C299.93 621.83 301.41 607.62 302.65 595.56C304.2 580.51 305.73 570.83 313.39 563.12C318.97 557.49 326.22 556.54 335.33 552.38C346.3 547.37 352.3 542.9 354.23 544.87C355.97 546.65 352.99 552.25 350.06 557.37C341.15 572.96 333.03 585.47 329.23 599.04C326.92 607.27 325.99 616.37 327.39 626.14C329.96 644.01 335.43 652.83 343.03 655.08C349.42 656.97 357.7 654.37 361.7 648.78C366.36 642.27 363.87 633.71 362.4 627.3C361.1 621.59 360.08 609.88 359.6 599.53C359.21 591.01 359.35 575.73 366.84 561.02C370.75 553.34 374.9 549.59 379.44 547.71C382.03 546.65 386.88 546.02 392.75 546.78C402.71 548.07 411.76 552.01 418.43 558.68C421.82 562.08 422.96 564.63 422.63 566.62C421.92 570.89 415.53 572.83 409.79 575.02C402.61 577.76 396.38 580.85 391.58 584.36C382.76 590.8 376.19 599.55 374.08 609.56C373.01 614.6 372.89 623.45 376.88 633.84C382.05 647.32 389.46 653.38 394.15 654.61C397.21 655.41 403.35 656.07 408.39 652.28C411.9 649.63 414.08 645.27 414.92 637.57C416.52 623 410.3 615.51 412.59 602.33C413.94 594.55 417.81 587.52 422.86 582.26C428.74 576.13 436.49 572.23 444.57 571.05C452.94 569.83 458.18 571.37 459.97 573.39C464.99 579.03 460.99 592.32 453.44 600C446.72 606.83 438.92 606.82 432.66 611.2C427.16 615.05 419.12 625.78 415.39 643.41C414 650 409.53 676.63 420.9 682.37C426.02 684.95 433.96 682.96 437.56 678.2C440.8 673.92 439.58 668.65 439.2 663.01C438.83 657.61 440.61 651.04 441.3 643.87C442 636.61 442.42 631.94 445.04 626.14C449.08 617.14 457.8 611 470.48 601.86C472.44 600.45 475.93 597.93 480.75 597.89C484.02 597.87 491.04 600.74 497.79 608.86C501.61 613.47 502.84 617.37 502.46 619.37C501.91 622.2 499.65 624.64 494.52 627.3C489.69 629.81 482.54 631.6 481.68 631.74C471.12 633.45 458.63 639.79 450.4 649.94C442.02 660.29 437.72 675.12 441.73 678.2C445.18 680.84 454.34 674.5 457.64 671.88C464.04 666.81 467.71 660.5 473.51 652.98C476.68 648.87 480.37 644.58 486.58 642.47C490.93 641 496.71 640.39 501.52 643.17C504.52 644.91 508.96 648.93 508.53 653.44C508.24 656.44 504.48 660.44 495.92 663.95C486.39 667.86 478.76 666.98 469.31 671.65C461.42 675.55 457.61 680.97 456.71 683.79C454.19 691.59 457.83 701.76 464.18 704.32C469.7 706.56 475.68 702.39 481.92 698.72C489.8 694.09 495.9 693.58 503.62 688.69C507.14 686.45 513.4 682.23 522.06 681.69C526.98 681.38 533.01 682.26 540.27 685.89C547.49 689.49 555.44 696.09 559.41 705.73C560.75 708.98 562.06 716.96 561.75 725.33C561.36 735.92 559.44 742.91 561.28 753.34C562.18 758.45 563.96 765.5 566.73 765.69C568.13 765.79 569.5 764.14 570.9 761.53Z" />
	<path id="Orange flower 1" class="shp8" d="M1487.6 490.71C1489.16 496.4 1490.92 501.97 1492.92 507.62C1495.42 514.68 1498.51 522.85 1500.61 527.4C1504.32 535.42 1509.04 544.14 1509.04 556.72C1509.04 569.35 1505.84 575.46 1501.34 577.97C1496.39 580.74 1490.71 579.07 1488.15 577.97C1483.78 576.09 1477.02 568.68 1473.86 554.15C1471.45 543.04 1471.96 532.91 1473.86 524.11C1474.65 520.47 1486.19 495.16 1481.56 489.66C1480.75 488.7 1479.93 488.31 1479.36 488.2C1474.17 487.17 1467.16 500.31 1462.87 509.82C1461.02 513.91 1456.06 531.27 1448.58 542.06C1441.5 552.27 1434.58 558.46 1428.79 557.09C1422.45 555.58 1419.57 545.56 1418.9 539.86C1418.16 533.7 1419.89 524.62 1426.96 513.48C1436.61 498.27 1448.82 488.32 1454.44 486C1456.5 485.15 1465.26 480.6 1471.3 476.47C1473.5 474.97 1476.34 472.81 1476.43 469.88C1476.61 463.78 1464.68 458.16 1455.91 455.59C1441.84 451.47 1433.71 455.59 1420.36 451.19C1408.71 447.35 1394.78 437.67 1394.71 426.27C1394.67 419.82 1398.83 414.82 1402.04 412.35C1415.58 401.96 1445.77 409.8 1457.74 427.74C1464 437.13 1463.27 448.32 1472.4 459.98C1476.15 464.79 1479.15 467.28 1481.19 466.58C1484.41 465.47 1484.34 456.72 1483.76 451.56C1482.86 443.59 1479.54 436.96 1477.53 432.87C1470.67 418.99 1469.89 407.62 1471.66 403.56C1474.81 396.33 1483.32 390.48 1488.52 392.56C1494.53 394.97 1494.88 407.48 1494.38 413.45C1494.06 417.36 1490.7 427.17 1492.55 428.47C1494.03 429.52 1497.72 427.26 1500.25 424.81C1504.29 420.88 1504.82 416.83 1506.84 412.35C1509.87 405.63 1516.66 397.29 1524.8 396.96C1528.77 396.8 1534.01 398.52 1535.79 402.46C1536.98 405.09 1536.64 408.8 1533.23 414.18C1525.94 425.67 1510.88 427.49 1502.08 435.07C1492.36 443.43 1485.54 456.37 1488.89 461.08C1491.01 464.08 1497.15 463.61 1500.98 462.55C1508.41 460.5 1512.79 453.53 1516.37 451.19C1528.63 443.19 1545.65 447.25 1555.21 452.29C1563.2 456.5 1576.84 467.02 1574.63 477.57C1573.53 482.85 1568.45 488.09 1562.17 489.66C1547.22 493.41 1532.22 472.32 1511.61 468.78C1501.68 467.07 1492.42 467.33 1489.25 472.44C1486.33 477.16 1488.75 485.71 1494.02 489.66C1500.93 494.86 1516.23 489.65 1522.6 490.03C1533.09 490.65 1548.11 495.34 1556.68 507.98C1563.61 518.22 1566.55 534.55 1559.61 540.23C1551.62 546.76 1534.06 536.41 1529.19 533.27C1518.18 526.14 1513.37 518.2 1506.11 509.08C1501.05 502.73 1495.44 496.76 1489.25 491.13" />
	<path id="orange flower1" class="shp8" d="M1593.94 390.71C1588.63 396.86 1573.53 395.06 1566.42 397.19C1561.77 398.59 1557.81 400.5 1554.38 402.88C1548.77 406.76 1538.98 415.43 1539.33 426.62C1539.49 431.66 1541.75 440.69 1549.03 443.33C1555.82 445.8 1562.98 440.93 1565.75 438.65C1571.34 434.08 1572.96 428.64 1576.12 421.27C1580.94 410.01 1586.14 403.85 1590.49 402.54C1595.6 401.01 1602.72 402.25 1605.54 406.56C1609.91 413.21 1600.02 427.2 1599.19 438.32C1598.64 445.71 1599.87 454.65 1604.87 464.73C1610.96 477.02 1616.55 482.07 1621.93 481.78C1629.31 481.39 1634.62 471.05 1636.3 463.73C1637.37 459.07 1636.95 449.58 1631.96 438.65C1627.96 429.91 1623.08 421.79 1619.59 417.92C1617.61 415.73 1613.78 411.78 1614.9 408.56C1615.93 405.64 1620.76 404.16 1624.6 404.55C1631.45 405.25 1639.18 414.36 1646.34 433.97C1653.69 454.15 1653.62 468.82 1663.05 472.76C1669.66 475.51 1678.86 472.31 1683.45 466.4C1685.21 464.14 1687.53 455.21 1685.12 443.67C1682.43 430.72 1676.49 420.68 1673.09 417.26C1662.5 406.6 1643.52 400.14 1634.63 397.19C1633.69 396.88 1631.6 396.17 1631.44 394.88C1631.15 392.61 1636.98 389.51 1642.32 388.5C1650.86 386.9 1658.11 390.63 1663.72 393.85C1674.36 399.96 1685.58 407.19 1688.8 410.9C1693.18 415.95 1695.34 420.2 1698.83 419.93C1704.86 419.46 1710.7 405.86 1708.53 394.19C1706.31 382.23 1696.56 375.48 1691.14 372.79C1685.49 369.97 1668.73 368.24 1648.34 375.8C1642.56 377.94 1627.49 386.04 1626.27 384.49C1625.09 382.97 1631.01 375.91 1637.31 370.11C1649.96 358.48 1662.95 351.34 1675.76 348.38C1683.38 346.62 1691.42 345.99 1696.49 339.35C1700.7 333.85 1702.08 325.25 1698.5 320.3C1692.07 311.4 1672.16 317.33 1664.73 320.3C1656.55 323.56 1641.19 331.86 1634.3 347.04C1633.72 348.31 1629.72 365.47 1621.93 374.46C1619.16 377.65 1617.26 378.93 1615.91 378.47C1612.26 377.24 1612.83 363.73 1615.57 352.73C1618.28 341.87 1623.96 330.76 1633.63 319.29C1640.86 310.72 1646.72 306.23 1645.33 301.24C1643.48 294.56 1630.21 292.66 1623.6 292.54C1616.88 292.42 1604.4 293.85 1596.51 302.91C1592.84 307.13 1588.1 320.3 1591.16 339.02C1592.16 345.1 1594.8 353.67 1597.85 362.09C1601.15 371.19 1603.73 376.54 1602.2 377.8C1599.28 380.21 1585.14 371.36 1576.78 357.74C1573.01 351.59 1571.52 345.52 1568.76 338.02C1563.9 324.81 1559.04 317.05 1554.05 315.28C1545.45 312.23 1534.11 317.45 1529.64 325.31C1522.41 337.99 1533.81 356.3 1544.01 365.43C1555.11 375.36 1569.85 379.02 1580.8 379.47C1587.02 379.73 1594.42 379.14 1596.18 382.82C1597.3 385.17 1595.79 388.57 1593.94 390.71Z" />
	<path id="orange flower 2" class="shp8" d="M1806.45 511.54C1794.47 521.84 1785.76 518.72 1773.45 528.59C1766.4 534.24 1763.25 539.55 1754.17 542.84C1745.53 545.97 1740.03 544.89 1737.4 542.84C1733.64 539.91 1732.38 534.5 1733.21 530.27C1734.35 524.41 1739.51 520.47 1745.78 517.28C1751.38 514.43 1775.68 502.93 1798.18 503.45C1800.43 503.5 1806.31 503.73 1809.07 500.1C1812.09 496.12 1810.76 488.29 1806.56 483.75C1800.79 477.52 1786.09 477.67 1762.55 481.24C1757.75 481.96 1746.43 483.75 1735.72 477.88C1731.1 475.35 1720.62 467.96 1721.89 459.03C1722.9 451.97 1731.35 447.58 1736.56 445.62C1745.93 442.09 1758.07 442.56 1773.45 450.23C1781.85 454.41 1788.71 460.09 1797.34 467.41C1805.83 474.61 1811.17 479.03 1813.69 477.47C1816.31 475.83 1814.86 468.29 1810.75 455.67C1807.6 446 1804.28 439.34 1802.79 429.27C1801.05 417.48 1802.95 409.93 1806.14 404.96C1809.87 399.17 1817.46 392.51 1823.33 394.49C1826.85 395.67 1829.92 400.95 1831.29 411.67C1832.9 424.27 1830.42 434.66 1827.52 443.52C1822.87 457.68 1817.88 466.97 1821.65 470.76C1823.54 472.66 1826.98 472.37 1828.77 472.02C1837.31 470.34 1842.17 457.29 1848.06 452.32C1857.54 444.31 1872.91 440.1 1879.49 446.03C1883.13 449.32 1884.5 456.08 1882.01 460.7C1878.44 467.32 1868.43 466.78 1853.92 469.92C1845.79 471.68 1830.41 475.69 1830.45 480.4C1830.48 483.34 1836.51 485.98 1841.35 487.1C1858.42 491.06 1871.42 475.55 1884.52 480.82C1888.31 482.34 1894.96 489.86 1899.19 503.03C1901.61 510.56 1905.36 525.49 1899.61 529.43C1891.27 535.16 1866.85 514.89 1862.31 510.99C1861.42 510.23 1857.5 507.32 1854.34 505.54C1847.47 501.68 1836.74 497.51 1833.8 500.93C1831.91 503.14 1833.84 507.72 1834.64 509.32C1838.76 517.47 1847.58 517.65 1857.7 523.98C1865.26 528.71 1873.57 536.7 1876.14 547.45C1878.37 556.76 1877.64 572.83 1866.5 578.46C1857.57 582.98 1844.45 579.53 1839.67 571.76C1833.71 562.05 1843.74 548.69 1840.51 534.04C1839.94 531.47 1836.83 525.16 1834.22 519.79C1829.77 510.63 1827.17 505.58 1825.84 505.96C1824.2 506.43 1825.3 514.38 1826.26 526.08C1827.35 539.37 1827.32 550.06 1824.58 557.09C1817.94 574.14 1799.83 587.44 1792.31 583.49C1786.56 580.47 1786.57 567.14 1789.79 557.51C1791.28 553.06 1795.57 546.82 1801.11 540.33C1805.77 534.86 1809.49 531.24 1812.01 525.66C1815.03 518.99 1814.39 514.19 1816.62 507.22C1818.16 502.4 1819.64 499.47 1818.95 499.04C1817.89 498.39 1811.94 506.82 1806.45 511.54Z" />
	<path id="Grey Stemset 1" class="shp9" d="M1550.1 840.69C1550.02 840.57 1569.76 829.74 1584.5 808.24C1593.77 794.72 1599.93 779.15 1601.64 763.52C1604.81 734.7 1593.26 712.06 1583.44 694.87C1565.95 664.26 1543.47 638.32 1527.84 604.02C1521.39 589.87 1514.24 566.91 1508.46 544.4C1502.75 522.13 1498.63 499.43 1500.1 499.04C1501.42 498.7 1508.36 521.99 1516.77 540.71C1523.17 554.97 1529.96 567.97 1536.79 578.68C1550.66 600.43 1569.82 618.09 1583.75 645.01C1587.29 651.85 1593.09 667.44 1597.92 680.04C1609.5 710.31 1615.68 729.87 1613.57 753.83C1611.68 775.25 1603.94 790.56 1604.27 790.69C1604.69 790.85 1617.49 768.63 1623.26 736.69C1630.69 695.54 1619.85 652.23 1600.1 590.7C1595.37 575.96 1591.14 560.49 1587.48 543.65C1580.31 510.69 1577.79 482.21 1583.01 451.23C1586.91 428.06 1594.02 409.86 1595.68 410.24C1597.89 410.74 1588.55 448.01 1591.77 490.71C1592.66 502.54 1596.82 522.91 1600.15 540.67C1604.26 562.55 1608.12 583.2 1614.32 596.57C1621.11 611.23 1633.39 625.15 1639.66 645.01C1642.76 654.83 1644.94 681.32 1641.9 707.62C1638.62 735.98 1629 762.55 1623.26 771.72C1611.59 790.35 1594.89 801.79 1595.94 803.19C1597.19 804.87 1620.25 793.49 1641.15 771.72C1660.97 751.08 1673.75 722.02 1676.93 713.58C1688.68 682.43 1703.61 663.4 1713.46 631.6C1717.31 619.19 1723.52 599.59 1736.57 581.66C1769.41 536.52 1823.49 520.97 1825.11 524.04C1825.99 525.71 1812.03 534.18 1789.5 550.36C1774.72 560.97 1764.05 568.8 1752.22 581.66C1736.92 598.3 1725.44 617.08 1714.95 642.03C1700.33 676.81 1690.88 710.42 1688.86 732.96C1688.23 740.05 1685.79 760.96 1674.7 778.43C1665.89 792.29 1649.94 808.57 1627.73 816.44C1607.63 823.56 1593.23 817.96 1571.82 827.62C1559.79 833.05 1550.16 840.78 1550.1 840.69Z" />
</svg>