<svg version="1.2" baseProfile="tiny-ps" xmlns="http://www.w3.org/2000/svg" viewBox="0 0 674 1839" width="674" height="1839">
	<title>Grey Stemset  2</title>
	<style>
		tspan { white-space:pre }
		.shp0 { fill: #367a91 } 
		.shp1 { fill: #67b8a7 } 
		.shp2 { fill: #c2ba3e } 
		.shp3 { fill: #f89462 } 
		.shp4 { fill: #b4b6b5 } 
	</style>
	<path id="dark blue leafset 6" class="shp0" d="M93.61 1583.72C96.37 1600.05 107.62 1616.05 110.35 1622.91C116.6 1638.57 117.06 1655.26 116.5 1664.05C115.87 1673.89 119.24 1680.2 120.18 1690.46C120.29 1691.68 120.61 1695.21 122.78 1696.21C129.45 1699.28 147.91 1675.49 147.78 1675.38C147.66 1675.28 128.15 1692.24 131.11 1708.71C133.02 1719.34 149.4 1727.29 155.81 1734.68C161.29 1741.01 163.51 1745.51 168.61 1746.21C183.42 1748.24 197.3 1716.31 201.26 1718.1C203.98 1719.33 203.74 1737.37 193.61 1750.38C191.49 1753.11 188.43 1756.31 189.45 1758.71C191.2 1762.85 205.56 1759.75 214.45 1762.88C228.88 1767.95 236.46 1782.74 243.64 1801.01C252.36 1823.18 255.28 1838.54 258.38 1838.47C265.28 1838.31 268.02 1784.48 265.13 1757.4C263.77 1744.65 258.06 1732.61 255.92 1724.24C255.38 1722.14 254.64 1719.1 251.95 1717.04C245.94 1712.45 234.16 1715.97 220.91 1718.1C219.45 1718.33 215.68 1718.88 214.45 1717.04C212.26 1713.78 220.82 1706.38 219.07 1699.06C218.13 1695.14 215.03 1692.89 213.54 1691.69C202.99 1683.26 194.71 1654.54 181.11 1654.55C172.52 1654.55 165.29 1665.79 163.79 1664.67C162.21 1663.49 171.4 1651.95 168.61 1642.05C166.55 1634.73 159.42 1631.11 147.78 1625.38C143.6 1623.32 129.04 1615.17 118.95 1605.71C112.1 1599.28 109.29 1594.75 110.28 1592.05C112.25 1586.63 126.66 1585.7 137.99 1589.13C154.98 1594.27 164.18 1609.01 167.48 1614.31C178.33 1631.8 195.63 1658.09 198.8 1664.05C208.97 1683.16 216.67 1696.2 226.95 1696.21C241.2 1696.23 252.68 1669.64 256.12 1671.21C259.16 1672.6 248.99 1693.53 256.12 1708.71C262.91 1723.18 280.39 1722.12 301.95 1733.71C320.18 1743.5 328.43 1753.93 339.45 1750.38C352.6 1746.13 357.78 1724.68 360.29 1725.38C363.16 1726.18 354 1753.46 364.45 1762.88C374.31 1771.75 407.54 1755.91 422.79 1754.54C441.06 1752.91 466.48 1762.74 472.79 1754.54C483.9 1740.11 455.61 1688.66 426.96 1687.88C410.08 1687.42 395.05 1705.95 393.62 1704.54C392.17 1703.11 410.14 1686.59 406.12 1675.38C402.3 1664.73 379.21 1666.28 364.45 1654.55C359.12 1650.31 353 1643.67 347.44 1637.03C343.24 1632.03 338.37 1625.74 331.12 1625.38C323.11 1624.99 318.23 1632.17 308.74 1639.49C297.67 1648.03 286.45 1651.96 285.28 1650.38C284.11 1648.79 292.06 1640.15 301.95 1625.38C304.58 1621.45 307.01 1617.44 306.12 1612.88C304.14 1602.77 277.16 1597.27 268.62 1592.05C256.88 1584.88 251.83 1577.9 243.62 1579.55C230.65 1582.16 223.71 1603.13 223.98 1603.26C224.26 1603.39 236.85 1584.26 231.12 1575.38C223 1562.82 182.72 1579.53 181.11 1575.38C179.83 1572.07 202.89 1554.32 226.95 1558.72C237.88 1560.72 244.72 1566.39 251.62 1571.94C265.74 1583.29 278.97 1592.52 292.77 1598.96C316.54 1610.04 331.07 1610.55 339.45 1604.55C352.25 1595.39 351.01 1571.16 351.95 1571.22C352.87 1571.27 349.07 1593.89 360.29 1604.55C370 1613.78 393.73 1606.91 406.12 1608.72C416.18 1610.18 423.22 1612.73 426.96 1608.72C434.19 1600.95 420.51 1576.63 422.79 1575.38C424.8 1574.29 433.88 1594.22 447.79 1596.22C462.07 1598.27 471.48 1581.06 493.63 1558.72C509.31 1542.9 520.94 1535.33 518.63 1529.55C515.03 1520.58 483.15 1532.86 456.76 1521.58C445.82 1516.89 438.07 1510.51 426.96 1512.89C421.97 1513.95 410.48 1521.8 400.26 1535.09C397.78 1538.31 394.67 1542.58 393.62 1542.05C390.98 1540.72 406.06 1511.53 397.79 1504.55C391.91 1499.6 378.78 1511.07 364.45 1508.72C361.64 1508.26 359.14 1507.51 356.12 1508.72C343.8 1513.66 343.62 1543.06 343.75 1543.07C343.85 1543.08 346.18 1527.68 339.45 1517.05C338.06 1514.85 336.79 1513.65 335.29 1512.89C327.31 1508.82 315.61 1518.34 304.44 1525.88C280.26 1542.2 264.76 1547.15 256.12 1542.05C249.88 1538.37 249.73 1530.26 246.09 1517.89C242.47 1505.56 233.68 1488.77 235.28 1487.89C237.55 1486.64 249.87 1512.27 272.78 1517.05C278.31 1518.21 283.55 1518.07 289.45 1517.05C313.98 1512.83 339.67 1495.75 350.51 1489.03C369.52 1477.23 387.55 1467.75 403.33 1462.01C414.96 1457.77 430.72 1452.9 432.2 1442.97C434.48 1427.62 399.29 1410.44 401.96 1404.56C404.22 1399.55 431.72 1410.59 451.96 1400.39C461.37 1395.65 467.27 1388.22 472.73 1379.1C488.09 1353.47 494.76 1322.84 502.83 1305.41C513.5 1282.35 540.37 1257.93 535.29 1250.4C528.76 1240.71 482.45 1261.47 468.62 1262.9C466.76 1263.09 460.9 1263.86 456.12 1267.07C449.59 1271.45 446.53 1278.32 443.25 1288.21C440.05 1297.84 438.65 1303.91 435.29 1304.56C430.9 1305.42 425.39 1297.9 422.37 1291.89C415.7 1278.66 420.62 1263.08 414.46 1258.73C406.33 1253 386.78 1269.26 370.16 1280.84C340.26 1301.68 310.4 1317.06 292.77 1320.76C287.3 1321.91 275.07 1324.01 268.62 1333.73C261.03 1345.16 266.82 1359.07 269.43 1378.49C272.44 1400.88 271.97 1417.62 264.45 1421.23C255.41 1425.55 236.43 1410.8 228.9 1393.23C225.55 1385.42 224.76 1377.68 225.21 1374.8C227.58 1359.48 248.76 1345.11 256.53 1333.04C259.17 1328.94 260.88 1325.34 260.28 1321.23C257.97 1305.32 222.54 1297.05 222.78 1296.23C223.03 1295.41 257.69 1310.11 276.95 1296.23C289.1 1287.48 286.93 1271.01 293.39 1247.06C294.79 1241.86 297.22 1233.69 293.62 1225.4C290.26 1217.67 280.04 1212.25 281.12 1208.74C282.56 1204.02 300.54 1208.21 306.12 1200.4C311.06 1193.48 304.67 1181.46 301.95 1175.4C282.98 1133.11 314.58 1074.74 306.12 1071.24C301.57 1069.36 290.34 1087.91 268.62 1117.07C253.89 1136.86 239 1155.68 231.35 1159.24C229.13 1160.28 223.41 1162.71 222.78 1167.07C221.34 1177.13 248.9 1185.07 247.78 1196.24C247.37 1200.35 243.17 1204.18 234.42 1207.76C226.51 1211 217.77 1210.81 210.28 1208.74C206.12 1207.59 202.03 1204.2 197.78 1204.57C187.17 1205.49 183.5 1222.64 170.55 1246.45C165.7 1255.36 160.83 1267.06 158.26 1270.4C157.61 1271.25 156.25 1272.95 156.11 1275.4C155.44 1287.4 186.38 1296.57 185.28 1300.4C184.56 1302.89 170.67 1301.86 160.28 1300.4C152.73 1299.33 148.2 1298.22 143.61 1300.4C131.76 1306.03 133.67 1328.52 125.71 1341.64C119.58 1351.74 112.97 1355.83 114.45 1362.9C115.92 1369.96 125.33 1373.36 135.54 1382.17C141.22 1387.07 144.34 1391.01 143.61 1392.06C141.84 1394.62 118.29 1377.88 108.51 1385.86C108.11 1386.18 107.7 1386.59 107.28 1387.08C104.85 1389.95 96.06 1406.47 98.07 1427C100.48 1451.66 110.83 1482.56 113.43 1495.17C114.89 1502.27 115.41 1507.14 114.45 1512.89C111.52 1530.28 98.17 1534.99 93.77 1552.28C92.68 1556.58 92.15 1564.89 92.54 1573.16C92.72 1576.93 93.07 1580.53 93.61 1583.72Z" />
	<path id="dark blue leafset 5" class="shp0" d="M93.61 1046.24C103.8 1056.19 150.75 1087.68 215.95 1083.59C254.04 1081.19 294.39 1065.11 304.87 1060.08C382.63 1022.76 429.57 1002.97 426.96 987.91C425.1 977.24 394.91 970.48 343.71 961.97C292.29 953.43 253.67 949.42 253.77 945.62C253.84 942.77 275.81 938.83 276.95 942.08C280.12 951.11 126.71 1027.29 103.52 997.74C96.17 988.38 102.65 969.34 110.28 958.75C114.2 953.31 123.4 942.98 135.28 942.08C141.81 941.59 145.69 945.23 151.56 943.58C166.64 939.32 168.25 907.72 174.04 907.81C177.23 907.85 179.36 917.42 182.22 928.25C184.67 937.51 187.53 947.75 189.45 950.42C208.79 977.26 287.43 971.97 314.45 933.75C323.61 920.79 325.72 905.77 335.29 904.59C341.52 903.81 348.12 911.28 351.95 912.92C370.28 920.73 386.66 899.62 420.37 884.3C440.75 875.05 454.82 873.51 458.19 861.82C462.86 845.6 440.15 825.08 443.62 821.26C446.32 818.29 465.77 829.25 480.67 831.16C484.06 831.6 488.18 831.83 492.94 830.14C506.2 825.43 511.52 809.65 513.38 804.59C524.89 773.27 591.93 711.56 575.73 685.02C565.51 668.27 511.63 676.22 492.94 672.76C487.02 671.66 476.19 669.38 468.62 675.43C452.84 688.05 469.29 724.84 454.1 735.1C450.17 737.75 433.67 736.07 432.63 736.12C430.36 736.23 426.13 736.47 422.79 733.76C418.39 730.19 417.9 723.1 418.62 717.09C419.71 708.08 424.96 699.17 434.68 691.15C440.66 686.22 455.73 680.86 456.12 675.43C456.78 666.41 430.24 657.48 431.12 654.6C432.26 650.89 475.93 666.43 489.46 650.43C495.75 642.99 495.98 628.69 489.46 621.27C481.68 612.41 465.72 617.76 460.29 608.77C458.08 605.11 457.96 599.69 460.29 596.27C466.23 587.54 486.48 596.81 499.07 591C535.72 574.08 532.06 468.61 510.29 462.94C503.79 461.25 493.35 476.18 481.12 483.77C470.88 490.13 459.31 495.59 460.29 500.44C461.18 504.82 472.74 505.26 479.65 512.31C483.13 515.86 487.1 521.84 485.29 525.44C483.26 529.47 475.07 528.31 468.41 528.66C443.56 529.98 417.06 571.03 406.12 579.6C399.44 584.83 388.26 592.93 389.71 601.22C390.85 607.76 402.1 612.72 407.08 618.59C409.91 621.93 417.67 632.06 414.46 637.93C411.45 643.42 399.67 643.79 390.73 641.08C378.38 637.33 370.5 623.69 364.45 625.43C359.13 626.96 360.25 637.74 357 653.34C355.86 658.79 342.29 686.71 346.78 700.35C347.35 702.09 348.53 705.08 347.79 708.76C346.03 717.45 335.2 722.24 322.25 726.92C309.76 731.43 299 734.48 290.56 740.21C284.66 744.22 275.84 754.31 268.08 766.78C263.01 774.92 257.83 788.16 249.68 797.44C236.41 812.54 221.34 817.09 206.75 822.99C187.37 830.82 171.49 839.52 159.73 848.53C141.69 862.37 125.55 883.78 114.76 894.52C105.21 904.03 94.96 914.06 93.61 912.92C90.89 910.62 126.12 864.1 152.58 832.18C169.14 812.21 186.22 793.16 201.64 778.02C215.25 764.65 232.18 748.49 240.48 742.25C245.26 738.66 255.44 730.51 262.97 721.81C272.26 711.06 276.87 701.88 283.41 690.13C289.24 679.65 295.99 668.59 300.78 662.54C310.01 650.88 319.86 635.57 325.31 629.83C327.03 628.03 332.63 622.25 331.12 617.1C328.08 606.74 297.73 606.59 297.78 604.6C297.84 602.7 332.61 610.47 339.45 592.1C342.94 582.73 341.05 555.49 339.45 517.1C325.91 529.57 313.3 537.08 301.95 537.94C298.8 538.17 291.79 540.24 285.4 542.85C284.23 543.33 282.24 544.21 281.12 546.27C279.64 548.96 281.07 554.56 285.4 562.72C286.22 564.25 288.14 569.63 289.38 573.97C290.1 576.51 290.49 578.49 289.45 579.6C286.92 582.29 277.54 578.06 271.16 573.64C266.3 570.27 262.6 566.59 260.57 563.71C258.8 561.2 258.11 559.51 256.12 558.77C250.35 556.63 244.81 566.34 231.76 576.62C223.78 582.9 217.9 585.75 211.89 594.5C207.8 600.46 206.03 606.63 206.11 608.77C206.55 619.23 217.77 625.55 220.5 637.54C221.33 641.21 221.15 643.56 219.84 644.83C217.18 647.4 210.13 645.33 205.27 641.85C202.11 639.59 199.03 636.04 195.67 631.58C194.85 630.51 194.33 629.79 193.61 629.6C188.39 628.19 178.56 645.47 172.82 660.72C169.64 669.16 167.32 679.98 166.53 684.23C162.98 703.22 154.37 716.31 146.33 735.55C142.09 745.7 133.66 771.92 127.22 791.66C120.79 811.37 115.71 829.99 108.13 842.75C99.99 856.47 91.91 865.82 87.2 882.76C83.15 897.32 83.53 909.19 84.74 924C86.16 941.43 88.19 966.27 89.44 971.25C91.55 979.64 95.08 990.42 90.9 1002.78C89.42 1007.13 81.99 1016.6 82.28 1025.55C82.43 1030.44 85.24 1038.08 93.61 1046.24Z" />
	<path id="Green Leafset 3" class="shp1" d="M85.28 1237.9C84.65 1233.49 83.29 1229.28 81.11 1225.4C77.44 1218.88 71.04 1214.07 69.18 1212.8C59.09 1205.96 48.1 1196.12 43.24 1191.31C38.16 1186.28 29.19 1172.98 22.08 1159.57C13.83 1144.01 6.41 1119.13 4.34 1113.85C3.23 1111.04 1.34 1099.51 0.58 1089.96C0.4 1087.71 0.3 1084.82 1.94 1083.74C6.33 1080.86 20.14 1093.05 29.59 1104.64C36.96 1113.68 42.61 1124.9 45.29 1130.57C53.85 1148.73 64.27 1156.9 71.57 1175.61C74.4 1182.88 80.74 1211.53 84.88 1211.44C87.23 1211.39 89.22 1206.21 91.36 1197.11C93.38 1188.52 93.38 1181.35 92.38 1175.27C91.42 1169.39 87.88 1159.73 81.12 1150.02C77.7 1145.1 73.6 1140.66 70.54 1137.39C63.36 1129.72 56.29 1118.73 49.72 1104.64C40.86 1085.59 41.52 1068.24 37.1 1045.27C34.49 1031.7 32.21 1022.84 35.28 1021.25C40.41 1018.58 55.77 1038.67 60.3 1044.92C70.51 1058.98 75.32 1070.9 82.83 1087.23C88.97 1100.59 95.66 1111.98 96.82 1121.36C98.04 1131.17 99.03 1151.27 99.89 1164.69C100 1166.43 100.27 1169.44 101.6 1169.81C104.12 1170.5 107.45 1160.67 115.93 1145.58C120.23 1137.92 123.48 1132.87 123.44 1125.11C123.38 1114.09 116.73 1106.65 111.15 1098.84C106.41 1092.19 102.15 1084.42 98.53 1076.32C92.21 1062.18 88.72 1046.31 88.63 1030.93C88.51 1010.04 96.13 994.42 106.38 969.86C114.65 950.02 118.59 937.6 122.78 937.92C128.82 938.37 131.82 961.25 137.77 1000.91C140.12 1016.52 141.73 1030.28 141.87 1046.97C142.06 1069.33 140.21 1092.81 137.09 1101.22C135.51 1105.47 132.56 1112.64 134.36 1113.85C136.16 1115.06 141.74 1109.71 149.38 1101.91C164.01 1086.94 172.92 1075.26 173.95 1065.4C175.1 1054.3 170.42 1047.26 165.76 1035.37C162.38 1026.76 159.78 1016.54 157.91 1004.66C156.23 994 156.47 973.35 158.25 953.82C159.24 942.97 162.85 923.98 167.8 906.73C171.21 894.89 173.96 888.18 176.95 887.92C185.39 887.19 191.33 932.71 205.69 960.3C211.83 972.12 220.61 986.09 217.29 1002.95C216.14 1008.8 210.89 1020.86 210.12 1032.3C209.71 1038.42 209.88 1041.8 211.15 1042.19C214.19 1043.14 223.58 1027.02 227.53 1008.76C229.74 998.49 229.5 987.3 229.23 981.8C228.56 967.96 229.21 952.42 231.96 938.46C238.37 905.95 256.66 876.69 264.39 878.75C267.54 879.59 268.87 890.39 269.5 908.78C270.3 931.92 268.11 955.48 265.07 967.47C259.52 989.31 248.3 1006.61 250.05 1007.73C252.29 1009.16 271.26 989.82 280.42 961.67C283.58 951.97 284.94 942.13 285.54 935.39C286.93 920.02 288.07 902.82 290.32 893.08C296.81 865.01 310.58 854.96 325.47 830.3C326.41 828.75 328.42 825.41 331.12 825.42C338.64 825.44 344.35 851.53 346.97 866.47C351.93 894.72 349.49 919.52 345.61 926.52C342.53 932.07 323.99 947.98 325.13 960.98C325.49 965.11 326.68 967.54 328.54 968.49C334.18 971.37 342.66 958.11 361.31 942.9C366.64 938.55 374.78 932.35 377 921.74C378.97 912.37 375.24 904.31 373.93 901.27C370.92 894.26 368.43 875.76 367.79 857.6C367.1 837.81 372.39 824.81 373.59 805.05C374.17 795.6 374.22 788.62 376.95 787.92C381.01 786.89 386.8 801.8 399.53 825.86C402.69 831.83 410.73 848.92 415.23 863.4C419.76 877.98 420.95 888.77 417.62 899.57C415.55 906.24 410.08 913.99 411.13 914.92C412.62 916.23 425.65 901.3 438.43 892.06C450.32 883.47 460.73 878.42 465.74 865.44C469.31 856.17 468.41 847.73 467.1 840.54C463.33 819.87 454.97 807.04 451.06 787.31C449.5 779.42 449.09 763.69 450.04 748.75C451 733.62 452.8 725.27 456.18 724.52C460.33 723.6 465.81 734.35 475.97 752.16C486.51 770.62 493.04 781.7 492.7 796.52C492.49 805.28 486.63 820.55 489.97 822.79C493.06 824.87 501.75 818.97 507.71 811.53C519.95 796.28 518.4 776.89 518.29 767.17C518.09 748.57 535.84 717.24 547.98 682.89C550.2 676.63 566.39 640.04 585.86 615.67C597.53 601.08 605.38 594.35 610.3 596.27C619.19 599.73 616.14 630.54 611.12 652.18C605.02 678.48 588.86 706.56 584.84 712.58C577.93 722.93 561.34 752.4 548.67 773.32C536.3 793.72 525.54 811.5 527.85 813.24C529.53 814.51 537.78 806.99 543.89 799.93C556.2 785.69 562.59 766.14 568.12 757.28C573.21 749.12 588.09 734.01 608.39 722.47C624.71 713.2 637.14 713.07 653.78 704.39C664.5 698.79 670.56 694.22 672.8 696.26C677.65 700.69 657.6 729.99 651.96 737.93C639.75 755.12 616.52 778.3 612.82 782.53C600.26 796.88 593.08 806.14 578.36 814.26C561.14 823.76 544.1 827.79 536.38 827.57C532.99 827.47 528.17 827.05 522.79 829.59C509.86 835.69 507.46 856.61 498.84 867.83C495.21 872.55 492.26 875.23 493.04 876.36C494.61 878.64 508.89 871.11 527.51 861.69C539.61 855.56 552.36 849.3 563.34 844.29C577.31 837.92 591.9 832.14 601.96 829.59C631.04 822.22 665.95 820.92 668.63 829.59C670.25 834.84 658.32 844 635.35 857.94C616.33 869.47 598.16 877.71 578.36 884.89C543.38 897.59 513.05 901.97 504.64 898.2C498.31 895.36 489.85 889.73 481.09 892.74C474.71 894.94 468.15 905.08 466.76 906.39C460.52 912.27 451.47 915.22 451.96 917.08C452.76 920.16 472.19 918.02 486.55 915.6C504.05 912.66 520.84 908.43 537.4 905.37C543.91 904.16 552.7 903.03 562.32 903.66C576.36 904.58 584.91 909.49 598.49 913.21C612.72 917.12 621.94 917.77 622.72 922.09C623.61 927 614.36 933.23 598.49 940.85C579.19 950.12 556.24 957 546.28 958.94C515.04 965.02 482.55 966.34 470.85 963.71C461.5 961.61 436.09 955.9 431.95 953.82C429.91 952.79 423.62 949.46 416.59 951.09C409.27 952.79 406.57 958.62 400.55 964.06C389.46 974.07 374.38 974.07 374.62 975.66C375.02 978.33 414.54 974.67 422.05 973.95C432.24 972.98 441.96 971.97 451.06 971.9C471.27 971.75 497.38 977.36 506.69 978.39C526.47 980.56 538.66 979.94 539.46 983.75C540.79 990.04 514.56 1001.44 494.4 1007.39C478.3 1012.15 462.97 1014.38 448.33 1014.56C421.95 1014.88 398.98 1010.08 393.04 1005.68C387.91 1001.88 377.97 992.88 364.72 992.04C363.14 991.93 361.68 991.95 360.29 992.08C354.87 992.59 344.64 996.75 335.29 1008.75C331.92 1013.06 330.48 1016 331.12 1017.08C333.02 1020.3 357.89 1012.87 362.67 1012.17C381.33 1009.43 396.52 1011.88 404.99 1015.24C410.64 1017.48 415.83 1021.25 422.05 1025.13C434.8 1033.1 448.63 1040.57 455.84 1042.54C463.38 1044.59 468.59 1044.89 468.62 1046.24C468.69 1048.79 450.44 1050.35 424.1 1054.14C394.21 1058.43 376.45 1061.74 353.8 1054.48C341.63 1050.58 330.23 1045.56 321.04 1039.12C315.76 1035.43 308.79 1029.81 298.17 1028.89C282.39 1027.51 265.99 1037.26 266.77 1042.88C267.18 1045.81 275.44 1048.28 289.98 1050.72C303.29 1052.96 314.63 1052.98 327.86 1055.16C344.39 1057.89 353.83 1064.49 370.18 1068.13C372.63 1068.67 376.84 1069.61 376.95 1071.24C377.2 1074.77 358.26 1078.89 344.93 1081.43C328.58 1084.55 312.29 1085.83 294.08 1087.23C275.25 1088.68 259.4 1090.56 250.05 1086.89C245.06 1084.94 225.53 1068.82 210.46 1070.52C207.94 1070.8 205.29 1071.48 202.61 1072.56C193.33 1076.32 188.54 1083.39 185.55 1087.58C177.69 1098.58 170.84 1104.2 172.24 1106.34C174.38 1109.63 187.24 1103.1 206.03 1098.5C216.83 1095.85 230.38 1094.24 245.27 1093.72C263.26 1093.09 280.06 1095.01 300.9 1098.84C333.85 1104.88 352.04 1108.61 351.95 1112.91C351.84 1118.46 323.12 1122.37 291.35 1125.79C266.9 1128.43 238.21 1131.38 226.16 1130.23C221.51 1129.78 171.94 1130.99 161.32 1131.25C158.95 1131.31 150.73 1131.79 143.92 1136.71C135.51 1142.78 131.48 1153.23 133.34 1154.8C135.35 1156.49 146.19 1144.9 158.59 1139.44C176.66 1131.48 191.86 1133.63 208.07 1134.66C232.58 1136.23 252.46 1133.39 277.01 1133.98C297.94 1134.49 309.88 1134.99 310.29 1137.91C310.91 1142.44 267.92 1152.1 240.5 1163.67C229.72 1168.21 221.55 1172.28 210.28 1175.4C187.62 1181.69 147.52 1189.8 128.22 1177.66C126.9 1176.83 122.28 1173.77 118.61 1175.4C113.37 1177.74 115.07 1189.9 111.15 1197.45C110.45 1198.79 109.87 1199.73 110.28 1200.4C112.26 1203.62 149.21 1186.45 153.81 1184.82C209.87 1165.01 243.46 1182.52 303.29 1181.07C307.86 1180.96 317.81 1180.71 318.62 1183.74C320.03 1188.99 292.89 1200.5 285.2 1203.59C265.21 1211.62 248.68 1215.05 225.82 1218.94C204.54 1222.57 183.43 1225.91 170.54 1224.75C151.16 1222.99 131.18 1220.25 122.42 1216.21C121.22 1215.66 114.96 1212.81 108.42 1214.51C103.43 1215.81 97.84 1219.73 97.84 1224.06C97.85 1225.74 98.71 1227.82 101.6 1230.2C114.36 1240.75 146.56 1233.55 173.61 1232.59C199.68 1231.67 224.16 1236.5 234.01 1240.78C245.97 1245.98 262.96 1261.5 284.18 1265.35C286.63 1265.8 289.39 1266.2 289.45 1267.07C289.65 1270.07 257.59 1277.26 222.41 1275.25C209.81 1274.52 194.97 1272.05 179.07 1268.08C155.22 1262.13 131.4 1254.15 124.46 1248.63C119.8 1244.93 105.33 1238.67 97.5 1235.66C94.65 1234.57 91 1233.6 87.95 1235.32C86.85 1235.94 85.97 1236.83 85.28 1237.9" />
	<path id="Green Leafset 4" class="shp1" d="M83.29 871.93C71.53 870.85 65.46 834.05 62.79 809.71C58.03 766.36 62.96 732.09 70.84 705.78C80.8 672.56 102.68 622.8 118.61 625.43C125.88 626.63 132.03 644.5 137.46 676.5C141.61 700.95 142.55 726.56 140.38 735.79C136.96 750.42 122.91 779.87 119.89 808.25C119.2 814.7 119.24 818.87 121.35 819.96C129.57 824.2 165.59 780.19 192.36 732.13C214.81 691.83 225.02 659.51 261.9 632.58C271.8 625.35 296.68 613.87 321.19 605.5C351.15 595.27 372.27 598.21 402.45 588.67C408.98 586.6 417.86 583.63 422.79 587.93C433.46 597.25 418.15 634.21 401.71 658.93C384.03 685.55 360.03 705.96 333.64 718.95C297.4 736.79 265.86 736.96 226.76 756.28C215.74 761.73 203.79 768.36 204.8 771.65C206.82 778.2 261.41 775.43 302.89 762.87C306.12 761.89 335.64 756.39 359.99 760.67C372.15 762.81 378.26 765.54 379.02 769.46C380.49 776.98 362.08 787.33 330.71 800.93C275.05 825.07 219.84 836.5 198.95 833.87C194.79 833.35 177.66 831.95 165.27 832.4C143.5 833.21 127.35 838.04 117.69 844.12C110.59 848.58 102.93 855.25 96.46 861.68C90.32 867.79 87.06 872.28 83.29 871.93Z" />
	<path id="Yellow Leafset 4" class="shp2" d="M76.94 658.76C77.63 653.85 74.8 652.68 75.07 647.81C75.3 643.49 78.32 640.97 77.62 636.5C77.09 633.12 74.96 630.9 73.24 629.21C70.53 626.55 67.38 623.8 64.86 621.56C62.49 619.45 57.76 612.14 54.65 603.69C52.43 597.68 49.94 583.38 51.73 567.97C52.67 559.91 54.31 555.18 56.11 554.6C61.28 552.95 71.92 565.14 76.53 578.9C79.94 589.1 79.31 599.64 80.9 612.08C81.97 620.46 83.12 625.03 85.28 625.43C87.81 625.9 91.54 619.58 96.94 607.7C98.13 605.11 99.7 601.05 99.86 596.04C99.97 592.6 99.42 588.91 98.04 585.1C94.47 575.27 86.87 569.91 80.17 564.32C67.32 553.62 60.35 543.73 59.03 533.33C58.53 529.43 58.69 526.24 60.28 525.44C63.58 523.75 71.69 533.13 74.7 536.98C83.44 548.16 88.86 572.9 100.59 577.08C103.33 578.06 105.24 577.98 106.42 577.08C109.42 574.8 107.71 567.34 105.7 562.5C102.4 554.58 96.99 550.86 92.57 546.46C89.7 543.6 84.34 534.07 79.81 525.31C76.5 518.92 70.84 501.08 68.14 484.12C67.86 482.37 67.6 480.22 68.61 479.61C71.5 477.84 83.19 489.75 91.11 503.08C95.2 509.95 97.84 516.53 100.23 524.22C102.89 532.79 106.89 558.55 110.28 558.77C112.76 558.93 116.17 552.14 116.27 545.36C116.32 541.75 113.47 532.98 107.15 524.22C106.54 523.36 103.3 518.09 102.05 513.28C101.39 510.75 100.28 505.49 101.94 504.61C104.12 503.45 109.89 510.37 111.89 512.92C117.63 520.21 120.63 527.66 121.37 531.88C122.26 536.89 120.61 545.2 122.78 546.27C125.35 547.54 132.18 542.23 133.77 535.52C135.76 527.13 128.84 519.55 122.47 511.1C117.69 504.76 113.26 497.63 110.43 492.5C100.56 474.54 100.76 448.81 103.87 411.94C104.6 403.29 105.8 392.21 110.43 391.16C113.78 390.4 118.98 396.33 126.11 408.29C131.47 417.28 135.34 426.67 136.69 432.35C139.49 444.18 138.14 453.04 136.69 466.98C135.68 476.62 135.49 491.44 136.32 505.63C137.13 519.44 138.65 527.39 142.88 528.59C147.71 529.97 155.49 522.38 157.83 514.01C160.04 506.14 156.91 499.49 154.55 493.23C152.36 487.42 150.49 480.11 149.08 472.82C145.87 456.17 146.52 435.14 151.95 433.78C157.79 432.31 172.24 452.92 173.51 475.37C173.87 481.61 171.59 492.85 173.51 493.6C175.99 494.56 184.7 484.88 185.91 473.18C187.66 456.24 172.41 446.87 160.75 425.06C155.68 415.56 150.88 401.39 148.72 383.86C145.58 358.37 149.56 330.38 156.11 329.61C160.24 329.13 164.34 345.32 175.34 369.65C179.79 379.51 184.85 390.8 186.27 406.1C187.36 417.78 187.2 429.52 185.91 435.63C184.77 441.01 182.45 449.15 186.64 453.5C190.18 457.17 196.85 456.24 199.4 455.68C209.82 453.42 217.61 442.66 218.72 432.35C219.78 422.58 214.73 414.93 211.8 410.48C204.52 399.45 196.83 387.37 192.11 377.67C186.79 366.74 184.03 356.97 182.99 348.87C181.59 337.93 183.52 327.24 185.54 313.5C187.1 303.01 187.61 296.59 189.45 296.28C193.78 295.57 200.5 326.08 211.07 346.32C217.98 359.55 223.67 366.56 224.19 378.76C224.4 383.56 219.13 402.31 224.92 413.76C227.15 418.16 229.66 420.01 231.48 420.32C236.94 421.25 242.23 411.46 252.63 396.26C253.45 395.06 262.58 381.08 263.21 367.82C263.35 364.84 262.9 362.7 262.11 361.26C258.3 354.27 246.07 355.55 239.45 350.45C231.83 344.57 230.8 335 229.3 325.54C226.68 309.09 221.88 296.8 219.45 280.33C216.79 262.27 215.83 251.66 218.62 250.45C224.06 248.09 238.16 267.94 245.7 280.69C250 287.96 253.99 296.32 257.74 305.85C261.89 316.44 265.62 328.21 266.12 333.56C266.23 334.75 264.81 355.79 268.31 357.25C271.06 358.4 275.72 353.78 278.15 350.33C282.61 344.02 283.59 335.88 282.17 328.82C279.55 315.85 269.64 311.45 265.03 298.56C263.37 293.93 263.33 290.21 262.11 285.43C260.64 279.62 259.31 276.13 260.28 275.45C262.77 273.73 277.03 283.84 283.26 299.29C285.95 305.96 286.1 322.83 291.65 324.81C293.8 325.58 295.94 324.56 296.75 324.08C303.27 320.23 302.71 304.88 297.48 293.82C293.12 284.6 286.5 280.41 281.07 275.96C274.8 270.81 262.57 254.58 254.09 235.12C250.8 227.57 244.56 211.66 248.62 208.88C251.28 207.05 257.37 213.24 268.68 219.81C275.09 223.54 280.54 225.03 285.28 229.62C293.99 238.03 296.03 248.32 301.49 263.56C304.93 273.16 307.56 278.52 309.88 278.51C313.03 278.49 315.65 268.61 320.08 251.53C321.4 246.49 323.62 237.59 318.99 230.75C315.34 225.36 309.62 224.59 302.95 221.64C299.37 220.06 292.16 214.7 285.81 209.24C266.89 192.95 249.97 166.35 256.12 158.79C260.73 153.12 278.73 157.69 290.55 167.32C299.23 174.39 302.8 182.62 305.87 189.55C312.93 205.5 317.46 215.02 320.08 214.71C324.18 214.22 327.23 198.72 324.1 185.18C322.51 178.33 319.46 172.21 315.35 167.32C310.51 161.56 303.08 157.37 301.13 156.38C294.32 152.94 282.03 142.57 271.23 129.77C259.58 115.97 247.74 96.37 251.95 92.13C255.19 88.85 267.24 95.44 281.12 104.63C301.03 117.79 311.91 133.28 313.52 140.34C314.23 143.44 316.81 154.96 317.17 158.2C317.32 159.61 317.68 162.85 318.62 162.96C319.68 163.07 321.01 159.13 322.27 154.56C326.25 140.19 324.96 128.83 322.79 125.46C319.72 120.69 315.48 119.19 310.61 116.64C305.87 114.17 299.36 109.31 293.1 103.52C286.15 97.08 278.65 87.42 271.96 74.35C264.08 58.98 255.87 36.41 260.28 33.8C262.31 32.59 267.54 37.89 276.79 46.04C288.27 56.13 297.43 63.43 303.27 73.43C312.09 88.49 313.12 104.77 314.45 104.63C315.86 104.48 318.46 87.59 313.32 67.95C310.72 58.01 307.56 51.86 307.61 41.24C307.65 33.53 309.37 24.59 314.46 14.77C319.55 4.95 323.9 0.22 326.95 0.46C332.88 0.94 337.08 14.16 340.94 36.91C343.68 53.02 342.93 68.27 340.94 74.57C338.33 82.83 332.99 91.61 329.53 99.45C327.68 103.62 326.18 107.46 325.19 112.69C322.18 128.62 326.4 145.87 331.12 146.29C333.01 146.46 335.64 142.73 338.89 135.51C343.21 125.93 346.33 112.23 346.65 109.95C348.28 98.37 350.99 86.01 353.27 80.73C355.3 76.03 363.64 63.18 376.33 53.8C379.71 51.29 382.48 49.79 385.29 50.46C393.5 52.41 396.5 71.64 395.5 85.52C394.78 95.59 391.66 105.62 385.23 116.8C372.89 138.27 356.76 151.9 349.16 155.14C343.03 157.76 334.55 160.06 329.76 168.15C326 174.49 324.74 183.95 328.84 187.1C330.81 188.61 333.71 188.38 335.92 187.78C344.77 185.39 346.92 174.85 353.95 164.27C357.62 158.75 367.39 149.14 380.44 141.68C386.34 138.3 407.8 126.94 414.46 133.79C417.84 137.28 416.66 144.78 412.62 154.46C407.17 167.53 398 175.85 389.11 182.08C378.75 189.35 366.2 196.1 353.95 201.25C349.72 203.03 341.38 206.45 335.23 214.72C329.8 222.03 328.67 229.52 327.24 240.97C326.02 250.84 325.22 256.61 327.02 257.4C329.38 258.44 334.34 252.39 342.08 241.65C353.23 226.21 359.64 215.12 372.22 207.41C375.83 205.2 385.3 201.8 393.9 199.2C409.9 194.36 420.02 193.15 422.67 196.23C426.13 200.24 423.73 208.73 418.1 219.28C408.71 236.9 393.73 249.21 377.7 256.72C362.14 264 343.51 269.66 328.84 273.84C326.08 274.62 316.92 277.23 311.04 285.48C305.32 293.5 304.09 304.85 307.38 306.7C310.73 308.59 318.08 298.74 332.72 287.76C342.37 280.53 352.76 274.87 358.98 272.69C370.37 268.71 379.32 269.4 392.08 268.13C407.29 266.61 416.65 263.74 418.62 267.12C421.52 272.06 410.49 284.14 395.27 298.03C378.96 312.93 361.16 323.43 354.64 324.51C342.22 326.57 324.09 319.28 309.21 327.25C306.48 328.71 300.4 334.46 295.28 340.71C290.68 346.34 288.22 351.55 283.87 357.38C279.46 363.29 276.34 366.38 276.95 367.11C278.02 368.39 295.57 356.47 304.19 351.9C313.35 347.03 322.71 342.96 329.53 340.94C341.36 337.44 350.26 337.06 363.09 336.15C382.97 334.74 395.01 332.74 397.1 337.06C399.2 341.4 393.27 349.19 381.12 360.34C368.91 371.56 354.58 380.35 335.01 387.96C317.09 394.93 300.43 396.86 295.51 395.27C286.61 392.38 281.16 386.37 272.78 387.94C266.35 389.16 262.32 393.97 259.67 397.32C247.6 412.58 241.4 421.55 243.46 424.03C246.16 427.26 257.71 419.91 277.71 413.3C288.16 409.84 298.89 407.24 310.12 405.54C318.44 404.28 339.58 403.08 359.89 408.73C373.68 412.57 380.55 417.12 381.12 421.28C381.87 426.78 374.53 433.39 358.52 441.83C336.42 453.48 316.26 458.39 297.57 461.23C267.7 465.78 244.81 464.46 238.21 459.18C237.07 458.27 232.74 454.62 226.95 454.61C220.95 454.6 216.52 458.38 213.56 461.01C204.62 468.92 199.79 474.08 200.77 476.53C201.51 478.35 204.13 479.38 208.76 479.72C223.33 480.8 233.62 472.58 245.06 468.31C257.58 463.64 277.45 469.32 302.36 472.65C316.22 474.5 326.32 475.63 326.95 479.61C327.5 483.06 320.05 487.26 306.24 493.65C289.7 501.29 271.11 508.19 262.41 509.62C239.82 513.35 220.05 511.19 214.47 508.03C209.14 505.01 201.35 499.1 190.27 498.21C186.45 497.91 183.28 498.39 181.37 499.12C176.07 501.15 169.25 510.01 163.56 525.15C162.4 528.24 159.7 535.74 152.6 539.98C150.23 541.4 147.82 542.19 147.78 542.1C147.67 541.86 166.59 530.89 192.55 526.51C203.02 524.75 218.82 524.36 235.02 525.37C244.15 525.94 250.52 528.15 259.67 527.88C265.84 527.7 271.49 527 272.78 529.6C274.91 533.89 263.49 543.6 259.44 546.83C249.93 554.42 238.4 559.25 233.19 560.98C212.61 567.82 191.06 570.74 181.14 570.34C168.61 569.83 156.56 567.42 153.06 565.32C147.82 562.16 144.09 558.03 138.22 558.47C135.35 558.68 129.11 562.4 123.16 570.11C117.83 577.01 115.67 581.7 116.76 583.58C118.78 587.06 127.39 585.1 136.62 583.58C151.74 581.09 162.08 583.31 176.95 579.6C183.11 578.06 188.44 576.61 195.29 576.05C209.41 574.89 224.21 578.61 229.31 580.15C258.29 588.96 276.9 590.68 276.95 596.27C277 601.79 256.23 603.5 224.97 613.94C205.58 620.41 190.36 626.71 171.78 621.47C163.35 619.09 148.93 612.84 137.54 607.32C134.29 605.75 125.72 601.55 117.9 605.03C111.16 608.05 105.69 616.5 107.86 622.61C109.07 626.01 113.03 628.91 121.56 630.83C137.7 634.46 150.9 630.16 161.28 628.09C171.42 626.06 183.64 627.67 196.89 627.18C213.95 626.53 223.75 625.77 224.74 629C226.21 633.79 207.41 643.69 196.44 648.4C187.21 652.36 179.24 654.39 172.24 655.02C164.85 655.69 156.72 654.67 146.9 652.74C139.33 651.26 123.76 648.2 121.33 647.49C119.37 646.92 109.65 645.56 101.92 645.66C94.2 645.77 86.62 647 85.03 651.14C84.22 653.27 85.51 654.8 84.57 657.53C83.75 659.93 81.98 661.51 80.47 662.33C79.2 663.01 77.69 663.54 76.94 662.93C76.11 662.24 76.69 660.53 76.94 658.76Z" />
	<path id="orange flower 14" class="shp3" d="M151.95 92.13C147.44 93.32 143.25 95.34 139.54 98.13C136.9 100.13 134.25 102.89 131.53 106.6C125.29 115.06 122.18 123.74 121.5 128.42C120.21 137.34 121.48 142.09 124.18 143.78C127.13 145.64 131.72 144.46 134.64 142.23C139.56 138.46 139.98 131.56 140.21 128.2C141.2 113.52 143.07 104.62 147.34 102.36C150.39 100.75 154.96 101.49 157.36 103.92C161.21 107.83 157.87 114.6 158.03 125.08C158.2 136.58 162.33 143.73 165.38 146.46C170.48 151.01 179.17 153.68 182.97 150.24C186.2 147.33 185.15 140.66 182.75 133.99C180.14 126.71 175.44 120.56 168.05 112.83C164.83 109.46 159.91 104.47 160.03 97.69C160.09 94.83 161.03 90.9 163.15 90.34C167.35 89.22 174.25 101.85 176.96 107.26C182.02 117.37 182.99 125.28 189.88 131.76C197.44 138.87 210.02 143.33 215.27 138.66C218.85 135.47 218.67 128.3 216.38 123.07C213.45 116.4 206.34 112.27 193.44 107.04C186.44 104.2 178.08 101.01 174.06 93.01C172.57 90.03 171.26 85.63 172.95 84.1C175.79 81.54 190.41 91.19 199.9 93.9C211.75 97.29 220.57 95.89 224.62 93.68C232.84 89.19 239.49 78.66 236.42 72.3C233.42 66.09 221.75 65.16 213.71 66.51C204.63 68.04 197.7 75.26 187.2 74.75C182.02 74.5 175.75 72.54 175.18 69.41C174.56 66.02 180.78 62.21 191.21 56.05C197.55 52.3 202.23 49.49 206.13 45.13C215.19 35.04 220.32 18.8 214.45 12.96C211.9 10.43 207.56 10.31 204.13 10.84C198.21 11.76 191.73 16.07 184.98 27.32C177.51 39.76 174.57 50.51 173.84 59.16C173.15 67.35 173.9 75.25 169.61 77.42C167.59 78.45 164.91 77.98 163.15 76.76C156.9 72.41 160.49 57.38 162.04 52.26C164.76 43.24 170.33 35.25 172.95 29.32C178.04 17.82 178.8 10.33 176.51 7.72C172.33 2.96 160.31 4.63 153.8 10.84C146.92 17.4 147.55 27.76 148.23 41.79C148.45 46.28 149.18 62.75 147.78 62.96C146.63 63.13 145.04 50.87 138.43 40.9C125.57 21.52 99.14 11.72 93 17.97C89.68 21.34 92.05 29.61 95.22 34.89C100.43 43.58 109.34 46.65 117.49 49.81C134.87 56.55 144 61.9 143.77 66.51C143.72 67.73 143.05 69.13 141.1 70.74C137.31 73.89 132.11 72.9 128.18 72.75C124.93 72.62 116.37 74.53 108.14 78.76C95.73 85.14 87.91 92.94 87.43 101.92C87.1 108.11 90.1 116.06 95.67 117.73C98.78 118.66 104.64 116.62 111.93 109.49C118.21 103.35 119.45 97.95 126.18 92.34C131.2 88.16 137.54 85.34 144.22 84.1C149.09 83.2 154.05 83.22 158.92 84.1" />
	<path id="orange flower 16" class="shp3" d="M467.69 379.31C469.25 382.32 464.39 387.9 457.67 394.5C451.99 400.07 444.35 407.09 441.56 409.08C426.58 419.79 417.74 428.27 418.17 432.48C418.95 440.07 431.6 447.3 443.08 445.84C448.64 445.14 455.08 442.22 459.18 436.42C462.44 431.84 462.92 427.29 463.44 421.54C464.24 412.66 466.72 406.39 467.69 397.54C467.92 395.45 468.52 389.5 472.25 387.81C473.57 387.22 475.46 387.09 476.96 387.94C480.98 390.23 480.15 398.53 479.84 403.61C479.01 417.65 480.24 436.96 490.48 443.72C493.98 446.03 498.2 446.67 501.72 446.15C508.39 445.16 513.12 440.05 515.09 435.21C516.23 432.4 517.02 427.31 514.78 420.63C512.79 414.63 509.36 410.61 503.54 404.83C498.22 399.54 495.04 394.47 489.87 389.03C488.68 387.77 485.28 384.26 485.92 380.22C486.23 378.26 487.54 375.89 489.46 375.45C493.03 374.62 496.76 380.9 502.02 387.51C510.25 397.84 519.1 404.15 525.11 406.65C535.76 411.08 543.12 410.24 548.21 408.17C555.23 405.31 562.77 398.24 561.57 392.37C560.85 388.81 553.84 384.73 540.61 381.74C530.56 379.47 521.17 378.06 513.27 377.79C504.44 377.48 496.31 377.82 493.52 372.93C491.83 369.97 492.45 365.71 494.43 362.9C497.22 358.94 504.89 357.31 518.13 358.04C528.4 358.61 536.32 359.96 543.65 355.31C547.67 352.75 550.02 349.57 550.94 346.19C552.2 341.53 551.17 335.32 547.29 332.82C544.57 331.07 539.6 331.83 531.8 335.56C525.97 338.34 517.26 343.8 515.7 344.67C510.01 347.86 499.62 352.76 497.79 350.45C496.2 348.43 501.55 341.45 507.49 334.65C513.1 328.22 517.76 324.39 522.08 317.03C525.14 311.8 530.74 300.6 526.63 296.06C524.98 294.23 521.8 293.58 516.61 294.54C508.21 296.1 502.15 302.71 498.68 308.52C494.35 315.78 493.85 322.26 492.61 331.3C490.94 343.38 488.97 350.39 486.22 351.05C482.5 351.95 476.64 345.92 474.68 339.2C471.82 329.37 478.69 322.03 482.27 308.21C484.44 299.86 487.42 282.85 479.24 276.92C474.14 273.23 466.34 274.89 461.61 277.53C450.86 283.54 450.16 297.13 450.37 302.14C450.82 312.52 456.42 319.09 463.44 329.48C472.73 343.25 477.65 352.59 474.98 355.61C472.97 357.89 466.67 356.53 461.92 353.79C446.25 344.74 449.42 320.52 433.97 306.7C430.15 303.28 426.19 301.15 421.81 301.23C410.82 301.41 400.07 315.58 402.37 324.92C404.04 331.71 413.23 334.83 428.19 341.03C446.23 348.49 457.07 354.06 456.75 359.86C456.68 361.13 455.51 363.43 452.5 365.64C446.22 370.25 439.05 369.07 431.84 369.28C420.06 369.63 409.29 372.61 404.5 380.22C400.76 386.15 399.94 395.74 404.8 399.97C407.16 402.01 412.17 403 420.29 400.57C426.89 398.6 431.6 395.27 436.09 391.46C444.46 384.38 448.77 378.94 457.06 377.48C460.5 376.88 466.33 376.67 467.69 379.31Z" />
	<path id="orange flower17" class="shp3" d="M493.63 525.44C487.68 523.39 481.85 526.2 475.27 526.07C469.77 525.97 464.93 524.72 458.92 525.08C450.76 525.57 443.31 526.94 442.57 530.28C441.76 533.95 449.09 539.54 456.44 541.43C465.98 543.88 475.6 540.07 480.72 537.22C483.57 535.63 487.01 533.26 491.87 533.5C495.75 533.7 500.62 535.58 502.02 539.2C504.32 545.13 496.44 553.16 492.61 556.29C486.36 561.42 477.31 562.39 471.8 569.67C469.27 573.01 466.52 578.71 468.58 582.05C471.31 586.49 481.89 585.84 488.89 581.56C493.9 578.5 496.74 573.8 499.05 567.93C502.92 558.11 503.57 543.21 506.48 542.67C508.79 542.24 512.39 548.24 513.92 554.31C515.57 560.89 514.92 568.61 510.94 577.35C509.58 580.34 500.07 591.67 501.78 596.67C503.27 601.04 509.83 603.26 514.91 602.86C522.92 602.23 527.18 595.26 528.53 592.46C530.29 588.83 531.15 580.59 527.29 569.92C522.84 557.6 516.13 551.27 518.38 543.16C519.37 539.57 522.07 535.61 525.06 535.48C530.31 535.27 536.35 546.84 538.44 557.53C538.67 558.72 539.68 570.84 542.41 578.09C544.6 583.93 547.22 586.91 549.59 587.75C556.3 590.14 565.92 582.81 569.66 574.37C571.48 570.25 573.21 562.8 569.66 555.55C565.62 547.33 556.26 544.73 544.39 537.22C536.99 532.54 533.37 529.36 533.98 527.31C534.7 524.92 540.71 524.48 544.88 524.83C551.63 525.4 558.88 528.64 566.68 536.47C574.6 544.42 577.17 551.86 583.78 552.58C589.2 553.17 594.35 549.14 596.66 545.14C601.88 536.09 595.18 522.63 586.5 517.9C583.25 516.12 574.13 515.64 562.97 518.14C554.14 520.12 546.45 522.77 542.16 518.89C539.79 516.74 539.39 513.61 539.43 511.95C539.59 505.02 547.56 500 553.06 496.84C567.43 488.57 578.2 484.66 578.57 479.75C579.04 473.57 567.11 464.79 556.53 466.87C549.86 468.17 544.72 473.84 541.17 481.23C537.84 488.15 536.37 500.9 535.72 503.53C534.29 509.23 533.09 512.41 532 512.45C529.1 512.54 523.39 498.72 524.82 484.46C525.49 477.75 527.43 473.52 525.56 467.12C523.61 460.42 517.54 451.56 508.71 451.26C503.91 451.1 497.93 453.47 495.58 458.2C492.05 465.32 497.35 476.71 509.7 491.64C516.12 499.39 523.29 506.02 521.35 511.46C520.79 513.03 519.3 514.94 517.38 515.17C512.4 515.78 502.04 495.5 499.55 492.38C489.2 479.45 477.93 474.41 471.8 473.56C462.52 472.26 450.68 474.75 449.01 480.49C447.3 486.35 456.47 494.61 469.32 503.03C477.82 508.6 487.46 514.22 492.61 516.16C495.59 517.28 502.72 519.81 502.77 523.35C502.78 524.55 501.98 525.72 501.03 526.32C498.88 527.69 495.88 526.21 493.63 525.44Z" />
	<path id="Grey Stemset  2" class="shp4" d="M85.28 254.62C108.77 246.52 133.04 245.13 155.86 251.79C172.72 256.7 186.3 265.34 204.51 281.55C230.68 304.84 252.31 330.56 262.89 347.94C280.11 376.22 284.95 400.46 297.23 431.49C314.1 474.11 331.97 503.63 353.32 524.78C386.12 557.27 415.77 566 434.03 564.84C439.65 564.49 450.41 561.81 460.29 558.77C475.78 553.99 489.92 547.76 489.46 546.27C488.96 544.64 467.89 551 445.47 551.11C428.2 551.2 413.74 548.89 402.55 545.39C375.87 537.03 351.44 519.38 336.15 495.02C324.02 475.69 319.89 456.05 322.79 454.61C326.08 452.96 337.05 477.54 360.29 487.94C373.79 493.98 391.8 496.18 416.86 489.87C443.16 483.25 458.78 470.85 464.93 461.83C475.06 446.98 472.6 428.93 476.96 404.61C478.48 396.1 481.46 383.86 481.12 383.78C480.63 383.66 471.69 404.13 464.93 430.92C462.93 438.87 459.76 452.69 447.76 463.54C442.77 468.06 427.52 475.86 407.7 477.85C391.32 479.49 373.87 477.19 356.76 470.41C346.29 466.27 337.43 461.02 332.15 456.68C313.64 441.45 306.52 419.55 304.1 412.04C296.63 388.81 283.48 370.81 272.62 346.22C268.57 337.05 256.21 313.66 244 295.85C228.7 273.53 214.7 260.95 201.65 256.36C194.43 253.83 170.11 252.35 168.61 246.28C167.38 241.26 178.1 235.93 180.47 226.6C182.3 219.42 179.86 213.32 178.18 208.86C173.36 196.04 172.32 185.42 166.16 172.81C163.67 167.69 153.76 154.66 150.71 141.9C147.55 128.67 148.61 114.57 153 102.41C156.12 93.77 160.59 88.17 160.28 87.96C159.8 87.64 150.07 99.17 143.84 115.57C141.63 121.41 140.17 127.37 139.83 131.03C138.5 145.55 144.03 156.45 150.14 168.23C154.29 176.24 158.71 186.14 162.73 196.27C167.6 208.55 170.94 220.17 166.16 231.75C163.11 239.16 159.05 243.75 154.14 245.49C143.75 249.18 130.65 237.51 118.66 235.76C109.39 234.41 100.43 235.58 92.9 239.19C77.56 246.57 68.8 263.17 71.15 265.52C72.68 267.05 79.34 262.93 85.28 258.78" />
</svg>