<svg version="1.2" baseProfile="tiny-ps" xmlns="http://www.w3.org/2000/svg" viewBox="0 0 648 431" width="648" height="431">
	<title>Green Leafset 6</title>
	<style>
		tspan { white-space:pre }
		.shp0 { fill: #367a91 } 
		.shp1 { fill: #67b8a7 } 
	</style>
	<path id="dark blue leafset 4" class="shp0" d="M329.1 425.46C315.09 426.56 301.66 424.13 289.87 417.66C276.61 410.39 272.46 399.33 263.19 393.48C262.33 392.94 259.5 391.21 258.27 387.96C256.63 383.65 258.04 377.43 261.94 374.3C263.41 373.12 266.5 372.4 266.6 371.29C266.75 369.68 262.18 367.57 257.35 366.38C251.58 364.96 241.76 366.8 237.43 362.96C234.63 360.47 234.91 356.05 234 349.29C233 341.82 231.12 337.03 233.27 333.79C237.9 326.8 252.63 329.95 254.1 325.46C255.48 321.23 242.04 314.36 237.43 304.63C232.82 294.91 236.39 286.29 238.17 271.33C239.9 256.82 238.3 247.31 241.6 246.3C246.07 244.93 258.51 268.21 266.11 277.16C272.82 285.08 276.67 292.44 283.2 300.51C286.31 304.35 292.1 311.38 290.29 318.44C287.41 329.66 266.84 334.39 266.6 333.79C266.39 333.25 281.37 324.9 287.43 329.63C290.8 332.25 290.41 343.37 290.71 344.7C292.25 351.6 296.16 358.75 300.72 363.88C301.96 365.28 305.47 369.03 305.72 374.3C305.88 377.8 304.53 381.63 301.55 385.56C299.65 388.07 295.34 391.22 295.77 392.12C296.43 393.53 305 389.6 312.44 392.12C318.28 394.11 321.44 398.66 323.23 400.99C326.14 404.74 334.88 411.8 344.92 417.25C360.79 425.87 377.82 428.4 379.1 425.46C381.05 421 341.99 397.22 316.6 367.13C305.82 354.35 296.46 339.74 299.93 325.46C304.35 307.32 330.88 297.08 329.1 292.13C327.23 286.91 297.39 296.82 281.95 283.83C275.44 278.36 274.75 270.42 270.77 258.8C263.19 236.7 252.92 225.06 258.27 212.97C260.68 207.51 268.94 200.58 277.37 192.53C279.49 190.5 284.38 185.69 283.27 183.8C282.05 181.73 268.86 184.9 262.77 185.03C254.46 185.21 249.85 183.76 247.34 180.86C243.12 175.97 244.79 168.21 245.26 165.85C248.38 150.05 244.23 140.34 246.09 124.16C249.04 98.54 241.11 53.55 249.93 50.48C260.27 46.87 281.48 91.22 306.55 111.23C317.31 119.82 320.71 128.21 331.99 135.42C333.35 136.28 337.13 138.59 337.44 142.14C338.11 150.03 320.01 156.91 321.15 160.43C322.04 163.19 334.53 159.86 343.25 164.18C354.04 169.54 357.69 182.39 363.26 200.04C366.11 209.05 368.56 216.53 369.93 216.3C373.04 215.77 376.18 175.01 376.19 162.93C376.19 161.52 376.16 156.26 379.1 154.64C382.68 152.67 388.26 157.86 394.54 157.09C397.85 156.69 399.53 155.86 399.94 154.64C401.45 150.17 384.48 144.31 383.27 133.8C382.03 122.99 401.11 112.39 408.27 100.47C408.74 99.69 417.6 84.69 420.77 79.64C423.96 74.56 426.41 71 429.11 71.31C435.55 72.05 435.73 102.53 442.91 121.24C450.9 142.1 462.09 154.36 457.08 160.85C451.38 168.24 429.12 160.74 428.31 163.35C427.64 165.52 443.41 170.34 446.24 180.86C447.77 186.53 444.67 190.16 442.49 197.53C439.64 207.18 443.3 221.59 437.44 225.47C429.85 230.49 413.94 219.13 412.44 221.3C411.21 223.07 422.47 231.16 424.94 242.13C426.68 249.84 424.02 255.66 420.81 265.91C419.01 271.63 419.08 275.89 416.64 281.33C410.12 295.85 395.27 302.68 391.2 319.27C389.91 324.55 389.47 331.28 391.62 332.2C394.75 333.53 404.67 323.05 410.38 310.52C412.94 304.9 415.05 298.11 420.39 296.76C423.99 295.85 427.1 297.9 431.23 300.09C439.12 304.28 444.14 306.02 445.77 304.63C448.67 302.16 440.54 283.56 439.15 277.16C437.96 271.62 437.22 265.59 437.44 262.96C438.92 245.58 457.54 235.05 464.17 223.38C465.99 220.19 474.15 205.28 481.69 197.53C482.96 196.23 484.01 195.34 485.44 194.62C497.47 188.47 516.86 204.86 519.21 202.12C521.07 199.96 508.86 188.54 507.95 174.19C507.79 171.58 507.91 169.25 508.28 167.14C511.6 148.13 534.16 143.83 558.28 125.47C571.24 115.6 586.3 93.73 591.61 96.31C598.8 99.8 593.71 130.91 585.93 152.51C582.84 161.08 574.53 181.54 578.84 192.11C579.12 192.8 580.02 194.84 579.11 196.3C576.03 201.25 555.87 192.83 554.11 196.3C552.22 200.03 574.19 212.4 571.75 221.72C571.1 224.22 568.99 225.6 568 226.3C554.66 235.84 539.09 272.12 535.06 284.25C534.2 286.84 531.29 296.07 523.38 300.09C521.54 301.03 519.88 301.53 518.38 301.76C509.38 303.12 501.12 295.07 499.94 296.3C498.34 297.95 513.7 312.04 511.71 326.78C511.47 328.56 510.91 330.44 510.04 332.61C506.24 342.12 497.57 352.54 496.7 353.46C480.57 370.45 479.04 406.25 450.41 421C442.51 425.07 432.96 427.39 423.31 428.09C415.34 428.66 407.24 427.34 397.87 426.42C394.82 426.12 391.79 425.84 388.7 425.58" />
	<path id="Green Leafset 5 " class="shp1" d="M374.94 421.29C363.83 420.44 352.09 417.33 340.53 411.7C323.32 403.31 310.64 390.92 299.25 375.24C281.64 351.01 276.15 331.56 264.17 303.72C251.84 275.06 241.06 258.96 245.77 254.63C251.99 248.91 275.81 264.63 305.44 287.21C325.12 302.21 341.61 320.02 344.65 327.1C351.81 343.76 350.86 360.05 363.92 368.37C369.03 371.63 372.8 372.18 375.61 371.12C386.18 367.13 385.7 339.79 383.18 322.29C378.97 293.01 363.82 269.46 356.35 257.64C345.97 241.21 333.68 213.12 324.02 183.36C318.11 165.16 313.69 147.62 311.63 133.15C302.16 66.55 320.34 0.43 333.27 0.48C338.98 0.5 345.13 20.61 353.6 56.12C360.47 84.94 365.58 112.08 369.42 138.66C374.52 173.99 384.38 210.99 381.8 228.06C380.25 238.33 374.69 267.43 385.93 287.9C388.25 292.13 391.05 295.38 394.87 296.15C406.29 298.46 421.12 277.26 428.58 259.01C438.43 234.93 435.24 215.4 435.46 196.43C435.61 183.38 443.33 152.19 454.03 123.52C460.4 106.48 468.67 89.22 480.86 70.57C491.33 54.56 514.84 21.18 524.94 25.48C533.73 29.21 529.29 60.09 522.83 90.51C517 117.94 506.64 148.16 500.81 160.66C474.85 216.39 446.07 277.93 427.2 299.59C422.37 305.14 396.4 334.45 399.69 367.68C401.08 381.79 406.17 389.37 411.38 393.81C422.02 402.88 436.55 402.49 445.78 399.32C464.62 392.83 472.4 371.54 476.05 362.18C485.32 338.41 497.41 323.63 507.69 300.28C516.33 280.67 523.18 265.46 533.83 253.51C552.06 233.07 572.59 224.45 604 212.25C627.23 203.23 641.99 196.84 645.78 200.47C654.62 208.94 631.85 244.57 595.06 307.84C578.41 336.47 561.01 365.97 524.2 389.69C498.36 406.33 466.29 418.78 434.08 419.95C422.93 420.35 412.1 418.67 399.69 419.95C390.69 420.88 384.11 421.99 374.94 421.29Z" />
	<path id="Green Leafset 6" class="shp1" d="M115.13 425.13C113.63 423.56 100.12 409.21 96.73 405.83C88.72 397.85 78.72 395.06 64.41 389.67C55.89 386.47 42.49 380.24 30.75 374.41C16.38 367.29 2.57 359.1 0.68 346.14C0.31 343.67 -0.25 336.65 3.82 333.57C6.62 331.45 10.92 331.74 16.59 333.79C34.81 340.39 50.3 353.43 58.58 361.85C73.58 377.11 86.97 382.82 100.32 399.55C108.26 409.51 113.93 418.72 116.92 417.5C120.48 416.04 118.88 400.41 112.88 386.98C106.65 373.02 94.35 362.34 90.89 359.6C70.36 343.35 53.96 326.18 43.31 308.44C33.82 292.62 29.57 278.8 28.05 266.26C26.12 250.26 27.96 236.28 32.09 224.52C36.62 211.65 47.95 193 72.04 176.5C96.85 159.5 116.53 156.27 131.73 158.1C147.15 159.95 155.07 165.6 157.77 170.66C160.96 176.65 160.85 186.21 152.83 200.73C144.01 216.69 131.43 224.55 121.41 231.25C107.33 240.66 93.48 251.87 89.1 257.73C79.4 270.67 69.95 292.39 74.28 316.52C77.29 333.27 87.53 350.28 107.5 367.23C114.38 373.07 121.86 378.14 127.7 388.78C131.11 395 134.51 402.4 136.22 408.52C136.81 410.62 138.21 416 142.96 419.74C148.84 424.39 158.42 425.42 161.81 421.54C164.87 418.02 161.74 407.96 152.38 391.92C147.1 382.86 141.5 376.29 136.22 367.23C123.3 345.08 122.46 329.1 125.9 317.87C128.28 310.08 131.51 306.51 134.43 305.75C144.02 303.25 158.98 322.15 165.85 340.75C171.64 356.46 170.88 369.95 169.89 388.33C168.96 405.5 168.37 415.44 170.78 416.15C174.64 417.28 184.62 399.7 189.63 381.15C194.66 362.57 194.59 342.78 190.08 323.7C187.29 311.85 172.58 286.24 173.48 260.87C174.04 244.9 177.41 235.38 183.8 232.6C194.83 227.79 214 243.39 222.85 260.42C227.8 269.96 229.48 291.12 224.64 317.87C221.49 335.3 216.89 352.27 212.43 362.96C207.27 375.33 199.22 388.99 191.43 403.14C186.4 412.28 181.9 420.4 182.9 421.09C184.54 422.21 203.55 405.32 217.91 383.84C220.82 379.48 228.1 368.11 241.7 363.19C248.89 360.59 259.06 359.19 267.73 364.09C280.8 371.47 285.73 389.68 280.3 400.44C275.67 409.6 263.07 410.22 243.05 415.25C237.68 416.6 213.91 424.48 197.26 426.92C191.15 427.82 185.33 428.42 179.76 428.72C172.38 429.11 166.06 428.51 158.66 428.72C150.1 428.95 135.09 429.37 131.73 430.06C130.59 430.3 126.04 431.1 121.86 429.62C118.57 428.45 116.08 426.12 115.13 425.13Z" />
</svg>