<svg version="1.2" baseProfile="tiny-ps" xmlns="http://www.w3.org/2000/svg" viewBox="0 0 2276 518" width="2276" height="518">
	<title>orange flower 15</title>
	<style>
		tspan { white-space:pre }
		.shp0 { fill: #367a91 } 
		.shp1 { fill: #67b8a7 } 
		.shp2 { fill: #c2ba3e } 
		.shp3 { fill: #f89462 } 
	</style>
	<path id="dark blue leafset 4" class="shp0" d="M1716.1 445.46C1702.09 446.56 1688.66 444.13 1676.87 437.66C1663.61 430.39 1659.46 419.33 1650.19 413.48C1649.33 412.94 1646.5 411.21 1645.27 407.96C1643.63 403.65 1645.04 397.43 1648.94 394.3C1650.41 393.12 1653.5 392.4 1653.6 391.29C1653.75 389.68 1649.18 387.57 1644.35 386.38C1638.58 384.96 1628.76 386.8 1624.43 382.96C1621.63 380.47 1621.91 376.05 1621 369.29C1620 361.82 1618.12 357.03 1620.27 353.79C1624.9 346.8 1639.63 349.95 1641.1 345.46C1642.48 341.23 1629.04 334.36 1624.43 324.63C1619.82 314.91 1623.39 306.29 1625.17 291.33C1626.9 276.82 1625.3 267.31 1628.6 266.3C1633.07 264.93 1645.51 288.21 1653.11 297.16C1659.82 305.08 1663.67 312.44 1670.2 320.51C1673.31 324.35 1679.1 331.38 1677.29 338.44C1674.41 349.66 1653.84 354.39 1653.6 353.79C1653.39 353.25 1668.37 344.9 1674.43 349.63C1677.8 352.25 1677.41 363.37 1677.71 364.7C1679.25 371.6 1683.16 378.75 1687.72 383.88C1688.96 385.28 1692.47 389.03 1692.72 394.3C1692.88 397.8 1691.53 401.63 1688.55 405.56C1686.65 408.07 1682.34 411.22 1682.77 412.12C1683.43 413.53 1692 409.6 1699.44 412.12C1705.28 414.11 1708.44 418.66 1710.23 420.99C1713.14 424.74 1721.88 431.8 1731.92 437.25C1747.79 445.87 1764.82 448.4 1766.1 445.46C1768.05 441 1728.99 417.22 1703.6 387.13C1692.82 374.35 1683.46 359.74 1686.93 345.46C1691.35 327.32 1717.88 317.08 1716.1 312.13C1714.23 306.91 1684.39 316.82 1668.95 303.83C1662.44 298.36 1661.75 290.42 1657.77 278.8C1650.19 256.7 1639.92 245.06 1645.27 232.97C1647.68 227.51 1655.94 220.58 1664.37 212.53C1666.49 210.5 1671.38 205.69 1670.27 203.8C1669.05 201.73 1655.86 204.9 1649.77 205.03C1641.46 205.21 1636.85 203.76 1634.34 200.86C1630.12 195.97 1631.79 188.21 1632.26 185.85C1635.38 170.05 1631.23 160.34 1633.09 144.16C1636.04 118.54 1628.11 73.55 1636.93 70.48C1647.27 66.87 1668.48 111.22 1693.55 131.23C1704.31 139.82 1707.71 148.21 1718.99 155.42C1720.35 156.28 1724.13 158.59 1724.44 162.14C1725.11 170.03 1707.01 176.91 1708.15 180.43C1709.04 183.19 1721.53 179.86 1730.25 184.18C1741.04 189.54 1744.69 202.39 1750.26 220.04C1753.11 229.05 1755.56 236.53 1756.93 236.3C1760.04 235.77 1763.18 195.01 1763.19 182.93C1763.19 181.52 1763.16 176.26 1766.1 174.64C1769.68 172.67 1775.26 177.86 1781.54 177.09C1784.85 176.69 1786.53 175.86 1786.94 174.64C1788.45 170.17 1771.48 164.31 1770.27 153.8C1769.03 142.99 1788.11 132.39 1795.27 120.47C1795.74 119.69 1804.6 104.69 1807.77 99.64C1810.96 94.56 1813.41 91 1816.11 91.31C1822.55 92.05 1822.73 122.53 1829.91 141.24C1837.9 162.1 1849.09 174.36 1844.08 180.85C1838.38 188.24 1816.12 180.74 1815.31 183.35C1814.64 185.52 1830.41 190.34 1833.24 200.86C1834.77 206.53 1831.67 210.16 1829.49 217.53C1826.64 227.18 1830.3 241.59 1824.44 245.47C1816.85 250.49 1800.94 239.13 1799.44 241.3C1798.21 243.07 1809.47 251.16 1811.94 262.13C1813.68 269.84 1811.02 275.66 1807.81 285.91C1806.01 291.63 1806.08 295.89 1803.64 301.33C1797.12 315.85 1782.27 322.68 1778.2 339.27C1776.91 344.55 1776.47 351.28 1778.62 352.2C1781.75 353.53 1791.67 343.05 1797.38 330.52C1799.94 324.9 1802.05 318.11 1807.39 316.76C1810.99 315.85 1814.1 317.9 1818.23 320.09C1826.12 324.28 1831.14 326.02 1832.77 324.63C1835.67 322.16 1827.54 303.56 1826.15 297.16C1824.96 291.62 1824.22 285.59 1824.44 282.96C1825.92 265.58 1844.54 255.05 1851.17 243.38C1852.99 240.19 1861.15 225.28 1868.69 217.53C1869.96 216.23 1871.01 215.34 1872.44 214.62C1884.47 208.47 1903.86 224.86 1906.21 222.12C1908.07 219.96 1895.86 208.54 1894.95 194.19C1894.79 191.58 1894.91 189.25 1895.28 187.14C1898.6 168.13 1921.16 163.83 1945.28 145.47C1958.24 135.6 1973.3 113.73 1978.61 116.31C1985.8 119.8 1980.71 150.91 1972.93 172.51C1969.84 181.08 1961.53 201.54 1965.84 212.11C1966.12 212.8 1967.02 214.84 1966.11 216.3C1963.03 221.25 1942.87 212.83 1941.11 216.3C1939.22 220.03 1961.19 232.4 1958.75 241.72C1958.1 244.22 1955.99 245.6 1955 246.3C1941.66 255.84 1926.09 292.12 1922.06 304.25C1921.2 306.84 1918.29 316.07 1910.38 320.09C1908.54 321.03 1906.88 321.53 1905.38 321.76C1896.38 323.12 1888.12 315.07 1886.94 316.3C1885.34 317.95 1900.7 332.04 1898.71 346.78C1898.47 348.56 1897.91 350.44 1897.04 352.61C1893.24 362.12 1884.57 372.54 1883.7 373.46C1867.57 390.45 1866.04 426.25 1837.41 441C1829.51 445.07 1819.96 447.39 1810.31 448.09C1802.34 448.66 1794.24 447.34 1784.87 446.42C1781.82 446.12 1778.79 445.84 1775.7 445.58" />
	<path id="dark blue leafset 3" class="shp0" d="M645.23 366.29C620.94 355.62 601.07 337.26 589.41 313.66C579.26 293.13 575.98 268.93 579.98 244.55C583.65 222.21 594.67 198.94 610.14 176.7C614.19 170.87 623.29 157.51 625.84 140.89C626.94 133.73 626.02 120.16 623.33 106.34C620.17 90.09 616.78 80.52 620.19 68.01C622.82 58.36 628.82 48.02 639.04 41.63C645.07 37.86 660.46 30.5 674.85 37.86C680.04 40.51 689.72 52.12 693.69 72.41C696.52 86.86 695.44 100.68 691.18 112.62C685.35 128.97 675.62 137.27 660.4 152.2C649.35 163.03 638.2 175.09 632.75 182.98C622.2 198.29 615.65 213.3 612.02 227.59C609.41 237.91 608.25 269.25 613.91 299.21C616.35 312.17 620.61 328.76 634.64 340.68C639.17 344.53 644.21 347.87 646.58 346.33C650.44 343.81 644.86 329.68 637.78 308.64C632.25 292.2 628.3 278.07 627.1 264.66C625.23 243.8 628.86 227.67 633.38 218.17C639.94 204.37 649.63 195.32 662.28 186.13C681.58 172.1 697.97 167.3 716.94 152.83C738.04 136.72 753.38 116.97 757.15 108.22C761.53 98.05 763.36 88.41 772.85 79.32C785.59 67.13 805.02 63.8 823.11 64.87C853.3 66.66 891.02 85.1 899.76 118.27C901.58 125.18 902.35 133.99 900.39 145.29C896.06 170.21 879.16 187.61 865.83 196.81C845.06 211.15 823.73 212.04 811.8 212.51C791.67 213.31 766.79 215.62 757.15 214.4C743.09 212.62 729.66 209.23 711.91 214.4C697.98 218.46 681.19 227.9 671.08 244.55C663.87 256.42 663.71 265.82 661.65 281.62C657.55 313.16 649.71 331.9 657.73 337.13C662.02 339.93 668.77 337.67 672.96 335.65C682.03 331.29 686.24 323.08 688.67 317.43C694.97 302.74 694.82 277.89 706.89 265.29C716.69 255.05 732.53 252.86 741.44 252.72C755.25 252.51 764.31 258.43 775.37 259.63C782.43 260.4 800.23 257.98 818.09 249.58C829.02 244.44 837.01 235.31 850.76 231.99C871.78 226.91 901.48 233.18 908.55 252.09C913.58 265.54 905.82 281.65 896.62 291.04C883.65 304.29 864.3 307.94 834.42 306.75C785.62 304.81 752.61 292.97 732.64 311.15C729.08 314.39 724.35 319.99 721.34 326.86C720.94 327.75 718.25 342.28 712.54 346.96C706.36 352.03 696.41 349.97 689.92 351.99C680.01 355.07 669.32 363.06 667.94 372.72C666.73 381.1 672.89 387.93 677.99 394.08C680.09 396.61 695.27 426.27 710.66 433.66C718.56 437.45 734.89 438.26 754.63 436.17C775.28 433.99 789.65 429.9 795.47 423.61C805.89 412.34 807.32 394.19 803.57 374.63C801.06 361.51 785.05 337.28 791.07 325.6C796.35 315.36 812.23 313.82 819.97 314.29C843.24 315.7 862.01 338.57 866.46 360.78C871.58 386.34 855.99 409.11 846.36 419.84C835.71 431.69 810.49 447.5 769.71 450.62C761.36 451.26 742.67 449.45 726.99 448.11C707.57 446.45 694.53 444.69 682.39 434.92C676.87 430.48 660.97 415.85 659.14 395.96C658.79 392.19 658.64 385.83 654.74 379.63C652.35 375.82 649.08 372.81 645.23 370.46" />
	<path id="Green Leafset 5 " class="shp1" d="M1761.94 441.29C1750.83 440.44 1739.09 437.33 1727.53 431.7C1710.32 423.31 1697.64 410.92 1686.25 395.24C1668.64 371.01 1663.15 351.56 1651.17 323.72C1638.84 295.06 1628.06 278.96 1632.77 274.63C1638.99 268.91 1662.81 284.63 1692.44 307.21C1712.12 322.21 1728.61 340.02 1731.65 347.1C1738.81 363.76 1737.86 380.05 1750.92 388.37C1756.03 391.63 1759.8 392.18 1762.61 391.12C1773.18 387.13 1772.7 359.79 1770.18 342.29C1765.97 313.01 1750.82 289.46 1743.35 277.64C1732.97 261.21 1720.68 233.12 1711.02 203.36C1705.11 185.16 1700.69 167.62 1698.63 153.15C1689.16 86.55 1707.34 20.43 1720.27 20.48C1725.98 20.5 1732.13 40.61 1740.6 76.12C1747.47 104.94 1752.58 132.08 1756.42 158.66C1761.52 193.99 1771.38 230.99 1768.8 248.06C1767.25 258.33 1761.69 287.43 1772.93 307.9C1775.25 312.13 1778.05 315.38 1781.87 316.15C1793.29 318.46 1808.12 297.26 1815.58 279.01C1825.43 254.93 1822.24 235.4 1822.46 216.43C1822.61 203.38 1830.33 172.19 1841.03 143.52C1847.4 126.48 1855.67 109.22 1867.86 90.57C1878.33 74.56 1901.84 41.18 1911.94 45.48C1920.73 49.21 1916.29 80.09 1909.83 110.51C1904 137.94 1893.64 168.16 1887.81 180.66C1861.85 236.39 1833.07 297.93 1814.2 319.59C1809.37 325.14 1783.4 354.45 1786.69 387.68C1788.08 401.79 1793.17 409.37 1798.38 413.81C1809.02 422.88 1823.55 422.49 1832.78 419.32C1851.62 412.83 1859.4 391.54 1863.05 382.18C1872.32 358.41 1884.41 343.63 1894.69 320.28C1903.33 300.67 1910.18 285.46 1920.83 273.51C1939.06 253.07 1959.59 244.45 1991 232.25C2014.23 223.23 2028.99 216.84 2032.78 220.47C2041.62 228.94 2018.85 264.57 1982.06 327.84C1965.41 356.47 1948.01 385.97 1911.2 409.69C1885.36 426.33 1853.29 438.78 1821.08 439.95C1809.93 440.35 1799.1 438.67 1786.69 439.95C1777.69 440.88 1771.11 441.99 1761.94 441.29Z" />
	<path id="Green Leafset 6" class="shp1" d="M1502.13 445.13C1500.63 443.56 1487.12 429.21 1483.73 425.83C1475.72 417.85 1465.72 415.06 1451.41 409.67C1442.89 406.47 1429.49 400.24 1417.75 394.41C1403.38 387.29 1389.57 379.1 1387.68 366.14C1387.31 363.67 1386.75 356.65 1390.82 353.57C1393.62 351.45 1397.92 351.74 1403.59 353.79C1421.81 360.39 1437.3 373.43 1445.58 381.85C1460.58 397.11 1473.97 402.82 1487.32 419.55C1495.26 429.51 1500.93 438.72 1503.92 437.5C1507.48 436.04 1505.88 420.41 1499.88 406.98C1493.65 393.02 1481.35 382.34 1477.89 379.6C1457.36 363.35 1440.96 346.18 1430.31 328.44C1420.82 312.62 1416.57 298.8 1415.05 286.26C1413.12 270.26 1414.96 256.28 1419.09 244.52C1423.62 231.65 1434.95 213 1459.04 196.5C1483.85 179.5 1503.53 176.27 1518.73 178.1C1534.15 179.95 1542.07 185.6 1544.77 190.66C1547.96 196.65 1547.85 206.21 1539.83 220.73C1531.01 236.69 1518.43 244.55 1508.41 251.25C1494.33 260.66 1480.48 271.87 1476.1 277.73C1466.4 290.67 1456.95 312.39 1461.28 336.52C1464.29 353.27 1474.53 370.28 1494.5 387.23C1501.38 393.07 1508.86 398.14 1514.7 408.78C1518.11 415 1521.51 422.4 1523.22 428.52C1523.81 430.62 1525.21 436 1529.96 439.74C1535.84 444.39 1545.42 445.42 1548.81 441.54C1551.87 438.02 1548.74 427.96 1539.38 411.92C1534.1 402.86 1528.5 396.29 1523.22 387.23C1510.3 365.08 1509.46 349.1 1512.9 337.87C1515.28 330.08 1518.51 326.51 1521.43 325.75C1531.02 323.25 1545.98 342.15 1552.85 360.75C1558.64 376.46 1557.88 389.95 1556.89 408.33C1555.96 425.5 1555.37 435.44 1557.78 436.15C1561.64 437.28 1571.62 419.7 1576.63 401.15C1581.66 382.57 1581.59 362.78 1577.08 343.7C1574.29 331.85 1559.58 306.24 1560.48 280.87C1561.04 264.9 1564.41 255.38 1570.8 252.6C1581.83 247.79 1601 263.39 1609.85 280.42C1614.8 289.96 1616.48 311.12 1611.64 337.87C1608.49 355.3 1603.89 372.27 1599.43 382.96C1594.27 395.33 1586.22 408.99 1578.43 423.14C1573.4 432.28 1568.9 440.4 1569.9 441.09C1571.54 442.21 1590.55 425.32 1604.91 403.84C1607.82 399.48 1615.1 388.11 1628.7 383.19C1635.89 380.59 1646.06 379.19 1654.73 384.09C1667.8 391.47 1672.73 409.68 1667.3 420.44C1662.67 429.6 1650.07 430.22 1630.05 435.25C1624.68 436.6 1600.91 444.48 1584.26 446.92C1578.15 447.82 1572.33 448.42 1566.76 448.72C1559.38 449.11 1553.06 448.51 1545.66 448.72C1537.1 448.95 1522.09 449.37 1518.73 450.06C1517.59 450.3 1513.04 451.1 1508.86 449.62C1505.57 448.45 1503.08 446.12 1502.13 445.13Z" />
	<path id="Green Leafset 7" class="shp1" d="M624.4 449.62C613.67 442.03 615.73 405.66 615.13 402.68C614.78 400.95 613.38 389.35 614.62 380.43C615.24 376 616.98 366.58 620.23 366.29C623.46 366.01 628.12 378.67 632.83 384.48C639.53 392.74 651.02 401.77 657.61 398.63C663.9 395.64 663.58 382.83 663.18 378.41C662.18 367.52 657.06 359.62 650.53 348.07C646.81 341.48 644.67 336.86 645.23 332.96C646.85 321.66 661.94 317.69 679.86 309.13C681.65 308.28 684.27 307.01 686.9 307.96C692.6 310.02 693.81 322.73 699.59 329.86C701.3 331.98 702.74 333.32 703.57 332.96C707.26 331.37 691.92 298.15 704.14 286.88C706.13 285.05 708.43 284.24 709.7 283.85C722.61 279.84 749.03 274.97 765.33 267.67C774.31 263.65 779.06 259.81 782.74 262.13C788.49 265.76 781.73 280.39 778.99 304.58C777.33 319.2 771.35 335.52 765.33 346.04C764.46 347.58 763.49 348.86 761.9 349.63C753.96 353.5 740.78 338.45 736.9 341.29C733.02 344.15 744.93 361.33 740.55 375.88C736.3 390.04 722.84 389.55 715.77 404.2C713.78 408.32 712.13 413.45 708.69 413.8C706.74 414.01 704.04 411.86 700.6 407.23C698.68 404.65 695.5 399.5 695.23 399.63C694.59 399.92 707.66 421.02 700.09 433.02C696.26 439.1 688.17 440.6 674.3 443.13C666.41 444.57 661.88 444.94 661.9 445.46C661.94 446.7 688.53 451.97 706.67 438.08C714.16 432.34 720.67 421.48 728.42 408.24C731.54 402.9 736.54 394.66 741.07 395.46C747.35 396.57 749.22 415.02 751.17 414.82C752.91 414.63 750.31 399.77 757.73 391.29C765.55 382.37 782.8 386.03 794.16 381.95C800.83 379.55 805.36 376.72 807.74 378.79C812.64 383.05 802.39 403.23 803.57 403.79C804.61 404.29 811.13 387.68 824.4 382.96C832.79 379.98 840.11 382.71 851.31 386.5C860.92 389.75 874.13 394.12 883.68 397.12C892.75 399.96 898.82 401.11 899.41 403.79C901.34 412.58 867.14 422.95 835.63 435.55C832.19 436.92 821.99 441.05 811.9 437.12C808.62 435.85 800.27 431.67 799.4 424.62C799.19 422.87 799.69 420.53 799.4 420.46C798.77 420.29 796.86 430.5 789.61 438.08C786.4 441.43 782.27 444.24 777.47 446.17C767.91 450.01 754.1 447.07 751.68 447.18C750.11 447.25 746.97 447.44 745.23 445.46C742.09 441.87 746.59 433.74 745.23 432.96C743.53 431.97 735.72 446.21 724.88 453.25C708.9 463.62 688.92 459.11 656.1 455.27C652.39 454.83 648.94 454.24 645.23 453.79C635.98 452.67 628.48 452.52 624.4 449.62Z" />
	<path id="Yellow Leafse t3" class="shp2" d="M503.56 441.29C509.38 440.58 511.91 423.95 515.46 394.38C518.29 370.74 519.67 352.83 518.21 330.37C516.52 304.4 510.68 285.49 503.07 275.32C492.7 261.46 476.53 251.25 456.96 245.73C449.39 243.59 436.57 242.17 423.23 242.29C400.2 242.48 379.78 245.72 361.29 251.23C351.96 254.01 343.26 257.22 335.14 260.87C319.9 267.72 309.94 275.71 294.54 282.2C280.15 288.26 261.86 290.7 252.55 293.21C237.9 297.16 227.4 301.2 214.01 301.47C184.22 302.06 161.31 288.93 161.88 287.13C162.49 285.2 191.83 297.43 228.55 291.3C238 289.72 249.41 286.36 261.5 281.51C277.43 275.13 298.06 263.36 318.62 249.17C329.41 241.72 337.24 235.6 348.91 229.9C365.04 222.01 381.02 217.39 396.39 215.45C420.31 212.43 439 215.13 452.83 219.58C463.29 222.94 475.93 229.13 489.3 238.84C499.4 246.18 518.17 265.86 533.35 287.71C540.85 298.49 546.72 308.63 551.25 321.43C554.06 329.38 555.82 336.58 556.75 343.45C558.56 356.84 557.24 367.02 554.69 381.99C550.87 404.35 547.13 421.42 539.55 430.16C530.85 440.18 515.14 446.05 516.06 449.62C517.33 454.59 543.64 451.05 549.87 450.12C565.75 447.74 574.51 444.05 580.84 437.04C587.22 429.98 589.58 421.38 590.47 412.27C593.95 376.85 584.91 344.15 578.09 323.49C570.03 299.12 563.78 276.86 554 261.56C537.17 235.23 515.99 216.8 493.43 205.81C486.52 202.44 477.17 199.06 467.28 196.18C448.26 190.64 430.03 187.74 412.91 187.23C389.04 186.53 365.63 195.94 336.52 189.3C316.7 184.77 300.51 175.96 288.34 164.52C267.43 144.86 261.11 120.84 261.88 120.47C262.54 120.16 268.65 137.49 285.59 151.44C295.26 159.42 304.89 163.76 315.18 167.27C338.88 175.36 359.33 179.32 377.81 180.35C403.33 181.77 421.21 177.01 446.63 179.66C466.58 181.74 483.19 186.03 496.19 191.36C515.51 199.27 534.12 211.46 550.56 227.83C562.49 239.72 581.12 266.16 593.92 298.72C600.18 314.67 605.48 334.96 609.06 357.9C611.14 371.28 612.87 392.19 608.37 415.02C605.26 430.79 600.43 441.09 592.54 449.43C584.84 457.57 573.47 464.27 557.44 467.32C539.65 470.71 522.05 466.87 507.89 459.07C495.19 452.07 479.77 439.68 475.54 422.59C472.5 410.3 476.08 401.22 478.98 388.87C481.87 376.59 481.35 365.59 483.11 352.4C485.07 337.76 486.63 326.98 481.05 315.23C469.72 291.4 437.07 281.19 411.89 282.96C397.97 283.95 369.18 294.78 342.02 324.18C319.49 348.58 303.48 394.79 265.63 419.15C256.57 424.98 247.33 429.3 238.1 432.23C227.78 435.5 207.17 438.24 185.11 436.36C177.33 435.69 166 434.22 166.05 432.96C166.11 431.09 196.06 430.98 224.38 424.62C245.78 419.82 260.25 413.7 272.51 404.7C281.23 398.3 295.23 383.51 306.24 364.1C314.8 348.99 320.75 319.77 339.96 299.41C346.25 292.73 355.47 285.41 367.49 278.76C386.6 268.19 427.11 251.23 458.33 268.44C468.5 274.04 487.05 294.4 496.88 329C502.97 350.45 503.49 371.72 501.69 379.24C497.34 397.43 486.97 408.54 491.06 424.62C493.21 433.06 499 441.85 503.56 441.29Z" />
	<path id="orange flower 3" class="shp3" d="M420.22 95.47C423.89 96.88 424.79 105.93 422.79 113.34C421.23 119.16 417.37 124 415.44 128.32C412.79 134.22 412.31 138.87 413.07 141.46C414.87 147.55 421.6 153.07 427 151.71C429.48 151.09 432.88 147.5 435.15 139.89C437.57 131.77 437.06 123.74 434.89 114.92C433.34 108.66 430.38 102.08 430.94 101.78C431.9 101.27 442.14 111.57 445.66 126.75C448 136.82 446.36 144.35 451.71 148.3C456.27 151.67 464.24 151.19 468.53 146.98C474.2 141.42 471.13 131.21 469.84 127.8C466.36 118.53 458.78 113.85 449.6 107.3C441.07 101.2 436.3 97.21 436.89 95.47C438.05 92.05 452.92 91.41 466.43 96.52C466.67 96.62 484.33 108.38 491.4 105.98C497.05 104.07 500.49 97 500.6 91C500.77 81.22 491.59 75.03 488.24 73.13C483.83 70.63 475.27 68.4 463.27 71.29C452.81 73.82 441.23 83.14 438.3 80.75C435.98 78.86 438.53 71.8 440.67 67.61C443.11 62.82 450.07 52.05 463.01 48.69C467.23 47.6 478.3 49.15 481.93 44.75C484.52 41.62 484.33 36.64 482.72 33.19C480.21 27.78 474.31 26.22 471.95 25.83C461.93 24.17 450.09 32.56 444.35 42.91C440.62 49.63 441.09 61.82 433.83 67.35C430.64 69.79 425.8 71.5 423.32 69.72C419.7 67.1 421.99 57.59 424.9 49.48C428.86 38.42 435.12 29.05 439.35 22.94C444.65 15.29 448.2 9.86 446.19 5.59C443.79 0.52 434.52 -0.81 427.79 0.86C420.59 2.65 415.58 8.3 412.81 13.21C405.96 25.32 409.2 39.76 411.76 46.85C413.89 52.78 417.05 58.02 414.65 61.83C412.99 64.45 409.06 65.84 405.71 65.25C398.96 64.06 393.75 50.86 389.68 46.59C382.86 39.44 376.52 36.81 371.28 36.08C356.96 34.09 341.92 44.52 342.89 50.01C343.62 54.14 361.58 56.69 370.49 60.52C375.29 62.59 380.07 65.13 385.21 68.67C393.85 74.62 403.66 83.61 402.03 86.54C401.28 87.89 396.42 87.3 388.36 85.75C378.43 83.83 371.19 81.94 364.18 85.49C361.53 86.83 355.22 90.83 354.72 97.84C354.23 104.76 359.77 111.72 365.23 112.29C367.85 112.56 372.35 109.6 378.11 104.93C380.77 102.77 385.04 99.24 390.99 99.15C394.73 99.1 399.14 100.39 399.4 102.31C400.03 106.87 376.26 109.8 374.17 120.96C372.41 130.37 385.45 143.07 391.52 140.94C393.12 140.38 394.96 136.09 396.51 129.37C397.86 123.55 398.21 118.94 400.45 113.87C401.87 110.65 405.89 104.7 411.89 99.64C415.88 96.28 418.97 94.99 420.22 95.47Z" />
	<path id="orange flower7" class="shp3" d="M107.71 312.13C113.12 315.82 109.15 338.91 109.42 342.88C110.25 355.45 114.09 365.46 119.9 373.09C124.87 379.61 135.7 390.31 143.33 387.27C147.04 385.79 150.34 378.77 151.35 365.69C152.14 355.37 149.6 346.92 147.65 343.49C146.03 340.67 141.09 335.25 134.7 330.85C131.8 328.87 127.58 326.12 124.21 321.61C120.9 317.18 119.15 313.32 120.51 311.13C122.34 308.2 129.19 309.03 133.77 310.82C136.7 311.96 139.37 314.01 140.25 314.82C147.11 321.17 151.3 329.88 159.05 336.71C166.39 343.17 173.23 344.68 176.94 344.42C179.76 344.22 186.25 343.06 189.58 337.64C192.88 332.25 190.91 325.25 188.96 320.99C186.41 315.42 177.44 307.45 161.21 302.19C151.08 298.9 140.55 295.95 136.55 296.33C135.82 296.4 133.49 296.66 132.71 295.46C131.43 293.49 134.91 288.24 139.32 285.23C143.53 282.36 148.82 281.9 150.11 281.84C159.11 281.41 167.69 279.05 172.62 277.22C182.49 273.54 188.15 267.55 189.89 264.27C193.86 256.74 194.11 245.75 189.27 242.69C185.12 240.07 177.55 243.47 166.15 252.55C158.16 258.91 153.41 265.12 146.41 272.59C135.51 284.24 127.91 289.32 123.91 287.7C120.64 286.37 119.04 281.88 118.97 278.45C118.88 273.72 121.94 268.46 130.69 262.11C141.17 254.5 154.08 249.96 159.67 248.24C167.85 245.72 174.56 243.67 177.86 237.45C180.54 232.41 180.49 225.55 177.24 220.8C172.64 214.06 162.41 213.41 152.58 214.95C145 216.13 134.29 220.14 126.99 229.74C120.94 237.7 119.11 248.56 114.35 260.88C112.11 266.68 109.74 271.61 106.64 271.67C103.2 271.73 100.16 265.76 98.01 259.64C94.63 250.04 93.94 240.08 96.77 231.28C101.63 216.21 115.62 206.98 123.6 192.44C127.11 186.04 128.76 181.01 126.68 178.26C124.5 175.37 119.18 176.25 110.96 177.65C100.92 179.34 92.77 180.4 87.52 183.81C79.19 189.23 73.63 197.83 71.49 206.31C69.26 215.18 71.63 232.72 85.06 253.79C90.79 262.78 97.59 271.08 94.62 276.6C92.98 279.63 88.94 280.88 85.98 280.92C75.48 281.06 66.1 266.31 59.47 251.01C53.32 236.82 52.23 225.99 41.89 218.34C37.87 215.36 30.37 211.27 23.09 213.4C12.86 216.41 7.87 230.02 8.6 240.22C9.59 254.24 21.35 264.82 31.1 269.51C44.37 275.89 61.31 270.32 72.42 280.61C75.6 283.55 78.97 288.22 77.66 290.78C76.01 293.99 67.84 292.28 54.23 291.09C50.61 290.77 46.12 290.34 44.36 290.47C20.52 292.24 -4.19 321.08 1.2 342.88C3.6 352.6 12.44 362.87 20.62 361.99C24.83 361.54 31.1 353.91 37.58 340.1C42.64 329.32 44.96 322.13 52.38 314.52C58.01 308.73 65.22 304.25 73.65 302.19C79.98 300.63 90.37 299.61 92.15 303.42C93.51 306.31 89.34 310.83 83.82 316.67C78.4 322.42 72.58 328.68 69.03 333.32C60.95 343.84 55.43 357.08 55.46 370.93C55.49 385.33 59.62 392.63 64.09 394.97C70.53 398.35 79.58 395.76 84.75 390.66C90.7 384.79 90.86 376.37 90.92 372.47C91.02 365.31 92.84 345.47 93.69 331.16C94.15 323.42 95.22 314.16 100.78 311.74C102.56 310.97 105.5 310.62 107.71 312.13Z" />
	<path id="orange flower 8" class="shp3" d="M270.22 166.3C271.81 168.82 269.51 174.55 263.03 183.23C257.78 190.26 252.66 194.63 248.91 202.16C244.92 210.16 242.24 219.56 246.66 224.94C250.07 229.07 256.21 229.4 259.82 228.79C268.45 227.32 273.49 218.53 275.54 213.71C277.55 208.96 278.91 199.04 277.47 187.4C276.78 181.9 275.59 175.54 279.39 171.04C281.84 168.14 286.29 166.09 289.02 167.51C292.82 169.49 291.8 177.46 291.9 190.29C291.98 200.07 292.87 205.99 296.4 210.82C301.51 217.84 312.18 223.68 319.18 219.8C326.72 215.62 325.71 202.75 325.27 199.27C324.27 191.38 320.16 183.59 314.04 178.1C309.49 174.02 304.86 172.05 303.78 166.87C303.21 164.15 303.6 160.35 306.02 158.21C307.61 156.8 311.8 155.95 318.21 157.89C324.54 159.8 327.65 162.91 333.94 164.95C339.87 166.87 344.01 166.41 345.49 165.27C349.67 162.01 348.52 153.2 345.49 147.62C341.6 140.46 334.44 137.73 329.76 137.04C326.13 136.49 316.99 138.34 307.3 144.41C299.78 149.13 295.65 153.3 292.87 151.79C290.12 150.31 290.14 144.05 291.58 139.28C293.26 133.75 296.83 130.46 302.17 125.49C306.11 121.81 310.07 117.91 311.8 111.69C313.23 106.52 312.54 103.39 311.16 101.43C307.6 96.39 298.36 96.97 292.55 99.5C283.54 103.43 280.33 112.81 279.39 117.47C278.23 123.24 279.67 128.09 280.03 134.79C280.52 143.76 279.54 148.92 277.47 149.87C274.13 151.39 268.17 146.52 264.63 141.85C260.27 136.09 260.28 131.04 256.93 125.49C254.98 122.26 251.81 118.51 246.98 114.9C240 109.66 233.4 108.35 230.94 108.8C222.04 110.45 214.96 121.54 217.47 128.37C218.71 131.76 221.99 133.4 223.56 134.15C232.57 138.44 246.45 142.29 248.59 142.81C259.43 145.46 265.51 147.93 265.59 150.83C265.67 153.62 260.15 155.91 258.21 156.6C250.46 159.39 243.63 157.25 236.72 155.96C226.32 154.03 218.41 155.17 216.18 156.93C207.91 163.47 208 182.62 216.05 187.14C218.16 188.32 223.18 188.49 229.98 185.48C236.91 182.41 241.57 178.08 246.02 173.61C250.74 168.86 254.63 164.86 260.78 163.98C262.77 163.7 268.33 163.31 270.22 166.3Z" />
	<path id="orange flower 9" class="shp3" d="M169.35 454.03C172.8 454.26 173.53 470.29 180.76 481.32C186.14 489.51 195.65 498.46 208.17 500.39C214.83 501.42 226.2 501.09 228.73 495.22C231.24 489.4 223.88 481.33 221.38 478.89C215.2 472.85 209.71 472.36 201.59 468.46C193.85 464.74 190.38 460.03 183.02 455.59C181.04 454.39 177.94 452.53 178.28 451.39C178.72 449.95 184.49 450.4 191.77 451.36C200.66 452.54 207.37 454.55 215.9 454.24C228.76 453.78 235.35 449.89 237.71 445.72C239.36 442.81 240.02 438.8 238.76 435.12C236.12 427.36 226.09 424.8 222.39 424.13C210.55 422.01 189.56 431.15 185.89 431.91C177.33 433.68 172.38 433.6 171.18 431.63C168.88 427.83 176.35 417.31 185.51 410.39C188 408.51 201.24 403.13 205.73 395.47C209.12 389.7 211.03 380.12 206.01 374.65C202.49 370.82 197.22 370.44 194.14 370.84C190.94 371.26 184.37 375.07 178.74 383.89C174.15 391.08 171.54 398.37 170.84 402.63C169.22 412.46 171.77 419.26 167.41 422.89C164.44 425.37 159.57 425.34 156.29 423.63C151.23 420.99 148.93 413.73 149.09 402.78C149.2 395.21 156.06 379.42 151.32 371.38C149.95 369.05 147.77 367.07 145.16 366.19C135.62 362.97 120.56 374.71 118.36 388.12C116.32 400.55 125.69 411.09 129.87 415.01C136.91 421.61 147.65 426.18 155.99 432.23C157.61 433.4 160.58 435.69 160.13 436.67C158.89 439.4 127.86 432.75 117.02 432.68C115.76 432.67 112.44 432.93 109.51 434C102.66 436.49 94.29 443.5 95.07 451.83C95.72 458.82 102.49 463.8 107.95 465.64C118.28 469.12 130.91 463.56 142.28 455.07C147.54 451.14 151.9 446.82 155.2 448.27C158.16 449.58 159.26 455.1 158.2 459.47C156.75 465.47 151.43 468.3 146.91 471.76C143.69 474.21 137.53 481.55 132.48 489.14C125.7 499.35 124.07 506.59 125.86 510.19C128.56 515.64 136.5 517.94 142.61 516.89C152.86 515.14 159.04 503.96 161.21 496.49C164.66 484.58 159.58 476.66 163.74 463.06C164.66 460.07 166.98 453.87 169.35 454.03Z" />
	<path id="orange flower 10" class="shp3" d="M1145.01 335.27C1136.79 336.33 1130.66 338.75 1122.51 340.27C1116.16 341.45 1112.2 342.69 1108.51 345.77C1104.95 348.74 1101.19 353.64 1101.02 359.76C1100.85 365.68 1103.76 372.85 1109.01 374.76C1116.23 377.38 1127.09 369.81 1132.01 361.26C1133.78 358.19 1135.2 354.29 1139.51 351.27C1141.38 349.95 1144.68 348.08 1146.51 349.27C1148.88 350.81 1147.61 356.66 1147.01 358.77C1144.71 366.73 1138.27 369.06 1137.01 376.26C1136.03 381.85 1138.37 389.08 1144.01 392.25C1148.54 394.81 1155.24 394.76 1158.5 391.26C1161.47 388.07 1160.54 383.16 1158.5 374.26C1157.25 368.76 1156.06 362.25 1155 358.27C1153.65 353.13 1152.7 350.16 1153.58 349.63C1155.2 348.66 1162.27 354.58 1166 362.76C1168.89 369.1 1167.68 375.3 1172 381.76C1173.73 384.34 1179.58 391.85 1187.5 390.76C1192.21 390.1 1196.83 386.44 1198 381.76C1198.67 379.04 1197.06 372.79 1190.5 365.76C1185.76 360.69 1180.29 356.56 1177.5 355.27C1175.71 354.44 1172.28 353.05 1171 349.77C1169.85 346.82 1170.63 342.82 1173 340.77C1175.99 338.18 1180.39 339.68 1186 340.27C1195.73 341.3 1202.7 338.9 1205.49 336.77C1210.8 332.72 1214.92 324.6 1212.49 317.28C1211.8 315.19 1209.44 309.81 1204.49 308.78C1201.38 308.13 1196.4 310.52 1190 316.78C1183.83 322.81 1180.96 327.78 1176 328.27C1170.59 328.82 1163.97 324.55 1161.5 318.78C1156.66 307.45 1170.47 296.43 1165.5 284.79C1163.52 280.15 1159.51 277.31 1156 276.29C1150.03 274.55 1142.93 277.2 1139.51 281.79C1132.71 290.91 1138.6 310.16 1147.01 321.78C1148.8 324.25 1152.6 329.04 1151.01 332.27C1149.82 334.68 1146.2 335.12 1145.01 335.27Z" />
	<path id="orange flower 11" class="shp3" d="M1186.92 245.47C1188.11 246.44 1188.1 248.97 1186.83 253.42C1185.67 257.46 1183.66 260.42 1183.13 264.21C1182.38 269.52 1183.98 277.38 1189.29 279.31C1192.83 280.6 1197.63 279.12 1199.77 275.92C1200.95 274.16 1201.49 269.77 1199.16 263.59C1197.87 260.19 1196.21 257.67 1196.38 253.73C1196.44 252.51 1196.81 248.64 1198.54 248.18C1200.98 247.53 1205.44 253.89 1210.25 262.05C1212.48 265.82 1214.75 269.96 1218.89 270.68C1222.69 271.34 1227.33 268.98 1229.06 265.13C1231.36 259.99 1227.38 254.49 1225.97 252.8C1222.05 248.09 1216.45 247.51 1209.64 243.86C1203.71 240.68 1201.03 238.14 1201.31 236.16C1201.59 234.27 1204.25 232.86 1208.1 231.84C1214.05 230.26 1218.77 231.85 1223.51 231.22C1229.26 230.46 1233.8 228.43 1235.84 224.75C1239.55 218.05 1235.19 206.16 1227.21 204.1C1220.81 202.44 1213.94 207.59 1210.87 212.73C1208.63 216.47 1208.95 219.78 1206.25 223.83C1205.01 225.68 1201.49 230.34 1198.23 229.68C1196.6 229.35 1194.72 226.95 1193.3 221.98C1192.36 218.7 1192.8 212.46 1190.22 209.03C1187.36 205.23 1181.41 203.41 1177.89 205.33C1172.92 208.03 1172.28 218.42 1176.35 224.44C1179.13 228.56 1185.68 229.78 1186.83 234.61C1187.02 235.42 1187.35 237.53 1186.21 238.62C1184.61 240.16 1180.99 238.79 1176.65 237.08C1171.52 235.05 1168.22 233.86 1164.32 234.31C1159.39 234.88 1153.9 238.02 1153.53 241.7C1152.95 247.67 1165.74 255.36 1172.03 252.18C1173.07 251.66 1173.92 250.48 1174.8 249.72C1176.38 248.37 1179.06 246.5 1182.75 245.47C1184.9 244.87 1186.3 244.97 1186.92 245.47Z" />
	<path id="orange flower 15" class="shp3" d="M2194.67 110.18C2193.95 110.39 2173.88 118.03 2172.46 118.57C2159.91 123.34 2152.75 131.06 2150.74 135.11C2146.53 143.58 2145.59 157.07 2152.71 161.76C2158.54 165.6 2167.25 161.7 2169.99 160.28C2173.65 158.38 2177.45 155.2 2180.85 149.67C2184.43 143.84 2185.45 137.59 2187.76 132.39C2190.71 125.75 2193.56 122.42 2197.14 120.79C2201.16 118.97 2207.16 118.52 2209.97 121.53C2213.49 125.3 2210.49 132.81 2207.26 143.99C2202.9 159.08 2202.32 168.27 2206.27 172.87C2210.1 177.32 2216.86 177.65 2219.6 177.56C2223.61 177.42 2229.32 175.95 2233.18 171.39C2237.93 165.75 2238.33 156.8 2233.67 144.24C2231.62 138.71 2229.11 134.35 2226.27 130.91C2224.56 128.85 2221.29 124.99 2219.6 120.05C2218.97 118.21 2217.28 112.62 2219.11 111.41C2220.91 110.22 2225.91 113.49 2229.23 117.58C2235.64 125.49 2232.71 132.97 2238.85 140.78C2241.77 144.49 2245.92 147.73 2250.7 147.69C2255.07 147.66 2259.62 145.06 2261.32 141.28C2264.68 133.77 2255.73 123.49 2250.95 118.82C2244.98 112.99 2237.22 108.53 2228.98 105.98C2224.03 104.45 2219.71 103.78 2219.35 101.54C2218.92 98.81 2224.53 94.75 2230.46 93.15C2242.02 90.02 2254.38 97.1 2265.51 96.6C2267.48 96.52 2270.59 96.2 2272.92 93.89C2277.05 89.8 2276.47 81.29 2272.92 76.12C2266.78 67.2 2250.86 66.99 2239.84 70.94C2232.19 73.68 2224.52 79.4 2217.63 86.49C2214.88 89.3 2211.85 92.74 2209.73 91.92C2207.19 90.92 2207.65 84.42 2207.75 75.13C2207.85 66.32 2207.26 59.91 2204.79 56.13C2199.27 47.66 2187.51 45.81 2181.84 45.52C2173.18 45.06 2168.2 46.24 2166.78 49.22C2164.27 54.48 2172.58 65.95 2182.82 71.92C2187.71 74.77 2191.89 75.81 2196.15 80.32C2200.82 85.24 2204.09 92.47 2202.08 94.63C2200.01 96.84 2192.59 93.51 2188.01 90.68C2181.76 86.82 2179.81 82.53 2173.69 78.59C2169.75 76.05 2159.15 70.34 2150.98 74.89C2145.92 77.7 2142.02 84.16 2143.33 89.45C2145.55 98.41 2161.58 100.64 2166.04 101.05C2171.48 101.55 2178.13 100.32 2185.29 101.79C2191.4 103.04 2198.33 105.8 2198.13 107.96C2198.01 109.19 2195.63 109.9 2194.67 110.18Z" />
</svg>