<?xml version="1.0" encoding="utf-8"?>
<!-- Generator: Adobe Illustrator 24.2.0, SVG Export Plug-In . SVG Version: 6.00 Build 0)  -->
<svg version="1.1" baseProfile="tiny" id="Calque_1"
	 xmlns="http://www.w3.org/2000/svg" xmlns:xlink="http://www.w3.org/1999/xlink" x="0px" y="0px" viewBox="0 0 170.1 226.8"
   enable-background="0 0 170.1 226.8" width="170.1px" height="226.8px"
	 overflow="visible" xml:space="preserve">
<path d="M117.5,103.7c0,0-3.5,2-6.1,0.1c-2-1.5-4.3-2.1-6.4-1.6c-1.7,0.4-4.2,1.6-6.3,5.5c-0.9,1.7-2.2,2.7-3.8,3.1
	c-2.2,0.5-4.3-0.4-4.8-0.8c-1.1-0.8-3.8-2.1-6.7-1.4c-1.7,0.4-4,1.5-5.8,4.9c-1,1.9-2.4,3.1-4.1,3.5c-1.7,0.4-3.4-0.1-4.4-0.7
	c-1.4-1-4-1.9-6.9-1.3c-2.6,0.5-4.9,2.2-6.6,4.9c-1.3,2.1-2.9,3.3-4.9,3.7c-2.2,0.5-4.2-0.3-4.9-0.8c-0.5-0.4-1.2-0.2-1.6,0.3
	c-0.4,0.5-0.2,1.2,0.3,1.6c0.8,0.6,2.6,1.3,4.8,1.3c0.6,0,1.2-0.1,1.8-0.2c2.5-0.5,4.7-2.1,6.3-4.7c1.4-2.2,3.1-3.5,5.1-3.9
	c2-0.4,4.1,0.2,5.1,0.9c1.3,0.9,3.6,1.7,6.2,1.1c1.6-0.4,3.9-1.5,5.5-4.6c1.1-2.1,2.6-3.4,4.3-3.7c2.1-0.5,4.1,0.5,4.8,1
	c1.1,0.9,3.9,1.8,6.6,1.2c2.3-0.5,4.1-2,5.3-4.2c1.3-2.5,3-4,4.7-4.4c1.5-0.3,3.1,0.1,4.5,1.2c3.8,2.8,8.4,0.2,8.6,0
	c0.5-0.3,0.7-1,0.4-1.6C118.7,103.6,118,103.4,117.5,103.7z"/>
<line fill="none" stroke="#224256" stroke-width="2" stroke-linecap="round" stroke-linejoin="round" stroke-miterlimit="10" x1="17.1" y1="66" x2="19.3" y2="73.6"/>
<line fill="none" stroke="#224256" stroke-width="2" stroke-linecap="round" stroke-linejoin="round" stroke-miterlimit="10" x1="14.4" y1="70.9" x2="22" y2="68.7"/>
<g>
	<path fill="none" d="M13.9,143.2c0.5-0.1,0.9-0.5,1.1-0.9s0.3-1,0.2-1.4c-0.2-0.8-1-1.4-1.8-1.4c-0.2,0-0.3,0-0.5,0.1
		c-0.5,0.1-0.9,0.5-1.1,0.9s-0.3,1-0.2,1.4C11.9,142.9,12.9,143.5,13.9,143.2z"/>
	<path fill="#224256" d="M66,21.1c0.1,0.4,0.5,0.7,1,0.7c0.1,0,0.2,0,0.3,0c0.5-0.2,0.8-0.7,0.7-1.2l-0.8-2.9l-1.9,0.6L66,21.1z"/>
	<path fill="#224256" d="M65.7,12.9c-0.2-0.5-0.7-0.8-1.2-0.7c-0.5,0.2-0.8,0.7-0.7,1.2l0.8,2.9l1.9-0.6L65.7,12.9z"/>
	<path fill="#224256" d="M69.4,14.9l-2.9,0.8l-1.9,0.6l-2.9,0.8c-0.5,0.2-0.8,0.7-0.7,1.2c0.1,0.4,0.5,0.7,1,0.7c0.1,0,0.2,0,0.3,0
		l2.9-0.8l1.9-0.6l2.9-0.8c0.5-0.2,0.8-0.7,0.7-1.2C70.5,15.1,70,14.8,69.4,14.9z"/>
	<path fill="#224256" d="M13.4,145.3c0.4,0,0.7,0,1.1-0.2c1-0.3,1.8-0.9,2.3-1.9c0.5-0.9,0.6-2,0.3-3c-0.6-2.1-2.8-3.3-4.8-2.7
		c-1,0.3-1.8,0.9-2.3,1.9c-0.5,0.9-0.6,2-0.3,3C10.1,144.2,11.7,145.3,13.4,145.3z M11.7,140.5c0.2-0.4,0.6-0.8,1.1-0.9
		c0.2,0,0.3-0.1,0.5-0.1c0.8,0,1.6,0.5,1.8,1.4c0.1,0.5,0.1,1-0.2,1.4s-0.6,0.8-1.1,0.9c-1,0.3-2.1-0.3-2.3-1.3
		C11.4,141.4,11.5,140.9,11.7,140.5z"/>
</g>
<path fill="none" stroke="#224256" stroke-width="2.5" stroke-linecap="round" stroke-linejoin="round" stroke-miterlimit="10" d="
	M57.8,80.2l36.4-6.4 M96.7,85.1l-37.2,6.6l-6.6-37.2L90.1,48L96.7,85.1z"/>
<g>
	<path fill="none" d="M160.7,120.2c-0.2,0-0.3,0-0.5,0.1c-1,0.3-1.6,1.3-1.3,2.3c0.3,1,1.3,1.6,2.3,1.3c1-0.3,1.6-1.3,1.3-2.3
		C162.3,120.8,161.5,120.2,160.7,120.2z"/>
	<path fill="#224256" d="M159.6,118.4c-2.1,0.6-3.3,2.8-2.7,4.8c0.5,1.7,2.1,2.8,3.7,2.8c0.4,0,0.7,0,1.1-0.2
		c2.1-0.6,3.3-2.8,2.7-4.8C163.9,119,161.7,117.8,159.6,118.4z M161.2,123.9c-1,0.3-2.1-0.3-2.3-1.3c-0.3-1,0.3-2.1,1.3-2.3
		c0.2,0,0.3-0.1,0.5-0.1c0.8,0,1.6,0.5,1.8,1.4C162.8,122.6,162.2,123.6,161.2,123.9z"/>
</g>
<line fill="none" stroke="#224256" stroke-width="2" stroke-linecap="round" stroke-linejoin="round" stroke-miterlimit="10" x1="119.5" y1="35" x2="118.9" y2="42.9"/>
<line fill="none" stroke="#224256" stroke-width="2" stroke-linecap="round" stroke-linejoin="round" stroke-miterlimit="10" x1="115.2" y1="38.7" x2="123.2" y2="39.2"/>
<g>
	<path fill="none" d="M26,216.5c0.4,0.2,1,0.3,1.4,0.2l0,0c0.5-0.1,0.9-0.5,1.1-0.9s0.3-1,0.2-1.4c-0.1-0.5-0.5-0.9-0.9-1.1
		c-0.3-0.2-0.6-0.2-0.9-0.2c-0.2,0-0.4,0-0.5,0.1c-0.5,0.1-0.9,0.5-1.1,0.9c-0.2,0.4-0.3,1-0.2,1.4C25.2,215.9,25.6,216.3,26,216.5z
		"/>
	<path fill="none" d="M71.6,56.9c-0.1,0-0.7-0.4-1-0.1c0,0.1,0.1,0.2,0.2,0.3c0.2,0.1,0.7,0.4,1.5,0.6C72.2,57.3,71.9,57,71.6,56.9z
		"/>
	<path fill="#224256" d="M25,218.3c0.6,0.3,1.2,0.5,1.9,0.5c0.4,0,0.7-0.1,1.1-0.2c1-0.3,1.8-0.9,2.3-1.9s0.6-2,0.3-3
		s-0.9-1.8-1.9-2.3c-0.9-0.5-2-0.6-3-0.3c-1,0.3-1.8,0.9-2.3,1.9s-0.6,2-0.3,3C23.5,217,24.1,217.8,25,218.3z M25.3,214
		c0.2-0.4,0.6-0.8,1.1-0.9c0.2,0,0.3-0.1,0.5-0.1c0.3,0,0.6,0.1,0.9,0.2c0.4,0.2,0.8,0.6,0.9,1.1c0.1,0.5,0.1,1-0.2,1.4
		s-0.6,0.8-1.1,0.9l0,0c-0.5,0.1-1,0.1-1.4-0.2c-0.4-0.2-0.8-0.6-0.9-1.1C25,214.9,25,214.4,25.3,214z"/>
	<path fill="#224256" d="M86.8,67.4c-2.6-4.4-8-7.1-13-6.5c0.1-0.5,0.2-1.1,0.3-1.6c0.5-0.1,1-0.3,1.5-0.6c0.3-0.2,1.8-1,2.5-2.7
		c0.2-0.4,0-0.9-0.5-1.1c-0.4-0.2-0.9,0-1.1,0.5c-0.5,1.2-1.7,1.8-1.7,1.8c0,0-0.1,0-0.1,0.1c-0.3,0.2-0.6,0.3-0.8,0.4
		c-0.2-0.9-0.7-1.7-1.7-2.1c-0.7-0.4-2.2-0.8-3.1,0.5c-0.3,0.4-0.6,1.5,0.6,2.6c0.1,0.1,1.1,0.8,2.6,0.9c-0.1,0.7-0.2,1.4-0.4,1.9
		c-5.4,1.5-9.1,6.5-9,12.1c-0.3,0.3-0.8,1-0.9,1.8c0,0.5,0,1.2,0.7,1.9c0.2,0.2,0.4,0.3,0.6,0.3c0.2,0,0.4-0.1,0.6-0.2
		c0.3-0.3,0.4-0.8,0.1-1.2c-0.3-0.4-0.3-0.6-0.3-0.7c0-0.4,0.4-0.8,0.6-0.9c0.2-0.2,0.3-0.4,0.3-0.7c-0.2-5.1,3.2-9.7,8.2-11
		c4.7-1.2,10.3,1.4,12.7,5.8c0.1,0.2,0.4,0.4,0.6,0.4c0.2,0,0.7,0.1,0.9,0.4c0,0.1,0.2,0.3,0.1,0.7c-0.1,0.5,0.2,0.9,0.7,1
		c0.4,0.1,0.9-0.2,1-0.7c0.2-1-0.1-1.7-0.4-2C87.9,67.8,87.3,67.5,86.8,67.4z M70.8,57.1c-0.1-0.1-0.2-0.2-0.2-0.3
		c0.3-0.3,0.9,0.1,1,0.1c0.3,0.1,0.6,0.4,0.7,0.8C71.5,57.5,71,57.2,70.8,57.1z"/>
	<path fill="#224256" d="M72.9,73c0.5-0.1,0.8-0.7,0.7-1.2c-0.1-0.5-0.7-0.8-1.2-0.7c-0.5,0.1-0.8,0.7-0.7,1.2
		C71.8,72.8,72.4,73.1,72.9,73z"/>
	<path fill="#224256" d="M78.3,71.6c0.5-0.1,0.8-0.7,0.7-1.2c-0.1-0.5-0.7-0.8-1.2-0.7c-0.5,0.1-0.8,0.7-0.7,1.2
		C77.3,71.4,77.8,71.8,78.3,71.6z"/>
</g>
<line fill="none" stroke="#224256" stroke-width="2" stroke-linecap="round" stroke-linejoin="round" stroke-miterlimit="10" x1="142.5" y1="101.6" x2="148" y2="87.9"/>
<g>
	<path fill="#EB5C72" d="M145,82.7c0.7,1.7,2,2.9,3.7,3.6c3,1.2,6.3,0.1,8-2.4c-6-1.1-10.2-3.5-12.1-4.9
		C144.4,80.3,144.5,81.5,145,82.7z"/>
	<path fill="#EB5C72" d="M157.6,82c0.5-1.5,0.4-3.1-0.2-4.6c-0.7-1.6-2-2.9-3.7-3.6c-0.8-0.3-1.7-0.5-2.5-0.5
		c-0.9,0-1.8,0.2-2.6,0.5c-1.5,0.6-2.7,1.7-3.4,3.2c1.5,1.1,5.7,3.8,11.9,4.9C157.3,82,157.5,82,157.6,82z M156.7,79.6
		c-0.1,0.5-0.5,0.9-1,0.9c0,0-0.1,0-0.1,0c-0.5-0.1-0.9-0.6-0.9-1.1c0.1-1.1-0.9-1.7-1-1.7c-0.5-0.3-0.6-0.9-0.3-1.4
		c0.3-0.5,0.9-0.6,1.4-0.3C155.6,76.3,156.9,77.7,156.7,79.6z"/>
	<path fill="#224256" d="M158.3,84.1c0,0-0.1,0-0.1,0c-0.5-0.1-0.9-0.1-1.4-0.2c0,0,0,0-0.1,0c-1.8,2.5-5.1,3.6-8,2.4
		c-1.7-0.7-3-1.9-3.7-3.6c-0.5-1.2-0.6-2.4-0.5-3.6c-0.8-0.5-1.2-0.9-1.2-0.9c-0.3-0.3-0.4-0.7-0.3-1c-0.7,2.1-0.7,4.3,0.2,6.4
		c0.9,2.1,2.6,3.8,4.8,4.7c1.1,0.4,2.2,0.6,3.3,0.6c3.3,0,6.5-1.9,7.9-5.1C158.9,84,158.6,84.1,158.3,84.1z"/>
	<path fill="#224256" d="M154.5,72c-2.2-0.9-4.5-0.9-6.7,0.1c-2.1,0.9-3.8,2.6-4.7,4.8c0,0.1,0,0.1-0.1,0.2c0-0.1,0.1-0.2,0.2-0.3
		c0.4-0.4,1-0.5,1.4-0.1c0,0,0.2,0.2,0.6,0.4c0.7-1.4,1.9-2.5,3.4-3.2c0.8-0.4,1.7-0.5,2.6-0.5c0.9,0,1.7,0.2,2.5,0.5
		c1.7,0.7,3,1.9,3.7,3.6c0.6,1.5,0.7,3.1,0.2,4.6c0.3,0,0.5,0.1,0.8,0.1c0.5,0.1,0.9,0.6,0.9,1.1c0,0.1,0,0.2-0.1,0.2
		c0-0.1,0.1-0.1,0.1-0.2C161.1,78.9,158.9,73.8,154.5,72z"/>
	<path fill="#224256" d="M158.4,82.2c-0.3,0-0.5-0.1-0.8-0.1c-0.2,0-0.3-0.1-0.5-0.1c-6.2-1.1-10.4-3.8-11.9-4.9
		c-0.4-0.3-0.6-0.4-0.6-0.4c-0.4-0.4-1.1-0.3-1.4,0.1c-0.1,0.1-0.1,0.2-0.2,0.3c0,0,0,0.1,0,0.1c-0.1,0.4,0,0.8,0.3,1
		c0.1,0,0.5,0.4,1.2,0.9c2,1.3,6.2,3.8,12.1,4.9c0,0,0,0,0.1,0c0.4,0.1,0.9,0.2,1.4,0.2c0,0,0.1,0,0.1,0c0.3,0,0.6-0.2,0.8-0.5
		c0-0.1,0.1-0.1,0.1-0.2c0-0.1,0.1-0.1,0.1-0.2C159.3,82.7,159,82.2,158.4,82.2z"/>
	<path fill="#FFFFFF" d="M154.8,75.8c-0.5-0.3-1.1-0.1-1.4,0.3c-0.3,0.5-0.1,1.1,0.3,1.4c0,0,1.1,0.7,1,1.7
		c-0.1,0.5,0.3,1.1,0.9,1.1c0,0,0.1,0,0.1,0c0.5,0,0.9-0.4,1-0.9C156.9,77.7,155.6,76.3,154.8,75.8z"/>
</g>
</svg>
