<?xml version="1.0" encoding="utf-8"?>
<!-- Generator: Adobe Illustrator 16.0.0, SVG Export Plug-In . SVG Version: 6.00 Build 0) -->
<!DOCTYPE svg PUBLIC "-//W3C//DTD SVG 1.1//EN" "http://www.w3.org/Graphics/SVG/1.1/DTD/svg11.dtd">
<svg version="1.1" id="Calque_1" xmlns="http://www.w3.org/2000/svg" xmlns:xlink="http://www.w3.org/1999/xlink" x="0px" y="0px" width="170.1px" height="226.8px" viewBox="0 0 170.1 226.8" enable-background="new 0 0 170.1 226.8" xml:space="preserve">
	<path d="M117.5,103.7c0,0-3.5,2-6.101,0.1c-2-1.5-4.3-2.1-6.399-1.6c-1.7,0.4-4.2,1.6-6.3,5.5c-0.9,1.7-2.2,2.7-3.801,3.1
	c-2.199,0.5-4.3-0.4-4.8-0.8c-1.1-0.8-3.8-2.1-6.7-1.4c-1.699,0.4-4,1.5-5.8,4.9c-1,1.9-2.399,3.1-4.1,3.5
	c-1.7,0.4-3.4-0.1-4.4-0.699c-1.399-1-4-1.9-6.899-1.301c-2.601,0.5-4.9,2.201-6.601,4.9c-1.3,2.1-2.899,3.301-4.899,3.7
	c-2.2,0.5-4.2-0.3-4.9-0.8c-0.5-0.4-1.2-0.2-1.6,0.3c-0.4,0.5-0.2,1.2,0.3,1.601c0.8,0.6,2.6,1.299,4.8,1.299
	c0.6,0,1.2-0.1,1.8-0.199c2.5-0.5,4.7-2.1,6.3-4.7c1.4-2.2,3.101-3.5,5.101-3.899c2-0.4,4.1,0.199,5.1,0.899
	c1.3,0.899,3.601,1.7,6.2,1.101c1.6-0.4,3.9-1.5,5.5-4.601c1.1-2.1,2.6-3.4,4.3-3.7c2.101-0.5,4.101,0.5,4.8,1
	c1.101,0.9,3.9,1.8,6.601,1.2c2.3-0.5,4.1-2,5.3-4.2c1.3-2.5,3-4,4.7-4.4c1.5-0.3,3.1,0.1,4.5,1.2c3.8,2.8,8.399,0.2,8.6,0
	c0.5-0.3,0.7-1,0.4-1.6C118.7,103.6,118,103.4,117.5,103.7z" />
	<line fill="none" stroke="#224256" stroke-width="2" stroke-linecap="round" stroke-linejoin="round" stroke-miterlimit="10" x1="17.1" y1="66" x2="19.3" y2="73.6" />
	<line fill="none" stroke="#224256" stroke-width="2" stroke-linecap="round" stroke-linejoin="round" stroke-miterlimit="10" x1="14.4" y1="70.9" x2="22" y2="68.7" />
	<g>
		<path fill="none" d="M13.9,143.201c0.5-0.101,0.9-0.5,1.101-0.9s0.3-1,0.2-1.4c-0.2-0.8-1-1.4-1.801-1.4c-0.199,0-0.3,0-0.5,0.101
		c-0.5,0.101-0.899,0.5-1.1,0.899c-0.2,0.4-0.3,1-0.2,1.4C11.9,142.9,12.9,143.5,13.9,143.201z" />
		<path fill="#224256" d="M66,21.1c0.1,0.4,0.5,0.7,1,0.7c0.1,0,0.2,0,0.3,0c0.5-0.2,0.8-0.7,0.7-1.2l-0.8-2.9l-1.9,0.6L66,21.1z" />
		<path fill="#224256" d="M65.7,12.9c-0.2-0.5-0.7-0.8-1.2-0.7c-0.5,0.2-0.8,0.7-0.7,1.2l0.8,2.9l1.9-0.6L65.7,12.9z" />
		<path fill="#224256" d="M69.4,14.9L66.5,15.7l-1.9,0.6L61.7,17.1c-0.5,0.2-0.801,0.7-0.7,1.2c0.1,0.4,0.5,0.7,1,0.7
		c0.1,0,0.2,0,0.3,0l2.9-0.8l1.899-0.6l2.9-0.8c0.5-0.2,0.8-0.7,0.7-1.2C70.5,15.1,70,14.8,69.4,14.9z" />
		<path fill="#224256" d="M13.4,145.3c0.4,0,0.7,0,1.101-0.2c1-0.3,1.8-0.899,2.3-1.899c0.5-0.9,0.6-2,0.3-3
		c-0.6-2.101-2.8-3.301-4.8-2.701c-1,0.301-1.8,0.9-2.3,1.9c-0.5,0.9-0.601,2-0.3,3C10.1,144.201,11.7,145.3,13.4,145.3z
		 M11.7,140.5c0.199-0.399,0.6-0.799,1.1-0.899c0.2,0,0.3-0.101,0.5-0.101c0.8,0,1.6,0.5,1.8,1.4c0.101,0.5,0.101,1-0.2,1.4
		c-0.3,0.4-0.6,0.8-1.1,0.9c-1,0.299-2.1-0.301-2.3-1.301C11.4,141.4,11.5,140.9,11.7,140.5z" />
	</g>
	<g>
		<path fill="none" d="M160.7,120.201c-0.2,0-0.301,0-0.5,0.1c-1,0.3-1.601,1.3-1.301,2.3c0.301,1,1.301,1.601,2.301,1.3
		c1-0.3,1.6-1.3,1.3-2.3C162.3,120.8,161.5,120.201,160.7,120.201z" />
		<path fill="#224256" d="M159.6,118.4c-2.1,0.6-3.3,2.801-2.7,4.801C157.4,124.9,159,126,160.6,126c0.4,0,0.7,0,1.101-0.199
		c2.1-0.6,3.3-2.801,2.699-4.801C163.9,119,161.7,117.8,159.6,118.4z M161.2,123.9c-1,0.301-2.101-0.3-2.301-1.3
		c-0.3-1,0.301-2.101,1.301-2.3c0.199,0,0.3-0.1,0.5-0.1c0.8,0,1.6,0.5,1.8,1.399C162.8,122.6,162.2,123.6,161.2,123.9z" />
	</g>
	<line fill="none" stroke="#224256" stroke-width="2" stroke-linecap="round" stroke-linejoin="round" stroke-miterlimit="10" x1="119.5" y1="35" x2="118.9" y2="42.9" />
	<line fill="none" stroke="#224256" stroke-width="2" stroke-linecap="round" stroke-linejoin="round" stroke-miterlimit="10" x1="115.2" y1="38.7" x2="123.2" y2="39.2" />
	<line fill="none" stroke="#224256" stroke-width="2" stroke-linecap="round" stroke-linejoin="round" stroke-miterlimit="10" x1="142.5" y1="101.6" x2="148" y2="87.9" />
	<g>
		<path fill="#FAEB9A" d="M145,82.7c0.7,1.7,2,2.9,3.7,3.6c3,1.2,6.3,0.1,8-2.4c-6-1.1-10.2-3.5-12.101-4.9
		C144.4,80.3,144.5,81.5,145,82.7z" />
		<path fill="#FAEB9A" d="M157.6,82c0.5-1.5,0.4-3.1-0.2-4.6c-0.699-1.6-2-2.9-3.699-3.6c-0.801-0.3-1.7-0.5-2.5-0.5
		c-0.9,0-1.801,0.2-2.601,0.5c-1.5,0.6-2.7,1.7-3.399,3.2c1.5,1.1,5.699,3.8,11.899,4.9C157.3,82,157.5,82,157.6,82z M156.7,79.6
		c-0.101,0.5-0.5,0.9-1,0.9H155.6c-0.5-0.1-0.899-0.6-0.899-1.1c0.1-1.1-0.9-1.7-1-1.7c-0.5-0.3-0.601-0.9-0.301-1.4
		c0.301-0.5,0.9-0.6,1.4-0.3C155.6,76.3,156.9,77.7,156.7,79.6z" />
		<path fill="#224256" d="M158.3,84.1h-0.1c-0.5-0.1-0.9-0.1-1.4-0.2c0,0,0,0-0.1,0c-1.801,2.5-5.101,3.6-8,2.4
		c-1.7-0.7-3-1.9-3.7-3.6c-0.5-1.2-0.601-2.4-0.5-3.6c-0.8-0.5-1.2-0.9-1.2-0.9c-0.3-0.3-0.4-0.7-0.3-1c-0.7,2.1-0.7,4.3,0.2,6.4
		c0.899,2.1,2.6,3.8,4.8,4.7c1.1,0.4,2.2,0.6,3.3,0.6c3.3,0,6.5-1.9,7.9-5.1C158.9,84,158.6,84.1,158.3,84.1z" />
		<path fill="#224256" d="M154.5,72c-2.2-0.9-4.5-0.9-6.7,0.1c-2.1,0.9-3.8,2.6-4.7,4.8c0,0.1,0,0.1-0.1,0.2c0-0.1,0.1-0.2,0.2-0.3
		c0.399-0.4,1-0.5,1.399-0.1c0,0,0.2,0.2,0.601,0.4c0.699-1.4,1.899-2.5,3.399-3.2c0.8-0.4,1.7-0.5,2.601-0.5
		c0.899,0,1.699,0.2,2.5,0.5c1.699,0.7,3,1.9,3.699,3.6c0.601,1.5,0.7,3.1,0.2,4.6c0.3,0,0.5,0.1,0.8,0.1c0.5,0.1,0.9,0.6,0.9,1.1
		c0,0.1,0,0.2-0.1,0.2c0-0.1,0.1-0.1,0.1-0.2C161.1,78.9,158.9,73.8,154.5,72z" />
		<path fill="#224256" d="M158.4,82.2c-0.3,0-0.5-0.1-0.8-0.1c-0.2,0-0.3-0.1-0.5-0.1c-6.2-1.1-10.399-3.8-11.899-4.9
		c-0.4-0.3-0.601-0.4-0.601-0.4c-0.399-0.4-1.1-0.3-1.399,0.1c-0.101,0.1-0.101,0.2-0.2,0.3v0.1c-0.101,0.4,0,0.8,0.3,1
		c0.1,0,0.5,0.4,1.2,0.9c2,1.3,6.2,3.8,12.1,4.9c0,0,0,0,0.101,0c0.399,0.1,0.899,0.2,1.399,0.2h0.101c0.3,0,0.6-0.2,0.8-0.5
		c0-0.1,0.1-0.1,0.1-0.2s0.101-0.1,0.101-0.2C159.3,82.7,159,82.2,158.4,82.2z" />
		<path fill="#FFFFFF" d="M154.8,75.8c-0.5-0.3-1.1-0.1-1.4,0.3c-0.3,0.5-0.1,1.1,0.301,1.4c0,0,1.1,0.7,1,1.7
		c-0.101,0.5,0.3,1.1,0.899,1.1h0.101c0.5,0,0.899-0.4,1-0.9C156.9,77.7,155.6,76.3,154.8,75.8z" />
	</g>
	<g>
		<path fill="#224256" d="M47.674,82.166l5.108,15.905c0.176,0.548,0.742,0.858,1.264,0.69l15.114-4.854c0.521-0.167,0.802-0.748,0.625-1.297
		l-5.108-15.905c-0.176-0.548-0.742-0.857-1.264-0.69l-15.114,4.854C47.777,81.036,47.497,81.617,47.674,82.166z M49.882,82.552
		l13.225-4.247l4.469,13.917l-13.225,4.247L49.882,82.552z" />
		<path fill="#224256" d="M98.033,60.509L79.14,66.577l-7.343-22.863c-0.177-0.549-0.742-0.858-1.264-0.691l-22.671,7.282
		c-0.522,0.168-0.802,0.749-0.626,1.297l7.343,22.863l-11.336,3.641c-0.521,0.167-0.802,0.749-0.625,1.297l7.662,23.857
		c0.176,0.55,0.742,0.859,1.264,0.691l22.671-7.282c0.521-0.167,0.801-0.748,0.625-1.297l-7.343-22.863l7.557-2.427l7.343,22.863
		c0.176,0.549,0.742,0.857,1.264,0.69l22.671-7.281c0.522-0.168,0.802-0.748,0.625-1.297L99.297,61.2
		C99.12,60.65,98.554,60.341,98.033,60.509z M72.633,94.985l-20.783,6.674L44.826,79.79l20.782-6.674L72.633,94.985z M56.469,73.858
		l-7.024-21.869l20.782-6.674l7.023,21.868L56.469,73.858z M104.75,84.669l-20.782,6.674l-7.023-21.869L97.726,62.8L104.75,84.669z" />
		<path fill="#224256" d="M84.9,87.755c0.177,0.549,0.742,0.858,1.264,0.691l15.114-4.854c0.521-0.168,0.802-0.749,0.625-1.297L96.794,66.39
		c-0.176-0.549-0.741-0.859-1.264-0.691l-15.113,4.854c-0.522,0.168-0.802,0.749-0.626,1.297L84.9,87.755z M82,72.238l13.225-4.248
		l4.47,13.917l-13.226,4.248L82,72.238z" />
		<path fill="#224256" d="M68.031,48.213l-15.115,4.854c-0.521,0.168-0.801,0.749-0.625,1.297l5.107,15.905c0.177,0.549,0.743,0.858,1.264,0.691
		l15.114-4.854c0.522-0.168,0.802-0.749,0.626-1.297l-5.108-15.904C69.119,48.354,68.552,48.046,68.031,48.213z M72.195,64.421
		L58.97,68.668L54.5,54.752l13.226-4.248L72.195,64.421z" />
		<path fill="#224256" d="M58.078,82.114l-3.779,1.214c-0.521,0.167-0.802,0.748-0.625,1.297l2.554,7.952c0.177,0.548,0.742,0.858,1.264,0.69
		l3.779-1.213c1.561-0.493,2.404-2.225,1.884-3.866c-0.236-0.746-0.729-1.381-1.383-1.778c0.661-1.549-0.024-3.401-1.53-4.135
		C59.556,81.941,58.784,81.883,58.078,82.114z M60.632,90.066l-2.834,0.91l-0.638-1.988l2.833-0.91
		c0.522-0.168,1.088,0.142,1.264,0.691C61.433,89.317,61.153,89.898,60.632,90.066z M59.355,86.09L56.52,87l-0.638-1.988l2.833-0.91
		c0.522-0.168,1.088,0.142,1.264,0.691C60.156,85.341,59.876,85.922,59.355,86.09z" />
		<path fill="#224256" d="M60.711,65.807c0.546,0.095,1.048-0.286,1.124-0.852c0.001-0.001,0.001-0.001,0.001-0.001l0.372-2.809l3.556-1.142
		l1.936,2.061c0.391,0.417,1.023,0.434,1.411,0.039c0.389-0.396,0.386-1.054-0.005-1.47l0,0l-6.333-6.739
		c-0.436-0.401-1.092-0.368-1.464,0.075c-0.113,0.133-0.19,0.294-0.227,0.469l-1.224,9.166c-0.078,0.565,0.301,1.103,0.846,1.202
		C60.706,65.806,60.708,65.806,60.711,65.807z M62.784,57.833l1.396,1.485l-1.667,0.535L62.784,57.833z" />
		<path fill="#224256" d="M92.724,73.18c0.521-0.167,0.801-0.749,0.625-1.297c-0.176-0.549-0.742-0.859-1.265-0.691l-5.667,1.82
		c-0.521,0.167-0.803,0.749-0.626,1.297l2.555,7.953c0.177,0.549,0.742,0.858,1.264,0.691l5.668-1.82
		c0.521-0.168,0.802-0.749,0.625-1.298c-0.176-0.548-0.742-0.858-1.264-0.69l-4.724,1.517l-0.638-1.988L94,77.156
		c0.522-0.168,0.802-0.749,0.625-1.297c-0.176-0.549-0.741-0.859-1.264-0.691l-4.724,1.517L88,74.697L92.724,73.18z" />
	</g>
</svg>
