<?xml version="1.0" encoding="utf-8"?>
<!-- Generator: Adobe Illustrator 16.0.0, SVG Export Plug-In . SVG Version: 6.00 Build 0)  -->
<!DOCTYPE svg PUBLIC "-//W3C//DTD SVG 1.1//EN" "http://www.w3.org/Graphics/SVG/1.1/DTD/svg11.dtd">
<svg version="1.1" id="Layer_1" xmlns="http://www.w3.org/2000/svg" xmlns:xlink="http://www.w3.org/1999/xlink" x="0px" y="0px"
	 width="375px" height="312.5px" viewBox="12.5 189.75 375 312.5" enable-background="new 12.5 189.75 375 312.5"
	 xml:space="preserve">
<g>
	<path d="M37.5,371v100c0,3.452,2.798,6.25,6.25,6.25h100c3.452,0,6.25-2.798,6.25-6.25V371c0-3.452-2.798-6.25-6.25-6.25h-100
		C40.298,364.75,37.5,367.548,37.5,371z M50,377.25h87.5v87.5H50V377.25z"/>
	<path d="M381.25,339.75h-125V196c0-3.452-2.799-6.25-6.25-6.25H100c-3.452,0-6.25,2.798-6.25,6.25v143.75h-75
		c-3.452,0-6.25,2.798-6.25,6.25v150c0,3.452,2.798,6.25,6.25,6.25h150c3.452,0,6.25-2.798,6.25-6.25V352.25h50V496
		c0,3.452,2.799,6.25,6.25,6.25h150c3.452,0,6.25-2.798,6.25-6.25V346C387.5,342.548,384.702,339.75,381.25,339.75z M162.5,489.75
		H25v-137.5h137.5V489.75z M106.25,339.75v-137.5h137.5v137.5H106.25z M375,489.75H237.5v-137.5H375V489.75z"/>
	<path d="M250,471c0,3.452,2.799,6.25,6.25,6.25h100c3.452,0,6.25-2.798,6.25-6.25V371c0-3.452-2.798-6.25-6.25-6.25h-100
		c-3.451,0-6.25,2.798-6.25,6.25V471z M262.5,377.25H350v87.5h-87.5V377.25z"/>
	<path d="M225,214.75H125c-3.452,0-6.25,2.798-6.25,6.25v100c0,3.452,2.798,6.25,6.25,6.25h100c3.451,0,6.25-2.798,6.25-6.25V221
		C231.25,217.548,228.451,214.75,225,214.75z M218.75,314.75h-87.5v-87.5h87.5V314.75z"/>
	<path d="M100,389.75H75c-3.452,0-6.25,2.798-6.25,6.25v50c0,3.452,2.798,6.25,6.25,6.25h25
		c10.311,0.046,18.706-8.275,18.751-18.586c0.021-4.684-1.72-9.204-4.876-12.664c6.949-7.617,6.406-19.426-1.211-26.374
		C109.204,391.47,104.684,389.729,100,389.75z M100,439.75H81.25v-12.5H100c3.452,0,6.25,2.798,6.25,6.25S103.452,439.75,100,439.75
		z M100,414.75H81.25v-12.5H100c3.452,0,6.25,2.799,6.25,6.25S103.452,414.75,100,414.75z"/>
	<path d="M147.206,301.625c3.087,1.543,6.842,0.292,8.385-2.795c0.001-0.001,0.001-0.003,0.002-0.004l7.644-15.325h23.525
		l7.644,15.294c1.543,3.089,5.298,4.343,8.388,2.8c3.089-1.543,4.343-5.298,2.8-8.388l0,0l-25-50
		c-1.842-3.089-5.839-4.101-8.929-2.258c-0.929,0.554-1.705,1.33-2.259,2.258l-25,50c-1.558,3.081-0.323,6.84,2.758,8.398
		C147.178,301.611,147.192,301.618,147.206,301.625z M175,259.975L180.513,271h-11.025L175,259.975z"/>
	<path d="M325,402.25c3.452,0,6.25-2.799,6.25-6.25c0-3.452-2.798-6.25-6.25-6.25h-37.5c-3.451,0-6.25,2.798-6.25,6.25v50
		c0,3.452,2.799,6.25,6.25,6.25H325c3.452,0,6.25-2.798,6.25-6.25s-2.798-6.25-6.25-6.25h-31.25v-12.5H325
		c3.452,0,6.25-2.798,6.25-6.25c0-3.451-2.798-6.25-6.25-6.25h-31.25v-12.5H325z"/>
</g>
</svg>
