<svg version="1.1" id="Guestbook" xmlns="http://www.w3.org/2000/svg" xmlns:xlink="http://www.w3.org/1999/xlink" x="0px" y="0px" width="292px" height="453.5px" viewBox="0 0 292 453.5" enable-background="new 0 0 292 453.5" xml:space="preserve">
	<g>
		<defs>
			<rect id="SVGID_1_" x="64" y="162.7" width="191.7" height="270.5" />
		</defs>
		<clipPath id="SVGID_2_">
			<use xlink:href="#SVGID_1_" overflow="visible" />
		</clipPath>
		<path clip-path="url(#SVGID_2_)" fill="none" stroke="#000000" stroke-width="2.287" stroke-linecap="round" stroke-linejoin="round" stroke-miterlimit="10" d="
		M172.8,266.8c0,0-4.1,2.4-7.3,0c-3.2-2.4-7.7-2.5-11,3.6c-3,5.6-8.9,3.7-10.2,2.7c-1.8-1.4-7.4-3.3-10.8,3.1
		c-2.9,5.4-8,4.6-10.1,3.2c-2.1-1.5-8-2.8-11.9,3.3c-3.9,6.1-9.6,4.4-11.3,3.3" />
	</g>
	<line fill="none" stroke="#224257" stroke-width="2" stroke-linecap="round" stroke-linejoin="round" stroke-miterlimit="10" x1="124.2" y1="224.4" x2="126.4" y2="232" />
	<line fill="none" stroke="#224257" stroke-width="2" stroke-linecap="round" stroke-linejoin="round" stroke-miterlimit="10" x1="121.5" y1="229.3" x2="129.1" y2="227.1" />
	<line fill="none" stroke="#224257" stroke-width="2" stroke-linecap="round" stroke-linejoin="round" stroke-miterlimit="10" x1="191.3" y1="373.5" x2="193.5" y2="381.1" />
	<line fill="none" stroke="#224257" stroke-width="2" stroke-linecap="round" stroke-linejoin="round" stroke-miterlimit="10" x1="188.6" y1="378.4" x2="196.2" y2="376.2" />
	<g>
		<defs>
			<rect id="SVGID_3_" x="64" y="162.7" width="191.7" height="270.5" />
		</defs>
		<clipPath id="SVGID_4_">
			<use xlink:href="#SVGID_3_" overflow="visible" />
		</clipPath>
		<circle clip-path="url(#SVGID_4_)" fill="none" stroke="#224257" stroke-width="2" stroke-miterlimit="10" cx="207.3" cy="219.5" r="2.9" />
		<circle clip-path="url(#SVGID_4_)" fill="none" stroke="#224257" stroke-width="2" stroke-miterlimit="10" cx="99" cy="412.7" r="2.9" />
		<path clip-path="url(#SVGID_4_)" fill="none" stroke="#224257" stroke-width="2.011" stroke-linecap="round" stroke-linejoin="round" stroke-miterlimit="10" d="
		M149.8,170.1c-0.6,0.6-1.5,0.6-2,0c-0.6-0.6-0.6-1.5,0-2c0.6-0.6,3-1,3-1C150.6,167.9,150.4,169.5,149.8,170.1z M175,167.8
		l-3.7,0.1 M155.7,163.7l3.3,1.6 M174.2,183.5c-1.4,6.6-7.9,10.9-14.6,9.5c-6.6-1.4-10.9-7.9-9.5-14.6L174.2,183.5z" />
		<path clip-path="url(#SVGID_4_)" fill="#224257" d="M180.8,410c0,0.7-0.5,1.2-1.2,1.2c-0.7,0-1.2-0.5-1.2-1.2
		c0-0.7,0.5-1.2,1.2-1.2C180.3,408.8,180.8,409.4,180.8,410" />
		<path clip-path="url(#SVGID_4_)" fill="#224257" d="M187.6,410c0,0.7-0.5,1.2-1.2,1.2c-0.7,0-1.2-0.5-1.2-1.2
		c0-0.7,0.5-1.2,1.2-1.2C187.1,408.8,187.6,409.4,187.6,410" />
		<path clip-path="url(#SVGID_4_)" fill="none" stroke="#224257" stroke-width="2.011" stroke-linecap="round" stroke-linejoin="round" stroke-miterlimit="10" d="
		M183,432.2c-8.8,0-15.9-7.1-15.9-15.9" />
		<path clip-path="url(#SVGID_4_)" fill="#224257" d="M75.8,231.2c0.2,0.6-0.1,1.3-0.7,1.5s-1.3-0.1-1.5-0.7s0.1-1.3,0.7-1.5
		C74.9,230.3,75.6,230.6,75.8,231.2" />
		<path clip-path="url(#SVGID_4_)" fill="#224257" d="M82.2,229c0.2,0.6-0.1,1.3-0.7,1.5c-0.6,0.2-1.3-0.1-1.5-0.7
		c-0.2-0.6,0.1-1.3,0.7-1.5C81.3,228,82,228.3,82.2,229" />
		<path clip-path="url(#SVGID_4_)" fill="none" stroke="#224257" stroke-width="2.011" stroke-linecap="round" stroke-linejoin="round" stroke-miterlimit="10" d="
		M95,231c3,8.3-1.4,17.4-9.6,20.3c-8.3,3-17.4-1.4-20.3-9.6" />
		<path clip-path="url(#SVGID_4_)" fill="#224257" d="M245.1,295.7c0,0.7-0.5,1.2-1.2,1.2c-0.7,0-1.2-0.5-1.2-1.2
		c0-0.7,0.5-1.2,1.2-1.2C244.6,294.5,245.1,295,245.1,295.7" />
		<path clip-path="url(#SVGID_4_)" fill="#224257" d="M251.9,295.7c0,0.7-0.5,1.2-1.2,1.2c-0.7,0-1.2-0.5-1.2-1.2
		c0-0.7,0.5-1.2,1.2-1.2C251.4,294.5,251.9,295,251.9,295.7" />
		<circle clip-path="url(#SVGID_4_)" fill="none" stroke="#224257" stroke-width="2.011" stroke-linecap="round" stroke-linejoin="round" stroke-miterlimit="10" cx="247.7" cy="312.1" r="6.9" />
	</g>
</svg>
