<svg version="1.1" id="Calque_1" xmlns="http://www.w3.org/2000/svg" xmlns:xlink="http://www.w3.org/1999/xlink" x="0px" y="0px" width="421px" height="541.3px" viewBox="0 0 421 541.3" enable-background="new 0 0 421 541.3" xml:space="preserve">
	<g>
		<path fill="#ACDDF0" d="M216,115.1c-1.8-6.6-7.8-11.4-15-11.4c-8.6,0-15.5,6.9-15.5,15.5s6.9,15.5,15.5,15.5h18.3
		c5.5,0,9.9-4.4,9.9-9.9c0-5.5-4.4-9.9-9.9-9.9L216,115.1z" />
		<path fill="#224257" d="M216,115.1l1-0.3c-1.9-7-8.3-12.2-16-12.2c-9.1,0-16.5,7.4-16.5,16.5c0,9.1,7.4,16.5,16.5,16.5h18.3
		c6,0,10.9-4.9,10.9-10.9c0-6-4.9-10.9-10.9-10.9h0l-3.4,0.2L216,115.1l1-0.3L216,115.1l0.1,1l3.3-0.2l-0.1-1v1c2.5,0,4.7,1,6.3,2.6
		c1.6,1.6,2.6,3.8,2.6,6.3c0,2.5-1,4.7-2.6,6.3c-1.6,1.6-3.8,2.6-6.3,2.6h-18.3c-4,0-7.6-1.6-10.2-4.2c-2.6-2.6-4.2-6.2-4.2-10.2
		c0-4,1.6-7.6,4.2-10.2c2.6-2.6,6.2-4.2,10.2-4.2c6.7,0,12.3,4.5,14,10.7l0.2,0.8l0.8-0.1L216,115.1z" />
		<path fill="#FFFFFF" d="M199.9,109c0,0-0.1,0-0.2,0c-0.6,0-2.6,0.1-4.7,1.4c-1.1,0.7-2.1,1.6-3,3c-0.9,1.4-1.5,3.2-1.8,5.5
		c-0.1,0.6,0.3,1.1,0.9,1.1c0.6,0.1,1.1-0.3,1.1-0.9c0.3-2,0.8-3.5,1.5-4.6c1-1.7,2.3-2.5,3.5-2.9c1.2-0.5,2.2-0.5,2.4-0.5l0.1,0h0
		l0-0.5l0,0.5h0l0-0.5l0,0.5c0.6,0,1.1-0.4,1.1-1C200.9,109.5,200.5,109,199.9,109z" />
		<path fill="#EB5D72" d="M32.1,13.3c0.5-0.3-16.2,8.4-16.2,8.4" />
		<path fill="#224257" d="M32.7,14.2L32.7,14.2l0.2-0.1c0,0,0.1-0.1,0.1-0.1c0,0,0.1-0.1,0.1-0.2c0-0.1,0.1-0.2,0.1-0.4
		c0-0.1,0-0.2,0-0.3c0-0.1,0-0.2-0.1-0.3c-0.1-0.1-0.1-0.2-0.3-0.3c-0.1-0.1-0.3-0.2-0.6-0.2c-0.2,0-0.2,0-0.3,0c-0.1,0-0.1,0-0.1,0
		c-0.1,0-0.1,0-0.1,0c-0.1,0-0.2,0.1-0.3,0.2c-2.3,1.2-15.9,8.3-15.9,8.3c-0.5,0.3-0.7,0.9-0.4,1.4c0.3,0.5,0.9,0.7,1.4,0.4
		c0,0,1-0.5,2.5-1.3c2.3-1.2,5.7-3,8.5-4.4c1.4-0.7,2.7-1.4,3.6-1.9c0.5-0.2,0.8-0.4,1.1-0.6c0.1-0.1,0.2-0.1,0.3-0.2l0.1,0l0,0
		l-0.3-0.6l0.2,0.6l0,0l-0.3-0.6l0.2,0.6l-0.4-0.9l0.3,0.9l0.1,0l-0.4-0.9l0.3,0.9l-0.3-1l0.3,1l0.1,0l-0.3-1l0.3,1l-0.3-1l0.2,1
		l0.1,0l-0.3-1l0.2,1l-0.2-1v1c0.1,0,0.1,0,0.2,0l-0.2-1v1v-1l-0.6,0.8c0.1,0.1,0.3,0.2,0.6,0.2v-1l-0.6,0.8l0.6-0.8l-0.9,0.4
		c0,0.1,0.1,0.2,0.3,0.4l0.6-0.8l-0.9,0.4l0.9-0.4l-1,0.2c0,0.1,0,0.1,0.1,0.3l0.9-0.4l-1,0.2l1-0.2h-1c0,0.1,0,0.1,0,0.2l1-0.2h-1
		h1l-0.9-0.4c0,0.1-0.1,0.2-0.1,0.4h1l-0.9-0.4l0.9,0.4l-0.7-0.7c0,0-0.1,0.1-0.2,0.3l0.9,0.4l-0.7-0.7l0.7,0.7l-0.6-0.8
		c0,0-0.1,0-0.1,0.1l0.7,0.7l-0.6-0.8l0.6,0.7l-0.5-0.8l-0.1,0l0.6,0.7l-0.5-0.8c-0.5,0.3-0.6,0.9-0.3,1.4
		C31.6,14.4,32.2,14.5,32.7,14.2z" />
		<path fill="#EB5D72" d="M38.2,12c0,2.4-1.9,4.3-4.3,4.3c-2.4,0-4.3-1.9-4.3-4.3c0-2.4,1.9-4.3,4.3-4.3C36.3,7.7,38.2,9.6,38.2,12" />
		<path fill="#224257" d="M38.2,12h-1c0,0.9-0.4,1.7-1,2.3c-0.6,0.6-1.4,1-2.3,1c-0.9,0-1.7-0.4-2.3-1c-0.6-0.6-1-1.4-1-2.3
		c0-0.9,0.4-1.7,1-2.3c0.6-0.6,1.4-1,2.3-1c0.9,0,1.7,0.4,2.3,1c0.6,0.6,1,1.4,1,2.3H38.2h1c0-3-2.4-5.4-5.4-5.4
		c-3,0-5.4,2.4-5.4,5.4c0,3,2.4,5.4,5.4,5.4c3,0,5.4-2.4,5.4-5.4H38.2z" />
		<path fill="#EB5D72" d="M127.3,8.8c0.5-0.3-16.2,8.4-16.2,8.4" />
		<path fill="#224257" d="M127.8,9.6L127.8,9.6l0.1-0.1c0,0,0.1-0.1,0.1-0.1c0,0,0.1-0.1,0.1-0.2c0-0.1,0.1-0.2,0.1-0.4
		c0-0.1,0-0.1,0-0.3c0-0.1,0-0.2-0.1-0.3c-0.1-0.1-0.1-0.2-0.3-0.3c-0.1-0.1-0.4-0.2-0.6-0.2c-0.2,0-0.2,0-0.3,0c-0.1,0-0.1,0-0.1,0
		c-0.1,0-0.1,0-0.1,0c-0.1,0-0.2,0.1-0.3,0.2c-2.3,1.2-15.9,8.3-15.9,8.3c-0.5,0.3-0.7,0.9-0.4,1.4c0.3,0.5,0.9,0.7,1.4,0.4
		c0,0,1-0.5,2.5-1.3c2.3-1.2,5.7-3,8.5-4.4c1.4-0.7,2.7-1.4,3.6-1.9c0.5-0.2,0.8-0.4,1.1-0.6c0.1-0.1,0.2-0.1,0.3-0.2l0.1,0l0,0
		l-0.3-0.6l0.2,0.6l0,0l-0.3-0.6l0.2,0.6l-0.4-0.9l0.3,0.9l0.1,0l-0.4-0.9l0.3,0.9l-0.3-1l0.3,1l0.1,0l-0.3-1l0.3,1l-0.3-1l0.2,1
		l0.1,0l-0.3-1l0.2,1l-0.2-1v1c0.1,0,0.1,0,0.2,0l-0.2-1v1v-1l-0.6,0.8c0.1,0.1,0.4,0.2,0.6,0.2v-1l-0.6,0.8l0.6-0.8l-0.9,0.4
		c0,0.1,0.1,0.2,0.3,0.4l0.6-0.8l-0.9,0.4l0.9-0.4l-1,0.1c0,0.1,0,0.1,0.1,0.3l0.9-0.4l-1,0.1l1-0.1h-1l0,0.1l1-0.1h-1h1l-0.9-0.4
		c0,0.1-0.1,0.2-0.1,0.4h1l-0.9-0.4l0.9,0.4L126.6,8c0,0-0.1,0.1-0.2,0.3l0.9,0.4L126.6,8l0.7,0.7l-0.6-0.8c0,0-0.1,0-0.1,0.1
		l0.7,0.7l-0.6-0.8l0.6,0.7l-0.5-0.8l-0.1,0l0.6,0.7l-0.5-0.8c-0.5,0.3-0.6,0.9-0.3,1.4C126.7,9.8,127.4,9.9,127.8,9.6z" />
		<path fill="#FAEB9A" d="M133.4,7.4c0,2.4-1.9,4.3-4.3,4.3c-2.4,0-4.3-1.9-4.3-4.3c0-2.4,1.9-4.3,4.3-4.3
		C131.4,3.1,133.4,5,133.4,7.4" />
		<path fill="#224257" d="M133.4,7.4h-1c0,0.9-0.4,1.7-1,2.3c-0.6,0.6-1.4,1-2.3,1c-0.9,0-1.7-0.4-2.3-1c-0.6-0.6-1-1.4-1-2.3
		c0-0.9,0.4-1.7,1-2.3c0.6-0.6,1.4-1,2.3-1c0.9,0,1.7,0.4,2.3,1c0.6,0.6,1,1.4,1,2.3H133.4h1c0-3-2.4-5.4-5.4-5.4
		c-3,0-5.4,2.4-5.4,5.4c0,3,2.4,5.4,5.4,5.4c3,0,5.4-2.4,5.4-5.4H133.4z" />
		<path fill="#ACDDF0" d="M126.9,74.4c0,5.1-4.2,9.3-9.3,9.3c-5.1,0-9.3-4.2-9.3-9.3c0-5.1,4.2-9.3,9.3-9.3
		C122.8,65.1,126.9,69.3,126.9,74.4" />
		<path fill="#224257" d="M126.9,74.4h-1c0,2.3-0.9,4.4-2.4,5.9c-1.5,1.5-3.6,2.4-5.9,2.4c-2.3,0-4.4-0.9-5.9-2.4
		c-1.5-1.5-2.4-3.6-2.4-5.9c0-2.3,0.9-4.4,2.4-5.9c1.5-1.5,3.6-2.4,5.9-2.4c2.3,0,4.4,0.9,5.9,2.4c1.5,1.5,2.4,3.6,2.4,5.9H126.9h1
		c0-5.7-4.6-10.3-10.3-10.3c-5.7,0-10.3,4.6-10.3,10.3c0,5.7,4.6,10.3,10.3,10.3c5.7,0,10.3-4.6,10.3-10.3H126.9z" />
		<path fill="#ACDDF0" d="M117.8,82.5c0.2-5.4-4-9.9-9.4-10c-5.4-0.2-9.9,4-10,9.4c-0.1,2.2,0.6,4.3,1.8,6l-0.5,1.2
		c-0.8,2.2-1.3,4.5-1.3,7c0,10.6,8.6,19.2,19.2,19.2s19.2-8.6,19.2-19.2c0-2.9-0.6-5.6-1.8-8" />
		<path fill="#224257" d="M118.8,82.6c0-0.1,0-0.2,0-0.4c0-5.8-4.6-10.5-10.4-10.7h0c-0.1,0-0.2,0-0.4,0c-5.8,0-10.5,4.6-10.7,10.4
		c0,0.1,0,0.2,0,0.4c0,2.3,0.7,4.5,2,6.3l0.8-0.6l-0.9-0.4l-0.5,1.2l0,0c-0.9,2.3-1.4,4.8-1.4,7.3c0,11.2,9.1,20.3,20.3,20.3
		c11.2,0,20.3-9.1,20.3-20.3c0-3-0.7-5.9-1.8-8.5c-0.2-0.5-0.8-0.7-1.4-0.5c-0.5,0.2-0.7,0.8-0.5,1.4c1.1,2.3,1.7,4.9,1.7,7.6
		c0,5-2,9.6-5.3,12.9c-3.3,3.3-7.8,5.3-12.9,5.3c-5,0-9.6-2-12.9-5.3c-3.3-3.3-5.3-7.8-5.3-12.9c0-2.3,0.4-4.6,1.2-6.6l-1-0.4
		l0.9,0.4l0.8-1.8l-0.3-0.5c-1-1.4-1.6-3.2-1.6-5.1c0-0.1,0-0.2,0-0.3c0.2-4.7,4-8.4,8.7-8.4c0.1,0,0.2,0,0.3,0h0
		c4.7,0.2,8.4,4,8.4,8.7c0,0.1,0,0.2,0,0.3c0,0.6,0.4,1,1,1.1C118.3,83.6,118.8,83.1,118.8,82.6z" />
		<path fill="#ACDDF0" d="M123,94.4c-2-1-3.6-2.6-4.5-4.6c-0.6-1.4-1-2.9-0.9-4.5c0.2-5.4,4.7-9.6,10-9.4c5.4,0.2,9.6,4.7,9.4,10" />
		<path fill="#224257" d="M123.5,93.5c-1.8-0.9-3.2-2.3-4-4.1c-0.5-1.1-0.8-2.4-0.8-3.7c0-0.1,0-0.2,0-0.3c0.2-4.7,4-8.4,8.7-8.4
		c0.1,0,0.2,0,0.3,0l0,0c4.7,0.2,8.4,4,8.4,8.7c0,0.1,0,0.2,0,0.3c0,0.6,0.4,1,1,1.1c0.6,0,1-0.4,1.1-1c0-0.1,0-0.2,0-0.4
		c0-5.8-4.6-10.5-10.4-10.7l0,0c-0.1,0-0.3,0-0.4,0c-5.8,0-10.5,4.6-10.7,10.4c0,0.1,0,0.2,0,0.4c0,1.6,0.4,3.2,1,4.6
		c1,2.2,2.8,4,5,5c0.5,0.3,1.1,0,1.4-0.5C124.2,94.4,124,93.7,123.5,93.5z" />
		<path fill="#224257" d="M118.5,121.7V105c0-0.6-0.5-1-1-1c-0.6,0-1,0.5-1,1v16.7c0,0.6,0.5,1,1,1
		C118.1,122.7,118.5,122.2,118.5,121.7" />
		<path fill="#EB5D72" d="M163.3,82.1c0,10.6-8.6,19.2-19.2,19.2s-19.2-8.6-19.2-19.2c0-10.6,8.6-32.3,19.2-32.3
		S163.3,71.5,163.3,82.1" />
		<path fill="#224257" d="M163.3,82.1h-1c0,5-2,9.6-5.3,12.9c-3.3,3.3-7.8,5.3-12.9,5.3c-5,0-9.6-2-12.9-5.3
		c-3.3-3.3-5.3-7.8-5.3-12.9c0-2.5,0.5-5.8,1.5-9.3c1.4-5.2,3.8-10.8,6.8-15c1.5-2.1,3.1-3.9,4.8-5.1c1.7-1.2,3.4-1.9,5.1-1.9
		c1.2,0,2.3,0.3,3.4,0.8c2,1,3.9,2.8,5.7,5.1c2.7,3.5,5,8.2,6.6,12.8c1.6,4.6,2.5,9.2,2.5,12.5H163.3h1c0-2.8-0.6-6.2-1.5-9.8
		c-1.5-5.4-4-11.2-7.1-15.7c-1.6-2.3-3.3-4.2-5.3-5.6c-1.9-1.4-4.1-2.3-6.3-2.3c-1.5,0-3,0.4-4.3,1.1c-2.4,1.2-4.5,3.2-6.5,5.7
		c-2.9,3.7-5.2,8.6-6.9,13.4c-1.6,4.8-2.6,9.5-2.6,13.2c0,11.2,9.1,20.3,20.3,20.3c11.2,0,20.3-9.1,20.3-20.3H163.3z" />
		<path fill="#224257" d="M145.1,126.3v-25V61.2c0-0.6-0.5-1-1-1c-0.6,0-1,0.5-1,1c0,23.7,0,40.1,0,40.1v25c0,0.6,0.5,1,1,1
		C144.6,127.4,145.1,126.9,145.1,126.3z" />
		<path fill="#224257" d="M144,74.8l0,0.6L144,74.8L144,74.8l0,0.6L144,74.8c0,0-0.1,0-0.2,0c-0.4-0.1-1.5-0.3-2.5-0.9
		c-0.5-0.3-1-0.8-1.5-1.4c-0.4-0.6-0.8-1.4-1.1-2.4c-0.1-0.6-0.7-0.9-1.2-0.8c-0.6,0.1-0.9,0.7-0.8,1.2c0.3,1.5,1,2.6,1.7,3.5
		c1.1,1.3,2.5,2,3.5,2.4c1.1,0.4,1.9,0.4,1.9,0.4c0.6,0,1.1-0.4,1.1-1C145,75.3,144.6,74.8,144,74.8z" />
		<path fill="#224257" d="M144.8,87.5c0,0,1.6-0.8,3.1-2.1c0.8-0.7,1.6-1.5,2.2-2.5c0.6-1,1.1-2.2,1.1-3.5c0-0.1,0-0.2,0-0.3
		c0-0.6-0.5-1-1.1-1c-0.6,0-1,0.5-1,1.1c0,0.1,0,0.1,0,0.2c0,0.9-0.3,1.7-0.8,2.4c-0.7,1.1-1.8,2.2-2.8,2.8
		c-0.5,0.3-0.9,0.6-1.2,0.8c-0.2,0.1-0.3,0.2-0.4,0.2l-0.1,0l0,0l0,0c-0.5,0.3-0.7,0.9-0.5,1.4C143.7,87.6,144.3,87.8,144.8,87.5z" />
		<path fill="#224257" d="M143.9,93.6l-0.1,0.4L143.9,93.6L143.9,93.6l-0.1,0.4L143.9,93.6c0,0-1.5-0.4-2.9-1.5
		c-0.7-0.6-1.4-1.3-1.9-2.4c-0.5-1-0.9-2.3-0.9-4c0-0.1,0-0.1,0-0.2c0-0.6-0.4-1-1-1c-0.6,0-1,0.4-1,1c0,0.1,0,0.2,0,0.3
		c0,2,0.4,3.6,1.1,5c1,2,2.6,3.2,3.9,3.9c1.3,0.7,2.3,1,2.3,1c0.6,0.1,1.1-0.2,1.2-0.8C144.8,94.3,144.5,93.8,143.9,93.6" />
		<path fill="#FFFFFF" d="M107,76.8c-0.1,0-1.1,0.4-2.3,1.3c-0.6,0.5-1.1,1-1.6,1.8c-0.5,0.7-0.8,1.7-0.8,2.7c0,0.5,0.1,1.1,0.2,1.6
		c0.2,0.5,0.7,0.9,1.3,0.7c0.5-0.2,0.9-0.7,0.7-1.3c-0.1-0.4-0.2-0.8-0.2-1.1c0-0.6,0.2-1.2,0.5-1.7c0.4-0.7,1.1-1.3,1.8-1.7
		c0.3-0.2,0.6-0.3,0.8-0.4c0.1,0,0.2-0.1,0.2-0.1l0.1,0l0,0l-0.1-0.3l0.1,0.3l0,0l-0.1-0.3l0.1,0.3c0.5-0.2,0.8-0.8,0.6-1.3
		C108.1,76.9,107.5,76.6,107,76.8z" />
		<path fill="#FFFFFF" d="M115.6,71.5l-0.2-0.3L115.6,71.5L115.6,71.5l-0.2-0.3L115.6,71.5c0,0,0.2-0.2,0.6-0.3
		c0.3-0.2,0.8-0.3,1.3-0.3c0.5,0,1.1,0.1,1.8,0.6c0.5,0.3,1.1,0.2,1.4-0.2c0.3-0.5,0.2-1.1-0.2-1.4c-1-0.7-2.1-1-3-1
		c-0.9,0-1.7,0.3-2.2,0.5c-0.5,0.3-0.9,0.5-0.9,0.5c-0.4,0.4-0.5,1-0.2,1.4C114.5,71.8,115.1,71.9,115.6,71.5z" />
		<path fill="#FFFFFF" d="M147.6,57.7L147.6,57.7c0.1,0.1,4.6,4.2,7.7,16.2c0.1,0.5,0.7,0.9,1.3,0.7c0.5-0.1,0.9-0.7,0.7-1.3
		c-3.4-12.7-8.2-17-8.4-17.2c-0.4-0.4-1.1-0.3-1.5,0.1C147.1,56.7,147.2,57.4,147.6,57.7z" />
		<path fill="#FAEB9A" d="M144.4,34.9c0-1.6,1.3-2.9,2.9-2.9c1.6,0,2.9,1.3,2.9,2.9l2.7,1l-2.4,1.8v1.7c0,0-0.9,5.8-7.2,5.8h-6.8
		L144.4,34.9z" />
		<path fill="#224257" d="M144.4,34.9h1c0-1,0.8-1.9,1.9-1.9c1,0,1.9,0.8,1.9,1.9c0,0.4,0.3,0.8,0.7,1l0.9,0.4l-0.9,0.7
		c-0.3,0.2-0.4,0.5-0.4,0.8v1.7h1l-1-0.2l0.1,0l-0.1,0l0.1,0l-0.1,0c0,0.1-0.3,1.4-1.2,2.6c-0.4,0.6-1,1.2-1.8,1.6
		c-0.8,0.4-1.8,0.7-3.2,0.7h-4.7l6.7-8.6c0.1-0.2,0.2-0.4,0.2-0.6H144.4l-0.8-0.6l-8,10.3c-0.2,0.3-0.3,0.7-0.1,1.1
		c0.2,0.4,0.5,0.6,0.9,0.6h6.8c1.7,0,3.1-0.4,4.3-1c1.7-0.9,2.7-2.3,3.2-3.5c0.6-1.1,0.7-2,0.7-2.1l0-0.2v-1.2l2-1.5
		c0.3-0.2,0.5-0.6,0.4-1c0-0.4-0.3-0.7-0.6-0.8l-2.6-1l-0.4,1h1c0-2.2-1.8-3.9-3.9-3.9c-2.2,0-3.9,1.8-3.9,3.9H144.4l-0.8-0.6
		L144.4,34.9z" />
		<path fill="#224257" d="M142.7,45.1v6.2c0,0.6,0.5,1,1,1c0.6,0,1-0.5,1-1v-6.2c0-0.6-0.5-1-1-1C143.1,44.1,142.7,44.6,142.7,45.1" />
	</g>
	<polyline fill="#ACDDF0" points="59.1,46.2 67.3,53.8 71.7,44.2 " />
	<g>
		<defs>
			<rect id="SVGID_1_" x="5" y="0.9" width="413" height="467.9" />
		</defs>
		<clipPath id="SVGID_2_">
			<use xlink:href="#SVGID_1_" overflow="visible" />
		</clipPath>
		<path clip-path="url(#SVGID_2_)" fill="#224257" d="M58.4,47l8.3,7.5c0.2,0.2,0.6,0.3,0.9,0.2c0.3-0.1,0.6-0.3,0.7-0.6l4.4-9.6
		c0.2-0.5,0-1.1-0.5-1.4c-0.5-0.2-1.1,0-1.4,0.5L67,52.1l-7.2-6.6c-0.4-0.4-1.1-0.4-1.5,0.1C57.9,46,58,46.6,58.4,47z" />
		<path clip-path="url(#SVGID_2_)" fill="#EB5D72" d="M97.7,31.4c-3.8,3.4-9.3,6.4-10.6,7.1l10.6,3.4L97.7,31.4z" />
		<path clip-path="url(#SVGID_2_)" fill="#224257" d="M97.7,31.4L97,30.6c-1.8,1.6-4.1,3.2-6.1,4.5c-2,1.2-3.7,2.2-4.3,2.5
		c-0.4,0.2-0.6,0.6-0.5,1c0,0.4,0.3,0.8,0.7,0.9l10.6,3.4c0.3,0.1,0.7,0,0.9-0.1c0.3-0.2,0.4-0.5,0.4-0.8l0-10.5
		c0-0.4-0.2-0.8-0.6-0.9c-0.4-0.2-0.8-0.1-1.1,0.2L97.7,31.4l-1,0l0,9.1l-9.3-3l-0.3,1l0.5,0.9c0.6-0.4,2.4-1.3,4.4-2.6
		c2-1.3,4.4-2.9,6.4-4.7L97.7,31.4l-1,0L97.7,31.4z" />
	</g>
	<polyline fill="#ACDDF0" points="119.4,29.5 118.7,40.6 129.9,37.9 " />
	<g>
		<path fill="#224257" d="M118.4,29.4l-0.7,11.2c0,0.3,0.1,0.6,0.4,0.9c0.3,0.2,0.6,0.3,0.9,0.2l11.1-2.7c0.6-0.1,0.9-0.7,0.8-1.2
		c-0.1-0.6-0.7-0.9-1.2-0.8l-9.8,2.4l0.6-9.8c0-0.6-0.4-1.1-1-1.1C118.9,28.4,118.4,28.8,118.4,29.4z" />
		<path fill="#224257" d="M15.1,21.3c0,0.1,2.8,6.1,10.2,12.1c7.4,6,19.6,12,38.3,12c2.5,0,5.1-0.1,7.9-0.3l0,0
		c0.1,0,5.7-0.8,13.6-4.6c7.9-3.8,18-10.6,27.1-22.8l-0.8-0.6l-1,0.3c0,0.1,1.5,4.1,5.7,9.4c4.2,5.3,11.2,11.7,22.2,16.6
		c0.5,0.2,1.1,0,1.4-0.5c0.2-0.5,0-1.1-0.5-1.4c-10.7-4.7-17.3-10.9-21.4-16c-2-2.5-3.4-4.7-4.2-6.3c-0.4-0.8-0.7-1.4-0.9-1.8
		c-0.1-0.2-0.2-0.4-0.2-0.5l0-0.1l0,0l0,0l-0.3,0.1l0.3-0.1l0,0l-0.3,0.1l0.3-0.1c-0.1-0.4-0.4-0.6-0.8-0.7c-0.4-0.1-0.8,0.1-1,0.4
		c-8.8,11.9-18.7,18.5-26.3,22.2c-3.8,1.8-7.1,2.9-9.4,3.6c-1.2,0.3-2.1,0.5-2.7,0.6c-0.3,0.1-0.5,0.1-0.7,0.1c-0.1,0-0.1,0-0.2,0
		l0,0l0,0l0.1,1l-0.1-1c-2.7,0.2-5.3,0.3-7.7,0.3c-18.2,0-29.8-5.8-37-11.5c-3.6-2.9-6-5.7-7.5-7.9c-0.8-1.1-1.3-2-1.7-2.6
		c-0.2-0.3-0.3-0.5-0.4-0.7c0-0.1-0.1-0.1-0.1-0.2l0,0l0,0l-0.2,0.1l0.2-0.1l0,0l-0.2,0.1l0.2-0.1c-0.2-0.5-0.8-0.7-1.4-0.5
		C15.1,20.2,14.9,20.8,15.1,21.3z" />
		<path fill="#FFFFFF" d="M103.9,1.1c-0.1,0-0.8,0.6-1.5,1.6c-0.7,1-1.5,2.5-1.5,4.5c0,1.2,0.3,2.6,1.1,4c0.3,0.5,0.9,0.7,1.4,0.4
		s0.7-0.9,0.4-1.4c-0.6-1.2-0.8-2.2-0.8-3.1c0-1.4,0.5-2.5,1.1-3.2c0.3-0.4,0.6-0.7,0.8-0.9c0.1-0.1,0.2-0.2,0.2-0.2l0.1,0l0,0
		l-0.2-0.3l0.2,0.3l0,0l-0.2-0.3l0.2,0.3c0.5-0.3,0.6-1,0.2-1.4C105,0.9,104.3,0.8,103.9,1.1z" />
		<path fill="#224257" d="M211.3,30.3h-1c0,0.7-0.3,1.3-0.7,1.8c-0.5,0.5-1.1,0.7-1.8,0.7c-0.7,0-1.3-0.3-1.8-0.7
		c-0.5-0.5-0.7-1.1-0.7-1.8c0-0.7,0.3-1.3,0.7-1.8c0.5-0.5,1.1-0.7,1.8-0.7c0.7,0,1.3,0.3,1.8,0.7c0.5,0.5,0.7,1.1,0.7,1.8H211.3h1
		c0-2.5-2.1-4.6-4.6-4.6c-2.5,0-4.6,2.1-4.6,4.6c0,2.5,2.1,4.6,4.6,4.6c2.5,0,4.6-2.1,4.6-4.6H211.3z" />
		<path fill="#224257" d="M405.5,68h-1c0,0.7-0.3,1.3-0.7,1.8c-0.5,0.5-1.1,0.7-1.8,0.7c-0.7,0-1.3-0.3-1.8-0.7
		c-0.5-0.5-0.7-1.1-0.7-1.8c0-0.7,0.3-1.3,0.7-1.8c0.5-0.5,1.1-0.7,1.8-0.7c0.7,0,1.3,0.3,1.8,0.7c0.5,0.5,0.7,1.1,0.7,1.8H405.5h1
		c0-2.5-2.1-4.6-4.6-4.6c-2.5,0-4.6,2.1-4.6,4.6c0,2.5,2.1,4.6,4.6,4.6c2.5,0,4.6-2.1,4.6-4.6H405.5z" />
		<path fill="#224257" d="M362,103.9c0.4,0.5,1,1.1,1.8,1.6c0.8,0.5,1.8,0.8,3,0.9c0.8,0,1.6-0.2,2.4-0.5c0.8-0.4,1.6-1,2.4-1.8
		c0.6-0.6,1.1-1,1.7-1.2c0.5-0.2,1-0.3,1.5-0.3c0.6,0,1.2,0.2,1.7,0.4c0.5,0.3,0.9,0.6,1.1,0.9c0.4,0.4,1,0.5,1.4,0.2
		c0.4-0.4,0.5-1,0.2-1.4c-0.4-0.5-1.1-1-1.8-1.4c-0.8-0.4-1.7-0.6-2.6-0.6c-0.8,0-1.6,0.2-2.3,0.5c-0.8,0.4-1.6,0.9-2.3,1.7
		c-0.6,0.7-1.2,1.1-1.8,1.3c-0.5,0.3-1.1,0.3-1.5,0.3c-0.7,0-1.4-0.2-2-0.6c-0.6-0.3-1-0.8-1.2-1c-0.3-0.5-1-0.6-1.4-0.2
		C361.7,102.8,361.6,103.5,362,103.9z" />
		<path fill="#224257" d="M342.3,111.1l-0.1-0.4L342.3,111.1L342.3,111.1l-0.1-0.4L342.3,111.1c0,0,0.5-0.1,1.2-0.1
		c0.5,0,1,0.1,1.5,0.2c0.5,0.2,0.9,0.5,1.3,1c0.5,0.7,1.2,1.3,1.9,1.8c0.8,0.4,1.7,0.7,2.6,0.7c0.9,0,1.7-0.2,2.6-0.7
		c0.9-0.4,1.8-1.1,2.6-2c0.5-0.5,1-0.8,1.4-1c0.5-0.2,0.9-0.3,1.4-0.3c0.7,0,1.5,0.2,2.1,0.6c0.3,0.2,0.5,0.3,0.7,0.5
		c0.2,0.2,0.3,0.3,0.4,0.4c0.4,0.5,1,1.1,1.8,1.6c0.8,0.5,1.8,0.8,3,0.9c0.8,0,1.6-0.2,2.4-0.5c0.8-0.4,1.6-1,2.4-1.8
		c0.6-0.6,1.1-1,1.7-1.2c0.5-0.2,1-0.3,1.5-0.3c0.6,0,1.2,0.2,1.7,0.4c0.5,0.3,0.9,0.6,1.1,0.9c0.5,0.6,1.1,1.1,2,1.6
		c0.9,0.5,2,0.8,3.2,0.8c1.6,0,3.4-0.6,5.1-2.2c1.4-1.2,2.6-1.6,3.6-1.6c0.8,0,1.5,0.2,2.1,0.5c0.6,0.3,1,0.7,1.2,0.9
		c0.4,0.4,1,0.5,1.4,0.1c0.4-0.4,0.5-1,0.1-1.4c-0.4-0.5-1-1-1.9-1.4c-0.8-0.4-1.9-0.8-3.1-0.8c-1.5,0-3.3,0.6-5,2.1
		c-1.4,1.2-2.6,1.6-3.8,1.6c-0.8,0-1.6-0.2-2.2-0.6c-0.6-0.3-1.1-0.7-1.4-1c-0.4-0.5-1-1-1.8-1.4c-0.8-0.4-1.7-0.6-2.6-0.6
		c-0.8,0-1.6,0.2-2.3,0.5c-0.8,0.4-1.6,0.9-2.3,1.7c-0.6,0.7-1.2,1.1-1.8,1.3s-1,0.3-1.5,0.4c-0.7,0-1.4-0.2-2-0.6
		c-0.6-0.3-1-0.8-1.2-1c-0.2-0.3-0.4-0.5-0.7-0.7c-0.4-0.4-1-0.7-1.7-1c-0.7-0.3-1.5-0.5-2.4-0.5c-0.7,0-1.4,0.1-2.2,0.4
		c-0.7,0.3-1.4,0.8-2.1,1.5c-0.7,0.8-1.4,1.3-2.1,1.6c-0.6,0.3-1.2,0.4-1.7,0.4c-0.6,0-1.1-0.2-1.6-0.4c-0.5-0.3-0.9-0.7-1.3-1.2
		c-0.6-0.8-1.4-1.4-2.2-1.7c-0.8-0.3-1.6-0.4-2.2-0.4c-1,0-1.6,0.2-1.7,0.2c-0.5,0.1-0.9,0.7-0.7,1.3
		C341.1,110.9,341.7,111.3,342.3,111.1z" />
		<path fill="#224257" d="M346.2,120.3c0.5,0.7,1.2,1.3,1.9,1.8c0.8,0.4,1.7,0.7,2.6,0.7c0.8,0,1.7-0.2,2.6-0.7
		c0.9-0.4,1.8-1.1,2.6-2c0.5-0.5,1-0.8,1.4-1c0.5-0.2,0.9-0.3,1.3-0.3c0.7,0,1.5,0.2,2.1,0.6c0.3,0.2,0.5,0.3,0.7,0.5
		c0.2,0.2,0.3,0.3,0.4,0.4c0.4,0.5,1,1.1,1.8,1.6c0.8,0.5,1.8,0.8,3,0.8c0.8,0,1.6-0.2,2.4-0.5c0.8-0.4,1.6-1,2.4-1.8
		c0.6-0.6,1.1-1,1.7-1.2c0.5-0.2,1-0.3,1.5-0.3c0.6,0,1.2,0.2,1.7,0.4c0.5,0.3,0.9,0.6,1.1,0.9c0.4,0.4,1,0.5,1.4,0.2
		c0.4-0.4,0.5-1,0.2-1.4c-0.4-0.5-1-1-1.8-1.4c-0.8-0.4-1.7-0.6-2.6-0.6c-0.8,0-1.6,0.2-2.3,0.5c-0.8,0.4-1.6,0.9-2.3,1.7
		c-0.6,0.7-1.2,1.1-1.8,1.3c-0.5,0.3-1,0.3-1.5,0.4c-0.7,0-1.4-0.2-2-0.6c-0.6-0.3-1-0.8-1.2-1c-0.2-0.3-0.4-0.5-0.7-0.7
		c-0.4-0.4-1-0.7-1.7-1c-0.7-0.3-1.5-0.5-2.4-0.5c-0.7,0-1.4,0.1-2.2,0.4c-0.7,0.3-1.5,0.8-2.1,1.5c-0.7,0.8-1.4,1.3-2.1,1.6
		c-0.6,0.3-1.2,0.4-1.7,0.4c-0.6,0-1.1-0.2-1.6-0.4c-0.5-0.3-0.9-0.7-1.3-1.2c-0.3-0.5-1-0.5-1.4-0.2
		C346,119.2,345.9,119.9,346.2,120.3z" />
	</g>
	<rect x="343.9" y="79.2" transform="matrix(-0.5396 0.8419 -0.8419 -0.5396 612.018 -174.2014)" fill="#224257" width="19.5" height="2.1" />
	<rect x="324.6" y="79.8" transform="matrix(0.5684 0.8228 -0.8228 0.5684 210.6016 -239.7955)" fill="#224257" width="18.5" height="2.1" />
	<g>
		<defs>
			<rect id="SVGID_3_" x="5" y="0.9" width="413" height="467.9" />
		</defs>
		<clipPath id="SVGID_4_">
			<use xlink:href="#SVGID_3_" overflow="visible" />
		</clipPath>
		<path clip-path="url(#SVGID_4_)" fill="#FFFFFF" d="M347.8,88.2h-8.3c-0.1,0-0.1,0-0.2,0l-0.3,0.2c-0.1,0.1-0.1,0.2-0.1,0.4v6.8
		c0,0.3,0.3,0.6,0.6,0.6h8.3c0.3,0,0.6-0.3,0.6-0.6v-6.8C348.4,88.5,348.1,88.2,347.8,88.2" />
		<path clip-path="url(#SVGID_4_)" d="M339.4,88.2c-0.1,0-0.2,0.1-0.3,0.2L339.4,88.2z" />
		<path clip-path="url(#SVGID_4_)" fill="#EB5D72" d="M361.8,62c0,10.2-8.3,18.5-18.5,18.5c-10.2,0-18.5-8.3-18.5-18.5
		c0-10.2,8.3-18.5,18.5-18.5C353.6,43.5,361.8,51.8,361.8,62" />
		<path clip-path="url(#SVGID_4_)" fill="#224257" d="M361.8,62h-1c0,4.8-2,9.2-5.1,12.4c-3.2,3.2-7.5,5.1-12.4,5.1s-9.2-2-12.4-5.1
		c-3.2-3.2-5.1-7.5-5.1-12.4c0-4.8,2-9.2,5.1-12.4c3.2-3.2,7.5-5.1,12.4-5.1c4.8,0,9.2,2,12.4,5.1c3.2,3.2,5.1,7.5,5.1,12.4H361.8h1
		c0-10.8-8.7-19.5-19.5-19.5s-19.5,8.7-19.5,19.5c0,10.8,8.7,19.5,19.5,19.5c10.8,0,19.5-8.7,19.5-19.5H361.8z" />
		<path clip-path="url(#SVGID_4_)" fill="#224257" d="M344.7,88.2v-7.7c0-0.6-0.5-1-1-1s-1,0.5-1,1v7.7c0,0.6,0.5,1,1,1
		S344.7,88.8,344.7,88.2" />
		<path clip-path="url(#SVGID_4_)" fill="#224257" d="M347.8,96.1v-1h-8.3v0.4h0.4c0-0.3-0.2-0.4-0.4-0.4v0.4h0.4v-6.8h-0.4v0.4
		c0.2,0,0.4-0.2,0.4-0.4h-0.4v0.4h8.3v-0.4h-0.4c0,0.2,0.2,0.4,0.4,0.4v-0.4h-0.4v6.8h0.4v-0.4c-0.3,0-0.4,0.2-0.4,0.4h0.4v-0.4
		V96.1v1c0.9,0,1.6-0.7,1.6-1.6v-6.8c0-0.9-0.7-1.6-1.6-1.6h-8.3c-0.9,0-1.6,0.7-1.6,1.6v6.8c0,0.9,0.7,1.6,1.6,1.6h8.3V96.1z" />
		<path clip-path="url(#SVGID_4_)" fill="#FFFFFF" d="M345.4,52.9l0.1-0.3L345.4,52.9L345.4,52.9l0.1-0.3L345.4,52.9
		c0,0,1.9,0.4,4,1.7c2.1,1.3,4.4,3.6,5.6,7.5c0.2,0.5,0.7,0.9,1.3,0.7c0.5-0.2,0.9-0.7,0.7-1.3c-1.3-4.5-4.1-7.2-6.6-8.7
		c-2.4-1.5-4.5-1.9-4.6-1.9c-0.6-0.1-1.1,0.3-1.2,0.8C344.5,52.3,344.9,52.8,345.4,52.9z" />
		<path clip-path="url(#SVGID_4_)" fill="#ACDDF0" d="M309.3,93.4c-1.2-4.4-5.2-7.7-10-7.7c-5.7,0-10.4,4.7-10.4,10.4
		c0,5.7,4.7,10.4,10.4,10.4h12.3c3.7,0,6.6-3,6.6-6.6s-3-6.6-6.6-6.6L309.3,93.4z" />
		<path clip-path="url(#SVGID_4_)" fill="#224257" d="M309.3,93.4l1-0.3c-1.3-4.8-5.8-8.4-11-8.4c-6.3,0-11.4,5.1-11.4,11.4
		c0,6.3,5.1,11.4,11.4,11.4h12.3c4.2,0,7.7-3.4,7.7-7.7c0-4.2-3.4-7.7-7.7-7.7h0l-2.3,0.2L309.3,93.4l1-0.3L309.3,93.4l0.1,1
		l2.2-0.2l-0.1-1v1c1.6,0,3,0.6,4,1.6c1,1,1.6,2.4,1.6,4c0,1.6-0.6,3-1.6,4c-1,1-2.4,1.6-4,1.6h-12.3c-2.6,0-4.9-1-6.6-2.7
		c-1.7-1.7-2.7-4-2.7-6.6c0-2.6,1-4.9,2.7-6.6c1.7-1.7,4-2.7,6.6-2.7c4.3,0,8,2.9,9,6.9l0.2,0.8l0.8-0.1L309.3,93.4z" />
		<path clip-path="url(#SVGID_4_)" fill="#FFFFFF" d="M296.5,90.1c-0.1,0-0.8,0.6-1.5,1.6c-0.7,1-1.5,2.5-1.5,4.5
		c0,1.2,0.3,2.6,1.1,4c0.3,0.5,0.9,0.7,1.4,0.4c0.5-0.3,0.7-0.9,0.4-1.4c-0.6-1.2-0.8-2.2-0.8-3.1c0-1.4,0.5-2.5,1.1-3.2
		c0.3-0.4,0.6-0.7,0.8-0.9c0.1-0.1,0.2-0.2,0.2-0.2l0.1,0l0,0l-0.2-0.3l0.2,0.3l0,0l-0.2-0.3l0.2,0.3c0.5-0.3,0.6-1,0.2-1.4
		C297.6,89.9,297,89.8,296.5,90.1z" />
		<path clip-path="url(#SVGID_4_)" fill="#FAEB9A" d="M213.5,74.5c0.1-9.4,7.8-16.9,17.2-16.8c9.4,0.1,16.9,7.8,16.8,17.2" />
		<path clip-path="url(#SVGID_4_)" fill="#224257" d="M214.6,74.5c0.1-8.8,7.2-15.8,16-15.8c0.1,0,0.1,0,0.2,0h0
		c8.8,0.1,15.8,7.2,15.8,16c0,0.1,0,0.1,0,0.2c0,0.6,0.5,1,1,1c0.6,0,1-0.5,1-1c0-0.1,0-0.1,0-0.2c0-9.9-8-17.9-17.9-18.1l0,1l0-1
		c-0.1,0-0.2,0-0.2,0c-9.9,0-17.9,8-18.1,17.9c0,0.6,0.4,1,1,1C214.1,75.5,214.6,75.1,214.6,74.5z" />
		<path clip-path="url(#SVGID_4_)" fill="#FFFFFF" d="M237.4,67c2,1.9,3.2,4.3,3.6,6.9c0.1,0.6,0.6,1,1.2,0.9c0.6-0.1,1-0.6,0.9-1.2
		c-0.4-3-1.8-5.9-4.2-8.1c-0.4-0.4-1.1-0.4-1.5,0C237,66,237,66.6,237.4,67z" />
		<path clip-path="url(#SVGID_4_)" fill="#224257" d="M231.9,48.7l0.1-8.3c0-0.6-0.4-1-1-1c-0.6,0-1,0.4-1,1l-0.1,8.3
		c0,0.6,0.4,1,1,1C231.4,49.7,231.9,49.3,231.9,48.7" />
		<path clip-path="url(#SVGID_4_)" fill="#224257" d="M255.7,53.1l-6.9,4.5c-0.5,0.3-0.6,0.9-0.3,1.4c0.3,0.5,0.9,0.6,1.4,0.3
		l6.9-4.5c0.5-0.3,0.6-0.9,0.3-1.4C256.8,52.9,256.2,52.8,255.7,53.1" />
		<path clip-path="url(#SVGID_4_)" fill="#224257" d="M204,54.3l6.8,4.7c0.5,0.3,1.1,0.2,1.4-0.3c0.3-0.5,0.2-1.1-0.3-1.4l-6.8-4.7
		c-0.5-0.3-1.1-0.2-1.4,0.3C203.4,53.3,203.6,53.9,204,54.3" />
		<path clip-path="url(#SVGID_4_)" fill="#224257" d="M265.9,74.8l-68.4-0.8c-0.6,0-1,0.4-1,1c0,0.6,0.4,1,1,1l68.4,0.8
		c0.6,0,1-0.4,1-1C267,75.3,266.5,74.8,265.9,74.8" />
		<path clip-path="url(#SVGID_4_)" fill="#224257" d="M245.3,91.8l17.3,0.2c0.6,0,1-0.4,1-1c0-0.6-0.4-1-1-1l-17.3-0.2
		c-0.6,0-1,0.4-1,1C244.3,91.3,244.7,91.8,245.3,91.8" />
		<path clip-path="url(#SVGID_4_)" fill="#224257" d="M205.3,88.5l-7.9-0.1c-0.6,0-1,0.4-1,1c0,0.6,0.4,1,1,1l7.9,0.1
		c0.6,0,1-0.4,1-1C206.3,89,205.8,88.5,205.3,88.5" />
		<path clip-path="url(#SVGID_4_)" fill="#224257" d="M224.1,86.1l3.9,0c0.6,0,1-0.4,1-1c0-0.6-0.4-1-1-1l-3.9,0c-0.6,0-1,0.4-1,1
		C223.1,85.6,223.6,86.1,224.1,86.1" />
		<path clip-path="url(#SVGID_4_)" fill="#224257" d="M224,103.4l13.4,0.1c0.6,0,1-0.4,1-1c0-0.6-0.4-1-1-1l-13.4-0.1
		c-0.6,0-1,0.4-1,1C222.9,102.9,223.4,103.3,224,103.4" />
	</g>
</svg>
