<svg version="1.1" id="Calque_1" xmlns="http://www.w3.org/2000/svg" xmlns:xlink="http://www.w3.org/1999/xlink" x="0px" y="0px" viewBox="0 0 92.7 330" style="enable-background:new 0 0 92.7 330;" xml:space="preserve">
	<path style="fill:#FFFFFF;" d="M-7.9,272.2l4.6,3.6c3.5,2.7,8.6,2.1,11.3-1.4l15.3-19.6c2.2-2.8,1.7-6.9-1.1-9l-7.1-5.5
	c-2.8-2.2-6.9-1.7-9,1.1l-15.3,19.6C-12,264.4-11.4,269.4-7.9,272.2" />
	<path style="fill:#224257;" d="M-7.9,272.2l-0.6,0.8l4.6,3.6c1.6,1.3,3.6,1.9,5.6,1.9c2.7,0,5.4-1.2,7.2-3.5l15.3-19.6
	c1.1-1.4,1.6-3,1.6-4.6c0-2.2-1-4.4-2.9-5.9l-7.1-5.5c-1.4-1.1-3-1.6-4.6-1.6c-2.2,0-4.4,1-5.9,2.9l-15.3,19.6
	c-1.3,1.6-1.9,3.6-1.9,5.6c0,2.7,1.2,5.4,3.5,7.2L-7.9,272.2l0.6-0.8c-1.8-1.4-2.7-3.4-2.7-5.5c0-1.5,0.5-3,1.5-4.3l15.3-19.6
	c1.1-1.4,2.7-2.1,4.3-2.1c1.2,0,2.3,0.4,3.3,1.1l7.1,5.5c1.4,1.1,2.1,2.7,2.1,4.3c0,1.2-0.4,2.3-1.1,3.3L7.1,273.7
	c-1.4,1.8-3.4,2.7-5.5,2.7c-1.5,0-3-0.5-4.3-1.5l-4.6-3.6L-7.9,272.2z" />
	<path style="fill:#D6D4D6;" d="M27.5,243.6c2.5-3.2,2-7.9-1.3-10.5c-3.2-2.5-7.9-2-10.5,1.3" />
	<path style="fill:#224257;" d="M28.3,244.3c1.2-1.5,1.8-3.4,1.8-5.2c0-2.5-1.1-5-3.3-6.7c-1.5-1.2-3.4-1.8-5.2-1.8
	c-2.5,0-5,1.1-6.7,3.3c-0.4,0.4-0.3,1.1,0.2,1.4c0.4,0.3,1.1,0.3,1.4-0.2c1.3-1.6,3.2-2.5,5.1-2.5c1.4,0,2.8,0.4,4,1.4
	c1.6,1.3,2.5,3.2,2.5,5.1c0,1.4-0.4,2.8-1.4,4c-0.3,0.4-0.3,1.1,0.2,1.4C27.3,244.8,28,244.7,28.3,244.3z" />
	<path style="fill:#D6D4D6;" d="M27.7,233.9l1.8-2.3c0.6-0.7,0.4-1.7-0.3-2.3c-0.7-0.6-1.7-0.4-2.3,0.3l-1.8,2.3" />
	<path style="fill:#224257;" d="M28.5,234.6l1.8-2.3c0.4-0.5,0.6-1.1,0.6-1.6c0-0.8-0.4-1.6-1-2.1c-0.5-0.4-1.1-0.6-1.6-0.6
	c-0.8,0-1.6,0.4-2.1,1l-1.8,2.3c-0.3,0.4-0.3,1.1,0.2,1.4c0.4,0.3,1.1,0.3,1.4-0.2l1.8-2.3c0.1-0.2,0.3-0.2,0.5-0.2
	c0.1,0,0.3,0,0.4,0.1c0.2,0.1,0.2,0.3,0.2,0.5c0,0.1,0,0.3-0.1,0.4l-1.8,2.3c-0.3,0.4-0.3,1.1,0.2,1.4
	C27.5,235.1,28.2,235,28.5,234.6z" />
	<path style="fill:#224257;" d="M9.7,250.4l-5.9-4.6c-0.4-0.3-1.1-0.3-1.4,0.2c-0.3,0.4-0.3,1.1,0.2,1.4l5.9,4.6
	c0.4,0.3,1.1,0.3,1.4-0.2C10.2,251.4,10.2,250.7,9.7,250.4" />
	<path style="fill:#224257;" d="M6.4,254.2l-5.9-4.6c-0.4-0.3-1.1-0.3-1.4,0.2c-0.3,0.4-0.3,1.1,0.2,1.4l5.9,4.6
	c0.4,0.3,1.1,0.3,1.4-0.2C6.9,255.2,6.8,254.6,6.4,254.2" />
	<path style="fill:#224257;" d="M3.4,258.4l-5.9-4.6c-0.4-0.4-1.1-0.3-1.4,0.2c-0.3,0.4-0.3,1.1,0.2,1.4l5.9,4.6
	c0.4,0.3,1.1,0.3,1.4-0.2C4,259.4,3.9,258.8,3.4,258.4" />
	<path style="fill:#D6D4D6;" d="M12,237.8l13.2,10.3c0.9,0.7,2.3,0.6,3.1-0.4c0.7-0.9,0.6-2.3-0.4-3.1l-13.2-10.3
	c-0.9-0.7-2.3-0.6-3.1,0.4C10.9,235.7,11.1,237,12,237.8" />
	<path style="fill:#224257;" d="M12,237.8l-0.6,0.8l13.2,10.3c0.6,0.5,1.3,0.7,2,0.7c1,0,1.9-0.4,2.5-1.2c0.5-0.6,0.7-1.3,0.7-2
	c0-1-0.4-1.9-1.2-2.5l-13.2-10.3c-0.6-0.5-1.3-0.7-2-0.7c-1,0-1.9,0.4-2.5,1.2c-0.5,0.6-0.7,1.3-0.7,2c0,1,0.4,1.9,1.2,2.5L12,237.8
	l0.6-0.8c-0.3-0.2-0.4-0.6-0.4-0.9c0-0.3,0.1-0.5,0.2-0.7c0.2-0.3,0.6-0.4,0.9-0.4c0.3,0,0.5,0.1,0.7,0.2l13.2,10.3
	c0.3,0.2,0.4,0.6,0.4,0.9c0,0.3-0.1,0.5-0.2,0.7c-0.2,0.3-0.6,0.4-0.9,0.4c-0.3,0-0.5-0.1-0.7-0.2L12.6,237L12,237.8z" />
	<path style="fill:#FFFFFF;" d="M43.5,218.5c1.6-2.5,0.8-5.8-1.7-7.3s-5.8-0.8-7.3,1.7c-0.6,0.9-0.7,2-0.8,3
	c-0.2,1.9-0.6,8.9-0.5,8.7c0.1-0.1,6.4-3.1,8-4C42,220,42.9,219.4,43.5,218.5" />
	<path style="fill:#224257;" d="M43.5,218.5l0.9,0.5c0.7-1,1-2.2,1-3.4c0-2.1-1.1-4.2-3-5.4c-1-0.7-2.2-1-3.4-1c-2.1,0-4.2,1.1-5.4,3
	c-0.7,1.2-0.9,2.4-1,3.5c-0.1,0.9-0.2,2.7-0.3,4.5c-0.1,0.9-0.1,1.8-0.2,2.5c0,0.7-0.1,1.3-0.1,1.6c0,0.1,0,0.1,0,0.2
	c0,0,0,0.1,0,0.2c0,0.1,0,0.1,0.1,0.3c0,0.1,0.1,0.2,0.2,0.3c0.1,0.1,0.4,0.2,0.7,0.2c0.2,0,0.4-0.1,0.6-0.2
	c0.1-0.1,0.2-0.1,0.2-0.2l0.1-0.1l-0.9-0.5l0.7,0.7c0,0,0.1-0.1,0.1-0.2l-0.9-0.5l0.7,0.7l-0.6-0.7l0.5,0.8c0,0,0,0,0.1-0.1
	l-0.6-0.7l0.5,0.8l-0.3-0.5l0.3,0.5l0,0l-0.3-0.5l0.3,0.5l-0.1-0.1l0.1,0.1l0,0l-0.1-0.1l0.1,0.1c0,0,0.2-0.1,0.4-0.2
	c0.7-0.4,2.3-1.1,3.8-1.9c0.8-0.4,1.5-0.7,2.2-1.1c0.7-0.3,1.2-0.6,1.6-0.8c0.9-0.5,2-1.2,2.7-2.4L43.5,218.5l-0.9-0.5
	c-0.4,0.7-1.1,1.2-2,1.7c-0.4,0.2-1.1,0.6-1.9,1c-1.2,0.6-2.7,1.3-3.9,1.9c-0.6,0.3-1.1,0.6-1.5,0.8c-0.2,0.1-0.4,0.2-0.5,0.2
	c-0.1,0-0.1,0.1-0.2,0.1l-0.1,0.1l-0.1,0.1c0,0-0.1,0.1-0.2,0.2l0.9,0.5l-0.8-0.7l0.8,0.7l-0.6-0.9c-0.1,0.1-0.2,0.1-0.2,0.2
	l0.8,0.7l-0.6-0.9l0.6,0.9v-1c-0.2,0-0.4,0.1-0.6,0.2l0.6,0.9v-1v1l0.7-0.8c-0.1-0.1-0.4-0.2-0.7-0.2v1l0.7-0.8l-0.7,0.8L34,224
	c0-0.1-0.1-0.2-0.2-0.3l-0.7,0.8L34,224l-0.9,0.5l1-0.3c0,0,0-0.1-0.1-0.2l-0.9,0.5l1-0.3l-0.9,0.2l0.9-0.1c0,0,0,0,0-0.1l-0.9,0.2
	l0.9-0.1l-0.5,0.1l0.5,0l0,0l-0.5,0.1l0.5,0l0,0v0c0-0.2,0-0.8,0.1-1.5c0.1-2.1,0.4-5.7,0.5-7c0.1-1,0.2-1.8,0.7-2.5
	c0.8-1.3,2.2-2,3.6-2c0.8,0,1.6,0.2,2.3,0.7c1.3,0.8,2,2.2,2,3.6c0,0.8-0.2,1.6-0.7,2.3L43.5,218.5z" />
	<path style="fill:#FFFFFF;" d="M26.3,216.3c-0.9-1.6-3-2.2-4.6-1.2c-1.6,0.9-2.2,3-1.2,4.6c0.3,0.6,0.9,1,1.4,1.3
	c1,0.7,4.7,3,4.7,2.9c-0.1-0.1,0.2-4.5,0.1-5.6C26.8,217.5,26.7,216.9,26.3,216.3" />
	<path style="fill:#224257;" d="M26.3,216.3l0.9-0.5c-0.8-1.4-2.3-2.2-3.8-2.2c-0.7,0-1.5,0.2-2.2,0.6l0,0c-1.4,0.8-2.2,2.3-2.2,3.8
	c0,0.7,0.2,1.5,0.6,2.2c0.2,0.4,0.5,0.8,0.8,1c0.3,0.3,0.6,0.5,0.9,0.7c0.5,0.3,1.6,1,2.7,1.7c0.5,0.3,1,0.6,1.4,0.8
	c0.2,0.1,0.3,0.2,0.5,0.3c0.1,0,0.1,0.1,0.2,0.1l0.1,0.1l0.1,0c0.1,0,0.1,0,0.3,0c0.1,0,0.2,0,0.5-0.1c0.2-0.1,0.3-0.2,0.4-0.4
	c0.1-0.2,0.1-0.4,0.1-0.4c0-0.1,0-0.1,0-0.1c0-0.2,0-0.4-0.1-0.5l-0.9,0.5l1-0.2c0-0.1,0-0.1-0.1-0.3l-0.9,0.5l1-0.2l-0.9,0.2
	l0.9-0.1c0,0,0,0,0-0.1l-0.9,0.2l0.9-0.1l-0.4,0l0.4,0l0,0l-0.4,0l0.4,0l0-0.1c0-0.3,0-1.4,0.1-2.4c0-1.1,0.1-2.2,0.1-2.8
	c0-0.1,0-0.1,0-0.2v0c0-0.7-0.1-1.6-0.6-2.4L26.3,216.3l-0.9,0.5c0.2,0.4,0.3,0.8,0.3,1.4v0c0,0,0,0.1,0,0.2c0,0.6,0,1.7-0.1,2.8
	c0,1.1-0.1,2.1-0.1,2.5l0,0.2l0,0.1l0,0.1c0,0.1,0,0.1,0.1,0.3l0.9-0.5h-1h1l-1-0.1l0,0.1h1l-1-0.1l1,0.1l-1-0.3c0,0.1,0,0.2,0,0.2
	l1,0.1l-1-0.3l1,0.3l-0.9-0.6c-0.1,0.1-0.1,0.2-0.1,0.3l1,0.3l-0.9-0.6l0.9,0.6l-0.4-1c-0.2,0.1-0.4,0.2-0.5,0.4l0.9,0.6l-0.4-1
	l0.4,1v-1c-0.1,0-0.2,0-0.4,0.1l0.4,1v-1v1l0.3-1c0,0-0.1,0-0.3,0v1l0.3-1l-0.2,0.8l0.3-0.7c0,0,0,0-0.1,0l-0.2,0.8l0.3-0.7L27,223
	l0.1-0.1l0,0L27,223l0.1-0.1c0,0-0.1-0.1-0.2-0.1c-0.9-0.5-3.5-2.2-4.3-2.7c-0.3-0.2-0.5-0.3-0.7-0.5c-0.2-0.2-0.3-0.3-0.4-0.5
	c-0.2-0.4-0.3-0.8-0.3-1.1c0-0.8,0.4-1.6,1.2-2l0,0c0.4-0.2,0.8-0.3,1.1-0.3c0.8,0,1.6,0.4,2,1.2L26.3,216.3z" />
	<path style="fill:#224257;" d="M16.3,250.9l0.4-0.2L16.3,250.9L16.3,250.9l0.4-0.2L16.3,250.9c0,0,0.2,0.4,0.2,1
	c0,0.8-0.2,2.1-1.5,3.7l-2.6,3.3c-0.4,0.4-0.3,1.1,0.2,1.4c0.4,0.3,1.1,0.3,1.4-0.2l2.6-3.3c1.5-1.9,1.9-3.7,1.9-5
	c0-1.1-0.3-1.8-0.4-1.9c-0.2-0.5-0.9-0.7-1.4-0.5C16.3,249.8,16.1,250.4,16.3,250.9z" />
	<path style="fill:#224257;" d="M48.8,58.5h-1c0,0.7-0.3,1.3-0.7,1.8c-0.5,0.5-1.1,0.7-1.8,0.7c-0.7,0-1.3-0.3-1.8-0.7
	c-0.5-0.5-0.7-1.1-0.7-1.8c0-0.7,0.3-1.3,0.7-1.8c0.5-0.5,1.1-0.7,1.8-0.7c0.7,0,1.3,0.3,1.8,0.7c0.5,0.5,0.7,1.1,0.7,1.8H48.8h1
	c0-2.5-2.1-4.6-4.6-4.6c-2.5,0-4.6,2.1-4.6,4.6c0,2.5,2.1,4.6,4.6,4.6c2.5,0,4.6-2.1,4.6-4.6H48.8z" />
	<path style="fill:#224257;" d="M72,216v8.2c0,0.6,0.5,1,1,1s1-0.5,1-1V216c0-0.6-0.5-1-1-1S72,215.4,72,216" />
	<path style="fill:#224257;" d="M68.9,221.1h8.2c0.6,0,1-0.5,1-1c0-0.6-0.5-1-1-1h-8.2c-0.6,0-1,0.5-1,1
	C67.9,220.6,68.4,221.1,68.9,221.1" />
</svg>
