<svg version="1.1" id="Calque_1" xmlns="http://www.w3.org/2000/svg" xmlns:xlink="http://www.w3.org/1999/xlink" x="0px" y="0px" width="158.3px" height="127.3px" viewBox="0 0 158.3 127.3" enable-background="new 0 0 158.3 127.3" xml:space="preserve">
	<g>
		<defs>
			<rect id="SVGID_1_" x="0" y="0" width="155.6" height="125.6" />
		</defs>
		<clipPath id="SVGID_2_">
			<use xlink:href="#SVGID_1_" overflow="visible" />
		</clipPath>
		<path clip-path="url(#SVGID_2_)" fill="#224257" d="M24.5,20.1c0.8,0.5,1.5,1.2,2,2.1c0.6,1,0.9,2.2,0.9,3.3c0,2.2-1.1,4.3-3.2,5.6
		c-1,0.6-2.2,0.9-3.3,0.9c-2.2,0-4.3-1.1-5.6-3.2c-0.5-0.9-0.8-1.9-0.9-2.9c0-0.6-0.5-1-1.1-1c-0.6,0-1,0.5-1,1.1
		c0.1,1.3,0.5,2.6,1.2,3.8c1.6,2.7,4.4,4.2,7.3,4.2c1.5,0,3-0.4,4.3-1.2c2.7-1.6,4.2-4.4,4.2-7.3c0-1.5-0.4-3-1.2-4.3
		c-0.7-1.2-1.6-2.1-2.7-2.8c-0.5-0.3-1.1-0.2-1.4,0.3C23.9,19.1,24,19.7,24.5,20.1z" />
		<path clip-path="url(#SVGID_2_)" fill="#224257" d="M26.4,17.2c1.2,0.8,2.3,1.9,3.1,3.2c0.9,1.6,1.4,3.3,1.4,5
		c0,3.4-1.7,6.7-4.8,8.5c-1.6,0.9-3.3,1.4-5,1.4c-3.4,0-6.7-1.7-8.5-4.8c-0.8-1.4-1.3-2.9-1.4-4.5c0-0.6-0.5-1-1.1-1
		c-0.6,0-1,0.5-1,1.1c0.1,1.8,0.7,3.7,1.7,5.4c2.2,3.8,6.2,5.9,10.3,5.9c2.1,0,4.2-0.5,6.1-1.7c3.8-2.2,5.9-6.2,5.9-10.3
		c0-2.1-0.5-4.2-1.7-6.1c-1-1.6-2.3-2.9-3.8-3.9c-0.5-0.3-1.1-0.2-1.4,0.3C25.8,16.3,25.9,16.9,26.4,17.2z" />
		<path clip-path="url(#SVGID_2_)" fill="#ACDDF0" d="M32.3,8.9c1.2,2.1-4.8,7.9-13.4,13c-8.6,5.1-16.6,7.6-17.8,5.5
		c-1.2-2.1,4.8-7.9,13.4-13S31.1,6.9,32.3,8.9" />
		<path clip-path="url(#SVGID_2_)" fill="#224257" d="M32.3,8.9l-0.9,0.5c0,0,0,0,0,0.1c0,0.1,0,0.3-0.2,0.6
		c-0.2,0.5-0.7,1.3-1.4,2.1c-1.1,1.2-2.7,2.7-4.6,4.2c-1.9,1.5-4.3,3.1-6.8,4.6c-3.2,1.9-6.4,3.5-9.1,4.5c-1.3,0.5-2.6,0.9-3.6,1.2
		c-1.1,0.3-2,0.4-2.6,0.4c-0.4,0-0.7-0.1-0.9-0.1c-0.2-0.1-0.2-0.1-0.2-0.1c0,0,0,0,0-0.1c0-0.1,0-0.3,0.2-0.6
		c0.2-0.5,0.7-1.3,1.4-2.1c1.1-1.2,2.7-2.7,4.6-4.2c1.9-1.5,4.3-3.1,6.8-4.6c3.2-1.9,6.4-3.5,9.1-4.5c1.3-0.5,2.6-0.9,3.6-1.2
		c1.1-0.3,2-0.4,2.6-0.4c0.4,0,0.7,0.1,0.9,0.1c0.2,0.1,0.2,0.1,0.2,0.1L32.3,8.9l0.9-0.5c-0.3-0.5-0.8-0.8-1.3-1
		c-0.5-0.2-1-0.2-1.6-0.2c-0.9,0-1.9,0.2-3.1,0.5c-3.5,0.9-8.3,3-13.2,5.9c-4,2.4-7.4,4.9-9.9,7.1c-1.2,1.1-2.2,2.2-2.9,3.2
		c-0.4,0.5-0.6,1-0.9,1.5c-0.2,0.5-0.3,1-0.3,1.5c0,0.4,0.1,0.8,0.3,1.2c0.3,0.5,0.8,0.8,1.3,1c0.5,0.2,1,0.2,1.6,0.2
		c0.9,0,1.9-0.2,3.1-0.5c3.5-0.9,8.3-3,13.2-5.9c4-2.4,7.4-4.9,9.9-7.1c1.2-1.1,2.2-2.2,2.9-3.2c0.4-0.5,0.6-1,0.9-1.5
		c0.2-0.5,0.3-1,0.3-1.5c0-0.4-0.1-0.8-0.3-1.1L32.3,8.9z" />
		<path clip-path="url(#SVGID_2_)" fill="#FFFFFF" d="M12.4,20.8c0,0,5.1-0.8,8.3-4.9c0,0-3.6-1.8-3.2-5.3c0,0,1.2-4.8-1.8-7.3
		c0,0-3.6-4-8.7-1.3c0,0-4.6,2.7-2.8,8.5c0,0,1,3.5,4.9,4.4C9.1,14.8,13.3,15.8,12.4,20.8" />
		<path clip-path="url(#SVGID_2_)" fill="#224257" d="M12.4,20.8l0.2,1c0.1,0,1.4-0.2,3.2-1c1.8-0.8,4-2.1,5.8-4.3
		c0.2-0.2,0.3-0.6,0.2-0.9c-0.1-0.3-0.3-0.6-0.5-0.7l-0.3,0.6l0.3-0.6l0,0l-0.3,0.6l0.3-0.6l0,0c-0.2-0.1-0.9-0.5-1.5-1.2
		c-0.3-0.3-0.6-0.8-0.8-1.2c-0.2-0.5-0.3-1-0.3-1.6c0-0.1,0-0.2,0-0.3l-1-0.1l1,0.2c0-0.1,0.3-1,0.3-2.4c0-0.9-0.1-1.9-0.4-2.9
		c-0.3-1-0.9-2.1-1.9-2.9l-0.7,0.8l0.8-0.7c0,0-0.6-0.7-1.6-1.3c-1-0.6-2.5-1.3-4.3-1.3C9.3,0,8,0.3,6.5,1.1l0,0
		c-0.1,0-1,0.6-1.9,1.7C3.7,3.8,2.7,5.6,2.8,7.9c0,0.9,0.1,1.9,0.5,2.9l1-0.3l-1,0.3c0,0.1,0.3,1.1,1.2,2.2c0.8,1.1,2.3,2.4,4.5,2.9
		l0.2-1l-0.2,1L9,15.4l-0.1,0.4l0,0L9,15.4l-0.1,0.4c0,0,0.7,0.2,1.4,0.7c0.3,0.3,0.6,0.6,0.9,1.1c0.2,0.5,0.4,1,0.4,1.8
		c0,0.3,0,0.7-0.1,1.1c-0.1,0.3,0,0.7,0.3,0.9s0.6,0.3,0.9,0.3L12.4,20.8l1,0.2c0.1-0.5,0.1-1,0.1-1.5c0-1.1-0.3-2.1-0.7-2.8
		c-0.6-1.1-1.5-1.8-2.2-2.3C10,14,9.4,13.9,9.3,13.8l0,0c-1.7-0.4-2.7-1.3-3.3-2.1c-0.3-0.4-0.5-0.8-0.7-1.1
		c-0.1-0.1-0.1-0.3-0.1-0.3l0-0.1l0,0l-0.3,0.1l0.3-0.1l0,0l-0.3,0.1l0.3-0.1l0,0C4.9,9.3,4.8,8.6,4.8,7.9c0-1.7,0.7-3,1.4-3.8
		c0.3-0.4,0.7-0.7,1-0.9C7.3,3,7.4,3,7.5,2.9l0.1,0l0,0L7.4,2.6l0.1,0.3l0,0L7.4,2.6l0.1,0.3L7,2l0.5,0.9c1.1-0.6,2.1-0.8,3-0.8
		c1.3,0,2.4,0.5,3.2,1c0.4,0.2,0.7,0.5,0.9,0.7c0.1,0.1,0.2,0.2,0.2,0.2l0.1,0.1l0,0l0.2-0.2l-0.2,0.2l0,0l0.2-0.2l-0.2,0.2L15,4
		c0.7,0.5,1.1,1.2,1.3,2c0.3,0.8,0.3,1.6,0.3,2.3c0,0.6-0.1,1.1-0.1,1.4c0,0.2,0,0.3-0.1,0.4l0,0.1l0,0v0l0,0.2c0,0.2,0,0.4,0,0.5
		c0,1,0.3,1.9,0.6,2.6c0.6,1.1,1.3,1.9,2,2.4c0.7,0.5,1.2,0.8,1.2,0.8l0.5-0.9l-0.8-0.6c-1.4,1.9-3.4,3-4.9,3.7
		c-0.8,0.3-1.5,0.6-2,0.7c-0.2,0.1-0.4,0.1-0.6,0.1c-0.1,0-0.1,0-0.1,0l0,0h0l0.1,0.3l-0.1-0.3h0l0.1,0.3l-0.1-0.3L12.4,20.8l1,0.2
		L12.4,20.8z" />
		<path clip-path="url(#SVGID_2_)" fill="#224257" d="M8.2,4.8c0,0-0.3,0.4-0.6,1C7.4,6.4,7.1,7.2,7.1,8.2c0,0.9,0.3,1.9,1,2.7
		c0.4,0.4,1,0.5,1.5,0.1c0.4-0.4,0.5-1,0.1-1.5C9.2,9.1,9.1,8.7,9.1,8.2c0-0.5,0.2-1.1,0.4-1.5c0.1-0.2,0.2-0.4,0.3-0.5L9.9,6l0,0
		c0.3-0.5,0.2-1.1-0.2-1.4C9.2,4.2,8.5,4.3,8.2,4.8z" />
		<path clip-path="url(#SVGID_2_)" fill="#224257" d="M85.8,86.4h13.4c0.6,0,1-0.5,1-1s-0.5-1-1-1H85.8c-0.6,0-1,0.5-1,1
		S85.3,86.4,85.8,86.4" />
		<path clip-path="url(#SVGID_2_)" fill="#224257" d="M147.9,68h6.7c0.6,0,1-0.5,1-1s-0.5-1-1-1h-6.7c-0.6,0-1,0.5-1,1
		S147.3,68,147.9,68" />
		<path clip-path="url(#SVGID_2_)" fill="#EB5D72" d="M58,84.8c0.5-0.3-16.2,8.4-16.2,8.4" />
		<path clip-path="url(#SVGID_2_)" fill="#224257" d="M58.6,85.7L58.6,85.7l0.2-0.1c0,0,0.1-0.1,0.1-0.1c0,0,0.1-0.1,0.1-0.2
		c0-0.1,0.1-0.2,0.1-0.4c0-0.1,0-0.2,0-0.3c0-0.1,0-0.2-0.1-0.3c-0.1-0.1-0.1-0.2-0.3-0.3c-0.1-0.1-0.3-0.2-0.6-0.2
		c-0.2,0-0.2,0-0.3,0c-0.1,0-0.1,0-0.1,0c-0.1,0-0.1,0-0.1,0c-0.1,0-0.2,0.1-0.3,0.2c-2.3,1.2-15.9,8.3-15.9,8.3
		c-0.5,0.3-0.7,0.9-0.4,1.4c0.3,0.5,0.9,0.7,1.4,0.4c0,0,1-0.5,2.5-1.3c2.3-1.2,5.7-3,8.5-4.4c1.4-0.7,2.7-1.4,3.6-1.9
		c0.5-0.2,0.8-0.4,1.1-0.6c0.1-0.1,0.2-0.1,0.3-0.2l0.1,0l0,0l-0.3-0.6l0.3,0.6l0,0l-0.3-0.6l0.3,0.6L58,84.9l0.3,0.9l0.1,0L58,84.9
		l0.3,0.9l-0.3-1l0.3,1l0.1,0l-0.3-1l0.3,1l-0.3-1l0.2,1l0.1,0l-0.3-1l0.2,1l-0.2-1v1c0.1,0,0.1,0,0.2,0l-0.2-1v1v-1l-0.6,0.8
		c0.1,0.1,0.3,0.2,0.6,0.2v-1l-0.6,0.8l0.6-0.8l-0.9,0.4c0,0.1,0.1,0.2,0.3,0.4l0.6-0.8l-0.9,0.4l0.9-0.4L57,85c0,0.1,0,0.1,0.1,0.3
		l0.9-0.4L57,85l1-0.2h-1c0,0.1,0,0.1,0,0.2l1-0.2h-1h1l-0.9-0.4c0,0.1-0.1,0.2-0.1,0.4h1l-0.9-0.4l0.9,0.4l-0.7-0.7
		c0,0-0.1,0.1-0.2,0.3l0.9,0.4l-0.7-0.7l0.7,0.7L57.4,84c0,0-0.1,0-0.1,0.1l0.7,0.7L57.4,84l0.6,0.7l-0.5-0.8l-0.1,0l0.6,0.7
		l-0.5-0.8c-0.5,0.3-0.6,0.9-0.3,1.4C57.5,85.8,58.1,86,58.6,85.7z" />
		<path clip-path="url(#SVGID_2_)" fill="#EB5D72" d="M64.1,83.5c0,2.4-1.9,4.3-4.3,4.3c-2.4,0-4.3-1.9-4.3-4.3
		c0-2.4,1.9-4.3,4.3-4.3C62.2,79.1,64.1,81.1,64.1,83.5" />
		<path clip-path="url(#SVGID_2_)" fill="#224257" d="M64.1,83.5h-1c0,0.9-0.4,1.7-1,2.3c-0.6,0.6-1.4,1-2.3,1c-0.9,0-1.7-0.4-2.3-1
		c-0.6-0.6-1-1.4-1-2.3c0-0.9,0.4-1.7,1-2.3c0.6-0.6,1.4-1,2.3-1c0.9,0,1.7,0.4,2.3,1c0.6,0.6,1,1.4,1,2.3H64.1h1
		c0-3-2.4-5.4-5.4-5.4c-3,0-5.4,2.4-5.4,5.4c0,3,2.4,5.4,5.4,5.4c3,0,5.4-2.4,5.4-5.4H64.1z" />
		<path clip-path="url(#SVGID_2_)" fill="#224257" d="M85.7,117.2l0.1-1c-2.5-0.2-5.2-0.7-7.5-1.3c-2.3-0.5-4.1-1.1-4.8-1.3
		c-0.4-0.1-0.8,0-1.1,0.3c-0.3,0.3-0.3,0.8-0.1,1.1l5,10c0.1,0.3,0.4,0.5,0.8,0.6c0.3,0.1,0.7,0,0.9-0.3l7.5-7.4
		c0.3-0.3,0.4-0.7,0.2-1.1c-0.1-0.4-0.5-0.6-0.9-0.7L85.7,117.2l-0.7-0.7l-6.5,6.4l-4.4-8.7l-0.9,0.5l-0.3,1
		c0.7,0.2,2.6,0.8,4.9,1.3c2.3,0.6,5.2,1.1,7.8,1.3L85.7,117.2l-0.7-0.7L85.7,117.2z" />
		<path clip-path="url(#SVGID_2_)" fill="#224257" d="M41,92.9c0,0.1,3.7,6.5,12.1,12.9c8.3,6.4,21.3,12.8,39.8,12.8
		c5.8,0,12.1-0.6,19-2.1l-0.2-1l0.1,1c0.1,0,5.7-0.8,13.6-4.6c0.5-0.2,0.7-0.9,0.5-1.4c-0.2-0.5-0.9-0.7-1.4-0.5
		c-3.8,1.8-7.1,2.9-9.4,3.6c-1.2,0.3-2.1,0.5-2.7,0.6c-0.3,0.1-0.5,0.1-0.7,0.1c-0.1,0-0.1,0-0.2,0l0,0l0,0l-0.1,0
		c-6.7,1.4-12.9,2-18.5,2c-18,0-30.5-6.2-38.6-12.4c-4-3.1-6.9-6.2-8.8-8.5c-0.9-1.2-1.6-2.1-2.1-2.8c-0.2-0.3-0.4-0.6-0.5-0.8
		c-0.1-0.1-0.1-0.2-0.1-0.2l0,0l0,0c-0.3-0.5-0.9-0.7-1.4-0.4C40.9,91.7,40.7,92.4,41,92.9z" />
		<path clip-path="url(#SVGID_2_)" fill="#224257" d="M124.8,92.2v19.1c0,0.6,0.5,1,1,1c0.6,0,1-0.5,1-1V92.2c0-0.6-0.5-1-1-1
		C125.2,91.2,124.8,91.7,124.8,92.2" />
		<path clip-path="url(#SVGID_2_)" fill="#FAEB9A" d="M127.7,76.8l6.5,4.8l-8.5,10.2h-13.1l11.7-14.4
		C124.5,77.4,126.2,78.7,127.7,76.8" />
		<path clip-path="url(#SVGID_2_)" fill="#224257" d="M127.7,76.8l-0.6,0.8l5.6,4.1l-7.5,9h-10.4l10.4-12.7l-0.8-0.7l-0.6,0.8
		c0,0,0.2,0.2,0.6,0.3c0.3,0.1,0.8,0.3,1.3,0.3c0.4,0,0.9-0.1,1.4-0.3c0.5-0.2,0.9-0.6,1.4-1.1L127.7,76.8l-0.6,0.8L127.7,76.8
		l-0.8-0.7c-0.3,0.3-0.5,0.5-0.7,0.6c-0.2,0.1-0.3,0.1-0.5,0.1c-0.2,0-0.4-0.1-0.5-0.1c-0.1,0-0.1-0.1-0.2-0.1l0,0l0,0l0,0l0,0l0,0
		l0,0l-0.4,0.5l0.4-0.5l0,0l-0.4,0.5l0.4-0.5c-0.4-0.3-1.1-0.3-1.4,0.2l-11.7,14.4c-0.3,0.3-0.3,0.7-0.1,1.1
		c0.2,0.4,0.5,0.6,0.9,0.6h13.1c0.3,0,0.6-0.1,0.8-0.4l8.5-10.2c0.2-0.2,0.3-0.5,0.2-0.8c0-0.3-0.2-0.5-0.4-0.7l-6.5-4.8
		c-0.4-0.3-1.1-0.2-1.4,0.2L127.7,76.8z" />
		<path clip-path="url(#SVGID_2_)" fill="#ACDDF0" d="M127.1,73.4l4.8-6.5l10.2,8.6l-0.1,13l-14.3-11.8
		C127.8,76.7,128.9,74.8,127.1,73.4" />
		<path clip-path="url(#SVGID_2_)" fill="#224257" d="M127.1,73.4l0.8,0.6l4.2-5.6l9,7.5L141,86.3l-12.6-10.5l-0.7,0.8l0.9,0.5
		c0-0.1,0.5-0.8,0.5-1.9c0-0.4-0.1-0.9-0.3-1.4c-0.2-0.5-0.6-0.9-1.1-1.3L127.1,73.4l0.8,0.6L127.1,73.4l-0.6,0.8
		c0.3,0.2,0.4,0.4,0.5,0.6c0.1,0.2,0.1,0.3,0.1,0.5c0,0.2-0.1,0.4-0.1,0.6c0,0.1-0.1,0.1-0.1,0.2l0,0l0,0l0.5,0.3l-0.5-0.3l0,0
		l0.5,0.3l-0.5-0.3c-0.3,0.4-0.2,1,0.2,1.3l14.3,11.8c0.3,0.3,0.7,0.3,1.1,0.1c0.4-0.2,0.6-0.5,0.6-0.9l0.1-13.1
		c0-0.3-0.1-0.6-0.4-0.8l-10.2-8.6c-0.2-0.2-0.5-0.3-0.8-0.2c-0.3,0-0.5,0.2-0.7,0.4l-4.8,6.5c-0.3,0.4-0.3,1.1,0.2,1.4L127.1,73.4z
		" />
		<path clip-path="url(#SVGID_2_)" fill="#ACDDF0" d="M124.3,77.6l-5.1,6l-9.9-8.1l0.1-13l14.3,11.8
		C123.7,74.3,122.8,75.9,124.3,77.6" />
		<path clip-path="url(#SVGID_2_)" fill="#224257" d="M124.3,77.6l-0.8-0.7l-4.4,5.3l-8.8-7.1l0.1-10.4L123,75.1l0.7-0.8l-0.9-0.5
		c-0.1,0.1-0.4,0.7-0.4,1.7c0,0.8,0.3,1.9,1.2,2.8L124.3,77.6l-0.8-0.7L124.3,77.6l0.8-0.7c-0.5-0.6-0.6-1.1-0.6-1.4
		c0-0.2,0-0.4,0.1-0.5l0-0.1l0,0c0.2-0.4,0.1-1-0.2-1.3l-14.3-11.8c-0.3-0.3-0.7-0.3-1.1-0.1c-0.4,0.2-0.6,0.5-0.6,0.9l-0.1,13
		c0,0.3,0.1,0.6,0.4,0.8l9.9,8.1c0.4,0.4,1.1,0.3,1.4-0.1l5.1-6c0.3-0.4,0.3-1,0-1.4L124.3,77.6z" />
		<path clip-path="url(#SVGID_2_)" fill="#FAEB9A" d="M123.9,74l-6.5-4.8l8.5-10.2l13.1,0.1l-11.8,14.3
		C127.1,73.4,125.6,72.1,123.9,74" />
		<path clip-path="url(#SVGID_2_)" fill="#224257" d="M123.9,74l0.6-0.8l-5.6-4.2l7.5-9l10.4,0.1l-10.4,12.6l0.8,0.7l0.7-0.8
		c0,0-0.2-0.2-0.6-0.4c-0.3-0.2-0.8-0.3-1.4-0.3c-0.4,0-0.9,0.1-1.4,0.3c-0.5,0.2-0.9,0.6-1.4,1.1L123.9,74l0.6-0.8L123.9,74
		l0.8,0.7c0.3-0.3,0.5-0.5,0.7-0.6c0.2-0.1,0.3-0.1,0.5-0.1c0.2,0,0.4,0.1,0.5,0.1l0.1,0.1l0,0l0.2-0.3l-0.3,0.3l0,0l0.2-0.3
		l-0.3,0.3c0.2,0.2,0.5,0.3,0.8,0.2c0.3,0,0.5-0.2,0.7-0.4l11.8-14.3c0.3-0.3,0.3-0.7,0.1-1.1S139.4,58,139,58L125.9,58
		c-0.3,0-0.6,0.1-0.8,0.4l-8.5,10.2c-0.2,0.2-0.3,0.5-0.2,0.8c0,0.3,0.2,0.5,0.4,0.7l6.5,4.8c0.4,0.3,1,0.3,1.4-0.2L123.9,74z" />
		<path clip-path="url(#SVGID_2_)" fill="#FFFFFF" d="M133.3,74.4l3.3,2.5c0.5,0.3,1.1,0.3,1.4-0.2c0.3-0.5,0.3-1.1-0.2-1.4l-3.3-2.5
		c-0.5-0.3-1.1-0.3-1.4,0.2C132.8,73.5,132.9,74.1,133.3,74.4" />
		<path clip-path="url(#SVGID_2_)" fill="#FFFFFF" d="M112.5,74.4l3.3,2.5c0.5,0.3,1.1,0.3,1.4-0.2c0.3-0.5,0.3-1.1-0.2-1.4l-3.3-2.5
		c-0.5-0.3-1.1-0.3-1.4,0.2C112,73.5,112.1,74.1,112.5,74.4" />
		<path clip-path="url(#SVGID_2_)" fill="#224257" d="M136.6,104.6h5.8c0.6,0,1-0.5,1-1s-0.5-1-1-1h-5.8c-0.6,0-1,0.5-1,1
		S136,104.6,136.6,104.6" />
	</g>
</svg>
