<svg version="1.1" id="Calque_1" xmlns="http://www.w3.org/2000/svg" xmlns:xlink="http://www.w3.org/1999/xlink" x="0px" y="0px" width="459px" height="226px" viewBox="0 0 459 226" enable-background="new 0 0 459 226" xml:space="preserve">
	<g>
		<path fill="#224257" d="M191.9,14.2h9.8c0.6,0,1-0.5,1-1c0-0.6-0.5-1-1-1h-9.8c-0.6,0-1,0.5-1,1C190.9,13.8,191.3,14.2,191.9,14.2" />
		<path fill="#224257" d="M229.6,14.2h9.8c0.6,0,1-0.5,1-1c0-0.6-0.5-1-1-1h-9.8c-0.6,0-1,0.5-1,1C228.6,13.8,229,14.2,229.6,14.2" />
	</g>
	<rect x="190.9" y="181.4" fill="#EB5D72" width="50.1" height="5.4" />
	<polygon fill="#224257" points="241,186.8 241,185.8 192,185.8 192,182.4 240,182.4 240,186.8 241,186.8 241,185.8 241,186.8
	242,186.8 242,180.3 189.9,180.3 189.9,187.8 242,187.8 242,186.8 " />
	<polyline fill="#ACDDF0" points="196.5,131.2 181.6,131.2 184.7,135 181.6,139.1 196.5,139.1 " />
	<g>
		<defs>
			<rect id="SVGID_1_" x="152.5" y="-173.9" width="301.3" height="383.7" />
		</defs>
		<clipPath id="SVGID_2_">
			<use xlink:href="#SVGID_1_" overflow="visible" />
		</clipPath>
		<path clip-path="url(#SVGID_2_)" fill="#224257" d="M196.5,130.2l-14.8,0c-0.4,0-0.8,0.2-0.9,0.6c-0.2,0.4-0.1,0.8,0.1,1.1l2.6,3.2
		l-2.6,3.4c-0.2,0.3-0.3,0.7-0.1,1.1c0.2,0.4,0.5,0.6,0.9,0.6l14.8,0c0.6,0,1-0.5,1-1c0-0.6-0.5-1-1-1l-12.8,0l1.9-2.4
		c0.3-0.4,0.3-0.9,0-1.3l-1.8-2.2l12.7,0c0.6,0,1-0.5,1-1C197.5,130.6,197.1,130.2,196.5,130.2z" />
	</g>
	<polyline fill="#ACDDF0" points="234.3,169.7 249.1,169.8 246,165.9 249.1,161.8 234.3,161.8 " />
	<g>
		<path fill="#224257" d="M234.3,170.8l14.8,0c0.4,0,0.8-0.2,0.9-0.6c0.2-0.4,0.1-0.8-0.1-1.1l-2.6-3.2l2.6-3.4
		c0.2-0.3,0.3-0.7,0.1-1.1c-0.2-0.4-0.5-0.6-0.9-0.6l-14.8,0c-0.6,0-1,0.5-1,1c0,0.6,0.5,1,1,1l12.8,0l-1.9,2.4
		c-0.3,0.4-0.3,0.9,0,1.3l1.8,2.2l-12.7,0c-0.6,0-1,0.5-1,1C233.2,170.3,233.7,170.8,234.3,170.8" />
		<path fill="#224257" d="M233.3,13.9v167.4c0,0.6,0.5,1,1,1c0.6,0,1-0.5,1-1V13.9c0-0.6-0.5-1-1-1C233.8,12.9,233.3,13.4,233.3,13.9
		" />
		<path fill="#224257" d="M195.7,13.9v167.4c0,0.6,0.5,1,1,1c0.6,0,1-0.5,1-1V13.9c0-0.6-0.5-1-1-1C196.2,12.9,195.7,13.4,195.7,13.9
		" />
		<path fill="#FFFFFF" d="M238.6,27c-2.5,1.1-4.8,3.5-6,8v35.5c0,7.7-6.2,13.9-13.9,13.9l-50.8,0.1c0,20.4,16.5,36.9,36.9,36.9
		c20.4,0,36.9-16.5,36.9-36.9l0.4-12.9c0.2-16.1-1.6-23.2,3.2-25.7" />
		<path fill="#224257" d="M238.2,26.1c-1.4,0.6-2.7,1.6-3.9,3c-1.1,1.4-2.1,3.3-2.7,5.6c0,0.1,0,0.2,0,0.3v35.5
		c0,7.1-5.7,12.9-12.8,12.9l-50.8,0.1c-0.6,0-1,0.5-1,1c0,20.9,17,37.9,37.9,37.9c20.9,0,37.9-17,37.9-37.9h-1l1,0l0.4-12.9v0
		c0-1,0-1.9,0-2.8c0-5.2-0.2-9.4-0.2-12.7c0-2.8,0.1-4.9,0.6-6.4c0.2-0.7,0.5-1.3,0.9-1.8c0.4-0.5,0.8-0.8,1.4-1.1
		c0.5-0.3,0.7-0.9,0.4-1.4c-0.3-0.5-0.9-0.7-1.4-0.4c-0.8,0.4-1.5,1-2.1,1.7c-0.8,1.1-1.3,2.4-1.5,3.9c-0.3,1.6-0.3,3.4-0.3,5.5
		c0,3.3,0.2,7.5,0.2,12.7c0,0.9,0,1.8,0,2.8l1,0l-1,0l-0.4,12.9v0c0,9.9-4,18.8-10.5,25.3c-6.5,6.5-15.4,10.5-25.3,10.5
		c-9.9,0-18.8-4-25.3-10.5c-6.5-6.5-10.5-15.4-10.5-25.3h-1l0,1l50.8-0.1c8.2,0,14.9-6.7,14.9-14.9V35h-1l1,0.3
		c0.6-2.2,1.4-3.7,2.4-4.9c0.9-1.2,2-1.9,3.1-2.4c0.5-0.2,0.8-0.8,0.5-1.4C239.3,26.1,238.7,25.8,238.2,26.1z" />
		<path fill="#FFFFFF" d="M215.5,91l-37,0.1c0,11.6,9.4,21.1,21.1,21.1" />
		<path fill="#224257" d="M215.5,89.9l-37,0.1c-0.6,0-1,0.5-1,1c0,12.2,9.9,22.1,22.1,22.1c0.6,0,1-0.5,1-1s-0.5-1-1-1
		c-5.5,0-10.5-2.2-14.2-5.9c-3.6-3.6-5.9-8.6-5.9-14.2h-1l0,1l37-0.1c0.6,0,1-0.5,1-1C216.6,90.4,216.1,89.9,215.5,89.9z" />
		<path fill="#FFFFFF" d="M238.7,22.1c1.1,2.4-0.1,3.4-0.1,3.4c-0.3,0-1,0.2-2,0.6c-2.4,1.1-6.1,3.6-7.1,8.4
		c-1.4,6.7,4.7,13.2,11.3,12.6c1.7-0.2,3.1-0.6,4.3-1.1c3.2-1.4,4.4-3.8,4.6-3.9c0.2-0.2,1.2-1.4,1.2-1.4l0-7.9
		c-2-5.9-8.6-6.6-8.6-6.6 M242.1,26.2c1.1-2.9-3.3-4.1-3.3-4.1" />
		<path fill="#224257" d="M237.8,22.5c0.3,0.6,0.4,1.1,0.4,1.4c0,0.4-0.1,0.6-0.1,0.7l-0.1,0.1l0,0l0.3,0.3l-0.3-0.3l0,0l0.3,0.3
		l-0.3-0.3l0.7,0.8l-0.1-1c-0.2,0-0.3,0-0.4,0.1c-0.5,0.1-1.1,0.3-1.9,0.7c-1.3,0.6-2.9,1.5-4.4,3c-1.5,1.5-2.8,3.5-3.3,6.1
		c-0.1,0.7-0.2,1.4-0.2,2.1c0,3.1,1.4,6.1,3.5,8.2c2.1,2.1,5,3.5,8.1,3.5c0.3,0,0.6,0,1,0c1.8-0.2,3.3-0.6,4.6-1.2
		c1.8-0.8,3-1.8,3.8-2.7c0.4-0.4,0.7-0.8,0.9-1.1c0.1-0.1,0.2-0.3,0.2-0.3l0-0.1l-0.6-0.5l0.5,0.5c0.1-0.1,0.1-0.1,0.1-0.1l-0.6-0.5
		l0.5,0.5l0,0c0.1-0.1,0.2-0.2,0.4-0.4c0.4-0.4,1-1.1,1-1.1c0.2-0.2,0.3-0.4,0.3-0.7l0-7.9c0-0.1,0-0.2-0.1-0.3
		c-0.5-1.6-1.4-2.9-2.4-3.9c-1.5-1.5-3.3-2.3-4.6-2.8c-1.4-0.5-2.4-0.6-2.4-0.6c-0.6-0.1-1.1,0.4-1.1,0.9c-0.1,0.6,0.4,1.1,0.9,1.1
		l0-0.3l0,0.3h0l0-0.3l0,0.3c0,0,1.6,0.2,3.3,1c0.9,0.4,1.8,1,2.5,1.8c0.8,0.8,1.5,1.8,1.9,3.1l1-0.3l-1,0l0,7.8l1,0l-0.8-0.7
		c0,0-0.2,0.3-0.5,0.6c-0.1,0.2-0.3,0.3-0.4,0.4c-0.1,0.1-0.2,0.2-0.2,0.2l0,0c-0.1,0.1-0.1,0.2-0.2,0.2c-0.1,0.1-0.1,0.2-0.2,0.3
		c-0.2,0.3-0.6,0.9-1.2,1.5c-0.6,0.6-1.5,1.3-2.7,1.8c-1,0.5-2.3,0.8-4,1c-0.3,0-0.5,0-0.8,0c-2.5,0-4.9-1.1-6.7-2.9
		c-1.8-1.8-2.9-4.2-2.9-6.7c0-0.6,0.1-1.2,0.2-1.7c0.4-2.2,1.5-3.8,2.7-5.1c1.2-1.2,2.7-2.1,3.8-2.6c0.4-0.2,0.8-0.3,1.1-0.4
		c0.1,0,0.3-0.1,0.4-0.1l0.1,0l0,0h0l0-0.2l0,0.2h0l0-0.2l0,0.2c0.2,0,0.4-0.1,0.6-0.2c0.1-0.1,0.3-0.3,0.5-0.7
		c0.2-0.4,0.4-1,0.4-1.7c0-0.7-0.2-1.4-0.5-2.3c-0.2-0.5-0.8-0.8-1.4-0.5C237.8,21.4,237.6,22,237.8,22.5z M243,26.6
		c0.2-0.4,0.3-0.9,0.2-1.3c0-0.8-0.3-1.6-0.8-2.1c-0.7-0.8-1.5-1.3-2.2-1.6c-0.7-0.3-1.2-0.5-1.3-0.5c-0.5-0.1-1.1,0.2-1.3,0.7
		c-0.1,0.5,0.2,1.1,0.7,1.3h0c0,0,0.9,0.3,1.6,0.7c0.4,0.2,0.7,0.5,0.9,0.7c0.2,0.3,0.3,0.5,0.3,0.8c0,0.2,0,0.3-0.1,0.6
		c-0.2,0.5,0.1,1.1,0.6,1.3C242.2,27.4,242.8,27.1,243,26.6z" />
		<path fill="#EB5D72" d="M243.6,38.7c0.5,1,0,2.3-1,2.7c-1,0.5-2.3,0-2.7-1c-0.5-1,0-2.3,1-2.7C241.9,37.2,243.1,37.7,243.6,38.7" />
		<path fill="#FAEB9A" d="M246.9,37.2c0,0,2.7-1.2,4.1-4.3l28.7,6.8L249.9,41c0,0-1.2-3.1-2.8-3.9" />
		<path fill="#224257" d="M247.3,38.1c0.1,0,0.8-0.4,1.8-1.1c0.9-0.8,2.1-1.9,2.9-3.6l-0.9-0.4l-0.2,1l21.5,5.1l-22.4,1l0,1l1-0.4
		c0,0-0.3-0.8-0.9-1.8c-0.3-0.5-0.6-1-1-1.4c-0.4-0.5-0.9-0.9-1.4-1.2c-0.5-0.3-1.1-0.1-1.4,0.4c-0.3,0.5-0.1,1.1,0.4,1.4
		c0.2,0.1,0.5,0.4,0.8,0.7c0.4,0.5,0.8,1.2,1.1,1.7c0.1,0.3,0.3,0.5,0.3,0.7c0,0.1,0.1,0.1,0.1,0.2l0,0l0,0c0.2,0.4,0.6,0.7,1,0.6
		l29.8-1.3c0.5,0,0.9-0.4,1-0.9c0-0.5-0.3-1-0.8-1.1l-28.7-6.8c-0.5-0.1-1,0.1-1.2,0.6c-0.6,1.3-1.5,2.3-2.3,2.9
		c-0.4,0.3-0.7,0.5-1,0.7c-0.1,0.1-0.2,0.1-0.3,0.1l-0.1,0l0,0l0.1,0.3l-0.1-0.3l0,0l0.1,0.3l-0.1-0.3c-0.5,0.2-0.8,0.8-0.5,1.4
		C246.2,38.1,246.8,38.4,247.3,38.1z" />
		<path fill="#FFFFFF" d="M237.9,33.1c0,0,0.8-1.8,3.1-0.6" />
		<path fill="#224257" d="M238.9,33.5l-0.6-0.3L238.9,33.5L238.9,33.5l-0.6-0.3L238.9,33.5L238.9,33.5c0,0,0.1-0.1,0.2-0.2
		c0.1-0.1,0.2-0.2,0.5-0.2c0.2,0,0.5,0.1,0.9,0.3c0.5,0.3,1.1,0.1,1.4-0.4c0.3-0.5,0.1-1.1-0.4-1.4c-0.7-0.4-1.3-0.5-1.9-0.5
		c-0.4,0-0.9,0.1-1.2,0.3c-0.5,0.2-0.8,0.6-1.1,0.8c-0.2,0.3-0.3,0.5-0.3,0.5c-0.2,0.5,0,1.1,0.5,1.4C238,34.2,238.6,34,238.9,33.5z
		" />
		<path fill="#EB5D72" d="M241.6,23l-2.8-4.8c-0.5-1.6-1.7-0.6-1.7-0.6L224.9,27c-1.2,1.2-0.3,2-0.3,2l4.7,4.4
		C229.3,33.4,238.7,29.9,241.6,23l12.3-7.5" />
		<path fill="#224257" d="M242.5,22.5l-2.8-4.8l-0.9,0.5l1-0.3c-0.2-0.5-0.4-0.9-0.7-1.2c-0.3-0.3-0.8-0.4-1.2-0.4
		c-0.5,0-0.8,0.1-1,0.3c-0.2,0.1-0.4,0.2-0.4,0.3l0.7,0.8l-0.6-0.8l-12.3,9.4l0,0c-0.3,0.3-0.6,0.6-0.7,0.9c-0.2,0.3-0.2,0.7-0.2,1
		c0,0.5,0.2,0.9,0.3,1.2c0.2,0.3,0.3,0.4,0.4,0.5l0.7-0.8l-0.7,0.8l5.2,4.8l0.6-0.2c0,0,2.4-0.9,5.2-2.7c2.8-1.8,6-4.5,7.6-8.3
		l-0.9-0.4l0.5,0.9l12.3-7.5l-1.1-1.8l-12.6,7.7l-0.1,0.3c-1.3,3.1-4.2,5.6-6.8,7.3c-1.3,0.8-2.5,1.5-3.4,1.9
		c-0.4,0.2-0.8,0.4-1.1,0.5c-0.1,0.1-0.2,0.1-0.3,0.1l-0.1,0l0,0l0.4,1l0.7-0.8l-4.7-4.4l0,0l-0.4,0.5l0.4-0.4l0,0l-0.4,0.5l0.4-0.4
		l-0.1,0.1l0.1-0.1l0,0l-0.1,0.1l0.1-0.1l0-0.1l0-0.1c0,0,0,0,0-0.1c0-0.1,0.1-0.2,0.3-0.3l-0.7-0.8l0.6,0.8l12.3-9.4l0,0l-0.3-0.4
		l0.3,0.4l0,0l-0.3-0.4l0.3,0.4l0,0l0.1,0l0,0l0-0.1v0.1l0,0l0-0.1v0.1v-0.3l-0.2,0.2l0.2,0.1v-0.3l-0.2,0.2l0,0l0,0h0l0,0l0,0
		c0,0,0.1,0.1,0.1,0.3l0,0.1l2.8,4.9L242.5,22.5z" />
		<path fill="#224257" d="M180.6,100.2h13.3c0.6,0,1-0.5,1-1c0-0.6-0.5-1-1-1h-13.3c-0.6,0-1,0.5-1,1
		C179.6,99.8,180.1,100.2,180.6,100.2" />
		<path fill="#224257" d="M185.3,106.9h13.3c0.6,0,1-0.5,1-1c0-0.6-0.5-1-1-1h-13.3c-0.6,0-1,0.5-1,1
		C184.2,106.4,184.7,106.9,185.3,106.9" />
		<path fill="#ACDDF0" d="M245.3,68.3c0,0,5.7,0.1,8.2,6.6c0,0-3.2,1-6-0.4" />
		<path fill="#224257" d="M245.3,69.3l0-0.6L245.3,69.3L245.3,69.3l0-0.6L245.3,69.3c0,0,0.1,0,0.2,0c0.5,0.1,1.8,0.3,3.2,1.1
		c1.4,0.8,2.9,2.2,3.9,4.8l1-0.4l-0.3-1h0c-0.1,0-1,0.3-2.3,0.3c-0.9,0-2-0.2-3-0.6c-0.5-0.3-1.1,0-1.4,0.5c-0.3,0.5,0,1.1,0.5,1.4
		c1.3,0.7,2.7,0.9,3.9,0.9c1.6,0,2.8-0.4,2.9-0.4l1-0.3l-0.4-1c-0.7-1.7-1.6-3.1-2.6-4.1c-1.5-1.5-3.1-2.3-4.4-2.7
		c-1.3-0.4-2.2-0.4-2.2-0.4c-0.6,0-1,0.4-1,1C244.2,68.8,244.7,69.3,245.3,69.3z" />
		<path fill="#ACDDF0" d="M241.4,70c0,0-2.1,7.3,6,12.3c0,0,1.9-9.8-2.7-13.6" />
		<path fill="#224257" d="M240.4,69.7c0,0.1-0.3,1-0.3,2.5c0,1.4,0.3,3.3,1.2,5.2c1,2,2.7,4,5.5,5.8l1.3,0.8l0.3-1.5
		c0,0,0.4-2.1,0.4-4.8c0-1.6-0.1-3.4-0.6-5.2c-0.5-1.7-1.3-3.4-2.8-4.7c-0.4-0.4-1.1-0.3-1.4,0.1c-0.4,0.4-0.3,1.1,0.1,1.4
		c1,0.9,1.7,2.1,2.2,3.6c0.4,1.5,0.6,3.1,0.6,4.6c0,1.2-0.1,2.3-0.2,3.1c0,0.4-0.1,0.7-0.1,0.9c0,0.1,0,0.2,0,0.2l0,0.1l0,0l1,0.2
		l0.5-0.9c-2.5-1.6-3.9-3.3-4.7-4.9c-0.8-1.6-1-3.2-1-4.3c0-0.6,0.1-1.1,0.1-1.4c0-0.2,0.1-0.3,0.1-0.4l0-0.1l0,0l-0.2-0.1l0.2,0.1
		l0,0l-0.2-0.1l0.2,0.1c0.2-0.5-0.2-1.1-0.7-1.3S240.6,69.1,240.4,69.7z" />
		<path fill="#ACDDF0" d="M239.8,71.4l-7.3-1.7c-1.9-0.4-3-2.3-2.6-4.2c0.4-1.9,2.3-3,4.2-2.6l7.3,1.7c1.9,0.4,3,2.3,2.6,4.2
		C243.6,70.7,241.7,71.8,239.8,71.4" />
		<path fill="#224257" d="M239.8,71.4l0.2-1l-7.3-1.7c-0.6-0.1-1-0.4-1.4-0.9c-0.3-0.4-0.5-1-0.5-1.5c0-0.2,0-0.4,0.1-0.6
		c0.1-0.6,0.4-1,0.9-1.4c0.4-0.3,1-0.5,1.5-0.5c0.2,0,0.4,0,0.6,0.1l0.1,0l7.2,1.7c0.6,0.1,1,0.4,1.4,0.9c0.3,0.4,0.5,1,0.5,1.5
		c0,0.2,0,0.4-0.1,0.6c-0.1,0.6-0.4,1-0.9,1.4c-0.4,0.3-1,0.5-1.5,0.5c-0.2,0-0.4,0-0.6-0.1l0,0L239.8,71.4l-0.2,1
		c0.3,0.1,0.7,0.1,1,0.1c1,0,2-0.4,2.8-1c0.8-0.6,1.4-1.5,1.6-2.5c0.1-0.3,0.1-0.7,0.1-1c0-1-0.4-2-1-2.8c-0.6-0.8-1.5-1.4-2.5-1.6
		l-7.3-1.7l0,0c-0.3-0.1-0.7-0.1-1-0.1c-1,0-2,0.4-2.8,1c-0.8,0.6-1.4,1.5-1.6,2.5c-0.1,0.3-0.1,0.7-0.1,1c0,1,0.4,2,1,2.8
		c0.6,0.8,1.5,1.4,2.5,1.6l7.3,1.7l0,0L239.8,71.4z" />
		<path fill="#ACDDF0" d="M244.2,68.2c0,1.7-1.3,3-3,3s-3-1.3-3-3c0-1.7,1.3-3,3-3S244.2,66.5,244.2,68.2" />
		<path fill="#224257" d="M244.2,68.2h-1c0,1.1-0.9,2-2,2c-1.1,0-2-0.9-2-2c0-1.1,0.9-2,2-2c1.1,0,2,0.9,2,2H244.2h1c0-2.2-1.8-4-4-4
		s-4,1.8-4,4c0,2.2,1.8,4,4,4c2.2,0,4-1.8,4-4H244.2z" />
		<path fill="#224257" d="M203.8,121.8l7.4,15.8c0.1,0.2,0.1,0.4,0.1,0.6c0,0.5-0.3,1-0.8,1.3l-57.5,30.8c-0.3,0.2-0.5,0.5-0.5,0.8
		c0,0.3,0.1,0.7,0.3,0.9l8.5,7.5c0.4,0.4,1.1,0.3,1.4-0.1c0.4-0.4,0.3-1.1-0.1-1.5l-7.4-6.5l56.2-30.1c1.2-0.6,1.8-1.8,1.8-3.1
		c0-0.5-0.1-1-0.3-1.5l-7.4-15.8c-0.2-0.5-0.9-0.7-1.4-0.5C203.8,120.7,203.6,121.3,203.8,121.8z" />
		<path fill="#224257" d="M216.4,120.5l7.4,16.6l0.9-0.4l-1,0.4c0.2,0.4,0.3,0.9,0.3,1.4c0,0.2,0,0.3,0,0.5l1,0.1l-1-0.2l-7.2,40.7
		c0,0.3,0,0.6,0.2,0.8c0.2,0.2,0.4,0.4,0.7,0.4l7.2,1c0.6,0.1,1.1-0.3,1.2-0.9c0.1-0.6-0.3-1.1-0.9-1.2l-6.2-0.9l7.1-39.6l0-0.1
		c0-0.2,0-0.5,0-0.7c0-0.7-0.1-1.5-0.4-2.1l0,0l-7.4-16.6c-0.2-0.5-0.8-0.8-1.4-0.5C216.4,119.4,216.2,120,216.4,120.5z" />
		<path fill="#224257" d="M208.3,197.1l-7.5,11.2c-0.3,0.5-0.2,1.1,0.3,1.4c0.5,0.3,1.1,0.2,1.4-0.3l7.5-11.2
		c0.3-0.5,0.2-1.1-0.3-1.4C209.3,196.5,208.7,196.6,208.3,197.1" />
		<path fill="#224257" d="M215.6,198.3v7c0,0.6,0.5,1,1,1c0.6,0,1-0.5,1-1v-7c0-0.6-0.5-1-1-1C216.1,197.3,215.6,197.7,215.6,198.3" />
		<path fill="#224257" d="M224.4,198.6l7,7c0.4,0.4,1.1,0.4,1.5,0c0.4-0.4,0.4-1.1,0-1.5l-7-7c-0.4-0.4-1.1-0.4-1.5,0
		C224,197.6,224,198.2,224.4,198.6" />
	</g>
	<path fill="#224257" d="M357,109.4h-1c0,0.7-0.3,1.3-0.7,1.8c-0.5,0.5-1.1,0.7-1.8,0.7c-0.7,0-1.3-0.3-1.8-0.7
	c-0.5-0.5-0.7-1.1-0.7-1.8c0-0.7,0.3-1.3,0.7-1.8c0.5-0.5,1.1-0.7,1.8-0.7c0.7,0,1.3,0.3,1.8,0.7c0.5,0.5,0.7,1.1,0.7,1.8H357h1
	c0-2.5-2.1-4.6-4.6-4.6c-2.5,0-4.6,2.1-4.6,4.6c0,2.5,2.1,4.6,4.6,4.6c2.5,0,4.6-2.1,4.6-4.6H357z" />
	<path fill="#224257" d="M275.9,129.9v8.2c0,0.6,0.5,1,1,1s1-0.5,1-1v-8.2c0-0.6-0.5-1-1-1S275.9,129.4,275.9,129.9" />
	<path fill="#224257" d="M272.8,135h8.2c0.6,0,1-0.5,1-1c0-0.6-0.5-1-1-1h-8.2c-0.6,0-1,0.5-1,1C271.8,134.6,272.3,135,272.8,135" />
	<path fill="#224257" d="M79.4,111.3v8.2c0,0.6,0.5,1,1,1c0.6,0,1-0.5,1-1v-8.2c0-0.6-0.5-1-1-1C79.9,110.3,79.4,110.8,79.4,111.3" />
	<path fill="#224257" d="M76.4,116.4h8.2c0.6,0,1-0.5,1-1c0-0.6-0.5-1-1-1h-8.2c-0.6,0-1,0.5-1,1C75.3,116,75.8,116.4,76.4,116.4" />
</svg>
