<svg version="1.1" id="Calque_1" xmlns="http://www.w3.org/2000/svg" xmlns:xlink="http://www.w3.org/1999/xlink" x="0px" y="0px" width="812px" height="565px" viewBox="0 0 812 565" enable-background="new 0 0 812 565" xml:space="preserve">
	<g>
		<defs>
			<rect id="SVGID_1_" x="-2.3" y="-1" width="813.3" height="781.5" />
		</defs>
		<clipPath id="SVGID_2_">
			<use xlink:href="#SVGID_1_" overflow="visible" />
		</clipPath>
		<path clip-path="url(#SVGID_2_)" fill="none" stroke="#224257" stroke-width="2" stroke-miterlimit="10" d="M591.9,172.1
		c0,0-5.2,3.1-9.3,0c-4.1-3.1-9.8-3.1-13.9,4.5c-3.8,7.1-11.3,4.7-13,3.4c-2.3-1.7-9.4-4.2-13.7,3.9c-3.6,6.9-10.1,5.9-12.8,4
		c-2.7-1.9-10.2-3.6-15.1,4.2c-4.9,7.8-12.2,5.6-14.4,4.1" />
		<path clip-path="url(#SVGID_2_)" fill="#224257" d="M547.5,112.8v8.3c0,0.6,0.5,1.1,1.1,1.1c0.6,0,1.1-0.5,1.1-1.1v-8.3
		c0-0.6-0.5-1.1-1.1-1.1C548,111.7,547.5,112.2,547.5,112.8" />
		<path clip-path="url(#SVGID_2_)" fill="#224257" d="M544.4,118h8.3c0.6,0,1.1-0.5,1.1-1.1c0-0.6-0.5-1.1-1.1-1.1h-8.3
		c-0.6,0-1.1,0.5-1.1,1.1C543.3,117.6,543.8,118,544.4,118" />
		<path clip-path="url(#SVGID_2_)" fill="#224257" d="M717.7,189.7v8.3c0,0.6,0.5,1.1,1.1,1.1c0.6,0,1.1-0.5,1.1-1.1v-8.3
		c0-0.6-0.5-1.1-1.1-1.1C718.2,188.6,717.7,189.1,717.7,189.7" />
		<path clip-path="url(#SVGID_2_)" fill="#224257" d="M714.7,194.9h8.3c0.6,0,1.1-0.5,1.1-1.1s-0.5-1.1-1.1-1.1h-8.3
		c-0.6,0-1.1,0.5-1.1,1.1S714.1,194.9,714.7,194.9" />
		<path clip-path="url(#SVGID_2_)" fill="#224257" d="M787.2,471.2v8.3c0,0.6,0.5,1.1,1.1,1.1c0.6,0,1.1-0.5,1.1-1.1v-8.3
		c0-0.6-0.5-1.1-1.1-1.1C787.7,470.1,787.2,470.6,787.2,471.2" />
		<path clip-path="url(#SVGID_2_)" fill="#224257" d="M784.2,476.4h8.3c0.6,0,1.1-0.5,1.1-1.1s-0.5-1.1-1.1-1.1h-8.3
		c-0.6,0-1.1,0.5-1.1,1.1S783.6,476.4,784.2,476.4" />
		<circle clip-path="url(#SVGID_2_)" fill="none" stroke="#224257" stroke-width="2" stroke-miterlimit="10" cx="276.9" cy="437.3" r="3.7" />
		<path clip-path="url(#SVGID_2_)" fill="#224257" d="M363.1,281.4v8.3c0,0.6,0.5,1.1,1.1,1.1c0.6,0,1.1-0.5,1.1-1.1v-8.3
		c0-0.6-0.5-1.1-1.1-1.1C363.6,280.3,363.1,280.8,363.1,281.4" />
		<path clip-path="url(#SVGID_2_)" fill="#224257" d="M360.1,286.6h8.3c0.6,0,1.1-0.5,1.1-1.1s-0.5-1.1-1.1-1.1h-8.3
		c-0.6,0-1.1,0.5-1.1,1.1S359.5,286.6,360.1,286.6" />
		<circle clip-path="url(#SVGID_2_)" fill="none" stroke="#224257" stroke-width="2" stroke-miterlimit="10" cx="677.7" cy="266" r="3.7" />
	</g>
	<rect x="252.6" y="136.2" transform="matrix(1 6.473013e-003 -6.473013e-003 1 0.9332 -1.7015)" fill="#EB5D72" width="21.6" height="14.2" />
	<rect x="361.1" y="101.7" transform="matrix(0.9874 -0.1583 0.1583 0.9874 -12.5126 60.2236)" fill="#ACDDF0" width="21.6" height="14" />
	<rect x="106" y="189.9" transform="matrix(0.9693 -0.2458 0.2458 0.9693 -45.1422 35.3161)" fill="#EB5D72" width="25.8" height="17.2" />
	<rect x="314.2" y="107.1" fill="#FAEB9A" width="18.9" height="12.6" />
	<line fill="none" stroke="#224257" stroke-width="1.865" stroke-linecap="square" stroke-linejoin="round" stroke-miterlimit="10" x1="116.4" y1="192.1" x2="115.6" y2="186.4" />
	<path fill="none" stroke="#224257" stroke-width="2" stroke-linecap="round" stroke-linejoin="round" stroke-miterlimit="10" d="
	M314.3,120.8h18.5 M333,126.6h-18.9v-18.9H333V126.6z" />
	<line fill="none" stroke="#224257" stroke-width="2" stroke-linecap="square" stroke-linejoin="round" stroke-miterlimit="10" x1="370.3" y1="103.5" x2="369.3" y2="97" />
	<path fill="none" stroke="#224257" stroke-width="2" stroke-linecap="round" stroke-linejoin="round" stroke-miterlimit="10" d="
	M362.6,117.2l20.9-3.3 M384.5,120.3l-21.3,3.4l-3.4-21.3l21.3-3.4L384.5,120.3z" />
	<rect x="252.3" y="162.7" transform="matrix(1 6.473013e-003 -6.473013e-003 1 1.1043 -1.6996)" fill="#ACDDF0" width="21.6" height="14.2" />
	<line fill="none" stroke="#224257" stroke-width="2" stroke-linecap="square" stroke-linejoin="round" stroke-miterlimit="10" x1="263.1" y1="164.3" x2="263.1" y2="157.7" />
	<path fill="none" stroke="#224257" stroke-width="2" stroke-linecap="round" stroke-linejoin="round" stroke-miterlimit="10" d="
	M252.6,176.5l21.1,0.1 M273.8,183.3l-21.6-0.1l0.1-21.6l21.6,0.1L273.8,183.3z" />
	<line fill="none" stroke="#224257" stroke-width="2" stroke-linecap="square" stroke-linejoin="round" stroke-miterlimit="10" x1="262.6" y1="137.9" x2="262.6" y2="129.1" />
	<path fill="none" stroke="#224257" stroke-width="2" stroke-linecap="round" stroke-linejoin="round" stroke-miterlimit="10" d="
	M252.8,150.1l21.1,0.1 M273.9,156.8l-21.6-0.1l0.1-21.6l21.6,0.1L273.9,156.8z" />
	<rect x="256.2" y="108.5" transform="matrix(0.9184 0.3955 -0.3955 0.9184 67.4734 -96.194)" fill="#FAEB9A" width="21.6" height="14.2" />
	<path fill="none" stroke="#224257" stroke-width="2" stroke-linecap="round" stroke-linejoin="round" stroke-miterlimit="10" d="
	M108.7,210l24.5-6.2 M135.1,211.5l-25,6.3l-6.3-25l25-6.3L135.1,211.5z M254.7,117.7l19.4,8.4 M271.5,132.1l-19.8-8.5l8.5-19.8
	l19.8,8.5L271.5,132.1z" />
	<path fill="none" stroke="#224257" stroke-width="2" stroke-linecap="square" stroke-linejoin="round" stroke-miterlimit="10" d="
	M268.5,110.2l4.3-8.7 M323.5,110v-5.8" />
	<g>
		<defs>
			<rect id="SVGID_3_" x="-2.3" y="-1" width="813.3" height="781.5" />
		</defs>
		<clipPath id="SVGID_4_">
			<use xlink:href="#SVGID_3_" overflow="visible" />
		</clipPath>
		<path clip-path="url(#SVGID_4_)" fill="none" stroke="#224257" stroke-width="2" stroke-linecap="round" stroke-linejoin="round" stroke-miterlimit="10" d="
		M-1,163.6c0,0,63.1,37.9,137.7,16.6c0,0,72.2-21.3,85.2-91.1c0,0,82.8,29.6,155,4.7c0,0,72.2-24.8,99.4-93.5" />
		<path clip-path="url(#SVGID_4_)" fill="#EB5D72" d="M208.1,89.7c-0.6-0.2,18.8,6.4,18.8,6.4" />
		<path clip-path="url(#SVGID_4_)" fill="none" stroke="#224257" stroke-width="2" stroke-linecap="round" stroke-linejoin="round" stroke-miterlimit="10" d="
		M208.1,89.7c-0.6-0.2,18.8,6.4,18.8,6.4" />
		<path clip-path="url(#SVGID_4_)" fill="#ACDDF0" d="M202.5,85.9c1.9-1.8,4.9-1.8,6.7,0.1c1.8,1.9,1.8,4.9-0.1,6.7
		c-1.9,1.8-4.9,1.8-6.7-0.1C200.5,90.7,200.6,87.7,202.5,85.9" />
		<circle clip-path="url(#SVGID_4_)" fill="none" stroke="#224257" stroke-width="2" stroke-linecap="round" stroke-linejoin="round" stroke-miterlimit="10" cx="205.7" cy="89.3" r="4.7" />
	</g>
	<rect x="446.1" y="41.7" transform="matrix(0.9693 -0.2458 0.2458 0.9693 1.7362 114.3703)" fill="#FAEB9A" width="25.8" height="17.2" />
	<line fill="none" stroke="#224257" stroke-width="2" stroke-linecap="square" stroke-linejoin="round" stroke-miterlimit="10" x1="456.5" y1="43.9" x2="455.7" y2="38.1" />
	<path fill="none" stroke="#224257" stroke-width="2" stroke-linecap="round" stroke-linejoin="round" stroke-miterlimit="10" d="
	M448.8,61.8l24.5-6.2 M475.2,63.2l-25,6.3l-6.3-25l25-6.3L475.2,63.2z" />
	<polyline fill="#EB5D72" points="280.5,308.7 279.9,312.9 285.9,311.6 283.6,308 " />
	<polyline fill="none" stroke="#224257" stroke-width="2.038" stroke-linejoin="round" stroke-miterlimit="10" points="280.5,308.7
	279.9,312.9 285.9,311.6 283.6,308 " />
	<g>
		<defs>
			<rect id="SVGID_5_" x="-2.3" y="-1" width="813.3" height="781.5" />
		</defs>
		<clipPath id="SVGID_6_">
			<use xlink:href="#SVGID_5_" overflow="visible" />
		</clipPath>
		<path clip-path="url(#SVGID_6_)" fill="#EB5D72" d="M281,307.8c0,0,6.6-0.5,10.1-9.1c0,0,5.9-11.7,1-27.6c0,0-4.7-16.9-24.5-12
		c0,0-17.5,5.5-12.6,23.4c0,0,3.4,14.8,17.5,23.3C272.5,305.8,278,308.6,281,307.8" />
		<path clip-path="url(#SVGID_6_)" fill="none" stroke="#224257" stroke-width="2" stroke-linejoin="round" stroke-miterlimit="10" d="
		M281,307.8c0,0,6.6-0.5,10.1-9.1c0,0,5.9-11.7,1-27.6c0,0-4.7-16.9-24.5-12c0,0-17.5,5.5-12.6,23.4c0,0,3.4,14.8,17.5,23.3
		C272.5,305.8,278,308.6,281,307.8z" />
		<path clip-path="url(#SVGID_6_)" fill="none" stroke="#FFFFFF" stroke-width="2" stroke-linecap="round" stroke-linejoin="round" stroke-miterlimit="10" d="
		M266.1,267c0,0-7.1,3.9-4.4,12.3" />
		<path clip-path="url(#SVGID_6_)" fill="none" stroke="#224257" stroke-width="2" stroke-linecap="round" stroke-linejoin="round" stroke-miterlimit="10" d="
		M283.1,312.3c0,0,0.9,19.1,18.9,29.4c0,0,12.3,7,5.4,21.7" />
	</g>
	<path fill="none" stroke="#224257" stroke-width="2.038" stroke-linecap="square" stroke-linejoin="round" stroke-miterlimit="10" d="
	M794.6,387.4" />
	<polyline fill="#EB5D72" points="788.7,354.6 787,357.4 791.6,358.3 791.2,355 " />
	<polyline fill="none" stroke="#224257" stroke-width="2.038" stroke-linejoin="round" stroke-miterlimit="10" points="788.7,354.6
	787,357.4 791.6,358.3 791.2,355 " />
	<g>
		<path fill="#B9DFED" d="M789.3,353.8c0,0,5.2,1.8,10.6-3.7c0,0,8.3-7.1,9.7-20.8c0,0,1.9-14.5-14.8-17.1c0,0-15.1-1.4-17.2,13.8
		c0,0-2.2,12.4,5.8,23.5C783.5,349.5,786.7,353.4,789.3,353.8" />
		<path fill="none" stroke="#224257" stroke-width="2" stroke-linejoin="round" stroke-miterlimit="10" d="M789.3,353.8
		c0,0,5.2,1.8,10.6-3.7c0,0,8.3-7.1,9.7-20.8c0,0,1.9-14.5-14.8-17.1c0,0-15.1-1.4-17.2,13.8c0,0-2.2,12.4,5.8,23.5
		C783.5,349.5,786.7,353.4,789.3,353.8z" />
		<path fill="none" stroke="#FFFFFF" stroke-width="2" stroke-linecap="round" stroke-linejoin="round" stroke-miterlimit="10" d="
		M790.9,317.8c0,0-6.2,0.7-6.9,7.7" />
		<path fill="none" stroke="#224257" stroke-width="2" stroke-linecap="round" stroke-linejoin="round" stroke-miterlimit="10" d="
		M789.6,358.4c0,0-5.5,14.9,4.7,28.6" />
	</g>
</svg>
