<svg version="1.1" id="Calque_1" xmlns="http://www.w3.org/2000/svg" xmlns:xlink="http://www.w3.org/1999/xlink" x="0px" y="0px" width="36px" height="29px" viewBox="0 0 36 29" enable-background="new 0 0 36 29" xml:space="preserve">
	<g>
		<defs>
			<rect id="SVGID_1_" x="5.9" y="5.3" width="25.7" height="20.5" />
		</defs>
		<clipPath id="SVGID_2_">
			<use xlink:href="#SVGID_1_" overflow="visible" />
		</clipPath>
		<path clip-path="url(#SVGID_2_)" fill="#F4EE8E" d="M14.6,18.7c0,0-9.5-2.7-8.6-12.5c0,0,9.2-1.6,13,7.9c0,0,2.6-9.2,12.5-8.7
		c0,0,1.6,8.8-8.1,13.1" />
		<path clip-path="url(#SVGID_2_)" fill="#F4EE8E" d="M24.1,20.8c0.1,2.7-2.1,5-4.8,5.1c-2.7,0.1-5-2.1-5.1-4.8
		c-0.1-2.7,2.1-5,4.8-5.1C21.7,15.9,24,18.1,24.1,20.8" />
	</g>
</svg>
