<?xml version="1.0" encoding="utf-8"?>
<svg version="1.1" xmlns="http://www.w3.org/2000/svg" xmlns:xlink="http://www.w3.org/1999/xlink" x="0px" y="0px" viewBox="0 0 1996 460" enable-background="new 0 0 1996 460" xml:space="preserve">
	<path fill-rule="evenodd" clip-rule="evenodd" fill-opacity="0.35" d="M0,228c0,0,18.1-42.3,78,0
	c30.4-90.4,161.6-72.6,192-15c11.7-84.6,129.5-129.4,201-96c39.1-104.6,182.6-74.7,197-24c45.3-62.5,161.9-48.4,195,15
	c48.1-50.5,129.1-57.4,186,18c40.1-63.2,161.9-61.8,186-9c26.7-38.5,54.4-58.5,96-59c38.6-3.5,75.5,10.6,105,47
	c41.5-59.5,190.7-36.4,209,60c46.3-27.6,127.9-8.4,144,39c31.1-43.6,119.1-51.4,162-6c27-2.6,45-9,45-9v271H0V228z" />
</svg>
