<svg version="1.2" baseProfile="tiny-ps" xmlns="http://www.w3.org/2000/svg" viewBox="0 0 1495 510" width="1495" height="510">
	<title>light blue leave1 </title>
	<style>
		tspan { white-space:pre }
		.shp0 { opacity: 0.2;fill: #367a91 } 
	</style>
	<path id="light blue leave1 " class="shp0" d="M89.36 106.27C81.45 99.37 73.1 94.65 64.17 92.12C56.56 89.97 51.15 90.18 44.23 86.41C35.75 81.79 29.22 73.65 24.98 64.23C12.24 35.99 27.27 -0.24 35.64 0.05C37.52 0.12 40.25 3.96 43.2 11.04C46.14 18.09 46.79 25.21 48.01 30.97C49.08 35.98 55.64 48.43 65.55 59.53C68.24 62.54 79.42 71.26 84.8 80.7C89.28 88.55 91.5 97.19 91.92 106.27M81.08 96.36C72.58 91.44 64.22 89.29 56.34 90.99C45.93 93.23 41.22 101.14 33.8 108.72C19.67 123.16 -0.87 127.75 0.26 131.29C1.26 134.45 15.82 134.28 29.4 129.68C40.87 125.79 48.11 118.63 59.64 110.87C66.2 106.45 72.97 102.34 79.98 98.51C81.4 97.74 82.8 96.99 84.23 96.24M80.45 94.84C76.96 87.31 72.17 80.93 65.87 75.99C59.79 71.23 54.53 69.69 48.37 65.03C43.64 61.45 39.52 57.39 37.6 54.73C24.32 36.25 32.48 10.98 32.94 11.04C33.27 11.08 29.78 23.98 35.81 38.5C37.78 43.25 40.82 48.25 45.68 53.63C53.81 62.63 62.1 65.05 69.91 72.92C76.7 79.77 81.4 88.42 84.23 98.75M74.45 93.7C64.63 94.53 56.18 97.37 49.3 102.5C43.44 106.88 41.11 111.38 35.01 115.69C26.46 121.74 17.91 122.87 18.06 123.46C18.25 124.2 30.79 124 40.64 116.29C44.17 113.52 45.59 110.8 49.04 107.93C52.32 105.21 57.16 102.3 63.34 99.91C66.92 98.52 70.63 97.48 74.45 96.81M1425.3 508.54C1420.64 506.1 1417.5 499.88 1416.97 487.7C1415.92 463.62 1431.26 444.73 1436.09 438.85C1467.39 400.77 1485.64 380.05 1491.97 383.5C1499.37 387.55 1488.95 414.48 1475.3 462.69C1473.91 467.62 1467.78 488.06 1450.52 500.9C1440.56 508.31 1431.54 511.8 1425.3 508.54Z" />
</svg>