<svg version="1.1" id="Calque_1" xmlns="http://www.w3.org/2000/svg" xmlns:xlink="http://www.w3.org/1999/xlink" x="0px" y="0px" width="292px" height="243.6px" viewBox="0 0 292 243.6" enable-background="new 0 0 292 243.6" xml:space="preserve">
	<g>
		<defs>
			<rect id="SVGID_1_" x="29.5" y="85.8" width="163.3" height="143.1" />
		</defs>
		<clipPath id="SVGID_2_">
			<use xlink:href="#SVGID_1_" overflow="visible" />
		</clipPath>
		<path clip-path="url(#SVGID_2_)" fill="none" stroke="#000000" stroke-width="2.287" stroke-linecap="round" stroke-linejoin="round" stroke-miterlimit="10" d="
		M172.4,207.6c0,0-4.1,2.4-7.3,0c-3.2-2.4-7.7-2.5-11,3.6c-3,5.6-8.9,3.7-10.2,2.7c-1.8-1.4-7.4-3.3-10.8,3.1
		c-2.9,5.4-8,4.6-10.1,3.2c-2.1-1.5-8-2.8-11.9,3.3c-3.9,6.1-9.6,4.4-11.3,3.3" />
	</g>
	<polygon fill="#ACDDF0" points="141.5,187.4 120.9,189.9 119.2,177.4 139.8,174.8 " />
	<rect x="85.4" y="146.6" transform="matrix(0.864 -0.5034 0.5034 0.864 -64.6745 70.314)" fill="#EB5D72" width="24.8" height="16.5" />
	<rect x="130.5" y="131.8" transform="matrix(0.9613 -0.2756 0.2756 0.9613 -32.5985 43.8104)" fill="#FAEB9A" width="18.2" height="12.1" />
	<line fill="none" stroke="#224257" stroke-width="2" stroke-linecap="square" stroke-linejoin="round" stroke-miterlimit="10" x1="93.6" y1="149.5" x2="91.9" y2="144.7" />
	<path fill="none" stroke="#224257" stroke-width="2" stroke-linecap="round" stroke-linejoin="round" stroke-miterlimit="10" d="
	M133,147l16.7-4.8 M151.4,147.4l-17.1,4.9l-4.9-17.1l17.1-4.9L151.4,147.4z" />
	<line fill="none" stroke="#224257" stroke-width="2" stroke-linecap="square" stroke-linejoin="round" stroke-miterlimit="10" x1="129.1" y1="177.5" x2="128.1" y2="171.8" />
	<path fill="none" stroke="#224257" stroke-width="2" stroke-linecap="round" stroke-linejoin="round" stroke-miterlimit="10" d="
	M91.6,168.3l20.8-12.1 M116.2,162.7L95,175l-12.4-21.3l21.2-12.4L116.2,162.7z M121.1,190.5l20-2.5 M141.8,194.3l-20.4,2.5
	l-2.5-20.4l20.4-2.5L141.8,194.3z" />
	<line fill="none" stroke="#224257" stroke-width="2" stroke-linecap="square" stroke-linejoin="round" stroke-miterlimit="10" x1="138.3" y1="134.6" x2="136.9" y2="129.7" />
	<g>
		<defs>
			<rect id="SVGID_3_" x="29.5" y="85.8" width="163.3" height="143.1" />
		</defs>
		<clipPath id="SVGID_4_">
			<use xlink:href="#SVGID_3_" overflow="visible" />
		</clipPath>
		<line clip-path="url(#SVGID_4_)" fill="none" stroke="#224257" stroke-width="2" stroke-linecap="round" stroke-linejoin="round" stroke-miterlimit="10" x1="83.8" y1="86.8" x2="86" y2="94.4" />
	</g>
	<line fill="none" stroke="#224257" stroke-width="2" stroke-linecap="round" stroke-linejoin="round" stroke-miterlimit="10" x1="81.1" y1="91.7" x2="88.7" y2="89.5" />
	<line fill="none" stroke="#224257" stroke-width="2" stroke-linecap="round" stroke-linejoin="round" stroke-miterlimit="10" x1="98" y1="193.1" x2="100.2" y2="200.7" />
	<line fill="none" stroke="#224257" stroke-width="2" stroke-linecap="round" stroke-linejoin="round" stroke-miterlimit="10" x1="95.3" y1="198" x2="102.9" y2="195.8" />
	<g>
		<defs>
			<rect id="SVGID_5_" x="29.5" y="85.8" width="163.3" height="143.1" />
		</defs>
		<clipPath id="SVGID_6_">
			<use xlink:href="#SVGID_5_" overflow="visible" />
		</clipPath>
		<circle clip-path="url(#SVGID_6_)" fill="none" stroke="#224257" stroke-width="2" stroke-miterlimit="10" cx="188.9" cy="158.9" r="2.9" />
		<circle clip-path="url(#SVGID_6_)" fill="none" stroke="#224257" stroke-width="2" stroke-miterlimit="10" cx="33.4" cy="162.4" r="2.9" />
	</g>
</svg>
