<svg version="1.1" id="Calque_1" xmlns="http://www.w3.org/2000/svg" xmlns:xlink="http://www.w3.org/1999/xlink" x="0px" y="0px" width="1018px" height="510px" viewBox="0 0 1018 510" enable-background="new 0 0 1018 510" xml:space="preserve">
	<g>
		<defs>
			<rect id="SVGID_1_" width="1019.3" height="716" />
		</defs>
		<clipPath id="SVGID_2_">
			<use xlink:href="#SVGID_1_" overflow="visible" />
		</clipPath>
		<path clip-path="url(#SVGID_2_)" fill="#224257" d="M590.7,204.9v-7.8c0-0.6-0.5-1-1-1c-0.6,0-1,0.5-1,1v7.8c0,0.6,0.5,1,1,1
		C590.2,206,590.7,205.5,590.7,204.9" />
		<path clip-path="url(#SVGID_2_)" fill="#224257" d="M593.5,200h-7.8c-0.6,0-1,0.5-1,1c0,0.6,0.5,1,1,1h7.8c0.6,0,1-0.5,1-1
		C594.6,200.4,594.1,200,593.5,200" />
		<path clip-path="url(#SVGID_2_)" fill="#224257" d="M386.1,138.4v-7.8c0-0.6-0.5-1-1-1s-1,0.5-1,1v7.8c0,0.6,0.5,1,1,1
		S386.1,139,386.1,138.4" />
		<path clip-path="url(#SVGID_2_)" fill="#224257" d="M389,133.5h-7.8c-0.6,0-1,0.5-1,1c0,0.6,0.5,1,1,1h7.8c0.6,0,1-0.5,1-1
		C390,133.9,389.5,133.5,389,133.5" />
		<circle clip-path="url(#SVGID_2_)" fill="none" stroke="#224257" stroke-width="2" stroke-miterlimit="10" cx="732.1" cy="149.6" r="3.5" />
		<circle clip-path="url(#SVGID_2_)" fill="none" stroke="#224257" stroke-width="2" stroke-miterlimit="10" cx="912.3" cy="55.8" r="3.5" />
	</g>
	<polyline fill="#FAEB9A" points="235.6,118.9 235.5,177.9 257,167 279.6,178 279.7,115.7 " />
	<polyline fill="none" stroke="#224257" stroke-width="2" stroke-linecap="round" stroke-linejoin="round" stroke-miterlimit="10" points="
	235.6,118.9 235.5,177.9 257,167 279.6,178 279.7,115.7 " />
	<g>
		<defs>
			<rect id="SVGID_3_" width="1019.3" height="716" />
		</defs>
		<clipPath id="SVGID_4_">
			<use xlink:href="#SVGID_3_" overflow="visible" />
		</clipPath>
		<path clip-path="url(#SVGID_4_)" fill="#FFFFFF" d="M268.8,145c0,5.9-4.8,10.7-10.7,10.7s-10.7-4.8-10.7-10.7
		c0-5.9,4.8-10.7,10.7-10.7S268.8,139.1,268.8,145" />
		<circle clip-path="url(#SVGID_4_)" fill="none" stroke="#224257" stroke-width="2.13" stroke-linecap="round" stroke-linejoin="round" stroke-miterlimit="10" cx="258.1" cy="145" r="10.7" />
		<path clip-path="url(#SVGID_4_)" fill="none" stroke="#224257" stroke-width="2.13" stroke-linecap="round" stroke-linejoin="round" stroke-miterlimit="10" d="
		M268.4,135.6c0,0-0.9-1.6-3.8-2.9 M248,135.6c0,0,0.9-1.6,3.8-2.9 M265.1,153.4l1.4,2.9 M251,153.4l-1.4,2.9 M259.2,141l-2.1,5h6.4
		" />
	</g>
	<polyline fill="#ACDDF0" points="798.1,79 798,133.1 816,122.7 834.9,133.2 834.9,89.8 " />
	<polyline fill="none" stroke="#224257" stroke-width="2" stroke-linecap="round" stroke-linejoin="round" stroke-miterlimit="10" points="
	798.1,79 798,133.1 816,122.7 834.9,133.2 834.9,89.8 " />
	<polyline fill="#FAEB9A" points="755.1,52.8 756.2,77.3 777.6,69.1 " />
	<polyline fill="none" stroke="#224257" stroke-width="2" stroke-linecap="round" stroke-linejoin="round" stroke-miterlimit="10" points="
	755.1,52.8 756.2,77.3 777.6,69.1 " />
	<polyline fill="#ACDDF0" points="544.1,93.5 553.9,114.3 570.5,98.5 " />
	<polyline fill="none" stroke="#224257" stroke-width="2" stroke-linecap="round" stroke-linejoin="round" stroke-miterlimit="10" points="
	544.1,93.5 553.9,114.3 570.5,98.5 " />
	<polyline fill="#ACDDF0" points="109.5,92.9 115.3,112.3 131.7,101.7 " />
	<polyline fill="none" stroke="#224257" stroke-width="2.13" stroke-linecap="round" stroke-linejoin="round" stroke-miterlimit="10" points="
	109.5,92.9 115.3,112.3 131.7,101.7 " />
	<polyline fill="#EB5D72" points="864.1,94 874.8,111 887.6,95.6 " />
	<polyline fill="none" stroke="#224257" stroke-width="2" stroke-linecap="round" stroke-linejoin="round" stroke-miterlimit="10" points="
	864.1,94 874.8,111 887.6,95.6 " />
	<polyline fill="#EB5D72" points="421.7,75.2 432.4,92.2 445.1,76.8 " />
	<polyline fill="none" stroke="#224257" stroke-width="2" stroke-linecap="round" stroke-linejoin="round" stroke-miterlimit="10" points="
	421.7,75.2 432.4,92.2 445.1,76.8 " />
	<polyline fill="#EB5D72" points="147.7,107.4 154.7,123.5 167.7,111.9 " />
	<polyline fill="none" stroke="#224257" stroke-width="2" stroke-linecap="round" stroke-linejoin="round" stroke-miterlimit="10" points="
	147.7,107.4 154.7,123.5 167.7,111.9 " />
	<polyline fill="#EB5D72" points="974.6,83.6 989.6,94.6 995.3,76.9 " />
	<polyline fill="none" stroke="#224257" stroke-width="2" stroke-linecap="round" stroke-linejoin="round" stroke-miterlimit="10" points="
	974.6,83.6 989.6,94.6 995.3,76.9 " />
	<g>
		<defs>
			<rect id="SVGID_5_" width="1019.3" height="716" />
		</defs>
		<clipPath id="SVGID_6_">
			<use xlink:href="#SVGID_5_" overflow="visible" />
		</clipPath>
		<path clip-path="url(#SVGID_6_)" fill="#EB5D72" d="M741.3,14c0.6-0.3-19.1,9.9-19.1,9.9" />
		<path clip-path="url(#SVGID_6_)" fill="none" stroke="#224257" stroke-width="2" stroke-linecap="round" stroke-linejoin="round" stroke-miterlimit="10" d="
		M741.3,14c0.6-0.3-19.1,9.9-19.1,9.9" />
		<path clip-path="url(#SVGID_6_)" fill="#EB5D72" d="M748.5,12.4c0,2.8-2.3,5.1-5.1,5.1c-2.8,0-5.1-2.3-5.1-5.1
		c0-2.8,2.3-5.1,5.1-5.1C746.2,7.3,748.5,9.6,748.5,12.4" />
		<circle clip-path="url(#SVGID_6_)" fill="none" stroke="#224257" stroke-width="2" stroke-miterlimit="10" cx="743.4" cy="12.4" r="5.1" />
		<path clip-path="url(#SVGID_6_)" fill="#EB5D72" d="M505,55.6c0.6-0.3-19.1,9.9-19.1,9.9" />
		<path clip-path="url(#SVGID_6_)" fill="none" stroke="#224257" stroke-width="2" stroke-linecap="round" stroke-linejoin="round" stroke-miterlimit="10" d="
		M505,55.6c0.6-0.3-19.1,9.9-19.1,9.9" />
		<path clip-path="url(#SVGID_6_)" fill="#EB5D72" d="M512.2,54c0,2.8-2.3,5.1-5.1,5.1s-5.1-2.3-5.1-5.1c0-2.8,2.3-5.1,5.1-5.1
		S512.2,51.2,512.2,54" />
		<circle clip-path="url(#SVGID_6_)" fill="none" stroke="#224257" stroke-width="2" stroke-miterlimit="10" cx="507" cy="54" r="5.1" />
		<path clip-path="url(#SVGID_6_)" fill="#EB5D72" d="M395.1,50.8c-0.2-0.6,3.7,21.2,3.7,21.2" />
		<path clip-path="url(#SVGID_6_)" fill="none" stroke="#224257" stroke-width="2" stroke-linecap="round" stroke-linejoin="round" stroke-miterlimit="10" d="
		M395.1,50.8c-0.2-0.6,3.7,21.2,3.7,21.2" />
		<path clip-path="url(#SVGID_6_)" fill="#ACDDF0" d="M395.7,43.5c2.7,0.9,4.2,3.7,3.3,6.4c-0.9,2.7-3.7,4.2-6.4,3.3
		c-2.7-0.9-4.2-3.7-3.3-6.4C390.2,44.2,393,42.7,395.7,43.5" />
		<circle clip-path="url(#SVGID_6_)" fill="none" stroke="#224257" stroke-width="2" stroke-linecap="round" stroke-linejoin="round" stroke-miterlimit="10" cx="394.2" cy="48.4" r="5.1" />
		<path clip-path="url(#SVGID_6_)" fill="#ACDDF0" d="M809,103.2c0.1,2.8,2.4,5,5.2,5c2.8-0.1,5-2.4,5-5.2s-2.4-5-5.2-5
		C811.1,98,808.9,100.3,809,103.2" />
		<circle clip-path="url(#SVGID_6_)" fill="none" stroke="#224257" stroke-width="2" stroke-linecap="round" stroke-linejoin="round" stroke-miterlimit="10" cx="814" cy="103" r="5.1" />
	</g>
	<line fill="none" stroke="#224257" stroke-width="2" stroke-linecap="round" stroke-linejoin="round" stroke-miterlimit="10" x1="814" y1="108.2" x2="814" y2="116.9" />
	<line fill="none" stroke="#224257" stroke-width="2" stroke-linecap="round" stroke-linejoin="round" stroke-miterlimit="10" x1="819.4" y1="100.7" x2="827.7" y2="98" />
	<line fill="none" stroke="#224257" stroke-width="2" stroke-linecap="round" stroke-linejoin="round" stroke-miterlimit="10" x1="809.9" y1="112.9" x2="818.1" y2="113" />
	<polyline fill="none" stroke="#224257" stroke-width="2" stroke-linecap="round" stroke-linejoin="round" stroke-miterlimit="10" points="
	824.4,95.2 828.9,97.8 826.2,102.3 " />
	<polyline fill="#FAEB9A" points="911,94.9 910.9,163.2 929.6,152.4 949.4,163.3 949.4,89.9 " />
	<polyline fill="none" stroke="#224257" stroke-width="2" stroke-linecap="round" stroke-linejoin="round" stroke-miterlimit="10" points="
	911,94.9 910.9,163.2 929.6,152.4 949.4,163.3 949.4,89.9 " />
	<polyline fill="#EB5D72" points="612.2,95.5 612.2,132.6 626.2,124.4 641,132.6 641.1,87.9 " />
	<polyline fill="none" stroke="#224257" stroke-width="2" stroke-linecap="round" stroke-linejoin="round" stroke-miterlimit="10" points="
	612.2,95.5 612.2,132.6 626.2,124.4 641,132.6 641.1,87.9 " />
	<g>
		<defs>
			<rect id="SVGID_7_" width="1019.3" height="716" />
		</defs>
		<clipPath id="SVGID_8_">
			<use xlink:href="#SVGID_7_" overflow="visible" />
		</clipPath>
		<path clip-path="url(#SVGID_8_)" fill="#ACDDF0" d="M626.7,104.4c-1.5,0-2.7,1.2-2.7,2.7c0,1.5,1.2,2.7,2.7,2.7
		c1.5,0,2.7-1.2,2.7-2.7C629.4,105.6,628.2,104.4,626.7,104.4 M621.9,113c-2.7-2.5-2.7-5.8-2.7-5.8c0-4.1,3.3-7.4,7.4-7.4
		c4.1,0,7.4,3.3,7.4,7.4c0,0,0.1,3.4-2.8,5.9l-3.9,3.6c-0.4,0.4-1.1,0.4-1.5,0L621.9,113z" />
		<path clip-path="url(#SVGID_8_)" fill="none" stroke="#224257" stroke-width="2" stroke-linecap="round" stroke-linejoin="round" stroke-miterlimit="10" d="
		M626.7,104.4c-1.5,0-2.7,1.2-2.7,2.7c0,1.5,1.2,2.7,2.7,2.7c1.5,0,2.7-1.2,2.7-2.7C629.4,105.6,628.2,104.4,626.7,104.4z
		 M621.9,113c-2.7-2.5-2.7-5.8-2.7-5.8c0-4.1,3.3-7.4,7.4-7.4c4.1,0,7.4,3.3,7.4,7.4c0,0,0.1,3.4-2.8,5.9l-3.9,3.6
		c-0.4,0.4-1.1,0.4-1.5,0L621.9,113z" />
		<path clip-path="url(#SVGID_8_)" fill="#FFFFFF" d="M938.2,141.4h-15c-1,0-1.8-0.8-1.8-1.8v-13.9c0-1,0.8-1.8,1.8-1.8h15
		c1,0,1.8,0.8,1.8,1.8v13.9C940,140.6,939.2,141.4,938.2,141.4" />
		<path clip-path="url(#SVGID_8_)" fill="none" stroke="#224257" stroke-width="2" stroke-linecap="round" stroke-linejoin="round" stroke-miterlimit="10" d="
		M938.2,141.4h-15c-1,0-1.8-0.8-1.8-1.8v-13.9c0-1,0.8-1.8,1.8-1.8h15c1,0,1.8,0.8,1.8,1.8v13.9C940,140.6,939.2,141.4,938.2,141.4z
		" />
	</g>
	<path fill="none" stroke="#224257" stroke-width="2" stroke-linecap="round" stroke-linejoin="round" stroke-miterlimit="10" d="
	M934.9,124.9v-3.1 M930.6,124.9v-3.1 M926.6,124.9v-3.1 M921.9,128.2h17.6" />
	<text transform="matrix(1 0 0 1 925.9238 137.3818)" fill="#224257" font-family="'MyriadPro-Regular'" font-size="8.5417">
		03
	</text>
	<g>
		<path fill="none" stroke="#224257" stroke-width="0.646" stroke-miterlimit="10" d="M928.1,132.3c0.8,0,1.1,0.9,1.1,2.3
		c0,1.4-0.4,2.3-1.1,2.3c-0.7,0-1.1-0.8-1.1-2.3C927,133.1,927.5,132.3,928.1,132.3z M928.2,131.7c-1.1,0-1.9,1-1.9,2.9
		c0,1.8,0.8,2.9,1.8,2.9c1.2,0,1.9-1,1.9-2.9C930,132.8,929.3,131.7,928.2,131.7z" />
		<path fill="none" stroke="#224257" stroke-width="0.646" stroke-miterlimit="10" d="M930.7,137.1c0.3,0.2,0.8,0.4,1.4,0.4
		c1.3,0,2-0.8,2-1.7c0-0.8-0.6-1.3-1.2-1.4v0c0.7-0.2,1-0.7,1-1.3c0-0.7-0.5-1.3-1.6-1.3c-0.6,0-1.2,0.2-1.5,0.4l0.2,0.5
		c0.2-0.2,0.7-0.4,1.1-0.4c0.7,0,1,0.4,1,0.8c0,0.7-0.7,0.9-1.2,0.9h-0.4v0.6h0.4c0.7,0,1.4,0.3,1.4,1.1c0,0.5-0.3,1.1-1.3,1.1
		c-0.5,0-1-0.2-1.2-0.3L930.7,137.1z" />
		<path fill="none" stroke="#224257" stroke-width="2" stroke-linecap="round" stroke-linejoin="round" stroke-miterlimit="10" d="
		M1.2,1.3c0,0,63.4,108.3,213.3,116.2c0,0,129.1,8.6,182-54.6l-0.1-0.1c46.1,34.6,91-5.1,91-5.1s51.9,66.6,157.3,28.7
		c0,0,46.8-13.1,78-70.2c0,0,14.9,31.9,63.6,56.2c0,0,74,43,185.8,11.5c14.7-4.2,30.2-9.6,46.1-16.6" />
		<path fill="#224257" d="M173,55.1v-7.8c0-0.6-0.5-1-1-1c-0.6,0-1,0.5-1,1v7.8c0,0.6,0.5,1,1,1C172.5,56.1,173,55.6,173,55.1" />
		<path fill="#224257" d="M175.9,50.1H168c-0.6,0-1,0.5-1,1c0,0.6,0.5,1,1,1h7.8c0.6,0,1-0.5,1-1C176.9,50.6,176.4,50.1,175.9,50.1" />
	</g>
</svg>
