<svg version="1.1" id="Calque_1" xmlns="http://www.w3.org/2000/svg" xmlns:xlink="http://www.w3.org/1999/xlink" x="0px" y="0px" width="92.7px" height="330px" viewBox="0 0 92.7 330" enable-background="new 0 0 92.7 330" xml:space="preserve">
	<g>
		<path fill="#FAEB9A" d="M93.8,51c0,0,1.3-5.1,0.8-10.6l-36.5,4.1L93.8,51z" />
		<path fill="#224257" d="M93.8,51l1,0.3c0-0.1,0.9-3.6,0.9-8c0-0.9,0-1.9-0.1-2.9c0-0.3-0.2-0.5-0.4-0.7c-0.2-0.2-0.5-0.3-0.8-0.2
		L58,43.5c-0.5,0.1-0.9,0.5-0.9,1c0,0.5,0.3,1,0.8,1L93.6,52c0.5,0.1,1-0.2,1.2-0.7L93.8,51l0.2-1l-28.8-5.3l29.5-3.3l-0.1-1l-1,0.1
		c0.1,0.9,0.1,1.9,0.1,2.7c0,2.1-0.2,4-0.4,5.3c-0.1,0.7-0.2,1.2-0.3,1.6c0,0.2-0.1,0.3-0.1,0.4l0,0.1l0,0L93.8,51l0.2-1L93.8,51z" />
		<path fill="#ACDDF0" d="M56.9,45.6c0,0-19.5,19.1-17.6,35.5c0,0,0.3,17.9,19.2,19.3c0,0,18.9,1.1,20.3-18.2c0,0,2.2-18.9-15.2-36.3
		c0,0,0,0.9-0.7,1.7c0,0,6,8.1,6.2,17.7c0,0,0.1,7.7-8.5,8.4c0,0-6.6,0.4-9.5-4.1c0,0-2.6-2.9-0.6-8.5c0,0,2.7-7.5,7.1-13.5
		L56.9,45.6z" />
		<path fill="#224257" d="M56.9,45.6l-0.7-0.7c0,0-4.5,4.4-9,10.8c-2.3,3.2-4.5,6.9-6.2,10.9c-1.7,3.9-2.9,8.1-2.9,12.3
		c0,0.8,0,1.6,0.1,2.4l1-0.1l-1,0c0,0.1,0.1,4.7,2.6,9.6c1.3,2.4,3.2,5,6,6.9c2.8,2,6.6,3.4,11.5,3.8l0,0c0,0,0.2,0,0.6,0
		c1.7,0,6.5-0.2,11.1-2.7c2.3-1.3,4.6-3.1,6.3-5.8c1.8-2.7,3-6.2,3.3-10.6l-1-0.1l1,0.1c0,0,0.1-0.9,0.1-2.3c0-2.8-0.4-8-2.5-14.2
		c-2.1-6.3-6-13.6-13.1-20.7l-1.7-1.7l0,2.4l0.6,0l-0.6,0v0l0.6,0l-0.6,0l0,0c0,0.1-0.1,0.6-0.5,1.1l-0.6,0.6l0.5,0.7l0,0
		c0.1,0.2,1.6,2.2,3.1,5.3c1.4,3.1,2.9,7.3,2.9,11.7v0l0.3,0l-0.3,0v0l0.3,0l-0.3,0v0c0,0.1,0,1.9-1,3.6c-0.5,0.9-1.2,1.7-2.2,2.4
		c-1,0.7-2.4,1.2-4.3,1.4l0.1,1l-0.1-1l0,0c0,0-0.1,0-0.3,0c-0.7,0-2.2-0.1-3.9-0.6c-0.8-0.3-1.7-0.6-2.4-1.1c-0.8-0.5-1.4-1.1-2-2
		l0-0.1l-0.1-0.1l-0.5,0.4l0.5-0.4l0,0l-0.5,0.4l0.5-0.4l0,0c-0.1-0.1-1.1-1.4-1.1-3.7c0-1,0.2-2.3,0.7-3.7l0,0l0-0.1
		c0.3-0.8,2.9-7.6,7-13.2l0.3-0.5l-1.5-4l-1.1,1.1L56.9,45.6l-1,0.4l0.7,2l1-0.4l-0.8-0.6c-4.6,6.2-7.3,13.7-7.3,13.8l0,0
		c-0.6,1.7-0.8,3.2-0.8,4.4c0,1.6,0.4,2.9,0.8,3.7c0.4,0.9,0.8,1.3,0.9,1.4l0.8-0.7l-0.9,0.6c0.7,1.1,1.6,1.9,2.6,2.6
		c1.4,0.9,3,1.4,4.3,1.7c1.3,0.3,2.5,0.3,3.1,0.3c0.3,0,0.4,0,0.4,0l0,0l0,0c2.2-0.2,4-0.8,5.3-1.7c2-1.3,3-3.2,3.5-4.7
		c0.5-1.5,0.5-2.8,0.5-3v0v0c-0.1-5-1.7-9.6-3.3-12.9c-1.6-3.3-3.1-5.4-3.1-5.4l-0.8,0.6l0.8,0.7c0.5-0.6,0.7-1.1,0.9-1.6
		c0.1-0.4,0.1-0.8,0.1-0.8l-1,0l-0.7,0.7c6.8,6.8,10.6,13.9,12.6,19.9c2,6,2.4,10.9,2.4,13.6c0,0.7,0,1.2,0,1.5c0,0.2,0,0.3,0,0.4
		l0,0.1l0,0l0,0l0,0l0,0c-0.3,4.2-1.4,7.3-3,9.6c-2.3,3.5-5.6,5.4-8.7,6.4c-3.1,1-5.9,1.1-7,1.1c-0.2,0-0.3,0-0.4,0l-0.1,0l0,0h0
		l-0.1,1l0.1-1c-4.6-0.3-7.9-1.7-10.5-3.4c-3.8-2.6-5.7-6.3-6.7-9.4c-0.5-1.5-0.8-2.9-0.9-3.9c-0.1-0.5-0.1-0.9-0.1-1.2
		c0-0.1,0-0.2,0-0.3l0-0.1l0,0l0-0.1l0,0c-0.1-0.7-0.1-1.4-0.1-2.1c0-3.8,1.1-7.7,2.7-11.5c2.4-5.7,6.1-10.9,9.2-14.8
		c1.5-1.9,2.9-3.5,3.9-4.6c0.5-0.5,0.9-1,1.2-1.2c0.1-0.1,0.2-0.3,0.3-0.3l0.1-0.1l0,0L56.9,45.6l-1,0.4L56.9,45.6z" />
		<path fill="#FFFFFF" d="M57.4,43.7c0,0-6-2-5.1-8.3c0,0,6-0.7,8.1,5.5c0,0,1.9-5.8,8.3-5.2c0,0,0.8,5.7-5.6,8.1" />
		<path fill="#224257" d="M57.7,42.7L57.7,42.7c-0.1,0-1.3-0.5-2.4-1.5c-0.6-0.5-1.1-1.1-1.5-1.9c-0.4-0.8-0.7-1.7-0.7-2.8
		c0-0.3,0-0.7,0.1-1.1l-1-0.1l0.1,1l0-0.3l0,0.3h0l0-0.3l0,0.3c0,0,0.2,0,0.5,0c0.7,0,2,0.1,3.2,0.8c0.6,0.3,1.3,0.8,1.8,1.4
		c0.6,0.6,1.1,1.5,1.5,2.6c0.1,0.4,0.5,0.7,1,0.7c0.4,0,0.8-0.3,1-0.7c0-0.1,0.5-1.3,1.5-2.4c0.5-0.6,1.1-1.1,1.9-1.5
		c0.8-0.4,1.8-0.7,3-0.7c0.3,0,0.6,0,0.9,0l0.1-1l-1,0.1l0.3,0l-0.3,0l0,0l0.3,0l-0.3,0c0,0,0,0.2,0,0.5c0,0.7-0.1,1.9-0.8,3.1
		c-0.7,1.2-1.8,2.5-4.2,3.4c-0.5,0.2-0.8,0.8-0.6,1.3c0.2,0.5,0.8,0.8,1.3,0.6c2.8-1,4.4-2.7,5.3-4.4c0.9-1.7,1-3.2,1-4.1
		c0-0.4,0-0.7,0-0.7c-0.1-0.5-0.4-0.8-0.9-0.9c-0.4,0-0.7-0.1-1.1-0.1c-1.6,0-2.9,0.4-4,0.9c-1.6,0.8-2.7,2.1-3.4,3.1
		c-0.7,1-0.9,1.8-1,1.9l1,0.3l1-0.3c-0.5-1.4-1.1-2.5-1.9-3.3c-1.1-1.3-2.5-2-3.7-2.4c-1.2-0.4-2.3-0.5-2.9-0.5c-0.4,0-0.7,0-0.7,0
		c-0.5,0.1-0.8,0.4-0.9,0.9c-0.1,0.5-0.1,0.9-0.1,1.4c0,1.5,0.4,2.8,0.9,3.8c0.8,1.6,2.1,2.6,3.1,3.3c1,0.7,1.8,0.9,1.9,0.9
		c0.5,0.2,1.1-0.1,1.3-0.6C58.6,43.5,58.3,42.9,57.7,42.7z" />
		<path fill="#FFFFFF" d="M63.4,45.3c0,1.7-1.5,3.1-3.2,3.1c-1.7,0-3.1-1.5-3.1-3.2c0-1.7,1.5-3.1,3.2-3.1
		C62,42.1,63.4,43.6,63.4,45.3" />
		<path fill="#224257" d="M63.4,45.3l-1,0c0,1.2-1,2.1-2.1,2.1h-0.1l0,1l0-1c-1.2,0-2.1-1-2.1-2.1v0v0c0-1.2,1-2.1,2.1-2.1h0l0-0.5
		l0,0.5l0,0l0-0.5l0,0.5l0,0c1.2,0,2.1,1,2.1,2.1l0,0v0L63.4,45.3l1,0l0-0.1c0-2.3-1.8-4.1-4.1-4.2l0,1l0.1-1c-0.1,0-0.1,0-0.1,0
		c-2.3,0-4.1,1.8-4.2,4.1v0l0,0.1c0,2.3,1.8,4.1,4.1,4.2h0h0c2.3,0,4.1-1.8,4.2-4.1v0L63.4,45.3z" />
		<path fill="#EB5D72" d="M36.3,30.7c-0.1-1.3,0.5-2.5,1.6-3.3c1.7-1.1,3.9-0.6,5,1c0.6,1,0.7,1.9,0.4,3.1l-0.9,5.8
		c0,0-0.1,0.8-1,1.4c0,0-0.7,0.4-1.6,0.2l-5.6-1.4c-1.4-0.3-2.1-0.6-2.8-1.6c-1.1-1.7-0.6-3.9,1-5C33.8,30.1,35.2,30.1,36.3,30.7" />
		<path fill="#224257" d="M37.3,30.6l0-0.2c0-0.9,0.4-1.7,1.2-2.2c0.4-0.3,0.9-0.4,1.4-0.4c0.9,0,1.7,0.4,2.2,1.2
		c0.3,0.5,0.4,0.8,0.4,1.3c0,0.3,0,0.6-0.1,1l0,0l-0.9,5.8l1,0.2l-1-0.2l0.4,0.1l-0.4-0.1l0,0l0.4,0.1l-0.4-0.1c0,0,0,0.1-0.1,0.3
		c-0.1,0.1-0.2,0.3-0.5,0.5l0.6,0.9L41,37.8l0.2,0.3L41,37.8l0,0l0.2,0.3L41,37.8c0,0-0.3,0.2-0.6,0.2c-0.1,0-0.1,0-0.2,0l-0.2,1
		l0.2-1l-5.6-1.4l0,0c-0.7-0.2-1.1-0.3-1.4-0.5c-0.3-0.2-0.5-0.3-0.7-0.7c-0.3-0.4-0.4-0.9-0.4-1.4c0-0.9,0.4-1.7,1.2-2.2
		c0.4-0.3,0.9-0.4,1.4-0.4c0.4,0,0.8,0.1,1.2,0.3l0.9-1.8c-0.7-0.3-1.4-0.5-2.1-0.5c-0.9,0-1.8,0.3-2.6,0.8
		c-1.4,0.9-2.1,2.4-2.1,3.9c0,0.9,0.3,1.8,0.8,2.6c0.4,0.6,0.9,1.1,1.5,1.4c0.6,0.3,1.2,0.5,1.9,0.7l0,0l5.6,1.4l0,0
		C40,40,40.2,40,40.4,40c0.9,0,1.6-0.4,1.6-0.4l0,0l0,0c0.6-0.4,1-0.9,1.2-1.3c0.2-0.4,0.3-0.7,0.3-0.8l0,0l0.9-5.8l-1-0.2l1,0.2
		c0.1-0.5,0.2-0.9,0.2-1.4c0-0.8-0.2-1.7-0.7-2.5c-0.9-1.4-2.4-2.1-3.9-2.1c-0.9,0-1.8,0.3-2.6,0.8c-1.4,0.9-2.1,2.4-2.1,3.9
		c0,0.1,0,0.2,0,0.3L37.3,30.6z" />
		<path fill="#EB5D72" d="M47.5,17.6c0.6-0.4,1.4-0.4,2.1,0c1,0.6,1.3,1.9,0.7,2.9c-0.3,0.6-0.8,0.8-1.5,1l-3.2,1c0,0-0.5,0.1-1-0.2
		c0,0-0.4-0.3-0.5-0.8l-0.7-3.2c-0.2-0.8-0.2-1.3,0.2-1.8c0.6-1,1.9-1.3,2.9-0.7C47.1,16.2,47.5,16.9,47.5,17.6" />
		<path fill="#224257" d="M48,18.5c0.2-0.1,0.3-0.1,0.5-0.1c0.2,0,0.4,0,0.5,0.2l0,0c0.3,0.2,0.5,0.5,0.5,0.9c0,0.2,0,0.4-0.2,0.5
		c-0.1,0.2-0.2,0.2-0.3,0.3c-0.1,0.1-0.3,0.2-0.6,0.2l0,0l-3.2,1l0.3,1l-0.3-1l0.1,0.4l-0.1-0.5l-0.1,0l0.1,0.4l-0.1-0.5l0,0
		c0,0-0.1,0-0.2-0.1l-0.5,0.9l0.6-0.9l-0.3,0.5l0.3-0.5l0,0l-0.3,0.5l0.3-0.5v0l-0.1-0.1l0-0.1l0,0l-0.7-3.2l0,0
		c-0.1-0.3-0.1-0.5-0.1-0.7c0-0.1,0-0.1,0-0.2c0-0.1,0-0.1,0.1-0.2l0,0c0.2-0.3,0.5-0.5,0.9-0.5c0.2,0,0.4,0,0.5,0.2l0,0
		c0.3,0.2,0.5,0.5,0.5,0.9l0,0l2.1,0l0-0.1c0-1.1-0.5-2.1-1.5-2.7l0,0c-0.5-0.3-1.1-0.4-1.6-0.4c-1.1,0-2.1,0.5-2.7,1.5l0,0
		c-0.1,0.2-0.2,0.5-0.3,0.7c-0.1,0.3-0.1,0.5-0.1,0.8c0,0.4,0.1,0.7,0.1,1.1l0,0l0.7,3.2c0.1,0.5,0.3,0.8,0.5,1
		c0.2,0.2,0.4,0.3,0.4,0.4l0,0l0,0c0.5,0.3,0.9,0.4,1.2,0.4c0.3,0,0.5,0,0.5-0.1l0,0l3.2-1l-0.3-1l0.3,1c0.4-0.1,0.8-0.2,1.2-0.5
		c0.4-0.2,0.7-0.6,1-1c0.3-0.5,0.4-1.1,0.4-1.6c0-1.1-0.5-2.1-1.5-2.7l0,0c-0.5-0.3-1.1-0.4-1.6-0.4c-0.5,0-1.1,0.1-1.5,0.4L48,18.5
		z" />
		<path fill="#EB5D72" d="M35.4,9.1c0.1-0.9,0.6-1.7,1.5-2.2c1.3-0.6,2.8-0.1,3.5,1.2c0.4,0.7,0.3,1.4,0,2.2l-1.2,4
		c0,0-0.2,0.6-0.8,0.9c0,0-0.6,0.2-1.1,0l-3.8-1.5c-0.9-0.4-1.4-0.7-1.8-1.4c-0.6-1.3-0.1-2.8,1.2-3.5C33.6,8.5,34.6,8.6,35.4,9.1" />
		<path fill="#224257" d="M36.4,9.2c0-0.5,0.4-1,0.9-1.3c0.2-0.1,0.4-0.2,0.7-0.2c0.6,0,1.1,0.3,1.4,0.9c0.1,0.2,0.1,0.4,0.1,0.6
		c0,0.2-0.1,0.5-0.2,0.9l0,0l-1.2,4l1,0.3l-1-0.3l0.6,0.2L38.1,14l0,0l0.6,0.2L38.1,14l0.1,0l-0.1,0l0,0l0.1,0l-0.1,0l-0.1,0.1
		c-0.1,0.1-0.1,0.1-0.3,0.2l0.4,0.9l-0.4-0.9l0.2,0.6l-0.2-0.6l0,0l0.2,0.6l-0.2-0.6l0,0l0,0h0l0,0l0,0c0,0-0.1,0-0.2,0l-0.2,0
		l-3.8-1.5l0,0c-0.4-0.2-0.7-0.3-0.9-0.4c-0.2-0.1-0.2-0.2-0.4-0.5c-0.1-0.2-0.2-0.4-0.2-0.7c0-0.6,0.3-1.1,0.9-1.4l0,0
		c0.2-0.1,0.4-0.2,0.7-0.2c0.3,0,0.6,0.1,0.9,0.3l1.2-1.7c-0.6-0.4-1.3-0.6-2-0.6c-0.5,0-1.1,0.1-1.6,0.4l0,0c-1.3,0.6-2,1.9-2,3.3
		c0,0.5,0.1,1.1,0.4,1.6c0.2,0.5,0.6,0.9,1,1.2c0.4,0.3,0.9,0.5,1.4,0.7l3.8,1.5l0,0c0.3,0.1,0.6,0.2,0.9,0.2c0.6,0,0.9-0.2,1-0.2
		l0,0l0,0c0.5-0.2,0.9-0.6,1.1-0.9c0.2-0.3,0.3-0.5,0.3-0.6l0,0l1.2-4l-1-0.3l1,0.3c0.2-0.5,0.3-1,0.3-1.5c0-0.5-0.1-1-0.3-1.5
		c-0.6-1.3-1.9-2-3.3-2c-0.5,0-1.1,0.1-1.6,0.4c-1.2,0.6-1.9,1.8-2,3L36.4,9.2z" />
		<path fill="#224257" d="M59.7,73.9l1,4.1c0.1,0.6,0.7,0.9,1.2,0.8c0.6-0.1,0.9-0.7,0.8-1.2l-1-4.1c-0.1-0.6-0.7-0.9-1.2-0.8
		C59.9,72.8,59.6,73.4,59.7,73.9" />
		<path fill="#224257" d="M56.8,73.2l-1.3,4c-0.2,0.5,0.1,1.1,0.6,1.3c0.5,0.2,1.1-0.1,1.3-0.6l1.3-4c0.2-0.5-0.1-1.1-0.6-1.3
		C57.6,72.4,57,72.7,56.8,73.2" />
		<path fill="#FFFFFF" d="M71,82.5l0.2,0.1L71,82.5L71,82.5l0.2,0.1L71,82.5c0,0-0.5,1.8-1.9,3.7c-1.4,1.9-3.7,3.9-7.4,4.8
		c-0.6,0.1-0.9,0.7-0.8,1.2c0.1,0.6,0.7,0.9,1.2,0.8c4.4-0.9,7.1-3.4,8.7-5.6c1.6-2.2,2.1-4.2,2.2-4.3c0.1-0.5-0.2-1.1-0.7-1.3
		C71.7,81.6,71.2,81.9,71,82.5z" />
		<path fill="#224257" d="M73.7,227.8l24.7,30.8c0.4,0.4,1,0.5,1.4,0.2c0.4-0.4,0.5-1,0.2-1.4l-24.7-30.8c-0.4-0.4-1-0.5-1.4-0.2
		C73.4,226.7,73.4,227.3,73.7,227.8" />
		<path fill="#EB5D72" d="M80.4,215.8c3.7,4.9,2.8,11.9-2.1,15.6c-4.9,3.7-11.9,2.8-15.6-2.1c-3.7-4.9-2.8-11.9,2.1-15.6
		C69.7,209.9,76.7,210.9,80.4,215.8" />
		<path fill="#224257" d="M80.4,215.8l-0.8,0.6c1.4,1.8,2.1,4,2.1,6.1c0,3-1.4,6-4,8c-1.8,1.4-4,2.1-6.1,2.1c-3,0-6-1.4-8-4
		c-1.4-1.8-2.1-4-2.1-6.1c0-3,1.4-6,4-8c1.8-1.4,4-2.1,6.1-2.1c3,0,6,1.4,8,4L80.4,215.8l0.8-0.6c-2.4-3.1-6-4.8-9.7-4.8
		c-2.6,0-5.2,0.8-7.4,2.5c-3.1,2.4-4.8,6-4.8,9.7c0,2.6,0.8,5.2,2.5,7.4c2.4,3.1,6,4.8,9.7,4.8c2.6,0,5.2-0.8,7.4-2.5
		c3.1-2.4,4.8-6,4.8-9.7c0-2.6-0.8-5.2-2.5-7.4L80.4,215.8z" />
		<path fill="#EB5D72" d="M62.7,229.2c0,0,9.3-2.2,16.5-11.9c0.4-0.5,0.8-1.1,1.1-1.6" />
		<path fill="#224257" d="M63,230.2c0.1,0,2.5-0.6,5.8-2.4c3.3-1.8,7.6-4.9,11.3-9.8c0.4-0.5,0.8-1.1,1.2-1.7
		c0.3-0.5,0.2-1.1-0.3-1.4c-0.5-0.3-1.1-0.2-1.4,0.3c-0.4,0.5-0.7,1.1-1.1,1.6c-3.5,4.7-7.5,7.6-10.6,9.3c-1.6,0.8-2.9,1.4-3.8,1.7
		c-0.5,0.2-0.8,0.3-1.1,0.4c-0.1,0-0.2,0.1-0.3,0.1l-0.1,0l0,0c-0.6,0.1-0.9,0.7-0.8,1.2C61.9,230,62.4,230.4,63,230.2z" />
		<path fill="#FFFFFF" d="M69.7,217.3l-0.3-0.5L69.7,217.3L69.7,217.3l-0.3-0.5L69.7,217.3L69.7,217.3c0.2-0.1,1-0.5,2-0.5
		c0.7,0,1.4,0.2,2,0.7c0.4,0.4,1.1,0.3,1.4-0.2c0.4-0.4,0.3-1.1-0.2-1.4c-1.1-0.9-2.3-1.2-3.3-1.2c-1.7,0-2.9,0.7-2.9,0.7
		c-0.5,0.3-0.7,0.9-0.4,1.4C68.6,217.4,69.2,217.6,69.7,217.3z" />
	</g>
	<g>
		<defs>
			<rect id="SVGID_1_" x="30" y="-115.1" width="413" height="467.9" />
		</defs>
		<clipPath id="SVGID_2_">
			<use xlink:href="#SVGID_1_" overflow="visible" />
		</clipPath>
	</g>
	<g>
		<path fill="#224257" d="M40.3,263.9h-1c0,0.7-0.3,1.3-0.7,1.8c-0.5,0.5-1.1,0.7-1.8,0.7s-1.3-0.3-1.8-0.7c-0.5-0.5-0.7-1.1-0.7-1.8
		c0-0.7,0.3-1.3,0.7-1.8c0.5-0.5,1.1-0.7,1.8-0.7c0.7,0,1.3,0.3,1.8,0.7c0.5,0.5,0.7,1.1,0.7,1.8H40.3h1c0-2.5-2.1-4.6-4.6-4.6
		c-2.5,0-4.6,2.1-4.6,4.6c0,2.5,2.1,4.6,4.6,4.6c2.5,0,4.6-2.1,4.6-4.6H40.3z" />
		<path fill="#224257" d="M56,172.7v8.2c0,0.6,0.5,1,1,1c0.6,0,1-0.5,1-1v-8.2c0-0.6-0.5-1-1-1C56.4,171.7,56,172.1,56,172.7" />
		<path fill="#224257" d="M52.9,177.8h8.2c0.6,0,1-0.5,1-1c0-0.6-0.5-1-1-1h-8.2c-0.6,0-1,0.5-1,1C51.9,177.3,52.4,177.8,52.9,177.8" />
	</g>
</svg>
