<svg xmlns="http://www.w3.org/2000/svg" xmlns:xlink="http://www.w3.org/1999/xlink" viewBox="0 0 124.29 73.79">
	<defs>
		<clipPath id="clip-path" transform="translate(-3 -4.78)">
			<rect x="3" y="4.78" width="51.37" height="73.61" style="fill:none" />
		</clipPath>
		<clipPath id="clip-path-2" transform="translate(-3 -4.78)">
			<rect x="69" y="5.02" width="58.22" height="73.48" style="fill:none" />
		</clipPath>
	</defs>
	<polyline points="2.22 23.99 50.31 24.02 43.84 12.83 50.37 1.03 1 1 1 72.61" style="fill:#acddf0" />
	<g style="clip-path:url(#clip-path)">
		<polyline points="2.22 23.99 50.31 24.02 43.84 12.83 50.37 1.03 1 1 1 72.61" style="fill:none;stroke:#224257;stroke-linecap:round;stroke-linejoin:round;stroke-width:2px" />
		<path d="M18.92,16.76v3.42a1,1,0,0,1-.57.93A7.58,7.58,0,0,1,14.9,22a5.1,5.1,0,0,1-5.28-5.4,5.16,5.16,0,0,1,5.24-5.43,6.49,6.49,0,0,1,3.74,1.09.63.63,0,0,1,.31.54.62.62,0,0,1-.64.62.74.74,0,0,1-.31-.07,5.48,5.48,0,0,0-3-.85,3.82,3.82,0,0,0-4,4.1,3.87,3.87,0,0,0,4.09,4.1A5.56,5.56,0,0,0,17.72,20V17.27H15.23a.62.62,0,0,1,0-1.24h3a.72.72,0,0,1,.72.73" transform="translate(-3 -4.78)" style="fill:#224257" />
		<path d="M18.92,16.76v3.42a1,1,0,0,1-.57.93A7.58,7.58,0,0,1,14.9,22a5.1,5.1,0,0,1-5.28-5.4,5.16,5.16,0,0,1,5.24-5.43,6.49,6.49,0,0,1,3.74,1.09.63.63,0,0,1,.31.54.62.62,0,0,1-.64.62.74.74,0,0,1-.31-.07,5.48,5.48,0,0,0-3-.85,3.82,3.82,0,0,0-4,4.1,3.87,3.87,0,0,0,4.09,4.1A5.56,5.56,0,0,0,17.72,20V17.27H15.23a.62.62,0,0,1,0-1.24h3A.72.72,0,0,1,18.92,16.76Z" transform="translate(-3 -4.78)" style="fill:none;stroke:#224257;stroke-miterlimit:10;stroke-width:0.717999994754791px" />
		<path d="M27.49,18a2.49,2.49,0,1,0-4.95,0,2.49,2.49,0,1,0,4.95,0m1.36,0A3.7,3.7,0,0,1,25,22a3.7,3.7,0,0,1-3.84-4A3.7,3.7,0,0,1,25,14a3.7,3.7,0,0,1,3.84,4" transform="translate(-3 -4.78)" style="fill:#224257" />
		<path d="M27.49,18a2.49,2.49,0,1,0-4.95,0,2.49,2.49,0,1,0,4.95,0Zm1.36,0A3.7,3.7,0,0,1,25,22a3.7,3.7,0,0,1-3.84-4A3.7,3.7,0,0,1,25,14,3.7,3.7,0,0,1,28.85,18Z" transform="translate(-3 -4.78)" style="fill:none;stroke:#224257;stroke-miterlimit:10;stroke-width:0.717999994754791px" />
		<path d="M35.89,18.46l-.25-5V12a.73.73,0,1,1,1.46,0v1.49l-.26,5a.43.43,0,0,1-.47.43.45.45,0,0,1-.48-.43M37.22,21a.84.84,0,1,1-.85-.89.87.87,0,0,1,.85.89" transform="translate(-3 -4.78)" style="fill:#224257" />
		<path d="M35.89,18.46l-.25-5V12a.73.73,0,1,1,1.46,0v1.49l-.26,5a.43.43,0,0,1-.47.43A.45.45,0,0,1,35.89,18.46ZM37.22,21a.84.84,0,1,1-.85-.89A.87.87,0,0,1,37.22,21Z" transform="translate(-3 -4.78)" style="fill:none;stroke:#224257;stroke-miterlimit:10;stroke-width:0.717999994754791px" />
	</g>
	<line x1="40.47" y1="10.1" x2="43.3" y2="5.25" style="fill:none;stroke:#fff;stroke-linecap:round;stroke-miterlimit:10;stroke-width:2px" />
	<polyline points="67.22 24.17 123.23 24.2 116.75 13.01 123.29 1.2 66.93 1.17 66.93 72.79" style="fill:#eb5d72" />
	<g style="clip-path:url(#clip-path-2)">
		<polyline points="67.22 24.17 123.23 24.2 116.75 13.01 123.29 1.2 66.93 1.17 66.93 72.79" style="fill:none;stroke:#224257;stroke-linecap:round;stroke-linejoin:round;stroke-width:2px" />
		<path d="M85.7,21.8a.61.61,0,0,1-.62.62H79.21a.66.66,0,0,1-.65-.67v-9a.67.67,0,0,1,.65-.68h5.87a.62.62,0,0,1,.62.64.6.6,0,0,1-.62.62H79.89v3.28h4.66a.63.63,0,0,1,.63.64.62.62,0,0,1-.63.62H79.89v3.29h5.19a.62.62,0,0,1,.62.64" transform="translate(-3 -4.78)" style="fill:#224257" />
		<path d="M85.7,21.8a.61.61,0,0,1-.62.62H79.21a.66.66,0,0,1-.65-.67v-9a.67.67,0,0,1,.65-.68h5.87a.62.62,0,0,1,.62.64.6.6,0,0,1-.62.62H79.89v3.28h4.66a.63.63,0,0,1,.63.64.62.62,0,0,1-.63.62H79.89v3.29h5.19A.62.62,0,0,1,85.7,21.8Z" transform="translate(-3 -4.78)" style="fill:none;stroke:#224257;stroke-miterlimit:10" />
		<path d="M94.89,17.67v4.17a.67.67,0,0,1-.67.66.66.66,0,0,1-.65-.66v-4C93.57,16.7,93.1,16,92,16a3.09,3.09,0,0,0-2.39,1.41v4.4a.67.67,0,0,1-.67.66.66.66,0,0,1-.66-.66V15.55a.66.66,0,0,1,.66-.68.68.68,0,0,1,.67.68v.6a3.49,3.49,0,0,1,2.71-1.35,2.62,2.62,0,0,1,2.6,2.87" transform="translate(-3 -4.78)" style="fill:#224257" />
		<path d="M94.89,17.67v4.17a.67.67,0,0,1-.67.66.66.66,0,0,1-.65-.66v-4C93.57,16.7,93.1,16,92,16a3.09,3.09,0,0,0-2.39,1.41v4.4a.67.67,0,0,1-.67.66.66.66,0,0,1-.66-.66V15.55a.66.66,0,0,1,.66-.68.68.68,0,0,1,.67.68v.6a3.49,3.49,0,0,1,2.71-1.35A2.62,2.62,0,0,1,94.89,17.67Z" transform="translate(-3 -4.78)" style="fill:none;stroke:#224257;stroke-miterlimit:10" />
		<path d="M103.46,20.2V17.08A3.12,3.12,0,0,0,101.14,16a2.36,2.36,0,0,0-2.4,2.68,2.36,2.36,0,0,0,2.4,2.67,3.11,3.11,0,0,0,2.32-1.11m0-4.37V12.19a.67.67,0,1,1,1.33,0v9.64a.67.67,0,1,1-1.33,0v-.38A3.33,3.33,0,0,1,101,22.57a3.65,3.65,0,0,1-3.54-3.93A3.65,3.65,0,0,1,101,14.7a3.34,3.34,0,0,1,2.51,1.13" transform="translate(-3 -4.78)" style="fill:#224257" />
		<path d="M103.46,20.2V17.08A3.12,3.12,0,0,0,101.14,16a2.36,2.36,0,0,0-2.4,2.68,2.36,2.36,0,0,0,2.4,2.67A3.11,3.11,0,0,0,103.46,20.2Zm0-4.37V12.19a.67.67,0,1,1,1.33,0v9.64a.67.67,0,1,1-1.33,0v-.38A3.33,3.33,0,0,1,101,22.57a3.65,3.65,0,0,1-3.54-3.93A3.65,3.65,0,0,1,101,14.7,3.34,3.34,0,0,1,103.46,15.83Z" transform="translate(-3 -4.78)" style="fill:none;stroke:#224257;stroke-miterlimit:10" />
		<path d="M108.83,19.13l-.23-4.89V12.77a.71.71,0,0,1,.65-.77.7.7,0,0,1,.63.77v1.47l-.22,4.89a.4.4,0,0,1-.41.43.41.41,0,0,1-.42-.43M110,21.59a.75.75,0,1,1-1.48,0,.75.75,0,1,1,1.48,0" transform="translate(-3 -4.78)" style="fill:#224257" />
		<path d="M108.83,19.13l-.23-4.89V12.77a.71.71,0,0,1,.65-.77.7.7,0,0,1,.63.77v1.47l-.22,4.89a.4.4,0,0,1-.41.43A.41.41,0,0,1,108.83,19.13ZM110,21.59a.75.75,0,1,1-1.48,0,.75.75,0,1,1,1.48,0Z" transform="translate(-3 -4.78)" style="fill:none;stroke:#224257;stroke-miterlimit:10" />
	</g>
	<path d="M116.8,20,119,24.67m-2.21-9.61L119,10.38" transform="translate(-3 -4.78)" style="fill:none;stroke:#fff;stroke-linecap:round;stroke-miterlimit:10;stroke-width:2px" />
</svg>
