<?xml version="1.0" encoding="utf-8"?>
<!-- Generator: Adobe Illustrator 18.0.0, SVG Export Plug-In . SVG Version: 6.00 Build 0) -->
<!DOCTYPE svg PUBLIC "-//W3C//DTD SVG 1.1//EN" "http://www.w3.org/Graphics/SVG/1.1/DTD/svg11.dtd">
<svg version="1.1" id="Guestbook" xmlns="http://www.w3.org/2000/svg" xmlns:xlink="http://www.w3.org/1999/xlink" x="0px" y="0px" width="21px" height="183px" viewBox="0 0 21 183" enable-background="new 0 0 21 183" xml:space="preserve">
	<g>
		<defs>
			<rect id="SVGID_1_" x="2.4" y="172.5" width="17.6" height="9.2" />
		</defs>
		<clipPath id="SVGID_2_">
			<use xlink:href="#SVGID_1_" overflow="visible" />
		</clipPath>
		<path clip-path="url(#SVGID_2_)" fill="none" stroke="#224257" stroke-width="1.682" stroke-linecap="round" stroke-linejoin="round" stroke-miterlimit="10" d="
		M14.7,177.1c0,2.1-1.5,3.7-3.4,3.7c-1.9,0-3.4-1.7-3.4-3.7c0-2.1,1.5-3.7,3.4-3.7C13.2,173.4,14.7,175.1,14.7,177.1z M3.1,177
		c9.2,8.7,16.1,0.1,16.1,0.1C10.1,168.4,3.1,177,3.1,177z" />
	</g>
	<g>
		<g>
			<path fill="#224257" d="M7.9,163.3c-0.1,0-0.2,0-0.3-0.1L6,162c-0.2-0.2-0.3-0.5-0.1-0.8c0.2-0.2,0.5-0.3,0.8-0.1l1.5,1.2
			c0.2,0.2,0.3,0.5,0.1,0.8C8.2,163.2,8.1,163.3,7.9,163.3z M11.1,159.3c-0.1,0-0.2,0-0.3-0.1l-1.5-1.2c-0.2-0.2-0.3-0.5-0.1-0.8
			c0.2-0.2,0.5-0.3,0.8-0.1l1.5,1.2c0.2,0.2,0.3,0.5,0.1,0.8C11.5,159.2,11.3,159.3,11.1,159.3z M14.3,155.3c-0.1,0-0.2,0-0.3-0.1
			l-1.5-1.2c-0.2-0.2-0.3-0.5-0.1-0.8c0.2-0.2,0.5-0.3,0.8-0.1l1.5,1.2c0.2,0.2,0.3,0.5,0.1,0.8C14.6,155.3,14.5,155.3,14.3,155.3z" />
		</g>
		<g>
			<defs>
				<rect id="SVGID_3_" x="2" y="147.6" width="16" height="18.2" />
			</defs>
			<clipPath id="SVGID_4_">
				<use xlink:href="#SVGID_3_" overflow="visible" />
			</clipPath>
			<g clip-path="url(#SVGID_4_)">
				<g>
					<path fill="#224257" d="M5.8,165.9c-0.2,0-0.4-0.1-0.5-0.2l-3.1-2.5c-0.2-0.1-0.3-0.3-0.3-0.6s0-0.4,0.2-0.6l11.5-14.3
					c0.3-0.4,0.8-0.4,1.2-0.1l3.1,2.5c0.2,0.1,0.3,0.3,0.3,0.6s0,0.4-0.2,0.6L6.4,165.6C6.3,165.8,6,165.9,5.8,165.9z M3.8,162.4
					l1.8,1.5l10.5-13l-1.8-1.5L3.8,162.4z" />
				</g>
			</g>
			<g clip-path="url(#SVGID_4_)">
				<g>
					<path fill="#224257" d="M14.8,150.6c0.2,0.2,0.2,0.5,0.1,0.7c-0.2,0.2-0.5,0.2-0.7,0.1c-0.2-0.2-0.2-0.5-0.1-0.7
					C14.3,150.4,14.6,150.4,14.8,150.6" />
				</g>
			</g>
		</g>
	</g>
	<g>
		<defs>
			<rect id="SVGID_5_" x="2" y="129.9" width="17.5" height="12.7" />
		</defs>
		<clipPath id="SVGID_6_">
			<use xlink:href="#SVGID_5_" overflow="visible" />
		</clipPath>
		<path clip-path="url(#SVGID_6_)" fill="none" stroke="#224257" stroke-width="1.665" stroke-linecap="round" stroke-linejoin="round" stroke-miterlimit="10" d="
		M10.6,134.5c0,0,1.9-2.7,0.4-3.7c0,0-0.7-0.6-1.3-0.2c0,0-0.4,0.4,0,0.9c0,0,1.2,1.4,3.1,0.8c0,0,1-0.2,1.7-1.1 M18.8,142
		c0.5-1.1-0.7-1.6-0.7-1.6c-0.8-3.2-4-5.9-7.5-5.9c-3.6,0-6.6,2.5-7.3,5.9c0,0-1.3,0.6-0.7,1.7" />
		<path clip-path="url(#SVGID_6_)" fill="#224257" d="M9.7,140.8c0,0.3-0.3,0.6-0.6,0.6c-0.3,0-0.6-0.3-0.6-0.6s0.3-0.6,0.6-0.6
		C9.4,140.1,9.7,140.4,9.7,140.8" />
		<path clip-path="url(#SVGID_6_)" fill="#224257" d="M13.3,140.8c0,0.3-0.3,0.6-0.6,0.6c-0.3,0-0.6-0.3-0.6-0.6s0.3-0.6,0.6-0.6
		C13,140.1,13.3,140.4,13.3,140.8" />
	</g>
	<g>
		<defs>
			<rect id="SVGID_7_" x="3" y="108.1" width="15" height="17.4" />
		</defs>
		<clipPath id="SVGID_8_">
			<use xlink:href="#SVGID_7_" overflow="visible" />
		</clipPath>
		<path clip-path="url(#SVGID_8_)" fill="none" stroke="#224257" stroke-width="1.665" stroke-linecap="round" stroke-linejoin="round" stroke-miterlimit="10" d="
		M12.7,111c0,1.2-1,2.2-2.2,2.2s-2.2-1-2.2-2.2c0-1.2,1-2.2,2.2-2.2S12.7,109.8,12.7,111z M17.3,124.8H3.7l1.6-11h10.5L17.3,124.8z" />
	</g>
	<g>
		<defs>
			<rect id="SVGID_9_" x="2.2" y="89.5" width="16.5" height="15.1" />
		</defs>
		<clipPath id="SVGID_10_">
			<use xlink:href="#SVGID_9_" overflow="visible" />
		</clipPath>
		<path clip-path="url(#SVGID_10_)" fill="none" stroke="#224257" stroke-width="1.665" stroke-linecap="round" stroke-linejoin="round" stroke-miterlimit="10" d="
		M2.9,103.9h15.2l-7.8-13.8C10.3,90.1,2.9,104.2,2.9,103.9z" />
	</g>
	<g>
		<defs>
			<rect id="SVGID_11_" x="4" y="67.1" width="16" height="17.3" />
		</defs>
		<clipPath id="SVGID_12_">
			<use xlink:href="#SVGID_11_" overflow="visible" />
		</clipPath>
		<path clip-path="url(#SVGID_12_)" fill="none" stroke="#224257" stroke-width="1.665" stroke-linecap="round" stroke-linejoin="round" stroke-miterlimit="10" d="
		M16,67.8l3.3,2l-2,3.3 M5.4,80.9l6,0 M12.4,71.8l6.1-2 M8.4,77.4l0,6.4 M4.7,73.7c0,2.1,1.8,3.7,3.8,3.7c2.1,0,3.7-1.8,3.7-3.8
		c0-2.1-1.8-3.7-3.8-3.7C6.3,69.9,4.6,71.6,4.7,73.7z" />
	</g>
	<g>
		<defs>
			<rect id="SVGID_13_" x="1" y="46.2" width="16.9" height="19.2" />
		</defs>
		<clipPath id="SVGID_14_">
			<use xlink:href="#SVGID_13_" overflow="visible" />
		</clipPath>
		<path clip-path="url(#SVGID_14_)" fill="none" stroke="#224257" stroke-width="1.665" stroke-linecap="round" stroke-linejoin="round" stroke-miterlimit="10" d="
		M9.5,51.8c-1.6,0-2.8,1.3-2.8,2.8s1.3,2.8,2.8,2.8c1.6,0,2.8-1.3,2.8-2.8S11,51.8,9.5,51.8z M4.6,60.7c-2.8-2.6-2.7-6-2.7-6
		c0-4.2,3.4-7.7,7.6-7.7c4.2,0,7.6,3.4,7.6,7.7c0,0,0.1,3.6-2.9,6.1l-3.6,3.3c-0.7,0.6-1.7,0.6-2.4,0L4.6,60.7z" />
	</g>
	<g>
		<defs>
			<rect id="SVGID_15_" x="1" y="23.2" width="18.1" height="19.2" />
		</defs>
		<clipPath id="SVGID_16_">
			<use xlink:href="#SVGID_15_" overflow="visible" />
		</clipPath>
		<path clip-path="url(#SVGID_16_)" fill="none" stroke="#224257" stroke-width="1.665" stroke-linecap="round" stroke-linejoin="round" stroke-miterlimit="10" d="
		M18,26.3c0,0-0.7-1.2-2.9-2.3 M2.3,26.3c0,0,0.7-1.2,2.9-2.3 M15.4,39.4l1.1,2.2 M4.6,39.4l-1.1,2.2 M10.9,29.8l-1.6,3.9h4.9
		 M18.3,32.9c0,4.6-3.7,8.3-8.2,8.3s-8.2-3.7-8.2-8.3s3.7-8.3,8.2-8.3S18.3,28.3,18.3,32.9z" />
	</g>
	<g>
		<defs>
			<rect id="SVGID_17_" x="1" y="1" width="17.6" height="17.8" />
		</defs>
		<clipPath id="SVGID_18_">
			<use xlink:href="#SVGID_17_" overflow="visible" />
		</clipPath>
		<path clip-path="url(#SVGID_18_)" fill="none" stroke="#224257" stroke-width="1.665" stroke-linecap="round" stroke-linejoin="round" stroke-miterlimit="10" d="
		M13.5,4.4V1.8 M9.8,4.4V1.8 M6.3,4.4V1.8 M2.3,7.1h15.1 M16.3,18H3.4c-0.8,0-1.5-0.7-1.5-1.5V5.1c0-0.8,0.7-1.5,1.5-1.5h12.9
		c0.8,0,1.5,0.7,1.5,1.5v11.5C17.8,17.3,17.1,18,16.3,18z" />
	</g>
</svg>
