<svg xmlns="http://www.w3.org/2000/svg" xmlns:xlink="http://www.w3.org/1999/xlink" viewBox="0 0 25.77 123.49">
	<defs>
		<clipPath id="clip-path" transform="translate(-0.62 -0.76)">
			<rect x="0.62" y="0.76" width="25.77" height="21.22" style="fill:none" />
		</clipPath>
		<clipPath id="clip-path-2" transform="translate(-0.62 -0.76)">
			<rect x="3.66" y="29.47" width="21.32" height="25.06" style="fill:none" />
		</clipPath>
		<clipPath id="clip-path-3" transform="translate(-0.62 -0.76)">
			<rect x="2" y="65.34" width="23.44" height="23.55" style="fill:none" />
		</clipPath>
		<clipPath id="clip-path-4" transform="translate(-0.62 -0.76)">
			<rect x="1.9" y="99.24" width="24.2" height="25.01" style="fill:none" />
		</clipPath>
	</defs>
	<g style="clip-path:url(#clip-path)">
		<path d="M17.41,21.18l8.18-8L20.32,1.56M1.42,9.92,8.69,1.56H20.32L12.69,9.92m-11.27,0H12.69l4.72,11.26H5.78Z" transform="translate(-0.62 -0.76)" style="fill:none;stroke:#224257;stroke-linecap:round;stroke-linejoin:round;stroke-width:1.60000002384186px" />
		<path d="M11.8,5.84A.83.83,0,1,1,11,5a.83.83,0,0,1,.83.83" transform="translate(-0.62 -0.76)" style="fill:#224257" />
		<path d="M7.14,13.78a.83.83,0,0,1-1.66,0,.83.83,0,1,1,1.66,0" transform="translate(-0.62 -0.76)" style="fill:#224257" />
		<path d="M11.63,13.78A.83.83,0,1,1,10.8,13a.83.83,0,0,1,.83.83" transform="translate(-0.62 -0.76)" style="fill:#224257" />
		<path d="M13.68,18.27a.83.83,0,1,1-.83-.83.83.83,0,0,1,.83.83" transform="translate(-0.62 -0.76)" style="fill:#224257" />
		<path d="M9.18,18.34a.83.83,0,1,1-.83-.83.83.83,0,0,1,.83.83" transform="translate(-0.62 -0.76)" style="fill:#224257" />
		<path d="M17.63,11.26a.83.83,0,1,1-.83-.83.83.83,0,0,1,.83.83" transform="translate(-0.62 -0.76)" style="fill:#224257" />
		<path d="M20.76,7.92a.83.83,0,1,1-1.65,0,.83.83,0,1,1,1.65,0" transform="translate(-0.62 -0.76)" style="fill:#224257" />
		<path d="M20.22,11.73a.83.83,0,1,1-.83-.83.83.83,0,0,1,.83.83" transform="translate(-0.62 -0.76)" style="fill:#224257" />
		<path d="M22.67,12.55a.83.83,0,1,1-.83-.83.83.83,0,0,1,.83.83" transform="translate(-0.62 -0.76)" style="fill:#224257" />
		<path d="M19.67,15.68a.83.83,0,1,1-.83-.82.83.83,0,0,1,.83.82" transform="translate(-0.62 -0.76)" style="fill:#224257" />
	</g>
	<g style="clip-path:url(#clip-path-2)">
		<path d="M16.43,30.28H12m2.21,3.13V30.28m4,15.39-4-1.17-.1-6.4m10.12,5.78A9.87,9.87,0,1,1,14.32,34,9.87,9.87,0,0,1,24.19,43.88Z" transform="translate(-0.62 -0.76)" style="fill:none;stroke:#224257;stroke-linecap:round;stroke-linejoin:round;stroke-width:1.60000002384186px" />
	</g>
	<g style="clip-path:url(#clip-path-3)">
		<path d="M13.84,83.11h0a6.44,6.44,0,0,1-6.42-6.42V72.55a6.42,6.42,0,0,1,12.83,0v4.14A6.44,6.44,0,0,1,13.84,83.11ZM17.47,82c2.4.61,6.64,2.24,7.17,6.07M10.05,82c-2.38.6-6.71,2.22-7.25,6.09" transform="translate(-0.62 -0.76)" style="fill:none;stroke:#224257;stroke-linecap:round;stroke-linejoin:round;stroke-width:1.60000002384186px" />
		<path d="M14,70.64c3.83-2,5.59,2.66,5.59,2.66,0-3.93-2.26-7.47-5.74-7.47S7.6,70.59,7.6,74.52Z" transform="translate(-0.62 -0.76)" style="fill:#224257" />
		<path d="M12.68,74a.54.54,0,1,1-.54-.54.54.54,0,0,1,.54.54" transform="translate(-0.62 -0.76)" style="fill:#224257" />
		<path d="M16,74a.54.54,0,0,1-.54.54.54.54,0,1,1,0-1.08A.54.54,0,0,1,16,74" transform="translate(-0.62 -0.76)" style="fill:#224257" />
		<path d="M21.58,74.74a.65.65,0,1,1-.65-.65A.65.65,0,0,1,21.58,74.74Zm-14.16,0a.64.64,0,0,1-.64.66.66.66,0,0,1,0-1.31A.64.64,0,0,1,7.42,74.74Zm4.48,3.5s1,2,3.7,1.07" transform="translate(-0.62 -0.76)" style="fill:none;stroke:#224257;stroke-linecap:round;stroke-linejoin:round" />
	</g>
	<g style="clip-path:url(#clip-path-4)">
		<path d="M25.72,116.63a2.91,2.91,0,0,0-5.34-1.56,3,3,0,0,0-2.34-1.3,3,3,0,0,0-3,2.86,3.11,3.11,0,0,0,.1,1.09,4.52,4.52,0,0,0,1.49,2.34l3.75,3.16,3.76-3.16a4.52,4.52,0,0,0,1.49-2.34,2.76,2.76,0,0,0,.09-1.09m-.89.9a3.65,3.65,0,0,1-1.23,1.91l-3.22,2.71-3.21-2.7a3.71,3.71,0,0,1-1.23-1.92,2,2,0,0,1-.08-.77v0A2.23,2.23,0,0,1,18,114.58,2.34,2.34,0,0,1,20,116l.37.83.38-.83a2.34,2.34,0,0,1,2-1.46,2.26,2.26,0,0,1,2.18,2.17,2,2,0,0,1-.08.78" transform="translate(-0.62 -0.76)" style="fill:#1d1d1b" />
		<path d="M25.72,116.63a2.91,2.91,0,0,0-5.34-1.56,3,3,0,0,0-2.34-1.3,3,3,0,0,0-3,2.86,3.11,3.11,0,0,0,.1,1.09,4.52,4.52,0,0,0,1.49,2.34l3.75,3.16,3.76-3.16a4.52,4.52,0,0,0,1.49-2.34,2.76,2.76,0,0,0,.09-1.09m-.89.9a3.65,3.65,0,0,1-1.23,1.91l-3.22,2.71-3.21-2.7a3.71,3.71,0,0,1-1.23-1.92,2,2,0,0,1-.08-.77v0A2.23,2.23,0,0,1,18,114.58,2.34,2.34,0,0,1,20,116l.37.83.38-.83a2.34,2.34,0,0,1,2-1.46,2.26,2.26,0,0,1,2.18,2.17,2,2,0,0,1-.08.78" transform="translate(-0.62 -0.76)" style="fill:none;stroke:#224257;stroke-miterlimit:10;stroke-width:0.699999988079071px" />
	</g>
	<path d="M3.07,100.4H5.54v22.69H3.07Zm-.82-.81V123.9H17.09v-.81H6.37V100.4h14v11.34h.83V99.59Z" transform="translate(-0.62 -0.76)" style="fill:#1d1d1b" />
	<g style="clip-path:url(#clip-path-4)">
		<path d="M2.25,99.59V123.9H17.09v-.81H6.37V100.4h14v11.34h.83V99.59Zm.82.81H5.54v22.69H3.07Z" transform="translate(-0.62 -0.76)" style="fill:none;stroke:#224257;stroke-miterlimit:10;stroke-width:0.699999988079071px" />
	</g>
	<path d="M18.32,103.64H8.43v5.67h9.89Zm-9.06.81H17.5v4H9.26Z" transform="translate(-0.62 -0.76)" style="fill:#1d1d1b" />
	<path d="M18.32,103.64H8.43v5.67h9.89Zm-9.06.81H17.5v4H9.26Z" transform="translate(-0.62 -0.76)" style="fill:none;stroke:#224257;stroke-miterlimit:10;stroke-width:0.699999988079071px" />
	<rect x="9.87" y="105.5" width="5.77" height="0.81" style="fill:#1d1d1b" />
	<rect x="9.87" y="105.5" width="5.77" height="0.81" style="fill:none;stroke:#224257;stroke-miterlimit:10;stroke-width:0.699999988079071px" />
</svg>
