<?xml version="1.0" encoding="utf-8"?>
<!-- Generator: Adobe Illustrator 18.0.0, SVG Export Plug-In . SVG Version: 6.00 Build 0) -->
<!DOCTYPE svg PUBLIC "-//W3C//DTD SVG 1.1//EN" "http://www.w3.org/Graphics/SVG/1.1/DTD/svg11.dtd">
<svg version="1.1" id="Guestbook" xmlns="http://www.w3.org/2000/svg" xmlns:xlink="http://www.w3.org/1999/xlink" x="0px" y="0px" width="130px" height="80.5px" viewBox="0 0 130 80.5" enable-background="new 0 0 130 80.5" xml:space="preserve">
	<polyline fill="#ACDDF0" points="5.2,28.8 53.3,28.8 46.8,17.6 53.4,5.8 4,5.8 4,77.4 " />
	<g>
		<defs>
			<rect id="SVGID_1_" x="3" y="4.8" width="51.4" height="73.6" />
		</defs>
		<clipPath id="SVGID_2_">
			<use xlink:href="#SVGID_1_" overflow="visible" />
		</clipPath>
		<polyline clip-path="url(#SVGID_2_)" fill="none" stroke="#224257" stroke-width="2" stroke-linecap="round" stroke-linejoin="round" stroke-miterlimit="10" points="
		5.2,28.8 53.3,28.8 46.8,17.6 53.4,5.8 4,5.8 4,77.4 	" />
		<path clip-path="url(#SVGID_2_)" fill="#224257" d="M18.9,16.8v3.4c0,0.4-0.2,0.8-0.6,0.9c-1,0.5-2.1,0.8-3.4,0.8
		c-3.2,0-5.3-2.2-5.3-5.4c0-3.3,2.3-5.4,5.2-5.4c1.7,0,2.8,0.5,3.7,1.1c0.1,0.1,0.3,0.3,0.3,0.5c0,0.3-0.2,0.6-0.6,0.6
		c-0.1,0-0.2,0-0.3-0.1c-0.9-0.5-1.8-0.8-2.9-0.8c-2.3,0-4,1.5-4,4.1c0,2.3,1.5,4.1,4.1,4.1c1.1,0,1.9-0.3,2.6-0.7v-2.7h-2.5
		c-0.3,0-0.6-0.3-0.6-0.6c0-0.3,0.3-0.6,0.6-0.6h3C18.6,16,18.9,16.3,18.9,16.8" />
		<path clip-path="url(#SVGID_2_)" fill="none" stroke="#224257" stroke-width="0.718" stroke-miterlimit="10" d="M18.9,16.8v3.4
		c0,0.4-0.2,0.8-0.6,0.9c-1,0.5-2.1,0.8-3.4,0.8c-3.2,0-5.3-2.2-5.3-5.4c0-3.3,2.3-5.4,5.2-5.4c1.7,0,2.8,0.5,3.7,1.1
		c0.1,0.1,0.3,0.3,0.3,0.5c0,0.3-0.2,0.6-0.6,0.6c-0.1,0-0.2,0-0.3-0.1c-0.9-0.5-1.8-0.8-2.9-0.8c-2.3,0-4,1.5-4,4.1
		c0,2.3,1.5,4.1,4.1,4.1c1.1,0,1.9-0.3,2.6-0.7v-2.7h-2.5c-0.3,0-0.6-0.3-0.6-0.6c0-0.3,0.3-0.6,0.6-0.6h3
		C18.6,16,18.9,16.3,18.9,16.8z" />
		<path clip-path="url(#SVGID_2_)" fill="#224257" d="M27.5,18c0-2-1.3-2.7-2.5-2.7c-1.2,0-2.5,0.7-2.5,2.7c0,2,1.3,2.7,2.5,2.7
		C26.2,20.7,27.5,20,27.5,18 M28.9,18c0,2.4-1.5,4-3.8,4c-2.3,0-3.8-1.6-3.8-4c0-2.4,1.5-4,3.8-4C27.3,14,28.9,15.6,28.9,18" />
		<path clip-path="url(#SVGID_2_)" fill="none" stroke="#224257" stroke-width="0.718" stroke-miterlimit="10" d="M27.5,18
		c0-2-1.3-2.7-2.5-2.7c-1.2,0-2.5,0.7-2.5,2.7c0,2,1.3,2.7,2.5,2.7C26.2,20.7,27.5,20,27.5,18z M28.9,18c0,2.4-1.5,4-3.8,4
		c-2.3,0-3.8-1.6-3.8-4c0-2.4,1.5-4,3.8-4C27.3,14,28.9,15.6,28.9,18z" />
		<path clip-path="url(#SVGID_2_)" fill="#224257" d="M35.9,18.5l-0.3-5V12c0-0.4,0.3-0.8,0.7-0.8s0.7,0.3,0.7,0.8v1.5l-0.3,5
		c0,0.3-0.2,0.4-0.5,0.4S35.9,18.7,35.9,18.5 M37.2,21c0,0.5-0.4,0.9-0.8,0.9c-0.5,0-0.8-0.4-0.8-0.9c0-0.5,0.4-0.9,0.8-0.9
		C36.8,20.1,37.2,20.5,37.2,21" />
		<path clip-path="url(#SVGID_2_)" fill="none" stroke="#224257" stroke-width="0.718" stroke-miterlimit="10" d="M35.9,18.5l-0.3-5
		V12c0-0.4,0.3-0.8,0.7-0.8s0.7,0.3,0.7,0.8v1.5l-0.3,5c0,0.3-0.2,0.4-0.5,0.4S35.9,18.7,35.9,18.5z M37.2,21c0,0.5-0.4,0.9-0.8,0.9
		c-0.5,0-0.8-0.4-0.8-0.9c0-0.5,0.4-0.9,0.8-0.9C36.8,20.1,37.2,20.5,37.2,21z" />
	</g>
	<line fill="none" stroke="#FFFFFF" stroke-width="2" stroke-linecap="round" stroke-miterlimit="10" x1="43.5" y1="14.9" x2="46.3" y2="10" />
	<polyline fill="#EB5D72" points="70.2,28.9 126.2,29 119.8,17.8 126.3,6 69.9,6 69.9,77.6 " />
	<g>
		<defs>
			<rect id="SVGID_3_" x="69" y="5" width="58.2" height="73.5" />
		</defs>
		<clipPath id="SVGID_4_">
			<use xlink:href="#SVGID_3_" overflow="visible" />
		</clipPath>
		<polyline clip-path="url(#SVGID_4_)" fill="none" stroke="#224257" stroke-width="2" stroke-linecap="round" stroke-linejoin="round" stroke-miterlimit="10" points="
		70.2,28.9 126.2,29 119.8,17.8 126.3,6 69.9,6 69.9,77.6 	" />
		<path clip-path="url(#SVGID_4_)" fill="#224257" d="M85.7,21.8c0,0.4-0.3,0.6-0.6,0.6h-5.9c-0.4,0-0.7-0.3-0.7-0.7v-9
		c0-0.4,0.3-0.7,0.7-0.7h5.9c0.4,0,0.6,0.3,0.6,0.6c0,0.4-0.3,0.6-0.6,0.6h-5.2v3.3h4.7c0.4,0,0.6,0.3,0.6,0.6
		c0,0.4-0.3,0.6-0.6,0.6h-4.7v3.3h5.2C85.4,21.2,85.7,21.4,85.7,21.8" />
		<path clip-path="url(#SVGID_4_)" fill="none" stroke="#224257" stroke-miterlimit="10" d="M85.7,21.8c0,0.4-0.3,0.6-0.6,0.6h-5.9
		c-0.4,0-0.7-0.3-0.7-0.7v-9c0-0.4,0.3-0.7,0.7-0.7h5.9c0.4,0,0.6,0.3,0.6,0.6c0,0.4-0.3,0.6-0.6,0.6h-5.2v3.3h4.7
		c0.4,0,0.6,0.3,0.6,0.6c0,0.4-0.3,0.6-0.6,0.6h-4.7v3.3h5.2C85.4,21.2,85.7,21.4,85.7,21.8z" />
		<path clip-path="url(#SVGID_4_)" fill="#224257" d="M94.9,17.7v4.2c0,0.4-0.3,0.7-0.7,0.7c-0.4,0-0.7-0.3-0.7-0.7v-4
		c0-1.1-0.5-1.8-1.6-1.8c-1,0-1.8,0.7-2.4,1.4v4.4c0,0.4-0.3,0.7-0.7,0.7c-0.4,0-0.7-0.3-0.7-0.7v-6.3c0-0.4,0.3-0.7,0.7-0.7
		c0.4,0,0.7,0.3,0.7,0.7v0.6c0.6-0.7,1.4-1.3,2.7-1.3C93.9,14.8,94.9,16.1,94.9,17.7" />
		<path clip-path="url(#SVGID_4_)" fill="none" stroke="#224257" stroke-miterlimit="10" d="M94.9,17.7v4.2c0,0.4-0.3,0.7-0.7,0.7
		c-0.4,0-0.7-0.3-0.7-0.7v-4c0-1.1-0.5-1.8-1.6-1.8c-1,0-1.8,0.7-2.4,1.4v4.4c0,0.4-0.3,0.7-0.7,0.7c-0.4,0-0.7-0.3-0.7-0.7v-6.3
		c0-0.4,0.3-0.7,0.7-0.7c0.4,0,0.7,0.3,0.7,0.7v0.6c0.6-0.7,1.4-1.3,2.7-1.3C93.9,14.8,94.9,16.1,94.9,17.7z" />
		<path clip-path="url(#SVGID_4_)" fill="#224257" d="M103.5,20.2v-3.1c-0.6-0.6-1.4-1.1-2.3-1.1c-1.4,0-2.4,0.9-2.4,2.7
		c0,1.8,1,2.7,2.4,2.7C102.1,21.3,102.9,20.8,103.5,20.2 M103.5,15.8v-3.6c0-0.4,0.3-0.7,0.7-0.7c0.4,0,0.7,0.3,0.7,0.7v9.6
		c0,0.4-0.3,0.7-0.7,0.7c-0.4,0-0.7-0.3-0.7-0.7v-0.4c-0.7,0.7-1.5,1.1-2.5,1.1c-1.8,0-3.5-1.4-3.5-3.9c0-2.5,1.8-3.9,3.5-3.9
		C102,14.7,102.8,15.1,103.5,15.8" />
		<path clip-path="url(#SVGID_4_)" fill="none" stroke="#224257" stroke-miterlimit="10" d="M103.5,20.2v-3.1
		c-0.6-0.6-1.4-1.1-2.3-1.1c-1.4,0-2.4,0.9-2.4,2.7c0,1.8,1,2.7,2.4,2.7C102.1,21.3,102.9,20.8,103.5,20.2z M103.5,15.8v-3.6
		c0-0.4,0.3-0.7,0.7-0.7c0.4,0,0.7,0.3,0.7,0.7v9.6c0,0.4-0.3,0.7-0.7,0.7c-0.4,0-0.7-0.3-0.7-0.7v-0.4c-0.7,0.7-1.5,1.1-2.5,1.1
		c-1.8,0-3.5-1.4-3.5-3.9c0-2.5,1.8-3.9,3.5-3.9C102,14.7,102.8,15.1,103.5,15.8z" />
		<path clip-path="url(#SVGID_4_)" fill="#224257" d="M108.8,19.1l-0.2-4.9v-1.5c0-0.4,0.3-0.8,0.6-0.8c0.4,0,0.6,0.3,0.6,0.8v1.5
		l-0.2,4.9c0,0.3-0.1,0.4-0.4,0.4S108.8,19.4,108.8,19.1 M110,21.6c0,0.5-0.3,0.9-0.7,0.9c-0.4,0-0.7-0.4-0.7-0.9
		c0-0.5,0.3-0.9,0.7-0.9C109.7,20.7,110,21.1,110,21.6" />
		<path clip-path="url(#SVGID_4_)" fill="none" stroke="#224257" stroke-miterlimit="10" d="M108.8,19.1l-0.2-4.9v-1.5
		c0-0.4,0.3-0.8,0.6-0.8c0.4,0,0.6,0.3,0.6,0.8v1.5l-0.2,4.9c0,0.3-0.1,0.4-0.4,0.4S108.8,19.4,108.8,19.1z M110,21.6
		c0,0.5-0.3,0.9-0.7,0.9c-0.4,0-0.7-0.4-0.7-0.9c0-0.5,0.3-0.9,0.7-0.9C109.7,20.7,110,21.1,110,21.6z" />
	</g>
	<path fill="none" stroke="#FFFFFF" stroke-width="2" stroke-linecap="round" stroke-miterlimit="10" d="M116.8,20l2.2,4.7
	 M116.8,15.1l2.2-4.7" />
</svg>
