<?xml version="1.0" encoding="utf-8"?>
<!-- Generator: Adobe Illustrator 18.0.0, SVG Export Plug-In . SVG Version: 6.00 Build 0) -->
<!DOCTYPE svg PUBLIC "-//W3C//DTD SVG 1.1//EN" "http://www.w3.org/Graphics/SVG/1.1/DTD/svg11.dtd">
<svg version="1.1" id="Guestbook" xmlns="http://www.w3.org/2000/svg" xmlns:xlink="http://www.w3.org/1999/xlink" x="0px" y="0px" width="27.3px" height="126.2px" viewBox="0 0 27.3 126.2" enable-background="new 0 0 27.3 126.2" xml:space="preserve">
	<g>
		<defs>
			<rect id="SVGID_1_" x="0.6" y="0.8" width="25.8" height="21.2" />
		</defs>
		<clipPath id="SVGID_2_">
			<use xlink:href="#SVGID_1_" overflow="visible" />
		</clipPath>
		<path clip-path="url(#SVGID_2_)" fill="none" stroke="#224257" stroke-width="1.6" stroke-linecap="round" stroke-linejoin="round" stroke-miterlimit="10" d="
		M17.4,21.2l8.2-8L20.3,1.6 M1.4,9.9l7.3-8.4h11.6l-7.6,8.4 M1.4,9.9h11.3l4.7,11.3H5.8L1.4,9.9z" />
		<path clip-path="url(#SVGID_2_)" fill="#224257" d="M11.8,5.8c0,0.5-0.4,0.8-0.8,0.8s-0.8-0.4-0.8-0.8C10.1,5.4,10.5,5,11,5
		S11.8,5.4,11.8,5.8" />
		<path clip-path="url(#SVGID_2_)" fill="#224257" d="M7.1,13.8c0,0.5-0.4,0.8-0.8,0.8c-0.5,0-0.8-0.4-0.8-0.8c0-0.5,0.4-0.8,0.8-0.8
		C6.8,12.9,7.1,13.3,7.1,13.8" />
		<path clip-path="url(#SVGID_2_)" fill="#224257" d="M11.6,13.8c0,0.5-0.4,0.8-0.8,0.8S10,14.2,10,13.8c0-0.5,0.4-0.8,0.8-0.8
		S11.6,13.3,11.6,13.8" />
		<path clip-path="url(#SVGID_2_)" fill="#224257" d="M13.7,18.3c0,0.5-0.4,0.8-0.8,0.8S12,18.7,12,18.3s0.4-0.8,0.8-0.8
		S13.7,17.8,13.7,18.3" />
		<path clip-path="url(#SVGID_2_)" fill="#224257" d="M9.2,18.3c0,0.5-0.4,0.8-0.8,0.8c-0.5,0-0.8-0.4-0.8-0.8s0.4-0.8,0.8-0.8
		C8.8,17.5,9.2,17.9,9.2,18.3" />
		<path clip-path="url(#SVGID_2_)" fill="#224257" d="M17.6,11.3c0,0.5-0.4,0.8-0.8,0.8S16,11.7,16,11.3c0-0.5,0.4-0.8,0.8-0.8
		S17.6,10.8,17.6,11.3" />
		<path clip-path="url(#SVGID_2_)" fill="#224257" d="M20.8,7.9c0,0.5-0.4,0.8-0.8,0.8s-0.8-0.4-0.8-0.8c0-0.5,0.4-0.8,0.8-0.8
		S20.8,7.5,20.8,7.9" />
		<path clip-path="url(#SVGID_2_)" fill="#224257" d="M20.2,11.7c0,0.5-0.4,0.8-0.8,0.8s-0.8-0.4-0.8-0.8c0-0.5,0.4-0.8,0.8-0.8
		S20.2,11.3,20.2,11.7" />
		<path clip-path="url(#SVGID_2_)" fill="#224257" d="M22.7,12.6c0,0.5-0.4,0.8-0.8,0.8S21,13,21,12.6c0-0.5,0.4-0.8,0.8-0.8
		S22.7,12.1,22.7,12.6" />
		<path clip-path="url(#SVGID_2_)" fill="#224257" d="M19.7,15.7c0,0.5-0.4,0.8-0.8,0.8S18,16.1,18,15.7c0-0.5,0.4-0.8,0.8-0.8
		S19.7,15.2,19.7,15.7" />
	</g>
	<g>
		<defs>
			<rect id="SVGID_3_" x="3.7" y="29.5" width="21.3" height="25.1" />
		</defs>
		<clipPath id="SVGID_4_">
			<use xlink:href="#SVGID_3_" overflow="visible" />
		</clipPath>
		<path clip-path="url(#SVGID_4_)" fill="none" stroke="#224257" stroke-width="1.6" stroke-linecap="round" stroke-linejoin="round" stroke-miterlimit="10" d="
		M16.4,30.3H12 M14.2,33.4v-3.1 M18.2,45.7l-4-1.2l-0.1-6.4 M24.2,43.9c0,5.4-4.4,9.9-9.9,9.9c-5.4,0-9.9-4.4-9.9-9.9
		c0-5.4,4.4-9.9,9.9-9.9C19.8,34,24.2,38.4,24.2,43.9z" />
	</g>
	<g>
		<defs>
			<rect id="SVGID_5_" x="2" y="65.3" width="23.4" height="23.6" />
		</defs>
		<clipPath id="SVGID_6_">
			<use xlink:href="#SVGID_5_" overflow="visible" />
		</clipPath>
		<path clip-path="url(#SVGID_6_)" fill="none" stroke="#224257" stroke-width="1.6" stroke-linecap="round" stroke-linejoin="round" stroke-miterlimit="10" d="
		M13.8,83.1L13.8,83.1c-3.5,0-6.4-2.9-6.4-6.4v-4.1c0-3.5,2.9-6.4,6.4-6.4s6.4,2.9,6.4,6.4v4.1C20.3,80.2,17.4,83.1,13.8,83.1z
		 M17.5,82c2.4,0.6,6.6,2.2,7.2,6.1 M10,82c-2.4,0.6-6.7,2.2-7.2,6.1" />
		<path clip-path="url(#SVGID_6_)" fill="#224257" d="M14,70.6c3.8-2,5.6,2.7,5.6,2.7c0-3.9-2.3-7.5-5.7-7.5s-6.2,4.8-6.2,8.7
		L14,70.6z" />
		<path clip-path="url(#SVGID_6_)" fill="#224257" d="M12.7,74c0,0.3-0.2,0.5-0.5,0.5c-0.3,0-0.5-0.2-0.5-0.5c0-0.3,0.2-0.5,0.5-0.5
		C12.4,73.5,12.7,73.7,12.7,74" />
		<path clip-path="url(#SVGID_6_)" fill="#224257" d="M16,74c0,0.3-0.2,0.5-0.5,0.5c-0.3,0-0.5-0.2-0.5-0.5c0-0.3,0.2-0.5,0.5-0.5
		C15.8,73.5,16,73.7,16,74" />
		<path clip-path="url(#SVGID_6_)" fill="none" stroke="#224257" stroke-linecap="round" stroke-linejoin="round" stroke-miterlimit="10" d="
		M21.6,74.7c0,0.4-0.3,0.7-0.6,0.7c-0.4,0-0.6-0.3-0.6-0.7c0-0.4,0.3-0.7,0.6-0.7C21.3,74.1,21.6,74.4,21.6,74.7z M7.4,74.7
		c0,0.4-0.3,0.7-0.6,0.7c-0.4,0-0.6-0.3-0.6-0.7c0-0.4,0.3-0.7,0.6-0.7C7.1,74.1,7.4,74.4,7.4,74.7z M11.9,78.2c0,0,1,2,3.7,1.1" />
	</g>
	<g>
		<defs>
			<rect id="SVGID_7_" x="1.9" y="99.2" width="24.2" height="25" />
		</defs>
		<clipPath id="SVGID_8_">
			<use xlink:href="#SVGID_7_" overflow="visible" />
		</clipPath>
		<path clip-path="url(#SVGID_8_)" d="M25.7,116.6c-0.2-1.7-1.4-2.9-3-2.9c-1,0-1.8,0.6-2.3,1.3c-0.5-0.7-1.4-1.3-2.3-1.3
		c-1.6,0-2.8,1.2-3,2.9c0,0.1-0.1,0.5,0.1,1.1c0.2,0.9,0.7,1.7,1.5,2.3l3.7,3.2l3.8-3.2c0.8-0.6,1.3-1.4,1.5-2.3
		C25.8,117.1,25.7,116.7,25.7,116.6 M24.8,117.5c-0.2,0.7-0.6,1.4-1.2,1.9l-3.2,2.7l-3.2-2.7c-0.6-0.5-1-1.2-1.2-1.9
		c-0.1-0.5-0.1-0.8-0.1-0.8l0,0c0.1-1.1,0.9-2.1,2.2-2.1c0.9,0,1.6,0.7,2,1.5l0.4,0.8l0.4-0.8c0.3-0.7,1.1-1.5,2-1.5
		c1.3,0,2.1,1.1,2.2,2.2C24.9,116.8,25,117,24.8,117.5" />
		<path clip-path="url(#SVGID_8_)" fill="none" stroke="#224257" stroke-width="0.7" stroke-miterlimit="10" d="M25.7,116.6
		c-0.2-1.7-1.4-2.9-3-2.9c-1,0-1.8,0.6-2.3,1.3c-0.5-0.7-1.4-1.3-2.3-1.3c-1.6,0-2.8,1.2-3,2.9c0,0.1-0.1,0.5,0.1,1.1
		c0.2,0.9,0.7,1.7,1.5,2.3l3.7,3.2l3.8-3.2c0.8-0.6,1.3-1.4,1.5-2.3C25.8,117.1,25.7,116.7,25.7,116.6 M24.8,117.5
		c-0.2,0.7-0.6,1.4-1.2,1.9l-3.2,2.7l-3.2-2.7c-0.6-0.5-1-1.2-1.2-1.9c-0.1-0.5-0.1-0.8-0.1-0.8l0,0c0.1-1.1,0.9-2.1,2.2-2.1
		c0.9,0,1.6,0.7,2,1.5l0.4,0.8l0.4-0.8c0.3-0.7,1.1-1.5,2-1.5c1.3,0,2.1,1.1,2.2,2.2C24.9,116.8,25,117,24.8,117.5" />
	</g>
	<path d="M3.1,100.4h2.5v22.7H3.1V100.4z M2.2,99.6v24.3h14.8v-0.8H6.4v-22.7h14v11.3h0.8V99.6H2.2z" />
	<g>
		<defs>
			<rect id="SVGID_9_" x="1.9" y="99.2" width="24.2" height="25" />
		</defs>
		<clipPath id="SVGID_10_">
			<use xlink:href="#SVGID_9_" overflow="visible" />
		</clipPath>
		<path clip-path="url(#SVGID_10_)" fill="none" stroke="#224257" stroke-width="0.7" stroke-miterlimit="10" d="M2.2,99.6v24.3h14.8
		v-0.8H6.4v-22.7h14v11.3h0.8V99.6H2.2z M3.1,100.4h2.5v22.7H3.1V100.4z" />
	</g>
	<path d="M18.3,103.6H8.4v5.7h9.9V103.6z M9.3,104.4h8.2v4.1H9.3V104.4z" />
	<path fill="none" stroke="#224257" stroke-width="0.7" stroke-miterlimit="10" d="M18.3,103.6H8.4v5.7h9.9V103.6z M9.3,104.4h8.2
	v4.1H9.3V104.4z" />
	<rect x="10.5" y="106.3" width="5.8" height="0.8" />
	<rect x="10.5" y="106.3" fill="none" stroke="#224257" stroke-width="0.7" stroke-miterlimit="10" width="5.8" height="0.8" />
</svg>
