<svg xmlns="http://www.w3.org/2000/svg" xmlns:xlink="http://www.w3.org/1999/xlink" viewBox="0 0 630.8 46.96">
	<defs>
		<clipPath id="clip-path" transform="translate(-4.67 -1.34)">
			<rect x="603.49" y="6.88" width="31.97" height="34.65" style="fill:none" />
		</clipPath>
		<clipPath id="clip-path-2" transform="translate(-4.67 -1.34)">
			<rect x="398.67" y="5.16" width="22.88" height="39.07" style="fill:none" />
		</clipPath>
		<clipPath id="clip-path-3" transform="translate(-4.67 -1.34)">
			<rect x="4.67" y="2.9" width="23.53" height="42.99" style="fill:none" />
		</clipPath>
		<clipPath id="clip-path-5" transform="translate(-4.67 -1.34)">
			<rect x="185" y="1.34" width="33.96" height="46.96" style="fill:none" />
		</clipPath>
	</defs>
	<g style="clip-path:url(#clip-path)">
		<path d="M616.58,41.52a10.79,10.79,0,0,1-4-.78,10.6,10.6,0,0,1-3-17.89,1,1,0,0,1,1.3,1.52,8.58,8.58,0,0,0-2.3,9.89,8.68,8.68,0,0,0,11.35,4.58,8.57,8.57,0,0,0,5.23-8.54,1,1,0,0,1,2-.15,10.3,10.3,0,0,1-.74,4.75,10.49,10.49,0,0,1-5.7,5.78A10.64,10.64,0,0,1,616.58,41.52Zm0-3.09a7.76,7.76,0,0,1-2.85-.55,7.56,7.56,0,0,1-4.15-4.07,7.48,7.48,0,0,1-.06-5.8,7.56,7.56,0,0,1,2.08-2.91,1,1,0,0,1,1.3,1.52,5.55,5.55,0,0,0-1.53,2.14,5.48,5.48,0,0,0,0,4.26A5.61,5.61,0,0,0,621.76,33a5.35,5.35,0,0,0,.39-2.5,1,1,0,0,1,2-.15,7.49,7.49,0,0,1-.53,3.4A7.59,7.59,0,0,1,616.58,38.43Z" transform="translate(-4.67 -1.34)" style="fill:#214257" />
		<path d="M634.39,29.9c-.78,1.92-8.09.78-16.32-2.55s-14.29-7.58-13.51-9.51,8.08-.78,16.32,2.55S635.17,28,634.39,29.9" transform="translate(-4.67 -1.34)" style="fill:#a6e8fa" />
		<path d="M631.69,31.83c-3.26,0-8.49-1.33-14-3.55a53.91,53.91,0,0,1-10.34-5.39c-3.09-2.18-4.31-4-3.72-5.42.42-1,1.64-1.56,3.62-1.56,3.27,0,8.5,1.32,14,3.55a53.5,53.5,0,0,1,10.33,5.39c3.1,2.18,4.32,4,3.73,5.42C634.9,31.31,633.68,31.83,631.69,31.83ZM607.25,17.91c-1.47,0-1.77.32-1.78.33-.07,1,4.3,4.68,13,8.19,5.2,2.1,10.28,3.4,13.25,3.4,1.48,0,1.78-.32,1.78-.33.08-1-4.29-4.68-13-8.19C615.31,19.21,610.23,17.91,607.25,17.91Z" transform="translate(-4.67 -1.34)" style="fill:#214257" />
		<path d="M615.41,22.09a12.49,12.49,0,0,0,7.85,3.18s-.63-3.45,2-5.13c0,0,4-1.76,4.13-5.14a6.35,6.35,0,0,0-3.7-6.75,6.26,6.26,0,0,0-7.46,2.59,6,6,0,0,0-.45,5.76s1.52,3.45-2.39,5.49" transform="translate(-4.67 -1.34)" style="fill:#fff" />
		<path d="M623.26,26.27h0a13.42,13.42,0,0,1-8.54-3.46,1,1,0,0,1,.23-1.6c3-1.59,2-4.1,1.94-4.21a6.91,6.91,0,0,1,.56-6.76,7.31,7.31,0,0,1,6.12-3.36,6.86,6.86,0,0,1,2.53.45,7.31,7.31,0,0,1,4.3,7.78c-.22,3.67-4,5.61-4.64,5.9-2,1.33-1.52,4-1.51,4.07a1,1,0,0,1-1,1.19Zm-6.14-4.1a11.55,11.55,0,0,0,5.08,2,5.71,5.71,0,0,1,2.54-4.91l.13-.07s3.4-1.56,3.54-4.27c0,0,0-.09,0-.13a5.3,5.3,0,0,0-3.12-5.66h0a5.32,5.32,0,0,0-6.24,2.26,5,5,0,0,0-.35,4.76A5.08,5.08,0,0,1,617.12,22.17Z" transform="translate(-4.67 -1.34)" style="fill:#214257" />
		<path d="M621,14.85l-.2,0a1,1,0,0,1-.79-1.17c.47-2.4,2.92-3.12,4.15-3.16a1,1,0,0,1,.07,2c-.08,0-2,.11-2.25,1.54A1,1,0,0,1,621,14.85Z" transform="translate(-4.67 -1.34)" style="fill:#214257" />
	</g>
	<g style="clip-path:url(#clip-path-2)">
		<path d="M399.67,44.22a1,1,0,0,1-.38-.07,1,1,0,0,1-.55-1.3l7.1-17.57a1,1,0,1,1,1.85.74l-7.1,17.58A1,1,0,0,1,399.67,44.22Z" transform="translate(-4.67 -1.34)" style="fill:#214257" />
		<path d="M419.82,19.78a9.91,9.91,0,1,1-5.47-12.9,9.9,9.9,0,0,1,5.47,12.9" transform="translate(-4.67 -1.34)" style="fill:#ff5c70" />
		<path d="M410.63,27a10.91,10.91,0,1,1,10.12-6.82A10.81,10.81,0,0,1,410.63,27Zm0-19.81a8.9,8.9,0,0,0-3.34,17.16,8.7,8.7,0,0,0,3.33.65A8.9,8.9,0,0,0,414,7.81,8.71,8.71,0,0,0,410.64,7.16Z" transform="translate(-4.67 -1.34)" style="fill:#214257" />
		<path d="M401.45,12.35a28.4,28.4,0,0,0,16.6,7.29c.58.06,1.17.11,1.77.14" transform="translate(-4.67 -1.34)" style="fill:#ff5c70" />
		<path d="M419.83,20.78h-.05c-.63,0-1.24-.08-1.83-.15-10.95-1.16-17-7.32-17.22-7.58a1,1,0,0,1,0-1.42,1,1,0,0,1,1.41,0,27.72,27.72,0,0,0,16,7c.56.06,1.13.11,1.71.14a1,1,0,0,1,0,2Z" transform="translate(-4.67 -1.34)" style="fill:#214257" />
		<path d="M416.4,16.61h-.14a1,1,0,0,1-.85-1.13,3.34,3.34,0,0,0-1.59-3.09,1,1,0,0,1-.34-1.38,1,1,0,0,1,1.36-.34,5.32,5.32,0,0,1,2.55,5.08A1,1,0,0,1,416.4,16.61Z" transform="translate(-4.67 -1.34)" style="fill:#fff" />
	</g>
	<g style="clip-path:url(#clip-path-3)">
		<path d="M14.21,44.72l-4.09-1a5.89,5.89,0,0,1-4.28-7.12L10.24,19a4.71,4.71,0,0,1,5.69-3.43l6.38,1.59a4.73,4.73,0,0,1,3.42,5.7l-4.4,17.63a5.89,5.89,0,0,1-7.12,4.28" transform="translate(-4.67 -1.34)" style="fill:#fff" />
		<path d="M15.63,45.89a7.11,7.11,0,0,1-1.66-.2l-4.09-1a6.89,6.89,0,0,1-5-8.34L9.27,18.7a5.68,5.68,0,0,1,5.53-4.31,5.76,5.76,0,0,1,1.37.16l6.38,1.59a5.71,5.71,0,0,1,4.15,6.91L22.3,40.68A6.86,6.86,0,0,1,15.63,45.89Zm-.83-29.5a3.69,3.69,0,0,0-3.59,2.8L6.81,36.82a4.86,4.86,0,0,0,3.55,5.9l4.1,1a5.06,5.06,0,0,0,1.17.14,4.87,4.87,0,0,0,4.73-3.69l4.4-17.63a3.72,3.72,0,0,0-2.7-4.49l-6.37-1.59A3.8,3.8,0,0,0,14.8,16.39Z" transform="translate(-4.67 -1.34)" style="fill:#214257" />
		<path d="M14.7,11.52a5.45,5.45,0,1,1,10.57,2.64" transform="translate(-4.67 -1.34)" style="fill:#d6d4d6" />
		<path d="M25.27,15.16l-.24,0a1,1,0,0,1-.73-1.22,4.45,4.45,0,1,0-8.63-2.15,1,1,0,0,1-1.94-.48A6.45,6.45,0,1,1,26.24,14.4,1,1,0,0,1,25.27,15.16Z" transform="translate(-4.67 -1.34)" style="fill:#214257" />
		<path d="M20.2,7.05,20.71,5A1.2,1.2,0,1,1,23,5.56l-.51,2.07" transform="translate(-4.67 -1.34)" style="fill:#d6d4d6" />
		<path d="M22.52,8.63l-.24,0a1,1,0,0,1-.73-1.22l.51-2.06a.22.22,0,0,0-.14-.24.21.21,0,0,0-.24.15l-.51,2.06A1,1,0,0,1,20,8a1,1,0,0,1-.73-1.21l.51-2.07a2.21,2.21,0,0,1,2.66-1.6,2.18,2.18,0,0,1,1.35,1A2.12,2.12,0,0,1,24,5.8l-.51,2.07A1,1,0,0,1,22.52,8.63Z" transform="translate(-4.67 -1.34)" style="fill:#214257" />
	</g>
	<path d="M22.18,35.06l-.24,0-5.33-1.32a1,1,0,0,1,.48-1.95l5.33,1.33a1,1,0,0,1,.73,1.22A1,1,0,0,1,22.18,35.06Zm1.07-3.56a1,1,0,0,1-.24,0l-5.33-1.33a1,1,0,0,1,.48-1.94l5.33,1.33a1,1,0,0,1-.24,2ZM24,27.84a1,1,0,0,1-.24,0l-5.33-1.33a1,1,0,0,1-.73-1.21,1,1,0,0,1,1.21-.73l5.33,1.33A1,1,0,0,1,25,27.09,1,1,0,0,1,24,27.84Z" transform="translate(-4.67 -1.34)" style="fill:#214257" />
	<g style="clip-path:url(#clip-path-3)">
		<path d="M25.05,17.8l-11.86-3A1.59,1.59,0,0,1,14,11.75L25.82,14.7a1.6,1.6,0,0,1-.77,3.1" transform="translate(-4.67 -1.34)" style="fill:#d6d4d6" />
		<path d="M25.43,18.85a2.57,2.57,0,0,1-.62-.08L13,15.81a2.59,2.59,0,1,1,1.25-5l11.86,3a2.6,2.6,0,0,1-.63,5.12ZM13.58,12.7a.59.59,0,0,0-.15,1.17l11.86,3a.61.61,0,0,0,.72-.44.6.6,0,0,0-.43-.72L13.72,12.72A.36.36,0,0,0,13.58,12.7Z" transform="translate(-4.67 -1.34)" style="fill:#214257" />
		<path d="M12,27.93a1,1,0,0,1-.24,0A1,1,0,0,1,11,26.68l.75-3c.89-3.57,3.33-4.15,3.43-4.18a1,1,0,0,1,.46,1.95c-.09,0-1.38.43-2,2.71l-.75,3A1,1,0,0,1,12,27.93Z" transform="translate(-4.67 -1.34)" style="fill:#214257" />
	</g>
	<g style="clip-path:url(#clip-path-5)">
		<path d="M190.17,48.3a1,1,0,0,1-.38-.07,1,1,0,0,1-.55-1.3l6.27-15.51a1,1,0,1,1,1.85.75l-6.27,15.51A1,1,0,0,1,190.17,48.3Z" transform="translate(-4.67 -1.34)" style="fill:#214257" />
		<path d="M203.07,19.92l3.73,6-10.23,5.51L186,27.16l14.22-7.78a2,2,0,0,0,2.85.54" transform="translate(-4.67 -1.34)" style="fill:#faeb99" />
		<path d="M196.57,32.44a1,1,0,0,1-.37-.08l-10.58-4.27a1,1,0,0,1-.1-1.8l14.22-7.79a1,1,0,0,1,1.33.36,1,1,0,0,0,.77.41h0a1.67,1.67,0,0,0,.76-.23,1,1,0,0,1,1.32.35l3.73,6a1,1,0,0,1,.11.79,1,1,0,0,1-.49.62l-10.22,5.51A1,1,0,0,1,196.57,32.44ZM188.33,27l8.18,3.3,8.88-4.78-2.73-4.4a2.91,2.91,0,0,1-.82.12h0a2.89,2.89,0,0,1-1.81-.65Z" transform="translate(-4.67 -1.34)" style="fill:#214257" />
		<path d="M203.68,17l6-3.68,5.44,10.26-4.34,10.55-7.7-14.27a2.19,2.19,0,0,0,.56-2.86" transform="translate(-4.67 -1.34)" style="fill:#a6e8fa" />
		<path d="M210.82,35.09a1,1,0,0,1-.88-.53l-7.7-14.27a1,1,0,0,1,.29-1.28,1.14,1.14,0,0,0,.27-1.56,1,1,0,0,1,.36-1.34l6-3.68a.94.94,0,0,1,.78-.11,1,1,0,0,1,.62.49L216,23.07a1,1,0,0,1,0,.85l-4.34,10.55a1,1,0,0,1-.87.61ZM204.35,20l6.34,11.76,3.36-8.16-4.72-8.9-4.42,2.69A3.07,3.07,0,0,1,204.35,20Z" transform="translate(-4.67 -1.34)" style="fill:#214257" />
		<path d="M200,19.46,194,22.69l-5.39-9.8,4.34-10.55,7.69,14.27a2.47,2.47,0,0,0-.56,2.85" transform="translate(-4.67 -1.34)" style="fill:#a6e8fa" />
		<path d="M194,23.69a1,1,0,0,1-.88-.52l-5.39-9.8a1,1,0,0,1-.05-.87L192,2a1,1,0,0,1,.88-.62,1,1,0,0,1,.93.52l7.69,14.27a1,1,0,0,1-.26,1.26,1.5,1.5,0,0,0-.24,1.72,1,1,0,0,1-.47,1.23l-6.08,3.24A1.12,1.12,0,0,1,194,23.69Zm-4.29-10.87,4.69,8.53,4.52-2.4a3.51,3.51,0,0,1,.51-2.48L193,4.67Z" transform="translate(-4.67 -1.34)" style="fill:#214257" />
		<path d="M200.85,16.39l-3.69-6L207.41,4.9,218,9.22l-14.25,7.72s-.85-1.57-2.86-.55" transform="translate(-4.67 -1.34)" style="fill:#faeb99" />
		<path d="M203.71,17.94a1,1,0,0,1-.29,0,1,1,0,0,1-.58-.47.86.86,0,0,0-.72-.39,1.79,1.79,0,0,0-.81.24,1,1,0,0,1-1.31-.37l-3.69-6a1,1,0,0,1-.11-.79,1,1,0,0,1,.49-.62L206.94,4a1,1,0,0,1,.85,0L218.34,8.3a1,1,0,0,1,.62.87,1,1,0,0,1-.52.93l-14.25,7.72A1,1,0,0,1,203.71,17.94ZM202.12,15a2.81,2.81,0,0,1,1.8.65l11.71-6.34L207.46,6l-8.89,4.74,2.7,4.42A3.23,3.23,0,0,1,202.12,15Z" transform="translate(-4.67 -1.34)" style="fill:#214257" />
	</g>
	<path d="M211,23.51a1,1,0,0,1-.86-.49l-1.85-3.13a1,1,0,0,1,1.72-1L211.83,22a1,1,0,0,1-.35,1.37A1.06,1.06,0,0,1,211,23.51Zm-16.84-6.8a1,1,0,0,1-.86-.49l-1.85-3.13a1,1,0,0,1,1.73-1L195,15.2a1,1,0,0,1-.35,1.37A1,1,0,0,1,194.13,16.71Z" transform="translate(-4.67 -1.34)" style="fill:#fff" />
</svg>
