<?xml version="1.0" encoding="utf-8"?>
<!-- Generator: Adobe Illustrator 18.0.0, SVG Export Plug-In . SVG Version: 6.00 Build 0) -->
<!DOCTYPE svg PUBLIC "-//W3C//DTD SVG 1.1//EN" "http://www.w3.org/Graphics/SVG/1.1/DTD/svg11.dtd">
<svg version="1.1" id="Guestbook" xmlns="http://www.w3.org/2000/svg" xmlns:xlink="http://www.w3.org/1999/xlink" x="0px" y="0px" width="791.5px" height="49.3px" viewBox="0 0 791.5 49.3" enable-background="new 0 0 791.5 49.3" xml:space="preserve">
	<g>
		<defs>
			<rect id="SVGID_1_" x="603.5" y="6.9" width="32" height="34.6" />
		</defs>
		<clipPath id="SVGID_2_">
			<use xlink:href="#SVGID_1_" overflow="visible" />
		</clipPath>
		<g clip-path="url(#SVGID_2_)">
			<path fill="#214257" d="M616.6,41.5c-1.4,0-2.7-0.3-4-0.8c-2.6-1.1-4.7-3.1-5.8-5.7c-1.1-2.6-1.1-5.5-0.1-8.1
			c0.6-1.6,1.6-3,2.9-4.1c0.4-0.4,1.1-0.3,1.4,0.1c0.4,0.4,0.3,1.1-0.1,1.4c-1.1,0.9-1.8,2-2.4,3.3c-0.9,2.1-0.8,4.5,0.1,6.6
			c0.9,2.1,2.6,3.8,4.7,4.6c2.1,0.9,4.5,0.9,6.6,0c2.1-0.9,3.8-2.6,4.6-4.7c0.5-1.2,0.7-2.5,0.6-3.9c0-0.6,0.4-1,0.9-1.1
			c0.5,0,1,0.4,1.1,0.9c0.1,1.6-0.1,3.2-0.7,4.8c-1.1,2.6-3.1,4.7-5.7,5.8C619.4,41.2,618,41.5,616.6,41.5z M616.6,38.4
			c-1,0-1.9-0.2-2.9-0.6c-1.9-0.8-3.4-2.2-4.2-4.1c-0.8-1.9-0.8-3.9-0.1-5.8c0.5-1.1,1.2-2.1,2.1-2.9c0.4-0.4,1.1-0.3,1.4,0.1
			c0.4,0.4,0.3,1.1-0.1,1.4c-0.7,0.6-1.2,1.3-1.5,2.1c-0.6,1.4-0.5,2.9,0,4.3c0.6,1.4,1.7,2.4,3.1,3c2.9,1.2,6.1-0.2,7.3-3.1
			c0.3-0.8,0.5-1.6,0.4-2.5c0-0.6,0.4-1,0.9-1.1c0.6,0,1,0.4,1.1,0.9c0.1,1.2-0.1,2.3-0.5,3.4C622.4,36.6,619.6,38.4,616.6,38.4z" />
		</g>
		<g clip-path="url(#SVGID_2_)">
			<path fill="#A6E8FA" d="M634.4,29.9c-0.8,1.9-8.1,0.8-16.3-2.5c-8.2-3.3-14.3-7.6-13.5-9.5c0.8-1.9,8.1-0.8,16.3,2.5
			C629.1,23.7,635.2,28,634.4,29.9" />
		</g>
		<g clip-path="url(#SVGID_2_)">
			<path fill="#214257" d="M631.7,31.8c-3.3,0-8.5-1.3-14-3.6c-4.1-1.6-7.7-3.6-10.3-5.4c-3.1-2.2-4.3-4-3.7-5.4
			c0.4-1,1.6-1.6,3.6-1.6c3.3,0,8.5,1.3,14,3.6c4.1,1.6,7.7,3.6,10.3,5.4c3.1,2.2,4.3,4,3.7,5.4C634.9,31.3,633.7,31.8,631.7,31.8z
			 M607.3,17.9c-1.5,0-1.8,0.3-1.8,0.3c-0.1,1,4.3,4.7,13,8.2c5.2,2.1,10.3,3.4,13.3,3.4c1.5,0,1.8-0.3,1.8-0.3
			c0.1-1-4.3-4.7-13-8.2C615.3,19.2,610.2,17.9,607.3,17.9z" />
		</g>
		<g clip-path="url(#SVGID_2_)">
			<path fill="#FFFFFF" d="M615.4,22.1c0,0,3.3,3.2,7.8,3.2c0,0-0.6-3.4,2-5.1c0,0,4-1.8,4.1-5.1c0,0,0.9-4.7-3.7-6.7
			c0,0-4.3-1.8-7.5,2.6c0,0-1.9,2.6-0.4,5.8C617.8,16.6,619.3,20.1,615.4,22.1" />
		</g>
		<g clip-path="url(#SVGID_2_)">
			<path fill="#214257" d="M623.3,26.3L623.3,26.3c-4.9,0-8.4-3.3-8.5-3.5c-0.2-0.2-0.3-0.5-0.3-0.9c0-0.3,0.2-0.6,0.5-0.7
			c3-1.6,2-4.1,1.9-4.2c-1.7-3.7,0.5-6.6,0.6-6.8c2-2.8,4.4-3.4,6.1-3.4c1.4,0,2.4,0.4,2.5,0.5c4.1,1.9,4.6,5.9,4.3,7.8
			c-0.2,3.7-4,5.6-4.6,5.9c-2,1.3-1.5,4-1.5,4.1c0.1,0.3,0,0.6-0.2,0.8C623.8,26.1,623.6,26.3,623.3,26.3z M617.1,22.2
			c1.1,0.7,2.9,1.8,5.1,2c0-1.4,0.4-3.6,2.5-4.9c0,0,0.1-0.1,0.1-0.1c0,0,3.4-1.6,3.5-4.3c0,0,0-0.1,0-0.1c0-0.2,0.6-3.9-3.1-5.7
			c0,0,0,0,0,0c0,0-0.7-0.3-1.7-0.3c-1.8,0-3.3,0.9-4.5,2.5c-0.1,0.1-1.5,2.2-0.4,4.8C619.3,17.5,619.6,20.2,617.1,22.2z" />
		</g>
		<g clip-path="url(#SVGID_2_)">
			<path fill="#214257" d="M621,14.8c-0.1,0-0.1,0-0.2,0c-0.5-0.1-0.9-0.6-0.8-1.2c0.5-2.4,2.9-3.1,4.1-3.2c0.6,0,1,0.4,1,1
			c0,0.6-0.4,1-1,1c-0.1,0-2,0.1-2.3,1.5C621.9,14.5,621.5,14.8,621,14.8z" />
		</g>
	</g>
	<g>
		<defs>
			<rect id="SVGID_3_" x="398.7" y="5.2" width="22.9" height="39.1" />
		</defs>
		<clipPath id="SVGID_4_">
			<use xlink:href="#SVGID_3_" overflow="visible" />
		</clipPath>
		<g clip-path="url(#SVGID_4_)">
			<path fill="#214257" d="M399.7,44.2c-0.1,0-0.3,0-0.4-0.1c-0.5-0.2-0.8-0.8-0.6-1.3l7.1-17.6c0.2-0.5,0.8-0.8,1.3-0.6
			c0.5,0.2,0.8,0.8,0.6,1.3l-7.1,17.6C400.4,44,400.1,44.2,399.7,44.2z" />
		</g>
		<g clip-path="url(#SVGID_4_)">
			<path fill="#FF5C70" d="M419.8,19.8c-2.1,5.1-7.8,7.5-12.9,5.5c-5.1-2-7.5-7.8-5.5-12.9c2-5.1,7.8-7.5,12.9-5.5
			C419.4,8.9,421.9,14.7,419.8,19.8" />
		</g>
		<g clip-path="url(#SVGID_4_)">
			<path fill="#214257" d="M410.6,27c-1.4,0-2.8-0.3-4.1-0.8c-5.6-2.3-8.3-8.6-6-14.2c1.7-4.1,5.6-6.8,10.1-6.8
			c1.4,0,2.8,0.3,4.1,0.8c2.7,1.1,4.8,3.2,6,5.9c1.1,2.7,1.2,5.6,0.1,8.3C419.1,24.3,415.1,27,410.6,27z M410.6,7.2
			c-3.7,0-6.9,2.2-8.3,5.6c-1.8,4.6,0.4,9.8,4.9,11.6c1.1,0.4,2.2,0.7,3.3,0.7c3.7,0,6.9-2.2,8.3-5.6c0.9-2.2,0.9-4.6-0.1-6.8
			c-0.9-2.2-2.7-3.9-4.9-4.8C412.9,7.4,411.8,7.2,410.6,7.2z" />
		</g>
		<g clip-path="url(#SVGID_4_)">
			<path fill="#FF5C70" d="M401.5,12.4c0,0,5.9,6.1,16.6,7.3c0.6,0.1,1.2,0.1,1.8,0.1" />
		</g>
		<g clip-path="url(#SVGID_4_)">
			<path fill="#214257" d="M419.8,20.8C419.8,20.8,419.8,20.8,419.8,20.8c-0.7,0-1.3-0.1-1.9-0.1c-11-1.2-17-7.3-17.2-7.6
			c-0.4-0.4-0.4-1,0-1.4c0.4-0.4,1-0.4,1.4,0c0.1,0.1,5.8,5.9,16,7c0.6,0.1,1.1,0.1,1.7,0.1c0.6,0,1,0.5,1,1
			C420.8,20.4,420.4,20.8,419.8,20.8z" />
		</g>
		<g clip-path="url(#SVGID_4_)">
			<path fill="#FFFFFF" d="M416.4,16.6c0,0-0.1,0-0.1,0c-0.5-0.1-0.9-0.6-0.9-1.1c0.3-1.9-1.5-3-1.6-3.1c-0.5-0.3-0.6-0.9-0.3-1.4
			c0.3-0.5,0.9-0.6,1.4-0.3c0.1,0.1,3,1.8,2.5,5.1C417.3,16.2,416.9,16.6,416.4,16.6z" />
		</g>
	</g>
	<g>
		<g>
			<defs>
				<rect id="SVGID_5_" x="4.7" y="2.9" width="23.5" height="43" />
			</defs>
			<clipPath id="SVGID_6_">
				<use xlink:href="#SVGID_5_" overflow="visible" />
			</clipPath>
			<g clip-path="url(#SVGID_6_)">
				<path fill="#FFFFFF" d="M14.2,44.7l-4.1-1c-3.1-0.8-5.1-4-4.3-7.1l4.4-17.6c0.6-2.5,3.2-4,5.7-3.4l6.4,1.6c2.5,0.6,4,3.2,3.4,5.7
				l-4.4,17.6C20.6,43.6,17.3,45.5,14.2,44.7" />
			</g>
			<g clip-path="url(#SVGID_6_)">
				<path fill="#214257" d="M15.6,45.9c-0.6,0-1.1-0.1-1.7-0.2l-4.1-1c-3.7-0.9-5.9-4.7-5-8.3l4.4-17.6c0.6-2.5,2.9-4.3,5.5-4.3
				c0.5,0,0.9,0.1,1.4,0.2l6.4,1.6c3,0.8,4.9,3.9,4.2,6.9l-4.4,17.6C21.5,43.7,18.8,45.9,15.6,45.9z M14.8,16.4
				c-1.7,0-3.2,1.2-3.6,2.8L6.8,36.8c-0.6,2.6,0.9,5.3,3.6,5.9l4.1,1c0.4,0.1,0.8,0.1,1.2,0.1c2.2,0,4.2-1.5,4.7-3.7l4.4-17.6
				c0.5-2-0.7-4-2.7-4.5l-6.4-1.6C15.4,16.4,15.1,16.4,14.8,16.4z" />
			</g>
			<g clip-path="url(#SVGID_6_)">
				<path fill="#D6D4D6" d="M14.7,11.5c0.7-2.9,3.7-4.7,6.6-4c2.9,0.7,4.7,3.7,4,6.6" />
			</g>
			<g clip-path="url(#SVGID_6_)">
				<path fill="#214257" d="M25.3,15.2c-0.1,0-0.2,0-0.2,0c-0.5-0.1-0.9-0.7-0.7-1.2c0.6-2.4-0.9-4.8-3.2-5.4
				c-2.4-0.6-4.8,0.9-5.4,3.2c-0.1,0.5-0.7,0.9-1.2,0.7c-0.5-0.1-0.9-0.7-0.7-1.2c0.9-3.5,4.4-5.6,7.8-4.7c3.5,0.9,5.6,4.4,4.7,7.8
				C26.1,14.9,25.7,15.2,25.3,15.2z" />
			</g>
			<g clip-path="url(#SVGID_6_)">
				<path fill="#D6D4D6" d="M20.2,7L20.7,5c0.2-0.6,0.8-1,1.4-0.9s1,0.8,0.9,1.5l-0.5,2.1" />
			</g>
			<g clip-path="url(#SVGID_6_)">
				<path fill="#214257" d="M22.5,8.6c-0.1,0-0.2,0-0.2,0c-0.5-0.1-0.9-0.7-0.7-1.2l0.5-2.1c0-0.1-0.1-0.2-0.1-0.2
				c-0.1,0-0.2,0-0.2,0.1l-0.5,2.1C21,7.8,20.5,8.2,20,8c-0.5-0.1-0.9-0.7-0.7-1.2l0.5-2.1c0.3-1.2,1.5-1.9,2.7-1.6
				c0.6,0.1,1,0.5,1.3,1s0.4,1.1,0.2,1.7l-0.5,2.1C23.4,8.3,23,8.6,22.5,8.6z" />
			</g>
		</g>
		<g>
			<path fill="#214257" d="M22.2,35.1c-0.1,0-0.2,0-0.2,0l-5.3-1.3c-0.5-0.1-0.9-0.7-0.7-1.2c0.1-0.5,0.7-0.9,1.2-0.7l5.3,1.3
			c0.5,0.1,0.9,0.7,0.7,1.2C23,34.8,22.6,35.1,22.2,35.1z M23.3,31.5c-0.1,0-0.2,0-0.2,0l-5.3-1.3c-0.5-0.1-0.9-0.7-0.7-1.2
			s0.7-0.9,1.2-0.7l5.3,1.3c0.5,0.1,0.9,0.7,0.7,1.2C24.1,31.2,23.7,31.5,23.3,31.5z M24,27.8c-0.1,0-0.2,0-0.2,0l-5.3-1.3
			c-0.5-0.1-0.9-0.7-0.7-1.2c0.1-0.5,0.7-0.9,1.2-0.7l5.3,1.3c0.5,0.1,0.9,0.7,0.7,1.2C24.8,27.5,24.4,27.8,24,27.8z" />
		</g>
		<g>
			<defs>
				<rect id="SVGID_7_" x="4.7" y="2.9" width="23.5" height="43" />
			</defs>
			<clipPath id="SVGID_8_">
				<use xlink:href="#SVGID_7_" overflow="visible" />
			</clipPath>
			<g clip-path="url(#SVGID_8_)">
				<path fill="#D6D4D6" d="M25.1,17.8l-11.9-3c-0.9-0.2-1.4-1.1-1.2-1.9c0.2-0.8,1.1-1.4,1.9-1.2l11.9,3c0.9,0.2,1.4,1.1,1.2,1.9
				C26.8,17.5,25.9,18,25.1,17.8" />
			</g>
			<g clip-path="url(#SVGID_8_)">
				<path fill="#214257" d="M25.4,18.8c-0.2,0-0.4,0-0.6-0.1l-11.9-3c-1.4-0.3-2.2-1.8-1.9-3.1c0.3-1.4,1.8-2.2,3.1-1.9l11.9,3
				c1.4,0.3,2.2,1.8,1.9,3.1C27.7,18,26.6,18.8,25.4,18.8z M13.6,12.7c-0.3,0-0.5,0.2-0.6,0.5c-0.1,0.3,0.1,0.6,0.4,0.7l11.9,3
				c0.3,0.1,0.6-0.1,0.7-0.4c0.1-0.3-0.1-0.6-0.4-0.7l-11.9-3C13.7,12.7,13.6,12.7,13.6,12.7z" />
			</g>
			<g clip-path="url(#SVGID_8_)">
				<path fill="#214257" d="M12,27.9c-0.1,0-0.2,0-0.2,0c-0.5-0.1-0.9-0.7-0.7-1.2l0.7-3c0.9-3.6,3.3-4.2,3.4-4.2
				c0.5-0.1,1.1,0.2,1.2,0.8c0.1,0.5-0.2,1.1-0.7,1.2c-0.1,0-1.4,0.4-2,2.7l-0.7,3C12.8,27.6,12.4,27.9,12,27.9z" />
			</g>
		</g>
	</g>
	<g>
		<g>
			<defs>
				<rect id="SVGID_9_" x="185" y="1.3" width="34" height="47" />
			</defs>
			<clipPath id="SVGID_10_">
				<use xlink:href="#SVGID_9_" overflow="visible" />
			</clipPath>
			<g clip-path="url(#SVGID_10_)">
				<path fill="#214257" d="M190.2,48.3c-0.1,0-0.3,0-0.4-0.1c-0.5-0.2-0.8-0.8-0.6-1.3l6.3-15.5c0.2-0.5,0.8-0.8,1.3-0.6
				c0.5,0.2,0.8,0.8,0.6,1.3l-6.3,15.5C190.9,48.1,190.6,48.3,190.2,48.3z" />
			</g>
			<g clip-path="url(#SVGID_10_)">
				<path fill="#FAEB99" d="M203.1,19.9l3.7,6l-10.2,5.5L186,27.2l14.2-7.8C200.2,19.4,201.2,20.9,203.1,19.9" />
			</g>
			<g clip-path="url(#SVGID_10_)">
				<path fill="#214257" d="M196.6,32.4c-0.1,0-0.3,0-0.4-0.1l-10.6-4.3c-0.4-0.1-0.6-0.5-0.6-0.9c0-0.4,0.2-0.8,0.5-0.9l14.2-7.8
				c0.5-0.3,1.1-0.1,1.3,0.4c0,0,0.3,0.4,0.8,0.4l0,0c0.2,0,0.5-0.1,0.8-0.2c0.5-0.3,1-0.1,1.3,0.4l3.7,6c0.1,0.2,0.2,0.5,0.1,0.8
				c-0.1,0.3-0.2,0.5-0.5,0.6L197,32.3C196.9,32.4,196.7,32.4,196.6,32.4z M188.3,27l8.2,3.3l8.9-4.8l-2.7-4.4
				c-0.3,0.1-0.6,0.1-0.8,0.1l0,0c-0.8,0-1.4-0.3-1.8-0.6L188.3,27z" />
			</g>
			<g clip-path="url(#SVGID_10_)">
				<path fill="#A6E8FA" d="M203.7,17l6-3.7l5.4,10.3l-4.3,10.5l-7.7-14.3C203.1,19.8,204.6,18.7,203.7,17" />
			</g>
			<g clip-path="url(#SVGID_10_)">
				<path fill="#214257" d="M210.8,35.1c-0.4,0-0.7-0.2-0.9-0.5l-7.7-14.3c-0.2-0.4-0.1-1,0.3-1.3c0.2-0.2,0.7-0.7,0.3-1.6
				c-0.3-0.5-0.1-1.1,0.4-1.3l6-3.7c0.2-0.1,0.5-0.2,0.8-0.1c0.3,0.1,0.5,0.3,0.6,0.5l5.4,10.3c0.1,0.3,0.2,0.6,0,0.8l-4.3,10.5
				C211.6,34.8,211.3,35.1,210.8,35.1C210.9,35.1,210.8,35.1,210.8,35.1z M204.3,20l6.3,11.8l3.4-8.2l-4.7-8.9l-4.4,2.7
				C205.2,18.5,204.8,19.4,204.3,20z" />
			</g>
			<g clip-path="url(#SVGID_10_)">
				<path fill="#A6E8FA" d="M200,19.5l-6.1,3.2l-5.4-9.8l4.3-10.5l7.7,14.3C200.6,16.6,199.4,17.6,200,19.5" />
			</g>
			<g clip-path="url(#SVGID_10_)">
				<path fill="#214257" d="M194,23.7c-0.4,0-0.7-0.2-0.9-0.5l-5.4-9.8c-0.1-0.3-0.2-0.6,0-0.9L192,2c0.1-0.4,0.5-0.6,0.9-0.6
				c0.4,0,0.7,0.2,0.9,0.5l7.7,14.3c0.2,0.4,0.1,1-0.3,1.3c-0.1,0.1-0.6,0.6-0.2,1.7c0.2,0.5,0,1-0.5,1.2l-6.1,3.2
				C194.3,23.7,194.1,23.7,194,23.7z M189.7,12.8l4.7,8.5l4.5-2.4c-0.2-1,0.1-1.9,0.5-2.5L193,4.7L189.7,12.8z" />
			</g>
			<g clip-path="url(#SVGID_10_)">
				<path fill="#FAEB99" d="M200.9,16.4l-3.7-6l10.2-5.5L218,9.2l-14.3,7.7C203.7,16.9,202.9,15.4,200.9,16.4" />
			</g>
			<g clip-path="url(#SVGID_10_)">
				<path fill="#214257" d="M203.7,17.9c-0.1,0-0.2,0-0.3,0c-0.2-0.1-0.5-0.2-0.6-0.5c0,0-0.3-0.4-0.7-0.4c-0.2,0-0.5,0.1-0.8,0.2
				c-0.5,0.2-1,0.1-1.3-0.4l-3.7-6c-0.1-0.2-0.2-0.5-0.1-0.8c0.1-0.3,0.3-0.5,0.5-0.6L206.9,4c0.3-0.1,0.6-0.2,0.8,0l10.6,4.3
				c0.4,0.1,0.6,0.5,0.6,0.9c0,0.4-0.2,0.7-0.5,0.9l-14.3,7.7C204,17.9,203.9,17.9,203.7,17.9z M202.1,15c0.8,0,1.4,0.3,1.8,0.6
				l11.7-6.3L207.5,6l-8.9,4.7l2.7,4.4C201.6,15.1,201.8,15,202.1,15z" />
			</g>
		</g>
		<g>
			<path fill="#FFFFFF" d="M211,23.5c-0.3,0-0.7-0.2-0.9-0.5l-1.8-3.1c-0.3-0.5-0.1-1.1,0.4-1.4c0.5-0.3,1.1-0.1,1.4,0.4l1.8,3.1
			c0.3,0.5,0.1,1.1-0.4,1.4C211.3,23.5,211.1,23.5,211,23.5z M194.1,16.7c-0.3,0-0.7-0.2-0.9-0.5l-1.8-3.1c-0.3-0.5-0.1-1.1,0.4-1.4
			c0.5-0.3,1.1-0.1,1.4,0.4l1.8,3.1c0.3,0.5,0.1,1.1-0.4,1.4C194.5,16.7,194.3,16.7,194.1,16.7z" />
		</g>
	</g>
</svg>
