<svg xmlns="http://www.w3.org/2000/svg" xmlns:xlink="http://www.w3.org/1999/xlink" viewBox="0 0 19.17 180.77">
	<defs>
		<clipPath id="clip-path" transform="translate(-1 -1)">
			<rect x="2.39" y="172.5" width="17.61" height="9.17" style="fill:none" />
		</clipPath>
		<clipPath id="clip-path-2" transform="translate(-1 -1)">
			<rect x="2" y="147.59" width="16" height="18.17" style="fill:none" />
		</clipPath>
		<clipPath id="clip-path-3" transform="translate(-1 -1)">
			<rect x="2" y="129.92" width="17.5" height="12.73" style="fill:none" />
		</clipPath>
		<clipPath id="clip-path-4" transform="translate(-1 -1)">
			<rect x="3" y="108.12" width="15" height="17.39" style="fill:none" />
		</clipPath>
		<clipPath id="clip-path-5" transform="translate(-1 -1)">
			<rect x="2.21" y="89.46" width="16.54" height="15.15" style="fill:none" />
		</clipPath>
		<clipPath id="clip-path-6" transform="translate(-1 -1)">
			<rect x="4" y="67.12" width="16" height="17.31" style="fill:none" />
		</clipPath>
		<clipPath id="clip-path-7" transform="translate(-1 -1)">
			<rect x="1" y="46.18" width="16.95" height="19.21" style="fill:none" />
		</clipPath>
		<clipPath id="clip-path-8" transform="translate(-1 -1)">
			<rect x="1" y="23.18" width="18.15" height="19.21" style="fill:none" />
		</clipPath>
		<clipPath id="clip-path-9" transform="translate(-1 -1)">
			<rect x="1" y="1" width="17.64" height="17.85" style="fill:none" />
		</clipPath>
	</defs>
	<g style="clip-path:url(#clip-path)">
		<path d="M14.73,177.13a3.59,3.59,0,0,1-3.41,3.74,3.76,3.76,0,0,1,0-7.49A3.59,3.59,0,0,1,14.73,177.13ZM3.13,177c9.18,8.7,16.13.1,16.13.1C10.08,168.44,3.13,177,3.13,177Z" transform="translate(-1 -1)" style="fill:none;stroke:#224257;stroke-linecap:round;stroke-linejoin:round;stroke-width:1.682000041008px" />
	</g>
	<path d="M7.89,163.29a.54.54,0,0,1-.34-.12L6,162a.56.56,0,1,1,.69-.87l1.51,1.2a.56.56,0,0,1,.09.78A.56.56,0,0,1,7.89,163.29Zm3.26-4a.59.59,0,0,1-.35-.12l-1.51-1.2a.55.55,0,0,1-.08-.78.55.55,0,0,1,.78-.09l1.51,1.2a.56.56,0,0,1,.08.78A.54.54,0,0,1,11.15,159.25Zm3.15-3.91a.59.59,0,0,1-.35-.12L12.44,154a.56.56,0,0,1-.08-.78.56.56,0,0,1,.78-.09l1.51,1.21a.54.54,0,0,1,.08.77A.54.54,0,0,1,14.3,155.34Z" transform="translate(-1 -1)" style="fill:#224257" />
	<g style="clip-path:url(#clip-path-2)">
		<path d="M5.79,165.91a.87.87,0,0,1-.53-.18l-3.1-2.51a.8.8,0,0,1-.31-.56.84.84,0,0,1,.18-.61l11.54-14.31a.83.83,0,0,1,1.17-.12l3.1,2.5a.8.8,0,0,1,.31.56.84.84,0,0,1-.18.61L6.43,165.6A.79.79,0,0,1,5.79,165.91Zm-1.94-3.46,1.81,1.46,10.49-13-1.81-1.46Z" transform="translate(-1 -1)" style="fill:#224257" />
		<path d="M14.84,150.57a.47.47,0,0,1,.07.66.47.47,0,1,1-.07-.66" transform="translate(-1 -1)" style="fill:#224257" />
	</g>
	<g style="clip-path:url(#clip-path-3)">
		<path d="M10.64,134.51s1.86-2.65.45-3.72c0,0-.68-.64-1.27-.17a.71.71,0,0,0,0,.94,2.94,2.94,0,0,0,3.06.83,2.78,2.78,0,0,0,1.65-1.06M18.84,142a1.16,1.16,0,0,0-.72-1.6,8.11,8.11,0,0,0-7.48-5.92,7.41,7.41,0,0,0-7.27,5.93s-1.27.55-.68,1.67" transform="translate(-1 -1)" style="fill:none;stroke:#224257;stroke-linecap:round;stroke-linejoin:round;stroke-width:1.66499996185303px" />
		<path d="M9.71,140.77a.63.63,0,1,1-.62-.63.62.62,0,0,1,.62.63" transform="translate(-1 -1)" style="fill:#224257" />
		<path d="M13.3,140.77a.63.63,0,1,1-.63-.63.63.63,0,0,1,.63.63" transform="translate(-1 -1)" style="fill:#224257" />
	</g>
	<g style="clip-path:url(#clip-path-4)">
		<path d="M12.72,111a2.22,2.22,0,1,1-2.22-2.23A2.23,2.23,0,0,1,12.72,111Zm4.62,13.83H3.67l1.6-11H15.73Z" transform="translate(-1 -1)" style="fill:none;stroke:#224257;stroke-linecap:round;stroke-linejoin:round;stroke-width:1.66499996185303px" />
	</g>
	<g style="clip-path:url(#clip-path-5)">
		<path d="M2.89,103.92H18.07L10.3,90.14S2.89,104.22,2.89,103.92Z" transform="translate(-1 -1)" style="fill:none;stroke:#224257;stroke-linecap:round;stroke-linejoin:round;stroke-width:1.66499996185303px" />
	</g>
	<g style="clip-path:url(#clip-path-6)">
		<path d="M16,67.78l3.31,2-2,3.31m-12,7.82h6m1-9,6.09-2M8.4,77.36v6.4M4.66,73.66a3.75,3.75,0,1,0,3.67-3.82A3.75,3.75,0,0,0,4.66,73.66Z" transform="translate(-1 -1)" style="fill:none;stroke:#224257;stroke-linecap:round;stroke-linejoin:round;stroke-width:1.66499996185303px" />
	</g>
	<g style="clip-path:url(#clip-path-7)">
		<path d="M9.47,51.76a2.83,2.83,0,1,0,2.82,2.83A2.82,2.82,0,0,0,9.47,51.76Zm-4.91,9a8.66,8.66,0,0,1-2.73-6,7.64,7.64,0,1,1,15.28,0,8.43,8.43,0,0,1-2.91,6.08l-3.57,3.31a1.74,1.74,0,0,1-2.36,0Z" transform="translate(-1 -1)" style="fill:none;stroke:#224257;stroke-linecap:round;stroke-linejoin:round;stroke-width:1.66499996185303px" />
	</g>
	<g style="clip-path:url(#clip-path-8)">
		<path d="M18,26.29A6.76,6.76,0,0,0,15.09,24M2.31,26.29A6.76,6.76,0,0,1,5.2,24M15.43,39.35l1.1,2.21m-12-2.21-1.1,2.21M10.9,29.85,9.25,33.71h4.94m4.12-.83a8.24,8.24,0,1,1-8.24-8.27A8.25,8.25,0,0,1,18.31,32.88Z" transform="translate(-1 -1)" style="fill:none;stroke:#224257;stroke-linecap:round;stroke-linejoin:round;stroke-width:1.66499996185303px" />
	</g>
	<g style="clip-path:url(#clip-path-9)">
		<path d="M13.48,4.42V1.83M9.77,4.42V1.83M6.35,4.42V1.83m-4,5.31H17.44M16.26,18H3.38a1.52,1.52,0,0,1-1.55-1.48V5.06A1.52,1.52,0,0,1,3.38,3.58H16.26a1.52,1.52,0,0,1,1.55,1.48V16.53A1.52,1.52,0,0,1,16.26,18Z" transform="translate(-1 -1)" style="fill:none;stroke:#224257;stroke-linecap:round;stroke-linejoin:round;stroke-width:1.66499996185303px" />
	</g>
</svg>
