<svg version="1.2" baseProfile="tiny-ps" xmlns="http://www.w3.org/2000/svg" viewBox="0 0 261 245" width="261" height="245">
	<title>orange flower 13</title>
	<style>
		tspan { white-space:pre }
		.shp0 { fill: #67b8a7 } 
		.shp1 { fill: #f89462 } 
	</style>
	<path id="Green Leafset 11" class="shp0" d="M113.1 160.78C105.2 166.39 104.74 178.43 104.77 181.61C104.84 189.39 113.93 205.2 135.9 220.29C147.08 227.97 170.19 238.59 198.27 242.96C212.89 245.24 221.14 245.28 222.57 242.15C224.7 237.48 211.87 229.22 194.22 212.19C185.9 204.16 178.01 194.03 167.49 185.47C153.69 174.23 137.84 165.4 138.1 164.94C138.4 164.42 157.79 177.1 183.69 183.44C195.96 186.45 207.88 186.6 221.35 188.3C234.08 189.91 241.99 191.15 243.22 188.3C244.75 184.8 235.29 177.13 222.16 168.06C213.82 162.28 204.95 157.37 199.08 155.1C185.36 149.79 171.44 148.24 171.44 148.28C171.43 148.32 197.87 156.24 221.44 144.11C225.75 141.89 232.85 136.63 239.17 130C249.11 119.57 264.84 98.55 258.94 89.95C254.62 83.64 231.02 90.52 218.92 89.91C204.57 89.19 196.59 85.82 183.94 89.95C167.71 95.24 157.22 107.97 157.37 108.13C157.55 108.33 177.52 94.22 187.34 70.07C191.86 58.95 190.27 51.45 194.22 40.11C196.38 33.91 198.42 29.55 196.44 27.45C193.18 24 181.9 30.83 161.82 40.92C148.12 47.8 139.3 51.96 129.42 61.97C120.59 70.93 115.49 79.49 112.42 87.48C107.23 100.95 107.02 112.81 108.37 118.66C109.64 124.2 113.33 134.63 120.11 144.17C121.37 145.94 125.01 150.89 123.35 154.7C121.88 158.06 115.63 158.98 113.1 160.78Z" />
	<path id="orange flower 12" class="shp1" d="M50.6 127.45C44.32 128.03 37.24 122.47 34.6 121.59C25.97 118.74 14.78 120.95 8.65 127.81C3.73 133.31 1.09 142.83 4.99 147.91C9.72 154.07 22.65 151.56 29.12 149.74C35.62 147.91 39.98 145.26 47.4 145.35C53.64 145.44 58.58 146.78 60.19 150.11C61.49 152.79 60.62 156.8 56.17 162.9C50.08 171.24 40.93 173.34 36.43 182.27C34.86 185.38 32.58 191.78 35.33 197.62C38.33 203.98 46.04 207.07 52.15 206.4C61.93 205.32 69.7 194.35 70.79 184.47C71.61 177.06 66.06 168.63 69.69 161.07C70.94 158.49 72.29 157.2 73.72 157.05C77.25 156.69 80.99 163.35 83.95 170.58C85.7 174.85 88.05 193.56 95.28 199.45C100.77 203.92 109.69 205.25 113.19 201.65C115.49 199.28 115.28 193.39 111.37 183.73C107.61 174.48 102 166.85 99.3 164.73C96.54 162.56 92.44 160.11 91.63 155.59C91.44 154.57 90.97 150.86 93.09 149.01C97.21 145.4 112.55 153.72 121.97 154.86C129.4 155.75 134.35 154.87 138.42 152.3C143.28 149.23 148.83 142.48 147.19 135.48C145.63 128.82 138.21 124.84 132.2 124.15C123.32 123.14 114.98 130.38 106.61 132.19C103.27 132.92 92.84 134.77 90.9 131.1C88.94 127.4 96.16 119.14 102.59 113.92C106.13 111.05 119.29 105.01 125.62 96.01C128.74 91.57 129.35 88.47 128.55 86.5C126.69 81.93 117.86 80.74 111.37 82.12C99.55 84.62 87.29 97.53 85.78 111.73C85.24 116.81 86.07 121.7 82.85 124.15C80.38 126.04 76.15 125.99 73.35 124.15C68.29 120.83 68.8 112.26 68.23 99.3C67.76 88.43 66.61 81.77 62.02 79.19C58.08 76.98 53.18 78.76 51.42 79.56C44.39 82.73 40.88 91.31 41.55 98.2C41.92 102.09 45.55 108.36 50.69 115.38C52.86 118.35 56.27 123 54.71 125.62C54.17 126.51 52.98 127.22 50.6 127.45Z" />
	<path id="orange flower 13" class="shp1" d="M70.24 31.44C70.14 21.27 72.29 14.04 74.83 11.21C79.15 6.38 86.9 5.54 92.63 7.16C100.51 9.4 107.72 17.15 106.39 23.62C105.37 28.62 99.22 31.68 96.41 32.79C92.88 34.19 90.07 34.22 87.78 36.84C86.31 38.51 84.63 41.76 85.62 44.66C87.19 49.25 95.33 49.46 99.65 53.56C105.6 59.22 107.54 69.44 104.23 72.45C102.68 73.87 97.75 73.2 90.21 70.02C82.51 66.78 76.56 61.96 75.1 59.77C73.83 57.88 71.78 50.39 68.89 49.79C66.45 49.28 63.17 51.85 61.88 54.91C59.53 60.48 65.88 71.16 66.73 75.42C68.56 84.58 67.49 89.54 64.57 91.87C59.48 95.96 47.99 92.65 44.34 85.67C43.44 83.94 42.92 79.12 44.34 73.26C45.7 67.65 48.18 62.81 49.47 56.53C50.7 50.49 50.1 46.74 48.66 45.47C46.06 43.19 41.36 45 35.17 46.82C28.63 48.74 22.15 49.7 19.52 49.25C8.98 47.43 -2.19 36.24 0.36 27.4C2.38 20.39 12.65 16.09 20.87 17.41C29.77 18.85 36.78 27.71 38.67 30.36C38.97 30.78 41.73 34.02 44.61 35.76C47.39 37.44 49.86 38.33 51.08 37.38C52.73 36.11 51.82 31.81 50.28 28.74C48.02 24.29 44.34 22.89 41.91 19.57C40.37 17.47 36.48 11.25 38.94 5.81C40.44 2.51 44.08 -0.14 47.85 -0.12C53.44 -0.09 57.18 5.77 58.37 7.97C62.94 16.42 58.03 25.17 63.5 33.06C64.98 35.2 67.45 37.66 68.89 37.11C70.33 36.55 70.26 33.2 70.24 31.44Z" />
</svg>