<svg version="1.2" baseProfile="tiny-ps" xmlns="http://www.w3.org/2000/svg" viewBox="0 0 1539 1522" width="1539" height="1522">
	<title>Shape 844</title>
	<style>
		tspan { white-space:pre }
		.shp0 { fill: #d4e8e4 } 
		.shp1 { opacity: 0.2;fill: #367a91 } 
	</style>
	<path id="Rectangle 794" class="shp0" d="M0.72 0.72L1538.28 0.72L1538.28 1521.94L0.72 1521.94L0.72 0.72Z" />
	<path id="Shape 844" class="shp1" d="M238.23 1330.22C225.39 1318.75 211.81 1310.9 197.31 1306.7C184.95 1303.11 176.15 1303.46 164.9 1297.2C151.12 1289.52 140.52 1275.98 133.62 1260.31C112.93 1213.34 137.35 1153.1 150.94 1153.57C153.99 1153.68 158.43 1160.08 163.23 1171.85C168.01 1183.58 169.07 1195.42 171.05 1204.99C172.78 1213.32 183.44 1234.03 199.55 1252.49C203.92 1257.5 222.09 1271.99 230.83 1287.7C238.11 1300.76 241.71 1315.13 242.4 1330.22M224.78 1313.75C210.97 1305.56 197.38 1301.99 184.58 1304.81C167.67 1308.54 160 1321.69 147.95 1334.3C124.99 1358.32 91.61 1365.94 93.44 1371.84C95.08 1377.09 118.74 1376.82 140.8 1369.16C159.44 1362.69 171.21 1350.78 189.94 1337.88C200.61 1330.53 211.61 1323.69 223 1317.32C225.3 1316.03 227.58 1314.79 229.9 1313.55M1346.6 742.57C1341.94 740.13 1338.8 733.92 1338.27 721.73C1337.22 697.66 1352.57 678.76 1357.4 672.89C1388.69 634.8 1406.95 614.08 1413.27 617.54C1420.67 621.58 1410.26 648.52 1396.61 696.73C1395.21 701.66 1389.08 722.09 1371.82 734.93C1361.86 742.35 1352.84 745.83 1346.6 742.57Z" />
</svg>