<svg version="1.2" baseProfile="tiny-ps" xmlns="http://www.w3.org/2000/svg" viewBox="0 0 677 1838" width="677" height="1838">
	<title>Grey Stemset 3</title>
	<style>
		tspan { white-space:pre }
		.shp0 { fill: #367a91 } 
		.shp1 { fill: #67b8a7 } 
		.shp2 { fill: #f89462 } 
		.shp3 { fill: #b4b6b5 } 
	</style>
	<path id="dark blue leafset 2" class="shp0" d="M625.06 641.77C633.15 635.43 642.97 617.4 644.69 588.14C645.78 569.49 640.73 543.86 624.91 513C611.78 487.41 596.39 477.16 587.56 450.11C579.12 424.28 581 402.86 570.89 400.11C564.79 398.45 557.68 406.41 544.8 416.12C533.6 424.56 523.3 431.49 520.89 429.28C518.03 426.66 526.39 411.32 535.9 395.36C541.71 385.61 546.97 377.48 545.89 366.78C544.46 352.64 533.07 345.6 520.08 333.07C512.98 326.23 490.33 303.59 484.47 289.57C484.01 288.47 482.58 284.86 479.22 283.45C472.67 280.7 463.54 288.26 454.22 295.95C443.13 305.1 436.32 310.3 433.38 308.45C430.43 306.59 433.69 293.61 433.38 287.62C432.74 275.02 429 266.99 425.05 262.62C414.83 251.33 399.9 254.9 379.12 248.93C373.97 247.44 363.73 242.66 354.92 238.23C346.38 233.94 335.71 228.58 331.84 225.85C330.11 224.63 320.96 219.02 312.55 216.79C304.17 214.56 297.72 213.98 295.88 216.79C292.28 222.28 312.54 240.55 319.45 259.62C324.99 274.88 321.08 284.17 323.96 300.15C326.43 313.85 331.07 332 322.83 341.8C322 342.78 320.39 344.47 320.88 345.95C322.23 349.99 338.16 348.44 360.55 345.17C382.26 342.01 394.83 339.08 395.88 341.78C397.11 344.9 383.31 355.76 367.3 362.62C360.25 365.65 354.59 367.2 351.54 372.75C344.76 385.09 357.96 404.12 365.61 415.53C381.96 439.93 399.37 466.91 402.2 478.01C403.36 482.56 405.2 491.5 412.55 495.94C421.65 501.44 442.61 494.48 448.92 494.33C453.26 494.23 461.28 495.24 468.62 496.58C480.62 498.77 486.73 501.46 487.76 505.59C488.8 509.74 484.93 514.1 483.26 515.72C476.07 522.67 466.03 521.15 451.17 523.6C442.11 525.1 436.78 527.52 435.97 529.79C433.73 536.09 444.87 546.38 461.31 557.94C471.62 565.19 487.38 574.94 495.64 580.45C501.4 584.29 504.64 586.52 504.22 587.6C503.17 590.31 481.02 589.72 465.25 577.07C458.75 571.87 455.76 566.65 450.05 566.77C436.78 567.05 430.94 596.93 425.05 595.93C418.64 594.85 416.59 557.97 427.53 548.37C428.05 547.92 428.97 547.18 429.22 545.94C430.54 539.16 394.96 525.67 382.5 517.41C377.59 514.15 369.93 509.23 361.11 506.15C351.88 502.94 345.62 504.15 336.34 501.09C333.94 500.3 331.89 499.52 329.21 500.11C322.08 501.66 316.15 512.03 311.01 532.61C309.92 536.97 308.93 541.48 307.07 541.61C304 541.83 299.91 525.6 293.56 515.72C292.04 513.36 289.33 509.84 286.8 506.72C279.09 497.18 270.41 489.07 266.71 487.61C253.57 482.41 242.07 490.18 220.38 497.71C208.49 501.84 194.63 506.27 186.04 508.4C174.94 511.17 168.32 512.19 166.71 516.77C162.94 527.5 199.93 547.19 216.44 569.19C234.83 593.69 239.93 617.28 253.59 617.04C258.13 616.96 264.6 611.08 273.29 604.65C282.53 597.84 288.61 593.9 291.71 595.93C294.92 598.04 294.42 606.21 291.71 612.6C287.42 622.74 274.02 627.67 273.86 636.74C273.84 637.65 274.22 639.76 275.05 641.77C281.1 656.5 308.27 666.56 327.9 674.45C345.99 681.72 358.18 688.04 362.55 695.93C363.24 697.17 364.41 699.57 366.72 700.1C373.98 701.77 390.45 674.77 402.2 664.32C411.15 656.36 416.84 653.08 419.65 654.75C423.19 656.86 421.01 668.95 415.15 689.65C413.06 697.02 410.77 703.41 408.39 705.97C397.07 718.13 374.53 714.96 341.97 713.29C328.02 712.57 313.26 712.6 308.38 720.93C302.76 730.53 312.4 747.75 308.19 758.32C307.51 760.04 306.63 761.21 305.38 761.69C301.82 763.05 292.03 752.96 290.74 752.12C284.83 748.3 280.61 747.64 277.8 742.56C276.6 740.39 276.55 738.59 275.05 737.59C269.58 733.97 258.22 746.4 240.65 757.75C226.46 766.92 209.5 776.75 199.55 780.83C196.14 782.23 184.79 786.76 184.36 793.78C184.04 798.81 190.2 804.15 200.04 812.59C200.95 813.37 207.75 819.41 209.16 827.84C209.67 830.87 209.21 832.66 208.38 833.42C205.65 835.91 197.61 832.65 186.6 826.43C183.56 824.7 179.82 822.45 174.62 822.55C168.23 822.67 162.98 826.27 158.41 830.65C146.03 842.51 136.27 859.84 134.09 864.48C129.02 875.3 125.04 886.74 120.35 895.14C119.11 897.36 112.17 911.8 111.19 925.09C110.89 929.14 111.15 931.49 112.54 933.42C121.21 945.47 159.12 923.92 194 915.93C198.07 915 206.62 913.22 212.68 906.07C224.12 892.58 217.63 867.57 220.88 866.75C224.03 865.96 229.87 889.65 245.88 895.92C249.55 897.36 254.2 897.97 260.61 897.26C279 895.21 291.37 883.36 303.96 878.93C311.48 876.29 321.51 873.81 326.87 864.48C327.72 863 328.4 861.42 328.98 859.55C331.07 852.89 332.6 840.76 328.28 826.43C326.04 819.01 323.33 813.98 325.05 812.59C327.46 810.64 336.29 819.55 345.88 820.92C357.57 822.6 367.87 816.24 377.62 808.81C393.48 796.71 409.49 782.41 415.33 774.62C418.72 770.1 431.41 745.76 446.34 732.69C452.06 727.69 457.84 723.77 463.96 720.71C473.02 716.17 482.53 713.46 491.72 712.6C502.32 711.59 513.74 715.16 527.4 711.55C533.2 710.01 537.47 707.92 541.85 705.56C553.21 699.4 567.4 691.71 571.45 688.29C577.16 683.46 582.56 677.86 585.9 679.48C588.84 680.91 588.96 687.99 586.96 700.62C584.43 716.52 579.38 730.64 576.03 734.45C568.89 742.58 547.72 750.37 514 746.79C494.28 744.69 468.82 738.88 445.63 745.73C439.92 747.42 434.94 749.84 433.38 754.26C430.23 763.21 442.67 775.95 460.08 796.82C464.06 801.59 468.04 806.62 466.72 808.42C463.89 812.29 437.45 800.26 429.42 796.47C422.04 792.99 415.71 789.79 408.38 791.76C395.8 795.14 394.54 810.42 382.2 828.19C378.25 833.87 366.05 850.18 351.89 860.61C351.49 860.9 341.55 868.22 343.08 871.88C344.46 875.2 354.19 873.01 356.12 877.17C357.18 879.47 354.84 881.54 355.41 884.22C356.44 889.01 363.9 890.53 371.63 894.44C379.37 898.35 383.83 901.63 383.38 904.25C382.58 908.97 365.51 913.74 350.13 909.94C344.81 908.63 341.39 906.77 337.55 908.42C327.76 912.63 328.55 933.95 328.63 945.53C328.82 971.9 313.95 1018.55 325.05 1025.08C338.89 1033.23 376.09 1006.73 391.71 982.53C396.5 975.13 401.07 965.26 409.33 960.33C410.43 959.68 412.79 958.34 414.27 955.75C417.6 949.92 414.31 942.42 411.1 933.55C408.91 927.52 407.09 921.67 408.38 920.92C410.56 919.65 419 934.64 431.18 934.96C433.46 935.02 436.05 934.56 439.29 933.2C456.07 926.13 478.25 899.52 488.28 888.09C491.09 884.88 498.12 873.82 503.43 865.19C505.46 861.9 508.42 856.9 508.39 850.09C508.32 836.43 495.77 825.19 495.89 825.09C496.03 824.96 511.86 845.7 522.81 842.64C527.8 841.24 530.24 835.45 531.63 831.71C538.15 814.03 549.06 772.79 551.36 765.46C552.76 761.02 555.09 755.01 560.88 750.31C565.66 746.43 574.98 744.12 575.33 743.97C590.58 737.26 597.73 717.05 600.35 706.26C601.58 701.18 602.32 690.38 602.81 680.89C603.21 673.27 603.6 663.09 610.57 653.75C614.95 647.88 619.99 645.73 625.06 641.77Z" />
	<path id="dark blue leafset 1" class="shp0" d="M566.56 1650.05C553.84 1646.95 541.18 1646.78 529.05 1650.05C519.66 1652.58 513.45 1657.76 504.07 1662.44C493.1 1667.91 485.69 1670.45 478.87 1678.06C471.05 1686.79 467.97 1697.7 466.79 1702.2C463.18 1716.02 456.92 1722.94 454.37 1736.99C451.96 1750.25 451.83 1764.2 441.23 1776.04C434.6 1783.45 428.38 1786.54 422.77 1785.63C414.4 1784.27 408.66 1774.36 407.86 1766.1C406.63 1753.53 416.68 1743.75 424.9 1735.22C438.15 1721.45 446.72 1708.43 460.05 1694.75C464.91 1689.76 471.03 1683.71 470.72 1683.38C470.17 1682.78 448.93 1700.79 442.65 1706.11C431.76 1715.33 424.12 1721.67 412.12 1727.76C399.44 1734.19 384.74 1736.51 367.74 1740.9C350.04 1745.46 336.34 1749.26 321.22 1743.03C313.85 1739.99 307.52 1735.2 308.21 1733.38C309.21 1730.72 329.06 1736.56 347.14 1735.57C355.61 1735.11 364.47 1733.61 373.77 1730.96C384.12 1728 395.6 1723.05 408.21 1715.34C417.94 1709.38 422.69 1702.92 432.35 1696.88C433.84 1695.95 437.87 1693.43 437.38 1691.71C436.75 1689.47 423.12 1690 419.22 1689.42C412.68 1688.45 403.05 1685.12 392.94 1678.77C385.56 1674.13 370.01 1662.73 372.35 1656.76C374.38 1651.59 389.83 1650.47 401.82 1656.05C410.05 1659.88 413.02 1665.58 420.28 1670.25C428.27 1675.39 435.28 1677.44 440.88 1678.06C448.49 1678.9 455.4 1677.8 461.11 1675.22C466.41 1672.83 470.18 1669.14 472.83 1666.7C476.29 1663.51 487.03 1657.91 496.97 1653.21C516.06 1644.19 535.39 1640.02 542.06 1640.79C551.85 1641.91 561.72 1647.07 562.39 1645.88C563.26 1644.33 550.79 1634.65 534.61 1625.52C524.23 1619.67 510.58 1613.64 496.26 1608.13C486.59 1604.4 479.26 1601.9 470.34 1596.77C460 1590.8 453.42 1584.67 444.07 1577.24C435.06 1570.08 426.7 1565.98 417.44 1559.14C403.6 1548.9 393.7 1540.55 378.39 1532.51C369.82 1528.01 359.15 1523.44 345.01 1522.57C338.21 1522.15 331.32 1522.66 324.78 1523.99C319.71 1525.02 315.2 1526.36 311.64 1527.89C305.32 1530.61 301.6 1534.09 294.95 1536.41C286.35 1539.43 273.32 1540.91 269.74 1535.35C266.04 1529.59 273.27 1517.45 281.81 1510.85C287.38 1506.56 299.92 1502.3 318.03 1504.11C331.04 1505.41 343.72 1508.96 354.95 1514.05C357.98 1515.42 361.98 1517.35 362.38 1516.72C363.14 1515.52 347.05 1504.99 335.43 1492.04C329.17 1485.07 320.06 1471.25 312.7 1456.54C300.16 1431.45 294.05 1407.53 292.82 1391.93C291.26 1372.21 293.76 1354.27 295.71 1354.23C297.68 1354.19 302.25 1391.02 304.54 1403.29C305.69 1409.49 310.21 1425.71 313.41 1437.72C314.51 1441.84 323.13 1465.69 336.49 1482.1C342.2 1489.1 350.29 1497.74 354.05 1495.89C358.38 1493.76 353.63 1479.35 352.82 1458.31C351.63 1427.12 357.08 1408.43 369.16 1401.87C373.57 1399.47 381.52 1397.31 386.91 1401.16C391.37 1404.35 392.6 1410.86 392.23 1417.49C391.66 1428.07 385.94 1434.11 380.52 1443.05C375.58 1451.18 371.72 1460.68 369.51 1471.09C367.6 1480.08 367.5 1487.28 368.45 1493.46C369.68 1501.47 372.88 1509.92 378.74 1518.31C388.55 1532.33 404.18 1540.48 408.92 1542.81C423.02 1549.73 445.15 1563.38 462.53 1581.15C465.33 1584.01 475.49 1593.61 484.55 1599.61C488.28 1602.08 505.22 1610.24 522.54 1612.03C527.37 1612.53 531.34 1612.43 533.9 1609.9C538.74 1605.12 535.27 1593.43 527.15 1573.34C523.41 1564.08 518.94 1553.54 515.79 1547.42C511.36 1538.81 506.63 1531.94 502.3 1523.28C498.36 1515.4 493.67 1505.61 491.65 1500.56C490.9 1498.69 486.66 1489.85 482.06 1483.87C477.26 1477.63 472.13 1473.31 468.21 1471.09C459.11 1465.93 449.13 1465.79 445.14 1465.77C434.67 1465.73 428.26 1462.72 417.8 1462.93C409.87 1463.09 400.58 1464.04 397.56 1459.02C395.28 1455.24 397.3 1449.2 400.4 1445.53C410.28 1433.85 435.16 1441.21 441.59 1443.4C453.79 1447.58 465.22 1456.03 474.96 1467.54C478.31 1471.51 481.31 1475.83 483.84 1480.32C485.8 1483.8 487.51 1487.49 487.39 1487.56C487.13 1487.69 481.03 1471.99 469.99 1456.89C467.66 1453.71 462.28 1445.88 458.98 1438.43C456.69 1433.25 455.09 1428.1 454.01 1423.88C449.49 1406.17 445.21 1388.52 444.07 1375.24C442.22 1353.78 443.89 1333.47 445.72 1333.4C447.92 1333.3 451.59 1362.66 452.95 1376.31C453.53 1382.17 455.53 1391.82 456.85 1400.09C457.41 1403.57 460.64 1414.58 464.31 1423.17C465.71 1426.45 469.16 1433.84 470.72 1433.39C472.68 1432.84 469.08 1418.99 473.19 1405.77C474.49 1401.58 476.62 1396.99 479.93 1391.93C485.98 1382.68 492.69 1377.17 498.04 1374.18C507.99 1368.62 515.75 1368.15 521.12 1369.21C524.05 1369.79 533.17 1372.08 534.25 1377.73C534.73 1380.19 533.62 1383.47 529.28 1387.67C523.14 1393.61 516.29 1394.59 509.75 1396.54C497.44 1400.23 489.23 1406.57 485.97 1410.74C483.07 1414.45 479.09 1423.13 478.16 1434.53C477.05 1448.02 479.85 1460.07 484.55 1471.8C488.13 1480.74 493.05 1488.93 498.75 1498.43C504.86 1508.63 510.73 1518.68 514.73 1527.54C518.1 1535.02 520.18 1541.94 523.25 1549.55C526.7 1558.12 531.28 1568.32 535.32 1577.95C539.67 1588.34 543.08 1597 543.13 1603.87C543.16 1608.62 542.54 1613.92 544.9 1620.2C546.58 1624.65 549.39 1628.94 553.07 1632.27C556.98 1635.8 566.74 1640.76 570.11 1645.76C570.82 1646.8 571.34 1647.98 571.18 1649.31C570.92 1651.44 568.96 1653.15 566.56 1654.21" />
	<path id="Green Leafset 8" class="shp1" d="M570.89 308.45C567.05 311.18 550.84 320.65 532.21 321.25C505.28 322.12 474.53 311.16 470.64 309.41C444.81 297.81 412.51 282.15 399.12 274.37C360.05 251.65 335.57 240.69 337.55 233.45C339.39 226.69 359.75 225.85 394.38 227.48C422.03 228.79 445.1 232.43 445.88 229.29C446.51 226.76 428.29 220.6 415.7 210.91C407.73 204.78 397.63 194.01 388.7 179.66C376.42 159.91 361.18 124.74 370.88 116.79C381.08 108.44 416.14 132.34 437.49 154.56C451 168.62 461.95 185.24 469.69 203.33C476.61 219.51 478.79 232.78 479.17 232.69C479.72 232.57 478.11 206.36 464.48 177.76C459.57 167.44 454.47 159.68 450.75 148.87C445.53 133.7 445.46 123.14 443.64 107.2C442.13 93.94 434.02 64.15 437.55 62.63C441.61 60.88 458.25 88.72 473.01 104.36C475.99 107.52 485.5 116.63 491.48 123.78C495.98 129.15 499.45 133.84 500.05 133.46C501.34 132.63 485.39 104.56 475.85 79.74C472.31 70.53 469.26 60.86 467.8 48.48C466.15 34.57 469.1 12.03 469.22 8.7C469.4 3.6 469.42 0.67 470.89 0.13C475.35 -1.52 489.51 31.4 504.27 50.85C519.75 71.26 531.9 80.13 539.32 103.41C543.54 116.68 545.36 133.51 545.89 133.46C546.75 133.37 536.77 92.1 556.84 57.95C561.37 50.24 580.16 33 600.42 18.65C612.72 9.93 620.07 5.89 625.06 8.46C632.69 12.41 631.55 29.88 626.94 60.79C622.48 90.72 616.19 119.64 608.94 137.98C603.55 151.63 597.41 164.7 591.89 173.5C582.13 189.07 573.71 197.38 569.16 215.17C567.4 222.03 566.94 238.58 567.74 254C568.06 260.3 568.46 267.9 569.16 271.05C572.47 285.95 580.13 294.89 575.79 303.25C574.8 305.15 573.37 306.69 570.89 308.45Z" />
	<path id="Green Leafset 9" class="shp1" d="M512.55 625.1C480.68 609.26 474.23 560.65 455.07 522.17C438.04 487.98 411.32 470.61 375.03 439.06C327.69 397.91 244.58 294.92 229.21 304.28C220.95 309.31 234.57 346.55 248.81 408.28C256.32 440.82 264.16 475.84 292.94 512.94C315.77 542.37 341.75 562.57 367.85 574.5C391.21 585.18 442.84 588.01 475.59 617.6C489.59 630.25 507.4 652.43 501.25 664.8C492.61 682.15 437.99 677.96 394.53 661.72C368.49 651.99 351.13 637.58 322.7 628.89C304.08 623.19 285.35 620.08 267.29 619.65C224.53 618.65 184.61 635.62 169.8 642.23C95.01 675.58 -1.04 677.61 0.04 687.6C0.44 691.34 12.23 692.24 26.14 694.56C77.17 703.07 105.86 730.42 147.23 743.81C174.49 752.63 243 758.27 310.38 754.07C342.4 752.07 371.25 745.39 382.21 738.68C400.31 727.6 411.24 712.91 420.88 716.76C428.08 719.63 431.09 731.46 430.44 740.73C428.69 765.71 399.22 781.24 379.14 794.09C354.09 810.1 334.67 835.25 307.3 858.73C278.74 883.24 245.79 911.24 238.55 956.21C235.02 978.12 236.9 993.73 245.88 1000.08C268.71 1016.25 330.07 967.68 361.69 939.79C381.95 921.92 399.41 902.15 419.15 879.25C461.73 829.87 491.59 794.64 503.3 752.02C510.31 726.48 514.12 700.67 513.56 686.35C513.1 674.55 510.51 639.13 521.77 635.04C523.07 634.57 524.81 634.41 525.05 633.43C525.64 631.02 516.29 626.96 512.55 625.1Z" />
	<path id="Green Leafset 10" class="shp1" d="M591.56 1629.22C596.99 1641 592.18 1653.76 586.6 1667.58C580.86 1681.8 574.64 1698.55 570.01 1706.89C558.94 1726.85 547.05 1741.98 535.61 1752.96C522.91 1765.15 510.2 1773.41 498.74 1779.99C460.91 1801.71 438.07 1813.27 433.01 1808.24C426.09 1801.39 456.46 1758.52 466.55 1733.38C471.73 1720.47 478.52 1702.54 494.57 1686.22C502.31 1678.35 520.07 1666.61 538.58 1656.6C552.65 1649 561.67 1644.98 561 1642.64C560.07 1639.42 541.56 1642.58 519.11 1645.18C511.59 1646.05 488.7 1647.68 473 1648.99C446.31 1651.22 416.04 1653.73 398.11 1653.22C368.28 1652.38 340.08 1648.02 307.56 1640.11C275.61 1632.32 168.24 1604.37 170.71 1583.38C171.57 1576.09 201.7 1570.91 249.6 1560.57C265.4 1557.16 280.15 1554.62 297.41 1552.96C320.21 1550.76 347.81 1550.98 377.38 1553.38C398.69 1555.11 421.88 1558.04 434.07 1561.42C483.61 1575.13 520.04 1605.16 520.72 1604.22C521.33 1603.37 488.37 1582.87 464.96 1547.88C457.6 1536.88 450.11 1519.61 442.11 1503.46C435.15 1489.43 430.88 1481.37 433.22 1479.22C438.25 1474.6 466.25 1496.35 484.42 1513.61C503.62 1531.86 516.43 1549.04 525.46 1565.65C536.63 1586.19 540.28 1604.53 541.55 1604.22C543.44 1603.75 542.75 1568.51 521.65 1538.57C514.22 1528.03 505.78 1521.36 498.38 1509.81C490.59 1497.65 486.66 1487.02 483.15 1475.96C472.39 1442.07 466.67 1423.01 470.72 1420.89C475.4 1418.45 489.76 1441.04 518.69 1476.81C527.47 1487.67 542.76 1508.17 552.11 1532.23C559.08 1550.14 562.21 1567.86 562.69 1567.76C563.48 1567.61 558.36 1523.88 550.85 1483.58C548.94 1473.39 545.94 1451.92 547.88 1431.54C550.1 1408.3 559.95 1386.98 569.88 1359.63C575.69 1343.64 578.69 1333.72 583.22 1333.4C595.18 1332.55 610.69 1378.95 615.16 1421.39C616.68 1435.83 616.34 1456.79 614.73 1477.66C610.84 1528.2 602.61 1573.63 593.58 1584.26C589.52 1589.04 579.17 1599.85 581.31 1611.76C582.67 1619.34 589.1 1623.88 591.56 1629.22Z" />
	<path id="Orange Leafset 1" class="shp2" d="M587.56 766.76C591.06 767.99 586.18 788.42 588.48 804.49C589.76 813.48 594.25 827.3 601.9 841.42C607.73 852.16 615.31 861.46 618.69 863.66C631.39 871.94 643.25 867.26 656.04 876.67C659.01 878.85 665.32 886.51 669.89 895.55C676.78 909.16 677.55 919.19 675.35 922.82C672.55 927.44 664.28 930.99 648.91 930.38C636.33 929.87 623.03 925.52 612.4 916.53C600.04 906.08 594.61 892.76 590.99 878.34C583.32 847.72 587.96 819.92 584.7 819.18C579.35 817.97 550.35 875.59 573.37 909.4C576.43 913.9 581.14 918.7 587.22 923.66C594.92 929.95 602.24 933.59 609.46 937.09C628.79 946.45 639.78 954.38 641.77 962.69C643.69 970.66 640.57 978.98 635.9 984.09C625.61 995.33 607.64 991.45 602.32 989.96C585.1 985.12 573.94 969.08 567.91 954.71C554.09 921.74 567.26 887.12 565.81 886.74C564.75 886.46 560.43 908.64 554.22 925.08C552.44 929.8 548.22 940.8 550.7 953.45C552.36 961.89 556.63 968.47 559.1 971.92C565.35 980.66 571.46 988.56 577.98 996.67C586.95 1007.84 592.77 1016.98 594.35 1028.98C595.79 1039.93 592.9 1046.75 590.15 1049.55C587.04 1052.71 582.08 1054.77 574.21 1054.58C564.67 1054.36 555.97 1049.16 549.45 1042.41C541.04 1033.71 536.87 1022.16 535.6 1006.75C533.35 979.42 544.26 954.22 541.05 952.62C537.92 951.05 524.39 969.78 515.03 991.64C508.87 1006.04 506.93 1016.97 507.9 1026.47C508.67 1034.07 514.68 1050.93 528.46 1066.75C538.56 1078.35 547.63 1084.24 550.7 1097.8C552.18 1104.32 553.17 1115.55 546.51 1122.14C539.35 1129.22 527.07 1127.17 522.17 1125.91C505.02 1121.52 496.06 1104.95 492.79 1096.96C484.04 1075.56 490.94 1054.89 496.57 1037.8C504.62 1013.32 510.32 996.9 508.39 995.91C505.44 994.42 486.74 1029.76 480.2 1042.83C477.71 1047.81 474.2 1055.89 473.06 1065.49C471.51 1078.62 474.79 1091.7 482.3 1110.39C488.75 1126.44 493.7 1136.41 489.85 1147.73C486.83 1156.61 478.46 1166.21 469.29 1165.78C463.27 1165.5 457.04 1160.87 450.82 1148.99C443.4 1134.82 443.03 1118.47 449.56 1091.51C452.6 1078.95 456.11 1066.96 460.05 1055.84C463.22 1046.89 465.43 1041.88 464.25 1041.15C461.84 1039.67 438.1 1073.67 428.16 1085.63C421.42 1093.75 414.47 1101.82 410.11 1115.42C406.36 1127.14 405.51 1147.41 408.43 1170.81C409.74 1181.23 411.57 1193.15 405.08 1198.09C400.07 1201.89 391.58 1200.42 386.19 1196.83C376.97 1190.69 374.77 1176.68 376.54 1160.32C377.79 1148.73 381.96 1138 391.23 1123.82C398.26 1113.06 409.74 1102.03 408.38 1100.08C405.57 1096.02 368.96 1107.69 354.21 1137.57C345.49 1155.25 346.89 1175.22 350.1 1188.44C353.42 1202.12 359.35 1211.21 354.72 1217.81C350.27 1224.13 338.37 1224.95 330.37 1221.17C314.85 1213.82 311.99 1188.01 316.11 1170.81C318.24 1161.88 323.06 1150.84 331.63 1143.12C335.15 1139.95 337.91 1138.59 337.55 1137.57C336.51 1134.67 313.09 1136.43 296.38 1150.67C290.9 1155.34 281.2 1168.58 276.24 1187.18C271.76 1203.95 272.59 1217.29 262.81 1223.26C260.94 1224.4 256.34 1226.7 252.73 1224.94C247.63 1222.45 246.54 1212.79 248.54 1196.83C250.76 1179.04 256.81 1167.25 263.23 1159.06C269.86 1150.61 276.87 1144.88 281.69 1142.7C282.66 1142.26 283.43 1141.96 283.38 1141.74C283.15 1140.63 262.83 1140.39 246.86 1151.93C241.22 1156 229.92 1170.97 222.94 1190.95C218.13 1204.73 215.57 1217.36 204.05 1224.94C199.71 1227.8 192.4 1231.19 186.01 1228.72C176.79 1225.16 173.91 1211.46 174.67 1202.28C175.83 1188.42 185.63 1178.5 194.82 1171.23C224.25 1147.97 267.03 1134.81 266.71 1133.41C266.49 1132.42 244.34 1131.91 206.57 1138.92C196.97 1140.71 176.31 1144.81 158.73 1133.47C145.04 1124.64 133.91 1106.92 139 1097.38C144.23 1087.59 165.95 1087.63 181.81 1092.35C204.7 1099.14 216.73 1116.65 236.37 1124.66C238.92 1125.69 248.05 1127.66 254.83 1129.27C259.01 1130.26 265.3 1131.6 266.71 1129.24C268.29 1126.6 262.93 1120.66 260.97 1118.67C254.66 1112.27 247.85 1110.27 241.95 1107.47C236.61 1104.93 230.76 1098.96 223.97 1093.66C212.76 1084.9 204.23 1078.51 197.65 1067.08C193.96 1060.66 192.21 1054.8 193.22 1048.58C194.22 1042.45 198.3 1034.1 206.51 1031.12C210.26 1029.76 216.71 1029.41 225.27 1033.73C236.08 1039.17 247.72 1052.56 256.02 1078.54C257.39 1082.83 260.11 1090.91 265.4 1097.83C269.32 1102.94 274.76 1107.99 282.86 1112.68C293.85 1119.04 306.31 1120.6 323.78 1122.84C338.87 1124.77 349.31 1125.95 358.69 1119.45C362.82 1116.6 367.94 1111.49 366.72 1108.41C365.06 1104.23 352.12 1104.61 330.29 1107.21C321.16 1108.29 311.52 1109.73 300.58 1105.12C292.71 1101.81 286 1096.08 278.95 1086.1C270.12 1073.59 253.17 1043.83 263.32 1033.47C269.27 1027.38 283.51 1029.05 292.51 1035.55C298.26 1039.7 300.55 1044.82 302.93 1049.62C308.52 1060.93 315.47 1071.08 320.13 1075.68C326.88 1082.34 335.08 1087.32 343.84 1090.01C348.71 1091.5 358.7 1092.61 369.12 1091.83C388 1090.42 401.81 1085.19 410.81 1079.59C418.85 1074.58 425.9 1068.16 425.05 1066.74C424.25 1065.41 411.61 1070.95 404.3 1072.81C395.7 1074.99 386.18 1076.22 375.37 1075.94C363.91 1075.64 354.45 1072.78 350.36 1070.21C337.52 1062.14 327.71 1044.55 333.42 1035.55C336.46 1030.75 343.49 1029.49 348.01 1029.3C353.24 1029.08 361.13 1031.44 370.42 1037.9C375.56 1041.47 378.9 1045.03 384.23 1048.32C389.28 1051.43 395.07 1053.93 401.43 1055.61C415.81 1059.42 426.86 1058.25 435.31 1055.09C438.86 1053.76 443.6 1051.14 448.34 1047.8C451.04 1045.89 456.07 1041 460.32 1036.59C461.94 1034.92 462.83 1033.95 462.55 1033.41C461.67 1031.74 445.15 1038.19 434.78 1040.24C426.34 1041.91 416.04 1042.95 403.78 1041.02C397.84 1040.09 391.35 1038.32 384.75 1033.73C378.09 1029.09 368.31 1019.41 370.88 1012.58C372.45 1008.42 379.15 1005.7 392.31 1005.06C401.2 1004.63 408.17 1006.02 413.42 1007.93C423.22 1011.51 426.88 1016.92 436.61 1020.7C440.72 1022.29 447.23 1023.73 454.33 1024.35C465.98 1025.35 476.43 1022.8 480.13 1020.96C484.68 1018.69 488.72 1015.46 491.85 1011.32C495.35 1006.69 498.83 999.49 496.8 997.51C495.92 996.64 493.36 997.07 489.25 998.81C485.6 1000.36 480.9 1003.2 480.13 1003.76C468.36 1012.34 451.38 1011.63 443.91 1010.54C435.28 1009.27 428.8 1006.36 423.84 1002.72C420.42 1000.21 407.06 989.54 410.03 979.53C411.93 973.11 420.03 969.79 425.92 968.32C436.24 965.77 444.34 968.67 456.41 972.23C467.83 975.6 477.07 977.38 484.82 976.66C488.97 976.27 498.1 973.21 506.19 970.41C510.71 968.84 515.9 966.94 521.04 962.07C525.76 957.59 528.13 952.43 529.64 949.04C533.52 940.29 537.84 934.07 541.1 925.07C543.8 917.62 544.87 911.04 547.1 903.44C548.92 897.23 550.67 892.01 550.05 891.75C548.99 891.31 542.39 908.33 529.12 922.72C523.59 928.73 517.47 933.96 510.88 938.36C499.03 946.26 486.8 950.92 474.65 952.69C455.33 955.51 445 952.93 441.56 947.22C438.02 941.34 440.42 932.46 444.69 926.89C450.8 918.91 460.66 917.73 468.92 916.73C476.08 915.87 483.97 914.83 490.03 913.87C506.42 911.26 519.46 905.83 527.29 900.84C533.17 897.09 536.01 893.11 541.89 889.37C544.58 887.66 549.87 884.36 553.35 878.43C554.72 876.1 555.46 873.61 556.48 870.61C557.71 866.98 559.1 863.8 560.13 860.19C561.13 856.69 561.57 853.59 562.56 850.09C564.1 844.6 567.31 837.93 566.72 837.59C565.94 837.13 558.2 848.69 554.19 853.61C546.69 862.8 535.1 871.21 522.78 881.07C519.79 883.46 512.59 889.23 502.86 889.14C498.26 889.1 492.72 888.05 490.3 884.3C486.21 877.94 492.34 866.51 499.09 859.89C507.25 851.9 515.95 852.13 528.17 847.15C537.19 843.47 545.49 838.36 552.57 832.08C558.59 826.74 563.12 821.23 566.57 815.57C570.25 809.52 572.85 803.27 573.75 799.42C574.3 797.06 574.51 783.59 579.22 775.09C581.56 770.88 585.44 766.02 587.56 766.76Z" />
	<path id="orange flower4" class="shp2" d="M299.88 1758.38C297.72 1762.12 303.54 1769.18 305.79 1771.9C310.68 1777.83 313.49 1783.14 318.79 1788.68C328.39 1798.71 334.37 1805.95 337.25 1815.11C339.43 1822.03 341.18 1831.78 336.41 1835.67C334.41 1837.3 329.74 1837.94 322.57 1835.67C315.26 1833.35 310.21 1829.14 307.47 1826.44C300.86 1819.92 286.07 1802.48 283.21 1779.21C281.68 1766.76 284.4 1754.45 283.21 1754.21C282.16 1754 279.14 1761.66 277.68 1770.64C276.93 1775.25 276.65 1780.14 276.84 1785.33C277.04 1790.89 277.83 1794.42 276.42 1799.17C274.6 1805.31 269.31 1814.12 261.74 1814.27C256.28 1814.38 252.21 1810.21 250.41 1807.56C246.68 1802.04 245.98 1793.36 252.09 1779.03C255.59 1770.83 260.8 1761.49 266.77 1752.19C268.36 1749.72 270.66 1746.01 269.29 1743.38C266.93 1738.85 254.64 1739.37 245.38 1742.12C241.58 1743.25 239.26 1744.39 235.31 1744.63C230.61 1744.92 224.88 1743.9 218.11 1740.02C204.22 1732.05 194.13 1714.58 198.39 1708.98C202 1704.23 215.8 1708.16 223.56 1711.49C230.41 1714.44 238.91 1721.67 249.99 1724.5C258.81 1726.75 264.51 1725.35 267.19 1723.24C270.55 1720.6 272.49 1716.1 272.23 1711.91C271.84 1705.76 266.81 1701.83 263.42 1698.49C258.64 1693.81 254.11 1686.91 250.41 1676.68C248.31 1670.85 240.67 1646.83 252.93 1637.66C260.36 1632.1 273.87 1632.93 279.36 1639.76C285.25 1647.08 278.83 1659.38 276.84 1678.77C275.99 1687.11 274.88 1704.54 279.78 1706.04C281.91 1706.69 284.87 1704.23 288.59 1699.33C299.71 1684.65 295.3 1670.29 305.79 1658.22C315.72 1646.79 330.24 1646.41 335.99 1646.89C343.47 1647.51 347.24 1649.78 348.58 1652.34C351.53 1657.98 345.86 1666.51 341.87 1670.8C334.11 1679.15 324.76 1679.65 312.5 1685.48C298.62 1692.09 292.71 1698.22 292.78 1703.52C292.83 1706.83 294.88 1710.71 298.24 1712.33C306.05 1716.11 322.94 1701.9 332.22 1698.91C346.77 1694.23 367.73 1693.45 373.75 1703.52C377.47 1709.74 375.07 1719.41 369.98 1725.34C366.91 1728.9 358.57 1733.13 345.22 1733.31C335.2 1733.45 326.02 1731.75 316.7 1729.53C306.9 1727.2 300.83 1725.46 298.66 1728.27C296.18 1731.49 299.65 1739.57 304.95 1744.63C313.61 1752.91 324.71 1750.62 341.87 1753.44C360.21 1756.46 370.94 1764.08 374.17 1769.39C377.63 1775.06 380.11 1784.37 375.85 1790.36C370.44 1797.98 357.19 1796.65 351.52 1795.39C326.42 1789.85 314 1753.68 302.85 1756.38C302.06 1756.57 300.61 1757.11 299.88 1758.38Z" />
	<path id="orange flower5" class="shp2" d="M291.55 1345.9C289.97 1345.15 284.57 1350.88 282.04 1358.47C280.24 1363.88 280.6 1370.61 280.74 1371.72C282.27 1383.66 278.76 1394.77 282.04 1409.13C283.76 1416.64 286.9 1426.37 281.78 1433.03C277.61 1438.45 269.27 1439.52 262.82 1439.26C256.33 1439 242.88 1436.33 237.87 1425.23C236.36 1421.87 236.22 1413.59 239.43 1403.41C241.86 1395.69 244.87 1389.32 248.01 1383.93C252.37 1376.42 256.91 1369.89 261.26 1364.96C264.42 1361.38 275.8 1351.64 274.88 1350.06C273.84 1348.29 264.35 1351.98 261.26 1353.27C252.75 1356.82 245.55 1362.28 239.17 1365.48C225.93 1372.12 214.97 1372.84 207.99 1371.72C201.91 1370.73 190.69 1367.58 190.33 1362.62C189.78 1355.22 213.5 1344.55 235.54 1342.88C237.61 1342.72 253.27 1341.54 253.72 1341.58C256.05 1341.82 261.25 1342.52 265.67 1339.5C268.26 1337.74 271.16 1334.26 271.13 1330.41C271.06 1320.78 252.43 1313.53 245.41 1311.19C235.91 1308.02 228.08 1307.33 219.69 1300.53C212.8 1294.95 210.25 1290.35 211.11 1286.51C212.11 1282.09 217.48 1279.74 219.69 1278.97C223.43 1277.67 228.65 1277.54 236.05 1280.53C245.27 1284.25 251.77 1289.47 256.06 1295.34C259.1 1299.49 262.74 1307.85 268.53 1314.04C272.26 1318.03 274.82 1319.59 276.85 1318.98C280.15 1317.99 281.13 1311.5 281.52 1304.43C282.62 1284.67 278.73 1270.54 285.42 1258.45C287.01 1255.58 293.33 1248.99 301.27 1243.9C317.03 1233.78 326.9 1232.29 332.97 1236.11C336.57 1238.38 339.77 1243.02 339.46 1247.8C339 1255 330.76 1258.74 320.24 1266.24C312.09 1272.04 306.27 1277.52 301.53 1283.65C293.91 1293.5 287.19 1305.67 291.66 1313C293.34 1315.77 297.09 1318.65 300.49 1317.94C307.82 1316.41 308 1296.55 317.12 1284.95C322.9 1277.59 332.41 1270.23 344.4 1268.58C351.1 1267.66 362.54 1267.85 370.64 1275.33C376.19 1280.46 381.58 1289.95 378.43 1295.6C375.4 1301.05 364.74 1299.5 349.08 1301.83C340.97 1303.04 333.9 1304.86 326.47 1308.85C317.11 1313.88 307.85 1321.95 309.32 1325.21C310.31 1327.4 316.99 1326.65 328.29 1325.47C337.31 1324.53 343.69 1323.97 351.41 1325.73C363.48 1328.48 379.66 1337.08 379.47 1348.08C379.36 1354.37 373.9 1360.3 368.04 1362.88C356.49 1367.98 341.75 1360.28 333.49 1354.57C326.35 1349.64 320.93 1343.75 312.44 1343.92C308.73 1343.99 303.77 1345.19 303.09 1347.82C302.15 1351.41 309.49 1356.75 319.98 1362.62C332.71 1369.76 341.84 1372.06 344.4 1380.03C346.2 1385.65 344.11 1392.06 340.5 1395.62C332.18 1403.81 314.66 1398.08 304.91 1390.68C298.61 1385.91 292.61 1378.22 290.62 1368.6C288.34 1357.64 293.43 1346.79 291.55 1345.9Z" />
	<path id="orange flower6" class="shp2" d="M416.55 1300.07C412.56 1306.79 395.85 1317.24 388.95 1325.03C376.22 1339.43 378.3 1359.35 379.34 1365.42C380.69 1373.29 383.8 1377.29 386.31 1378.4C389.92 1379.99 393.81 1378.69 395.92 1377.44C401.01 1374.42 402.65 1367.95 403.86 1355.8C404.4 1350.39 404.37 1345.73 405.54 1340.9C407.18 1334.12 412.42 1319.59 425.01 1315.42C427.03 1314.75 433.85 1312.9 435.83 1315.66C438.51 1319.41 425.56 1335.59 422.13 1343.3C417.68 1353.31 414.37 1366.63 417.32 1382C419.21 1391.85 422.83 1396.63 425.97 1397.63C430.91 1399.19 436.64 1395.33 439.68 1391.86C446.25 1384.35 444.83 1373.6 444.25 1368.54C443.17 1359.19 444.03 1351.91 442.8 1342.58C440.73 1326.83 438.89 1317.5 442.32 1315.66C445.67 1313.87 452.57 1318.95 456.75 1324.55C462.06 1331.69 462.58 1339.27 463.48 1347.63C464.76 1359.65 466.69 1366.99 471.17 1370.71C476.59 1375.21 485.75 1376.69 491.84 1372.63C499.3 1367.66 498.84 1355.75 497.85 1349.31C496.03 1337.41 488.08 1326.77 478.38 1320.95C475.88 1319.45 467.93 1315.13 461.55 1312.53C459.96 1311.89 455.89 1310.24 456.02 1308.45C456.14 1306.93 459.23 1305.9 461.79 1305.32C469.52 1303.59 476.88 1306.04 482.71 1309.17C490.94 1313.58 496.52 1321.75 506.51 1324.55C510.17 1325.58 520.88 1327.82 526.7 1321.67C532.2 1315.85 530.09 1306.74 528.63 1302.92C525.49 1294.71 517.16 1289.45 506.99 1286.57C499.74 1284.52 491.33 1284.33 481.99 1286.81C472.38 1289.36 460.95 1298.29 458.19 1295.95C456.15 1294.23 457.42 1287.85 461.07 1283.69C466.87 1277.08 477.35 1277.7 492.81 1277.44C505.07 1277.23 511.82 1276.33 515.16 1271.67C519.39 1265.77 517.59 1255.24 511.8 1249.55C509.24 1247.05 499.67 1244.11 486.07 1246.19C473.46 1248.12 463.83 1253.25 461.31 1256.04C454.84 1263.23 455.81 1272.15 447.13 1280.56C443.93 1283.66 441.59 1284.66 440.16 1284.17C436.19 1282.8 435.55 1271.73 437.27 1262.53C439.48 1250.75 445.62 1243.61 448.81 1232.25C451.14 1223.96 450.79 1218.53 448.81 1215.18C443.95 1206.94 429.71 1203.79 423.09 1209.17C417.98 1213.32 418.44 1221.65 419.24 1228.64C421.33 1246.85 424.88 1266.65 428.14 1274.79C430.41 1280.47 433.57 1287.55 431.26 1289.46C429.34 1291.05 424.45 1288.35 421.41 1286.33C405.13 1275.55 404.68 1255.72 389.91 1244.03C386.94 1241.67 383.1 1239.39 377.89 1238.26C373.32 1237.26 365.48 1236.52 361.07 1240.66C352.84 1248.38 358.39 1269.91 370.68 1278.88C374.19 1281.44 380.34 1282.52 387.27 1284.41C395.22 1286.58 399.87 1289.97 407.94 1291.62C410.28 1292.1 416.51 1293.27 417.32 1296.67C417.59 1297.81 417.2 1298.96 416.55 1300.07Z" />
	<path id="Grey Stemset 3" class="shp3" d="M589.2 748.74C591.85 762.77 589.05 779.78 588.4 782.53C582.28 808.33 584.24 831.95 578.01 860.57C570.71 894.13 560.96 924.31 550.56 945.97C540.31 967.29 513.5 1004.26 484.47 1037.46C457.29 1068.55 428.38 1096.33 407.2 1110.66C370.53 1135.47 339.34 1145.99 312.64 1149.29C270.88 1154.45 237.3 1143.94 237.54 1141.74C237.8 1139.47 276.4 1146.79 319.76 1132.01C336.95 1126.15 348.75 1119.26 364.49 1109.64C381.95 1098.97 405.09 1085.85 414.31 1079.14C441.98 1059.03 471.4 1029.81 500.05 987.58C519.08 959.53 535.95 926.63 550.56 885.99C567.55 838.69 577.87 791.82 579.22 762.59C579.63 753.77 580.32 733.67 583.39 733.43C585.48 733.26 588 742.43 589.2 748.74Z" />
</svg>