<svg version="1.2" baseProfile="tiny-ps" xmlns="http://www.w3.org/2000/svg" viewBox="0 0 915 518" width="915" height="518">
	<title>orange flower 9</title>
	<style>
		tspan { white-space:pre }
		.shp0 { fill: #367a91 } 
		.shp1 { fill: #67b8a7 } 
		.shp2 { fill: #c2ba3e } 
		.shp3 { fill: #f89462 } 
	</style>
	<path id="dark blue leafset 3" class="shp0" d="M649.23 366.29C624.94 355.62 605.07 337.26 593.41 313.66C583.26 293.13 579.98 268.93 583.98 244.55C587.65 222.21 598.67 198.94 614.14 176.7C618.19 170.87 627.29 157.51 629.84 140.89C630.94 133.73 630.02 120.16 627.33 106.34C624.17 90.09 620.78 80.52 624.19 68.01C626.82 58.36 632.82 48.02 643.04 41.63C649.07 37.86 664.46 30.5 678.85 37.86C684.04 40.51 693.72 52.12 697.69 72.41C700.52 86.86 699.44 100.68 695.18 112.62C689.35 128.97 679.62 137.27 664.4 152.2C653.35 163.03 642.2 175.09 636.75 182.98C626.2 198.29 619.65 213.3 616.02 227.59C613.41 237.91 612.25 269.25 617.91 299.21C620.35 312.17 624.61 328.76 638.64 340.68C643.17 344.53 648.21 347.87 650.58 346.33C654.44 343.81 648.86 329.68 641.78 308.64C636.25 292.2 632.3 278.07 631.1 264.66C629.23 243.8 632.86 227.67 637.38 218.17C643.94 204.37 653.63 195.32 666.28 186.13C685.58 172.1 701.97 167.3 720.94 152.83C742.04 136.72 757.38 116.97 761.15 108.22C765.53 98.05 767.36 88.41 776.85 79.32C789.59 67.13 809.02 63.8 827.11 64.87C857.3 66.66 895.02 85.1 903.76 118.27C905.58 125.18 906.35 133.99 904.39 145.29C900.06 170.21 883.16 187.61 869.83 196.81C849.06 211.15 827.73 212.04 815.8 212.51C795.67 213.31 770.79 215.62 761.15 214.4C747.09 212.62 733.66 209.23 715.91 214.4C701.98 218.46 685.19 227.9 675.08 244.55C667.87 256.42 667.71 265.82 665.65 281.62C661.55 313.16 653.71 331.9 661.73 337.13C666.02 339.93 672.77 337.67 676.96 335.65C686.03 331.29 690.24 323.08 692.67 317.43C698.97 302.74 698.82 277.89 710.89 265.29C720.69 255.05 736.53 252.86 745.44 252.72C759.25 252.51 768.31 258.43 779.37 259.63C786.43 260.4 804.23 257.98 822.09 249.58C833.02 244.44 841.01 235.31 854.76 231.99C875.78 226.91 905.48 233.18 912.55 252.09C917.58 265.54 909.82 281.65 900.62 291.04C887.65 304.29 868.3 307.94 838.42 306.75C789.62 304.81 756.61 292.97 736.64 311.15C733.08 314.39 728.35 319.99 725.34 326.86C724.94 327.75 722.25 342.28 716.54 346.96C710.36 352.03 700.41 349.97 693.92 351.99C684.01 355.07 673.32 363.06 671.94 372.72C670.73 381.1 676.89 387.93 681.99 394.08C684.09 396.61 699.27 426.27 714.66 433.66C722.56 437.45 738.89 438.26 758.63 436.17C779.28 433.99 793.65 429.9 799.47 423.61C809.89 412.34 811.32 394.19 807.57 374.63C805.06 361.51 789.05 337.28 795.07 325.6C800.35 315.36 816.23 313.82 823.97 314.29C847.24 315.7 866.01 338.57 870.46 360.78C875.58 386.34 859.99 409.11 850.36 419.84C839.71 431.69 814.49 447.5 773.71 450.62C765.36 451.26 746.67 449.45 730.99 448.11C711.57 446.45 698.53 444.69 686.39 434.92C680.87 430.48 664.97 415.85 663.14 395.96C662.79 392.19 662.64 385.83 658.74 379.63C656.35 375.82 653.08 372.81 649.23 370.46" />
	<path id="Green Leafset 7" class="shp1" d="M628.4 449.62C617.67 442.03 619.73 405.66 619.13 402.68C618.78 400.95 617.38 389.35 618.62 380.43C619.24 376 620.98 366.58 624.23 366.29C627.46 366.01 632.12 378.67 636.83 384.48C643.53 392.74 655.02 401.77 661.61 398.63C667.9 395.64 667.58 382.83 667.18 378.41C666.18 367.52 661.06 359.62 654.53 348.07C650.81 341.48 648.67 336.86 649.23 332.96C650.85 321.66 665.94 317.69 683.86 309.13C685.65 308.28 688.27 307.01 690.9 307.96C696.6 310.02 697.81 322.73 703.59 329.86C705.3 331.98 706.74 333.32 707.57 332.96C711.26 331.37 695.92 298.15 708.14 286.88C710.13 285.05 712.43 284.24 713.7 283.85C726.61 279.84 753.03 274.97 769.33 267.67C778.31 263.65 783.06 259.81 786.74 262.13C792.49 265.76 785.73 280.39 782.99 304.58C781.33 319.2 775.35 335.52 769.33 346.04C768.46 347.58 767.49 348.86 765.9 349.63C757.96 353.5 744.78 338.45 740.9 341.29C737.02 344.15 748.93 361.33 744.55 375.88C740.3 390.04 726.84 389.55 719.77 404.2C717.78 408.32 716.13 413.45 712.69 413.8C710.74 414.01 708.04 411.86 704.6 407.23C702.68 404.65 699.5 399.5 699.23 399.63C698.59 399.92 711.66 421.02 704.09 433.02C700.26 439.1 692.17 440.6 678.3 443.13C670.41 444.57 665.88 444.94 665.9 445.46C665.94 446.7 692.53 451.97 710.67 438.08C718.16 432.34 724.67 421.48 732.42 408.24C735.54 402.9 740.54 394.66 745.07 395.46C751.35 396.57 753.22 415.02 755.17 414.82C756.91 414.63 754.31 399.77 761.73 391.29C769.55 382.37 786.8 386.03 798.16 381.95C804.83 379.55 809.36 376.72 811.74 378.79C816.64 383.05 806.39 403.23 807.57 403.79C808.61 404.29 815.13 387.68 828.4 382.96C836.79 379.98 844.11 382.71 855.31 386.5C864.92 389.75 878.13 394.12 887.68 397.12C896.75 399.96 902.82 401.11 903.41 403.79C905.34 412.58 871.14 422.95 839.63 435.55C836.19 436.92 825.99 441.05 815.9 437.12C812.62 435.85 804.27 431.67 803.4 424.62C803.19 422.87 803.69 420.53 803.4 420.46C802.77 420.29 800.86 430.5 793.61 438.08C790.4 441.43 786.27 444.24 781.47 446.17C771.91 450.01 758.1 447.07 755.68 447.18C754.11 447.25 750.97 447.44 749.23 445.46C746.09 441.87 750.59 433.74 749.23 432.96C747.53 431.97 739.72 446.21 728.88 453.25C712.9 463.62 692.92 459.11 660.1 455.27C656.39 454.83 652.94 454.24 649.23 453.79C639.98 452.67 632.48 452.52 628.4 449.62Z" />
	<path id="Yellow Leafse t3" class="shp2" d="M507.56 441.29C513.38 440.58 515.91 423.95 519.46 394.38C522.29 370.74 523.67 352.83 522.21 330.37C520.52 304.4 514.68 285.49 507.07 275.32C496.7 261.46 480.53 251.25 460.96 245.73C453.39 243.59 440.57 242.17 427.23 242.29C404.2 242.48 383.78 245.72 365.29 251.23C355.96 254.01 347.26 257.22 339.14 260.87C323.9 267.72 313.94 275.71 298.54 282.2C284.15 288.26 265.86 290.7 256.55 293.21C241.9 297.16 231.4 301.2 218.01 301.47C188.22 302.06 165.31 288.93 165.88 287.13C166.49 285.2 195.83 297.43 232.55 291.3C242 289.72 253.41 286.36 265.5 281.51C281.43 275.13 302.06 263.36 322.62 249.17C333.41 241.72 341.24 235.6 352.91 229.9C369.04 222.01 385.02 217.39 400.39 215.45C424.31 212.43 443 215.13 456.83 219.58C467.29 222.94 479.93 229.13 493.3 238.84C503.4 246.18 522.17 265.86 537.35 287.71C544.85 298.49 550.72 308.63 555.25 321.43C558.06 329.38 559.82 336.58 560.75 343.45C562.56 356.84 561.24 367.02 558.69 381.99C554.87 404.35 551.13 421.42 543.55 430.16C534.85 440.18 519.14 446.05 520.06 449.62C521.33 454.59 547.64 451.05 553.87 450.12C569.75 447.74 578.51 444.05 584.84 437.04C591.22 429.98 593.58 421.38 594.47 412.27C597.95 376.85 588.91 344.15 582.09 323.49C574.03 299.12 567.78 276.86 558 261.56C541.17 235.23 519.99 216.8 497.43 205.81C490.52 202.44 481.17 199.06 471.28 196.18C452.26 190.64 434.03 187.74 416.91 187.23C393.04 186.53 369.63 195.94 340.52 189.3C320.7 184.77 304.51 175.96 292.34 164.52C271.43 144.86 265.11 120.84 265.88 120.47C266.54 120.16 272.65 137.49 289.59 151.44C299.26 159.42 308.89 163.76 319.18 167.27C342.88 175.36 363.33 179.32 381.81 180.35C407.33 181.77 425.21 177.01 450.63 179.66C470.58 181.74 487.19 186.03 500.19 191.36C519.51 199.27 538.12 211.46 554.56 227.83C566.49 239.72 585.12 266.16 597.92 298.72C604.18 314.67 609.48 334.96 613.06 357.9C615.14 371.28 616.87 392.19 612.37 415.02C609.26 430.79 604.43 441.09 596.54 449.43C588.84 457.57 577.47 464.27 561.44 467.32C543.65 470.71 526.05 466.87 511.89 459.07C499.19 452.07 483.77 439.68 479.54 422.59C476.5 410.3 480.08 401.22 482.98 388.87C485.87 376.59 485.35 365.59 487.11 352.4C489.07 337.76 490.63 326.98 485.05 315.23C473.72 291.4 441.07 281.19 415.89 282.96C401.97 283.95 373.18 294.78 346.02 324.18C323.49 348.58 307.48 394.79 269.63 419.15C260.57 424.98 251.33 429.3 242.1 432.23C231.78 435.5 211.17 438.24 189.11 436.36C181.33 435.69 170 434.22 170.05 432.96C170.11 431.09 200.06 430.98 228.38 424.62C249.78 419.82 264.25 413.7 276.51 404.7C285.23 398.3 299.23 383.51 310.24 364.1C318.8 348.99 324.75 319.77 343.96 299.41C350.25 292.73 359.47 285.41 371.49 278.76C390.6 268.19 431.11 251.23 462.33 268.44C472.5 274.04 491.05 294.4 500.88 329C506.97 350.45 507.49 371.72 505.69 379.24C501.34 397.43 490.97 408.54 495.06 424.62C497.21 433.06 503 441.85 507.56 441.29Z" />
	<path id="orange flower 3" class="shp3" d="M424.22 95.47C427.89 96.88 428.79 105.93 426.79 113.34C425.23 119.16 421.37 124 419.44 128.32C416.79 134.22 416.31 138.87 417.07 141.46C418.87 147.55 425.6 153.07 431 151.71C433.48 151.09 436.88 147.5 439.15 139.89C441.57 131.77 441.06 123.74 438.89 114.92C437.34 108.66 434.38 102.08 434.94 101.78C435.9 101.27 446.14 111.57 449.66 126.75C452 136.82 450.36 144.35 455.71 148.3C460.27 151.67 468.24 151.19 472.53 146.98C478.2 141.42 475.13 131.21 473.84 127.8C470.36 118.53 462.78 113.85 453.6 107.3C445.07 101.2 440.3 97.21 440.89 95.47C442.05 92.05 456.92 91.41 470.43 96.52C470.67 96.62 488.33 108.38 495.4 105.98C501.05 104.07 504.49 97 504.6 91C504.77 81.22 495.59 75.03 492.24 73.13C487.83 70.63 479.27 68.4 467.27 71.29C456.81 73.82 445.23 83.14 442.3 80.75C439.98 78.86 442.53 71.8 444.67 67.61C447.11 62.82 454.07 52.05 467.01 48.69C471.23 47.6 482.3 49.15 485.93 44.75C488.52 41.62 488.33 36.64 486.72 33.19C484.21 27.78 478.31 26.22 475.95 25.83C465.93 24.17 454.09 32.56 448.35 42.91C444.62 49.63 445.09 61.82 437.83 67.35C434.64 69.79 429.8 71.5 427.32 69.72C423.7 67.1 425.99 57.59 428.9 49.48C432.86 38.42 439.12 29.05 443.35 22.94C448.65 15.29 452.2 9.86 450.19 5.59C447.79 0.52 438.52 -0.81 431.79 0.86C424.59 2.65 419.58 8.3 416.81 13.21C409.96 25.32 413.2 39.76 415.76 46.85C417.89 52.78 421.05 58.02 418.65 61.83C416.99 64.45 413.06 65.84 409.71 65.25C402.96 64.06 397.75 50.86 393.68 46.59C386.86 39.44 380.52 36.81 375.28 36.08C360.96 34.09 345.92 44.52 346.89 50.01C347.62 54.14 365.58 56.69 374.49 60.52C379.29 62.59 384.07 65.13 389.21 68.67C397.85 74.62 407.66 83.61 406.03 86.54C405.28 87.89 400.42 87.3 392.36 85.75C382.43 83.83 375.19 81.94 368.18 85.49C365.53 86.83 359.22 90.83 358.72 97.84C358.23 104.76 363.77 111.72 369.23 112.29C371.85 112.56 376.35 109.6 382.11 104.93C384.77 102.77 389.04 99.24 394.99 99.15C398.73 99.1 403.14 100.39 403.4 102.31C404.03 106.87 380.26 109.8 378.17 120.96C376.41 130.37 389.45 143.07 395.52 140.94C397.12 140.38 398.96 136.09 400.51 129.37C401.86 123.55 402.21 118.94 404.45 113.87C405.87 110.65 409.89 104.7 415.89 99.64C419.88 96.28 422.97 94.99 424.22 95.47Z" />
	<path id="orange flower7" class="shp3" d="M107.71 312.13C113.12 315.82 109.15 338.91 109.42 342.88C110.25 355.45 114.09 365.46 119.9 373.09C124.87 379.61 135.7 390.31 143.33 387.27C147.04 385.79 150.34 378.77 151.35 365.69C152.14 355.37 149.6 346.92 147.65 343.49C146.03 340.67 141.09 335.25 134.7 330.85C131.8 328.87 127.58 326.12 124.21 321.61C120.9 317.18 119.15 313.32 120.51 311.13C122.34 308.2 129.19 309.03 133.77 310.82C136.7 311.96 139.37 314.01 140.25 314.82C147.11 321.17 151.3 329.88 159.05 336.71C166.39 343.17 173.23 344.68 176.94 344.42C179.76 344.22 186.25 343.06 189.58 337.64C192.88 332.25 190.91 325.25 188.96 320.99C186.41 315.42 177.43 307.45 161.21 302.19C151.08 298.9 140.55 295.95 136.55 296.33C135.82 296.4 133.49 296.66 132.71 295.46C131.43 293.49 134.91 288.24 139.32 285.23C143.53 282.36 148.82 281.9 150.11 281.84C159.11 281.41 167.69 279.05 172.62 277.22C182.49 273.54 188.15 267.55 189.89 264.27C193.86 256.74 194.11 245.75 189.27 242.69C185.12 240.07 177.55 243.47 166.15 252.55C158.16 258.91 153.41 265.12 146.41 272.59C135.51 284.24 127.91 289.32 123.91 287.7C120.64 286.37 119.04 281.88 118.97 278.45C118.88 273.72 121.94 268.46 130.69 262.11C141.17 254.5 154.08 249.96 159.67 248.24C167.85 245.72 174.56 243.67 177.86 237.45C180.54 232.41 180.49 225.55 177.24 220.8C172.64 214.06 162.41 213.41 152.58 214.95C145 216.13 134.29 220.14 126.99 229.74C120.94 237.7 119.11 248.56 114.35 260.88C112.11 266.68 109.74 271.61 106.64 271.67C103.2 271.73 100.16 265.76 98.01 259.64C94.63 250.04 93.94 240.08 96.77 231.28C101.63 216.21 115.62 206.98 123.6 192.44C127.11 186.04 128.75 181.01 126.68 178.26C124.5 175.37 119.18 176.25 110.96 177.65C100.92 179.34 92.77 180.4 87.52 183.81C79.19 189.23 73.63 197.83 71.49 206.31C69.26 215.18 71.63 232.72 85.06 253.79C90.79 262.78 97.59 271.08 94.62 276.6C92.98 279.63 88.94 280.88 85.98 280.92C75.48 281.06 66.1 266.31 59.47 251.01C53.32 236.82 52.23 225.99 41.89 218.34C37.87 215.36 30.37 211.27 23.09 213.4C12.86 216.41 7.87 230.02 8.6 240.22C9.59 254.24 21.35 264.82 31.1 269.51C44.37 275.89 61.31 270.32 72.42 280.61C75.6 283.55 78.97 288.22 77.66 290.78C76.01 293.99 67.84 292.28 54.23 291.09C50.61 290.77 46.12 290.34 44.36 290.47C20.52 292.24 -4.19 321.08 1.2 342.88C3.6 352.6 12.44 362.87 20.62 361.99C24.83 361.54 31.1 353.91 37.58 340.1C42.64 329.32 44.96 322.13 52.38 314.52C58.01 308.73 65.22 304.25 73.65 302.19C79.98 300.63 90.37 299.61 92.15 303.42C93.51 306.31 89.34 310.83 83.82 316.67C78.4 322.42 72.58 328.68 69.03 333.32C60.95 343.84 55.43 357.08 55.46 370.93C55.49 385.33 59.62 392.63 64.09 394.97C70.53 398.35 79.57 395.76 84.75 390.66C90.7 384.79 90.86 376.37 90.92 372.47C91.02 365.31 92.84 345.47 93.69 331.16C94.15 323.42 95.22 314.16 100.78 311.74C102.56 310.97 105.5 310.62 107.71 312.13Z" />
	<path id="orange flower 8" class="shp3" d="M274.22 166.3C275.81 168.82 273.51 174.55 267.03 183.23C261.78 190.26 256.66 194.63 252.91 202.16C248.92 210.16 246.24 219.56 250.66 224.94C254.07 229.07 260.21 229.4 263.82 228.79C272.45 227.32 277.49 218.53 279.54 213.71C281.55 208.96 282.91 199.04 281.47 187.4C280.78 181.9 279.59 175.54 283.39 171.04C285.84 168.14 290.29 166.09 293.02 167.51C296.82 169.49 295.8 177.46 295.9 190.29C295.98 200.07 296.87 205.99 300.4 210.82C305.51 217.84 316.18 223.68 323.18 219.8C330.72 215.62 329.71 202.75 329.27 199.27C328.27 191.38 324.16 183.59 318.04 178.1C313.49 174.02 308.86 172.05 307.78 166.87C307.21 164.15 307.6 160.35 310.02 158.21C311.61 156.8 315.8 155.95 322.21 157.89C328.54 159.8 331.65 162.91 337.94 164.95C343.87 166.87 348.01 166.41 349.49 165.27C353.67 162.01 352.52 153.2 349.49 147.62C345.6 140.46 338.44 137.73 333.76 137.04C330.13 136.49 320.99 138.34 311.3 144.41C303.78 149.13 299.65 153.3 296.87 151.79C294.12 150.31 294.14 144.05 295.58 139.28C297.26 133.75 300.83 130.46 306.17 125.49C310.11 121.81 314.07 117.91 315.8 111.69C317.23 106.52 316.54 103.39 315.16 101.43C311.6 96.39 302.36 96.97 296.55 99.5C287.54 103.43 284.33 112.81 283.39 117.47C282.23 123.24 283.67 128.09 284.03 134.79C284.52 143.76 283.54 148.92 281.47 149.87C278.13 151.39 272.17 146.52 268.63 141.85C264.27 136.09 264.28 131.04 260.93 125.49C258.98 122.26 255.81 118.51 250.98 114.9C244 109.66 237.4 108.35 234.94 108.8C226.04 110.45 218.96 121.54 221.47 128.37C222.71 131.76 225.99 133.4 227.56 134.15C236.57 138.44 250.45 142.29 252.59 142.81C263.43 145.46 269.51 147.93 269.59 150.83C269.67 153.62 264.15 155.91 262.21 156.6C254.46 159.39 247.63 157.25 240.72 155.96C230.32 154.03 222.41 155.17 220.18 156.93C211.91 163.47 212 182.62 220.05 187.14C222.16 188.32 227.18 188.49 233.98 185.48C240.91 182.41 245.57 178.08 250.02 173.61C254.74 168.86 258.63 164.86 264.78 163.98C266.77 163.7 272.33 163.31 274.22 166.3Z" />
	<path id="orange flower 9" class="shp3" d="M173.35 454.03C176.8 454.26 177.53 470.29 184.76 481.32C190.14 489.51 199.65 498.46 212.17 500.39C218.83 501.42 230.2 501.09 232.73 495.22C235.24 489.4 227.88 481.33 225.38 478.89C219.2 472.85 213.71 472.36 205.59 468.46C197.85 464.74 194.38 460.03 187.02 455.59C185.04 454.39 181.94 452.53 182.28 451.39C182.72 449.95 188.49 450.4 195.77 451.36C204.66 452.54 211.37 454.55 219.9 454.24C232.76 453.78 239.35 449.89 241.71 445.72C243.36 442.81 244.02 438.8 242.76 435.12C240.12 427.36 230.09 424.8 226.39 424.13C214.55 422.01 193.56 431.15 189.89 431.91C181.33 433.68 176.38 433.6 175.18 431.63C172.88 427.83 180.35 417.31 189.51 410.39C192 408.51 205.24 403.13 209.73 395.47C213.12 389.7 215.03 380.12 210.01 374.65C206.49 370.82 201.22 370.44 198.14 370.84C194.94 371.26 188.37 375.07 182.74 383.89C178.15 391.08 175.54 398.37 174.84 402.63C173.22 412.46 175.77 419.26 171.41 422.89C168.44 425.37 163.57 425.34 160.29 423.63C155.23 420.99 152.93 413.73 153.09 402.78C153.2 395.21 160.06 379.42 155.32 371.38C153.95 369.05 151.77 367.07 149.16 366.19C139.62 362.97 124.56 374.71 122.36 388.12C120.32 400.55 129.69 411.09 133.87 415.01C140.91 421.61 151.65 426.18 159.99 432.23C161.61 433.4 164.58 435.69 164.13 436.67C162.89 439.4 131.86 432.75 121.02 432.68C119.76 432.67 116.44 432.93 113.51 434C106.66 436.49 98.29 443.5 99.07 451.83C99.72 458.82 106.49 463.8 111.95 465.64C122.28 469.12 134.91 463.56 146.28 455.07C151.54 451.14 155.9 446.82 159.2 448.27C162.16 449.58 163.26 455.1 162.2 459.47C160.75 465.47 155.43 468.3 150.91 471.76C147.69 474.21 141.53 481.55 136.48 489.14C129.7 499.35 128.07 506.59 129.86 510.19C132.56 515.64 140.5 517.94 146.61 516.89C156.86 515.14 163.04 503.96 165.21 496.49C168.66 484.58 163.58 476.66 167.74 463.06C168.66 460.07 170.98 453.87 173.35 454.03Z" />
</svg>