<svg xmlns="http://www.w3.org/2000/svg" viewBox="0 0 100 135.2" enable-background="new 0 0 100 135.2"><ellipse cx="50" cy="122.8" transform="matrix(.067 -.998 .998 .067 -75.867 164.492)" rx="11.2" ry="49.8" opacity=".12"/><path fill="#F9C6A3" d="M28.8 91.5c-1.3 1.2-5.8 6.1-6.4 7.7-.6-.6-.7-1.2-1.3-1.7-1.4-8.3-8-3.5-4.1 1.5-.6-.3-.6-.3-1-.2-.9-2.7-4.1-3.1-2.7 1.7-1.5-1.6-3.9 1.3-1 3-1.5.1-2.3 2.4.3 2.9-.4 2.2 1.1 4.7 4.7 8.3 8.2 14.3 12.2 5.6 13.7 3.3 5.2-2.8 7.5-2.5 9.5-1.6 4-4.3-2-34-11.7-24.9"/><path fill="#99989E" d="M26.9 93.5c-1.5 1.3-2.4 2.3-3 3.3.4-.6.9-1.1 1.3-1.6.5-.5 1-1 1.5-1.5.1-.1.1-.1.2-.2"/><path fill="#F09F7D" d="M27.5 92.9c-.2.2-.5.4-.7.6 0 0-.1.1-.1.1.1-.1.2-.2.3-.3.2-.1.4-.2.5-.4.1 0 .1 0 0 0M27.7 93c-.2.2-.4.3-.6.5-.6.6-1.2 1.2-1.8 1.8-.5.6-1.1 1.3-1.5 2-.1.1-.1.2-.2.3 7.8 7.5 8.3 15.5 8.3 19.5 0 0 .1 0 .1-.1.2-.1.4-.2.7-.3.2-.1.5-.2.7-.3.2-.1.5-.2.7-.3.2-.1.5-.1.7-.2.2-.1.5-.1.7-.2.3 0 .5-.1.8-.1.5-.1 1-.1 1.6-.1.5 0 1 0 1.5.1.4 0 .8.1 1.2.2-.4-.3-.7-.6-1.1-1-1-.9-2-1.9-2.9-2.9-.9-1-1.8-2.1-2.6-3.1 0-.1-.1-.2-.1-.2-.1-.1-.1-.1-.2-.2-.3-.4-.5-1-.8-1.8-.3-.7-.6-1.4-.9-2.1-.6-1.5-1.1-3-1.5-4.5-.1-.4-.2-.8-.3-1.2-.1-.4-.2-.8-.2-1.2-.1-.4-.1-.8-.1-1.2v-.6c0-.2 0-.4 0-.6 0-.2 0-.4 0-.6V94c0-.2 0-.4.1-.6 0-.1 0-.2.1-.4-.3.1-.6.1-.9.1-.6 0-1.1 0-1.5-.1"/><path fill="#F2AA88" d="M12.8 106.3c-.1 0-.1 0-.2 0h.2v.2c-.2.8 0 1.6.4 2.4.1.2.2.4.3.6.1.2.2.4.3.5.2.4.5.7.7 1 .5.7 1 1.3 1.6 1.9.6.6 1.2 1.2 1.8 1.8.4.7.7 1.4 1.1 2 .5.8 1.2 1.7 1.8 2.6.3.4.7.8 1.1 1.2.3.3.6.5.9.7.3.2.6.4 1 .6.3.2.7.3 1 .3.2 0 .5.1.7.1.1 0 .3 0 .4 0 .7-.1 1.4-.4 2-.8.6-.4 1.1-1 1.6-1.6 0 0 .1-.1.1-.1s-1.2.5-2.9.5c-2.4 0-5.7-1.1-7.4-6.7-4.1-2.4-5-6.4-6-7.1-.1 0-.3-.1-.5-.1"/><path fill="#A16D53" d="M29.1 92c-.2.1-.4.2-.5.3-.2.1-.3.2-.5.4-.3.2-.7.5-1 .8-.6.6-1.2 1.2-1.8 1.8-.5.6-1.1 1.3-1.5 2-.2.3-.5.7-.7 1.1-.2.4-.4.7-.5 1.1l-.1.3-.2-.2c-.1-.1-.3-.3-.4-.4-.1-.2-.2-.3-.3-.5-.1-.2-.2-.3-.3-.4-.1-.1-.2-.2-.3-.3V97.7c-.1-.5-.2-1.1-.4-1.6s-.4-1-.7-1.4c-.3-.4-.6-.8-1.1-1-.2-.1-.4-.2-.6-.2-.2 0-.4 0-.6.1-.4.2-.7.6-.9 1-.2.4-.3.9-.3 1.4 0 .5.1 1 .3 1.5.2.5.5.9.8 1.3l1.2 1.6-1.8-1-.2-.1c-.1 0-.1-.1-.2-.1 0 0-.1 0-.2 0l-.4.1-.2-.3c-.2-.5-.4-1-.8-1.3-.2-.2-.4-.3-.6-.4-.2-.1-.4 0-.5.1-.1.1-.2.3-.3.6-.1.2-.1.5-.1.8 0 .6.1 1.1.3 1.7l.3 1.2-.9-.9-.1-.1s-.1-.1-.1-.1-.1-.1-.1-.1-.1 0-.1-.1c-.1 0-.2-.1-.3-.1-.1 0-.2 0-.3 0-.1 0-.2.1-.3.1-.1.1-.2.1-.2.2-.1.1-.1.2-.2.2-.1.1-.1.2-.1.3 0 .1-.1.2-.1.3 0 .1 0 .1 0 .2s0 .1 0 .2 0 .1 0 .2 0 .1 0 .2.1.2.1.3c.1.1.1.2.2.3.1.1.1.2.2.2.1.1.2.2.3.2.1.1.2.1.3.2l.5.4h-.6c-.1 0-.2 0-.2 0-.1 0-.2 0-.2.1-.2.1-.3.2-.4.3-.2.2-.4.6-.3.9 0 .1 0 .2.1.2 0 .1.1.2.1.2 0 .1.1.1.2.2s.1.1.2.2c.3.2.6.3 1 .4h.1v.1c-.2.8 0 1.6.4 2.4.1.2.2.4.3.6.1.2.2.4.3.5.2.4.5.7.7 1 .5.7 1 1.3 1.6 1.9.6.6 1.2 1.2 1.8 1.8.4.7.8 1.4 1.2 2.1.4.7.8 1.3 1.3 2 .5.6 1 1.2 1.6 1.8.3.3.6.5.9.7.3.2.6.4 1 .6.3.2.7.3 1 .3.4.1.7.1 1.1 0 .7-.1 1.4-.4 2-.8.6-.4 1.1-1 1.6-1.6.5-.6.9-1.3 1.2-2v-.1l.1-.1c.2-.1.4-.3.6-.4.2-.1.4-.3.7-.4.2-.1.4-.2.7-.3.2-.1.5-.2.7-.3.2-.1.5-.2.7-.3.2-.1.5-.1.7-.2.2-.1.5-.1.7-.2.3 0 .5-.1.8-.1 1-.1 2-.1 3 0 .5.1 1 .1 1.5.3.5.1 1 .3 1.5.5l-.6.1c.4-.4.6-1 .8-1.7.2-.6.2-1.3.3-2 .1-1.4 0-2.8-.1-4.2-.2-1.4-.4-2.8-.7-4.1-.2-.7-.3-1.4-.5-2-.2-.7-.4-1.3-.6-2-.5-1.3-1-2.6-1.7-3.8-.7-1.2-1.5-2.4-2.5-3.4-.5-.5-1-.9-1.7-1.3-.6-.3-1.3-.6-2-.7-.7-.1-1.4-.1-2.1 0-.7.4-1.3.7-2 1m0-.1c.6-.3 1.3-.6 2-.7.7-.2 1.4-.2 2.1-.1.7.1 1.4.3 2 .7.6.3 1.2.8 1.8 1.2 1.1 1 1.9 2.1 2.7 3.3.8 1.2 1.4 2.5 1.9 3.8.3.7.5 1.3.7 2 .2.7.4 1.4.6 2.1.3 1.4.6 2.8.8 4.2.2 1.4.3 2.9.2 4.3 0 .7-.1 1.5-.3 2.2-.2.7-.4 1.5-1 2.1l-.2.3-.3-.2c-.4-.2-.8-.3-1.3-.4-.2-.1-.5-.1-.7-.1-.2 0-.5-.1-.7-.1-.9-.1-1.9-.1-2.8 0-.2 0-.5.1-.7.1-.2 0-.5.1-.7.1-.2.1-.5.1-.7.2-.2.1-.4.1-.7.2-.2.1-.4.2-.6.3-.2.1-.4.2-.6.3-.2.1-.4.2-.6.4-.2.1-.4.3-.6.4l.1-.2c-.4.8-.8 1.5-1.3 2.1-.5.7-1.1 1.3-1.8 1.8s-1.5.8-2.4.9c-.4 0-.9 0-1.3-.1s-.8-.2-1.2-.4c-.4-.2-.7-.4-1.1-.7-.3-.3-.6-.5-.9-.8-.6-.6-1.1-1.2-1.6-1.9s-.9-1.3-1.3-2-.8-1.4-1.1-2.1c-.6-.6-1.2-1.2-1.7-1.9-.6-.6-1.1-1.3-1.6-2s-1-1.4-1.3-2.2c-.2-.4-.3-.8-.4-1.2-.1-.4-.1-.9 0-1.3l.1.2c-.4-.1-.8-.2-1.1-.5-.1-.1-.2-.1-.2-.2-.1-.1-.1-.2-.2-.2-.1-.1-.1-.2-.2-.3 0-.1-.1-.2-.1-.3 0-.1 0-.2 0-.3 0-.1 0-.2.1-.3.1-.2.2-.4.3-.6.1-.2.3-.3.5-.4.1-.1.2-.1.3-.1.1 0 .2 0 .3-.1l-.1.4c-.1-.1-.2-.1-.3-.2-.1-.1-.2-.2-.3-.2-.1-.1-.2-.2-.3-.3-.1-.1-.2-.2-.2-.3-.1-.1-.1-.2-.2-.4 0-.1-.1-.1-.1-.2s0-.1 0-.2 0-.1 0-.2 0-.1 0-.2 0-.3.1-.4c0-.1.1-.3.2-.4.1-.1.2-.2.3-.4.1-.1.2-.2.3-.3.1-.1.3-.1.4-.2.1 0 .3-.1.5-.1s.3 0 .5.1c.1 0 .1.1.2.1s.1.1.2.1.1.1.2.1l.2.1-.6.3c-.2-.6-.3-1.2-.4-1.8 0-.3 0-.7 0-1 0-.2.1-.3.2-.5s.2-.3.4-.5c.2-.1.4-.2.6-.3.2 0 .4 0 .6 0 .4.1.7.3 1 .5.5.5.9 1.1 1.1 1.7l-.8-.2c.1 0 .2 0 .3 0 .1 0 .2 0 .2 0 .1 0 .2 0 .2.1.1 0 .2.1.3.1l.2.1-.6.6c-.4-.5-.7-1-.9-1.5-.2-.6-.4-1.2-.4-1.8 0-.6.1-1.2.4-1.8.1-.3.3-.5.5-.8.2-.2.5-.4.8-.6.3-.1.6-.2 1-.2.3 0 .7.1.9.3.3.2.5.4.7.6.2.2.4.5.5.7.3.5.5 1 .7 1.6.2.5.3 1.1.4 1.7l-.1-.1c.2.1.3.3.4.4.1.2.2.3.3.5.2.3.3.6.6.9l-.3.1c.2-.4.4-.8.6-1.1.2-.4.5-.7.7-1 .5-.7 1-1.3 1.6-2 .6-.6 1.2-1.2 1.8-1.8.3-.3.6-.5 1-.8.2-.1.3-.2.5-.4.4-.2.6-.3.8-.4"/><path fill="#A16C53" d="M22.1 99.3c-.1-.4.1-.4.2-.4.3.2 1 1.1 1.7 2.9.2.5.1 1-.1.9-.1-.1-.6-1.3-.9-1.7-.6-1.2-.9-1.5-.9-1.7zM20.5 106.7c.1.4 0 .4-.2.4-.3-.1-1.1-1.1-1.8-2.7-.2-.5-.2-1 .1-.9.1.1.7 1.2.9 1.7.6.9.9 1.3 1 1.5zM16.7 97.8c-.2-.3-.2.2-.2.4 0 .4 0 .2 1 1.6.3.4.7.5.7.1 0-.2-.6-.9-.9-1.3-.7-1-.5-.6-.6-.8zM13.2 99.6c-.2-.3-.2.2-.2.4 0 .4-.5-.2.6 1.1.3.4.7.5.7.1 0-.1-.9-1.4-1.1-1.6zM30.7 117.8c0 .4.3.1.4 0 .3-.2.1.6.4-1.2.1-.6-.1-1-.3-.8 0 .1-.4 1.8-.5 2z"/><path fill="#F9C6A3" d="M72.9 97s-19.1-13.6-44.1-6c-2.2.7 3.8-16.5 9.7-20.9 7.1-5.3 37.7 3.9 42.3 9.8 3.3 4.4 4.9 21.6-7.9 17.1"/><path fill="#fff" d="M84.1 102.4c2.4 12.8-27.8 34.8-49.9 6.3 0 0-7-12.8-2.8-17.9 10-6.8 47.3 2.1 52.7 11.6"/><path fill="#C0C6C8" d="M68.8 97.1c.1-.4.4-.9.2-1-.3-.2-4.2-1.7-6.4-2.1-.9-.1-.6.5-.1.6.1 0 1.7.6 3 1.1 1.8.7 3.2 1.6 3.3 1.4"/><path fill="#E29778" d="M32.9 106.6c.3.7.6 1.4.8 1.8.1.1.1.1.2.2-.1-.3-.3-.5-.4-.8-.2-.5-.4-.8-.6-1.2.1 0 0 0 0 0"/><path fill="#EBEEF1" d="M30.4 95.7s0 .1 0 .1v.6c0 .4.1.8.2 1.1.1.4.1.8.2 1.1.1.4.2.8.3 1.1.4 1.5 1 3 1.6 4.4.3.7.6 1.4 1 2.1.2.4.3.7.5 1 .2.3.4.7.5 1 .8 1 1.7 2.1 2.6 3 .9 1 1.9 1.9 2.9 2.8 1 .9 2.1 1.7 3.1 2.5 1.1.8 2.2 1.5 3.4 2.1 1.2.6 2.4 1.2 3.6 1.6 1.3.5 2.5.8 3.8 1.1 1.7.3 3.4.5 5.1.5.5 0 1 0 1.6 0 0-.1 0-.2 0-.3l-.2-.5c-.1-.2-.1-.4-.2-.6-.1-.2-.1-.4-.1-.6 0-.2-.1-.4-.1-.6 0-.2-.1-.4-.1-.6 0-.2-.1-.4-.1-.6l-.1-.6v-.6c0-.2 0-.4 0-.6 0-.2 0-.4 0-.6 0-.2 0-.4.1-.6 0-.2.1-.4.1-.6 0-.2.1-.4.2-.6.1-.2.1-.4.2-.6.1-.2.2-.4.3-.6.1-.2.2-.3.3-.4 0 0 0-.1 0-.1 0-.1 0-.2 0-.3 0-.2 0-.5-.1-.7 0-.2 0-.5 0-.8 0-.1 0-.3 0-.4 0-.1 0-.3 0-.4 0 0 0-.1 0-.1-3.1 2.7-6.5 3.8-9.9 3.8-5.5 0-10.8-2.8-14-5.9-3.3-3.7-5.3-9.6-6.7-11.6m37.6-.2c-.1 0-.2 0-.3 0 .1 0 .2.1.3.1 0 0 0-.1 0-.1m-5.2-.7c-.5 1.2 4.6 2.5 3.5 7.2-.7 1.5-1.5 2.7-2.3 3.9 0 0 .1 0 .1 0s.1 0 .1 0c.1 0 .2 0 .3 0 .1 0 .3.1.4.1.1.1.3.1.4.2.1.1.2.2.3.3.1.1.2.2.2.3.1.1.1.2.2.3 0 .1.1.2.1.2.1-.2.1-.4.2-.5l.3-.7c.1-.2.2-.4.3-.7.1-.1.1-.2.2-.3l.2-.3c.3-.4.6-.8.9-1.2l.5-.5c.2-.2.4-.3.6-.5.2-.2.4-.3.6-.4.2-.1.4-.2.5-.3-.2-.2-.5-.5-.6-.8-.2-.4-.4-.8-.5-1.2-.1-.2-.1-.4-.1-.6 0-.2-.1-.3-.1-.5 0 0 0 0-.1-.1 0-.1-.1-.1-.1-.2-.1-.1-.1-.2-.2-.3-.1-.2-.2-.4-.3-.6-.1-.2-.1-.5-.2-.7-.6-.3-1.6-.8-2.8-1.2-.9-.3-2-.7-2.6-.9"/><path fill="#B5BDC1" d="M62.8 94.8c.6.2 1.7.6 2.6.9 1.2.4 2.3 1 2.8 1.2 0-.2-.1-.4-.1-.6-.1-.3-.1-.5-.1-.8-.1 0-.2-.1-.3-.1-.1 0-.2 0-.4 0-1 .1-2.5-.1-4.5-.6"/><path fill="#AFB2B2" d="M85 103.9c0 .2 0 .4 0 .6 0 .7-.2 1.4-.4 2.1-.4 1.4-1 2.7-1.7 3.9-.7 1.2-1.6 2.3-2.5 3.4-.9 1-2 2-3 2.9-2.2 1.7-4.6 3.2-7.1 4.2-2.6 1.1-5.3 1.7-8 2-2.8.3-5.5.1-8.2-.4-1.4-.3-2.7-.7-4-1.2-1.3-.5-2.5-1.1-3.8-1.7-1.2-.7-2.4-1.4-3.5-2.2-1.1-.8-2.2-1.7-3.2-2.6-1-.9-2-1.9-2.9-2.9-.9-1-1.8-2.1-2.6-3.1-.2-.4-.4-.7-.6-1.1-.2-.4-.4-.7-.5-1.1-.3-.7-.7-1.4-1-2.2-.6-1.5-1.1-3-1.5-4.5-.1-.4-.2-.8-.3-1.2-.1-.4-.2-.8-.2-1.2-.1-.4-.1-.8-.1-1.2v-.6c0-.2 0-.4 0-.6 0-.2 0-.4 0-.6V94c0-.2 0-.4.1-.6 0-.2.1-.4.1-.6.1-.2.1-.4.2-.6.1-.2.2-.4.2-.6.1-.2.2-.4.3-.5l.4-.5c.5-.3 1.1-.6 1.6-.9.6-.2 1.1-.4 1.7-.6 1.2-.3 2.3-.5 3.5-.7 2.4-.3 4.7-.3 7.1-.2 4.7.2 9.4 1 14 2 2.3.5 4.6 1.1 6.8 1.8 2.3.7 4.5 1.5 6.7 2.4 2.2.9 4.3 1.9 6.3 3.2 1 .6 2 1.3 2.9 2.1.9.8 1.7 1.6 2.3 2.7l.9 1.5m-1.8-2.7c-.4-.5-.9-1-1.4-1.4-.9-.8-1.9-1.4-2.9-2-2-1.2-4.2-2.2-6.3-3.1-2.2-.9-4.4-1.7-6.7-2.3-2.3-.7-4.5-1.3-6.8-1.8-4.6-1-9.3-1.7-14-1.9-2.3-.1-4.7 0-7 .3-1.2.1-2.3.4-3.4.7-.6.2-1.1.4-1.6.6-.5.2-1 .5-1.5.8l.1-.1-.3.5c-.1.2-.2.3-.3.5-.1.2-.1.3-.2.5s-.1.4-.2.5c-.1.2-.1.4-.1.6 0 .2-.1.4-.1.6v.6c0 .2 0 .4 0 .6 0 .2 0 .4 0 .6v.6c0 .4.1.8.2 1.1.1.4.1.8.2 1.1.1.4.2.8.3 1.1.4 1.5 1 3 1.6 4.4.3.7.6 1.4 1 2.1.2.4.3.7.5 1 .2.3.4.7.6 1 .8 1 1.7 2.1 2.6 3.1.9 1 1.9 1.9 2.9 2.8 1 .9 2.1 1.7 3.1 2.5 1.1.8 2.2 1.5 3.4 2.1 1.2.6 2.4 1.2 3.6 1.6 1.3.5 2.5.8 3.8 1.1 2.6.5 5.3.6 7.9.3 2.6-.3 5.2-1 7.7-2 2.4-1 4.7-2.4 6.8-4.1 1-.8 2-1.8 2.9-2.7.9-1 1.7-2.1 2.3-3.2.6-1.1 1.2-2.3 1.5-3.6.2-.6.3-1.2.3-1.9 0-.2 0-.3 0-.5s0-.3 0-.5v-.2c0-.1 0-.1 0-.2l-.1-.5-.4-1.3"/><path fill="#F9C6A3" d="M84.5 100.3s1.8 2.6 3.4 7.7c0 0 2.2 4.8.3 10.6-.8 2.8-5.1 12.1-14.3 11.9 0 0-2.7.8-4 2.1-1.4 1.9-8.7 3.8-8.9-5.8 0-1.5.4-3.7.4-5.6-.7-4.2-1.1-8.1.4-9.6.2-.9-1.1-3.1 1.3-5.3-.2.2 0 0 .3-.1.7-.3 2.2-.6 3 2.3 1.9-11.9 18.1-8.2 18.1-8.2"/><path fill="#F1A582" d="M71.1 102.4c-.1 0-.1.1-.2.1-.2.1-.4.2-.6.4-.2.1-.4.2-.5.4-.2.1-.3.3-.5.4l-.5.5c-.2.3-.4.5-.6.8.1 0 .2-.1.3-.1.4-.1.8-.3 1.3-.3.6 0 1.3.2 1.8 1.1 1.3 2.3 3 3.1 4.6 3.1 2 0 3.6-1.4 3.7-2.5C83.4 110 88 110 88 110c0-.2 0-.4 0-.5-.1-.5-.3-1-.4-1.5l-.3-1c-.1-.3-.2-.6-.3-1-.1-.4-.3-.8-.4-1.2-.2-.3-.3-.5-.5-.8-.2 0-.3 0-.5.1-.2 0-.5 0-.7 0-.5 0-1.1 0-1.6-.1-.8-.1-1.5-.3-2.2-.5-.4-.1-.7-.2-1.1-.4-.3-.1-.5-.2-.8-.3-.1.1-.1.1-.2.2s-.3.3-.4.4c-.3.2-.6.5-.9.7-.3.2-.7.4-1 .6-.4.2-.7.3-1.2.4-.2 0-.3 0-.5 0s-.5 0-.7-.1c-.4-.1-.8-.3-1.1-.6-.3-.3-.6-.6-.8-.9-.1-.2-.2-.3-.3-.5-.1-.1-.1-.2-.2-.3 0 0-.1 0-.1 0-.1 0-.2-.1-.3-.1-.3-.2-.3-.2-.4-.2"/><path fill="#9F9EA3" d="M71.4 131.6c-.6.3-1.2.7-1.6 1.2-.6.8-2.1 1.5-3.8 1.5-.6 0-1.1-.1-1.7-.3.3.1.6.2.9.3.3 0 .5.1.8.1.5 0 1.1-.1 1.6-.2.4-.1.8-.3 1.1-.5.3-.2.7-.4.9-.7l.2-.2c.1-.1.2-.1.2-.2.1-.1.2-.1.2-.2.1-.1.2-.1.2-.2.5-.3.8-.5 1-.6"/><path fill="#F2AA88" d="M62.1 119.1c-.3 0-.6.1-.9.2 0 0-.1.1-.1.3 0 0 0 0 0 .1 0 .2.1.4.1.6.1.2.1.4.2.6l.2.6v.2c0 .9-.1 1.7-.2 2.5s-.2 1.6-.3 2.4c0 .2 0 .4 0 .6v.6c0 .2 0 .4 0 .6 0 .2 0 .4.1.6l.1.6.1.6c0 .2.1.4.2.6.1.2.1.4.2.6.1.2.2.4.2.5.1.2.2.4.3.5.1.2.2.3.4.5.1.2.3.3.4.4.3.3.6.5 1 .7.1 0 .1.1.2.1.5.2 1.1.3 1.7.3 1.7 0 3.2-.8 3.8-1.5.4-.5 1-.8 1.6-1.2 0 0 .1 0 .1-.1-1.1.4-2.9 1.1-4.4 1.1-1 0-1.9-.3-2.5-1.1-1.6-2.4-1.3-5.4-1.1-6.2.5-1.8 3.5-1.8 3.5-1.8s-2.5-4.5-4.9-4.5"/><path fill="#9F9EA3" d="M71.7 131.8c-.3.2-.6.4-.9.5-.1.1-.2.1-.2.2-.1.1-.2.1-.2.2-.1.1-.2.1-.2.2l-.2.2s0 0 0 .1c.4-.4 1-.9 1.7-1.4"/><path fill="#B3B2B6" d="M64.6 134.5c-.1 0-.2 0-.3 0 .4.1.8.2 1.3.2.2 0 .4 0 .6 0-.1 0-.2 0-.2 0-.3 0-.5 0-.8 0-.2-.1-.4-.2-.6-.2"/><path fill="#9F9EA3" d="M63.1 133.7c.3.3.7.6 1.2.8.1 0 .2 0 .3 0-.2-.1-.4-.1-.6-.2-.3-.2-.6-.4-.9-.6"/><path fill="#A16D53" d="M84.5 100.5c.4.5.7 1.1 1.1 1.7.2.3.3.6.5.9.1.2.1.3.2.5s.1.3.2.5c.1.3.3.6.4.9.1.3.3.6.4.9.1.3.2.6.4 1l.3 1c.2.6.4 1.3.6 1.9.2.6.3 1.3.4 1.9.1.6.2 1.3.2 2s0 1.3 0 2-.1 1.3-.2 2c0 .3-.1.7-.2 1l-.1.5c0 .2-.1.3-.1.5-.2.6-.5 1.2-.7 1.8-.3.6-.6 1.2-.9 1.7-.7 1.1-1.5 2.2-2.4 3.2-.5.5-.9.9-1.4 1.4-.5.4-1 .8-1.6 1.2-.6.3-1.1.7-1.7.9-.3.1-.6.2-.9.4-.3.1-.6.2-.9.3-.3.1-.6.2-1 .2-.2 0-.3.1-.5.1l-.5.1c-.3 0-.7 0-1 .1-.2 0-.4 0-.6 0-.1 0-.2 0-.3 0h.1c-.7.3-1.4.6-2.1 1-.3.2-.7.4-1 .6-.1.1-.2.1-.2.2-.1.1-.2.1-.2.2-.1.1-.2.1-.2.2l-.2.2c-.3.4-.6.6-1 .8-.4.2-.8.4-1.2.5-.4.1-.8.2-1.2.3-.4 0-.9 0-1.3 0-.4-.1-.8-.2-1.2-.4-.4-.2-.8-.4-1.1-.7-.2-.1-.3-.3-.5-.5s-.3-.3-.4-.5c-.1-.2-.2-.4-.3-.5-.1-.2-.2-.4-.3-.6-.1-.2-.2-.4-.2-.6-.1-.2-.1-.4-.2-.6l-.1-.6c0-.2-.1-.4-.1-.6 0-.2-.1-.4-.1-.6 0-.2 0-.4-.1-.6v-.6c0-.2 0-.4 0-.6 0-.8.1-1.7.2-2.5s.1-1.6.1-2.4v.1l-.2-.6c-.1-.2-.1-.4-.2-.6-.1-.2-.1-.4-.1-.6 0-.2-.1-.4-.1-.6 0-.2-.1-.4-.1-.6 0-.2-.1-.4-.1-.6l-.1-.6v-.6c0-.2 0-.4 0-.6 0-.2 0-.4 0-.6 0-.2 0-.4.1-.6 0-.2.1-.4.1-.6 0-.2.1-.4.2-.6.1-.2.1-.4.2-.6.1-.2.2-.4.3-.6.1-.2.3-.4.4-.6l-.1.2s0-.1 0-.1 0-.1 0-.1c0-.1 0-.2 0-.3 0-.2 0-.5-.1-.7 0-.2 0-.5 0-.8 0-.1 0-.3 0-.4 0-.1 0-.3 0-.4 0-.1 0-.3.1-.4v-.2l.1-.2c0-.1.1-.3.1-.4.1-.1.1-.2.2-.4l.2-.3c.1-.1.2-.2.2-.3l.1-.2.1-.1.3-.3.1-.1h.1c.2-.1.4-.2.6-.2.1 0 .2-.1.3-.1.1 0 .2 0 .4-.1.1 0 .3 0 .4 0 .1 0 .3.1.4.1.1.1.3.1.4.2.1.1.2.2.3.3.1.1.2.2.2.3.1.1.1.2.2.3.1.1.1.2.2.3l.1.3c.1.2.2.4.2.6l.2.6-.9.1.1-.7c0-.1 0-.2.1-.4l.1-.4c.1-.2.1-.5.2-.7l.3-.7c.1-.2.2-.4.3-.7.1-.1.1-.2.2-.3l.2-.3c.3-.4.6-.8.9-1.2l.5-.5c.2-.2.4-.3.6-.5.2-.2.4-.3.6-.4.2-.1.4-.3.6-.4.2-.1.4-.2.6-.3.2-.1.4-.2.7-.3l.7-.3.7-.2c.5-.1.9-.2 1.4-.3.2 0 .5-.1.7-.1.2 0 .5-.1.7-.1l.7-.1.7-.1c.5 0 .9 0 1.4-.1.5 0 .9 0 1.4 0 .5 0 .9.1 1.4.1.6-.7 1.6-.6 2.5-.4m0 .1c-.5-.1-.9-.1-1.4-.1-.5 0-.9-.1-1.4-.1-.9 0-1.9 0-2.8 0-.5 0-.9.1-1.4.1l-.7.1-.7.1c-.2 0-.5.1-.7.1-.2 0-.5.1-.7.2-.5.1-.9.2-1.3.4l-.6.2-.6.3c-.2.1-.4.2-.6.3-.2.1-.4.2-.6.3-.2.1-.4.2-.6.4-.2.1-.4.2-.5.4-.2.1-.3.3-.5.4l-.5.5c-.3.3-.6.7-.8 1.1l-.2.3c-.1.1-.1.2-.2.3-.1.2-.2.4-.3.6l-.2.6c-.1.2-.1.4-.2.6l-.1.3c0 .1 0 .2-.1.3l-.1.7-.3 1.9-.6-1.8-.2-.5c-.1-.2-.1-.4-.2-.5l-.1-.2-.1-.2c0-.1-.1-.1-.1-.2s-.1-.1-.2-.2c0-.1-.1-.1-.2-.1-.1-.1-.1-.1-.2-.1s-.1 0-.2 0-.1 0-.2 0-.1 0-.2 0-.2 0-.2.1c-.2.1-.3.1-.5.2l.2-.1-.2.2-.1.1-.1.1c-.1.1-.1.2-.2.3l-.2.3c-.1.1-.1.2-.1.3 0 .1-.1.2-.1.3l-.1.1v.2c0 .1-.1.2-.1.3 0 .1 0 .2 0 .3 0 .1 0 .2 0 .3 0 .2 0 .4 0 .7v.7c0 .1 0 .3 0 .4 0 .1 0 .1 0 .2s0 .2 0 .3v.1l-.1.1c-.1.1-.2.2-.3.4-.1.1-.2.3-.2.5-.1.2-.1.4-.2.5 0 .2-.1.4-.1.6 0 .2-.1.4-.1.6 0 .2-.1.4-.1.6 0 .2 0 .4 0 .6 0 .2 0 .4 0 .6v1.2c0 .2 0 .4.1.6 0 .2.1.4.1.6 0 .2.1.4.1.6 0 .2.1.4.1.6.1.2.1.4.2.6l.2.6v.2c0 .9-.1 1.7-.2 2.5s-.2 1.6-.3 2.4c0 .2 0 .4 0 .6v.6c0 .2 0 .4 0 .6 0 .2 0 .4.1.6l.1.6.1.6c0 .2.1.4.2.6.1.2.1.4.2.6.1.2.2.4.2.5.1.2.2.4.3.5.1.2.2.3.4.5.1.2.3.3.4.4.3.3.6.5 1 .7.4.2.7.3 1.1.4.8.1 1.6.1 2.4-.2.4-.1.8-.3 1.1-.5.3-.2.7-.4.9-.7l.2-.2c.1-.1.2-.1.2-.2.1-.1.2-.1.2-.2.1-.1.2-.1.2-.2.3-.2.7-.4 1-.6.3-.2.7-.4 1.1-.5.4-.2.7-.3 1.1-.5.3 0 .6 0 1 0 .3 0 .6 0 1-.1l.5-.1c.2 0 .3-.1.5-.1.3-.1.6-.2.9-.2.3-.1.6-.2.9-.3.3-.1.6-.2.9-.4.6-.3 1.1-.6 1.6-1s1-.8 1.5-1.2c.5-.4.9-.9 1.3-1.4.4-.5.8-1 1.2-1.5.4-.5.7-1 1-1.6.3-.5.6-1.1.9-1.7.3-.6.5-1.2.7-1.7 0-.1.1-.3.1-.4l.1-.5c.1-.3.2-.6.2-.9.1-.6.2-1.2.2-1.9 0-.6.1-1.3 0-1.9 0-.6-.1-1.3-.1-1.9-.1-.6-.2-1.3-.3-1.9-.1-.6-.3-1.2-.5-1.8l-.3-1c-.1-.3-.2-.6-.3-1-.2-.6-.4-1.3-.7-1.9-.1-.2-.1-.3-.2-.5s-.1-.3-.2-.5c-.1-.3-.3-.6-.4-.9-.3-.9-.6-1.5-.9-2"/><path fill="#A16C53" d="M65.8 108.3c.1-.4.3-.7.4-.5.1.4.6 2.5 0 4-.2.5-.4.2-.5-.2 0-.1.1-.6.2-1.2.1-1.1-.2-1.9-.1-2.1zM66.4 112.1c.2-.2.1-2.6 1.7-2 1.8.6.4 3.6.4 3.6s.2.5.4.2 1.6-3.6-.5-4.5c-2-.9-2.4 1.6-2.4 2.3-.1.5.2.5.4.4zM69.1 113.6c.3-.1.6-2.1 1.9-1 1.7 1.5-.1 3.3-.1 3.3s.1.6.4.3c.3-.2 2-2.3.2-4.2-1.4-1.5-2.5.3-2.8 1-.2.5.1.7.4.6zM71.6 115.9c.3 0 1.1-1.8 2-.3.9 1.5-.3 2.2-.3 2.2s-.2.5.2.6c.4.1 1.7-1.5.7-3.2-1-1.7-2.5-.4-2.9.3-.2.4 0 .4.3.4zM63.3 122.3c-.3-.3-.5-.7-.3-.7.4-.1 2.6.1 3.8 1.4.4.4 0 .6-.4.6-.1 0-.5-.4-1-.7-1.1-.5-1.9-.4-2.1-.6z"/><path fill="#F9C6A3" d="M71 69.2s20.7 6.9 20.7 26.6c-.9 12.5-12.1 6.5-12.1 6.5s-5.3 5.3-7.5-.1c0 0-2.1-.3-2.5-3.7-.8-.3-2.9-8.4 3-11.1 0 0 3.4-1.4 7.3-.1C75.3 77.9 52 76 39.3 75.1c-3.6-.2-6.6-1.2-7.8-1 3.9 2.4 4.4 7.4 4.4 7.4s.8 4.3-.7 5.7c-.2 1.4-.9 2-2.3 3.2-2.2 4-7.8 1.7-9.4-1.1 0 0-10.4-20.6 21.5-23.9 8 5.3 18.8 4.7 23.7 4.1 2-.2 3.1-.5 2.3-.3"/><path fill="#F2AA88" d="M91.1 94.4c-1 3.1-3.2 5.2-6.2 5.2-1.1 0-2.4-.3-3.7-.9-.6-.3-1.3-.8-2.6-.8-.5 0-1.2.1-1.9.3-2.6 1.4-3.3 4.8-2.6 5.5.2.2.4.4.6.5 0 0 .1 0 .1 0 .1 0 .3 0 .4 0 .6-.1 1.3-.4 1.8-.8.3-.2.6-.4.8-.6.1-.1.3-.2.4-.4.1-.1.3-.3.4-.4l.2-.2.3.1c.1 0 .2.1.2.1.1.1.2.1.3.2.1.1.3.1.4.2.3.1.7.3 1 .4.7.2 1.4.4 2.1.5.5.1 1 .1 1.6.1.2 0 .4 0 .6 0 .7 0 1.4-.2 2-.5.6-.3 1.2-.7 1.7-1.2s.9-1.1 1.2-1.7c.1-.3.3-.7.4-1 .1-.3.2-.7.3-1 0-.2.1-.4.1-.5l.1-.5.1-.5V96l-.1-1.1c0-.2 0-.3 0-.5"/><path fill="#F49E78" d="M45 67c.9 2.9 5.3 8.1 12.8 8.1 3.7 0 8.2-1.3 13.4-4.7-.3.1-.7.1-1 .1-2 .3-4.1.4-6.1.4 0 0-.1 0-.1 0-2.1 0-4.1-.1-6.2-.4-.6-.1-1.1-.2-1.7-.3-2.1-.2-4.2-.6-6.2-1.2-1.7-.5-3.3-1.2-4.9-2"/><path fill="#FFF1E7" d="M37.9 67.2c-9.9 1.9-14 7.3-15.3 12.3-.2 1-.3 1.9-.3 2.9s0 2 .2 2.9c.2 1 .4 1.9.8 2.8.4-3 2.2-12 8.2-12 .5 0 1.1.1 1.7.2-.1-.2-.3-.3-.4-.5-.1-.1-.3-.2-.4-.4-.1-.1-.3-.2-.4-.3-.1-.1-.3-.2-.4-.3-.1-.1-.3-.2-.5-.2l-1-.5.5-.1s-.1 0-.1 0c-2.9-1.5 2.9-5 7.4-6.8"/><path fill="#FCE4D1" d="M73.6 93c-1.1.2-3.6 1.7-3.7 6.2 0 0 0 .1 0 .1 1.5-4.6 2.8-4 3.7-6.3"/><path fill="#A16C53" d="M72.5 102.8s-.1-2.8.9-4.9c-1.5 1.9-1.5 4.1-1.5 4.1l.6.8zM79.4 102.3s-.8-.3-2.4-1.8c-.2-.2-.3.2-.5-.1 1.3 2 2.3 2.2 2.3 2.2l.6-.3zM76 101.6c-.3.1-.3-.1-.3-.3.2-.4 1-1.5 2.3-1.7.5-.1.8 0 .7.3-.1.1-1.1.3-1.5.6-.8.4-1 1-1.2 1.1z"/><path fill="#FCE4D1" d="M75.9 87.3c-.5 0-1 0-1.5.1-.4.1-.8.1-1.2.2-.4.1-.8.2-1.1.4-.5.2-1 .5-1.4.9-1.4 1.3-2.4 3.5-2 6.5 0 .3.1.5.1.8.1.3.1.5.2.8-.1-5.8 4.2-8.6 9.4-8.6.4 0 .8 0 1.1 0-.3-.4-.8-.7-1.3-.9-.5-.1-1-.2-1.5-.2-.2 0-.5 0-.8 0"/><path fill="#A16C53" d="M69.9 99.2s-.3-1.8.7-4.2c-1.2 1.7-1.3 3.3-1.3 3.3l.6.9zM35.1 88s-1.5-2.2-3.4-3.9c2.2.6 3.5 3 3.5 3l-.1.9zM33 90.1s-2.1-1.1-4-2.7c1.2 2.4 3.5 3.2 3.5 3.2l.5-.5zM35.5 83.1s-1.1-2.1-2.6-3.7c1.8.8 2.8 3.1 2.8 3.1l-.2.6z"/><path fill="#A16D53" d="M71.2 70c.7.1 1.3.3 2 .5s1.4.5 2.1.8c1.4.6 2.7 1.3 4 2.1 1.3.8 2.5 1.7 3.6 2.7 1.1 1 2.1 2.1 3.1 3.2 1.9 2.3 3.3 5 4.3 7.8.3.7.5 1.4.7 2.1.2.7.4 1.5.5 2.2.2.7.3 1.5.4 2.2.1.4.1.7.1 1.1l.1 1.1v.6l-.2.6-.1.6c0 .2-.1.4-.1.6-.1.4-.2.7-.3 1.1-.1.4-.3.7-.4 1.1-.3.7-.8 1.4-1.3 2-.5.6-1.2 1-2 1.4-.7.3-1.5.5-2.3.5-.8.1-1.6 0-2.3-.1-.8-.1-1.5-.3-2.2-.5-.4-.1-.7-.2-1.1-.4-.4-.1-.7-.3-1.1-.5l.5-.1c-.1.2-.3.3-.4.4-.1.1-.3.3-.4.4-.3.2-.6.5-.9.7-.3.2-.7.4-1 .6-.4.2-.7.3-1.2.4-.4.1-.8.1-1.3-.1-.4-.1-.8-.3-1.1-.6-.3-.3-.6-.6-.8-.9-.1-.2-.2-.3-.3-.5-.1-.2-.2-.4-.2-.5l.3.2c-.2 0-.3-.1-.4-.1-.1 0-.2-.1-.3-.1-.2-.1-.4-.2-.6-.4-.3-.3-.6-.6-.8-1-.2-.4-.4-.8-.5-1.2-.1-.2-.1-.4-.1-.6 0-.2-.1-.4-.1-.6l.2.3c-.1-.1-.2-.1-.2-.2s-.1-.1-.1-.2c-.1-.1-.1-.2-.2-.3-.1-.2-.2-.4-.3-.6-.1-.4-.3-.8-.3-1.2-.2-.8-.2-1.7-.2-2.6 0-.9.2-1.7.5-2.5s.7-1.6 1.3-2.2c.6-.6 1.3-1.1 2.1-1.5.4-.2.8-.3 1.2-.4.4-.1.8-.2 1.3-.2.8-.1 1.7-.1 2.5 0s1.7.3 2.5.5l-.2.2c-.2-.5-.5-.9-.8-1.3-.3-.4-.7-.8-1.1-1.1-.8-.7-1.7-1.2-2.7-1.6-1.9-.8-4-1.2-6.1-1.6-2.1-.4-4.2-.6-6.3-.9L59 81c-1.1-.1-2.1-.3-3.2-.5-2.1-.4-4.2-.8-6.2-1.3-2.1-.5-4.1-1-6.2-1.6l-6.1-1.7c-1-.3-2-.5-3.1-.7-.5-.1-1-.2-1.5-.3-.5-.1-1-.1-1.5 0l.1-.8c.2.1.4.2.5.3.2.1.3.2.5.3.2.1.3.2.5.4.1.1.3.3.4.4.6.5 1.1 1.2 1.4 1.9.2.3.4.7.5 1.1.1.4.3.7.4 1.1.1.4.2.8.2 1.1 0 .2.1.4.1.6 0 .2 0 .4 0 .6v-.1c0 .1 0 .3.1.4l.1.4c0 .3.1.5.1.8 0 .5.1 1 0 1.5 0 .5-.1 1-.2 1.6 0 .1-.1.3-.1.4 0 .1-.1.3-.2.4-.1.1-.1.3-.2.4 0 .1-.1.1-.1.2l-.2.2.1-.3c0 .2-.1.4-.1.6 0 .1 0 .2-.1.3 0 .1-.1.2-.1.3-.1.2-.2.4-.3.5-.1.2-.2.3-.3.5-.2.3-.5.5-.8.8-.3.2-.5.4-.8.7l.1-.1c-.3.5-.6.9-1.1 1.3-.4.4-1 .6-1.5.8-1.1.3-2.3.1-3.3-.2-1-.3-2-.9-2.8-1.5-.4-.3-.8-.7-1.2-1.2-.1-.1-.2-.2-.2-.4l-.1-.2-.1-.2c-.1-.2-.2-.5-.3-.7-.4-1-.7-2-.8-3-.2-1-.3-2.1-.2-3.1 0-1 .1-2.1.4-3.1.2-1 .6-2 1-3 .4-.9 1-1.9 1.6-2.7.6-.8 1.4-1.6 2.1-2.3 1.6-1.4 3.4-2.5 5.2-3.3 1.9-.8 3.9-1.5 5.8-1.9.5-.1 1-.2 1.5-.3.5-.1 1-.2 1.5-.3 1-.2 2-.3 3-.4h.1l.1.1c2 1.3 4.1 2.3 6.4 3 2.3.7 4.6 1.2 7 1.5 2.4.3 4.8.4 7.2.4 1.2 0 2.4-.1 3.6-.1.6 0 1.2-.1 1.8-.1l.9-.1h.6s0 0 .1 0v.1l.1-.5m-.2-.1c.1 0 .1 0 .2-.1l-.2.1-.4.1-.9.1c-.6.1-1.2.1-1.8.2-1.2.1-2.4.2-3.6.2-2.4.1-4.8 0-7.2-.2-2.4-.2-4.8-.7-7.1-1.4s-4.6-1.7-6.7-3l.3.1c-1 .1-2 .2-3 .4-.5.1-1 .2-1.5.3-.5.1-1 .2-1.5.3-1.9.5-3.9 1.1-5.7 1.9-1.8.8-3.5 1.9-5 3.2-.7.7-1.4 1.4-2 2.2-.6.8-1.1 1.6-1.5 2.5-.4.9-.7 1.8-.9 2.8-.2 1-.3 1.9-.3 2.9s0 2 .2 2.9c.2 1 .4 1.9.8 2.8.1.2.2.4.3.6l.1.1.1.2c.1.1.1.2.2.3.3.4.6.7 1 1 .7.6 1.6 1.1 2.5 1.4.9.3 1.8.4 2.7.2.4-.1.8-.3 1.2-.6.3-.3.6-.6.8-1v-.1l.1-.1c.5-.4 1.1-.8 1.5-1.3.1-.1.2-.2.3-.4.1-.1.2-.2.2-.4 0-.1.1-.1.1-.2s0-.1.1-.2c0-.1.1-.3.1-.4v-.2l.1-.1.1-.1.1-.1c.1-.1.1-.2.2-.3 0-.1.1-.2.1-.3 0-.1.1-.2.1-.3.1-.4.2-.9.2-1.4 0-.5 0-.9 0-1.4 0-.2 0-.5-.1-.7V82c0-.1 0-.2-.1-.3 0-.2 0-.3 0-.5s0-.4-.1-.5c-.1-.4-.1-.7-.2-1.1-.2-.7-.4-1.4-.8-2-.3-.6-.8-1.2-1.3-1.7-.1-.1-.3-.2-.4-.4-.1-.1-.3-.2-.4-.3-.1-.1-.3-.2-.4-.3-.1-.1-.3-.2-.5-.2l-1-.5.9-.2c.3-.1.6-.1.9-.1.3 0 .6 0 .8.1.5.1 1.1.2 1.6.3 1 .2 2.1.5 3.1.8 2.1.6 4.1 1.2 6.1 1.8 2 .6 4.1 1.2 6.1 1.7 2.1.5 4.1 1 6.2 1.4 1 .2 2.1.4 3.1.5 1 .2 2.1.3 3.1.5 2.1.3 4.2.6 6.3.9 1 .2 2.1.4 3.1.7 1 .3 2.1.6 3.1 1s2 .9 2.8 1.6c.4.3.8.7 1.2 1.1.3.4.6.9.9 1.4l.2.4-.4-.1c-.8-.3-1.6-.4-2.4-.5-.8-.1-1.6-.1-2.4.1-.4.1-.8.1-1.2.2-.4.1-.8.2-1.1.4-.7.3-1.4.8-1.9 1.4-.5.6-.9 1.3-1.2 2-.3.8-.4 1.6-.4 2.4 0 .8.1 1.6.3 2.4.1.4.2.8.3 1.2.1.2.1.4.2.5 0 .1.1.2.1.2s0 .1.1.1l.2.3c0 .2.1.4.1.6 0 .2.1.4.1.5.1.4.3.7.4 1 .2.3.4.6.7.8.1.1.3.2.4.3.1 0 .2.1.2.1.1 0 .2.1.2.1h.2l.1.2c.3.6.6 1.3 1.1 1.7.2.2.5.4.8.4.3.1.6.1.9 0 .6-.1 1.3-.4 1.8-.8.3-.2.6-.4.8-.6.1-.1.3-.2.4-.4.1-.1.3-.3.4-.4l.2-.2.3.1c.3.2.6.3 1 .4.3.1.7.3 1 .4.7.2 1.4.4 2.1.5.7.1 1.4.2 2.1.1.7 0 1.4-.2 2-.5.6-.3 1.2-.7 1.7-1.2s.9-1.1 1.2-1.7c.1-.3.3-.7.4-1 .1-.3.2-.7.3-1 0-.2.1-.4.1-.5l.1-.5.1-.5.1-.5v.1l-.1-1.1c0-.4-.1-.7-.1-1.1-.1-.7-.2-1.5-.4-2.2-.1-.7-.3-1.4-.5-2.1-.2-.7-.4-1.4-.6-2.1-.9-2.8-2.3-5.4-4.1-7.7-.9-1.2-1.9-2.2-3-3.2s-2.2-1.9-3.5-2.7c-1.2-.8-2.5-1.5-3.9-2.1-.7-.3-1.4-.6-2-.8-.5-.7-1.2-.9-1.9-1.2l-.2.1.2-.1"/><path fill="#F9C6A3" d="M35.9 78s-4.8-4.2-5.5-3.9c-.5-2.3 14.1 3.9 25.5 5.1 9.1 1 21.6 3 23.9 6.8.4.7.3 2.6-.1 1.9-.3-.4-.6-.8-6.6-2.7-7.5-2.3-33.8-1.7-37.2-7.2"/><path fill="#F2A885" d="M74.2 82.1c0 .2 0 .4 0 .6.7.2 1.3.5 1.9.7-.1-.1-.3-.3-.4-.4-.5-.3-1-.6-1.5-.9M74.2 81.8c0 .1 0 .2 0 .3.5.3 1 .6 1.5.9-.5-.4-.9-.8-1.5-1.2M73.7 85.5c0 .1 0 .2 0 .2 1 .5 1 .7 1.3 1.1.2 0 .3 0 .5 0 .3 0 .6 0 .9 0 .5 0 1.1 0 1.8.1-1-.3-2.4-.7-4.5-1.4M76.3 86.8c-.3 0-.6 0-.9 0 1.7.1 2.8.2 3.5.5-.2-.1-.5-.2-.9-.4-.6 0-1.2-.1-1.7-.1"/><path fill="#734D3C" d="M78.9 87.4s.1 0 0 0c.1 0 0 0 0 0"/><path fill="#F2A885" d="M74.2 82.7c-.1 1.4-.3 2.1-.5 2.8 2.1.7 3.5 1.2 4.3 1.5.4.1.7.3.9.4 0 0 .1 0 .1.1.3.1.4.2.6.4-.8-1.1-1.9-2.8-3.5-4.4-.6-.4-1.2-.6-1.9-.8"/><path fill="#A16C53" d="M71.3 87.9c0 .9-1.9-1-1-2.3 1-1.3 5.5 1 4.6 1.6-4.1-2.3-5.1-1.1-3.6.7z"/><path fill="#F2A683" d="M38.8 69.3c-1.6.5-4.5 2-6.5 4.4.7.1 1.6.3 2.7.6.7-1.1 1.5-2.1 2.1-2.8.5-1 1.1-1.8 1.7-2.2"/><path fill="#704C3B" d="M33.5 76c.1.2.3.4.4.8 0-.1.1-.1.1-.2s-.1-.1-.2-.2c0 0 0 0 0-.1s-.1-.2-.3-.3"/><path fill="#F2A683" d="M32.3 73.7c-.2.2-.3.4-.5.6 1.1 1.1 1.1.7 1.8 1.7.2.1.3.2.4.4.3-.7.6-1.4 1-2.1-1.1-.3-2-.5-2.7-.6"/><path fill="#FCDEC8" d="M39.8 69.2l-1.4.9s-.6.5-1.4 1.3c-.5.9-1.1 1.9-1.6 2.9.3.1.7.2 1 .3.9-1.4 2-3.4 3.4-5.4M34.2 76.5c.1.2.3.4.4.6.2.5.4.9.4.9s.1-.2.2-.6c-.3-.2-.6-.6-1-.9"/><path fill="#C3A18D" d="M34.2 76.5c-.1 0-.1.1 0 0 .1.2.3.4.4.6-.2-.2-.3-.4-.4-.6"/><path fill="#FCDEC8" d="M35.4 74.4c-.4.8-.8 1.5-1.3 2.1.4.3.8.6 1.1.9.2-.6.6-1.5 1.2-2.7-.3-.1-.6-.2-1-.3"/><path fill="#F8CBB3" d="M37.1 71.5c-.7.7-1.4 1.7-2.1 2.8.2 0 .3.1.5.1.5-1 1-2 1.6-2.9M34.1 76.5s.1 0 0 0c.1 0 .1 0 0 0 .1 0 0 0 0 0"/><path fill="#A38779" d="M34 76.4c0 .1.1.2.1.2s0 0 0-.1-.1-.1-.1-.1"/><path fill="#F8CBB3" d="M35 74.3c-.4.6-.7 1.3-1 2.1 0 0 .1.1.1.1.4-.6.8-1.3 1.3-2.1-.1 0-.3-.1-.4-.1"/><path fill="#A16C53" d="M34 76.9c-.3-.3-.7-.5-.6-.7.2-.4 3-5.3 4.7-6.5.7-.6.8 0 .4.4-.1.1-1.2 1.3-2.1 2.6-1.3 1.8-2.3 4.3-2.4 4.2z"/><path fill="#F9C6A3" d="M92.6 44.3c13.9-33-31.7-52.8-52-30.9-7.1 9.5-6.3 15.9-6.3 18.3.1 6.2-1.5 10.2-3.3 15.6 1.5 14 12.5 19.3 21 21.7 12.2 3.5 31.6 1.6 37.1-12.1 4.8 2.4 6.2-1.4 7.2-4.8 1.9-6.9-3.7-7.8-3.7-7.8"/><path fill="#B9B8BC" d="M93.7 40.8c-.3 1.1-.6 2.2-1 3.3 0 0 .1 0 .1 0 .2-.9.5-1.8.7-2.7 0-.2.1-.4.2-.6m1.2-10.1c.1 2.5-.1 5.1-.7 7.9 0-.1 0-.1 0-.2.4-2 .7-4 .7-6 0-.5 0-1.1 0-1.7m-2-9.5c.1.2.2.5.3.7l.3.7.3.7c.4 1 .7 1.9 1 2.9 0 0 0 .1 0 .1-.3-1.6-.9-3.3-1.9-5.1"/><path fill="#F3AE8B" d="M92.9 44.1c0 .1 0 .1-.1.2.4.1.7.2 1.1.4.3.2.7.4 1 .6-.8-.8-1.6-1.1-2-1.2m-1.8 10.1s-.1 0-.1 0c-.7-.2-.9-1.7-.4-3.6.5-1.8 1.3-3.1 2-3.1 0 0 .1 0 .1 0 .7.2.9 1.7.4 3.6-.5 1.7-1.4 3.1-2 3.1m-4.9-40.4c3.2 5.5 3.8 11.2 2.7 15.5-.4 7.8-5.5 12.1-3.4 17.8 1.9 7-3.6 16.4-9.1 20.8 1.8-.5 3.5-1.2 5-2.1.9-.5 1.7-1 2.5-1.6.8-.6 1.5-1.3 2.1-2 1.3-1.5 2.3-3.2 2.9-5.1l.2-.5.5.2c.5.3 1.1.4 1.7.4.1 0 .3 0 .4 0 .7-.1 1.4-.4 2-.9.6-.5 1.1-1.1 1.5-1.8.4-.7.7-1.4.9-2.2.1-.2.1-.4.1-.6 0-.2.1-.4.1-.6.1-.4.1-.8.1-1.2 0-.4 0-.8 0-1.2 0-.4-.1-.8-.3-1.2-.2-.8-.7-1.4-1.3-2-.3-.3-.6-.5-1-.7-.4-.2-.7-.4-1.1-.4h-.1v-.1c0-.1.1-.2.1-.3-.1 0-.1 0-.1 0 .4-1.1.7-2.2 1-3.3.2-.7.4-1.4.5-2.2.6-2.8.8-5.4.7-7.9-.1-1.4-.5-2.8-.9-4.1-.3-.9-.7-1.9-1.1-2.8l-.3-.7-.3-.7c-.2-.5-.5-.9-.7-1.3-1.3-2.6-3.1-5-5.3-7.2"/><path fill="#EC9378" d="M92.5 47.5c-.7 0-1.5 1.3-2 3.1-.5 1.9-.3 3.4.4 3.6 0 0 .1 0 .1 0 .7 0 1.5-1.3 2-3.1.5-1.9.3-3.4-.4-3.6 0 0 0 0-.1 0"/><path fill="#fff" d="M39.2 15.8c-.2.3-.4.5-.5.8-.6.8-1.1 1.7-1.5 2.6-.8 1.5-1.3 3.1-1.7 4.7.6-2.1 1.8-4.8 3.7-8.1"/><path fill="#FFF1E7" d="M50.9 6.9c-.2 0-.4 0-.7 0-.1 0-.1.1-.2.1-1.8.8-3.6 1.8-5.2 3-.8.6-1.6 1.3-2.3 1.9-.7.7-1.4 1.4-2.1 2.2-.4.5-.9 1.1-1.3 1.6-1.9 3.3-3.1 6-3.8 8.1-.1.3-.2.7-.2 1-.4 2-.4 4-.4 6 0 1 .1 2 .1 3 0 .5 0 1 0 1.5 0 .3 0 .5 0 .8 0 .2 0 .5-.1.8-.2 1.1-.5 2-.8 3-.3 1-.7 1.9-1 2.9-.7 1.9-1.1 3.8-1.1 5.8s.5 3.9 1.3 5.7c.8 1.8 2 3.4 3.4 4.7.4.4.7.7 1.1 1.1-3.5-5.9-6-13.6.1-21.5 5.7-6.7-1.6-19.4 13.7-30.2-.2-.4-.3-1-.4-1.5 0 0-.1 0-.1 0"/><path fill="#A16D54" d="M92.7 44.3c.3-1 .5-2 .8-2.9.3-1 .5-2 .7-3 .4-2 .7-4 .7-6s-.4-4-1-5.9c-.3-.9-.7-1.9-1.1-2.8l-.3-.7-.3-.7c-.2-.5-.5-.9-.7-1.3-1.9-3.5-4.5-6.7-7.6-9.2-1.5-1.3-3.2-2.4-5-3.3-.9-.5-1.8-.9-2.7-1.3-.3-.2-.7-.4-1.2-.5-.5-.2-.9-.3-1.4-.5-.9-.3-1.9-.6-2.9-.8-1-.2-2-.4-2.9-.6-2-.3-4-.4-6-.4-4 .1-8 1-11.7 2.6-1.8.8-3.6 1.8-5.2 3-.8.6-1.6 1.3-2.3 1.9-.7.7-1.4 1.4-2.1 2.2-.6.8-1.2 1.6-1.8 2.4-.6.8-1.1 1.7-1.5 2.6-.9 1.8-1.6 3.7-2 5.7-.4 2-.4 4-.4 6 0 1 .1 2 .1 3 0 .5 0 1 0 1.5 0 .3 0 .5 0 .8 0 .2 0 .5-.1.8-.2 1.1-.5 2-.8 3-.3 1-.7 1.9-1 2.9-.7 1.9-1.1 3.8-1.1 5.8s.5 3.9 1.3 5.7c.8 1.8 2 3.4 3.4 4.7 1.4 1.4 3 2.6 4.7 3.6 1.7 1 3.5 1.9 5.3 2.7 1.8.8 3.7 1.5 5.7 2.1 1 .3 1.9.6 2.9.8 1 .2 1.9.4 2.9.6 4 .6 8 .6 12 .1 2-.2 4-.6 5.9-1.1 1.9-.6 3.8-1.3 5.5-2.2.9-.5 1.7-1 2.5-1.6.8-.6 1.5-1.3 2.1-2 1.3-1.5 2.3-3.2 2.9-5.1l.2-.5.5.2c.7.3 1.4.5 2.1.4.7-.1 1.4-.4 2-.9.6-.5 1.1-1.1 1.5-1.8.4-.7.7-1.4.9-2.2.1-.2.1-.4.1-.6 0-.2.1-.4.1-.6.1-.4.1-.8.1-1.2 0-.4 0-.8 0-1.2 0-.4-.1-.8-.3-1.2-.2-.8-.7-1.4-1.3-2-.3-.3-.6-.5-1-.7-.4.1-.8-.1-1.2-.3m.2 0c.4.1.7.2 1.1.4.4.2.7.4 1.1.7.6.5 1.1 1.3 1.4 2 .1.4.3.8.3 1.2.1.4.1.8.1 1.3 0 .4 0 .8-.1 1.3 0 .2-.1.4-.1.6 0 .2-.1.4-.1.6-.2.8-.5 1.6-.9 2.4-.4.7-.9 1.4-1.6 2-.6.6-1.5 1-2.4 1.2-.4.1-.9.1-1.4 0-.4-.1-.9-.2-1.3-.4l.6-.3c-.6 2-1.5 3.9-2.9 5.6-.7.8-1.4 1.6-2.2 2.2-.8.7-1.7 1.3-2.6 1.8-1.8 1.1-3.7 1.9-5.7 2.5-2 .6-4 1-6.1 1.3-2.1.3-4.1.4-6.2.4-2.1 0-4.1-.1-6.2-.4-1-.1-2.1-.3-3.1-.6s-2-.6-3-.9c-2-.6-3.9-1.3-5.8-2.2-1.9-.8-3.7-1.8-5.5-2.9-1.8-1.1-3.4-2.4-4.9-3.9-1.5-1.5-2.7-3.2-3.6-5.2-.4-1-.7-2-1-3-.2-1-.3-2.1-.3-3.2s.1-2.1.4-3.1c.2-1 .6-2 .9-3 .4-1 .8-1.9 1.1-2.8.4-.9.7-1.9.9-2.8 0-.2.1-.5.1-.7 0-.2 0-.5 0-.7 0-.5 0-1 0-1.5 0-1-.1-2-.1-3.1 0-2 .1-4.1.5-6.1s1.1-4 2.1-5.8c.5-.9 1-1.8 1.6-2.6.6-.9 1.2-1.7 1.8-2.5 2.6-3.2 6-5.7 9.7-7.4 3.7-1.8 7.8-2.8 11.9-3 2.1-.1 4.1-.1 6.2.2 1 .1 2 .3 3.1.5 1 .2 2 .5 3 .8 1 .3 2 .7 2.9 1.1 1 .4 1.9.9 2.8 1.4 1.8 1 3.5 2.2 5.1 3.5 3.2 2.7 5.8 6 7.7 9.7.2.5.5.9.7 1.4l.3.7.3.7c.4 1 .7 1.9 1 2.9.6 2 .9 4.1.8 6.2-.1 2.1-.5 4.1-1 6.1-.2 1.6-.8 3.5-1.4 5.4"/><path fill="#A16C53" d="M91.1 51.2c-.1.5-.8.9-.7-.1 0-.3.2-4.9 3.1-3.5 0 0 .4.4.2.8 0 .1-1.9-2.3-2.6 2.8z"/><path fill="#F9C6A3" d="M37.7 60.3c7 7 22.8 14.2 38.6 7.5 2.3-3.2-39.4-8.2-38.6-7.5"/><path fill="#9E5755" d="M50.4 51.9c1-.2 2.9.7 6.4 1.3 3.4.6 6.6.2 7.4.5 3.3 1.3-2 8.3-9.7 6.2-3.4-1.6-2.6-5.7-4.1-8z"/><path fill="#F5968B" d="M54.9 60.2c3.6.8 6-.5 8.1-1.7-1.2-.9-3-1.3-4.9-1.7-3.2-.6-4.1-.3-6.2.7 3.5 2.7.5 2.1 3 2.7z"/><path fill="#7E4A43" d="M50.8 52.2s0 0 .1 0 .2 0 .3 0c.3 0 .7 0 1.2.1s1.1.2 1.8.4 1.5.3 2.3.5c.4.1.9.2 1.3.2.5.1.9.1 1.4.1 1 0 2 0 3.1 0 .3 0 .6 0 .8 0 .3 0 .6 0 .9.1.6.2 1 .8 1 1.4 0 .6-.2 1.2-.5 1.7s-.6 1-1.1 1.5c-.8.9-1.8 1.6-2.9 2-1.1.5-2.3.7-3.4.7-1.2 0-2.2-.2-3.2-.7-1-.5-1.7-1.3-2.1-2.2-.2-.4-.3-.8-.4-1.2-.1-.4-.2-.8-.2-1.1-.1-.7-.2-1.3-.2-1.8-.1-.5-.1-.9-.2-1.2 0-.1-.1-.2-.1-.3l.1-.2zm.1 0c.1.1.1.2.2.3.1.3.2.6.4 1.1.1.5.3 1.1.4 1.8.2.7.4 1.5.8 2.2.2.4.4.7.7 1 .3.3.7.6 1.1.8.1.1.2.1.3.1.1 0 .2.1.3.1l.2.1h.5c.5.1 1 .2 1.5.2 1.1 0 2.2-.1 3.2-.5s2.1-.9 2.9-1.7c.4-.4.8-.8 1.1-1.3.3-.5.5-1 .5-1.6 0-.3-.1-.5-.2-.7-.1-.1-.2-.2-.3-.3 0 0-.1-.1-.2-.1 0 0-.1 0-.2 0-.3 0-.5 0-.8 0-.3 0-.6.1-.8.1-1.1.1-2.2.2-3.2.2s-2-.2-2.9-.4c-.9-.2-1.7-.4-2.3-.6-.7-.2-1.3-.4-1.8-.6-.5-.2-.9-.2-1.1-.3-.1.1-.2.1-.3.1z"/><path fill="#B37F63" d="M52.9 63.1c-.4 0-.3.7 0 1.2.9 1.7 2.5 2.4 3 2.5.2 0 .5-.4.2-.7-.1-.2-.9-.3-1.9-1.2-.3-.5-1.1-1.8-1.3-1.8"/><path fill="#fff" d="M58.1 45.1c0 .5-.7.9-1.5.9-.8-.1-1.4-.5-1.4-1.1 0-.5.7-.9 1.5-.9.8.1 1.4.5 1.4 1.1z"/><path fill="#A16C53" d="M53.9 47.5c-.3-.3-.6-2.3.4-3.3 1.4-1.4 3.1-1.1 4.3-.4.5.3 1 .8 1 1.1-1.4-.6-2.8-1.5-4.6 0-.5.4-.6 1.7 0 3.1.2.3-.8-.2-1.1-.5zM57.4 47.7s.9-.5 1.4-.6c.5-.1 1.1.4 1.1.4.1.1.2.3 0 .5-.2.3-.6.2-1 .2s-1.1-.2-1.5-.5z"/><path fill="#F8B19F" d="M39.9 41.9c-2.2 0-4 1-4.3 2.6-.5 2.1 1.6 4.4 4.6 5.2.7.2 1.4.3 2 .3 2.2 0 4-1 4.3-2.6.5-2.1-1.6-4.4-4.6-5.2-.7-.2-1.4-.3-2-.3M75.4 45.9c-.1 0-.2 0-.3 0-3.9.1-7 2.1-6.8 4.4.1 2.2 3.2 3.9 6.9 3.9.1 0 .3 0 .4 0 3.9-.1 7-2.1 6.8-4.4-.1-2.1-4-3.9-7-3.9"/><path fill="#fff" d="M41.4 39c-1.1-.8.3-4.7 5.5-4.5 6.3.2 5.4 5.7 4.5 6.8-.6.7-1.5-.8-5.3-1.6-1.7-.5-4.3-.5-4.7-.7M79 43.6c1.2-.5-.8-4.8-5.9-6-6.1-1.4-7.3 5-5.8 6 .9.6 2.4-.8 5.3-.9.8 0 2.2.2 3.5.4 1.3.3 2.6.6 2.9.5"/><path fill="#292B38" d="M76.3 40.1c.2 1.5-1 2.9-2.7 3-1.7.2-3.2-.9-3.3-2.4-.2-1.5 1-2.9 2.7-3s3.1.9 3.3 2.4"/><path fill="#fff" d="M73.5 39.4c.1.7-.5 1.2-1.2 1.3-.7 0-1.4-.4-1.4-1.1-.1-.7.5-1.2 1.2-1.3.7-.1 1.3.4 1.4 1.1z"/><path fill="#292B38" d="M50.5 37.1c.2 1.4-1 2.6-2.5 2.8-1.5.1-2.9-.9-3-2.2-.2-1.4 1-2.6 2.5-2.8 1.5-.1 2.9.9 3 2.2"/><ellipse cx="46.8" cy="36.6" fill="#fff" transform="matrix(1 -.003 .003 1 -.121 .155)" rx="1.2" ry="1.1"/><path fill="#444449" d="M42 39.1c-.3.4-1.6-1.1-.5-2.4C47 30 54 36.4 51.7 41.2c1.1-6.8-8.2-8.7-9.7-2.1M77.9 43.6c1.1.3 1.9-.4 1.6-1.5-3.1-10.1-15-4.3-12.6 1.2.7-7.3 11.5-7.4 11 .3"/><path fill="#605652" d="M46.7 26.5c-2.4 0-3.2.4-4.5 2-.1.2.1.5.5.5 0 0 0 0 .1 0 .3 0 1.8-1.1 3.1-1.4.6-.2 3.1-.3 3.2-.4.3-.3-.5-.6-1.2-.6-.3-.1-.8-.1-1.2-.1M74.1 29.7c-.6 0-1.4.2-1.1.5.1.1 3.1.9 3.7 1.1 1.3.4 2.8 1.7 3.1 1.7 0 0 .1 0 .1 0 .4 0 .6-.3.5-.5-1.3-1.8-2.8-2.7-6.3-2.8.1 0 .1 0 0 0"/><path fill="#5E668D" d="M47.3 37.9c-.3 0-.6.2-.6.6s.3.5.6.5.6-.2.6-.6-.3-.5-.6-.5M72.9 40.9c-.3 0-.6.2-.6.6 0 .3.2.6.6.6.3 0 .6-.2.6-.6 0-.3-.3-.6-.6-.6"/><path fill="#242439" d="M78.5 7.6c2.4.6 3.7.9 4.4 2-1.8-2.5-2.6-3.6-5-4.6-4.6-3.9-17.1-7.5-26.9-.6-1.3 1.2-3.3 2.6-4.7 4 0 0 .5-.4 1.4-.7.9-.4 2.1-.8 3.3-.7.4 5 8.5 8.8 12.1 8.6-2.4-1.2-6.6-6-3.6-6.6 2.1 3.4 8 7.4 12.5 8.1-1.9-1.4-1.5-5.8.3-7.6.1 1.6.9 4.7 3.7 7.8-2-5.6.8-9.6 2.5-9.7"/><path fill="#393D5D" d="M69.4 4.1c.4 1.4-.4 2.7-1.5 3.3-.5.3-1.1.4-1.9.4-1.6 0-3.7-.7-6.1-2.2 1.9 3.6 5.9 6.5 7.9 7.3-2.6-3.3 1.3-5.1 3-5.1.3 0 .5.1.6.2-.2-2.9-2-3.9-2-3.9"/></svg>