<svg xmlns="http://www.w3.org/2000/svg" viewBox="0 0 100 140.1" enable-background="new 0 0 100 140.1"><path fill="#F9CCB2" d="M28.8 96.3c-1.3 1.2-5.8 6.1-6.4 7.7-.6-.6-.7-1.2-1.3-1.7-1.4-8.3-8-3.5-4.1 1.5-.6-.3-.6-.3-1-.2-.9-2.7-4.1-3.1-2.7 1.7-1.5-1.6-3.9 1.3-1 3-1.5.1-2.3 2.4.3 2.9-.4 2.2 1.1 4.7 4.7 8.3 8.2 14.3 12.2 5.6 13.7 3.3 5.2-2.8 7.5-2.5 9.5-1.6 4-4.3-2-34.1-11.7-24.9"/><path fill="#AFADB1" d="M26.9 98.3c-1.5 1.3-2.4 2.3-3 3.3.4-.6.9-1.1 1.3-1.6.5-.5 1-1 1.5-1.5.1-.1.1-.2.2-.2"/><path fill="#F1A78F" d="M27.6 97.7c-.2.2-.5.4-.7.6l-.1.1c.1-.1.2-.2.3-.3.1-.1.3-.3.5-.4m.1 0c-.2.2-.4.3-.6.5-.6.6-1.2 1.2-1.8 1.8-.6.6-1.1 1.3-1.5 2-.1.1-.1.2-.2.3 7.7 7.5 8.3 15.5 8.3 19.5 0 0 .1 0 .1-.1l.3-.2.4-.2c.2-.1.5-.2.7-.3.2-.1.5-.2.7-.3.2-.1.5-.1.7-.2.3 0 .5-.1.8-.2.3 0 .5-.1.8-.1.5-.1 1.1-.1 1.6-.1s1 0 1.5.1c.3 0 .7.1 1 .1-.4-.3-.7-.6-1-.9-1-.9-2-1.9-2.9-2.9s-1.8-2.1-2.6-3.1c0-.1-.1-.2-.1-.2 0-.1-.1-.1-.1-.2-.3-.4-.5-1-.8-1.8-.3-.7-.6-1.4-.9-2.1-.6-1.5-1.1-3-1.5-4.5-.1-.4-.2-.8-.3-1.2-.1-.4-.2-.8-.2-1.2-.1-.4-.1-.8-.1-1.2v-.6c0-.2 0-.4 0-.6s0-.4 0-.6v-.6c0-.2 0-.4.1-.6 0-.1 0-.2.1-.4-.3 0-.6.1-.9.1-.7.2-1.1.1-1.6 0"/><path fill="#F3B097" d="M12.9 111.1c-.1 0-.1 0-.2 0h.2v.2c-.2.8 0 1.6.4 2.4.1.2.2.4.3.6s.2.4.3.6c.2.4.5.7.7 1 .5.7 1.1 1.3 1.6 1.9.6.6 1.2 1.2 1.8 1.8.4.7.7 1.3 1.1 2 .5.8 1.2 1.7 1.8 2.6.3.4.7.8 1.1 1.2.3.3.6.5.9.7s.6.4 1 .6c.3.2.7.3 1.1.4.2 0 .5.1.7.1.1 0 .3 0 .4 0 .7-.1 1.4-.4 2-.8s1.1-1 1.6-1.6l.1-.1s-1.2.5-2.9.5c-2.4 0-5.7-1.1-7.4-6.7-4.1-2.4-5-6.4-5.9-7.1-.4-.2-.6-.3-.7-.3"/><path fill="#BC755B" d="M29.2 96.8c-.2.1-.4.2-.6.3-.2.1-.4.2-.5.4-.3.2-.7.5-1 .8-.6.6-1.2 1.2-1.8 1.8-.6.6-1.1 1.3-1.5 2-.2.4-.5.7-.7 1.1s-.4.7-.5 1.1l-.1.3-.2-.2c-.1-.1-.3-.3-.4-.4s-.2-.3-.3-.5c-.1-.1-.2-.3-.3-.4s-.2-.2-.3-.3h-.1v-.1c-.1-.5-.2-1.1-.4-1.6s-.4-1-.7-1.4c-.3-.4-.6-.8-1.1-1-.2-.1-.4-.2-.6-.2s-.4 0-.6.1c-.4.2-.7.6-.9 1-.2.4-.3.9-.3 1.4s.1 1 .3 1.5c.2.5.5.9.8 1.3l1.2 1.7-1.8-1-.2-.1c-.1 0-.1-.1-.2-.1 0 0-.1 0-.2 0l-.4.1-.1-.4c-.2-.5-.4-1-.8-1.3-.2-.2-.4-.3-.6-.4-.2 0-.4 0-.5.1s-.2.3-.3.6c0 .2-.1.5 0 .8 0 .6.1 1.1.3 1.7l.3 1.2-.9-.9-.1-.1-.1-.1s-.1 0-.1-.1-.1 0-.1 0c-.1 0-.2 0-.3 0s-.2 0-.3 0-.2.1-.3.1-.2.1-.2.2c-.1.1-.1.1-.2.2 0 .1-.1.2-.1.3 0 .1 0 .2-.1.3v.4c0 .1.1.2.1.3 0 .1.1.2.2.3.1.1.1.2.2.2.1.1.2.1.3.2s.2.1.3.2l.5.4h-.6c-.1 0-.2 0-.2 0-.1 0-.2 0-.2.1-.1.1-.3.2-.4.3-.2.2-.4.6-.3.9 0 .1 0 .2 0 .2 0 .1.1.1.1.2s.1.1.2.2.1.1.2.2c.3.2.6.3 1 .4h.1v.1c-.2.8 0 1.6.4 2.4.1.2.2.4.3.6s.2.4.3.6c.2.4.5.7.7 1 .5.7 1.1 1.3 1.6 1.9.6.6 1.2 1.2 1.8 1.8.4.7.7 1.4 1.2 2.1.4.7.8 1.3 1.3 2 .5.6 1 1.2 1.6 1.8.3.3.6.5.9.7s.6.4 1 .6c.3.2.7.3 1.1.4s.7.1 1.1 0c.7-.1 1.4-.4 2-.8s1.1-1 1.6-1.6.9-1.3 1.2-2v-.1l.1-.1c.2-.1.4-.3.6-.5.2-.1.4-.3.7-.4l.3-.2.4-.2c.2-.1.5-.2.7-.3.2-.1.5-.2.7-.3.2-.1.5-.1.7-.2.3 0 .5-.1.8-.2.3 0 .5-.1.8-.1 1-.1 2.1-.1 3.1 0 .5 0 1 .1 1.5.3.5.1 1 .3 1.5.5l-.6.1c.4-.4.6-1.1.8-1.7.1-.6.2-1.3.3-2 .1-1.4 0-2.8-.1-4.2-.2-1.4-.4-2.8-.7-4.1-.2-.7-.3-1.4-.5-2-.2-.7-.4-1.3-.6-2-.5-1.3-1-2.6-1.7-3.8-.7-1.2-1.5-2.4-2.5-3.4-.5-.5-1.1-.9-1.7-1.3-.6-.3-1.3-.6-2-.7s-1.4-.1-2.1 0c-.9.4-1.6.6-2.2 1m-.1-.1c.6-.3 1.3-.6 2-.7s1.4-.2 2.1-.1c.7.1 1.4.3 2 .7.6.3 1.2.8 1.8 1.2 1.1 1 2 2.1 2.7 3.3.8 1.2 1.4 2.5 2 3.8.3.7.5 1.3.7 2s.4 1.4.6 2.1c.4 1.4.6 2.8.8 4.2.2 1.4.3 2.9.2 4.3 0 .7-.1 1.5-.3 2.2s-.4 1.5-1 2.1l-.2.3-.3-.2c-.4-.2-.9-.3-1.3-.4-.2 0-.5-.1-.7-.1s-.5-.1-.7-.1c-1-.1-1.9-.1-2.9 0-.2 0-.5 0-.7.1-.2 0-.5.1-.7.1s-.5.1-.7.2-.5.1-.7.2-.5.2-.7.3l-.3.1-.3.2c-.2.1-.4.2-.6.4-.2.1-.4.3-.6.4l.1-.2c-.4.8-.8 1.5-1.3 2.1s-1.1 1.3-1.8 1.8-1.5.8-2.4.9c-.4 0-.9 0-1.3-.1s-.8-.2-1.2-.4c-.4-.2-.7-.4-1.1-.7-.3-.3-.6-.5-.9-.8-.6-.6-1.1-1.2-1.6-1.9s-.9-1.3-1.3-2-.8-1.4-1.1-2.1c-.6-.6-1.2-1.2-1.7-1.9-.6-.6-1.1-1.3-1.6-2s-1-1.4-1.3-2.2c-.2-.4-.3-.8-.4-1.2-.1-.4-.1-.9 0-1.3l.1.2c-.4-.1-.8-.2-1.1-.5-.1 0-.2-.1-.2-.2-.1-.1-.1-.1-.2-.2s-.1-.2-.2-.3-.1-.2-.1-.3c0-.1 0-.2 0-.3 0-.1 0-.2.1-.3.1-.2.2-.4.3-.6s.3-.3.5-.4c.1 0 .2-.1.3-.1s.2 0 .3 0l-.1.4c-.1-.1-.2-.1-.3-.2s-.2-.1-.3-.2-.2-.2-.3-.3c-.1-.1-.2-.2-.2-.3-.1-.1-.1-.2-.2-.4 0-.1 0-.1-.1-.2 0-.1 0-.1 0-.2s0-.1 0-.2 0-.1 0-.2 0-.3.1-.4.1-.3.2-.4c.1-.1.1-.2.3-.4.1-.1.2-.2.3-.3.1-.1.3-.1.4-.2.1 0 .3-.1.5-.1.1 0 .3 0 .5.1.1 0 .1 0 .2.1.1 0 .1.1.2.1 0 0 .1.1.2.1l.2.1-.6.3c-.2-.6-.3-1.2-.4-1.8 0-.3 0-.6 0-1 0-.2.1-.3.2-.5s.2-.3.4-.5c.2-.1.4-.2.6-.3.2 0 .4 0 .6 0 .4.1.7.3 1 .5.5.5.9 1.1 1.1 1.7l-.5-.3c.1 0 .2 0 .3 0 .1 0 .1 0 .2 0s.1 0 .2.1c.1 0 .2.1.3.1l.2.1-.6.6c-.4-.5-.7-1-.9-1.5-.2-.6-.4-1.2-.4-1.8 0-.6.1-1.2.4-1.8.1-.3.3-.6.6-.8.2-.2.5-.4.8-.6.3-.1.6-.2 1-.2.3 0 .7.1 1 .3s.5.4.7.6.4.5.6.7c.3.5.5 1.1.7 1.6.2.6.3 1.1.4 1.7l-.1-.1c.1.1.3.3.4.5s.2.3.3.5c.2.3.3.6.6.9l-.3.1c.2-.4.4-.8.6-1.2.2-.4.5-.7.7-1.1.5-.7 1.1-1.3 1.6-2 .6-.6 1.2-1.2 1.8-1.8.3-.3.6-.6 1-.8.2-.1.4-.2.5-.4 0-.1.1-.2.3-.3"/><path fill="#BC755B" d="M22.1 104c-.1-.4 0-.4.2-.4.3.2 1 1.1 1.7 2.9.2.5.1 1-.1.8-.1-.1-.6-1.3-.9-1.8-.5-.9-.8-1.3-.9-1.5zm-1.6 7.4c.1.4 0 .4-.2.4-.3-.1-1.1-1.1-1.8-2.8-.2-.5-.2-1 .1-.9.1 0 .7 1.2.9 1.7.7 1.1 1 1.4 1 1.6zm-3.8-8.8c-.2-.3-.2.2-.2.4 0 .4 0 .2 1 1.6.3.4.7.5.7.1 0-.1-.6-.9-.9-1.3-.6-1-.5-.7-.6-.8zm-3.4 1.8c-.2-.3-.2.2-.2.4 0 .4-.5-.2.6 1.2.3.4.7.5.7.1-.1-.2-1-1.6-1.1-1.7zm17.5 18.1c0 .4.3.1.4 0 .3-.2.1.6.4-1.2.1-.6 0-1-.3-.8-.1.2-.5 1.8-.5 2z"/><path fill="#F9CCB2" d="M72.9 101.8s-19.1-13.5-44-6c-2.2.6 3.8-16.4 9.6-20.8 7-5.3 37.7 3.9 42.3 9.8 3.3 4.3 4.9 21.4-7.9 17"/><path fill="#fff" d="M84.1 107.2c2.4 12.8-27.8 34.8-49.9 6.3 0 0-7-12.8-2.8-17.9 10-6.8 47.3 2 52.7 11.6"/><path fill="#CBCFD1" d="M68.7 101.9c.1-.4.4-.9.2-1-.3-.2-4.2-1.7-6.4-2-.9 0-.6.5-.1.6.1 0 1.7.6 3 1.1 1.9.5 3.3 1.5 3.3 1.3"/><path fill="#E6A18B" d="M33 111.3c.3.7.6 1.3.8 1.8 0 .1.1.1.1.2-.1-.3-.3-.5-.4-.8-.2-.4-.4-.8-.5-1.2 0 .1 0 0 0 0"/><path fill="#F4F5F8" d="M30.4 100.4c0 .1 0 .1 0 0v.7c0 .4.1.8.1 1.2 0 .4.1.8.2 1.1.1.4.2.7.3 1.1.4 1.5 1 2.9 1.6 4.4.3.7.6 1.4 1 2.1.2.4.3.7.5 1.1.2.3.4.7.5 1 .8 1 1.7 2.1 2.6 3 .9 1 1.9 1.9 2.9 2.8s2.1 1.7 3.1 2.5c1.1.8 2.2 1.5 3.4 2.1s2.4 1.2 3.6 1.6c1.2.5 2.5.8 3.8 1.1 1.7.3 3.4.5 5.1.5.5 0 1.1 0 1.6 0 0-.1 0-.2 0-.3-.3-.8-.5-1.6-.6-2.4s-.2-1.7-.2-2.5 0-1.7.2-2.6c.1-.4.2-.9.4-1.3.1-.4.4-.7.6-1.1v-.1c0-.1 0-.2 0-.3v-.7c0-.5 0-1 0-1.5v-.1c-3.1 2.7-6.5 3.8-9.9 3.8-5.5 0-10.8-2.8-14-5.9-3.4-3.4-5.4-9.2-6.8-11.3m37.6-.2c-.1 0-.2 0-.3 0 .1 0 .2.1.3 0 0 .2 0 .1 0 0m-5.2-.6c-.6 1.2 4.6 2.4 3.5 7.2-.7 1.4-1.5 2.7-2.3 3.8 0 0 0 0 .1 0h.1c.2 0 .5 0 .7.1.1 0 .2.1.4.2.1.1.2.2.3.3.2.3.4.5.6.8.1-.4.3-.8.5-1.2.2-.5.4-.9.7-1.3.3-.4.6-.8.9-1.2.7-.7 1.4-1.2 2.3-1.7-.2-.2-.5-.5-.6-.8-.2-.4-.4-.8-.5-1.2 0-.2-.1-.4-.1-.6 0-.1 0-.3-.1-.5 0 0-.1-.1-.1-.2-.1-.1-.1-.2-.2-.3-.1-.2-.2-.4-.3-.6-.1-.2-.1-.5-.2-.7-.6-.3-1.6-.8-2.8-1.2-1.3-.4-2.4-.8-2.9-.9"/><path fill="#C2C7CB" d="M62.8 99.5c.6.2 1.7.6 2.6.9 1.2.4 2.3 1 2.8 1.2 0-.2-.1-.4-.1-.6s-.1-.5-.1-.8c-.1 0-.2-.1-.3-.1-.1 0-.2 0-.4 0-1 .2-2.5 0-4.5-.6"/><path fill="#BCBCBB" d="M84.9 108.6c0 .2 0 .4 0 .6 0 .7-.2 1.4-.4 2.1-.4 1.4-1 2.7-1.7 3.9-.7 1.2-1.6 2.3-2.5 3.4-.9 1-1.9 2-3 2.9-2.2 1.8-4.6 3.1-7.1 4.2s-5.3 1.8-8 2c-2.8.3-5.5.1-8.2-.5-1.3-.3-2.7-.7-4-1.2s-2.5-1.1-3.7-1.7c-1.2-.7-2.4-1.4-3.5-2.2-1.1-.8-2.2-1.7-3.2-2.6s-2-1.9-2.9-2.9-1.8-2.1-2.6-3.1c-.2-.4-.4-.7-.6-1.1-.2-.4-.4-.7-.5-1.1-.3-.7-.7-1.4-1-2.2-.6-1.5-1.1-3-1.5-4.5-.1-.4-.2-.8-.3-1.2-.1-.4-.2-.8-.2-1.2-.1-.4-.1-.8-.1-1.2v-.6c0-.2 0-.4 0-.6s0-.4 0-.6v-.6c0-.2 0-.4.1-.6 0-.2.1-.4.1-.6.1-.2.1-.4.2-.6s.1-.4.2-.6.2-.4.3-.6l.4-.5c.5-.3 1.1-.6 1.6-.9.6-.2 1.1-.4 1.7-.6 1.2-.3 2.3-.5 3.5-.7 2.3-.3 4.7-.3 7.1-.2 4.7.2 9.4 1 14 2 2.3.5 4.6 1.1 6.8 1.8 2.3.7 4.5 1.5 6.6 2.4 2.2.9 4.3 1.9 6.3 3.2 1 .6 2 1.3 2.9 2.1.9.8 1.7 1.6 2.3 2.7l.9 1.7m-1.7-2.7c-.4-.5-.9-1-1.4-1.4-.9-.8-1.9-1.4-2.9-2-2-1.2-4.1-2.2-6.3-3.1-2.2-.9-4.4-1.7-6.7-2.3-2.3-.7-4.5-1.3-6.8-1.8-4.6-1-9.3-1.7-14-1.9-2.3-.1-4.7 0-7 .3-1.2.1-2.3.4-3.4.7-.6.2-1.1.4-1.6.6s-1 .5-1.5.8h.1l-.3.5c-.1.2-.2.3-.3.5-.1.2-.1.3-.2.5s-.1.4-.2.5c-.1.2-.1.4-.1.6s0 .4-.1.6v.6c0 .2 0 .4 0 .6s0 .4 0 .6v.6c0 .4.1.8.1 1.2 0 .4.1.8.2 1.1.1.4.2.7.3 1.1.4 1.5 1 2.9 1.6 4.4.3.7.6 1.4 1 2.1.2.4.3.7.5 1.1.2.3.4.7.6 1 .8 1.1 1.7 2.1 2.6 3.1.9 1 1.9 1.9 2.9 2.8s2.1 1.7 3.1 2.5c1.1.8 2.2 1.5 3.4 2.1s2.4 1.2 3.6 1.6c1.2.5 2.5.8 3.8 1.1 2.6.5 5.3.6 7.9.3 2.6-.3 5.2-1 7.7-2 2.4-1 4.7-2.4 6.8-4.1 1-.8 2-1.8 2.9-2.7.9-1 1.7-2 2.3-3.2.6-1.1 1.2-2.3 1.5-3.5.1-.6.3-1.2.3-1.9 0-.2 0-.3 0-.5s0-.3 0-.5v-.2c0-.1 0-.1 0-.2l-.1-.5-.3-1.7"/><path fill="#F9CCB2" d="M84.5 105.1s1.8 2.6 3.4 7.7c0 0 2.7 4.8.8 10.6-.8 2.9-5.6 12.1-14.8 11.9 0 0-2.7.8-4.1 2.1-1.4 1.8-8.7 3.8-8.9-5.8 0-1.5.4-3.7.4-5.6-.7-4.2-1.1-8.1.4-9.5.2-.9-1.1-3 1.3-5.3-.2.2 0 0 .3-.1.7-.3 2.2-.6 2.9 2.3 2.1-12.1 18.3-8.3 18.3-8.3"/><path fill="#F1A78F" d="M71.1 107.1c-.1 0-.1.1-.2.1-.8.5-1.5 1-2.1 1.7-.2.2-.4.5-.6.8.1 0 .2-.1.3-.1.4-.1.8-.3 1.3-.3.6 0 1.3.2 1.8 1.1 1.3 2.3 3 3.1 4.6 3.1 2 0 3.6-1.3 3.6-2.4 3.5 3.7 8.1 3.7 8.1 3.7 0-.2 0-.3 0-.5-.1-.5-.3-1-.4-1.5l-.3-1c-.1-.3-.2-.6-.3-1-.1-.3-.2-.6-.3-1 0-.1 0-.2-.1-.2-.2-.3-.3-.5-.5-.7-.2 0-.3 0-.5 0s-.5 0-.7 0c-.6 0-1.1 0-1.6-.1-.8-.1-1.5-.3-2.2-.5-.4-.1-.7-.2-1.1-.4-.3-.1-.5-.2-.8-.3-.1.1-.1.1-.2.2s-.3.3-.4.4c-.3.2-.6.5-.9.7s-.7.4-1 .6c-.4.2-.7.3-1.2.4-.2 0-.3 0-.5 0s-.5 0-.7-.1c-.4-.1-.8-.3-1.1-.6-.3-.3-.6-.6-.8-.9-.1-.2-.2-.3-.3-.5 0-.1-.1-.2-.2-.4h-.1c-.3-.2-.4-.2-.6-.3.1.1 0 0 0 0"/><path fill="#CAC8CB" d="M71.4 136.3c-.6.3-1.2.7-1.6 1.2-.6.7-2.1 1.5-3.7 1.5-.6 0-1.2-.1-1.8-.4.4.2.7.3 1.1.4.3 0 .5.1.8.1.5 0 1.1-.1 1.6-.2.4-.1.8-.3 1.1-.5.3-.2.7-.4.9-.7l.2-.2c.1-.1.1-.1.2-.2s.1-.1.2-.2c.1 0 .2-.1.2-.2.2-.3.5-.4.8-.6"/><path fill="#F4B59C" d="M62.1 123.8c-.3 0-.6.1-.9.2 0 0-.1.1-.1.3.1.6.3 1.2.5 1.8v.1c0 .9-.1 1.7-.2 2.5s-.2 1.6-.3 2.4c0 .2 0 .4 0 .6 0 .2 0 .4 0 .6 0 .4 0 .8.1 1.2.1.8.3 1.6.6 2.3s.7 1.4 1.3 1.9c.3.3.6.5 1 .7.6.3 1.2.4 1.8.4 1.7 0 3.2-.8 3.7-1.5.4-.5 1-.8 1.6-1.2 0 0 .1 0 .1-.1-1.1.4-2.9 1.1-4.4 1.1-1 0-1.9-.3-2.5-1.1-1.6-2.4-1.3-5.4-1.1-6.2.5-1.8 3.5-1.8 3.5-1.8s-2.3-4.2-4.7-4.2"/><path fill="#CAC8CB" d="M63.1 138.4c.6.6 1.4 1 2.5 1 .2 0 .4 0 .6 0-.1 0-.2 0-.2 0-.3 0-.5 0-.8 0-.8-.2-1.5-.5-2.1-1m8.5-1.9c-.3.2-.6.4-.9.6-.1 0-.1.1-.2.2-.1 0-.1.1-.2.2s-.1.1-.2.2l-.2.2c.5-.4 1.1-.9 1.7-1.4"/><path fill="#BC745B" d="M84.5 105.3c.4.6.7 1.1 1.1 1.7.2.3.3.6.5.9.1.1.1.3.2.5.1.1.1.3.2.5.1.3.3.6.4.9s.2.6.4.9c.1.3.2.6.4 1l.3 1c.2.6.4 1.2.6 1.9.2.6.3 1.3.4 1.9.2 1.3.3 2.6.2 3.9 0 .6-.1 1.3-.2 2-.1.6-.3 1.3-.5 1.9-.4 1.3-1 2.4-1.7 3.6-.3.6-.7 1.1-1.1 1.6s-.8 1-1.3 1.5c-.9 1-1.9 1.8-3 2.5s-2.3 1.2-3.6 1.6c-1.3.3-2.6.5-3.9.4h.1c-.7.3-1.4.6-2.1 1-.3.2-.7.4-1 .6-.1 0-.1.1-.2.2-.1 0-.1.1-.2.2s-.1.1-.2.2l-.2.2c-.3.4-.6.6-1 .8s-.8.4-1.2.5c-.8.2-1.7.3-2.5.2s-1.7-.5-2.3-1c-.7-.6-1.2-1.3-1.5-2.1s-.6-1.6-.7-2.4c-.1-.4-.1-.8-.1-1.2 0-.2 0-.4 0-.6 0-.2 0-.4 0-.6 0-.8.1-1.7.2-2.5s.1-1.6.1-2.4v.1c-.3-.8-.5-1.6-.6-2.5-.1-.8-.2-1.7-.2-2.5s0-1.7.2-2.6c.1-.4.2-.9.4-1.3s.4-.8.7-1.2l-.1.2s0-.1 0-.2 0-.2 0-.3v-.7c0-.5 0-1 0-1.5.1-.5.2-1 .5-1.5s.6-.9 1-1.2l.1-.1h.1c.2-.1.4-.2.6-.2.2-.1.5-.1.7-.1.3 0 .6 0 .8.1.1 0 .2.1.4.2.1.1.2.2.3.3.3.4.5.8.7 1.2.2.4.3.8.4 1.2l-1 .1c.1-.5.1-1 .3-1.4.1-.5.3-.9.5-1.4s.4-.9.7-1.3c.3-.4.6-.8.9-1.2.7-.7 1.5-1.3 2.3-1.8.9-.5 1.8-.8 2.7-1.1 1.8-.5 3.8-.7 5.6-.7.9 0 1.9 0 2.8.1s1.7-.3 2.6 0m-.1.1c-.5 0-.9-.1-1.4-.1s-.9 0-1.4-.1c-.9 0-1.9 0-2.8 0-1.9.1-3.7.4-5.5 1-.9.3-1.7.6-2.5 1.1s-1.5 1-2.1 1.7c-.3.3-.6.7-.8 1.1-.2.4-.5.8-.6 1.2-.2.4-.3.8-.4 1.3-.1.4-.2.9-.2 1.3l-.3 2.1-.6-2c-.1-.4-.2-.7-.4-1.1-.1-.3-.3-.6-.6-.9 0 0-.1-.1-.2-.1 0 0-.1-.1-.2-.1s-.2-.1-.3 0c-.3 0-.6.2-1 .3l.1-.1c-.3.3-.6.6-.8 1s-.3.8-.4 1.2c-.1.4-.1.9 0 1.3v.7c0 .1 0 .3 0 .4s0 .3 0 .5v.1l-.1.1c-.2.2-.4.5-.6.9-.1.3-.3.7-.3 1.1-.2.8-.2 1.6-.2 2.3 0 1.6.3 3.2.8 4.7v.1c0 .9-.1 1.7-.2 2.5s-.2 1.6-.3 2.4c0 .2 0 .4 0 .6 0 .2 0 .4 0 .6 0 .4 0 .8.1 1.2.1.8.3 1.6.6 2.3s.7 1.4 1.3 1.9 1.3.9 2.1 1 1.6 0 2.4-.2c.4-.1.8-.3 1.1-.5.3-.2.7-.4.9-.7l.2-.2c.1-.1.1-.1.2-.2s.1-.1.2-.2c.1 0 .2-.1.2-.2.3-.2.7-.4 1-.6.3-.2.7-.4 1.1-.6.4-.2.7-.3 1.1-.5.6 0 1.3 0 1.9-.1s1.2-.2 1.8-.4c1.2-.4 2.3-.9 3.4-1.7 1-.7 2-1.6 2.8-2.5s1.6-2 2.2-3.1c.3-.6.6-1.1.9-1.7s.5-1.2.7-1.8c.2-.6.3-1.2.5-1.8.1-.6.2-1.2.2-1.9.1-1.2 0-2.5-.1-3.8-.1-.6-.2-1.2-.3-1.9-.1-.6-.3-1.2-.5-1.8l-.3-1c-.1-.3-.2-.6-.3-1s-.2-.6-.3-1c-.1-.3-.2-.6-.3-.9 0-.2-.1-.3-.2-.5-.1-.1-.1-.3-.2-.5-.1-.3-.3-.6-.4-.9 0-.2-.3-.8-.7-1.3"/><path fill="#BC735A" d="M65.7 113c.1-.4.3-.7.4-.5.1.4.6 2.5 0 4-.2.5-.4.2-.5-.2 0-.1.1-.6.2-1.2.2-1.1-.1-1.8-.1-2.1zm.7 3.8c.2-.2.1-2.6 1.7-2 1.8.6.4 3.6.4 3.6s.2.5.4.2 1.6-3.6-.5-4.5c-2-.9-2.3 1.6-2.4 2.3-.1.5.2.6.4.4zm2.6 1.5c.3-.1.6-2.1 1.9-1 1.7 1.5-.1 3.3-.1 3.3s.1.6.4.4 2-2.3.2-4.2c-1.4-1.5-2.5.3-2.8 1-.1.4.2.6.4.5zm2.5 2.3c.3 0 1.1-1.8 2-.3s-.3 2.2-.3 2.2-.2.6.2.6 1.8-1.5.7-3.2c-1.1-1.7-2.5-.4-2.9.3-.2.4.1.4.3.4zm-8.2 6.5c-.3-.3-.5-.7-.3-.7.4 0 2.6 0 3.8 1.4.4.4 0 .6-.4.6-.1 0-.5-.4-1-.7-1.2-.6-2-.5-2.1-.6z"/><path fill="#F9CCB2" d="M71 74.5s20.3 6 20.6 26.1c-.9 12.5-12.1 6.5-12.1 6.5s-5.3 5.3-7.5-.1c0 0-2.1-.3-2.5-3.7-.8-.3-2.9-8.4 3-11.1 0 0 3.4-1.4 7.3-.1-4.6-9.4-27.8-11.3-40.5-12.2-3.5-.2-6.6-1.2-7.7-1 3.9 2.3 4.4 7.3 4.4 7.3s.8 4.3-.7 5.7c-.2 1.4-.9 2-2.3 3.2-2.3 4.1-7.8 1.7-9.4-1.1 0 0-8.4-20.5 21.4-23.9 8.1 5.4 19.1 4.9 23.9 4.5 1.9-.1 2.8-.3 2.1-.1"/><path fill="#F3B097" d="M91.1 99.2c-1 3.1-3.2 5.2-6.2 5.2-1.1 0-2.4-.3-3.7-.9-.6-.3-1.3-.8-2.6-.8-.5 0-1.2.1-1.9.3-2.6 1.4-3.3 4.8-2.6 5.5.2.2.4.4.6.5h.1c.1 0 .3 0 .4 0 .6-.1 1.3-.4 1.8-.8.3-.2.6-.4.8-.6.1-.1.3-.2.4-.4.1-.1.3-.2.4-.4l.2-.2.3.1c.1 0 .2.1.2.1.1.1.2.1.3.2.1 0 .3.1.4.1.3.1.7.2 1 .4.7.2 1.4.4 2.1.5.5.1 1 .1 1.6.1.2 0 .4 0 .6 0 .7 0 1.4-.2 2-.5s1.2-.6 1.7-1.2c.5-.5.9-1.1 1.2-1.7.1-.3.3-.6.4-1 .1-.3.2-.7.3-1 0-.2.1-.4.1-.5l.1-.5.1-.5v-.5l-.1-1.1c0-.1 0-.3 0-.4"/><path fill="#F29E83" d="M45 71.8c.9 2.9 5.2 8 12.6 8 3.7 0 8.2-1.3 13.4-4.7-.6.1-1.3.2-1.9.3-1.9.2-3.9.4-5.9.4-.1 0-.3 0-.4 0-2.1 0-4.2-.2-6.3-.5-1.1-.1-2.1-.3-3.1-.6-.5-.1-1-.3-1.5-.4-.7-.1-1.3-.3-2-.5-1.6-.5-3.1-1.1-4.6-1.8-.1-.1-.2-.2-.3-.2"/><path fill="#fff" d="M27.1 76.8c-2.5 2.2-3.9 4.9-4.6 7.5-.2 1-.3 1.9-.3 2.9s0 2 .2 2.9c.1.8.3 1.6.6 2.3-.8-3.1-1.7-10.1 4.1-15.6"/><path fill="#FFF8F4" d="M37.9 72c-4.9 1-8.3 2.7-10.7 4.8-5.9 5.4-5 12.5-4.1 15.6.1.2.1.4.2.5.4-3 2.2-12 8.2-12 .5 0 1.1.1 1.7.2-.1-.2-.3-.3-.4-.5-.1-.1-.3-.2-.4-.4-.1-.1-.3-.2-.4-.3-.1-.1-.3-.2-.5-.3-.1-.1-.3-.2-.5-.2l-1-.6.5-.1h-.1c-2.7-1.4 3.1-4.9 7.5-6.7"/><path fill="#FFFDFC" d="M73.5 97.8c-1.1.1-3.6 1.8-3.6 6.2v.1c1.5-4.7 2.8-4 3.6-6.3"/><path fill="#BC735A" d="M72.5 107.6s-.1-2.8.9-4.9c-1.5 1.9-1.5 4.1-1.5 4.1l.6.8zm6.9-.6s-.8-.3-2.4-1.8c-.2-.2-.3.2-.5-.1 1.3 2 2.3 2.2 2.3 2.2s.6-.3.6-.3zm-3.4-.6c-.3.1-.3-.1-.3-.3.1-.4 1-1.5 2.3-1.7.5-.1.8 0 .6.3 0 .1-1.1.3-1.5.6-.8.4-1 1-1.1 1.1z"/><path fill="#FFFBF8" d="M75.8 92.1c-.5 0-1 0-1.5.1-.4 0-.8.1-1.2.2-.4.1-.8.2-1.2.4-.5.2-1 .5-1.4.9-1.4 1.3-2.3 3.5-2 6.5 0 .3.1.6.1.8.1.3.1.5.2.8-.1-5.8 4.2-8.6 9.4-8.6.4 0 .8 0 1.2 0-.3-.4-.8-.6-1.3-.9-.5-.1-1-.2-1.5-.2-.1 0-.4 0-.8 0"/><path fill="#BC735A" d="M69.9 104s-.2-1.8.7-4.2c-1.2 1.8-1.3 3.3-1.3 3.3s.6.9.6.9zM35.1 92.7s-1.5-2.2-3.4-3.8c2.2.6 3.5 3 3.5 3l-.1.8zM33 94.9s-2.1-1.1-4-2.7c1.2 2.4 3.5 3.2 3.5 3.2l.5-.5zm2.5-7s-1.2-2.1-2.6-3.7c1.8.8 2.8 3 2.8 3l-.2.7z"/><path fill="#BC745B" d="M71.1 74.8c.7.1 1.3.3 2 .5s1.4.5 2.1.8c1.4.6 2.7 1.3 4 2.1 1.3.8 2.5 1.7 3.6 2.7s2.1 2.1 3.1 3.2c1.9 2.3 3.3 5 4.3 7.8.3.7.5 1.4.7 2.1s.4 1.4.5 2.2c.1.7.3 1.5.4 2.2 0 .4.1.7.1 1.1l.1 1.1v.6l-.1.6-.1.6c0 .2-.1.4-.1.6-.1.4-.2.7-.3 1.1-.1.4-.3.7-.4 1.1-.3.7-.7 1.4-1.3 1.9-.6.6-1.2 1-1.9 1.3-.7.3-1.5.5-2.3.6-.8 0-1.6 0-2.3-.1-.8-.1-1.5-.3-2.2-.5-.4-.1-.7-.2-1.1-.4-.4-.1-.7-.3-1.1-.5l.5-.1c-.1.1-.3.3-.4.4s-.3.3-.4.4c-.3.2-.6.5-.9.7s-.7.4-1 .6c-.4.2-.7.3-1.2.4-.4.1-.8 0-1.3 0-.4-.1-.8-.3-1.1-.6-.3-.3-.6-.6-.8-.9-.1-.2-.2-.3-.3-.5-.1-.2-.2-.4-.2-.5l.3.2c-.2 0-.2-.1-.4-.1-.1 0-.2-.1-.3-.1-.2-.1-.4-.2-.6-.4-.3-.3-.6-.6-.8-1-.2-.4-.4-.8-.5-1.2 0-.2-.1-.4-.1-.6s-.1-.4-.1-.6l.2.3c-.1-.1-.2-.1-.2-.2 0 0-.1-.1-.1-.2-.1-.1-.1-.2-.2-.3-.1-.2-.2-.4-.3-.6-.1-.4-.3-.8-.3-1.2-.2-.8-.2-1.7-.2-2.5 0-.9.2-1.7.5-2.5s.7-1.6 1.3-2.2c.6-.6 1.3-1.1 2.1-1.5.4-.2.8-.3 1.2-.4.4-.1.8-.2 1.2-.2.8-.1 1.7-.1 2.5 0s1.7.3 2.5.5l-.2.2c-.2-.5-.5-.9-.8-1.3s-.7-.8-1.1-1.1c-.8-.6-1.7-1.2-2.7-1.6-1.9-.8-4-1.2-6.1-1.6s-4.2-.6-6.3-.9l-3.2-.4c-1.1-.1-2.1-.3-3.1-.5-2.1-.4-4.2-.8-6.2-1.3-2.1-.5-4.1-1-6.2-1.6l-6.1-1.7c-1-.3-2-.5-3.1-.7-.5-.1-1-.2-1.5-.3-.5 0-1-.1-1.4 0l.1-.8c.2.1.4.2.5.3.2.1.3.2.5.3.2.1.3.2.5.4.1.1.3.3.5.4.6.6 1.1 1.2 1.4 1.9.2.3.4.7.5 1.1s.3.7.4 1.1c.1.4.2.8.2 1.2 0 .2 0 .4.1.6 0 .2 0 .4 0 .6v-.1c0 .1 0 .3.1.4v.4c0 .3 0 .5.1.8 0 .5 0 1 0 1.5s-.1 1-.2 1.6c0 .1-.1.3-.1.4s-.1.3-.2.4c-.1.1-.1.3-.2.4 0 0-.1.1-.1.2l-.2.2.1-.3c0 .2 0 .4-.1.6 0 .1 0 .2-.1.3 0 .1-.1.2-.1.3-.1.2-.2.4-.3.5-.1.2-.2.3-.3.5-.2.3-.5.5-.8.8-.3.2-.5.5-.8.6l.1-.1c-.3.5-.6.9-1.1 1.3-.5.4-1 .6-1.5.8-1.1.3-2.3.1-3.3-.2-1-.4-2-.9-2.8-1.5-.4-.3-.8-.7-1.2-1.2-.1-.1-.2-.2-.2-.4l-.1-.2-.2-.9c-.1-.2-.2-.5-.3-.7-.4-1-.7-2-.8-3s-.2-2.1-.2-3.1c0-1.1.1-2.1.4-3.1.2-1 .6-2 1-3 .5-1 1-1.8 1.6-2.7.6-.8 1.3-1.6 2.1-2.3 1.6-1.4 3.4-2.5 5.2-3.3 1.9-.8 3.8-1.5 5.8-1.9.5-.1 1-.2 1.5-.3s1-.2 1.5-.3c1-.2 2-.3 3-.4h.1l.1.1c2 1.3 4.1 2.3 6.4 3 2.3.7 4.6 1.2 7 1.5s4.8.4 7.2.4c1.2 0 2.4 0 3.6-.1.6 0 1.2-.1 1.8-.1l.9-.1h.6s0 0 .1 0l-.1.2m-.1-.1c.1 0 .1 0 .2-.1l-.2.1h-.4l-.9.1c-.6.1-1.2.1-1.8.2-1.2.1-2.4.2-3.6.2-2.4.1-4.8 0-7.2-.2s-4.8-.7-7.1-1.3c-2.3-.7-4.6-1.7-6.6-3l.3.1c-1 .1-2 .2-3 .4-.5.1-1 .2-1.5.3-.5.1-1 .2-1.5.3-1.9.5-3.9 1.1-5.7 1.9s-3.5 1.9-5 3.2c-.7.6-1.4 1.4-2 2.2-.6.8-1.1 1.6-1.5 2.5s-.7 1.8-.9 2.8c-.2 1-.3 1.9-.3 2.9s0 2 .2 2.9c.2 1 .4 1.9.8 2.8.1.2.2.4.3.6l.1.1.1.2c0 .1.1.2.2.3.3.4.6.7 1 1 .7.6 1.6 1.1 2.5 1.4s1.8.5 2.7.2c.4-.1.8-.3 1.2-.6.3-.3.6-.6.8-1v-.1h.1c.5-.4 1.1-.8 1.5-1.3.1-.1.2-.2.3-.4.1-.1.1-.2.2-.4 0-.1 0-.1.1-.2 0-.1 0-.1.1-.2 0-.1.1-.3.1-.4V92l.1-.1.1-.1.1-.1c0-.1.1-.2.2-.3s.1-.2.1-.3c0-.1.1-.2.1-.3.1-.4.2-.9.2-1.4s0-1 0-1.4c0-.2 0-.5-.1-.7v-.4c0-.1 0-.2 0-.3 0-.1 0-.3 0-.5s0-.4-.1-.5c0-.4-.1-.7-.2-1.1-.2-.7-.4-1.4-.8-2-.3-.6-.8-1.2-1.3-1.7-.1-.1-.3-.2-.4-.4-.1-.1-.3-.2-.4-.3-.1-.1-.3-.2-.5-.3-.1-.1-.3-.2-.5-.2l-1-.6 1.1-.2c.3-.1.6-.1.9 0 .3 0 .6 0 .8.1.6.1 1.1.2 1.6.3 1.1.2 2.1.5 3.1.8 2.1.6 4.1 1.2 6.1 1.8s4.1 1.2 6.1 1.7c2.1.5 4.1 1 6.2 1.4 1 .2 2.1.4 3.1.5 1.1.2 2.1.3 3.1.5 2.1.3 4.2.6 6.3.9 1.1.2 2.1.4 3.1.6 1 .3 2.1.6 3 1s1.9.9 2.8 1.6c.4.3.8.7 1.2 1.2s.6.9.9 1.4l.2.4-.4-.1c-.8-.3-1.6-.4-2.4-.5s-1.6 0-2.4.1c-.4 0-.8.1-1.2.2-.4.1-.8.2-1.2.4-.7.3-1.4.8-1.9 1.4s-.9 1.3-1.2 2c-.3.8-.4 1.6-.4 2.4s.1 1.6.2 2.4c.1.4.2.8.3 1.2.1.2.1.4.2.5 0 .1.1.2.1.2s0 .1.1.1l.2.3c0 .2 0 .4.1.6 0 .2.1.4.1.6.1.4.3.7.5 1s.4.6.7.8c.1.1.3.2.4.3.1 0 .1.1.2.1s.2 0 .2 0h.2l.1.2c.3.6.6 1.2 1.1 1.7.2.2.5.4.8.4.3.1.6.1.9 0 .6-.1 1.3-.4 1.8-.8.3-.2.6-.4.8-.6.1-.1.3-.2.4-.4.1-.1.3-.2.4-.4l.2-.2.3.1c.3.1.6.3 1 .4.3.1.7.2 1 .4.7.2 1.4.4 2.1.5s1.4.1 2.1.1 1.4-.2 2-.5 1.2-.6 1.7-1.2c.5-.5.9-1.1 1.2-1.7.1-.3.3-.6.4-1 .1-.3.2-.7.3-1 0-.2.1-.4.1-.5l.1-.5.1-.5v-.6l-.1-1.1c0-.4-.1-.7-.1-1.1-.1-.7-.2-1.4-.4-2.2-.1-.7-.3-1.4-.5-2.1s-.4-1.4-.6-2.1c-.9-2.8-2.3-5.4-4.1-7.7-.9-1.2-1.9-2.3-3-3.2s-2.2-1.9-3.5-2.7c-1.2-.8-2.5-1.5-3.9-2.1-.7-.3-1.3-.6-2-.8-.5-.6-1.2-.8-1.9-1.1h-.1.1"/><path fill="#F9CCB2" d="M35.9 82.7s-4.7-4.1-5.5-3.9c-.5-2.3 14.1 3.8 25.5 5.1 9.1 1 21.6 3 23.9 6.8.4.7.3 2.6-.1 1.9-.4-.3-.7-.6-6.7-2.5-7.5-2.4-33.6-1.9-37.1-7.4"/><path fill="#F0A38B" d="M74.2 86.8c0 .2 0 .4 0 .6.7.2 1.3.5 1.9.7-.1-.1-.3-.3-.4-.4-.5-.3-1-.6-1.5-.9m0-.2c0 .1 0 .2 0 .3.5.3 1 .6 1.5.9-.5-.5-1-.9-1.5-1.2m-.5 3.7c0 .1 0 .2 0 .2 1 .5 1 .7 1.3 1.1.2 0 .3 0 .5 0 .3 0 .6 0 .9 0 .6 0 1.1 0 1.8.1-1.1-.3-2.4-.8-4.5-1.4m2.5 1.3c-.3 0-.6 0-.9 0 1.7.1 2.8.2 3.5.5-.2-.1-.5-.2-.9-.4-.5 0-1.1-.1-1.7-.1"/><path fill="#7C4A3A" d="M78.9 92.1c0 .1 0 .1 0 0 0 .1 0 0 0 0"/><path fill="#F0A38B" d="M74.1 87.4c-.1 1.4-.3 2.1-.5 2.8 2.1.7 3.5 1.2 4.3 1.5.4.1.6.3.9.4h.1c.2.1.4.2.6.4-.8-1.1-1.9-2.8-3.5-4.4-.5-.2-1.2-.4-1.9-.7"/><path fill="#BC735A" d="M71.3 92.6c0 .9-1.9-1-1-2.3 1-1.3 5.5 1 4.6 1.6-4.1-2.2-5.1-1-3.6.7z"/><path fill="#EFA189" d="M38.8 74.1c-1.6.5-4.5 1.9-6.5 4.4.7.1 1.6.3 2.7.6.7-1.2 1.4-2.1 2.1-2.8.6-1 1.1-1.8 1.7-2.2"/><path fill="#7A4839" d="M33.6 80.8c.1.2.3.4.5.7 0-.1.1-.1.1-.2l-.1-.1c-.2-.2-.4-.3-.5-.4"/><path fill="#EFA189" d="M32.3 78.5c-.2.2-.3.4-.5.6 1.1 1.1 1.1.7 1.8 1.7.1.1.3.2.5.4.3-.7.6-1.4 1-2.1-1.2-.3-2.1-.5-2.8-.6"/><path fill="#FFFDFC" d="M39.9 74l-1.4 1s-.6.5-1.4 1.3c-.6.9-1.1 1.9-1.6 2.9.3.1.7.2 1.1.3.7-1.6 1.8-3.5 3.3-5.5m-5.7 7.3c.1.2.3.4.4.6.3.5.5.9.5.9s.1-.2.2-.6c-.3-.3-.7-.6-1.1-.9"/><path fill="#FCF8F6" d="M34.2 81.3c.1.2.2.4.4.6-.2-.2-.3-.4-.4-.6"/><path fill="#FFFDFC" d="M35.4 79.2c-.4.8-.8 1.5-1.3 2.1.4.3.8.6 1.1.9.2-.6.6-1.5 1.2-2.7-.3-.1-.6-.2-1-.3"/><path fill="#FFFBF9" d="M37.1 76.3c-.6.7-1.4 1.7-2.1 2.8.1 0 .3.1.5.1.5-1 1-2 1.6-2.9"/><path fill="#F7F3F2" d="M34 81.1c0 .1 0 .1 0 0 0 .1.1.1.1.2 0-.1 0-.1-.1-.2"/><path fill="#FFFBF9" d="M35 79.1c-.4.6-.7 1.3-1 2.1l.1.1c.4-.6.8-1.3 1.3-2.1-.1-.1-.3-.1-.4-.1"/><path fill="#BC735A" d="M34 81.6c-.3-.3-.7-.5-.6-.7.1-.4 3-5.3 4.7-6.4.7-.6.7 0 .4.4-.1.1-1.2 1.3-2.1 2.6-1.3 1.8-2.3 4.3-2.4 4.1z"/><path fill="#F9CCB2" d="M92.2 48.9c14.4-36.5-33.9-52.2-52.6-32.3-7.7 10.4-5.5 18.5-4.9 20.8 0 5.1.5-.2-4.7 14.6 1.4 14.2 12.5 19.5 21.1 22 12.3 3.5 31.9 1.6 37.4-12.2 4.9 2.4 6.1-1.4 7-4.8 1.8-7.1-3.3-8.1-3.3-8.1"/><path fill="#F4B89F" d="M90.3 58.9c-.8-.2-1-1.7-.5-3.6.5-1.8 1.3-3.1 2-3.1h.1c.7.2.9 1.7.4 3.6-.4 1.8-1.3 3.1-2 3.1m-29.7-43c-5.1 2.9-8.5 3.8-10.9 3.8-1.6 0-2.8-.4-3.9-.7-1-.3-1.9-.7-2.8-.7 0 .1-.1.2-.2.3.2.1.3.2.4.4 1 1.8 3.1 2.5 5.4 2.5 5 0 11.4-3.2 12.4-5.5 1.1 9.8 20 13.3 25.4 13.9-.4 7.9-3.8 16.3-1.7 22 1.9 7.1-3.7 16.2-9.2 20.5 0 0 0 .1-.1.1s-.1 0-.2.1c-.3.2-.5.4-.8.6 2.1-.6 4.1-1.3 6-2.3 1.8-1 3.4-2.2 4.7-3.7 1.3-1.5 2.3-3.3 2.9-5.2l.1-.5.5.2c.6.3 1.2.5 1.8.5.1 0 .3 0 .4 0 .7-.1 1.4-.4 2-.9s1.1-1.1 1.5-1.8.7-1.4.9-2.2c0-.2.1-.4.1-.6 0-.2.1-.4.1-.6.1-.4.1-.8.1-1.2s0-.8 0-1.2-.1-.8-.3-1.2c-.2-.8-.7-1.4-1.3-2-.3-.3-.6-.5-1-.7s-.7-.4-1.1-.5h-.1v-.1c.1-.2.1-.5.2-.7 0 .1-.1.2-.1.2s-1.1-1.8-1.4-3c-.4-1.2-.6-3.2-.4-7 .4-8.1-3.3-10.2-6.4-11.7-.7-.2-1.4-.3-2.2-.4-4.9-.5-15-.9-20.5-10.6 0 0 0 0-.1 0 .2-.1 0-.1-.2-.1"/><path fill="#ED9E8B" d="M91.8 52.2c-.7 0-1.6 1.3-2 3.1-.5 1.9-.3 3.4.4 3.6h.1c.7 0 1.6-1.3 2-3.1.5-1.9.3-3.4-.5-3.6.1 0 .1 0 0 0"/><ellipse cx="55.4" cy="52.2" fill="#fff" transform="matrix(.07 -.998 .998 .07 -.466 103.828)" rx="1" ry="1.5"/><path fill="#BC735A" d="M52.7 54.7c-.3-.3-.6-2.3.4-3.3 1.4-1.4 3.1-1.1 4.3-.4.5.3 1 .8 1 1.1-1.4-.6-2.8-1.5-4.6 0-.5.4-.6 1.7 0 3.1.1.3-.9-.2-1.1-.5zm3.4.2s.9-.6 1.4-.6c.5-.1 1.1.4 1.2.4.1.1.1.3 0 .6-.2.3-.6.2-1 .2-.4-.1-1.1-.3-1.6-.6z"/><path fill="#fff" d="M52.7 8.8c-.2 0-.4.1-.6.2.1 0 .2 0 .3-.1.1 0 .2 0 .3-.1"/><path fill="#FFF8F4" d="M42.2 18.3c-.4 0-.9.1-1.4.3-1.2.6-2.7 1.7-4.7 3.7-.8 1.8-1.3 3.8-1.6 5.8-.2 2-.2 4.1-.1 6.2 0 .9.1 1.8.2 2.8.1.5.2.8.2 1.1 0 .2-.1.5-.1.7v.1c0 .5 0 1.1 0 1.6-.1 1.1-.5 2.1-.8 3.1-.4 1-.7 1.9-1.1 2.9-.7 1.9-1.4 3.9-1.6 5.8-.1 2 .2 4 .9 5.9.7 1.9 1.8 3.6 3.1 5.1.4.4.8.8 1.2 1.2-3.2-5.9-4.7-13.4 1.3-21.3 4.6-5.4-1-15.4 5.3-24.9-.3 0-.5-.1-.8-.1m4.3-6.5c-.1 0-.3 0-.4 0-.1 0-.2 0-.3 0s-.1 0-.1 0c-.1 0-.2.1-.3.2.3 0 .6-.1.9-.1.1 0 .1 0 .2-.1"/><path fill="#FEF5F1" d="M42.8 18.2c-.6 0-1.3.1-2 .5.5-.2 1-.3 1.4-.3.2 0 .4 0 .6.1 0-.1.1-.2.2-.3 0 0-.1 0-.2 0"/><path fill="#fff" d="M30.7 49.4c-1.5 3.4-1.1 6.7.3 9.6 0-.1-.1-.2-.1-.3-.6-1.8-.9-3.8-.8-5.7 0-.3-.1-.6-.1-.9.1-.3.2-.6.3-.8.1-.7.2-1.3.4-1.9"/><path fill="#FFF8F4" d="M30.2 51.2c-.1.3-.2.6-.3.8 0 .3.1.6.1.9 0-.2 0-.4 0-.6.1-.3.2-.7.2-1.1"/><path fill="#CD8271" d="M90.4 56c-.1.5-.8.9-.7-.1 0-.3.2-5 3.2-3.5 0 0 .4.4.2.8-.1 0-2-2.4-2.7 2.8z"/><path fill="#BC745B" d="M92 49c.3-1 .6-2 .8-3 .3-1 .5-2 .7-3 .4-2 .7-4.1.7-6.1s-.2-4.1-.7-6c-.3-1-.6-1.9-1-2.9l-.1-.4-.1-.2-.1-.2-.2-.7c-.2-.5-.4-.9-.6-1.4-1.8-3.6-4.4-6.9-7.4-9.6-.8-.7-1.6-1.3-2.4-1.9-.8-.6-1.7-1.1-2.6-1.6s-1.8-1-2.7-1.4c-.9-.4-1.9-.8-2.8-1.1-1.9-.7-3.9-1.2-5.9-1.5s-4.1-.5-6.1-.5c-4.1 0-8.2.8-11.9 2.4-1.9.8-3.7 1.8-5.4 3S41 15.5 39.7 17c-.7.8-1.3 1.6-1.9 2.4l-.2.3-.2.3-.4.6-.2.3c-.1.2-.2.4-.4.7-.1.2-.2.5-.3.7-.8 1.9-1.3 3.9-1.6 5.9-.2 2-.2 4.1-.1 6.2 0 1 .1 2.1.2 3.1 0 .5.1 1 .1 1.6 0 .5 0 1.1 0 1.6-.1 1.1-.5 2.1-.8 3.1-.4 1-.7 1.9-1.1 2.9-.7 1.9-1.4 3.9-1.6 5.8-.1 2 .2 4 .9 5.9.7 1.9 1.8 3.6 3.1 5.1s2.9 2.8 4.6 3.9c1.7 1.1 3.5 2.1 5.3 2.9 1.9.8 3.8 1.6 5.7 2.2 1 .3 2 .6 2.9.9 1 .2 2 .5 2.9.6 4 .6 8.2.6 12.2.2 4.1-.5 8.1-1.4 11.6-3.4 1.8-1 3.4-2.2 4.7-3.7 1.3-1.5 2.3-3.3 2.9-5.2l.1-.5.5.2c.7.3 1.4.5 2.2.4.7-.1 1.4-.4 2-.9s1.1-1.1 1.5-1.8.7-1.4.9-2.2c0-.2.1-.4.1-.6 0-.2.1-.4.1-.6.1-.4.1-.8.1-1.2s0-.8 0-1.2-.1-.8-.3-1.2c-.2-.8-.7-1.4-1.3-2-.3-.3-.6-.5-1-.7s-.5-.4-.9-.6m.2 0c.4.1.8.2 1.1.4.4.2.7.4 1.1.7.6.6 1.2 1.3 1.4 2.1.1.4.3.8.3 1.2.1.4.1.8.1 1.3 0 .4 0 .8-.1 1.3 0 .2-.1.4-.1.6 0 .2-.1.4-.1.6-.2.8-.5 1.6-.9 2.4-.4.7-.9 1.4-1.6 2-.6.6-1.5 1-2.4 1.2-.5.1-.9.1-1.4 0s-.9-.2-1.3-.4l.7-.4c-.6 2-1.6 4-2.9 5.6-1.4 1.7-3.1 3-4.9 4.1s-3.8 1.9-5.8 2.5-4.1 1-6.2 1.3-4.2.4-6.3.4c-2.1 0-4.2-.2-6.3-.5-1.1-.1-2.1-.3-3.1-.6s-2-.6-3-.9c-2-.6-4-1.4-5.9-2.3s-3.8-1.9-5.5-3.1c-1.8-1.2-3.4-2.6-4.8-4.2s-2.6-3.5-3.2-5.5c-.7-2-1-4.2-.8-6.4s1-4.2 1.8-6.1c.4-1 .8-1.9 1.2-2.9s.7-1.9.9-2.9c.1-1 .1-2 0-3 0-1-.1-2.1-.1-3.1-.1-2.1 0-4.2.3-6.3s.8-4.1 1.7-6c.1-.2.2-.5.3-.7s.2-.5.4-.7l.2-.3.2-.3.2-.3.2-.3c.6-.9 1.2-1.7 1.9-2.5 2.7-3.2 6.2-5.7 10-7.4 3.8-1.8 8-2.7 12.2-2.9 2.1-.1 4.2 0 6.3.3s4.1.8 6.1 1.5c1 .3 2 .7 2.9 1.2 1 .4 1.9.9 2.8 1.4s1.8 1.1 2.7 1.7c.9.6 1.7 1.3 2.5 2 3.2 2.8 5.8 6.2 7.6 10 .2.5.4 1 .6 1.4l.3.7.1.2.1.2.1.4c.4 1 .7 2 .9 3 .5 2.1.7 4.2.6 6.3s-.5 4.2-1 6.2c-.3 1-.5 2-.8 3-.7.9-1 1.8-1.3 2.8"/><path fill="#F9CCB2" d="M36.5 64.6c7.1 7.1 23 14.6 38.9 7.8 2.4-3.2-39.6-8.5-38.9-7.8"/><path fill="#fff" d="M39.9 45.4c-1-.7-.4-5 4.6-4.8 6.1.2 6 6.7 4.4 7.3-1 .3-2.7-.6-5.3-1.3-1.6-.6-3.3-.9-3.7-1.2m37 4.4c1.2-.5-.8-4.8-5.9-6-6.2-1.5-7.1 4.8-5.6 5.8.9.6 2.7-.1 5.6-.1.8 0 2 .1 3.1.2 1.3 0 2.6.1 2.8.1"/><path fill="#8497A9" d="M74.8 46.3c.2 1.7-1.2 3.1-3 3.3s-3.5-1-3.7-2.7 1.2-3.1 3-3.3c1.9-.1 3.5 1.1 3.7 2.7M49 44c0 1.6-1.3 2.9-3.1 3-1.8 0-3.3-1.2-3.3-2.8s1.3-2.9 3.1-3c1.7-.1 3.2 1.2 3.3 2.8"/><path fill="#fff" d="M71.6 45c.1.8-.6 1.6-1.6 1.6-.9.1-1.7-.6-1.8-1.4s.6-1.6 1.6-1.6c1-.1 1.8.6 1.8 1.4m-25.8-2.4c.1.8-.6 1.5-1.5 1.6s-1.7-.6-1.7-1.3c-.1-.8.6-1.5 1.5-1.6s1.7.5 1.7 1.3"/><path fill="#A37269" d="M39.8 45.1c-.3.5-.5-.1-.4-1.2.4-3.1 2.6-4.5 4.4-4.7 3.9-.4 8.3 4.6 5.5 8.8 1.8-6.3-7.2-10.3-9.5-2.9m36.6 4.4c.1.6 1 .1 1-1 .1-3.6-2.2-5.5-4.2-6.2-4.2-1.4-9.9 2.4-8.2 6.9.1-6.8 9.6-8.5 11.4.3"/><path fill="#D9946F" d="M43.5 31.9c-1.6 0-2.4.5-3.6 1.6-.1.1.1.6.6.6.3 0 1.9-1 3.3-1.2.6-.1 3.1 0 3.3-.1.3-.3-.5-.6-1.1-.7-1.1-.1-1.9-.2-2.5-.2"/><path fill="#A37269" d="M75.1 43.7s1.2 0 2.9-.9c-1.3 1.6-3 1.7-3 1.7l.1-.8zm1.9 2.1s1.2 0 3-.8c-1.3 1.6-3 1.6-3 1.6v-.8zm.2 2.2s1 .2 3-.1c-1.8 1.2-3.3.9-3.3.9s.3-.8.3-.8zm-33.7-8.7s-1.4-.5-3.1-1.3c1.2 1.6 3.1 2.1 3.1 2.1v-.8zm-2.6 1.8s-1.3-.6-2.9-1.6c1 1.7 2.9 2.4 2.9 2.4s0-.8 0-.8zm-1.4 2.3s-1-.1-2.7-.9c1.2 1.6 2.7 1.7 2.7 1.7v-.8z"/><path fill="#D9946F" d="M72.8 33.8c-.6 0-1.4.2-1.1.5.1.1 3.1.9 3.7 1.1 1.3.4 2.9 1.7 3.1 1.8h.1c.4 0 .6-.4.5-.5-1.3-1.9-2.8-2.8-6.3-2.9"/><path fill="#B4BFCC" d="M45.5 43.9c-.5 0-.8.4-.8.8s.4.8.8.8.8-.4.8-.8-.4-.8-.8-.8m25.6 2.6c-.5 0-.8.4-.8.8s.4.8.8.8.8-.4.8-.8-.3-.8-.8-.8"/><path fill="#F7B8AA" d="M39.3 47.5c-2.2 0-4 1-4.4 2.6-.5 2.1 1.6 4.4 4.6 5.2.7.2 1.4.3 2 .3 2.2 0 4-1 4.4-2.6.5-2.1-1.6-4.4-4.6-5.2-.7-.2-1.4-.3-2-.3m35.5 4.1c-.1 0-.2 0-.3 0-3.9.1-7 2.1-6.9 4.5.1 2.2 3.2 4 7 4 .1 0 .3 0 .4 0 3.9-.1 7-2.1 6.9-4.5-.1-2.2-4.1-4-7.1-4"/><path fill="#BC735A" d="M50.5 59.9c1-.2 2.2 1.2 5.7 1.8 3.4.6 6.6-.6 7.3-.5 1.7.2-2.9 2-7.1 1.5-3.1-.3-5.4-1.7-5.9-2.8z"/><path fill="#CA876D" d="M53.9 64.2c-.4 0-.3.7 0 1.2s.6 1 1 1.3c.7.1 1.4.2 2 .3-.4-.2-.9-.4-1.6-1.1-.5-.3-1.2-1.6-1.4-1.7m.9 2.6c.8.8 1.7 1.2 2.1 1.2.2 0 .5-.4.2-.7 0-.1-.2-.1-.3-.2-.6-.1-1.3-.2-2-.3"/><path fill="#F9D189" d="M90.3 38.5c-.2 4.2.1 6 .4 7-.3-1.2-.6-3.2-.4-7zM92 24.8c-1.5-3-3.3-6.6-6.3-9.3-.1-.1-.1 0-.1.1s0 .2 0 .3c-8.7-8.2-24.3-13.3-39.3-4-8.6.9-11.4 9.5-10.3 10.5 5.2-5.4 7-4.5 9.9-3.6 2.8.9 6.5 1.8 15.2-3.3 5.5 10 15.8 10.4 20.7 10.9.8.1 1.5.2 2.2.4 3.1 1.5 6.7 3.6 6.4 11.7-.2 3.8.1 5.8.4 7 .3 1.1 1.4 3 1.4 3s2.3-7 2.3-10.9c0-4.8.3-6.9-2.5-12.8"/><path fill="#fff" d="M81.3.7c-.3.3-.4.8-.6 1.4.2-.4.4-.9.6-1.4m-41 9.6s.1.1.2.3c0 0 0-.1-.1-.2 0-.1-.1-.1-.1-.1"/><path fill="#FDE6C3" d="M58.4 13.4c-2.5 1-4.7 1.3-6.7 1.3-1 0-1.8-.1-2.7-.1-.8-.1-1.5-.1-2.2-.1-.1 0-.3 0-.4 0-1.3.1-3.9 1-1.6 1.7 1.2.4 2.9.7 4.8.7 3.1-.1 6.6-1 8.8-3.5"/><path fill="#F4AECD" d="M45.7 11.8s37.7-4.8 48.6 26c0-4.2.3-6-.3-7.9-2.2-7.7-8.7-16.8-24.6-20.7-9.3-2.3-13.6-1-18.3.1-3.2.8-4.8 2.5-5.4 2.5"/><path fill="#B27F9C" d="M45.7 11.8v.1s.1 0 .4 0c.7-.1 2.6-.2 5.1-.2 5.4 0 14.1.7 22.5 4.3s16.4 10.2 20.5 21.9l.2.6v-.7c0-2.1.1-3.6.1-4.8s-.1-2.2-.4-3.2C91.9 22 85.4 12.9 69.4 9c-3.8-.9-6.7-1.3-9.2-1.3-3.7 0-6.3.7-9.1 1.4-1.6.4-2.9 1-3.7 1.5-.4.3-.8.5-1.1.6-.1.1-.3.1-.4.2-.1 0-.2.1-.2.1v.3c.1.1.2.1.3 0 .4-.2 1-.6 1.8-1.1s1.9-1 3.3-1.3c2.8-.7 5.4-1.4 9.1-1.4 2.5 0 5.4.3 9.2 1.2C85.3 13.3 91.7 22.3 93.9 30c.3.9.3 1.9.3 3.1 0 1.2-.1 2.7-.1 4.8h.2c-4.1-11.8-12.2-18.4-20.6-22s-17.1-4.3-22.6-4.3c-3.4 0-5.5.3-5.4.2l-.1.3.1-.3"/><path fill="#F08EB8" d="M75.1 11.1c-2.9.5-5.7 1.5-7.3 2.5 2 .6 4 1.3 6 2.1 1.3.6 2.5 1.2 3.8 1.9 1.2-1 3-1.9 4.1-3.3-2-1.2-4.2-2.3-6.6-3.2"/><path fill="#78526D" d="M67.8 13.6s-.1 0-.1.1c3.3.9 6.6 2.2 9.8 4 0 0 .1 0 .1-.1-1.2-.7-2.5-1.3-3.8-1.9-2-.8-4-1.5-6-2.1m7.5-2.5c-.1 0-.2 0-.2 0 2.5.9 4.7 2 6.6 3.2 0 0 0-.1.1-.1-2-1.2-4.1-2.2-6.5-3.1"/><path fill="#F08EB8" d="M88.4 19.9c.1.6.3 1.2.4 1.7.1 0 .3-.1.5-.1.1 0 .3 0 .4 0-.4-.5-.8-1.1-1.3-1.6"/><path fill="#78526D" d="M88.3 19.7c0 .1 0 .2 0 .2.5.5.9 1.1 1.3 1.6 0 0 .1 0 .2 0-.4-.6-.9-1.2-1.5-1.8"/><path fill="#F08EB8" d="M86.8 24.9c.1 0 .1 0 0 0 .1 0 0 0 0 0"/><path fill="#78526D" d="M86.6 24.8c.1.1.2.2.3.3V25c-.1-.1-.2-.1-.3-.2"/><path fill="#F7C0CD" d="M76.1 20c0 1.6 7.3 3.6 10.8 4.9-.2.7-.1 2 .9 2.9.9.7 1.6.6 2.2.6.2 0 .4-.1.6 0 1.2 4.3 1.4 7.6 2.5 8.2 2.1 1.3 4.9-3.2 4.9-3.2s1.6-2.1 1.3-4.8c-.3-2.3-1.8-1.4-6.2-3.1.1-1.1 0-2.4-.7-3.1-.6-.6-2.8-1.1-3.4-.8-1.1-3.8-1.6-8.7-2.3-10-1.8-3.2-3.2.1-4.8 2.8-2.1 2.3-5.6 3.1-5.8 5.6"/><path fill="#FEFEFE" d="M92.9 25.5c.1 0 .1 0 0 0 .1 0 .1 0 0 0m-2.2-3.8c.6.2 1.3.4 1.6.7 0 0 0 0 .1.1 0 0 0 0-.1-.1-.4-.2-1-.5-1.6-.7m-4.2-10.2c.5 1 1 3.6 1.5 6.5-.6-2.8-1-5.5-1.5-6.5"/><path fill="#D7AD9A" d="M90.3 21.6c.1 0 .2 0 .3.1-.1 0-.2 0-.3-.1M88 18s0 .1 0 0c0 .1 0 0 0 0"/><path fill="#FDE4BC" d="M90.1 21.6c.1 0 .2 0 .2 0-.1 0-.1 0-.2 0M88 18.1c.1.4.2.9.3 1.3-.1-.4-.2-.9-.3-1.3"/><path fill="#D0B4C5" d="M89.9 21.6s.1 0 .2 0c-.1 0-.2 0-.2 0m-1.6-2.2c0 .1 0 .2 0 .2s0-.1 0-.2"/><path fill="#F7C1DA" d="M88.4 19.9c.1.6.3 1.2.4 1.7.1 0 .3-.1.5-.1.1 0 .3 0 .4 0-.1 0-.3 0-.4 0-.2 0-.4 0-.5.1-.1-.6-.3-1.1-.4-1.7"/><path fill="#A891A2" d="M89.7 21.5s.1 0 .2 0c-.1 0-.1 0-.2 0m-1.4-1.8c0 .1 0 .2 0 .2.1-.1.1-.2 0-.2"/><path fill="#FBDBE3" d="M85.4 11.1c-.1 0-.1 0-.2 0-.1.2-.2.4-.3.6-.4.6-1.6 2.6-2.7 3.8 0 0-.1.1-.2.2s-.1.2-.2.3c0 0 1.4-.6 2.4-.6.2 0 .3 0 .5 0 1.2.3 2 3.6 2.8 5.6.3.5.5.9.6 1.2.2.2.3.3.5.3s.4 0 .5 0c1.7 0 3 1.2 3.3 3.5.1 0 .1 0 .2 0 .2-.2.3-.4.4-.6h-.1c.1-1.1 0-2.3-.6-3 0 0 0 0-.1-.1-.3-.3-.9-.5-1.6-.7-.1 0-.2 0-.3-.1-.1 0-.2 0-.2 0s-.1 0-.2 0-.1 0-.2 0-.3 0-.4 0c-.2 0-.4 0-.5.1-.1-.6-.3-1.1-.4-1.7 0-.1 0-.2 0-.2 0-.1 0-.2 0-.2-.1-.4-.2-.9-.3-1.3 0 0 0 0 0-.1-.6-2.8-1-5.5-1.5-6.5 0 0 0 0 0-.1-.5-.2-.8-.3-1.2-.4"/><path fill="#FEFEFE" d="M93.1 25.5c.2.1.4.1.6.2-.2 0-.4-.1-.6-.2"/><path fill="#FBDBE3" d="M93.1 25.5c.2.1-.1.1.1.2 0 .1-.1.2-.2.5 5.3 1.3 4.4 2.2 5 3.8.1-.2.3-.8.4-1.4 0-.4 0-.8 0-1.1 0-.1 0-.2 0-.3-.8-.5-2.2-.5-4.7-1.4-.2-.1-.4-.2-.6-.3"/><path fill="#8D8A8F" d="M99 30.9c-.4 1.5-1.1 2.5-1.1 2.5s.7-.8 1.1-2.5m-.5-3.7c.3.3.5.7.6 1.4 0-.7-.3-1.1-.6-1.4"/><path fill="#F18DA7" d="M85 10.2c-1.1 0-2.2 2.2-3.3 4.1-1.1 1.4-2.9 2.3-4.1 3.3 0 0-.1 0-.1.1-.8.6-1.3 1.4-1.4 2.3 0 1.6 7.4 3.6 10.8 4.9-.2.7-.1 2 .9 2.9.6.5 1.1.6 1.6.6.2 0 .4 0 .6 0s.4 0 .5 0c1.2 4.3 1.4 7.6 2.5 8.2.3.2.5.2.8.2 1.9 0 4.1-3.4 4.1-3.4s.8-1 1.1-2.5c.1-.6.2-1.4.1-2.3-.1-.7-.3-1.1-.6-1.4 0 0 0 0-.1-.1 0 0 0 0 .1 0 .1.4 0 .9-.1 1.4-.2 2.6-1.9 5.7-3.2 5.7-.2 0-.3 0-.5-.2-.8-.6-2.4-6.6-2.1-6.6 0 0 0 0 .1 0 .6.7 1.4 2.2 1.8 2.5h.1c.1 0-.2-.6.1-1.1.2-.3.6-.3 1-.3.1 0 .1 0 .2 0h.1c.3 0-1.3-.5-3.2-1.9.1-.2.2-.4.2-.5-.1 0-.2 0-.3-.1-.3.5-.7 1-1.5 1-.5 0-1-.2-1.7-.7-1.7-1.3-1.1-3.5-1.2-3.5 0-.1 0-.3-.1-.5-.2-.3-.4-.7-.6-1.2-.9-1.5-2.2-3.4-2.6-3.4-.1 0-.1.1-.1.3.1 1.6-.1 1.1-1.1 1.6-.8.4 4.7 3.4 4.1 3.4-2.4-.1-7.8-3.2-7.5-4.5.2-.6 1.2-1.9 1.8-2.6.6-.8.5-.7 1.2-1.7.9-1.5 1.3-2.7 2-2.9.1-.4.2-.7.2-.7-.3-.3-.5-.4-.6-.4"/><path fill="#8D8A8F" d="M93 25.5c.1 0 .1 0 0 0 .1 0 .1 0 0 0"/><path fill="#F4AAC1" d="M87.5 21.1c.2.5.4.9.6 1.2-.1-.3-.4-.7-.6-1.2m-2.2-9.9c-.7.2-1.1 1.4-2 2.9-.6 1.1-.6.9-1.2 1.7 0-.1.1-.1.2-.2 1.1-1.2 2.3-3.3 2.7-3.8.1-.2.2-.5.3-.6"/><path fill="#B5B4B9" d="M93 25.5c.1 0 .1 0 0 0 .1 0 .1 0 0 0 .1 0 .1 0 0 0"/><path fill="#F4AAC1" d="M98.4 27.1c0 .1 0 .2 0 .3 0 .4 0 .7 0 1.1.1-.5.1-1 0-1.4.1.1.1 0 0 0M93 25.5c-.1.1-.2.4-.4.6.1 0 .2 0 .3.1.1-.2.1-.4.2-.5-.1 0 .1-.1-.1-.2.1 0 .1 0 0 0"/><path fill="#A9829D" d="M76.3 19.2v.8c0 .2.1.3.3.5.2.2.4.3.6.4.4.3.9.5 1.3.7.9.4 1.8.8 2.8 1.1.9.3 1.9.7 2.9 1s1.9.6 2.9 1l.2.1v.2c-.1.4-.1.9 0 1.4s.4.9.7 1.2l.1.1.1.1c.1.1.2.1.3.2.1 0 .2.1.3.1.1 0 .2.1.3.1.1 0 .2 0 .3 0 .1 0 .2 0 .4 0 .1 0 .2 0 .4 0 .1 0 .3 0 .4 0h.1v.1c.3 1.2.6 2.4.9 3.7.1.6.3 1.2.4 1.8s.3 1.2.5 1.8c.1.3.3.6.5.7 0 0 .1.1.2.1h.2c.1 0 .3.1.4.1.3 0 .6 0 .8-.1.3-.1.5-.3.8-.5.5-.4.9-.8 1.3-1.3s.8-1 1.1-1.5c.1-.2.3-.4.4-.6.1-.2.2-.5.3-.7.2-.5.4-1 .5-1.5 0-.3 0-.8 0-1.3 0-.3 0-.5-.1-.8 0-.2-.1-.5-.3-.7-.3-.4-.8-.6-1.2-.7-.5-.1-1-.2-1.5-.4-1-.2-2-.6-3-.9h-.1v-.1c.1-.6.1-1.1 0-1.7 0-.3-.1-.5-.3-.8-.1-.1-.1-.2-.2-.4-.1-.1-.2-.2-.3-.3-.2-.2-.5-.3-.7-.4-.3-.1-.5-.2-.8-.2-.3-.1-.6-.1-.8-.1-.1 0-.3 0-.4 0s-.3 0-.4.1h-.1v-.1c-.4-1.4-.7-2.9-1-4.4l-.4-2.2c-.1-.7-.3-1.5-.5-2.2-.1-.4-.2-.7-.3-1.1-.1-.3-.3-.6-.6-.9-.2-.3-.5-.6-.9-.6-.4-.1-.7.1-1 .4-.3.2-.5.5-.7.8s-.4.6-.6.9c-.4.6-.7 1.3-1.2 1.9-.4.5-.9 1-1.5 1.4s-1.1.8-1.7 1.2-1.1.8-1.6 1.3c-.1.1-.2.3-.3.4-.1.1-.2.3-.3.4.1.3.1.4.1.4zm-.3 1.4v-.5c0-.2 0-.3.1-.5 0-.2.1-.3.2-.5.1-.1.2-.3.3-.4.1-.1.2-.3.3-.4.5-.5 1-.9 1.6-1.3s1.1-.8 1.7-1.2c.3-.2.5-.4.8-.7.1-.1.2-.2.4-.4.1-.1.2-.3.3-.4.4-.6.7-1.3 1.1-1.9.2-.3.4-.6.6-.9.2-.3.5-.6.7-.9.1-.1.3-.2.5-.3s.4-.1.6-.1c.4.1.7.4.9.6.2.3.4.6.6 1 .1.3.2.7.4 1.1.2.7.3 1.5.5 2.2l.4 2.2c.3 1.5.6 2.9 1 4.3h-.1c.1-.1.3-.1.5-.1.1 0 .3 0 .4 0 .3 0 .6.1.9.1s.6.1.8.2c.3.1.5.2.8.4.1.1.2.2.3.3.1.1.2.2.2.4.1.3.2.6.3.8.1.6.1 1.2.1 1.7H93c1 .4 2 .7 3 .9.5.1 1 .2 1.5.3.3.1.5.1.8.3.2.1.5.3.6.5.2.2.2.5.3.8 0 .3.1.5.1.8 0 .5 0 1.1-.1 1.6s-.2 1-.5 1.5c-.1.2-.2.5-.3.7-.1.2-.3.5-.4.7-.3.6-.7 1.1-1.1 1.5-.4.5-.9.9-1.4 1.3-.3.2-.5.4-.8.5s-.6.2-1 .2c-.2 0-.3 0-.5-.1h-.1l-.1-.2c-.1 0-.1-.1-.2-.2-.3-.2-.4-.6-.5-.8-.2-.6-.4-1.2-.6-1.8-.1-.6-.3-1.2-.4-1.8-.3-1.2-.6-2.4-.9-3.6l.2.1c-.2 0-.5 0-.7.1-.1 0-.3 0-.4 0s-.3 0-.4 0-.3 0-.4-.1c-.1 0-.3-.1-.4-.2s-.2-.1-.3-.2l-.2-.2c-.1 0-.1-.1-.1-.1-.4-.4-.7-.9-.8-1.4 0-.1-.1-.3-.1-.4s0-.3 0-.4 0-.3 0-.4 0-.3.1-.4l.1.2c-.9-.3-1.9-.6-2.9-1-1-.3-1.9-.6-2.9-1-1-.3-1.9-.7-2.8-1.1-.5-.2-.9-.4-1.4-.7-.2-.1-.4-.3-.6-.5-.2 0-.3-.1-.4-.2z"/></svg>