<svg xmlns="http://www.w3.org/2000/svg" viewBox="0 0 100 135.7" enable-background="new 0 0 100 135.7"><ellipse cx="50" cy="123.3" transform="matrix(.067 -.998 .998 .067 -76.398 164.989)" rx="11.2" ry="49.8" opacity=".12"/><path fill="#DD9D77" d="M28.8 92c-1.3 1.2-5.8 6.1-6.4 7.7-.6-.6-.7-1.2-1.3-1.7-1.4-8.3-8-3.5-4.1 1.5-.6-.3-.6-.3-1-.2-.9-2.7-4.1-3.1-2.7 1.7-1.5-1.6-3.9 1.3-1 3-1.5.1-2.3 2.4.3 2.9-.4 2.2 1.1 4.7 4.7 8.3 8.2 14.3 12.2 5.6 13.7 3.3 5.2-2.8 7.5-2.5 9.5-1.6 4-4.3-2-34-11.7-24.9"/><path fill="#B0AFB3" d="M26.9 94c-1.5 1.3-2.4 2.3-3 3.3.4-.6.9-1.1 1.3-1.6.5-.5 1-1 1.5-1.5.1-.1.1-.1.2-.2"/><path fill="#AD795F" d="M27.5 93.5c-.2.2-.5.4-.7.6 0 0-.1.1-.1.1.1-.1.2-.2.3-.3.2-.1.4-.3.5-.4.1 0 .1 0 0 0M27.7 93.5c-.2.2-.4.3-.6.5-.6.6-1.2 1.2-1.8 1.8-.5.6-1.1 1.3-1.5 2-.1.1-.1.2-.2.3 7.8 7.5 8.3 15.5 8.3 19.5 0 0 .1 0 .1-.1.2-.1.4-.2.7-.3.2-.1.5-.2.7-.3.2-.1.5-.2.7-.3.2-.1.5-.1.7-.2.2-.1.5-.1.7-.2.3 0 .5-.1.8-.1.5-.1 1-.1 1.6-.1.5 0 1 0 1.5.1.4 0 .8.1 1.2.2-.4-.3-.7-.6-1.1-1-1-.9-2-1.9-2.9-2.9-.9-1-1.8-2.1-2.6-3.1 0-.1-.1-.2-.1-.2-.1-.1-.1-.1-.2-.2-.3-.4-.5-1-.8-1.8-.3-.7-.6-1.4-.9-2.1-.6-1.5-1.1-3-1.5-4.5-.1-.4-.2-.8-.3-1.2-.1-.4-.2-.8-.2-1.2-.1-.4-.1-.8-.1-1.2v-.6c0-.2 0-.4 0-.6 0-.2 0-.4 0-.6v-.6c0-.2 0-.4.1-.6 0-.1 0-.2.1-.4-.3.1-.6.1-.9.1-.6.1-1.1 0-1.5-.1"/><path fill="#B88164" d="M12.8 106.9c-.1 0-.1 0-.2 0h.2v.2c-.2.8 0 1.6.4 2.4.1.2.2.4.3.6.1.2.2.4.3.5.2.4.5.7.7 1 .5.7 1 1.3 1.6 1.9.6.6 1.2 1.2 1.8 1.8.4.7.7 1.4 1.1 2 .5.8 1.2 1.7 1.8 2.6.3.4.7.8 1.1 1.2.3.3.6.5.9.7.3.2.6.4 1 .6.3.2.7.3 1 .3.2 0 .5.1.7.1.1 0 .3 0 .4 0 .7-.1 1.4-.4 2-.8.6-.4 1.1-1 1.6-1.6 0 0 .1-.1.1-.1s-1.2.5-2.9.5c-2.4 0-5.7-1.1-7.4-6.7-4.1-2.4-5-6.4-6-7.1-.1 0-.3-.1-.5-.1"/><path fill="#835347" d="M29.1 92.5c-.2.1-.4.2-.5.3-.2.1-.3.2-.5.4-.3.2-.7.5-1 .8-.6.6-1.2 1.2-1.8 1.8-.5.6-1.1 1.3-1.5 2-.2.3-.5.7-.7 1.1-.2.4-.4.7-.5 1.1l-.1.3-.2-.2c-.1-.1-.3-.3-.4-.4-.1-.2-.2-.3-.3-.5-.1-.2-.2-.3-.3-.4-.1-.1-.2-.2-.3-.3V98.2c-.1-.5-.2-1.1-.4-1.6s-.4-1-.7-1.4c-.3-.4-.6-.8-1.1-1-.2-.1-.4-.2-.6-.2-.2 0-.4 0-.6.1-.4.2-.7.6-.9 1-.2.4-.3.9-.3 1.4 0 .5.1 1 .3 1.5.2.5.5.9.8 1.3l1.2 1.6-1.8-1-.2-.1c-.1 0-.1-.1-.2-.1 0 0-.1 0-.2 0l-.4.1-.1-.4c-.2-.5-.4-1-.8-1.3-.2-.2-.4-.3-.6-.4-.2-.1-.4 0-.5.1-.1.1-.2.3-.3.6-.1.2-.1.5-.1.8 0 .6.1 1.1.3 1.7l.3 1.2-.9-.9-.1-.1s-.1-.1-.1-.1-.1-.1-.1-.1-.1 0-.1-.1c-.1 0-.2-.1-.3-.1-.1 0-.2 0-.3 0-.1 0-.2.1-.3.1-.1.1-.2.1-.2.2-.1.1-.1.2-.2.2-.1.1-.1.2-.1.3 0 .1-.1.2-.1.3 0 .1 0 .1 0 .2s0 .1 0 .2 0 .1 0 .2 0 .1 0 .2.1.2.1.3c.1.1.1.2.2.3.1.1.1.2.2.2.1.1.2.2.3.2.1.1.2.1.3.2l.5.4h-.6c-.1 0-.2 0-.2 0-.1 0-.2 0-.2.1-.2.1-.3.2-.4.3-.2.2-.4.6-.3.9 0 .1 0 .2.1.2 0 .1.1.2.1.2 0 .1.1.1.2.2s.1.1.2.2c.3.2.6.3 1 .4h.1v.1c-.2.8 0 1.6.4 2.4.1.2.2.4.3.6.1.2.2.4.3.5.2.4.5.7.7 1 .5.7 1 1.3 1.6 1.9.6.6 1.2 1.2 1.8 1.8.4.7.8 1.4 1.2 2.1.4.7.8 1.3 1.3 2 .5.6 1 1.2 1.6 1.8.3.3.6.5.9.7.3.2.6.4 1 .6.3.2.7.3 1 .3.4.1.7.1 1.1 0 .7-.1 1.4-.4 2-.8.6-.4 1.1-1 1.6-1.6.5-.6.9-1.3 1.2-2v-.1l.1-.1c.2-.1.4-.3.6-.4.2-.1.4-.3.7-.4.2-.1.4-.2.7-.3.2-.1.5-.2.7-.3.2-.1.5-.2.7-.3.2-.1.5-.1.7-.2.2-.1.5-.1.7-.2.3 0 .5-.1.8-.1 1-.1 2-.1 3 0 .5.1 1 .1 1.5.3.5.1 1 .3 1.5.5l-.6.1c.4-.4.6-1 .8-1.7.2-.6.2-1.3.3-2 .1-1.4 0-2.8-.1-4.2-.2-1.4-.4-2.8-.7-4.1-.2-.7-.3-1.4-.5-2-.2-.7-.4-1.3-.6-2-.5-1.3-1-2.6-1.7-3.8-.7-1.2-1.5-2.4-2.5-3.4-.5-.5-1-.9-1.7-1.3-.6-.3-1.3-.6-2-.7-.7-.1-1.4-.1-2.1 0-.8.6-1.4.8-2.1 1.1m0-.1c.6-.3 1.3-.6 2-.7.7-.2 1.4-.2 2.1-.1.7.1 1.4.3 2 .7.6.3 1.2.8 1.8 1.2 1.1 1 1.9 2.1 2.7 3.3.8 1.2 1.4 2.5 1.9 3.8.3.7.5 1.3.7 2 .2.7.4 1.4.6 2.1.3 1.4.6 2.8.8 4.2.2 1.4.3 2.9.2 4.3 0 .7-.1 1.5-.3 2.2-.2.7-.4 1.5-1 2.1l-.2.3-.3-.2c-.4-.2-.8-.3-1.3-.4-.2-.1-.5-.1-.7-.1-.2 0-.5-.1-.7-.1-.9-.1-1.9-.1-2.8 0-.2 0-.5.1-.7.1-.2 0-.5.1-.7.1-.2.1-.5.1-.7.2-.2.1-.4.1-.7.2-.2.1-.4.2-.6.3-.2.1-.4.2-.6.3-.2.1-.4.2-.6.4-.2.1-.4.3-.6.4l.1-.2c-.4.8-.8 1.5-1.3 2.1-.5.7-1.1 1.3-1.8 1.8s-1.5.8-2.4.9c-.4 0-.9 0-1.3-.1s-.8-.2-1.2-.4c-.4-.2-.7-.4-1.1-.7-.3-.3-.6-.5-.9-.8-.6-.6-1.1-1.2-1.6-1.9s-.9-1.3-1.3-2-.8-1.4-1.1-2.1c-.6-.6-1.2-1.2-1.7-1.9-.6-.6-1.1-1.3-1.6-2s-1-1.4-1.3-2.2c-.2-.4-.3-.8-.4-1.2-.1-.4-.1-.9 0-1.3l.1.2c-.4-.1-.8-.2-1.1-.5-.1-.1-.2-.1-.2-.2-.1-.1-.1-.2-.2-.2-.1-.1-.1-.2-.2-.3 0-.1-.1-.2-.1-.3 0-.1 0-.2 0-.3 0-.1 0-.2.1-.3.1-.2.2-.4.3-.6.1-.2.3-.3.5-.4.1-.1.2-.1.3-.1.1 0 .2 0 .3-.1l-.1.4c-.1-.1-.2-.1-.3-.2-.1-.1-.2-.2-.3-.2-.1-.1-.2-.2-.3-.3-.1-.1-.2-.2-.2-.3-.1-.1-.1-.2-.2-.4 0-.1-.1-.1-.1-.2s0-.1 0-.2 0-.1 0-.2 0-.1 0-.2 0-.3.1-.4c0-.1.1-.3.2-.4.1-.1.2-.2.3-.4.1-.1.2-.2.3-.3.1-.1.3-.1.4-.2.1 0 .3-.1.5-.1s.3 0 .5.1c.1 0 .1.1.2.1s.1.1.2.1.1.1.2.1l.2.1-.6.3c-.2-.6-.3-1.2-.4-1.8 0-.3 0-.7 0-1 0-.2.1-.3.2-.5s.2-.3.4-.5c.2-.1.4-.2.6-.3.2 0 .4 0 .6 0 .4.1.7.3 1 .5.5.5.9 1.1 1.1 1.7L16 99c.1 0 .2 0 .3 0 .1 0 .2 0 .2 0 .1 0 .2 0 .2.1.1 0 .2.1.3.1l.2.1-.6.6c-.4-.5-.7-1-.9-1.5-.2-.6-.4-1.2-.4-1.8 0-.6.1-1.2.4-1.8.1-.3.3-.5.5-.8.2-.2.5-.4.8-.6.3-.1.6-.2 1-.2.3 0 .7.1.9.3.3.2.5.4.7.6.2.2.4.5.5.7.3.5.5 1 .7 1.6.2.5.3 1.1.4 1.7l.1-.1c.2.1.3.3.4.4.1.2.2.3.3.5.2.3.3.6.6.9l-.3.1c.2-.4.4-.8.6-1.1.2-.4.5-.7.7-1 .5-.7 1-1.3 1.6-2 .6-.6 1.2-1.2 1.8-1.8.3-.3.6-.5 1-.8.2-.1.3-.2.5-.4.2-.1.4-.3.6-.4"/><path fill="#835347" d="M22.1 99.8c-.1-.4.1-.4.2-.4.3.2 1 1.1 1.7 2.9.2.5.1 1-.1.9-.1-.1-.6-1.3-.9-1.7-.6-1.2-.9-1.5-.9-1.7zM20.5 107.2c.1.4 0 .4-.2.4-.3-.1-1.1-1.1-1.8-2.7-.2-.5-.2-1 .1-.9.1.1.7 1.2.9 1.7.6 1 .9 1.3 1 1.5zM16.7 98.3c-.2-.3-.2.2-.2.4 0 .4 0 .2 1 1.6.3.4.7.5.7.1 0-.2-.6-.9-.9-1.3-.7-1-.5-.6-.6-.8zM13.2 100.2c-.2-.3-.2.2-.2.4 0 .4-.5-.2.6 1.1.3.4.7.5.7.1 0-.1-.9-1.5-1.1-1.6zM30.7 118.3c0 .4.3.1.4 0 .3-.2.1.6.4-1.2.1-.6-.1-1-.3-.8 0 .2-.4 1.8-.5 2z"/><path fill="#DD9D77" d="M72.9 97.5s-19.1-13.6-44.1-6c-2.2.7 3.8-16.5 9.7-20.9 7.1-5.3 37.7 3.9 42.3 9.8 3.3 4.4 4.9 21.6-7.9 17.1"/><path fill="#fff" d="M84.1 103c2.4 12.8-27.8 34.8-49.9 6.3 0 0-7-12.8-2.8-17.9 10-6.9 47.3 2 52.7 11.6"/><path fill="#C0C6C8" d="M68.8 97.6c.1-.4.4-.9.2-1-.3-.2-4.2-1.7-6.4-2.1-.9-.1-.6.5-.1.6.1 0 1.7.6 3 1.1 1.8.7 3.2 1.6 3.3 1.4"/><path fill="#A5755D" d="M32.9 107.1c.3.7.6 1.4.8 1.8.1.1.1.1.2.2-.1-.3-.3-.5-.4-.8-.2-.4-.4-.8-.6-1.2.1 0 0 0 0 0"/><path fill="#EBEEF1" d="M30.4 96.2s0 .1 0 .1v.6c0 .4.1.8.2 1.1.1.4.1.8.2 1.1.1.4.2.8.3 1.1.4 1.5 1 3 1.6 4.4.3.7.6 1.4 1 2.1.2.4.3.7.5 1 .2.3.4.7.5 1 .8 1 1.7 2.1 2.6 3 .9 1 1.9 1.9 2.9 2.8 1 .9 2.1 1.7 3.1 2.5 1.1.8 2.2 1.5 3.4 2.1 1.2.6 2.4 1.2 3.6 1.6 1.3.5 2.5.8 3.8 1.1 1.7.3 3.4.5 5.1.5.5 0 1 0 1.6 0 0-.1 0-.2 0-.3l-.2-.5c-.1-.2-.1-.4-.2-.6-.1-.2-.1-.4-.1-.6 0-.2-.1-.4-.1-.6 0-.2-.1-.4-.1-.6 0-.2-.1-.4-.1-.6l-.1-.6v-.6c0-.2 0-.4 0-.6 0-.2 0-.4 0-.6 0-.2 0-.4.1-.6 0-.2.1-.4.1-.6 0-.2.1-.4.2-.6.1-.2.1-.4.2-.6.1-.2.2-.4.3-.6.1-.2.2-.3.3-.4 0 0 0-.1 0-.1 0-.1 0-.2 0-.3 0-.2 0-.5-.1-.7 0-.2 0-.5 0-.8 0-.1 0-.3 0-.4 0-.1 0-.3 0-.4 0 0 0-.1 0-.1-3.1 2.7-6.5 3.8-9.9 3.8-5.5 0-10.8-2.8-14-5.9-3.3-3.7-5.3-9.5-6.7-11.6M68 96c-.1 0-.2 0-.3 0 .1 0 .2.1.3.1 0 0 0 0 0-.1m-5.2-.7c-.5 1.2 4.6 2.5 3.5 7.2-.7 1.5-1.5 2.7-2.3 3.9 0 0 .1 0 .1 0s.1 0 .1 0c.1 0 .2 0 .3 0 .1 0 .3.1.4.1.1.1.3.1.4.2.1.1.2.2.3.3.1.1.2.2.2.3.1.1.1.2.2.3 0 .1.1.2.1.2.1-.2.1-.4.2-.5l.3-.7c.1-.2.2-.4.3-.7.1-.1.1-.2.2-.3l.2-.3c.3-.4.6-.8.9-1.2l.5-.5c.2-.2.4-.3.6-.5.2-.2.4-.3.6-.4.2-.1.4-.2.5-.3-.2-.2-.5-.5-.6-.8-.2-.4-.4-.8-.5-1.2-.1-.2-.1-.4-.1-.6 0-.2-.1-.3-.1-.5 0 0 0 0-.1-.1 0-.1-.1-.1-.1-.2-.1-.1-.1-.2-.2-.3-.1-.2-.2-.4-.3-.6-.1-.2-.1-.5-.2-.7-.6-.3-1.6-.8-2.8-1.2-.9-.3-2-.7-2.6-.9"/><path fill="#B5BDC1" d="M62.8 95.3c.6.2 1.7.6 2.6.9 1.2.4 2.3 1 2.8 1.2 0-.2-.1-.4-.1-.6-.1-.3-.1-.5-.1-.8-.1 0-.2-.1-.3-.1-.1 0-.2 0-.4 0-1 .2-2.5-.1-4.5-.6"/><path fill="#AFB2B2" d="M85 104.4c0 .2 0 .4 0 .6 0 .7-.2 1.4-.4 2.1-.4 1.4-1 2.7-1.7 3.9-.7 1.2-1.6 2.3-2.5 3.4-.9 1-2 2-3 2.9-2.2 1.7-4.6 3.2-7.1 4.2-2.6 1.1-5.3 1.7-8 2-2.8.3-5.5.1-8.2-.4-1.4-.3-2.7-.7-4-1.2-1.3-.5-2.5-1.1-3.8-1.7-1.2-.7-2.4-1.4-3.5-2.2-1.1-.8-2.2-1.7-3.2-2.6-1-.9-2-1.9-2.9-2.9-.9-1-1.8-2.1-2.6-3.1-.2-.4-.4-.7-.6-1.1-.2-.4-.4-.7-.5-1.1-.3-.7-.7-1.4-1-2.2-.6-1.5-1.1-3-1.5-4.5-.1-.4-.2-.8-.3-1.2-.1-.4-.2-.8-.2-1.2-.1-.4-.1-.8-.1-1.2v-.6c0-.2 0-.4 0-.6 0-.2 0-.4 0-.6v-.6c0-.2 0-.4.1-.6 0-.2.1-.4.1-.6.1-.2.1-.4.2-.6.1-.2.2-.4.2-.6.1-.2.2-.4.3-.5l.4-.5c.5-.3 1.1-.6 1.6-.9.6-.2 1.1-.4 1.7-.6 1.2-.3 2.3-.5 3.5-.7 2.4-.3 4.7-.3 7.1-.2 4.7.2 9.4 1 14 2 2.3.5 4.6 1.1 6.8 1.8 2.3.7 4.5 1.5 6.7 2.4 2.2.9 4.3 1.9 6.3 3.2 1 .6 2 1.3 2.9 2.1.9.8 1.7 1.6 2.3 2.7l.9 1.5m-1.8-2.7c-.4-.5-.9-1-1.4-1.4-.9-.8-1.9-1.4-2.9-2-2-1.2-4.2-2.2-6.3-3.1-2.2-.9-4.4-1.7-6.7-2.3-2.3-.7-4.5-1.3-6.8-1.8-4.6-1-9.3-1.7-14-1.9-2.3-.1-4.7 0-7 .3-1.2.1-2.3.4-3.4.7-.6.2-1.1.4-1.6.6-.5.2-1 .5-1.5.8l.1-.1-.4.5c-.1.2-.2.3-.3.5-.1.2-.1.3-.2.5s-.1.4-.2.5c-.1.2-.1.4-.1.6 0 .2-.1.4-.1.6v.6c0 .2 0 .4 0 .6 0 .2 0 .4 0 .6v.6c0 .4.1.8.2 1.1.1.4.1.8.2 1.1.1.4.2.8.3 1.1.4 1.5 1 3 1.6 4.4.3.7.6 1.4 1 2.1.2.4.3.7.5 1 .2.3.4.7.6 1 .8 1 1.7 2.1 2.6 3.1.9 1 1.9 1.9 2.9 2.8 1 .9 2.1 1.7 3.1 2.5 1.1.8 2.2 1.5 3.4 2.1 1.2.6 2.4 1.2 3.6 1.6 1.3.5 2.5.8 3.8 1.1 2.6.5 5.3.6 7.9.3 2.6-.3 5.2-1 7.7-2 2.4-1 4.7-2.4 6.8-4.1 1-.8 2-1.8 2.9-2.7.9-1 1.7-2.1 2.3-3.2.6-1.1 1.2-2.3 1.5-3.6.2-.6.3-1.2.3-1.9 0-.2 0-.3 0-.5s0-.3 0-.5v-.2c0-.1 0-.1 0-.2l-.1-.5-.3-1.3"/><path fill="#DD9D77" d="M84.5 100.8s1.8 2.6 3.4 7.7c0 0 2.2 4.8.3 10.6-.8 2.8-5.1 12.1-14.3 11.9 0 0-2.7.8-4 2.1-1.4 1.9-8.7 3.8-8.9-5.8 0-1.5.4-3.7.4-5.6-.7-4.2-1.1-8.1.4-9.6.2-.9-1.1-3.1 1.3-5.3-.2.2 0 0 .3-.1.7-.3 2.2-.6 3 2.3 1.9-11.9 18.1-8.2 18.1-8.2"/><path fill="#AD795F" d="M71.1 102.9c-.1 0-.1.1-.2.1-.2.1-.4.2-.6.4-.2.1-.4.2-.5.4-.2.1-.3.3-.5.4l-.5.5c-.2.3-.4.5-.6.8.1 0 .2-.1.3-.1.4-.1.8-.3 1.3-.3.6 0 1.3.2 1.8 1.1 1.3 2.3 3 3.1 4.6 3.1 2 0 3.6-1.4 3.7-2.5 3.5 3.7 8.1 3.7 8.1 3.7 0-.2 0-.4 0-.5-.1-.5-.3-1-.4-1.5l-.3-1c-.1-.3-.2-.6-.3-1-.1-.4-.3-.8-.4-1.2-.2-.3-.3-.5-.5-.8-.2 0-.3 0-.5.1-.2 0-.5 0-.7 0-.5 0-1.1 0-1.6-.1-.8-.1-1.5-.3-2.2-.5-.4-.1-.7-.2-1.1-.4-.3-.1-.5-.2-.8-.3-.1.1-.1.1-.2.2s-.3.3-.4.4c-.3.2-.6.5-.9.7-.3.2-.7.4-1 .6-.4.2-.7.3-1.2.4-.2 0-.3 0-.5 0s-.5 0-.7-.1c-.4-.1-.8-.3-1.1-.6-.3-.3-.6-.6-.8-.9-.1-.2-.2-.3-.3-.5-.1-.1-.1-.2-.2-.3 0 0-.1 0-.1 0-.1 0-.2-.1-.3-.1-.3-.2-.3-.2-.4-.2"/><path fill="#BEBDC0" d="M71.4 132.1c-.6.3-1.2.7-1.6 1.2-.6.8-2.1 1.5-3.8 1.5-.6 0-1.1-.1-1.7-.3.3.1.6.2.9.3.3 0 .5.1.8.1.5 0 1.1-.1 1.6-.2.4-.1.8-.3 1.1-.5.3-.2.7-.4.9-.7l.2-.2c.1-.1.2-.1.2-.2.1-.1.2-.1.2-.2.1-.1.2-.1.2-.2.5-.3.8-.4 1-.6"/><path fill="#B78064" d="M62.1 119.6c-.3 0-.6.1-.9.2 0 0-.1.1-.1.3 0 0 0 0 0 .1 0 .2.1.4.1.6.1.2.1.4.2.6l.2.6v.2c0 .9-.1 1.7-.2 2.5s-.2 1.6-.3 2.4c0 .2 0 .4 0 .6v.6c0 .2 0 .4 0 .6 0 .2 0 .4.1.6l.1.6.1.6c0 .2.1.4.2.6.1.2.1.4.2.6.1.2.2.4.2.5.1.2.2.4.3.5.1.2.2.3.4.5.1.2.3.3.4.4.3.3.6.5 1 .7.1 0 .1.1.2.1.5.2 1.1.3 1.7.3 1.7 0 3.2-.8 3.8-1.5.4-.5 1-.8 1.6-1.2 0 0 .1 0 .1-.1-1.1.4-2.9 1.1-4.4 1.1-1 0-1.9-.3-2.5-1.1-1.6-2.4-1.3-5.4-1.1-6.2.5-1.8 3.5-1.8 3.5-1.8s-2.5-4.5-4.9-4.5"/><path fill="#BEBDC0" d="M63.1 134.3c.6.6 1.4 1 2.5 1 .2 0 .4 0 .6 0-.1 0-.2 0-.2 0-.3 0-.5 0-.8 0-.4-.1-.8-.2-1.2-.4-.3-.2-.6-.4-.9-.6m8.6-2c-.3.2-.6.4-.9.5-.1.1-.2.1-.2.2-.1.1-.2.1-.2.2-.1.1-.2.1-.2.2l-.2.2s0 0 0 .1c.4-.4 1-.9 1.7-1.4"/><path fill="#835347" d="M84.5 101c.4.5.7 1.1 1.1 1.7.2.3.3.6.5.9.1.2.1.3.2.5s.1.3.2.5c.1.3.3.6.4.9.1.3.3.6.4.9.1.3.2.6.4 1l.3 1c.2.6.4 1.3.6 1.9.2.6.3 1.3.4 1.9.1.6.2 1.3.2 2s0 1.3 0 2-.1 1.3-.2 2c0 .3-.1.7-.2 1l-.1.5c0 .2-.1.3-.1.5-.2.6-.5 1.2-.7 1.8-.3.6-.6 1.2-.9 1.7-.7 1.1-1.5 2.2-2.4 3.2-.5.5-.9.9-1.4 1.4-.5.4-1 .8-1.6 1.2-.6.3-1.1.7-1.7.9-.3.1-.6.2-.9.4-.3.1-.6.2-.9.3-.3.1-.6.2-1 .2-.2 0-.3.1-.5.1l-.5.1c-.3 0-.7 0-1 .1-.2 0-.4 0-.6 0-.1 0-.2 0-.3 0h.1c-.7.3-1.4.6-2.1 1-.3.2-.7.4-1 .6-.1.1-.2.1-.2.2-.1.1-.2.1-.2.2-.1.1-.2.1-.2.2l-.2.2c-.3.4-.6.6-1 .8-.4.2-.8.4-1.2.5-.4.1-.8.2-1.2.3-.4 0-.9 0-1.3 0-.4-.1-.8-.2-1.2-.4-.4-.2-.8-.4-1.1-.7-.2-.1-.3-.3-.5-.5s-.3-.3-.4-.5c-.1-.2-.2-.4-.3-.5-.1-.2-.2-.4-.3-.6-.1-.2-.2-.4-.2-.6-.1-.2-.1-.4-.2-.6l-.1-.6c0-.2-.1-.4-.1-.6 0-.2-.1-.4-.1-.6 0-.2 0-.4-.1-.6v-.6c0-.2 0-.4 0-.6 0-.8.1-1.7.2-2.5s.1-1.6.1-2.4v.1l-.2-.6c-.1-.2-.1-.4-.2-.6-.1-.2-.1-.4-.1-.6 0-.2-.1-.4-.1-.6 0-.2-.1-.4-.1-.6 0-.2-.1-.4-.1-.6l-.1-.6v-.6c0-.2 0-.4 0-.6 0-.2 0-.4 0-.6 0-.2 0-.4.1-.6 0-.2.1-.4.1-.6 0-.2.1-.4.2-.6.1-.2.1-.4.2-.6.1-.2.2-.4.3-.6.1-.2.3-.4.4-.6l-.1.2s0-.1 0-.1 0-.1 0-.1c0-.1 0-.2 0-.3 0-.2 0-.5-.1-.7 0-.2 0-.5 0-.8 0-.1 0-.3 0-.4 0-.1 0-.3 0-.4 0-.1 0-.3.1-.4v-.2l.1-.2c0-.1.1-.3.1-.4.1-.1.1-.2.2-.4l.2-.3c.1-.1.2-.2.2-.3l.1-.2.1-.1.3-.3.1-.1h.1c.2-.1.4-.2.6-.2.1 0 .2-.1.3-.1.1 0 .2 0 .4-.1.1 0 .3 0 .4 0 .1 0 .3.1.4.1.1.1.3.1.4.2.1.1.2.2.3.3.1.1.2.2.2.3.1.1.1.2.2.3.1.1.1.2.2.3l.1.3c.1.2.2.4.2.6l.2.6-.9.1.1-.7c0-.1 0-.2.1-.4l.1-.4c.1-.2.1-.5.2-.7l.3-.7c.1-.2.2-.4.3-.7.1-.1.1-.2.2-.3l.2-.3c.3-.4.6-.8.9-1.2l.5-.5c.2-.2.4-.3.6-.5.2-.2.4-.3.6-.4.2-.1.4-.3.6-.4.2-.1.4-.2.6-.3.2-.1.4-.2.7-.3l.7-.3.7-.2c.5-.1.9-.2 1.4-.3.2 0 .5-.1.7-.1.2 0 .5-.1.7-.1l.7-.1.7-.1c.5 0 .9 0 1.4-.1.5 0 .9 0 1.4 0 .5 0 .9.1 1.4.1.6-.7 1.6-.6 2.5-.4m0 .1c-.5-.1-.9-.1-1.4-.1-.5 0-.9-.1-1.4-.1-.9 0-1.9 0-2.8 0-.5 0-.9.1-1.4.1l-.7.1-.7.1c-.2 0-.5.1-.7.1-.2 0-.5.1-.7.2-.5.1-.9.2-1.3.4l-.6.2-.6.3c-.2.1-.4.2-.6.3-.2.1-.4.2-.6.3-.2.1-.4.2-.6.4-.2.1-.4.2-.5.4-.2.1-.3.3-.5.4l-.5.5c-.3.3-.6.7-.8 1.1l-.2.3c-.1.1-.1.2-.2.3-.1.2-.2.4-.3.6l-.2.6c-.1.2-.1.4-.2.6l-.1.3c0 .1 0 .2-.1.3l-.1.7-.3 1.9-.6-1.8-.2-.5c-.1-.2-.1-.4-.2-.5l-.1-.2-.1-.2c0-.1-.1-.1-.1-.2s-.1-.1-.2-.2c0-.1-.1-.1-.2-.1-.1-.1-.1-.1-.2-.1s-.1 0-.2 0-.1 0-.2 0-.1 0-.2 0-.2 0-.2.1c-.2.1-.3.1-.5.2l.2-.1-.2.2-.1.1-.1.1c-.1.1-.1.2-.2.3l-.2.3c-.1.1-.1.2-.1.3 0 .1-.1.2-.1.3l-.1.1v.2c0 .1-.1.2-.1.3 0 .1 0 .2 0 .3 0 .1 0 .2 0 .3 0 .2 0 .4 0 .7v.7c0 .1 0 .3 0 .4 0 .1 0 .1 0 .2s0 .2 0 .3v.1l-.1.1c-.1.1-.2.2-.3.4-.1.1-.2.3-.2.5-.1.2-.1.4-.2.5 0 .2-.1.4-.1.6 0 .2-.1.4-.1.6 0 .2-.1.4-.1.6 0 .2 0 .4 0 .6 0 .2 0 .4 0 .6v1.2c0 .2 0 .4.1.6 0 .2.1.4.1.6 0 .2.1.4.1.6 0 .2.1.4.1.6.1.2.1.4.2.6l.2.6v.2c0 .9-.1 1.7-.2 2.5s-.2 1.6-.3 2.4c0 .2 0 .4 0 .6v.6c0 .2 0 .4 0 .6 0 .2 0 .4.1.6l.1.6.1.6c0 .2.1.4.2.6.1.2.1.4.2.6.1.2.2.4.2.5.1.2.2.4.3.5.1.2.2.3.4.5.1.2.3.3.4.4.3.3.6.5 1 .7.4.2.7.3 1.1.4.8.1 1.6.1 2.4-.2.4-.1.8-.3 1.1-.5.3-.2.7-.4.9-.7l.2-.2c.1-.1.2-.1.2-.2.1-.1.2-.1.2-.2.1-.1.2-.1.2-.2.3-.2.7-.4 1-.6.3-.2.7-.4 1.1-.5.4-.2.7-.3 1.1-.5.3 0 .6 0 1 0 .3 0 .6 0 1-.1l.5-.1c.2 0 .3-.1.5-.1.3-.1.6-.2.9-.2.3-.1.6-.2.9-.3.3-.1.6-.2.9-.4.6-.3 1.1-.6 1.6-1s1-.8 1.5-1.2c.5-.4.9-.9 1.3-1.4.4-.5.8-1 1.2-1.5.4-.5.7-1 1-1.6.3-.5.6-1.1.9-1.7.3-.6.5-1.2.7-1.7 0-.1.1-.3.1-.4l.1-.5c.1-.3.2-.6.2-.9.1-.6.2-1.2.2-1.9 0-.6.1-1.3 0-1.9 0-.6-.1-1.3-.1-1.9-.1-.6-.2-1.3-.3-1.9-.1-.6-.3-1.2-.5-1.8l-.3-1c-.1-.3-.2-.6-.3-1-.2-.6-.4-1.3-.7-1.9-.1-.2-.1-.3-.2-.5s-.1-.3-.2-.5c-.1-.3-.3-.6-.4-.9-.3-.8-.6-1.4-.9-2"/><path fill="#835347" d="M65.8 108.8c.1-.4.3-.7.4-.5.1.4.6 2.5 0 4-.2.5-.4.2-.5-.2 0-.1.1-.6.2-1.2.1-1.1-.2-1.8-.1-2.1zM66.4 112.6c.2-.2.1-2.6 1.7-2 1.8.6.4 3.6.4 3.6s.2.5.4.2 1.6-3.6-.5-4.5c-2-.9-2.4 1.6-2.4 2.3-.1.5.2.6.4.4zM69.1 114.1c.3-.1.6-2.1 1.9-1 1.7 1.5-.1 3.3-.1 3.3s.1.6.4.3c.3-.2 2-2.3.2-4.2-1.4-1.5-2.5.3-2.8 1-.2.5.1.7.4.6zM71.6 116.4c.3 0 1.1-1.8 2-.3.9 1.5-.3 2.2-.3 2.2s-.2.5.2.6c.4.1 1.7-1.5.7-3.2-1-1.7-2.5-.4-2.9.3-.2.4 0 .4.3.4zM63.3 122.9c-.3-.3-.5-.7-.3-.7.4-.1 2.6.1 3.8 1.4.4.4 0 .6-.4.6-.1 0-.5-.4-1-.7-1.1-.6-1.9-.5-2.1-.6z"/><path fill="#DD9D77" d="M70.7 70s20.9 6.7 20.9 26.3c-.9 12.5-12.1 6.5-12.1 6.5s-5.3 5.3-7.5-.1c0 0-2.1-.3-2.5-3.7-.8-.3-2.9-8.4 3-11.1 0 0 3.4-1.4 7.3-.1-4.5-9.3-27.8-11.3-40.5-12.1-3.6-.2-6.6-1.2-7.8-1 3.9 2.4 4.4 7.4 4.4 7.4s.8 4.3-.7 5.7c-.2 1.4-.9 2-2.3 3.2-2.2 4-7.8 1.7-9.4-1.1 0 0-10.4-20.6 21.5-23.9 8 5.3 18.8 4.7 23.7 4.1 2.1-.3 3.2-.5 2.4-.3"/><path fill="#B37E62" d="M91.1 95c-1 3.1-3.2 5.2-6.2 5.2-1.1 0-2.4-.3-3.7-.9-.6-.3-1.3-.8-2.6-.8-.5 0-1.2.1-1.9.3-2.6 1.4-3.3 4.8-2.6 5.5.2.2.4.4.6.5 0 0 .1 0 .1 0 .1 0 .3 0 .4 0 .6-.1 1.3-.4 1.8-.8.3-.2.6-.4.8-.6.1-.1.3-.2.4-.4.1-.1.3-.3.4-.4l.2-.2.3.1c.1 0 .2.1.2.1.1.1.2.1.3.2.1.1.3.1.4.2.3.1.7.3 1 .4.7.2 1.4.4 2.1.5.5.1 1 .1 1.6.1.2 0 .4 0 .6 0 .7 0 1.4-.2 2-.5.6-.3 1.2-.7 1.7-1.2s.9-1.1 1.2-1.7c.1-.3.3-.7.4-1 .1-.3.2-.7.3-1 0-.2.1-.4.1-.5l.1-.5.1-.5v-.5l-.1-1.1c0-.3 0-.4 0-.5"/><path fill="#C77B5C" d="M45 67.5c.9 2.9 5.3 8.1 12.8 8.1 3.7 0 8.2-1.3 13.4-4.7-.3.1-.7.1-1 .1-2 .3-4.1.4-6.1.4 0 0-.1 0-.1 0-2.1 0-4.1-.1-6.2-.4-.6-.1-1.1-.2-1.7-.3-2.1-.3-4.2-.7-6.3-1.3-1.6-.4-3.2-1.1-4.8-1.9"/><path fill="#F0D4C0" d="M37.9 67.7C28 69.6 23.9 75 22.6 80c-.2 1-.3 1.9-.3 2.9s0 2 .2 2.9c.2 1 .4 1.9.8 2.8.4-3 2.2-12 8.2-12 .5 0 1.1.1 1.7.2-.1-.2-.3-.3-.4-.5-.1-.1-.3-.2-.4-.4-.1-.1-.3-.2-.4-.3-.1-.1-.3-.2-.4-.3-.1-.1-.3-.2-.5-.2l-1-.5.5-.1s-.1 0-.1 0c-2.9-1.5 2.9-4.9 7.4-6.8"/><path fill="#EFD0BA" d="M73.6 93.5c-1.1.2-3.6 1.7-3.7 6.2 0 0 0 .1 0 .1 1.5-4.6 2.8-3.9 3.7-6.3"/><path fill="#835347" d="M72.5 103.4s-.1-2.8.9-4.9c-1.5 1.9-1.5 4.1-1.5 4.1l.6.8zM79.4 102.8s-.8-.3-2.4-1.8c-.2-.2-.3.2-.5-.1 1.3 2 2.3 2.2 2.3 2.2l.6-.3zM76 102.1c-.3.1-.3-.1-.3-.3.2-.4 1-1.5 2.3-1.7.5-.1.8 0 .7.3-.1.1-1.1.3-1.5.6-.8.5-1 1.1-1.2 1.1z"/><path fill="#EFD0BA" d="M75.9 87.9c-.5 0-1 0-1.5.1-.4.1-.8.1-1.2.2-.4.1-.8.2-1.1.4-.5.2-1 .5-1.4.9-1.4 1.3-2.4 3.5-2 6.5 0 .3.1.5.1.8.1.3.1.5.2.8-.1-5.8 4.2-8.6 9.4-8.6.4 0 .8 0 1.1 0-.3-.4-.8-.7-1.3-.9-.5-.1-1-.2-1.5-.2-.2 0-.5 0-.8 0"/><path fill="#835347" d="M69.9 99.8s-.3-1.8.7-4.2c-1.2 1.7-1.3 3.3-1.3 3.3l.6.9zM35.1 88.5s-1.5-2.2-3.4-3.9c2.2.6 3.5 3 3.5 3l-.1.9zM33 90.7s-2.1-1.1-4-2.7c1.2 2.4 3.5 3.2 3.5 3.2l.5-.5zM35.5 83.6s-1.1-2.1-2.6-3.7c1.8.8 2.8 3.1 2.8 3.1l-.2.6zM71.2 70.5c.7.1 1.3.3 2 .5s1.4.5 2.1.8c1.4.6 2.7 1.3 4 2.1 1.3.8 2.5 1.7 3.6 2.7 1.1 1 2.1 2.1 3.1 3.2 1.9 2.3 3.3 5 4.3 7.8.3.7.5 1.4.7 2.1.2.7.4 1.5.5 2.2.2.7.3 1.5.4 2.2.1.4.1.7.1 1.1l.1 1.1v.6l-.1.6-.1.6c0 .2-.1.4-.1.6-.1.4-.2.7-.3 1.1-.1.4-.3.7-.4 1.1-.3.7-.8 1.4-1.3 2-.5.6-1.2 1-2 1.4-.7.3-1.5.5-2.3.5-.8.1-1.6 0-2.3-.1-.8-.1-1.5-.3-2.2-.5-.4-.1-.7-.2-1.1-.4-.4-.1-.7-.3-1.1-.5l.5-.1c-.1.2-.3.3-.4.4-.1.1-.3.3-.4.4-.3.2-.6.5-.9.7-.3.2-.7.4-1 .6-.4.2-.7.3-1.2.4-.4.1-.8.1-1.3-.1-.4-.1-.8-.3-1.1-.6-.3-.3-.6-.6-.8-.9-.1-.2-.2-.3-.3-.5-.1-.2-.2-.4-.2-.5l.3.2c-.2 0-.3-.1-.4-.1-.1 0-.2-.1-.3-.1-.2-.1-.4-.2-.6-.4-.3-.3-.6-.6-.8-1-.2-.4-.4-.8-.5-1.2-.1-.2-.1-.4-.1-.6 0-.2-.1-.4-.1-.6l.2.3c-.1-.1-.2-.1-.2-.2s-.1-.1-.1-.2c-.1-.1-.1-.2-.2-.3-.1-.2-.2-.4-.3-.6-.1-.4-.3-.8-.3-1.2-.2-.8-.2-1.7-.2-2.6 0-.9.2-1.7.5-2.5s.7-1.6 1.3-2.2c.6-.6 1.3-1.1 2.1-1.5.4-.2.8-.3 1.2-.4.4-.1.8-.2 1.3-.2.8-.1 1.7-.1 2.5 0s1.7.3 2.5.5l-.2.2c-.2-.5-.5-.9-.8-1.3-.3-.4-.7-.8-1.1-1.1-.8-.7-1.7-1.2-2.7-1.6-1.9-.8-4-1.2-6.1-1.6-2.1-.4-4.2-.6-6.3-.9l-3.2-.4c-1.1-.1-2.1-.3-3.2-.5-2.1-.4-4.2-.8-6.2-1.3-2.1-.5-4.1-1-6.2-1.6l-6.1-1.7c-1-.3-2-.5-3.1-.7-.5-.1-1-.2-1.5-.3-.5-.1-1-.1-1.5 0l.1-.8c.2.1.4.2.5.3.2.1.3.2.5.3.2.1.3.2.5.4.1.1.3.3.4.4.6.5 1.1 1.2 1.4 1.9.2.3.4.7.5 1.1.1.4.3.7.4 1.1.1.4.2.8.2 1.1 0 .2.1.4.1.6 0 .2 0 .4 0 .6v-.1c0 .1 0 .3.1.4v.3c0 .3.1.5.1.8 0 .5.1 1 0 1.5 0 .5-.1 1-.2 1.6 0 .1-.1.3-.1.4 0 .1-.1.3-.2.4-.1.1-.1.3-.2.4 0 .1-.1.1-.1.2l-.2.2.1-.3c0 .2-.1.4-.1.6 0 .1 0 .2-.1.3 0 .1-.1.2-.1.3-.1.2-.2.4-.3.5-.1.2-.2.3-.3.5-.2.3-.5.5-.8.8-.3.2-.5.4-.8.7l.1-.1c-.3.5-.6.9-1.1 1.3-.4.4-1 .6-1.5.8-1.1.3-2.3.1-3.3-.2-1-.3-2-.9-2.8-1.5-.4-.3-.8-.7-1.2-1.2-.1-.1-.2-.2-.2-.4l-.1-.2-.1-.2c-.1-.2-.2-.5-.3-.7-.4-1-.7-2-.8-3-.2-1-.3-2.1-.2-3.1 0-1 .1-2.1.4-3.1.2-1 .6-2 1-3 .4-.9 1-1.9 1.6-2.7.6-.8 1.4-1.6 2.1-2.3 1.6-1.4 3.4-2.5 5.2-3.3 1.9-.8 3.9-1.5 5.8-1.9.5-.1 1-.2 1.5-.3.5-.1 1-.2 1.5-.3 1-.2 2-.3 3-.4h.1l.1.1c2 1.3 4.1 2.3 6.4 3 2.3.7 4.6 1.2 7 1.5 2.4.3 4.8.4 7.2.4 1.2 0 2.4-.1 3.6-.1.6 0 1.2-.1 1.8-.1l.9-.1h.6s0 0 .1 0v.1l.1-.4m-.2 0c.1 0 .1 0 .2-.1l-.2.1-.4.1-.9.1c-.6.1-1.2.1-1.8.2-1.2.1-2.4.2-3.6.2-2.4.1-4.8 0-7.2-.2-2.4-.2-4.8-.7-7.1-1.4s-4.6-1.7-6.7-3l.3.1c-1 .1-2 .2-3 .4-.5.1-1 .2-1.5.3-.5.1-1 .2-1.5.3-1.9.5-3.9 1.1-5.7 1.9-1.8.8-3.5 1.9-5 3.2-.7.7-1.4 1.4-2 2.2-.6.8-1.1 1.6-1.5 2.5-.4.9-.7 1.8-.9 2.8-.2 1-.3 1.9-.3 2.9s0 2 .2 2.9c.2 1 .4 1.9.8 2.8.1.2.2.4.3.6l.1.1.1.2c.1.1.1.2.2.3.3.4.6.7 1 1 .7.6 1.6 1.1 2.5 1.4.9.3 1.8.4 2.7.2.4-.1.8-.3 1.2-.6.3-.3.6-.6.8-1v-.1l.1-.1c.5-.4 1.1-.8 1.5-1.3.1-.1.2-.2.3-.4.1-.1.2-.2.2-.4 0-.1.1-.1.1-.2s0-.1.1-.2c0-.1.1-.3.1-.4v-.2l.1-.1.1-.1.1-.1c.1-.1.1-.2.2-.3 0-.1.1-.2.1-.3 0-.1.1-.2.1-.3.1-.4.2-.9.2-1.4 0-.5 0-.9 0-1.4 0-.2 0-.5-.1-.7v-.4c0-.1 0-.2-.1-.3 0-.2 0-.3 0-.5s0-.4-.1-.5c-.1-.4-.1-.7-.2-1.1-.2-.7-.4-1.4-.8-2-.3-.6-.8-1.2-1.3-1.7-.1-.1-.3-.2-.4-.4-.1-.1-.3-.2-.4-.3-.1-.1-.3-.2-.4-.3-.1-.1-.3-.2-.5-.2l-1-.5 1.1-.2c.3-.1.6-.1.9-.1.3 0 .6 0 .8.1.5.1 1.1.2 1.6.3 1 .2 2.1.5 3.1.8 2.1.6 4.1 1.2 6.1 1.8 2 .6 4.1 1.2 6.1 1.7 2.1.5 4.1 1 6.2 1.4 1 .2 2.1.4 3.1.5 1 .2 2.1.3 3.1.5 2.1.3 4.2.6 6.3.9 1 .2 2.1.4 3.1.7 1 .3 2.1.6 3.1 1s2 .9 2.8 1.6c.4.3.8.7 1.2 1.1.3.4.6.9.9 1.4l.2.4-.4-.1c-.8-.3-1.6-.4-2.4-.5-.8-.1-1.6-.1-2.4.1-.4.1-.8.1-1.2.2-.4.1-.8.2-1.1.4-.7.3-1.4.8-1.9 1.4-.5.6-.9 1.3-1.2 2-.3.8-.4 1.6-.4 2.4 0 .8.1 1.6.3 2.4.1.4.2.8.3 1.2.1.2.1.4.2.5 0 .1.1.2.1.2s0 .1.1.1l.2.3c0 .2.1.4.1.6 0 .2.1.4.1.5.1.4.3.7.4 1 .2.3.4.6.7.8.1.1.3.2.4.3.1 0 .2.1.2.1.1 0 .2.1.2.1h.2l.1.2c.3.6.6 1.3 1.1 1.7.2.2.5.4.8.4.3.1.6.1.9 0 .6-.1 1.3-.4 1.8-.8.3-.2.6-.4.8-.6.1-.1.3-.2.4-.4.1-.1.3-.3.4-.4l.2-.2.3.1c.3.2.6.3 1 .4.3.1.7.3 1 .4.7.2 1.4.4 2.1.5.7.1 1.4.2 2.1.1.7 0 1.4-.2 2-.5.6-.3 1.2-.7 1.7-1.2s.9-1.1 1.2-1.7c.1-.3.3-.7.4-1 .1-.3.2-.7.3-1 0-.2.1-.4.1-.5l.1-.5.1-.5.1-.5v.1l-.1-1.1c0-.4-.1-.7-.1-1.1-.1-.7-.2-1.5-.4-2.2-.1-.7-.3-1.4-.5-2.1-.2-.7-.4-1.4-.6-2.1-.9-2.8-2.3-5.4-4.1-7.7-.9-1.2-1.9-2.2-3-3.2s-2.2-1.9-3.5-2.7c-1.2-.8-2.5-1.5-3.9-2.1-.7-.3-1.4-.6-2-.8-.7-.8-1.4-1-2.1-1.2l-.2.1.2-.1"/><path fill="#DD9D77" d="M35.9 78.5s-4.8-4.2-5.5-3.9c-.5-2.3 14.1 3.9 25.5 5.1 9.1 1 21.6 3 23.9 6.8.4.7.3 2.6-.1 1.9-.3-.4-.6-.8-6.6-2.7-7.5-2.3-33.8-1.7-37.2-7.2"/><path fill="#AD795F" d="M74.2 82.6c0 .2 0 .4 0 .6.7.2 1.3.5 1.9.7-.1-.1-.3-.3-.4-.4-.5-.3-1-.6-1.5-.9M74.2 82.3c0 .1 0 .2 0 .3.5.3 1 .6 1.5.9-.5-.4-.9-.8-1.5-1.2M73.7 86c0 .1 0 .2 0 .2 1 .5 1 .7 1.3 1.1.2 0 .3 0 .5 0 .3 0 .6 0 .9 0 .5 0 1.1 0 1.8.1-1-.2-2.4-.7-4.5-1.4M76.3 87.4c-.3 0-.6 0-.9 0 1.7.1 2.8.2 3.5.5-.2-.1-.5-.2-.9-.4-.6-.1-1.2-.1-1.7-.1"/><path fill="#613C34" d="M78.9 87.9s.1 0 0 0c.1 0 0 0 0 0"/><path fill="#AD795F" d="M74.2 83.2c-.1 1.4-.3 2.1-.5 2.8 2.1.7 3.5 1.2 4.3 1.5.4.1.7.3.9.4 0 0 .1 0 .1.1.3.1.4.2.6.4-.8-1.1-1.9-2.8-3.5-4.4-.6-.3-1.2-.6-1.9-.8"/><path fill="#835347" d="M71.3 88.4c0 .9-1.9-1-1-2.3 1-1.3 5.5 1 4.6 1.6-4.1-2.2-5.1-1.1-3.6.7z"/><path fill="#AF7B60" d="M38.8 69.8c-1.6.5-4.5 2-6.5 4.4.7.1 1.6.3 2.7.6.7-1.1 1.5-2.1 2.1-2.8.5-1 1.1-1.8 1.7-2.2"/><path fill="#623D35" d="M33.5 76.5c.1.2.3.4.4.8 0-.1.1-.1.1-.2.1-.1 0-.1 0-.1s0 0 0-.1c-.2-.1-.3-.2-.5-.4"/><path fill="#AF7B60" d="M32.3 74.2c-.2.2-.3.4-.5.6 1.1 1.1 1.1.7 1.8 1.7.2.1.3.2.4.4.3-.7.6-1.4 1-2.1-1.1-.3-2-.5-2.7-.6"/><path fill="#E9C4AB" d="M39.8 69.8l-1.4.9s-.6.5-1.4 1.3c-.5.9-1.1 1.9-1.6 2.9.3.1.7.2 1 .3.9-1.5 2-3.4 3.4-5.4M34.2 77c.1.2.3.4.4.6.3.5.5.9.5.9s.1-.2.2-.6c-.4-.2-.7-.5-1.1-.9"/><path fill="#B08E83" d="M34.2 77c-.1.1-.1.1 0 0 .1.2.3.4.4.6-.2-.2-.3-.4-.4-.6"/><path fill="#E9C4AB" d="M35.4 74.9c-.4.8-.8 1.5-1.3 2.1.4.3.8.6 1.1.9.2-.6.6-1.5 1.2-2.7-.3-.1-.6-.2-1-.3"/><path fill="#CCAB97" d="M37.1 72c-.7.7-1.4 1.7-2.1 2.8.2 0 .3.1.5.1.5-1 1-2 1.6-2.9M34.1 77s.1 0 0 0c.1 0 .1 0 0 0 .1 0 0 0 0 0"/><path fill="#997D74" d="M34 76.9c0 .1.1.2.1.2s0 0 0-.1c0 0-.1-.1-.1-.1"/><path fill="#CCAB97" d="M35 74.8c-.4.6-.7 1.3-1 2.1 0 0 .1.1.1.1.4-.6.8-1.3 1.3-2.1-.1 0-.3 0-.4-.1"/><path fill="#835347" d="M34 77.4c-.3-.3-.7-.5-.6-.7.2-.4 3-5.3 4.7-6.5.7-.6.8 0 .4.4-.1.1-1.2 1.3-2.1 2.6-1.3 1.8-2.3 4.4-2.4 4.2z"/><path fill="#DD9D77" d="M92.9 44.8C106.4 8.6 59.3-5.8 40.7 13.9c-7.3 11.7-6.3 15.9-6.3 18.3.1 6.2-.7 8.2-3.3 15.6 1.5 14 12.5 19.3 21 21.7 12.2 3.5 31.6 1.6 37.1-12.1 4.8 2.4 6.2-1.4 7.2-4.8 1.8-6.9-3.5-7.8-3.5-7.8"/><path fill="#C0BFC3" d="M92.9 44.7s0 .1 0 .1c.1 0 .8.2 1.7.7-.7-.5-1.4-.8-1.7-.8m.5-22c.2.5.4 1 .6 1.5.3.9.7 1.8.9 2.7 0 0 0 .1 0 .1-.3-1.5-.8-2.9-1.5-4.3"/><path fill="#B88164" d="M92.9 44.8c.4.1.7.3 1.1.4.3.2.7.4 1 .6-.1-.1-.2-.2-.4-.3-.9-.5-1.7-.7-1.7-.7m0-23c.1.2.2.5.3.7l.3.7.3.7c0 .1.1.2.1.2-.2-.5-.4-1-.6-1.5-.1-.2-.2-.5-.4-.8m-1.8 32.9s-.1 0-.1 0c-.7-.2-.9-1.7-.4-3.6.5-1.8 1.3-3.1 2-3.1 0 0 .1 0 .1 0 .7.2.9 1.7.4 3.6-.5 1.8-1.4 3.1-2 3.1m-4.9-40.3c3.2 5.5 3.8 11.2 2.7 15.5-.4 7.8-5.5 12.1-3.4 17.8 1.9 7-3.6 16.4-9.1 20.8 1.8-.5 3.5-1.2 5-2.1.9-.5 1.7-1 2.5-1.6.8-.6 1.5-1.3 2.1-2 1.3-1.5 2.3-3.2 2.9-5.1l.1-.7.5.2c.5.3 1.1.4 1.7.4.1 0 .3 0 .4 0 .7-.1 1.4-.4 2-.9.6-.5 1.1-1.1 1.5-1.8.4-.7.7-1.4.9-2.2.1-.2.1-.4.1-.6 0-.2.1-.4.1-.6.1-.4.1-.8.1-1.2 0-.4 0-.8 0-1.2 0-.4-.1-.8-.3-1.2-.2-.8-.7-1.4-1.3-2-.3-.3-.6-.5-1-.7-.4-.2-.7-.4-1.1-.4h-.1v-.1c.3-1 .5-2 .8-2.9.3-1 .5-2 .7-3 .4-2 .7-4 .7-6s-.4-4-1-5.9c-.3-.9-.7-1.9-1.1-2.8l-.3-.7-.3-.7c-.2-.5-.5-.9-.7-1.3-1.1-2.5-2.9-4.9-5.1-7"/><path fill="#9C6856" d="M92.5 48c-.7 0-1.5 1.3-2 3.1-.5 1.9-.3 3.4.4 3.6 0 0 .1 0 .1 0 .7 0 1.5-1.3 2-3.1.5-1.9.3-3.4-.4-3.6 0 0 0 0-.1 0"/><path fill="#fff" d="M39.2 16.3c-.2.3-.4.5-.5.8-.6.8-1.1 1.7-1.5 2.6-.8 1.5-1.3 3.1-1.7 4.7.6-2.1 1.8-4.7 3.7-8.1"/><path fill="#F0D4C0" d="M49.2 7.9c-1.5.7-3 1.6-4.4 2.6-.8.6-1.6 1.3-2.3 1.9-.7.7-1.4 1.4-2.1 2.2-.4.5-.9 1.1-1.3 1.6-1.9 3.3-3.1 6-3.8 8.1-.1.3-.2.7-.2 1-.4 2-.4 4-.4 6 0 1 .1 2 .1 3 0 .5 0 1 0 1.5 0 .3 0 .5 0 .8 0 .2 0 .5-.1.8-.2 1.1-.5 2-.8 3-.3 1-.7 1.9-1 2.9-.7 1.9-1.1 3.8-1.1 5.8s.5 3.9 1.3 5.7c.8 1.8 2 3.4 3.4 4.7.4.4.7.7 1.1 1.1-3.5-5.9-6-13.6.1-21.5 5.7-6.6-1.6-19.3 13.5-30.1-.7-.3-1.4-.7-2-1.1"/><path fill="#835347" d="M92.7 44.9c.3-1 .5-2 .8-2.9.3-1 .5-2 .7-3 .4-2 .7-4 .7-6s-.4-4-1-5.9c-.3-.9-.7-1.9-1.1-2.8l-.3-.7-.3-.7c-.2-.5-.5-.9-.7-1.3-1.9-3.5-4.5-6.7-7.6-9.2-1.5-1.3-3.2-2.4-5-3.3-.9-.5-1.8-.9-2.7-1.3-.5-.2-.9-.4-1.4-.6-.5-.2-.9-.3-1.4-.5-.9-.3-1.9-.6-2.9-.8-1-.2-2-.4-2.9-.6-2-.3-4-.4-6-.4-4 .1-8 1-11.7 2.6-1.8.8-3.6 1.8-5.2 3-.8.6-1.6 1.3-2.3 1.9-.7.7-1.4 1.4-2.1 2.2-.6.8-1.2 1.6-1.8 2.4-.6.8-1.1 1.7-1.5 2.6-.9 1.8-1.6 3.7-2 5.7-.4 2-.4 4-.4 6 0 1 .1 2 .1 3 0 .5 0 1 0 1.5 0 .3 0 .5 0 .8 0 .2 0 .5-.1.8-.2 1.1-.5 2-.8 3-.3 1-.7 1.9-1 2.9-.7 1.9-1.1 3.8-1.1 5.8s.5 3.9 1.3 5.7c.8 1.8 2 3.4 3.4 4.7 1.4 1.4 3 2.6 4.7 3.6 1.7 1 3.5 1.9 5.3 2.7 1.8.8 3.7 1.5 5.7 2.1 1 .3 1.9.6 2.9.8 1 .2 1.9.4 2.9.6 4 .6 8 .6 12 .1 2-.2 4-.6 5.9-1.1 1.9-.6 3.8-1.3 5.5-2.2.9-.5 1.7-1 2.5-1.6.8-.6 1.5-1.3 2.1-2 1.3-1.5 2.3-3.2 2.9-5.1l.2-.4.5.2c.7.3 1.4.5 2.1.4.7-.1 1.4-.4 2-.9.6-.5 1.1-1.1 1.5-1.8.4-.7.7-1.4.9-2.2.1-.2.1-.4.1-.6 0-.2.1-.4.1-.6.1-.4.1-.8.1-1.2 0-.4 0-.8 0-1.2 0-.4-.1-.8-.3-1.2-.2-.8-.7-1.4-1.3-2-.3-.3-.6-.5-1-.7-.2 0-.6-.2-1-.3m.2-.1c.4.1.7.2 1.1.4.4.2.7.4 1.1.7.6.5 1.1 1.3 1.4 2 .1.4.3.8.3 1.2.1.4.1.8.1 1.3 0 .4 0 .8-.1 1.3 0 .2-.1.4-.1.6 0 .2-.1.4-.1.6-.2.8-.5 1.6-.9 2.4-.4.7-.9 1.4-1.6 2-.6.6-1.5 1-2.4 1.2-.4.1-.9.1-1.4 0-.4-.1-.9-.2-1.3-.4l.6-.3c-.6 2-1.5 3.9-2.9 5.6-.7.8-1.4 1.6-2.2 2.2-.8.7-1.7 1.3-2.6 1.8-1.8 1.1-3.7 1.9-5.7 2.5-2 .6-4 1-6.1 1.3-2.1.3-4.1.4-6.2.4-2.1 0-4.1-.1-6.2-.4-1-.1-2.1-.3-3.1-.6s-2-.6-3-.9c-2-.6-3.9-1.3-5.8-2.2-1.9-.8-3.7-1.8-5.5-2.9-1.8-1.1-3.4-2.4-4.9-3.9-1.5-1.5-2.7-3.2-3.6-5.2-.4-1-.7-2-1-3-.2-1-.3-2.1-.3-3.2s.1-2.1.4-3.1c.2-1 .6-2 .9-3 .4-1 .8-1.9 1.1-2.8.4-.9.7-1.9.9-2.8 0-.2.1-.5.1-.7 0-.2 0-.5 0-.7 0-.5 0-1 0-1.5 0-1-.1-2-.1-3.1 0-2 .1-4.1.5-6.1s1.1-4 2.1-5.8c.5-.9 1-1.8 1.6-2.6.6-.9 1.2-1.7 1.8-2.5 2.6-3.2 6-5.7 9.7-7.4 3.7-1.8 7.8-2.8 11.9-3 2.1-.1 4.1-.1 6.2.2 1 .1 2 .3 3.1.5 1 .2 2 .5 3 .8 1 .3 2 .7 2.9 1.1 1 .4 1.9.9 2.8 1.4 1.8 1 3.5 2.2 5.1 3.5 3.2 2.7 5.8 6 7.7 9.7.2.5.5.9.7 1.4l.3.7.3.7c.4 1 .7 1.9 1 2.9.6 2 .9 4.1.8 6.2-.1 2.1-.5 4.1-1 6.1-.2 1.6-.8 3.5-1.4 5.4"/><path fill="#6C423A" d="M91.1 51.8c-.1.5-.8.9-.7-.1 0-.3.2-4.9 3.1-3.5 0 0 .4.4.2.8 0 0-1.9-2.4-2.6 2.8z"/><path fill="#DD9D77" d="M37.7 60.8c7 7 22.8 14.2 38.6 7.5 2.3-3.2-39.4-8.2-38.6-7.5"/><path fill="#9E5755" d="M50.4 52.5c1-.2 2.9.7 6.4 1.3 3.4.6 6.6.2 7.4.5 3.3 1.3-2 8.3-9.7 6.2-3.4-1.7-2.6-5.7-4.1-8z"/><path fill="#F5968B" d="M54.9 60.7c3.6.8 6-.5 8.1-1.7-1.2-.9-3-1.3-4.9-1.7-3.2-.7-4.1-.3-6.2.7 3.5 2.7.5 2.1 3 2.7z"/><path fill="#693C38" d="M50.8 52.7s0 0 .1 0 .2 0 .3 0c.3 0 .7 0 1.2.1s1.1.2 1.8.4 1.5.3 2.3.5c.4.1.9.2 1.3.2.5.1.9.1 1.4.1 1 0 2 0 3.1 0 .3 0 .6 0 .8 0 .3 0 .6 0 .9.1.6.2 1 .8 1 1.4 0 .6-.2 1.2-.5 1.7s-.6 1-1.1 1.5c-.8.9-1.8 1.6-2.9 2-1.1.5-2.3.7-3.4.7-1.2 0-2.2-.2-3.2-.7-1-.5-1.7-1.3-2.1-2.2-.2-.4-.3-.8-.4-1.2-.1-.4-.2-.8-.2-1.1-.1-.7-.2-1.3-.2-1.8-.1-.5-.1-.9-.2-1.2 0-.1-.1-.2-.1-.3l.1-.2zm.1.1c.1.1.1.2.2.3.1.3.2.6.4 1.1.1.5.3 1.1.4 1.8.2.7.4 1.5.8 2.2.2.4.4.7.7 1 .3.3.7.6 1.1.8.1.1.2.1.3.1.1 0 .2.1.3.1l.2.1h.5c.5.1 1 .2 1.5.2 1.1 0 2.2-.1 3.2-.5s2.1-.9 2.9-1.7c.4-.4.8-.8 1.1-1.3.3-.5.5-1 .5-1.6 0-.3-.1-.5-.2-.7-.1-.1-.2-.2-.3-.3 0 0-.1-.1-.2-.1 0 0-.1 0-.2 0-.3 0-.5 0-.8 0-.3 0-.6.1-.8.1-1.1.1-2.2.2-3.2.2s-2-.2-2.9-.4c-.9-.2-1.7-.4-2.3-.6-.7-.2-1.3-.4-1.8-.6-.5-.2-.9-.2-1.1-.3-.1.1-.2.1-.3.1z"/><path fill="#976352" d="M52.9 63.6c-.4 0-.3.7 0 1.2.9 1.7 2.5 2.4 3 2.5.2 0 .5-.4.2-.7-.1-.2-.9-.3-1.9-1.2-.3-.4-1.1-1.7-1.3-1.8"/><path fill="#fff" d="M58.1 45.6c0 .5-.7.9-1.5.9-.8-.1-1.4-.5-1.4-1.1 0-.5.7-.9 1.5-.9.8.1 1.4.6 1.4 1.1z"/><path fill="#835347" d="M53.9 48c-.3-.3-.6-2.3.4-3.3 1.4-1.4 3.1-1.1 4.3-.4.5.3 1 .8 1 1.1-1.4-.6-2.8-1.5-4.6 0-.5.4-.6 1.7 0 3.1.2.3-.8-.2-1.1-.5zM57.4 48.2s.9-.5 1.4-.6c.5-.1 1.1.4 1.1.4.1.1.2.3 0 .5-.2.3-.6.2-1 .2-.4.1-1.1-.1-1.5-.5z"/><path fill="#D2856C" d="M39.9 42.4c-2.2 0-4 1-4.3 2.6-.5 2.1 1.6 4.4 4.6 5.2.7.2 1.4.3 2 .3 2.2 0 4-1 4.3-2.6.5-2.1-1.6-4.4-4.6-5.2-.7-.2-1.4-.3-2-.3M75.4 46.4c-.1 0-.2 0-.3 0-3.9.1-7 2.1-6.8 4.4.1 2.2 3.2 3.9 6.9 3.9.1 0 .3 0 .4 0 3.9-.1 7-2.1 6.8-4.4-.1-2-4-3.9-7-3.9"/><path fill="#fff" d="M41.4 39.2c-1.1-.8.3-4.7 5.5-4.5 6.3.2 5.4 5.7 4.5 6.8-.6.7-2 .4-5.7-.4-1.8-.4-3.9-1.6-4.3-1.9M79 43.9c1.2-.5-.8-4.8-5.9-6-6.1-1.4-7.3 5-5.8 6 .9.6 2.2-.1 5.1-.1.8 0 2 0 3.2.1 1.5 0 3.1.1 3.4 0"/><path fill="#72493E" d="M76.4 40.5c.2 1.6-1.1 3.1-3 3.3-1.8.2-3.5-1-3.6-2.7-.2-1.6 1.1-3.1 3-3.3 1.8-.2 3.4 1 3.6 2.7M50.7 38c.1 1.7-1.4 3-3.2 3.1-1.8.1-3.4-1.2-3.4-2.9-.1-1.7 1.4-3 3.2-3.1 1.8 0 3.3 1.3 3.4 2.9"/><path fill="#fff" d="M73 39.4c.1.8-.6 1.5-1.5 1.6-.9.1-1.7-.6-1.8-1.4-.1-.8.6-1.5 1.5-1.6.9 0 1.7.6 1.8 1.4M47.7 36.6c.1.8-.6 1.5-1.5 1.6-.9.1-1.7-.6-1.8-1.4-.1-.8.6-1.5 1.5-1.6.9 0 1.7.6 1.8 1.4"/><path fill="#512F25" d="M41.5 39.4c-.3.5-.8-.2-.4-1.2 3-9 14.1-2.6 10.6 3.3 1.1-6.8-7.3-9.3-10.2-2.1M78.4 43.7c.2.5 1.1.1 1-1-1-9.7-15.3-6.6-12.5.9.1-6.8 10.7-8.6 11.5.1"/><path fill="#744B40" d="M46.7 26.3c-2.4 0-3.2.4-4.5 2-.1.2.1.5.5.5 0 0 0 0 .1 0 .3 0 1.8-1.1 3.1-1.4.6-.2 3.1-.3 3.2-.4.3-.3-.5-.6-1.2-.6-.3 0-.8-.1-1.2-.1M74.1 29.5c-.6 0-1.4.2-1.1.5.1.1 3.1.9 3.7 1.1 1.3.4 2.8 1.7 3.1 1.7 0 0 .1 0 .1 0 .4 0 .6-.3.5-.5-1.3-1.8-2.8-2.7-6.3-2.8.1 0 .1 0 0 0"/><path fill="#AD7D6C" d="M46.8 38.2c-.4 0-.8.4-.8.8s.4.8.8.8.8-.4.8-.8-.4-.8-.8-.8M72.4 40.9c-.4 0-.8.4-.8.8s.4.8.8.8.8-.4.8-.8c0-.5-.3-.8-.8-.8"/><path fill="#562032" d="M77.5 5C74.1 1.6 61.4-2.8 51 4.2c3.2.4 4 .3 4.7.5.7.2-6 1.8-8 1-.9.4 4.1 6.6 17.8 5.5-.8 1.3-4.5 1.8-11.2.7 15.6 7.9 26.4 1.6 28-2.3-.4-1-1.5-3.9-4.8-4.6"/><path fill="#713148" d="M61.2 2.5c-1.2 0-2.6.2-4.4.8-.2 0 4.7.2 5.6 1.3 1 1.2-3.8 1.9-7.5 1.9 2.1.9 7.9 1.4 11.3 1.4.9 0 1.7 0 2.1-.1 1.2-.2-4.8-1.6-4.4-4.9-.8-.3-1.7-.4-2.7-.4"/></svg>