<svg xmlns="http://www.w3.org/2000/svg" viewBox="0 -6.7 595.3 595.3" enable-background="new 0 -6.7 595.3 595.3"><g><path fill="#ADDCEE" stroke="#fff" stroke-miterlimit="10" d="M595.8 588.6H1V-6.7h593.7z"/><ellipse cx="321.4" cy="229.1" fill="#fff" stroke="#ADDCEE" stroke-miterlimit="10" transform="matrix(.982 .188 -.188 .982 48.721 -56.269)" rx="167" ry="164.8"/><path fill="#fff" stroke="#ADDCEE" stroke-miterlimit="10" d="M455.9 599.2c9.5-87.1-44.4-178-131.5-187.5l-49.8-5.4c-87.1-9.5-165.7 94.8-175.2 182l356.5 10.9z"/><path fill="#ADDCEE" d="M399.5 273c-14.6 8.9-67.8 10.9-91.3 7.7-21.6-2.9-66.2-14.5-81.5-29.9.9 23.4 24.5 64.3 73 72.4 54 9 93.7-23 99.8-50.2z"/><circle cx="345.7" cy="200.5" r="11.6" fill="#ADDCEE"/><circle cx="296.9" cy="193.8" r="11.6" fill="#ADDCEE"/></g></svg>