<svg xmlns="http://www.w3.org/2000/svg" viewBox="0 -6.7 595.3 595.3" enable-background="new 0 -6.7 595.3 595.3"><g><path fill="#ADDCEE" stroke="#fff" stroke-miterlimit="10" d="M595.8 588.6H1V-6.7h593.7z"/><ellipse cx="275.7" cy="226.4" fill="#fff" stroke="#ADDCEE" stroke-miterlimit="10" transform="matrix(.993 -.118 .118 .993 -24.703 33.982)" rx="167" ry="164.8"/><path fill="#fff" stroke="#ADDCEE" stroke-miterlimit="10" d="M148.8 600.8c-10.3-87.1 42.8-178.4 129.8-188.7l49.8-5.9c87.1-10.3 166.5 93.3 176.8 180.4l-356.4 14.2z"/><path fill="none" stroke="#ADDCEE" stroke-width="7" stroke-miterlimit="10" d="M185.9 267.4c78 62.1 157 37.9 198-30.8"/><path fill="#ADDCEE" d="M258.5 197.9c2.3 5.8-.3 12.3-5.8 14.7-5.5 2.3-11.8-.4-14.1-6.2s.3-12.3 5.8-14.7 11.8.5 14.1 6.2zM317.9 189c2.3 5.8-.3 12.3-5.8 14.7s-11.8-.4-14.1-6.2c-2.3-5.8.3-12.3 5.8-14.7s11.8.4 14.1 6.2z"/></g></svg>