<svg version="1.2" baseProfile="tiny-ps" xmlns="http://www.w3.org/2000/svg" viewBox="0 0 2276 3135" width="2276" height="3135">
	<title>light green leaves</title>
	<style>
		tspan { white-space:pre }
		.shp0 { opacity: 0.502;fill: #c3766c } 
		.shp1 { opacity: 0.502;fill: #a7ccc9 } 
		.shp2 { opacity: 0.502;fill: #e3b77b } 
		.shp3 { opacity: 0.502;fill: #5aa195 } 
		.shp4 { opacity: 0.4;fill: #f79a8a } 
		.shp5 { opacity: 0.4;fill: #a1a0a5 } 
		.shp6 { opacity: 0.4;fill: #a7ccc9 } 
	</style>
	<g id="Layer1">
		<path id="dark cream leaf" class="shp0" d="M536 2018C539.71 2017.41 531.81 2011.73 529.91 2008.47C525.82 2001.47 521.8 1994.39 517.83 1987.32C507.14 1968.26 500.62 1944.38 511.9 1924.07C520.84 1907.98 522.96 1947.08 536.84 1935.61C554.92 1920.67 530.68 1917.94 526.83 1910.22C523.77 1904.08 536.92 1892.33 540.48 1889.28C544.02 1886.25 547.9 1883.45 552.48 1882.33C568.55 1878.41 556.15 1904.91 572.77 1901.48C588.12 1898.3 575.14 1876.97 575.92 1872.29C576.31 1869.92 588.85 1869.18 590.28 1869.06C602.11 1868.04 627.01 1861.21 638.15 1867.91C640.54 1869.36 641.19 1884.04 641.57 1886.49C642.78 1894.17 647.41 1923.23 639.43 1929.23C632.28 1934.61 620.79 1922.26 618.07 1937.48C614.45 1957.74 637.82 1941.72 638.15 1950.24C638.93 1970.72 618.15 1987.82 600.57 1993.7C598.42 1994.42 600.86 1989.07 600.21 1986.89C599.4 1984.17 594.21 1982.64 591.85 1983.95C579.21 1990.92 601.37 1999.28 590.28 2007.9C570.67 2023.14 551.62 2008.4 539.27 2016.29" />
		<path id="light green leaves" class="shp1" d="M1583.35 1826.79C1581.81 1827.2 1585.91 1824.9 1587.02 1823.77C1589.46 1821.31 1591.58 1818.61 1593.76 1815.91C1600.59 1807.44 1607.22 1798.81 1613.72 1790.08C1634.87 1761.65 1658.9 1731.92 1693.06 1719.33C1697.46 1717.71 1722.45 1708.38 1727.01 1714.77C1727.77 1715.83 1711.14 1721.81 1710.39 1722.1C1698.04 1726.89 1686.09 1731.48 1675.59 1739.83C1645.51 1763.73 1620.57 1792.29 1592.69 1818.47M1596.47 1812.45C1597.09 1811.41 1594.06 1812.11 1592.94 1811.67C1590.69 1810.81 1589.06 1809.23 1587.76 1807.23C1584.42 1802.07 1583.16 1795.02 1584.61 1789.06C1584.8 1788.25 1585.45 1784.52 1586.42 1784.03C1586.49 1784 1590.42 1789.28 1590.57 1789.48C1595.06 1795.47 1598.04 1801.94 1597.35 1809.54M1606.89 1802.02C1604.12 1804.24 1600.02 1797.61 1599.24 1796.09C1595.72 1789.16 1595.92 1781.38 1596.9 1773.9C1597.1 1772.37 1597.14 1766.96 1598.74 1765.89C1599.77 1765.21 1605.26 1772.31 1605.79 1772.97C1607.56 1775.2 1609.07 1777.72 1610.04 1780.4C1611.62 1784.77 1611.52 1789.53 1610.67 1794.04M1619.34 1784.67C1616.48 1785.03 1614.02 1780.08 1613.19 1778.13C1609.85 1770.27 1608.34 1754.11 1612.38 1746.02C1612.52 1745.73 1620.59 1753.48 1621 1753.91C1623.37 1756.45 1625.56 1759.24 1626.99 1762.44C1629.27 1767.57 1628.75 1772.31 1626.67 1777.4M1639 1762.79C1639.63 1762.61 1637.76 1762.34 1637.15 1762.08C1636.16 1761.63 1635.15 1761.14 1634.27 1760.5C1631.81 1758.71 1630.1 1755.95 1629.09 1753.12C1626.19 1745.01 1625.77 1735.31 1627.62 1726.93C1627.88 1725.75 1628.85 1719.8 1630.17 1719C1632.24 1717.76 1639.4 1727.21 1640.05 1728.09C1647.44 1738.18 1649.92 1750.11 1644.72 1761.65M1656.99 1743.21C1658.23 1743.84 1654.34 1742 1653.55 1740.86C1651.7 1738.17 1650.5 1734.89 1649.72 1731.75C1647.63 1723.43 1648.43 1714.81 1652.68 1707.32C1653.59 1705.73 1655.67 1701.5 1657.65 1700.84C1659.19 1700.32 1662.76 1708.6 1663.14 1709.5C1667.59 1720.06 1665.01 1731.6 1660.25 1741.62M1676.42 1729.93C1673.01 1733.37 1670.88 1723.57 1671 1722.16C1671.73 1713.19 1675.04 1703.42 1681.09 1696.65C1686.66 1690.42 1685.99 1697.43 1686.74 1702.79C1687.88 1711.04 1687.88 1719.7 1682.69 1726.64M1698.52 1718.57C1697.46 1722.33 1694.22 1712.63 1694.22 1711.71C1694.28 1702.54 1698.27 1692.13 1704.37 1685.28C1705.22 1684.31 1709.59 1679.51 1711.46 1680.04C1713.19 1680.54 1713.89 1687.43 1714.01 1688.6C1715.03 1698.43 1712.37 1708.86 1706.36 1716.66M1716.14 1714.62C1716.58 1716.07 1714.47 1711.94 1714.4 1710.42C1714.26 1707.32 1715.33 1704.24 1716.56 1701.44C1720.01 1693.56 1727.54 1684.24 1736.31 1682.04C1737.6 1681.72 1736.08 1684.68 1735.89 1685.99C1735.54 1688.45 1735.08 1690.89 1734.53 1693.31C1732.44 1702.53 1727.31 1708.75 1719.68 1713.98M1722.48 1715.39C1721.9 1716.22 1723.62 1713.68 1724.41 1713.05C1725.75 1712 1727.19 1711.07 1728.67 1710.24C1734.67 1706.84 1741.53 1703.21 1748.51 1702.63C1748.89 1702.6 1755 1702.11 1755 1703.1C1755 1705.21 1750.39 1708.75 1749.16 1709.92C1741.36 1717.37 1732.96 1719.91 1722.34 1718.56M1708.35 1722.23C1707.4 1722.71 1710.52 1720.87 1711.33 1720.69C1713.98 1720.08 1716.75 1719.8 1719.47 1719.9C1727.57 1720.19 1736.08 1723.34 1742.52 1728.27C1743.46 1729 1747.3 1731.71 1747.3 1733.35C1747.3 1733.85 1736.08 1736.48 1735.47 1736.59C1722.53 1739.06 1710.64 1733.91 1702.05 1724.27M1682.94 1735.65C1693.44 1730.27 1705.75 1732.91 1716.71 1739.14C1718.85 1740.36 1720.94 1741.67 1722.94 1743.09C1727.25 1746.16 1729.29 1748.73 1724.02 1749.7C1722.28 1750.02 1720.54 1750.34 1718.79 1750.57C1715.52 1751 1712.24 1751.13 1708.94 1751.15C1704.26 1751.17 1699.73 1750.57 1695.33 1748.91C1689.19 1746.59 1684.11 1742.08 1679.77 1737.25M1660.61 1753.14C1658.62 1752.23 1663.92 1750.19 1664.09 1750.15C1667.54 1749.26 1671.36 1749.22 1674.89 1749.54C1684.14 1750.39 1693 1753.9 1700.32 1759.57C1701.54 1760.52 1705.58 1762.95 1705.94 1764.76C1705.94 1764.77 1692.31 1765.19 1691.89 1765.18C1679.55 1764.8 1665.94 1763.08 1656.84 1753.97M1640.14 1768C1639.66 1767.57 1643.29 1766.21 1643.3 1766.21C1646.31 1765.43 1649.51 1765.49 1652.58 1765.76C1661.78 1766.57 1670.32 1769.32 1678.14 1774.24C1679.03 1774.8 1685.47 1778.16 1685.47 1779.56C1685.47 1779.72 1682.8 1780.5 1682.64 1780.56C1679.01 1781.8 1675.4 1782.97 1671.6 1783.58C1657.64 1785.82 1643.93 1783.79 1637.76 1770.39M1622.88 1786.26C1623.43 1787.12 1623.91 1784.36 1624.81 1783.87C1626.83 1782.78 1629.81 1782.72 1632.03 1782.93C1640.78 1783.72 1649.33 1788.16 1656.34 1793.25C1657.15 1793.83 1662.25 1796.79 1662.25 1798.04C1662.25 1799.15 1652.28 1800.46 1651.48 1800.54C1640.47 1801.66 1628.58 1798.72 1622.36 1788.9M1606.75 1800.54C1606.45 1797.51 1615.8 1797.75 1617.06 1797.93C1625.55 1799.16 1640.34 1804.14 1645.64 1811.73C1646.03 1812.28 1642.5 1813.1 1642.23 1813.17C1638.88 1814.05 1635.45 1814.69 1632.01 1815.02C1621.33 1816.02 1613.21 1809.68 1607.31 1801.35M1595.71 1815.08C1595.55 1815.24 1595.66 1813.74 1597.75 1813.31C1600.53 1812.73 1603.45 1813 1606.23 1813.49C1614.9 1815.03 1622.44 1819.56 1628.93 1825.36C1629.28 1825.68 1634.32 1830.2 1633.9 1830.84C1633.57 1831.33 1624.82 1830.54 1624.1 1830.52C1613.19 1830.27 1600.25 1827.35 1594.25 1817.26" />
		<path id="yellow leaves" class="shp2" d="M332.36 660.44C316.83 657.99 307.06 619.88 304.02 608.85C289.24 555.2 310.48 486.54 377.36 505.96C419.67 518.24 439.73 599.97 384.25 607.13C370.01 608.97 338.2 589.12 351.47 571.43C352.91 569.51 354.54 576.29 354.91 577.05C356.98 581.31 360.17 586.37 364.49 588.65C374.54 593.93 386.73 590.33 393.9 582.06C420.35 551.55 374.7 516.83 345.03 519.2C300.24 522.78 312.54 604.08 321.68 629.06C323.54 634.14 327.53 656.71 331.78 658.84M1177.08 2451.17C1178.77 2452.85 1173.37 2448.18 1171.35 2446.92C1167.44 2444.48 1163.44 2442.29 1159.14 2440.61C1146.98 2435.85 1133.66 2433.08 1121.06 2429.68C1083.76 2419.61 1046.45 2411.66 1019.71 2380.88C1014.79 2375.22 1000.88 2359.67 1002.2 2350.69C1002.25 2350.32 1002.77 2351.17 1003.01 2351.44C1008.19 2357.33 1013.28 2363.22 1018.73 2368.87C1030.32 2380.85 1042.62 2390.06 1057.23 2398.01C1089.45 2415.57 1155.26 2421.03 1177.78 2448.44M1172.1 2444.25C1172.86 2444.56 1171.01 2443.02 1170.5 2442.37C1169.43 2441.03 1168.49 2439.6 1167.72 2438.07C1165.48 2433.6 1164.54 2428.27 1165.43 2423.33C1165.66 2422.06 1165.95 2420.78 1166.32 2419.54C1166.47 2419.03 1166.37 2417.74 1166.84 2418.01C1175.21 2423.03 1176.82 2433.55 1173.8 2442.01M1158.52 2435.63C1158.71 2436.69 1155.62 2435.24 1155.55 2435.2C1153.15 2433.7 1151.18 2431.46 1149.58 2429.17C1145.69 2423.61 1143.7 2417.46 1145.61 2410.76C1146.25 2408.52 1147.16 2406.31 1148.19 2404.22C1148.68 2403.22 1148.63 2400.44 1149.51 2401.13C1151.49 2402.67 1153.54 2406.43 1154.92 2408.48C1160.46 2416.69 1163.36 2424.43 1160.37 2434.21M1137.85 2427.5C1134.07 2428.52 1130.86 2424.62 1128.61 2422.06C1122.44 2415.04 1119.11 2406.17 1119.26 2396.81C1119.29 2394.95 1119.47 2393.08 1119.71 2391.23C1119.89 2389.84 1120.15 2388.46 1120.45 2387.09C1121.25 2383.45 1122.82 2383.91 1125.54 2386.45C1126.52 2387.37 1127.45 2388.36 1128.34 2389.37C1129.82 2391.05 1131.22 2392.85 1132.46 2394.72C1134.81 2398.27 1136.54 2402.37 1137.55 2406.5C1139.13 2412.93 1138.7 2419.86 1134.86 2425.41M1113.78 2419.39C1113.59 2418.99 1108.49 2417.11 1107.88 2416.66C1103.74 2413.61 1100.11 2409.74 1097.58 2405.24C1095.35 2401.27 1094.46 2396.98 1094.59 2392.44C1094.67 2389.7 1095.02 2386.95 1095.57 2384.27C1095.91 2382.56 1096.36 2380.87 1096.86 2379.21C1098.39 2374.22 1099.77 2372.19 1103.23 2375.92C1104.27 2377.04 1105.22 2378.23 1106.13 2379.45C1107.66 2381.5 1109.07 2383.64 1110.4 2385.83C1116.38 2395.7 1120.77 2409.12 1114.7 2419.91M1089.67 2413.11C1085.76 2413.48 1082.48 2410.15 1080.41 2407.17C1075.34 2399.87 1071.86 2389.21 1072.61 2380.28C1072.89 2376.86 1073.9 2373.71 1075.51 2370.69C1075.59 2370.55 1076.9 2368.03 1076.91 2368.03C1077.39 2368.2 1078.57 2370.8 1078.78 2371.14C1081 2374.71 1082.8 2378.58 1084.58 2382.37C1086.31 2386.07 1087.79 2389.74 1088.65 2393.75C1089.93 2399.77 1090.73 2406.44 1087.78 2412.09M1062.8 2402.04C1060.04 2406.25 1054.48 2396.48 1053.86 2395.1C1050.04 2386.65 1047.83 2376.78 1050.4 2367.67C1051.23 2364.76 1052.61 2361.87 1054.29 2359.35C1054.71 2358.71 1055.2 2357.14 1055.8 2357.61C1065.45 2365.16 1068.89 2380.92 1067.92 2392.28C1067.57 2396.33 1067.19 2401.02 1064.8 2404.45M1039.61 2389.55C1036.08 2391.01 1033.36 2379.96 1032.79 2378.07C1029.11 2365.99 1031.2 2355.61 1038.88 2345.82C1038.91 2345.77 1039.48 2347.13 1039.49 2347.15C1039.86 2348.11 1040.2 2349.09 1040.51 2350.07C1041.46 2353.05 1042.38 2356.07 1043.07 2359.13C1045.2 2368.55 1046.87 2380.28 1039.91 2388.15M1019.81 2373.87C1020.32 2374.21 1019.14 2372.84 1018.83 2372.31C1018.27 2371.33 1017.82 2370.3 1017.48 2369.22C1016.65 2366.55 1016.23 2363.76 1015.94 2360.98C1015.09 2352.96 1015.06 2343.76 1020.23 2337.05C1020.8 2336.33 1024.76 2331.67 1026.06 2332.28C1026.37 2332.42 1026.46 2334.22 1026.53 2334.49C1027.28 2337.36 1028.07 2340.16 1028.54 2343.11C1029.86 2351.52 1031.9 2369.31 1022.64 2374.37M1005.66 2357.66C1002.28 2360.23 996.12 2355.24 994.18 2352.94C988.76 2346.5 986.03 2336.87 985.48 2328.59C985.36 2326.87 985.46 2325.15 985.56 2323.44C985.62 2322.53 985.71 2321.62 985.83 2320.71C986.27 2317.27 987.82 2318.97 990.37 2321.14C991.29 2321.92 992.21 2322.7 993.1 2323.52C994.99 2325.25 996.75 2327.11 998.29 2329.16C1000.64 2332.3 1002.6 2335.78 1004.05 2339.43C1006.25 2344.99 1008.1 2352.13 1006.63 2358.12M1016.37 2375.11C1016.95 2375.63 1015.45 2377.36 1015.19 2377.7C1013.24 2380.21 1010.75 2381.65 1007.61 2382.17C997.58 2383.83 986.4 2378.45 979.31 2371.74C977.64 2370.17 976.12 2368.44 974.68 2366.66C974.55 2366.49 973.13 2365.02 973.22 2364.79C973.36 2364.38 975.43 2364.03 975.75 2363.93C978.32 2363.14 980.91 2362.55 983.56 2362.17C995.29 2360.46 1007.27 2363.61 1016.22 2371.47M1032.35 2390.34C1033.03 2390.91 1031.23 2393.55 1030.98 2393.93C1028.78 2397.17 1025.56 2399.47 1021.84 2400.66C1013.41 2403.36 1004.28 2399.15 997.05 2394.83C996.74 2394.64 999.08 2392.64 999.19 2392.56C1001.67 2390.52 1004.44 2388.67 1007.32 2387.23C1015.03 2383.4 1024.01 2385.54 1031.35 2389.27M1051.8 2403.55C1053.18 2404.43 1048.82 2410.25 1048.48 2410.62C1043.59 2416 1037.33 2419.29 1030.07 2420C1027.87 2420.22 1025.67 2420.13 1023.48 2419.89C1022.07 2419.73 1020.67 2419.53 1019.28 2419.25C1013.89 2418.15 1014.72 2415.85 1018.24 2411.69C1019.41 2410.31 1020.71 2409.07 1022.13 2407.95C1028.6 2402.81 1036.13 2400.43 1044.29 2401.77M1080.62 2416.09C1077.21 2420.66 1073.87 2424.34 1068.61 2427.06C1064.85 2429 1060.64 2430.33 1056.45 2430.94C1052.28 2431.55 1047.93 2431.22 1043.74 2430.92C1042.86 2430.86 1040.57 2431.09 1039.93 2430.19C1039.03 2428.9 1041.21 2425.21 1041.77 2424.28C1042.5 2423.04 1043.34 2421.89 1044.27 2420.79C1045.77 2419.02 1047.43 2417.43 1049.33 2416.09C1056.33 2411.17 1066.25 2410.65 1074.39 2412.58M1110.2 2424.85C1110.59 2425.26 1109.43 2426.96 1109.3 2427.18C1107.93 2429.58 1106 2431.72 1103.97 2433.58C1098.04 2439.03 1090.13 2441.89 1082.15 2442.38C1080.31 2442.49 1078.51 2442.52 1076.68 2442.24C1072.45 2441.59 1070.4 2441.27 1072.65 2437.61C1072.99 2437.05 1073.66 2436.11 1074.05 2435.62C1075.21 2434.17 1076.54 2432.85 1077.96 2431.64C1080.29 2429.65 1082.76 2427.93 1085.47 2426.49C1090.43 2423.85 1095.84 2421.53 1101.52 2422.95M1121.16 2428.89C1120.82 2428.45 1118.93 2429.43 1118.56 2429.61C1116.16 2430.75 1113.91 2432.18 1111.81 2433.81C1105.92 2438.37 1100.84 2444.3 1097.76 2451.12C1097.66 2451.34 1095.16 2456.6 1095.37 2456.74C1096.97 2457.83 1102.43 2455.8 1103.86 2455.29C1105.52 2454.7 1107.1 2453.95 1108.65 2453.1C1111.9 2451.3 1115.02 2448.9 1117.45 2446.07C1121 2441.95 1122.83 2436.59 1123.1 2431.2M1144.21 2434.28C1144.22 2434.27 1141.31 2433.98 1141.03 2434.01C1139.2 2434.22 1137.46 2434.85 1135.84 2435.72C1130.24 2438.74 1125.26 2444.71 1122.45 2450.35C1122.22 2450.8 1119.95 2454.91 1120.4 2455.52C1120.47 2455.61 1122.45 2455.42 1122.57 2455.42C1124.81 2455.34 1127.06 2455.02 1129.26 2454.62C1138.23 2453 1146.59 2446.81 1147.74 2437.25M1161.67 2440.11C1161.07 2440.38 1159.07 2439.85 1158.17 2440.12C1154.66 2441.19 1151.39 2443.41 1148.61 2445.75C1146.38 2447.63 1144.49 2449.85 1142.82 2452.22C1141.65 2453.87 1140.63 2455.62 1139.73 2457.42C1139.32 2458.24 1138.91 2459.07 1138.56 2459.93C1137.71 2461.99 1137.21 2463.11 1139.53 2462.91C1140.34 2462.84 1140.9 2462.76 1141.71 2462.64C1142.91 2462.48 1143.01 2462.46 1144.24 2462.23C1146.21 2461.86 1148.19 2461.48 1150.1 2460.9C1157.85 2458.55 1163.87 2451.71 1163.74 2443.39M1173.75 2448.91C1171.88 2447.31 1167.22 2451.9 1166.07 2452.97C1161.68 2457.05 1158.11 2461.75 1155.9 2467.34C1155.03 2469.54 1153.97 2472.06 1154.65 2474.47C1154.88 2475.28 1156.2 2473.75 1156.97 2473.39C1159.65 2472.16 1162.3 2470.97 1164.78 2469.35C1171.47 2464.97 1178.17 2458.14 1175.63 2449.55M446.14 1215.39C447.49 1215.39 433.75 1229.51 432.3 1230.52C424.87 1235.69 401.35 1249.06 391.4 1243.52C390.51 1243.03 396.63 1237.49 397.13 1236.9C400.8 1232.6 408.44 1223.27 401.98 1218.52C382.91 1204.49 385.4 1233.62 378.54 1236.76C373.89 1238.88 349.9 1228.31 351.31 1222.61C352.62 1217.31 364.39 1214.38 361.22 1206.4C354.5 1189.49 338 1214.88 337.36 1214.73C326.43 1212.03 303.05 1183.07 307.09 1171.09C310.28 1161.62 339.97 1153.55 348.46 1151.37C350.27 1150.9 360.68 1148.23 362.6 1149.87C365.4 1152.26 357.81 1164.96 366.84 1166.74C382.91 1169.92 371.28 1149.42 383.07 1149.87C393.24 1150.26 412.1 1156.93 418.39 1165.74C419.44 1167.21 414.98 1167.19 413.72 1168.48C411.42 1170.83 408.34 1176.14 412.4 1178.37C421.65 1183.45 422.26 1170.51 427.24 1170.35C439.81 1169.94 460.51 1202.44 453.67 1214.71M2254.39 1766.62C2255.38 1767.54 2235.7 1768.63 2233.96 1768.39C2224.98 1767.17 2198.62 1761.09 2195.05 1750.27C2194.73 1749.31 2202.98 1749.38 2203.74 1749.28C2209.35 1748.6 2221.3 1746.91 2219.76 1739.03C2215.22 1715.8 2197.33 1738.93 2190.16 1736.59C2185.3 1735.01 2174.79 1710.99 2179.69 1707.75C2184.24 1704.73 2194.89 1710.54 2197.96 1702.52C2204.46 1685.53 2175.13 1693.05 2174.76 1692.5C2168.54 1683.12 2170.93 1645.97 2182.01 1639.89C2190.78 1635.08 2218.09 1649.24 2225.82 1653.38C2227.47 1654.26 2236.93 1659.34 2237.24 1661.85C2237.69 1665.5 2223.5 1669.71 2228.94 1677.14C2238.62 1690.36 2243.94 1667.39 2252.31 1675.71C2259.53 1682.87 2268.9 1700.55 2267.57 1711.29C2267.35 1713.08 2264.08 1710.05 2262.27 1710.14C2258.99 1710.32 2253.12 1712.14 2254.61 1716.54C2257.98 1726.53 2267.18 1717.42 2270.96 1720.67C2280.49 1728.89 2273.72 1766.82 2260.39 1771.22" />
		<path id="dark green leaves" class="shp3" d="M1859.33 352C1858.27 351.35 1860.05 349.62 1860.57 348.75C1866.77 338.33 1871.99 326.92 1876.37 315.61C1888.27 284.8 1905.84 258.25 1938.98 247.48C1944.67 245.63 1970.72 240.42 1975 247.97C1975.11 248.16 1971.97 250.08 1971.77 250.25C1968.61 252.88 1966.45 256.51 1964.16 259.87C1957.49 269.66 1951.57 279.88 1944.59 289.48C1936.13 301.1 1926.54 311.38 1914.76 319.63C1897.89 331.45 1876.86 337.36 1860.89 350.44M2136.12 3131.52C2137.31 3132.28 2132.54 3134.47 2132.17 3134.55C2127.68 3135.65 2122.81 3134.43 2118.38 3133.6C2106.82 3131.44 2093.83 3128.1 2084.29 3121.01C2055.1 3099.32 2040.28 3065.7 2037.36 3030.39C2036.72 3022.67 2036.21 3014.93 2035.64 3007.2C2035.57 3006.22 2034.41 3000.99 2035.37 3000.18C2036.63 2999.13 2042.22 3003.1 2043.1 3003.58C2051.59 3008.19 2060.11 3012.76 2068.56 3017.44C2109.27 3039.97 2128.23 3083.07 2139 3126.22M2107.04 728.43C2104.97 731.05 2105.14 723.95 2105.14 723.24C2105.14 717.1 2106.31 710.84 2107.57 704.85C2110.37 691.52 2117.18 670.46 2129.06 661.86C2129.62 661.45 2132.27 665 2133.3 665.41C2137.67 667.14 2144.43 666.58 2147.96 663.3C2151.88 659.66 2152.03 654.44 2150 649.87C2149.63 649.05 2146.32 644.94 2146.52 644.55C2148.6 640.39 2154.33 636.55 2157.59 633.48C2165.69 625.86 2174.45 616.63 2184.31 611.28C2188.97 608.75 2186.41 613.38 2188.68 616.9C2191.81 621.72 2197.67 623.45 2202.62 620.21C2207.6 616.95 2207.42 610.14 2205.02 605.34C2204.45 604.21 2200.52 600.84 2201.34 599.92C2211.91 587.98 2234.41 581.91 2249.09 578.24C2251.92 577.53 2263.88 573.41 2266.77 575.68C2269.98 578.2 2265.92 593.35 2265.39 596.14C2263.33 607.11 2260.99 627.2 2252.54 635.65C2251.63 636.56 2246.85 633.35 2245.54 633.09C2239.8 631.93 2234.61 634.22 2232.59 640.08C2230.77 645.37 2236.12 649.58 2240.71 650.56C2241.12 650.65 2246.23 651.15 2246.23 651.22C2246.48 654.45 2243.06 659.62 2241.76 662.25C2236.55 672.83 2229.58 683.58 2220.5 691.25C2218.33 693.09 2212.71 699.09 2209.49 698.84C2208.5 698.76 2207.82 695.48 2207.45 694.83C2205.71 691.8 2198.75 687.65 2195.39 690.17C2188.44 695.38 2198.67 701.1 2201.11 703.54C2201.24 703.67 2199.08 707.46 2199 707.61C2196.82 711.82 2194.12 715.67 2190.79 719.07C2182.29 727.74 2169.75 732.84 2159.04 738.15C2156.87 739.23 2151.37 743.49 2148.65 742.81C2144.18 741.7 2140.33 731.7 2134.98 733.65C2130.65 735.23 2129.11 740.53 2129.59 744.65C2129.83 746.77 2132.85 750.51 2131.99 750.89C2125.9 753.6 2118.21 754.38 2111.64 754.7C2110.12 754.78 2105.44 755.57 2104.28 754.28C2101.42 751.09 2104.15 739.67 2104.61 736.21C2105.27 731.28 2106.01 726.33 2107.04 721.47" />
	</g>
	<path id="cream leaves" class="shp4" d="M643.07 3083.81C677.41 3066.62 714.62 3062.28 751.9 3051.66C783.74 3042.59 811.51 3026.5 831.63 2999.79C837.97 2991.38 843.53 2982.43 848.02 2972.89C849.48 2969.78 850.87 2966.63 851.97 2963.37C852.48 2961.88 853.88 2957.46 852.95 2958.74C828.98 2992.09 799.47 3024.99 759.21 3038.08C708.38 3054.6 654.44 3047.12 617.38 3094.22M844.66 2980.82C841.73 2983.87 857.27 2987.88 857.64 2987.92C870.58 2989.28 886.43 2983.94 895.24 2974.15C896.67 2972.56 902.23 2967.22 901.59 2964.56C901.01 2962.16 887.8 2963.66 886.6 2963.78C872.02 2965.19 856.57 2968.96 844.58 2977.8M853.06 2962.83C853.24 2962.6 852.93 2963.81 853.2 2963.7C862.29 2960.21 870.59 2952.77 876.43 2945.15C884.06 2935.2 888.86 2922.61 889.36 2910.03C889.42 2908.46 889.73 2897.59 886.38 2897.48C882.61 2897.34 875.04 2906.25 872.82 2908.64C860.25 2922.18 851.41 2943.09 851.46 2961.88M840.45 2974.41C841.75 2975.06 844.17 2959.27 844.14 2957.68C843.82 2944.78 837.3 2930.83 827.98 2921.84C826.35 2920.27 822.74 2941.09 822.74 2942.52C822.74 2955.18 826.86 2970.55 835.11 2980.48M814.93 3006.64C826.59 2997.6 821.83 2972.25 814.54 2961.92C813.96 2961.09 803.18 2946.76 802.6 2947.27C799.59 2949.97 800.34 2964.62 800.26 2968.15C800.14 2973.1 800.3 2978.01 800.86 2982.93C802.01 2992.9 805.16 3000.44 813.79 3005.9M787.7 3029.54C789.51 3032.06 794.08 3017.27 794.13 3016.56C794.99 3004.16 791.95 2991.35 784.05 2981.69C783.4 2980.9 777.18 2973.1 775.45 2973.78C773.51 2974.53 773.27 2985.72 773.09 2987.27C771.29 3003.22 771.87 3017.79 782.32 3030.48M754.67 3041.63C777.8 3035.64 749.85 2953.62 744.53 3002.13C743.96 3007.35 743.76 3012.57 743.98 3017.82C744.37 3026.82 746.24 3034.54 752.36 3041.29M719.6 3048.79C729.42 3041.29 734.52 3030.47 733.25 3016.21C732.89 3012.27 731.64 3008.54 730.17 3004.91C725.6 2993.62 719.63 2990.4 715.38 3001.8C714.19 3005.01 713.03 3008.23 711.96 3011.48C710.06 3017.26 708.59 3023.12 707.94 3029.17C706.83 3039.52 709.54 3046.26 716.41 3053.66M685.38 3055.11C685.17 3056.67 687.38 3056.09 688.1 3055.79C694.14 3053.24 696.84 3045.84 698.68 3040.11C702.17 3029.23 701.5 2995.49 685.96 2990.65C684.42 2990.17 677.09 3007.38 676.66 3008.37C669.78 3024.53 667.5 3045.32 679.08 3059.67M658.97 3069.97C656.92 3066.05 660.48 3061.21 660.52 3056.78C660.59 3046.33 658.3 3034.84 651.72 3026.5C650.76 3025.29 645.89 3018.81 643.97 3018.85C639.57 3018.94 642.42 3027.53 641.37 3031.81C638 3045.53 634.49 3062.01 641.97 3074.99M833.31 3003.76C837.27 3019.61 858.72 3019.61 871.79 3017.38C874.41 3016.93 889.02 3014.52 886.22 3008.63C884.57 3005.16 872.71 3002.82 869.67 3001.9C864.68 3000.39 859.6 2999 854.46 2998.08C847.56 2996.85 841.14 2996.3 834.44 2998.58M820.76 3011.96C824.02 3017.09 833.28 3021.9 837.69 3026.6C840.36 3029.46 842.83 3032.43 844.77 3035.84C851.98 3048.52 844.68 3052.35 830.88 3047.31C819.6 3043.2 808.18 3034.29 808.41 3021.13M783.71 3037.59C794.06 3037.78 805.33 3046.43 811.6 3053.96C812.23 3054.72 818.11 3061.4 816.7 3062.87C814.37 3065.3 796.43 3063.34 793.09 3063.35C787.43 3063.37 781.62 3063.79 776.1 3062.29C766.35 3059.64 762.39 3052.91 757.24 3045.13M742.01 3051.48C740.1 3054.13 748.53 3052.69 751.37 3054.28C758.87 3058.5 765.35 3064.38 772.87 3068.55C775.51 3070.01 778.34 3071.18 781.18 3072.18C782.8 3072.75 787.04 3072.48 786.04 3073.88C769.72 3096.58 733.87 3073.83 725.61 3056.47M693.11 3067.42C692.78 3067.32 698.96 3076.25 700.13 3077.22C707.28 3083.18 716.01 3087.72 725.29 3088.85C726.02 3088.94 735.46 3090.24 735.81 3089.11C736.02 3088.43 728.56 3080.96 728.02 3080.29C719.68 3069.89 708.79 3058.45 695.14 3056.09M661.12 3072.64C660.9 3072.5 663.6 3075.75 664.08 3076.37C666.19 3079.13 668.55 3081.45 671.35 3083.52C675.75 3086.78 705.34 3102.14 709.4 3094.87C711.22 3091.61 698.69 3082.94 697.01 3081.65C685.59 3072.89 669.3 3058.65 653.69 3063.25" />
	<path id="grey leaves" class="shp5" d="M282.22 2898.8C280.65 2899.59 283.21 2894.91 283.67 2892.95C284.51 2889.38 285.68 2885.94 287.13 2882.66C291.42 2872.93 298.58 2864.43 305.65 2857.5C328.15 2835.46 353.53 2817.18 365.73 2783.89C369.76 2772.9 373.03 2760.74 373.89 2748.75C374.19 2744.51 374.14 2740.28 373.76 2736.05C373.54 2733.65 373.49 2726.77 372.58 2728.93C364.27 2748.66 367.8 2773.49 354.84 2792.48C330.03 2828.84 287.48 2848.85 282.69 2899.99M281.76 2888.07C280.92 2885.79 282.5 2879.79 281.69 2876.59C281.17 2874.52 280.48 2872.49 279.37 2870.76C274.76 2863.56 270.1 2865.61 271.14 2874.87C271.84 2881.15 275.46 2886.98 280.43 2889.33M288.05 2868.21C289.49 2869.7 290.04 2861.66 290.07 2861.14C290.4 2854.78 289.04 2849.08 285.6 2844.16C284.91 2843.16 282.76 2839.8 281.31 2840.2C279.25 2840.76 278.15 2846.88 277.82 2848.78C276.38 2857.28 280.61 2866.35 287.17 2869.92M297.77 2853.15C299.31 2854.6 301.1 2847.68 301.19 2846.86C301.81 2840.89 299.6 2833.19 296.03 2828.92C295.7 2828.52 292.4 2824.75 291.71 2825.3C290.59 2826.18 290.5 2831.51 290.37 2832.78C289.55 2840.68 290.86 2850.06 296.63 2855.05M308.44 2841.26C312.2 2842.37 313.78 2835.37 313.91 2832.25C314.16 2826.38 311.86 2818.08 308.16 2814.02C307.86 2813.7 302.52 2809.04 302.08 2810.11C301.07 2812.49 301.51 2817.74 301.46 2820.31C301.4 2823.25 301.61 2826.23 302.14 2829.11C302.97 2833.63 305.07 2837.88 308 2840.96M323.44 2824.39C323.37 2823.85 324.38 2824.5 324.83 2824.37C325.65 2824.13 326.11 2823.1 326.46 2822.28C327.74 2819.2 327.44 2815.44 326.88 2812.18C326.22 2808.38 324.49 2805.27 322.61 2802.18C321.53 2800.41 320.36 2798.73 319.03 2797.23C318.28 2796.39 317.46 2795.59 316.62 2794.88C316.34 2794.65 313.73 2792.34 313.2 2792.7C312.87 2792.92 312.98 2795.21 312.96 2795.55C312.84 2798.67 312.82 2801.81 312.95 2804.93C313.32 2814.05 315.03 2823.42 323.27 2826.21M337.76 2808.87C337.49 2808.58 338.49 2808.47 338.61 2808.06C338.92 2807 338.92 2805.87 338.9 2804.76C338.81 2800.97 338.26 2797.28 336.42 2794.09C334.58 2790.9 331.74 2788.54 328.81 2786.94C328.75 2786.91 325.69 2785.61 325.67 2785.67C325.44 2786.78 326.19 2789.26 326.22 2790.48C326.39 2797.24 328.78 2813.09 337.23 2811.65M349.07 2798.24C349.51 2798.8 350.58 2797.63 350.7 2797.27C351.25 2795.59 351.24 2793.46 351 2791.72C350.17 2785.84 346.52 2781.12 342.34 2778.11C341.8 2777.71 338.7 2775.38 337.89 2776.06C337.35 2776.53 338.34 2782.7 338.39 2783.37C338.93 2790.48 340.7 2799.96 348.02 2800.5M357.67 2781.01C360.63 2780.18 357.54 2772.74 356.74 2771.43C353.86 2766.74 347.28 2762.56 342.23 2763.83C341.42 2764.03 344.32 2770.97 344.63 2771.63C347.19 2777.2 352.18 2782.11 357.77 2781.56M363.09 2767.21C366.15 2760.04 361.43 2751.82 355.96 2748.05C353.93 2746.65 351.64 2745.97 349.34 2745.63C349.22 2745.61 347.5 2745.22 347.41 2745.6C346.83 2748.01 349.56 2754.75 350.19 2757.01C350.98 2759.87 352.07 2762.78 353.95 2764.87C356.25 2767.44 359.61 2769.8 362.86 2769.6M365.9 2744.97C365.64 2744.92 366.33 2744.55 366.42 2744.25C366.65 2743.56 366.6 2742.8 366.52 2742.08C366.24 2739.65 365.26 2737.32 364.06 2735.35C360.8 2729.98 352.85 2723.4 346.85 2723.82C346.6 2723.84 347.12 2726.11 347.16 2726.32C347.65 2728.82 348.69 2731.22 349.8 2733.43C352.63 2739.09 357.79 2746.37 363.92 2746.13M369.15 2730.64C372.17 2731.66 371.63 2723 371.29 2721.78C369.35 2714.74 365.18 2707.57 358.98 2705.24C354.3 2703.48 357.88 2711.54 358.57 2714.65C360.22 2722.17 362.77 2730.34 369 2734.03M286.17 2892.81C286.16 2892.81 287.46 2894.27 287.78 2894.46C289.04 2895.17 290.48 2895.67 291.85 2895.96C295.66 2896.75 300.06 2896.21 303.2 2893.34C303.59 2892.98 305.34 2891.58 305.34 2890.8C305.34 2889.6 302.01 2887.19 301.32 2886.73C295.41 2882.76 290.99 2885.41 287.15 2891.18M291.65 2878.19C291.15 2877.7 292.42 2879.43 292.92 2879.91C294.02 2880.95 295.57 2881.33 296.93 2881.6C300.88 2882.37 305.49 2881.9 309.09 2879.71C309.71 2879.33 312.05 2877.75 312.21 2876.73C312.4 2875.51 307.63 2872.86 307.11 2872.61C303.11 2870.69 294.13 2870.68 292.62 2877.26M301.84 2864.46C302.5 2864.73 303.24 2866.47 303.97 2866.95C305.82 2868.19 307.93 2868.93 310 2869.45C311.81 2869.91 313.66 2870.19 315.51 2870.33C316.75 2870.42 317.94 2870.4 319.13 2869.91C319.95 2869.58 320.75 2869.08 321.47 2868.53C326.26 2864.84 320.31 2861.26 316.65 2859.54C312.17 2857.42 307.09 2858.83 303.54 2862.53M317.56 2850.81C317.51 2850.65 317.98 2851.58 318.06 2851.68C318.65 2852.42 319.38 2853.06 320.08 2853.63C321.96 2855.16 324.1 2856.26 326.31 2856.92C331.35 2858.45 340.61 2857.12 341.9 2849.44C342 2848.86 336.5 2846.83 336.11 2846.7C330.33 2844.73 324.3 2843.91 319.2 2848.39M331.58 2838.7C332.08 2838.27 332.19 2840.05 332.72 2840.43C334.08 2841.4 335.68 2842 337.23 2842.39C341.89 2843.56 346.92 2843.19 351.22 2840.6C352.17 2840.02 352.95 2839.3 353.71 2838.42C356.72 2834.91 357.06 2832.7 352.92 2831.64C351.54 2831.29 350.14 2831.04 348.74 2830.85C342.63 2829.99 336.48 2830.98 332.23 2836.76M343.08 2823.73C342.8 2823.43 343.38 2824.6 343.68 2824.88C344.22 2825.39 344.97 2825.69 345.62 2825.91C347.46 2826.54 349.49 2826.7 351.4 2826.77C356.86 2826.98 362.11 2825.71 366.12 2821.05C366.63 2820.46 369.01 2817.54 368.49 2816.32C367.88 2814.87 363.27 2814.45 362.27 2814.34C355.4 2813.53 349.56 2815.49 345.27 2822.04M356.83 2806.95C356.64 2807.98 358.75 2808.3 359.21 2808.41C361.7 2809.03 364.09 2809.21 366.6 2808.69C372.56 2807.45 377.16 2802.21 378.45 2795.08C378.59 2794.28 376.97 2794.86 376.62 2794.88C374.28 2795.01 371.99 2795.17 369.67 2795.63C363.49 2796.84 358.29 2799.93 356.04 2807.33M366.88 2788.33C366.65 2788.36 368.87 2790.07 369.21 2790.15C370.97 2790.59 373.02 2790.44 374.74 2789.86C379.35 2788.33 382.78 2784.31 384.22 2778.96C384.56 2777.69 385.19 2774.81 384.64 2773.5C384.22 2772.5 379.25 2774.08 378.72 2774.25C373.02 2776.06 368.87 2781.75 367.37 2788.43M372.74 2772.14C372.74 2772.12 373.81 2772.46 373.95 2772.49C374.66 2772.61 375.39 2772.67 376.11 2772.68C378.46 2772.7 380.68 2771.7 382.58 2770.08C385.21 2767.84 387.41 2764.56 389.04 2761.26C389.57 2760.17 390.07 2759.04 390.53 2757.9C390.75 2757.37 391 2756.23 391 2756.23C391 2756.23 389.3 2756.61 388.45 2756.74C386.73 2756.99 385 2757.21 383.3 2757.62C378.06 2758.88 372.71 2763.92 372.15 2770.64M375.56 2754.07C380.16 2757.14 386.32 2752.93 388.69 2747.71C389.57 2745.76 389.76 2743.4 390.05 2741.25C390.06 2741.2 390.35 2739.37 390.34 2739.36C388.65 2738.86 385.65 2740.37 384.11 2741C382.61 2741.62 381.17 2742.46 379.99 2743.73C378.29 2745.55 377.11 2748.09 376.13 2750.52M376.77 2738.08C377.49 2737.67 378.33 2738.63 379.13 2738.56C380.93 2738.39 382.82 2737.85 384.38 2736.72C387.18 2734.69 388.84 2730.86 389.68 2727.2C389.78 2726.8 390.38 2724.29 390 2723.85C389.61 2723.37 386.84 2724.38 386.4 2724.51C385.51 2724.78 384.67 2725.16 383.84 2725.62C382.4 2726.43 380.95 2727.5 379.89 2728.92C378 2731.42 377.19 2734.75 376.63 2737.97M374.92 2727.72C376.17 2730.04 379.42 2725.33 380.05 2724.41C382.75 2720.5 383.21 2715.19 381.54 2710.53C380.44 2707.45 377.98 2711.33 376.79 2712.86C373.84 2716.63 371.75 2721.57 373.28 2726.74M967.98 0.4C966.32 -1.78 968.81 5.83 969.06 8.56C969.65 14.93 968.86 21.28 967.6 27.52C964.33 43.68 955.12 58.97 944.38 71.25C918.25 101.11 871.05 118.72 859.5 159.75C856.54 170.24 852.16 187.41 858.79 197.56C861.81 202.19 862.73 176.89 863.54 173.15C867.15 156.59 876.32 143.32 887.75 131.13C910.78 106.55 939.13 88.82 959.1 61.06C970.84 44.74 977.71 25.66 968.3 6.86M860.62 185.76C861.83 187.19 861.1 197.62 862.16 200.29C862.98 202.34 863.99 204.29 865.11 206.18C869.54 213.65 874.76 209.95 873.44 201.26C872.4 194.44 868.81 187.91 862.55 184.63M866.19 164.53C866.18 163.91 864.25 167.33 864.18 167.93C863.89 170.31 864.09 172.66 864.63 175C866.29 182.28 871.55 186.67 877.95 189.86C878.44 190.11 883.76 192.93 884.51 192.19C885.47 191.23 883.93 185.83 883.75 184.74C882.2 175.47 876.68 167.15 867.72 163.64M876.17 144.56C870.91 143.61 873.69 155.51 874.27 157.16C877.85 167.28 886.04 174.62 894.68 180.37C895.32 180.8 896.75 167.05 896.59 166.1C894.93 156.3 888.27 144.99 878.02 142.54M892.32 125.78C888.59 124.18 888.72 135.57 888.78 136.68C889.39 147.41 897.21 154.83 905.57 160.52C905.93 160.76 913.42 165.8 913.94 165.16C915.33 163.42 913.56 156.07 913.28 154.35C911.29 142.47 904.24 131.8 893.15 126.88M910.51 112.66C904.62 110.03 905.56 120.6 905.89 123.93C906.86 134.07 913.04 142.87 920.7 149.26C921.73 150.12 926.47 154.94 928.41 153.97C930.66 152.85 930.64 142.85 930.7 140.94C931.12 127.39 924.13 112.66 910.78 107.86M926.41 96.5C926.4 94.66 924.25 97.02 924.07 97.67C923.31 100.39 924.14 103.68 924.76 106.33C926.73 114.78 930.66 123.32 937.01 129.37C937.94 130.26 942.77 135 944.47 134.15C946.54 133.12 945.7 125.16 945.62 123.45C945.12 113.26 940.56 98.81 929.9 95.11M944.06 77.65C945.38 75.65 942.52 79.91 942.22 81.91C941.7 85.3 942.13 88.74 942.98 92.06C945.57 102.22 952.9 111.34 962.1 116.35C963.28 116.99 968.48 120.03 969.87 119.64C973.37 118.64 972.25 106.24 972.02 104.29C970.32 89.94 963.55 78.02 948.77 74.53M962 58.69C957.76 57.32 960.97 66.58 961.47 67.84C964.97 76.72 971.28 85.22 979.48 90.26C980.52 90.9 985.4 94.21 986.94 93.44C988.99 92.42 987.4 80.83 987.12 79.27C985.06 67.91 975.2 56.88 963.14 56.48M968.77 36.87C965.13 36.9 971.86 47.77 972.37 48.44C977.75 55.53 985.71 60.67 993.67 64.48C994.94 65.09 1000.15 68.06 1001.59 67.63C1003.43 67.08 998.56 53.18 998.12 52.11C993.84 41.76 984.29 34.64 972.82 35.31M970.44 32.75C969.45 34.05 967.61 31.03 966.05 30.53C962.78 29.47 959.36 29.04 955.92 29.04C945.43 29.04 932.76 34.35 927.19 43.8C925.86 46.06 937.57 48.19 938.16 48.23C948.21 48.9 959.27 47.33 965.67 38.81M961.3 53.38C961.91 54.69 958.86 51.79 957.48 51.38C954.61 50.53 951.63 50.24 948.63 50.31C938.86 50.54 929.19 54.72 921.47 60.53C920.78 61.05 915.37 64.42 915.57 65.62C916.05 68.49 926.12 68.82 927.88 68.92C938.68 69.52 949.79 65.37 956.2 56.27M942.27 77.24C942.94 77.53 939.53 75.43 938.81 75.22C935.67 74.28 932.12 74.12 928.86 74.15C920.49 74.21 902.72 77.41 898.25 86.34C897.68 87.49 907.58 89.42 908.11 89.5C916.82 90.79 925.5 88.58 932.99 84.12M912.9 102.94C912.65 104.65 903.54 104.53 902.73 104.57C896.64 104.85 889.55 105.05 884.02 102.11C876.61 98.16 877.08 93.81 885.2 91.64C886.91 91.19 888.65 90.84 890.41 90.64C894.03 90.23 897.77 90.22 901.37 90.78C906.39 91.55 912.57 93.91 915.77 98.05M892.74 120.23C888.76 122.19 883.95 122.85 879.58 122.93C876.38 122.99 873.22 122.54 870.11 121.82C861.18 119.74 852.04 116.11 863.76 110.14C865.7 109.15 867.78 108.33 869.83 107.61C879.18 104.36 890.8 104.46 898.46 111.5M877.24 131.98C877.3 131.96 874.23 130.49 873.96 130.41C871.41 129.66 868.71 129.25 866.05 129.13C859.79 128.85 843.02 131.92 840.48 139.52C840.12 140.59 847.35 142.19 847.76 142.26C855.79 143.58 863.74 142.52 871.12 139.11M864.98 150.82C865 150.82 861.73 150.04 860.88 150.06C857.69 150.1 854.48 151.04 851.51 152.13C843.39 155.12 835.08 160.2 829.48 166.86C828.57 167.93 824.11 173.47 825.17 175.42C826.35 177.58 834.25 175.88 835.65 175.49C845.46 172.76 853.73 166.66 859.46 158.34M859.18 172.95C857.41 170.53 850.41 174.5 848.77 175.35C841.09 179.32 834.23 185.16 830.31 192.98C826.39 200.82 829.41 205.45 836.69 200.78C839.51 198.98 842.26 196.99 844.71 194.71C848.12 191.54 850.77 187.76 853.18 183.8M858.05 188.15C858.11 187.63 850.51 195.17 849.95 196.1C846.85 201.3 835.53 222.17 843.98 227.8C846.13 229.23 853.13 221.25 854.08 220.14C861.06 212.03 864.12 199.7 860.5 189.38M3.03 2114.53C-7.66 2114.86 20.03 2109.13 22.17 2108.9C37.37 2107.25 51.97 2107.91 67.13 2109.6C110.67 2114.46 152.99 2130.46 196.8 2132.6C224.96 2133.98 270.37 2116.39 275.57 2084.13C277.47 2072.35 265.83 2066.08 265.83 2057.61C265.83 2054.08 271 2062.44 273.22 2065.18C277.82 2070.85 282.51 2077.68 283.55 2085.07C288.52 2120.24 243.51 2140.13 216.69 2146.22C193.91 2151.4 167.45 2155.47 144.5 2149.04C127.47 2144.26 112.57 2133.11 96.54 2125.91C66.83 2112.58 35.32 2105.19 2.91 2111.18M303.39 1712.76C304.16 1712.29 295.3 1703.21 294.82 1702.76C285.44 1693.93 274.73 1686.7 263.89 1679.78C234.46 1661.01 200.45 1641.18 186.16 1607.5C184.38 1603.32 174.37 1580.9 179.6 1576.5C180.56 1575.69 189.41 1594.68 190.15 1596.2C196.69 1609.69 205.05 1620.57 216.09 1630.72C241.87 1654.43 291.72 1673.68 301.37 1709.88M296.58 1701.87C293.8 1705.64 290.78 1709.53 286.57 1711.95C283.54 1713.69 280.01 1714.82 276.6 1715.49C274.74 1715.85 272.87 1715.98 270.98 1716.01C269.96 1716.03 268.59 1715.98 267.57 1715.94C260.66 1715.63 264.35 1711.8 269.57 1708.04C276.42 1703.12 285.67 1698.86 294.35 1700.08M282.89 1690.37C283.07 1692.56 279.97 1695.32 278.54 1696.49C272.52 1701.42 263.99 1703.67 256.38 1704.5C254.82 1704.67 253.73 1704.74 252.17 1704.69C245.9 1704.5 245.98 1701.12 250.7 1696.85C252.11 1695.57 253.59 1694.35 255.11 1693.23C257.59 1691.39 260.29 1690.04 263.24 1689.13C268.26 1687.58 273.53 1687.84 278.61 1688.88M262.87 1678.46C264.45 1678.41 261.67 1682.14 261.64 1682.17C259.16 1684.56 256.1 1686.39 253.01 1687.85C244.52 1691.87 234.97 1694.19 225.78 1691.21C223.83 1690.58 218.42 1688.83 217.6 1686.56C216.75 1684.19 223.93 1680.89 225.18 1680.3C235.33 1675.56 247.46 1674.43 258.47 1676.02M242.51 1664.77C243.87 1665.14 240.58 1667.5 240.28 1667.73C237.54 1669.77 234.5 1671.5 231.29 1672.68C222.62 1675.88 212.58 1675.17 204.01 1671.94C201.83 1671.12 197.32 1669.18 196.55 1666.54C195.9 1664.29 204.21 1662.18 205.52 1661.74C214.75 1658.62 224.23 1657.38 233.91 1658.93M216.39 1644.83C217.33 1644.87 215.66 1647.58 215.53 1647.72C213.71 1649.82 211 1650.91 208.4 1651.75C198.9 1654.81 186.79 1653.6 177.34 1650.83C176.14 1650.48 168.19 1647.91 168.68 1645.53C169.06 1643.7 176.62 1642.21 177.96 1641.84C189.3 1638.69 202.06 1638.73 213.29 1642.32M199.74 1629.39C199.86 1629.37 198.8 1630.77 198.7 1630.85C197.92 1631.5 196.98 1631.83 196.01 1632.11C193.31 1632.88 190.51 1633.18 187.7 1633.05C178.25 1632.62 167.66 1628.73 160.6 1622.34C159.42 1621.26 154.1 1616.46 154.9 1614.26C155.73 1611.98 164.07 1613.53 165.4 1613.75C175.32 1615.37 185.24 1618.28 194.55 1622.01M183.75 1604.94C186.56 1606.98 175.22 1608 174.5 1607.93C165.2 1607.02 155.99 1601.23 149.22 1595.09C148.41 1594.36 141.52 1588.29 143.27 1586.3C145.06 1584.28 154.39 1587.59 156.21 1588.08C168.72 1591.45 181.41 1598.37 189.92 1608.35M179.45 1586.84C180.6 1586.22 177.71 1589.32 176.41 1589.31C173.4 1589.31 170.3 1588.2 167.57 1587.05C159.09 1583.47 151.42 1577.61 147.04 1569.44C146.28 1568.03 142.98 1562.32 144.46 1560.57C145.3 1559.57 153.61 1564.86 154.35 1565.3C163.03 1570.38 172.18 1576.77 178.48 1584.68M293.29 1697.79C297.06 1700.02 300.43 1696.96 302.87 1693.64C307.19 1687.75 308.76 1681.98 307.7 1674.77C307.64 1674.38 306.26 1666.52 305.74 1666.62C303.86 1666.96 300.89 1670.47 299.65 1671.69C298.18 1673.13 296.89 1674.76 295.83 1676.52C294.19 1679.24 293.19 1682.31 292.78 1685.44C292.22 1689.71 291.98 1695.12 293.54 1699.21M283.42 1682.53C282.56 1683.58 286.32 1682.56 286.62 1682.34C288.47 1681.04 289.98 1679.11 291.14 1677.18C294.66 1671.31 295.8 1664.72 295.35 1657.96C295.26 1656.47 295.4 1653.33 294.23 1652.13C292.79 1650.65 288.32 1656.12 287.86 1656.71C283.39 1662.4 279.26 1669.54 277.61 1676.61M268.37 1669.86C268.23 1672.12 274.6 1665.08 274.94 1664.6C279.69 1657.9 281.92 1650.3 280.71 1642.12C280.45 1640.41 279.6 1635.01 277.33 1634.41C274.86 1633.76 270.96 1640.11 269.96 1641.55C264.42 1649.47 259.36 1658.58 262.72 1668.32M247.17 1658.76C247.56 1661.22 255.88 1654.68 256.31 1654.12C261.02 1647.85 260.61 1637.86 259.39 1630.56C259.18 1629.33 259.03 1624.32 257.82 1623.41C256.92 1622.73 253.35 1630.12 253.15 1630.55C249.55 1638.3 246.1 1646.23 247.01 1654.93M230.99 1643.74C231.02 1649.02 236.63 1646.68 238.84 1643.99C243.66 1638.12 246.81 1630.25 247.2 1622.69C247.25 1621.6 247.85 1615.61 246.45 1614.88C244.17 1613.68 238.25 1619.67 237.1 1620.97C231.09 1627.79 226.35 1637.37 228.23 1646.68M216.2 1632.04C217.32 1637.73 225.29 1628.74 226.19 1627.42C229.24 1622.93 232 1617.86 232.74 1612.41C233.82 1604.45 229.93 1602 224.03 1607.65C222.27 1609.34 220.73 1611.24 219.34 1613.25C217.45 1615.97 215.92 1618.9 214.41 1621.84M203.28 1616.14C202.32 1618.18 210.14 1613.73 210.64 1613.25C215.5 1608.63 219.7 1602.41 220.97 1595.75C221.34 1593.76 222.11 1589.17 219.75 1587.86C217.61 1586.67 212.31 1592.55 211.14 1593.65C204.87 1599.56 197.14 1608 198.04 1617.21M188.36 1600.85C187.96 1602.84 195.35 1600.68 195.82 1600.4C202.04 1596.67 205.48 1588.92 207.2 1582.18C207.53 1580.88 209 1575.85 207.46 1574.67C206.12 1573.65 202.88 1577.29 202.29 1577.93C197.37 1583.25 192.57 1590.03 190.72 1597.09M183.28 1588.09C183.5 1589.38 186.98 1586.09 187.24 1585.83C190.65 1582.41 193.29 1577.81 194.32 1573.08C195.09 1569.48 194.67 1565.76 193.52 1562.29C193.27 1561.53 192.24 1558.64 190.89 1559.49C185.53 1562.85 183.85 1572.43 182.55 1577.95M181.57 1581.01C182.58 1582.43 179.72 1581.78 179.28 1581.58C176.99 1580.52 174.92 1578.98 173.04 1577.32C168.4 1573.19 164.78 1567.36 163.99 1561.13C163.82 1559.75 162.76 1552.84 164.72 1552.06C166.29 1551.44 169.87 1556.25 170.52 1557.06C175.86 1563.63 180.01 1571.36 181.57 1579.71" />
	<path id="light green leaves" class="shp6" d="M1091.44 922.72C1093.22 923.09 1087.74 923.13 1086 922.62C1083.13 921.78 1080.25 920.65 1077.53 919.4C1072.37 917.04 1047.03 893.17 1051.5 888.7C1054.85 885.35 1060.55 894.32 1065.08 892.94C1071.7 890.91 1075.46 880.34 1069.63 875.57C1060.97 868.46 1052.13 878.6 1046.32 873.1C1035.08 862.49 1026.04 852.16 1021.04 837.16C1020.85 836.58 1017.46 820.55 1017.82 820.55C1023.42 820.55 1041.88 834.29 1041.01 816.25C1040.54 806.63 1029 802.5 1020.66 804.25C1020.45 804.3 1016.25 805.93 1016.18 805.71C1014 799.19 1032.22 746.72 1038.92 743.36C1045.78 739.94 1096.94 762.34 1100.09 771.16C1101.23 774.35 1076.38 787.9 1085.62 798.88C1091.2 805.52 1101.88 803.73 1107.36 798.25C1111 794.62 1110.22 781.85 1114.56 784.61C1121.14 788.79 1150.11 829.37 1146.72 836.15C1143.95 841.7 1124.91 833.46 1132.13 851.69C1133.73 855.72 1136.52 859.69 1141.35 858.45C1144.75 857.58 1149.79 850.7 1150.89 854.03C1154.06 863.52 1152.79 878.44 1152.47 888.33C1151.35 923.05 1151.7 932.99 1117.03 931.91C1110.24 931.7 1101.97 931.04 1095.48 928.88M1026.79 1517.26C1029.71 1516.12 1022.86 1522.14 1020.92 1524.6C1016.62 1530.04 1012.12 1535.32 1007.22 1540.23C995.15 1552.34 953.17 1585.42 984.22 1602.15C995.05 1607.99 1005.37 1596.18 1010.42 1587.83C1022.4 1567.99 1022.36 1541.26 1026.79 1518.98M1030.8 1521.76C1030.95 1521.33 1030.28 1530.7 1030.07 1532.91C1029.35 1540.63 1027.66 1548.09 1025.48 1555.51C1020.13 1573.75 1007.63 1599.91 1017.41 1618.5C1021.08 1625.47 1027.88 1634.05 1036.53 1634C1053.04 1633.91 1057.23 1614.61 1057.87 1601.71C1059.21 1574.64 1041.9 1545.65 1030.02 1521.82M1037.22 1517.89C1036.66 1518.25 1038.55 1518.01 1039.2 1517.94C1040.37 1517.82 1041.55 1517.41 1042.64 1517C1045.73 1515.83 1048.58 1514 1051.41 1512.32C1053.29 1511.2 1055.17 1510.07 1057.05 1508.94C1063.5 1505.09 1085.95 1493.6 1088.77 1508.22C1090.4 1516.68 1083.3 1522.09 1076.06 1523.87C1062.37 1527.25 1047.38 1524.8 1033.87 1521.41M1394.39 468.74C1393.85 469.99 1393.28 466.23 1392.48 465.13C1390.89 462.96 1388.72 461.33 1386.48 459.88C1380.11 455.71 1372.5 453.19 1365.6 450.05C1335.55 436.34 1313.95 412.73 1304.44 380.79C1302.5 374.24 1301.88 367.31 1302.01 360.51C1302.05 358.7 1303.53 334.01 1306.88 334.01C1308.28 334.01 1314.1 341.36 1315.19 342.31C1324.84 350.71 1334.77 358.69 1343.94 367.62C1371.97 394.96 1383.29 428.14 1395.99 464.06M1420.62 2913.26C1428.16 2918 1445.77 2915.89 1454.18 2916.07C1482.28 2916.67 1519.59 2909.96 1546.14 2920.27C1562.88 2926.78 1575 2942.55 1581.14 2958.96C1582.09 2961.5 1589.75 2980.35 1583.68 2980.35C1557.07 2980.35 1525.21 2959.81 1502.58 2947.73C1478.8 2935.03 1453.57 2927.36 1428.27 2918.61M1421.03 2921.67C1424.89 2920.7 1438.21 2929.13 1442.3 2930.39C1478.14 2941.35 1508.44 2962.31 1518.61 3000.04C1521.61 3011.15 1523.6 3022.9 1525.07 3034.33C1525.17 3035.13 1527.37 3044.14 1526 3044.83C1524.17 3045.74 1517.35 3042.53 1515.63 3042C1505.41 3038.83 1495.08 3035.2 1488.69 3026.02C1477.75 3010.29 1476.33 2990.09 1468.65 2972.83C1459.49 2952.23 1440.77 2935.55 1422.36 2922.96M1420.32 2911.99C1418.8 2911.84 1422.87 2910.31 1424.07 2909.38C1426.19 2907.74 1428.13 2905.88 1430.1 2904.08C1436.28 2898.43 1442.25 2892.56 1447.74 2886.24C1464.17 2867.29 1478.73 2845.84 1504.86 2839.99C1514.32 2837.86 1524.48 2839.41 1533.57 2842.44C1534.03 2842.59 1542.09 2844.9 1542.09 2845.57C1542.09 2846.84 1537.79 2850.33 1537 2851.16C1532.42 2856.04 1527.8 2860.91 1523.04 2865.62C1504.88 2883.56 1486.76 2890.35 1462.64 2897.81C1452.27 2901.02 1430.74 2905.23 1424.07 2915.22M504 188.77C502.62 183.23 492.79 191.03 487.11 191.59C475.92 192.69 464.02 191.41 453.04 189.15C423.29 183.03 397.03 162.68 374.57 143.11C341.07 113.92 315.56 76.91 286.74 43.36C284 40.17 263.37 12.47 257.42 15.18C254.34 16.58 269.02 24.52 269.23 24.62C282.53 31.34 296.7 36.26 310.5 41.87C350.36 58.05 385.75 76.78 418.22 105.35C436.53 121.48 453.27 138.85 468.92 157.57C477.47 167.79 485.83 183.18 497.91 189.89M334.72 257.75C333.81 259.27 324.25 257.32 322.71 257.27C307.15 256.85 291.44 257.43 275.9 257.81C230.13 258.94 185.86 262.19 145.09 237.2C133.82 230.29 123.9 222.32 116.06 211.62C111.6 205.53 107.6 199.01 104.1 192.33C102 188.32 101.06 184.6 100.16 180.23C95.81 158.99 106.47 162.89 127.52 164.47C146.36 165.89 165.3 169.24 183.77 173.13C205.8 177.78 227.61 183.74 247.47 194.56C278.1 211.24 304.23 234.82 330.75 257.25M300.68 181.95C301.66 180.32 297.02 183.13 295.12 183.24C290.45 183.53 285.72 182.99 281.11 182.34C266.03 180.2 251 176.08 238.59 166.92C218.93 152.41 206.83 130.97 203.91 106.89C203.8 105.98 202.83 81.81 203.53 81.82C209.27 81.98 221.47 92.25 226.65 94.98C262.69 114 283.87 138.02 299.1 175.58" />
</svg>