<svg version="1.2" baseProfile="tiny-ps" xmlns="http://www.w3.org/2000/svg" viewBox="0 0 2191 3158" width="2191" height="3158">
	<title>green leaves</title>
	<style>
		tspan { white-space:pre }
		.shp0 { opacity: 0.549;fill: #367a91 } 
		.shp1 { opacity: 0.549;fill: #f99362 } 
		.shp2 { opacity: 0.502;fill: #c0ba3e } 
		.shp3 { opacity: 0.502;fill: #67b8a7 } 
	</style>
	<path id="dark blue leaves" class="shp0" d="M1800.33 1661.44C1800.23 1662.51 1800.05 1659.3 1800.02 1658.22C1799.94 1655.09 1800 1652.02 1800.44 1648.9C1801.57 1640.89 1803.22 1632.74 1805.53 1624.98C1806.22 1622.66 1807.02 1620.44 1808.03 1618.24C1808.71 1616.76 1810.68 1612.34 1810.29 1613.91C1807.93 1623.33 1818.38 1632.16 1825.23 1622.28C1830.43 1614.77 1826.07 1611.01 1821.18 1606.13C1820.84 1605.79 1826 1599.76 1826.31 1599.39C1831.27 1593.37 1837.3 1584.76 1844.25 1580.79C1846.84 1579.32 1845.74 1586.64 1847.26 1589.2C1849.95 1593.75 1854.19 1596.87 1859.24 1592.98C1863.81 1589.46 1864.51 1583.27 1862.16 1578.25C1861.19 1576.2 1856.75 1575.22 1857.65 1573.14C1861.05 1565.22 1883.32 1560.62 1890.57 1559.12C1891.19 1558.99 1900.17 1557.35 1900.76 1558.32C1901.82 1560.09 1899.31 1566.93 1898.92 1568.56C1896.57 1578.4 1893.21 1588.29 1889.03 1597.52C1888.27 1599.2 1886.51 1605.66 1884.82 1606.67C1880.24 1609.41 1871.81 1600.41 1866.79 1609.46C1864.24 1614.05 1868.04 1617.79 1872.38 1618.57C1874.39 1618.93 1876.36 1618.86 1878.35 1618.49C1879.22 1618.33 1881 1616.7 1880.85 1617.57C1879.29 1626.91 1869.86 1634.97 1862.62 1640C1860.75 1641.29 1858.89 1642.66 1856.94 1643.83C1855.89 1644.46 1854.12 1646.78 1853.73 1645.62C1852.02 1640.51 1848.4 1634.69 1841.63 1639C1836.97 1641.97 1836.71 1648.31 1839.91 1652.4C1840.8 1653.53 1843.8 1652.84 1843.8 1654.27C1843.8 1655.4 1835 1658.5 1834.28 1658.77C1824.31 1662.48 1814.6 1664.01 1804.03 1664.01M1053.56 499.56C1053.68 498.44 1051.32 499.8 1050.2 499.88C1047.67 500.04 1045.18 500.03 1042.65 499.78C1036.37 499.16 1030.37 497.32 1024.45 495.19C1020.97 493.93 1017.47 492.53 1014.21 490.77C1012.83 490.02 1008.63 488.01 1010.15 488.39C1018.81 490.56 1028.5 478.51 1018.91 473.13C1015.57 471.26 1010.06 472.64 1006.97 474.5C1006.51 474.78 1003.85 477.75 1003.44 477.75C1002.13 477.75 997.63 471.93 996.95 471.21C995.58 469.75 994.22 468.27 992.9 466.75C990.86 464.43 988.98 461.97 987.16 459.47C985.5 457.19 980.64 451.85 980.64 448.63C980.64 447.7 982.38 449.31 983.27 449.58C985.12 450.14 987.02 450.36 988.94 450C993.79 449.1 998.52 445.18 996.04 439.85C993.9 435.23 987.13 433.57 982.55 434.61C980.55 435.06 978.77 438.34 977.01 437.28C975.26 436.23 974.1 430.32 973.44 428.56C970.87 421.7 962.97 406.29 965.49 398.69C966.25 396.43 974.68 400.42 975.87 400.84C984.63 403.93 1000.5 408.01 1006.71 415.81C1007.67 417 1003.98 417.59 1003.44 419.03C1001.85 423.24 1004.24 429.48 1008.47 431.1C1012.14 432.5 1017.48 429.39 1019.3 426.18C1019.41 425.98 1021.43 420.26 1021.44 420.26C1023.93 421.09 1027.48 426.09 1029.22 427.91C1033.15 432.02 1038.72 437.47 1041.32 442.68C1042.18 444.4 1037.38 443.98 1036.36 445.61C1034.47 448.61 1032.73 455.49 1035.93 458.2C1039.37 461.1 1046.87 458.69 1048.48 454.75C1048.67 454.3 1049.82 448.55 1050.53 448.73C1053.2 449.4 1054.6 459 1055.04 460.77C1057.86 472.22 1060.33 486.37 1058.18 498.22M609.52 1663.99C593.98 1668.13 580.6 1677.58 568.22 1687.55C566.39 1689.02 557.49 1694.65 557.86 1697.65C558.18 1700.14 562.88 1696.74 565.37 1697.06C572.41 1697.99 583.72 1705.54 577.48 1713.5C568.91 1724.43 558.72 1711.64 550.42 1714.41C547.8 1715.28 544.78 1724.4 544.08 1726.25C543.04 1728.99 542.18 1731.8 541.36 1734.6C540.21 1738.54 539.23 1742.5 538.38 1746.51C537.18 1752.14 534.57 1760.72 536.76 1766.58C536.86 1766.84 545.44 1763.1 546.08 1762.95C551.35 1761.73 564.77 1759.12 568.41 1764.89C575.51 1776.15 549.37 1782.75 548.74 1787.16C546.6 1802.11 559.79 1822.07 567.77 1833.37C568.9 1834.98 575.43 1845.08 578.19 1844.83C585.9 1844.13 594.65 1813.21 596.83 1807.29C597.19 1806.31 602.12 1795.81 600.91 1794.6C597.36 1791.05 590.05 1795.31 589.13 1785.86C587.67 1770.89 602.82 1780.83 606.93 1779.46C614.16 1777.05 618.29 1744.3 616.06 1737.58C615.32 1735.37 595.21 1746.32 596.38 1729.94C597.31 1716.85 616.28 1723.93 616.38 1723.73C624.83 1706.83 621.15 1684.31 615.54 1667.48" />
	<path id="orange flowers" class="shp1" d="M2048.26 3065.32C2043.17 3060.31 2035.26 3052.19 2043.79 3045.53C2057.07 3035.17 2053.49 3059.86 2056.71 3060.81C2061.94 3062.36 2066.47 3038.61 2075.83 3051.51C2081.74 3059.66 2061.95 3062.13 2064.65 3068.18C2067.16 3073.8 2089.98 3072.75 2080.84 3086.32C2072.49 3098.71 2065.98 3076.46 2061.45 3077.47C2053.71 3079.2 2061.17 3102.31 2050.49 3102C2034.75 3101.53 2052.53 3079.74 2049.74 3076.62C2046.64 3073.15 2035.95 3082.91 2030.53 3081.31C2022.53 3078.96 2024.05 3070.68 2029.77 3066.66C2035.6 3062.57 2040.86 3064.16 2047.3 3063.35M772.46 1049.36C760.49 1049.81 758.71 1022.7 767.22 1017.65C782.66 1008.48 781.45 1040.31 784.16 1040.31C794.22 1040.31 791.51 1006.38 808.32 1019.42C809.95 1020.68 811.55 1022.33 812.53 1024.16C819.73 1037.65 797.79 1037.16 797.79 1045.4C797.79 1053.02 817.95 1048.87 815.85 1065.17C812.61 1090.25 792.57 1058.42 790.76 1059.11C781.75 1062.58 789.6 1086.92 777.79 1087.96C763.32 1089.24 779.26 1066.08 776.77 1062.92C773.49 1058.74 757.28 1077.43 751.15 1064.6C744.97 1051.66 765.12 1051.15 772.08 1049.6M58.57 151.22C60.23 150.21 54.8 150.01 53.31 148.77C50.03 146.01 47.1 141.93 45.87 137.81C42.94 128.03 49.2 117.79 59.56 116.33C84.97 112.75 65.13 138.62 72.04 143.36C79.62 148.56 84.41 132.66 90.27 130.56C99.7 127.18 109.06 137.34 105.03 146.35C101.41 154.45 85.86 151.42 84.1 160.22C81.38 173.86 107.92 188.43 90.63 199.84C77.8 208.3 68.35 198.51 68.35 185.33C68.35 183.32 70.93 175.31 68.99 174.23C57.42 167.78 51.35 201.68 35.72 188.1C18.05 172.74 47.44 171.13 46.29 162.49C45.29 154.94 32.16 154.71 28.48 148.77C23.29 140.38 32.78 134.19 40.76 135.96C47.5 137.47 49.71 144.4 55.3 147.2M664.6 2760.16C666.07 2757.25 659.51 2755.95 657.71 2753.23C653.55 2746.91 652.89 2738.56 657.19 2732.18C658.74 2729.89 660.67 2727.43 662.97 2725.86C686.96 2709.55 674.88 2750.16 681.32 2752.99C689.1 2756.41 703.68 2727.99 710 2748.08C716.02 2767.21 692.54 2758.34 691.31 2769.12C690.08 2779.92 717.31 2787.41 700.66 2800.51C682.78 2814.57 683.27 2781.42 676.53 2780.77C665.92 2779.75 667.78 2803.23 654.15 2797.32C634.92 2788.98 661.78 2775.65 659.82 2771.19C656.78 2764.28 625.87 2771.7 636.04 2753.29C642.23 2742.08 656.49 2751.29 663.97 2755.41M2089.5 665.62C2083.26 658.08 2065.93 644.95 2080.7 633.39C2098.81 619.22 2094.28 654.08 2099.48 656.17C2107.75 659.5 2114.4 628.82 2125.9 644.25C2136.62 658.64 2108.54 659.9 2111.11 669.15C2113.77 678.7 2141.63 680.53 2128.49 697.43C2114.78 715.06 2108.79 686.65 2103.54 684.73C2094.8 681.54 2094.38 717.56 2077.61 707.09C2063.72 698.41 2084.81 689.72 2083.5 681.14C2082.49 674.54 2059.35 685.25 2058.06 668.87C2056.83 653.19 2077.08 654.86 2086.3 658.57M136.32 1922.47C137.21 1919.76 130.7 1921.02 128.34 1919.43C122.59 1915.54 119.99 1907.19 124.83 1901.5C139.18 1884.61 138.84 1915.94 145.12 1916.24C152.17 1916.57 147.31 1896.17 159.17 1899.37C167.38 1901.59 167.82 1911.07 162.31 1916.42C161.11 1917.59 155.32 1920.22 155.84 1922.29C157.66 1929.59 176.55 1929.4 171.88 1940.18C165.3 1955.35 154.03 1934.7 149.92 1936.34C142.14 1939.45 146.57 1957.71 136.61 1957.41C123.63 1957.03 137.2 1939.01 133.98 1935.09C130.86 1931.31 122.32 1936.17 118.08 1934.63C112.55 1932.62 114.65 1925.61 118.31 1922.89C122.88 1919.5 129.65 1922.4 134.58 1919.94" />
	<path id="yellow leaves" class="shp2" d="M1185.05 3157.05C1185.68 3158.16 1184.26 3154.62 1184.11 3153.35C1183.84 3151.12 1183.73 3148.91 1183.67 3146.67C1183.45 3138.55 1184.2 3130.85 1187.53 3123.34C1195.47 3105.41 1210.19 3092.12 1223.48 3078.08C1227.61 3073.72 1231.61 3065.56 1236.62 3062.28C1237.87 3061.45 1235.16 3064.88 1234.41 3066.18C1233.04 3068.53 1231.55 3070.79 1229.99 3073.01C1225.61 3079.24 1220.93 3085.17 1216.16 3091.1C1200.62 3110.41 1186.63 3130.26 1185.55 3155.76M1184.88 3151C1185.32 3151.46 1183.6 3150.96 1183 3150.78C1181.61 3150.37 1180.25 3149.72 1179.1 3148.87C1175.75 3146.39 1173.41 3142.27 1172.21 3138.39C1172.11 3138.07 1170.79 3133.05 1171.27 3132.96C1171.7 3132.87 1174.52 3136.77 1174.81 3137.08C1178.55 3141 1182.61 3144.5 1184.38 3149.75M1184.99 3143.31C1179.87 3139.84 1176.56 3134.76 1174.81 3128.77C1174.11 3126.36 1173.55 3123.87 1173.64 3121.35C1173.64 3121.26 1173.68 3119.57 1173.93 3119.57C1174.56 3119.57 1176.05 3122.3 1176.33 3122.71C1176.96 3123.6 1177.55 3124.51 1178.11 3125.45C1179 3126.93 1179.83 3128.44 1180.64 3129.95C1182.09 3132.67 1183.23 3135.43 1183.94 3138.43M1186.73 3131.81C1186.91 3131.97 1186.28 3131.64 1186.11 3131.47C1185.66 3131.03 1185.25 3130.55 1184.86 3130.05C1183.79 3128.71 1182.83 3127.27 1182 3125.77C1179 3120.31 1178.17 3114.48 1178.61 3108.35C1178.63 3108.06 1179.01 3103.29 1179.71 3103.29C1180.24 3103.29 1181.79 3107.69 1181.93 3108.05C1184.18 3113.64 1185.53 3119.63 1185.91 3125.62M1191.69 3119.65C1191.78 3120.62 1189.89 3118.39 1189.83 3118.31C1188.55 3116.52 1187.81 3114.35 1187.18 3112.27C1185.49 3106.7 1185.13 3100.86 1185.7 3095.09C1185.78 3094.27 1185.92 3090.27 1186.93 3089.79C1187.12 3089.7 1187.49 3090.99 1187.5 3091.02C1188.03 3092.48 1188.49 3093.97 1188.89 3095.47C1190.56 3101.74 1191.95 3108.35 1191.06 3114.84M1196.65 3110.19C1196.65 3110.27 1196.1 3109.4 1196.07 3109.34C1195.82 3108.84 1195.59 3108.32 1195.37 3107.8C1194.54 3105.82 1193.99 3103.74 1193.64 3101.62C1192.73 3096.11 1192.71 3090.07 1193.91 3084.6C1194.14 3083.59 1194.54 3080.62 1195.35 3079.82C1195.59 3079.59 1195.52 3080.46 1195.61 3080.78C1195.82 3081.57 1196.06 3082.35 1196.31 3083.13C1196.86 3084.92 1197.38 3086.72 1197.73 3088.55C1198.89 3094.52 1199.28 3100.94 1197.78 3106.88M1203.49 3101.39C1203.54 3100.54 1202.31 3097.77 1202.16 3096.63C1201.49 3091.69 1201.43 3086.55 1201.97 3081.6C1202.16 3079.81 1202.34 3075.86 1203.81 3074.42C1204.13 3074.11 1204.68 3076.28 1204.71 3076.38C1205.28 3078.38 1205.77 3080.41 1206.02 3082.47C1206.63 3087.67 1206.48 3093.07 1204.93 3098.09M1210.88 3092.61C1210.34 3093.45 1209.82 3091.41 1209.76 3091.19C1209.24 3089.22 1208.9 3087.16 1208.64 3085.14C1207.95 3079.74 1208.28 3074.17 1209.9 3068.96C1210.04 3068.51 1211.22 3064.18 1211.96 3064.18C1212.19 3064.18 1212.31 3065.32 1212.32 3065.38C1212.59 3066.83 1212.82 3068.29 1213.02 3069.76C1213.82 3075.81 1213.81 3081.81 1212.39 3087.76M1217.43 3086.34C1215.67 3085.76 1215.77 3079.92 1215.74 3078.72C1215.6 3072.87 1216.39 3066.44 1218.5 3060.95C1218.58 3060.73 1220.62 3056.18 1220.64 3056.19C1220.81 3056.28 1220.86 3057.86 1220.88 3058C1221.19 3060.34 1221.55 3062.67 1221.68 3065.03C1221.79 3067.16 1221.75 3069.3 1221.6 3071.42C1221.33 3075.05 1220.71 3078.65 1219.6 3082.12M1224.38 3077.92C1223.94 3078.33 1223.56 3076.23 1223.55 3076.16C1223.29 3074.3 1223.4 3072.4 1223.66 3070.56C1224.22 3066.62 1225.21 3062.55 1226.76 3058.88C1227.02 3058.26 1227.84 3055.75 1228.58 3055.44C1228.67 3055.41 1228.77 3057.58 1228.78 3057.67C1228.8 3058.87 1228.8 3060.08 1228.74 3061.28C1228.46 3066.29 1227.19 3071.11 1225.23 3075.73M1230.28 3069.31C1229.99 3069.28 1230.07 3067.88 1230.07 3067.75C1230.05 3066.32 1230.22 3064.88 1230.5 3063.47C1231.42 3058.91 1233.33 3054.43 1236.12 3050.67C1236.53 3050.13 1236.95 3049.59 1237.38 3049.06C1237.77 3048.56 1238 3048.28 1238.41 3047.83C1241.28 3044.7 1238.66 3051.41 1238.34 3052.47C1237.81 3054.18 1237.26 3055.89 1236.59 3057.55C1235.47 3060.31 1234.03 3062.88 1232.43 3065.4M1233.21 3066.41C1232.97 3066.82 1233.63 3065.56 1233.87 3065.15C1234.44 3064.14 1235.02 3063.14 1235.71 3062.2C1237.8 3059.38 1240.38 3056.92 1243.5 3055.25C1243.95 3055 1246.41 3053.46 1246.97 3054.01C1247.38 3054.42 1243.85 3057.88 1243.59 3058.15C1240.08 3061.86 1236.53 3065.52 1232.42 3068.59M1228.19 3074.11C1227.89 3074.39 1228.98 3073.03 1229.25 3072.83C1230.19 3072.15 1231.23 3071.61 1232.29 3071.13C1235.45 3069.73 1238.88 3068.83 1242.31 3068.4C1242.68 3068.35 1245.18 3067.94 1245.49 3068.4C1245.58 3068.53 1244.57 3069.09 1244.56 3069.1C1243.29 3069.88 1241.98 3070.62 1240.66 3071.31C1236.11 3073.69 1231.49 3075.73 1226.34 3076.22M1220.94 3084.49C1220.6 3083.98 1221.77 3083.2 1222.08 3082.95C1223.47 3081.81 1225.06 3080.86 1226.68 3080.08C1231.07 3077.95 1235.93 3076.46 1240.8 3075.96C1241.18 3075.92 1242.72 3075.8 1243.12 3075.78C1243.43 3075.76 1243.73 3075.76 1244.04 3075.76C1248.63 3075.76 1243.3 3077.63 1241.74 3078.36C1240.62 3078.89 1239.5 3079.42 1238.37 3079.92C1236.16 3080.9 1233.9 3081.83 1231.56 3082.47C1228.34 3083.36 1224.95 3083.6 1221.63 3083.37M1215.18 3091.58C1215.71 3090.34 1217.81 3089.56 1218.9 3089.03C1223.53 3086.79 1228.84 3085.54 1233.96 3085.11C1236.41 3084.9 1238.72 3085.08 1241.07 3085.76C1241.33 3085.83 1242.77 3086.09 1242.82 3086.51C1242.89 3086.98 1237.66 3088.58 1237.39 3088.68C1236.13 3089.13 1234.86 3089.55 1233.59 3089.97C1231.19 3090.76 1228.78 3091.52 1226.33 3092.12C1222.45 3093.08 1218.65 3093.1 1214.74 3092.44M1208.89 3099.4C1208.92 3099.6 1209.04 3098.99 1209.2 3098.86C1209.61 3098.5 1210.08 3098.26 1210.57 3098.02C1211.97 3097.33 1213.48 3096.75 1215 3096.37C1219.96 3095.11 1225.45 3095.4 1230.44 3096.34C1230.81 3096.41 1235.66 3097.11 1235.58 3097.75C1235.55 3098.01 1234.39 3098.23 1234.26 3098.27C1232.33 3098.82 1230.38 3099.33 1228.43 3099.83C1221.02 3101.75 1213.62 3102.76 1205.99 3101.94M1199.55 3111.15C1199.53 3110.73 1200.97 3110.02 1201.21 3109.89C1203.15 3108.8 1205.35 3108.21 1207.52 3107.75C1212.56 3106.69 1217.65 3106.06 1222.8 3106.63C1223.77 3106.73 1224.72 3106.86 1225.67 3107.08C1226.12 3107.18 1227.06 3107.46 1227.53 3107.63C1232.03 3109.22 1225.21 3110.24 1223.54 3110.63C1221.94 3111.01 1220.32 3111.36 1218.7 3111.64C1216.28 3112.06 1213.82 3112.35 1211.36 3112.39C1207.33 3112.44 1203.1 3112.11 1199.38 3110.47M1194.35 3121.23C1194.18 3120.85 1195.19 3120.36 1195.41 3120.24C1197.17 3119.28 1199.13 3118.59 1201.09 3118.16C1206.72 3116.94 1213.01 3116.41 1218.74 3117.19C1219.63 3117.31 1220.59 3117.5 1221.46 3117.72C1222.25 3117.91 1222.63 3118.03 1223.37 3118.26C1227.39 3119.54 1221.01 3120.31 1219.42 3120.73C1217.99 3121.1 1216.56 3121.45 1215.11 3121.73C1212.21 3122.28 1209.25 3122.61 1206.29 3122.77C1202.26 3122.98 1198.32 3122.83 1194.53 3121.33M1188.73 3133.2C1189.49 3131.26 1192.32 3130.06 1194.14 3129.41C1198.9 3127.73 1204.2 3126.75 1209.26 3126.57C1211.86 3126.48 1214.54 3126.89 1217.09 3127.42C1217.32 3127.47 1219.1 3127.8 1218.82 3128.41C1218.48 3129.15 1214.12 3130.09 1213.4 3130.37C1212.07 3130.89 1210.72 3131.36 1209.37 3131.81C1206.59 3132.74 1203.8 3133.6 1200.9 3134.13C1196.84 3134.88 1192.54 3135.21 1188.47 3134.45M1185.6 3144.97C1185.04 3143.92 1189.73 3141.4 1190.27 3141.1C1194.04 3139.01 1198.17 3137.29 1202.37 3136.25C1203.09 3136.07 1203.86 3135.93 1204.6 3135.84C1205.08 3135.79 1205.6 3135.76 1206.09 3135.78C1209.1 3135.89 1205.31 3137.95 1204.35 3138.7C1203.5 3139.35 1202.62 3139.97 1201.72 3140.56C1199.92 3141.76 1198.02 3142.8 1196.04 3143.7C1193.39 3144.9 1190.55 3145.68 1187.68 3146.19M1186.48 3154.71C1189.18 3152.71 1192.1 3150.33 1195.53 3148.74C1197.18 3147.97 1198.89 3147.26 1200.62 3146.67C1202.1 3146.17 1203.6 3145.76 1205.15 3145.5C1205.78 3145.4 1206.61 3145.3 1207.26 3145.25C1207.8 3145.22 1209.93 3144.89 1210.33 3145.47C1210.58 3145.83 1209.15 3146.68 1208.97 3146.82C1206.99 3148.25 1204.96 3149.61 1202.84 3150.81C1197.3 3153.94 1192.31 3155.65 1185.95 3155.26M1185.13 3154.01C1185.7 3154.26 1183.93 3153.68 1183.37 3153.43C1182.33 3152.96 1181.28 3152.5 1180.21 3152.1C1176.46 3150.69 1172.63 3150.29 1168.63 3150.5C1168.38 3150.52 1165.03 3150.72 1165 3151.06C1164.94 3151.67 1169.43 3153.65 1169.9 3153.9C1173.37 3155.7 1177.04 3157.6 1181 3158C1181.58 3158.06 1188.97 3158.04 1186.51 3156.59M314 756.55C314.33 757.76 301.15 761.72 299.98 762.03C285.22 766.01 269.76 767.58 255.27 772.52C230.4 780.99 208.97 804.73 198.28 828.27C195.73 833.9 189.83 849.71 193.35 856.19C193.4 856.27 202.8 840.03 203.55 838.57C209.17 827.65 216.23 817.16 224.46 808.05C235.1 796.28 248.11 786.6 262.68 780.32C277.14 774.09 293.86 770.67 306.51 760.81M197.82 833.55C198.72 833.13 195.83 833.28 194.85 833.42C192.58 833.75 190.21 834.33 188.08 835.18C182.69 837.33 170.36 845.94 173.51 853.69C173.77 854.33 178.55 850.21 178.81 850C184.56 845.34 190.26 840.71 195.28 835.25M199.93 828.32C201.72 825.91 192.81 826.79 192.07 826.88C186.89 827.5 182.05 829.28 177.55 831.89C176.64 832.42 176.23 832.68 175.41 833.3C171.59 836.15 175.97 835.95 179.06 835.27C180.17 835.02 181.13 834.8 182.23 834.52C184.68 833.89 187.11 833.16 189.51 832.37C193.18 831.16 196.86 829.94 200.27 828.11M207.29 819.18C205.53 819.41 202.59 817.56 200.89 817.18C197.4 816.4 193.61 816.28 190.05 816.52C187.93 816.66 185.81 816.97 183.75 817.52C183.38 817.62 174.8 820.87 175.37 821.87C175.76 822.55 179.86 822.85 180.4 822.92C181.37 823.03 182.5 823.09 183.47 823.11C190.01 823.28 196.77 823.13 202.97 820.82M209.87 810.15C210.76 810.48 208.25 809.12 207.36 808.77C205.46 808.03 203.51 807.46 201.51 807.03C195.56 805.75 189.67 806.09 183.81 807.71C182.85 807.97 179.79 808.42 179.25 809.45C179.09 809.75 185.85 810.78 186.25 810.83C193.28 811.7 200.4 812.13 207.45 811.28M195.48 842.52C195.7 842.3 194.85 842.52 194.55 842.61C193.81 842.81 193.08 843.06 192.35 843.31C190.53 843.95 188.78 844.7 187.2 845.83C182.68 849.06 179.51 854.15 177.87 859.42C177.58 860.35 176.31 863.73 177.01 864.69C177.23 865 177.99 864.39 178.16 864.28C179.63 863.31 180.93 862.11 182.19 860.88C186.79 856.42 191.14 851.36 194.22 845.71M195.19 849.29C190.82 851.76 188.76 858.76 187.61 863.24C187.33 864.31 185.63 874.28 188.36 869.88C188.72 869.3 188.84 869.08 189.18 868.46C189.7 867.52 190.17 866.56 190.59 865.56C191.31 863.85 191.91 862.09 192.43 860.31C193.18 857.77 193.7 855.2 194.08 852.59M197.64 844.34C198.38 844.36 197.09 845.73 196.89 846.45C196.55 847.67 196.28 848.91 196.07 850.16C195.29 854.71 195.27 859.25 196.36 863.76C196.44 864.1 197.26 867.97 197.8 867.92C198.5 867.86 199.2 863.34 199.28 862.91C200.24 857.77 200.17 852.66 198.07 847.83M204.05 832.69C202.4 833.01 201.94 836.96 201.77 838.18C201.12 843.07 201.74 848.49 203.37 853.14C203.72 854.14 204.14 855.12 204.61 856.07C204.85 856.57 205.7 858.76 206.4 858.93C206.76 859.02 206.96 857.41 206.98 857.27C207.36 855.27 207.36 853.16 207.31 851.13C207.27 849.07 207.02 847.01 206.59 844.99C205.96 842.01 204.94 839.16 203.68 836.4M210.03 822.13C209.47 822.17 209.04 823.33 208.85 823.73C207.97 825.66 207.55 827.86 207.34 829.95C206.72 835.89 208.12 841.79 210.15 847.34C210.58 848.51 210.71 848.86 211.21 849.94C211.55 850.69 211.72 851 212.12 851.69C212.2 851.84 213.27 853.9 213.46 853.9C213.87 853.9 213.59 853.08 213.67 852.67C213.98 851.14 214.27 849.6 214.38 848.05C214.48 846.62 214.48 845.17 214.43 843.74C214.35 841.5 214.04 839.33 213.57 837.15C212.72 833.22 211.47 829.39 209.47 825.9M217.42 814.1C217.13 813.95 216.53 815.53 216.47 815.7C215.8 817.57 215.78 819.65 215.79 821.6C215.8 827.9 216.68 834.5 218.81 840.44C219.1 841.25 220.49 845.95 221.75 846.19C222.12 846.26 222.65 843.31 222.68 843.17C222.83 842.43 222.95 841.71 223.05 840.97C223.24 839.43 223.31 837.9 223.32 836.36C223.33 833.92 223.19 831.54 222.8 829.13C222.09 824.77 220.59 820.49 218.02 816.88M224.9 804.84C224.9 804.77 224.14 805.61 224.11 805.66C223.76 806.25 223.48 806.95 223.27 807.61C222.65 809.57 222.47 811.73 222.5 813.78C222.6 820.21 224.75 826.3 227.06 832.21C227.39 833.05 228.24 836.72 229.2 837.23C229.43 837.35 229.68 835.81 229.69 835.76C230.1 833.64 230.17 831.41 230.17 829.25C230.17 821.82 228.74 813.14 224.73 806.72M234.15 798.21C232.4 797.52 231.45 803.06 231.4 803.58C231.36 804.09 231.34 804.61 231.32 805.12C231.3 805.65 231.29 806.17 231.28 806.69C231.21 812.02 232.05 817.63 233.76 822.68C234.32 824.35 235.07 825.99 235.91 827.53C235.99 827.67 236.38 828.6 236.6 828.59C237.1 828.56 237.91 825.9 238.03 825.56C238.36 824.62 238.63 823.66 238.82 822.68C239.07 821.37 239.27 820.04 239.33 818.7C239.44 816.02 239.11 813.31 238.6 810.68C237.87 806.87 236.57 803.26 234.9 799.77M219.28 798.21C219.4 798.08 217.75 797.11 217.6 797.02C215.21 795.71 212.56 794.8 209.85 794.46C202.02 793.49 193.09 794.79 186.18 798.72C182.45 800.83 191.82 801.53 193.24 801.75C193.79 801.83 194.34 801.9 194.89 801.97C202.19 802.8 210.13 803.1 216.88 799.83M230.33 789.53C224.85 782.34 211.25 782.64 203.31 784.45C201.01 784.97 198.75 785.75 196.57 786.66C196.2 786.82 194.95 787.19 194.9 787.74C194.84 788.37 196.84 788.5 197.15 788.55C200.2 789.05 203.26 789.49 206.32 789.88C209.19 790.24 212.06 790.52 214.95 790.56C219.02 790.61 223.16 790.44 227.02 789.04M241.01 781.83C241.12 781.87 240.58 780.71 240.53 780.66C240.06 780.12 239.49 779.64 238.91 779.22C237.31 778.05 235.59 776.97 233.86 776.01C228.28 772.9 222.59 772.69 216.4 773.5C215.53 773.61 211.45 773.69 210.99 774.61C210.81 774.96 212.19 775.49 212.32 775.54C214.14 776.33 215.92 777.25 217.74 778.03C224.36 780.89 231.69 782.89 238.81 781.46M243.58 791.41C243.72 789.96 242.05 793.25 242.02 793.33C241.18 795.38 240.63 797.58 240.32 799.78C239.3 807 240.52 813.88 242.92 820.69C243.51 822.37 244.09 824.08 244.96 825.64C245.04 825.78 245.53 826.86 245.85 826.75C246.33 826.59 246.66 825.07 246.8 824.7C247.55 822.83 248.06 820.95 248.44 818.97C250.25 809.56 249.48 800.49 245.18 791.86M253.99 782.45C253.92 783.15 251.97 785.13 251.64 785.95C250.22 789.52 249.67 793.38 249.52 797.2C249.41 799.98 249.52 802.76 249.97 805.51C250.26 807.23 250.69 808.92 251.19 810.59C251.55 811.79 251.96 812.98 252.4 814.16C253.38 816.82 254.26 819.14 255.12 816.39C255.2 816.12 255.6 814.84 255.67 814.59C256.15 812.92 256.56 811.22 256.9 809.52C258.38 802.17 258.78 794.3 255.46 787.39M266.39 779.59C266.29 778 264.53 780.51 264.39 780.79C263.34 782.8 262.81 785.07 262.37 787.29C261.17 793.32 261.49 799.35 263.05 805.28C263.64 807.5 264.4 809.85 265.49 811.87C265.57 812.03 266.3 813.44 266.65 813.3C268.37 812.61 268.81 806.91 269.03 805.6C270.51 796.92 270.15 787.34 266.89 779.08M277.3 772.5C276.8 771.97 275.67 774.02 275.55 774.21C274.27 776.32 273.55 778.8 273.11 781.21C271.79 788.47 272.72 797.13 276.11 803.74C278.86 809.09 279.65 800.03 279.96 797.9C281.01 790.49 281.16 782.04 277.9 775.13M287.2 769.8C287.76 770.23 286.07 770.74 285.76 771.38C284.84 773.23 284.35 775.41 283.99 777.43C282.89 783.5 283.66 790.09 285.44 795.96C285.66 796.7 286.54 801.32 287.38 801.63C287.7 801.76 288.36 800.13 288.43 799.98C289.4 797.93 290.03 795.78 290.42 793.55C291.61 786.56 291.39 778.51 287.71 772.26M295.8 767.03C295.98 766.92 295.35 767.14 295.25 767.32C294.98 767.81 294.78 768.39 294.64 768.93C294.17 770.71 294.08 772.58 293.99 774.41C293.7 780.12 293.65 786.2 295.55 791.66C295.67 791.99 297.31 796.69 298.04 796.42C298.3 796.33 298.59 794.91 298.66 794.69C299.29 792.82 299.59 790.91 299.84 788.96C300.62 782.91 302.07 772.8 297.06 767.95M248.9 776.19C249.69 775.63 248.55 774.09 248.23 773.6C246.9 771.52 244.86 769.99 242.76 768.75C237.72 765.77 232.06 764.4 226.23 764.72C224.94 764.8 215.91 764.99 220.45 767.12C220.48 767.14 221.51 767.58 221.52 767.58C222.33 767.91 223.16 768.22 223.97 768.55C225.53 769.17 227.07 769.82 228.62 770.44C230.9 771.35 233.2 772.21 235.52 773.01C239.51 774.38 243.69 775.4 247.95 775.23M258.22 772.9C260.03 771.95 256.35 767.45 255.85 766.88C252.82 763.41 248.61 760.15 244.19 758.72C242.79 758.27 237.38 755.88 238.85 759.24C238.99 759.56 239.13 759.81 239.34 760.11C239.8 760.79 240.33 761.44 240.85 762.08C241.62 763.05 242.42 763.99 243.28 764.89C244.99 766.68 246.84 768.35 248.91 769.71C251.6 771.47 255.18 772.66 258.28 773.43M269.17 771C269.23 771.23 269.2 770.52 269.14 770.28C269.02 769.77 268.84 769.27 268.63 768.79C267.96 767.23 267.06 765.77 266.09 764.38C262.91 759.8 258.99 756.5 253.8 754.44C253.12 754.17 249.83 752.48 249.08 753.27C248.81 753.55 249.49 754.29 249.62 754.49C250.68 756.11 251.89 757.56 253.19 758.99C257.43 763.63 261.84 768.42 268.02 770.25M278.44 769.28C279.09 768.95 278.74 767.69 278.66 767.18C278.36 765.34 277.93 763.49 277.35 761.72C275.72 756.77 271.83 752.45 267.48 749.69C265.81 748.63 264.05 747.65 262.16 747.07C261.93 747 260.6 746.5 260.36 746.74C259.88 747.23 261.34 749.56 261.52 749.89C261.93 750.67 262.15 751.04 262.61 751.82C263.32 753.02 264.07 754.19 264.86 755.33C266.26 757.33 267.75 759.26 269.32 761.12C271.68 763.91 274.82 766.82 278.35 768.06M292.24 765.23C292.76 765.53 292.43 763.96 292.42 763.87C292.09 762.02 291.58 760.13 290.77 758.42C288.48 753.58 284.17 749.95 279.79 747.09C278.2 746.05 276.55 745.01 274.74 744.4C274.65 744.37 273.3 743.9 273.22 744.02C272.1 745.7 274.38 749.85 275.07 751.17C278.4 757.52 283.96 762.08 290.37 765.07M300.01 762.78C300.92 760.08 299.86 757.29 298.34 754.62C297.33 752.84 296.06 751.19 294.73 749.65C294.04 748.86 293.31 748.12 292.56 747.39C292.19 747.04 291.69 746.56 291.3 746.22C287.18 742.62 289.89 749.41 290.61 751.34C292.16 755.45 294.74 761.93 299.71 762.89M304.16 762.13C304.14 761.34 302.3 763.22 302.24 763.33C301.39 764.81 301.09 766.8 300.97 768.46C300.61 773.05 302.06 777.58 303.41 781.9C303.88 783.43 304.36 784.95 304.86 786.46C304.89 786.56 305.28 788.02 305.39 787.99C305.7 787.91 306 786.83 306.09 786.61C306.69 785 307.11 783.28 307.51 781.6C309 775.19 308.83 768.05 304.14 762.99M2190.27 65.09C2191.15 64.58 2188.98 69.03 2188.86 69.28C2187.37 72.44 2186.08 75.46 2183.91 78.25C2177.37 86.62 2169.5 93.65 2160.81 99.71C2139.7 114.43 2112.41 116.09 2092.74 133.75C2089.38 136.76 2077.79 145.99 2077.79 151.27C2077.79 153.1 2080.27 148.59 2081.53 147.27C2083.74 144.91 2085.92 142.51 2088.25 140.27C2095.49 133.33 2103.75 128.03 2113.32 124.98C2122.96 121.92 2133.19 124.16 2142.94 121.72C2165.8 116.01 2184.59 93.01 2189.54 70.71M2081.27 148.17C2081.12 147.63 2078.34 153.21 2078.24 153.59C2077.11 157.8 2076.95 162.13 2077.78 166.41C2077.89 166.98 2078.21 170.1 2078.86 170.43C2079.08 170.54 2080.76 165.8 2080.84 165.54C2082.32 160.47 2082.87 154.4 2081.57 149.23M2086.58 141.64C2085.32 141.47 2084.63 146.42 2084.58 146.99C2084.15 151.44 2084.48 161.35 2088.33 164.66C2088.46 164.77 2090.15 157.91 2090.2 157.55C2090.81 152.88 2091.37 144.76 2086.78 141.7M2095.17 134.13C2091.45 137.78 2091.36 144.87 2092.86 149.91C2093.19 151.02 2093.65 152.11 2094.2 153.13C2096.16 156.82 2097.76 154.4 2098.17 150.27C2098.38 148.19 2098.52 146.07 2098.45 143.97C2098.33 140.86 2097.71 137.59 2095.72 135.1M2105.9 127.98C2103.71 127.11 2102.95 133.93 2102.75 135.12C2101.9 140.33 2101.78 145.59 2103.03 150.75C2103.26 151.72 2103.38 152.1 2103.69 153C2105.01 156.84 2106.13 153.53 2107.02 149.96C2107.33 148.72 2107.62 147.48 2107.88 146.22C2108.37 143.9 2108.8 141.55 2108.89 139.17C2109.04 135.61 2108.57 130.74 2106.53 127.68M2116.78 123.25C2116.37 122.4 2115.04 124.63 2114.99 124.73C2113.92 126.94 2113.52 129.53 2113.16 131.93C2112.35 137.39 2112.16 142.94 2113.03 148.4C2113.17 149.26 2113.49 153.24 2114.74 153.57C2115.81 153.86 2117.77 146.67 2117.96 145.99C2120.05 138.48 2120.11 130.37 2117.54 122.96M2128.8 122.43C2128.84 122.49 2126.08 129.48 2125.93 130.1C2124.49 136.23 2122.37 145.27 2125.22 151.37C2125.75 152.52 2126.82 150.29 2127.09 149.87C2128.59 147.49 2129.87 144.92 2130.79 142.27C2133.18 135.33 2132.7 128.24 2131.1 121.2M2141.82 120.29C2139.57 121.02 2138.55 124.68 2137.94 126.62C2135.89 133.04 2135.53 140.03 2136.01 146.7C2136.28 150.51 2137.5 153.24 2139.36 149.78C2139.72 149.12 2140.1 148.43 2140.43 147.76C2141.01 146.59 2141.57 145.4 2142.09 144.19C2143.19 141.66 2143.91 139.02 2144.33 136.29C2145.01 131.88 2144.57 127.42 2143.93 123.03M2153.99 116.22C2152.59 114.99 2150 123.71 2149.94 123.96C2148.25 130.89 2148.21 138.58 2148.75 145.66C2149.06 149.88 2149.29 157.6 2152.8 150.88C2153.28 149.95 2153.57 149.37 2153.99 148.39C2154.71 146.68 2155.28 144.92 2155.8 143.15C2156.82 139.66 2157.64 136.11 2157.96 132.48C2158.47 126.87 2157.63 121.32 2155.76 116.03M2165.92 108.08C2163.53 106.46 2162.55 117.44 2162.51 118.12C2161.91 127.61 2163.78 138.16 2169.8 145.84C2173.87 151.04 2173.81 137.87 2173.92 135.51C2174.37 126.54 2172.54 117.56 2167.56 110M2176.76 98.97C2176.89 99.38 2175.84 102.42 2175.81 103.04C2175.61 106.83 2175.92 110.74 2176.34 114.51C2176.66 117.38 2177.2 120.23 2177.9 123.03C2178.32 124.7 2178.85 126.31 2179.49 127.9C2183.65 138.21 2185.51 126.21 2185.96 120.88C2186.66 112.74 2185.04 104 2179.55 97.67M2182 80.11C2182 81.15 2180.58 78.55 2179.68 78.03C2178.14 77.14 2176.48 76.35 2174.82 75.7C2168.24 73.12 2161.56 72.25 2154.57 73.34C2153.8 73.46 2148.76 74 2148.6 75.21C2148.34 77.14 2155.57 79.08 2156.66 79.46C2164.55 82.17 2173.17 82.73 2181.14 79.99M2174.92 90.52C2173.08 90.71 2169.16 87.9 2167.34 87.26C2162.31 85.5 2157.07 84.03 2151.77 83.36C2148.73 82.98 2127.4 82.13 2139.44 87.94C2140.42 88.42 2141.54 88.9 2142.57 89.26C2144.48 89.93 2146.48 90.4 2148.47 90.76C2153.93 91.77 2159.83 92.16 2165.31 91.13C2167.84 90.65 2170.94 88.78 2173.48 88.78M2163.27 99.92C2163.61 100.2 2162.56 99.4 2162.17 99.19C2161.36 98.73 2160.52 98.32 2159.67 97.95C2157.43 96.97 2155.13 96.17 2152.81 95.42C2145.34 92.99 2137.28 90.85 2129.36 91C2128.78 91.01 2121.7 90.91 2121.55 91.94C2121.26 93.99 2130.17 97.09 2131.32 97.51C2141.44 101.15 2151.84 101.2 2162.38 99.81M2147.7 109.5C2148.04 107.48 2140.22 104.78 2139.03 104.29C2131.54 101.18 2123.63 99.4 2115.56 98.75C2110.99 98.38 2105.57 99.08 2110.74 101.83C2112.02 102.51 2112.04 102.54 2113.45 103.17C2115.27 103.97 2117.12 104.7 2118.99 105.38C2121.86 106.44 2124.77 107.33 2127.75 108.04C2133.12 109.33 2138.68 109.73 2144.18 109.34M2128.17 114.26C2128.5 114.22 2120.04 110.45 2118.62 109.98C2111.67 107.71 2103.35 104.92 2095.96 105.55C2095.2 105.61 2089.25 106.37 2089.03 107.49C2088.79 108.71 2097.5 110.9 2097.99 111.03C2107.67 113.49 2117.7 114.69 2127.69 114.16M2117.28 120.5C2112.64 115.03 2099.42 114.33 2092.86 114.58C2091.33 114.64 2089.79 114.71 2088.28 114.91C2087.35 115.03 2086.73 115.17 2085.84 115.42C2076.87 118.04 2090.79 120.87 2093.54 121.31C2096.35 121.75 2099.2 121.99 2102.04 122.08C2106.51 122.22 2110.85 121.84 2115.25 121.1M2103.79 126.37C2103.83 126.38 2097.92 125.59 2096.18 125.61C2090.23 125.69 2084.35 126.63 2078.71 128.53C2078.07 128.74 2073.44 130.07 2073.56 131.35C2073.67 132.4 2079.34 132.67 2079.96 132.72C2086.97 133.29 2093.69 131.83 2100.15 129.15M2090.55 135.71C2092.48 134.31 2083.77 135.35 2083.35 135.43C2077.81 136.49 2072.18 138.57 2067.9 142.36C2067.17 143.01 2064.52 145.34 2064.84 146.65C2065.02 147.35 2070.5 145.46 2070.82 145.36C2076.84 143.51 2082.93 141.17 2088.3 137.83M2079.12 146.37C2079.6 146.14 2080.98 145.57 2080.45 145.53C2079.13 145.43 2077.01 147.03 2075.91 147.62C2070.5 150.52 2066.04 154.08 2062.63 159.23C2062.37 159.62 2058.97 164.85 2059.58 165.46C2060.49 166.37 2065.42 163.69 2066.09 163.34C2072.11 160.17 2076.05 154.61 2079.56 148.97M2080.35 149.93C2079.21 148.63 2076.61 152.93 2076.2 153.52C2073.78 157.02 2071.92 160.57 2071.11 164.78C2070.64 167.22 2071.88 168.35 2073.4 166.31C2074.01 165.48 2074.63 164.65 2075.2 163.79C2076.09 162.45 2076.93 161.05 2077.63 159.6C2078.89 157.01 2079.49 154.26 2079.57 151.39" />
	<path id="green leaves" class="shp3" d="M720.02 276C721.67 275.8 718.22 272.92 717.35 271.37C715.7 268.45 713.88 265.64 712.07 262.84C705.88 253.23 698.66 244.32 690.45 236.74C659.68 208.32 616.02 203.85 582.31 180.04C573.95 174.14 564.75 167.2 559.05 158.04C558.79 157.62 553.89 148.86 554.09 148.75C554.81 148.36 563.01 156.49 563.77 157.14C573.96 165.83 585.29 173.41 596.8 179.79C632.72 199.71 679.68 198.59 704.44 238.78C710.87 249.22 714.18 260.93 717.3 272.92M575.51 163.34C575.41 164.4 572.23 162.85 572 162.71C568.91 160.85 566.57 157.8 564.33 154.88C559.79 148.93 542.55 126.13 554.2 119.39C559.25 116.47 562.69 124.51 564.33 128.35C569.93 141.41 571.07 156.76 578.66 168.81M592.11 179.07C592.85 179.07 590.87 178.18 590.35 177.61C589.43 176.61 588.61 175.52 587.81 174.41C585.71 171.47 583.98 168.22 582.34 164.95C576.74 153.75 571.97 141.33 569.8 128.72C569.09 124.62 568.72 118.37 573.11 116.53C579.95 113.66 583.4 123.5 584.83 128.81C589.18 144.87 584.95 161.79 589.11 177.64M605.44 187.85C605.62 188.46 604.54 186.99 604.2 186.46C603.12 184.8 602.3 182.96 601.45 181.15C599.54 177.08 597.87 172.87 596.3 168.62C591.67 156.08 587.87 142.81 589.17 129.09C589.5 125.56 590.79 118.54 594.77 117.68C600.55 116.44 603.45 128.94 604.03 132.89C606.58 150.24 602.69 167.97 605.22 185.41M623.64 192.61C619.32 192.65 614.73 177.98 613.68 174.9C609.13 161.47 605.31 145.62 606.52 131.18C606.67 129.4 607.06 126.77 607.4 124.99C608.85 117.4 613.22 113.32 618.1 120.95C622.15 127.28 624.21 134.82 625.32 142.37C626.33 149.17 626.7 156.05 626.65 162.93C626.57 173.48 625.1 184.34 626.4 194.84M645.9 201.97C645.97 202.13 644.45 200.57 644.42 200.54C643.41 199.2 642.46 197.8 641.66 196.3C639.5 192.28 637.98 187.82 636.59 183.42C632.37 170.11 628.96 155.89 629.12 141.69C629.16 137.81 629.04 129.57 633.62 128.35C641.11 126.35 643.6 139.09 644.55 144.58C647.82 163.6 644.79 182.93 646.87 202.02M664.15 206.85C664.78 208.87 662.12 203.19 661.31 201.24C659.24 196.26 657.7 191.08 656.21 185.85C652.3 172.09 648.14 157.47 648.14 142.93C648.14 137.65 648.28 127.12 654.74 125.77C662.57 124.13 664.83 139.57 665.53 144.8C668.12 164.25 664.46 183.26 665.36 202.67M680.11 218.47C681.11 213.89 676.64 203.07 675.89 198.6C673 181.38 668.32 159.53 672.55 142.19C676.98 124 686.18 141.22 687.33 151.02C689.78 171.98 682.83 191.26 680.14 211.63M694.85 225.16C695.07 227.19 692.12 219.14 691.97 218.6C690.85 214.37 689.95 210.07 689.31 205.72C687.16 190.99 686.73 173.57 691.18 159.29C692.46 155.18 695.46 147.5 700.69 148.75C708.12 150.52 707.79 162.5 707.4 168.59C706.1 189.16 697.6 208.37 697.15 229.05M706.03 249.78C704.22 245.54 705.08 238.67 705.17 234.3C705.43 220.48 706.4 206.71 709.27 193.22C710.56 187.15 711.89 176.91 717.2 173.16C722.47 169.44 724.91 174.97 725.78 180.07C727.7 191.4 726.13 203.58 722.89 214.43C719.78 224.82 714.57 234.31 711.79 244.84M713.98 267.33C714.96 265.56 714.13 260.41 714.37 258.4C715.24 251.13 716.96 243.79 719.18 236.88C721.24 230.48 723.77 223.47 728.38 218.72C734.76 212.14 739 217.93 737.78 225.56C735.06 242.64 722.8 254.94 717.59 270.65M719.2 270.38C719.34 272.55 715.33 269.51 713.38 269.13C709.67 268.42 705.92 268.04 702.16 267.76C693.01 267.09 678.65 268.65 671.53 260.73C664.97 253.45 675.97 249.46 680.84 249.23C691.61 248.71 703.47 253.28 711.65 260.89M704.7 244.26C704.18 242.62 701.57 244.84 699.98 244.91C697.3 245.01 694.62 245.23 691.94 245.5C680.18 246.66 666.29 250.17 654.6 247.36C650.74 246.44 644.73 243.3 645.03 237.88C645.39 231.36 655.75 231.21 659.72 230.94C672.6 230.09 685.12 231.73 696.33 239.03M676.2 221.57C675.23 220.76 664.69 224.64 663.37 224.97C652.39 227.71 640.65 231.6 629.29 230.91C626.06 230.71 618.85 229.98 617.51 225.87C615.72 220.42 625.64 218 628.58 217.26C641.49 214.01 653.97 214.76 666.83 217.79M644.67 205.25C633.17 211.68 614.51 216.17 601.85 216.17C597.86 216.17 587.93 215.12 586.45 209.73C585.1 204.85 593.3 201.14 596.22 200.03C609.43 194.99 623.92 198.37 637.38 200.43M605.73 191.59C597.59 192.9 590.14 197.81 581.58 198.54C575.66 199.04 568.55 199.28 562.92 196.8C559.37 195.23 557.19 191.35 560.85 188.34C570 180.8 588.54 184.67 598.88 186.78M580.25 176.98C581.44 178.6 577.65 178.84 577.05 178.91C572.93 179.4 568.8 179.41 564.67 179.04C558.4 178.48 551.37 177.5 545.9 173.78C536.17 167.16 547.89 164.84 553.58 165.67C556.18 166.04 558.7 166.74 561.22 167.53C565.02 168.72 568.74 170.17 572.52 171.45M566.29 163.87C566.73 164.5 562.26 163.14 561.96 163.02C559.14 161.89 556.44 160.39 553.8 158.82C546.73 154.64 525.98 142.9 530.7 130.99C532.47 126.53 537.08 129.53 539.62 131.43C546.79 136.79 552.57 144.31 558.33 151.33M1555.21 80.06C1554.4 80.93 1556.23 77.91 1556.88 76.91C1558.24 74.79 1559.78 72.8 1561.42 70.89C1566.78 64.63 1572.55 58.66 1578.59 53.05C1594.41 38.38 1616.5 26.52 1637.88 22.33C1642.21 21.49 1654.06 17.94 1658.03 21.9C1658.11 21.98 1654.13 23.21 1653.82 23.3C1651.32 24.03 1648.81 24.72 1646.31 25.45C1637.61 27.97 1628.45 29.96 1620.22 33.82C1597.57 44.41 1577.11 62.8 1556.99 77.59M1558.04 74.42C1557.38 72.65 1558.29 67.62 1558.17 65.62C1557.71 58.48 1553.83 44.42 1558.59 38.25C1561.23 34.83 1564.43 38.29 1565.07 41.28C1566.08 46.01 1564.8 51.69 1563.72 56.32C1562.74 60.53 1561.26 64.62 1559.93 68.73M1567.47 66.36C1566.89 67.91 1567.04 57.3 1567.13 56.13C1567.83 47.7 1568.73 39.04 1571.81 31.09C1572.5 29.28 1574.11 24.75 1576.8 25.19C1580.14 25.74 1580.95 31.86 1580.69 34.33C1579.7 43.48 1573.3 52.11 1569.15 60.1M1579.48 55.69C1578.71 55.86 1579.35 51.6 1579.37 51.42C1579.88 47.59 1580.69 43.76 1581.53 40C1583 33.43 1586 15.86 1594.62 14.16C1597.51 13.59 1597.88 17.06 1597.84 19.12C1597.74 24.96 1595.65 30.71 1592.73 35.71C1590.19 40.06 1587.09 44.05 1584.2 48.17M1594.61 41.77C1595.61 42.79 1595.04 38.96 1595.32 37.56C1595.84 34.99 1596.61 32.5 1597.51 30.04C1600.25 22.53 1604.03 14.34 1609.59 8.47C1611.22 6.75 1614.06 3.94 1616.77 4.69C1620.78 5.79 1619.33 11.03 1618.11 13.57C1614.05 22.08 1606.07 28.51 1599.87 35.42M1611.3 32.95C1611.21 33.25 1612.17 30.46 1612.41 29.97C1613.65 27.4 1615.02 24.88 1616.56 22.48C1621.06 15.45 1626.36 8.69 1633.08 3.64C1634.89 2.28 1638.06 -0.26 1640.47 1.33C1643.4 3.26 1639.86 8.65 1638.53 10.4C1632.31 18.61 1622.33 22.74 1614.33 28.82M1631.55 23.19C1631.46 23.41 1632.83 21.04 1633.19 20.57C1634.71 18.52 1636.37 16.59 1638.15 14.77C1642.99 9.86 1648.58 5.39 1654.61 2.04C1656.42 1.04 1659.66 -0.96 1661.77 0.53C1664.39 2.37 1660.48 7.3 1659.18 8.62C1653.93 13.9 1646.36 16.97 1639.77 20.21M1648.79 20.73C1647.95 21.42 1650.21 19.09 1651.02 18.36C1652.79 16.76 1654.66 15.27 1656.66 13.95C1661.27 10.89 1666.37 8.42 1671.77 7.12C1673.62 6.68 1676.7 5.81 1678.3 7.38C1680.76 9.79 1676.17 13.61 1674.49 14.71C1668.48 18.61 1660.73 20.12 1653.86 21.72M1643.27 25.83C1643.14 25.42 1652.69 25.33 1653.33 25.36C1659.87 25.62 1666.99 25.74 1673.2 27.98C1675.56 28.83 1679.76 31.02 1678.67 34.26C1677.48 37.85 1670.17 36.39 1667.62 36.05C1656.15 34.51 1646.33 27.78 1635 26.7M1624.37 32.08C1623.85 31.77 1627.44 31.2 1627.55 31.2C1630.52 31.04 1633.49 31.31 1636.45 31.62C1643.95 32.39 1652.02 33.7 1658.95 36.78C1660.59 37.51 1664.12 39.19 1663.75 41.57C1663.15 45.39 1654.54 43.78 1652.36 43.44C1640.83 41.64 1630.14 36.29 1618.73 33.82M1606.26 38.92C1605.43 38.08 1608.62 38.79 1609.8 38.76C1612.39 38.7 1614.95 38.85 1617.53 39.11C1625.46 39.92 1633.53 41.11 1641.02 43.95C1642.74 44.6 1649.12 46.49 1648.41 49.43C1647.48 53.21 1639.15 51.64 1636.89 51.15C1625.62 48.72 1615.67 41.93 1604.29 40M1593.82 47.48C1594.23 48.52 1595.97 46.8 1597.08 46.71C1599.52 46.53 1601.99 46.51 1604.43 46.61C1612.93 46.96 1621.91 48.59 1629.42 52.77C1631.51 53.93 1634.97 55.87 1635.46 58.5C1636.08 61.83 1631.58 62.26 1629.38 62.09C1622.93 61.62 1616.98 58.12 1611.15 55.65C1606.18 53.54 1601.29 51.41 1595.91 50.69M1582.67 55.59C1582.39 53.29 1592.42 54.73 1593.49 54.83C1601.99 55.63 1611.31 57.09 1618.81 61.4C1620.54 62.4 1624.82 64.96 1624.18 67.53C1623.25 71.26 1616.11 69.56 1613.74 69.03C1602.65 66.51 1593.07 60.18 1582.08 57.47M1572.08 63.32C1571.1 63.91 1574.36 63.16 1575.5 63.14C1577.98 63.09 1580.45 63.15 1582.92 63.42C1590.8 64.26 1599.29 66.07 1606.22 70.05C1607.63 70.87 1612.1 73.03 1611.91 75.16C1611.65 77.86 1604.26 76.29 1603.02 76.06C1592.5 74.11 1582.76 67.3 1572.02 66.67M1562.64 71.45C1562.36 71.6 1566.04 70.88 1566.75 70.81C1569.35 70.55 1571.98 70.53 1574.58 70.69C1582.7 71.16 1591.47 72.57 1598.88 76.06C1600.4 76.78 1606.05 79.77 1604.94 82.34C1603.49 85.71 1597.02 85.03 1594.29 84.78C1583.16 83.74 1573.61 76.88 1562.65 75.79M224.01 2442.84C224.3 2441.26 223.52 2430.01 222.27 2429.6C218.92 2428.48 208.15 2446.27 206.53 2448.41C188.71 2471.88 170.3 2493.47 147.69 2512.48C124.14 2532.3 96.27 2547.1 68.85 2560.81C65.46 2562.51 41.75 2570.86 46.1 2577.54C58.08 2595.96 92.81 2567.61 102.75 2560.05C147.11 2526.31 198.65 2488.52 220.74 2435.5M67.94 2576.05C67.15 2575.02 62.7 2578.49 62.24 2578.81C57.14 2582.37 52.84 2586.97 49.08 2591.89C44.91 2597.34 41.19 2603.28 38.6 2609.65C37.25 2612.97 31.52 2639.1 43.48 2632.53C52.2 2627.74 54.84 2614.29 56.8 2605.61C58.67 2597.31 60.25 2588.94 63.08 2580.89M81.1 2569.44C80.6 2568.53 77.15 2572.84 77.1 2572.9C74.07 2576.88 71.66 2581.43 69.6 2585.97C64.52 2597.16 60.1 2610.18 60.92 2622.65C61.14 2626.04 61.65 2632.58 65.44 2634.17C71.3 2636.63 77 2625.51 78.24 2621.57C82.91 2606.75 77.75 2590.24 79.24 2575.01M104.49 2551.33C106.41 2550.07 101.45 2554.8 100.2 2556.73C97.13 2561.48 95.05 2566.84 93.36 2572.21C89.22 2585.39 86.63 2600.15 89 2613.93C89.81 2618.61 91.8 2626.3 96.8 2628.41C104.34 2631.59 105.48 2617.27 105.48 2613.41C105.48 2596.92 101.06 2580.9 100.72 2564.45M123.39 2541.76C123.59 2540.13 119.64 2546.51 119.41 2547.05C117.5 2551.38 116.41 2556.12 115.44 2560.73C112.92 2572.82 111.41 2585.32 113.32 2597.61C113.89 2601.25 114.78 2608.69 119.17 2610.13C125.38 2612.17 127.16 2600.2 127.57 2596.69C129.36 2581.17 125.71 2566.04 124.93 2550.65M146.49 2520.77C142.71 2522.95 140.84 2530.83 139.81 2534.61C135.89 2548.96 135.24 2564.81 138.89 2579.25C139.95 2583.46 141.19 2590.96 145.45 2593.37C153.5 2597.91 151.58 2574.86 151.33 2572.89C150.68 2567.83 149.76 2562.82 148.81 2557.81C147.18 2549.23 145.32 2540.68 144.93 2531.93M166.2 2505.96C166.06 2505.58 161.47 2523.27 161.13 2526.01C159.26 2541.09 158.54 2557.63 164.49 2571.93C165.86 2575.21 169.18 2583.31 174.09 2582.33C180.6 2581.03 180.07 2567.38 179.61 2563.05C177.65 2544.66 170.9 2527.12 169.33 2508.65M187.1 2486.96C182.89 2489.18 182.2 2495.81 181.77 2500.25C180.41 2514.3 180.03 2533.09 187.69 2545.49C198.56 2563.07 200.44 2538.7 198.49 2530.09C197.47 2525.54 196.04 2521.19 194.33 2516.85C191.1 2508.62 186.84 2499.82 185.73 2490.97M202.06 2465.48C201.95 2464.99 199.97 2479.88 200.05 2482.65C200.44 2495.25 202 2509.02 207.77 2520.41C209.34 2523.49 213.29 2530.74 217.74 2530.09C223.15 2529.3 220.99 2517.77 220.14 2514.77C215.9 2499.85 205.51 2487.57 201.69 2472.57M216.75 2447.23C215.24 2446.78 215.43 2460.32 215.65 2463.93C216.42 2476.2 218.59 2488.53 224.78 2499.29C226.04 2501.5 227.38 2503.73 229.02 2505.69C240.81 2519.81 238.7 2495.96 236.82 2489.77C235.18 2484.38 233.19 2479.16 230.42 2474.25C226.4 2467.14 221.74 2460.35 217.25 2453.53M54.35 2578.52C53.51 2581.05 43.27 2583.03 41.2 2583.61C29.12 2587 15.58 2589.12 3.95 2582.65C-7.52 2576.26 14.56 2570.69 18.6 2570.61C22.9 2570.53 27.21 2571.13 31.48 2571.61C39.53 2572.51 48.14 2574.61 56.24 2574.21M210.16 2443.05C212.29 2442.64 207.26 2442.94 206.5 2442.82C202.72 2442.19 198.94 2441.51 195.21 2440.59C184.6 2437.98 173.54 2433.04 162.38 2434.8C158.16 2435.46 151.25 2438.27 151.94 2443.69C152.69 2449.63 161.15 2451.26 165.82 2451.71C181.55 2453.26 196.26 2447.64 211.53 2445.18M202.95 2457.91C203.58 2457.86 198.96 2457.96 198.31 2457.98C194.42 2458.11 190.51 2458.11 186.62 2458.15C175.59 2458.27 163.92 2456.87 152.98 2458.39C149.16 2458.92 143.14 2460.79 143 2465.67C142.85 2471.08 152.11 2471.55 155.68 2471.67C169.79 2472.14 182.14 2466.34 195.28 2462.3M186.58 2478.96C192.99 2476.56 177.39 2476.29 176.44 2476.28C164.45 2476.21 152.26 2476.88 140.44 2478.95C136.81 2479.58 125.4 2480.4 124.87 2485.69C124.23 2492.09 135.57 2492.48 139.26 2492.29C153.39 2491.56 166.84 2486.37 180.28 2482.48M171.17 2495.32C170.37 2493.62 154.5 2495.56 153.08 2495.63C138.62 2496.31 119.51 2495.8 106.43 2502.97C99.93 2506.54 101.9 2512.42 108.39 2514.4C112.9 2515.78 118.02 2514.6 122.44 2513.52C127.34 2512.33 132.17 2510.78 136.94 2509.14C145.77 2506.11 154.43 2502.39 163.43 2499.91M147.87 2520.32C145.69 2522.31 135.77 2520.77 133.16 2520.77C122.66 2520.77 112.28 2519.69 101.88 2518.27C95.66 2517.43 87.66 2515.51 81.59 2518.04C69.64 2523.03 89.53 2529.51 93.36 2529.87C108.9 2531.34 125.07 2527.36 140.07 2523.67M126.27 2534.3C106.44 2540.62 82.67 2523.7 62.79 2529.87C50.4 2533.71 69.92 2540.78 73.81 2541.5C86.27 2543.79 98.8 2540.85 110.88 2537.92M97.97 2550.08C98.61 2549.75 95.96 2549.91 95.63 2549.88C93.59 2549.72 91.54 2549.44 89.52 2549.18C84.48 2548.53 79.45 2547.66 74.48 2546.58C64.02 2544.32 53.69 2541.52 43.78 2537.45C41.9 2536.68 36.7 2533.49 35.39 2536.61C33.47 2541.13 40.21 2547.14 43.31 2549.18C54.99 2556.85 71.43 2555.22 84.59 2553.59M72.4 2564.93C72.71 2563.75 59.22 2560.39 58.24 2560.1C45.6 2556.3 31.63 2551.17 18.26 2551.37C2.35 2551.61 13.47 2562.63 22.38 2565.12C27.31 2566.5 32.49 2567.24 37.58 2567.82C44.47 2568.6 51.41 2568.61 58.34 2568.52M2181.46 2085.08C2184.66 2091.29 2163.39 2108.6 2159.11 2112.65C2134.11 2136.4 2104.37 2157.68 2099.03 2190.32C2097.99 2196.67 2095.34 2215.28 2103.01 2220.24C2103.24 2220.39 2106.62 2205.65 2106.87 2204.25C2109.02 2192.38 2112.01 2181.72 2120.01 2171.4C2131.5 2156.59 2149.19 2145.25 2161.6 2130.81C2174.45 2115.88 2181.37 2099.65 2186.76 2082.22M2105.25 2206.67C2106.2 2205.78 2103.86 2208.76 2103.59 2209.92C2102.87 2212.98 2102.42 2216.15 2102.24 2219.26C2101.86 2226.14 2105.85 2244.78 2118.48 2243.73C2123.49 2243.31 2122.03 2236.55 2121.2 2234.11C2118.13 2225.02 2108.69 2218.3 2104.32 2209.69M2109.56 2189.91C2110.01 2188.7 2108.41 2192.3 2108.35 2193.57C2108.2 2196.5 2108.73 2199.38 2109.48 2202.25C2111.99 2211.8 2115.65 2222.58 2124.01 2229.94C2125.68 2231.41 2130.26 2235.63 2133.29 2234.63C2137.59 2233.2 2133.51 2225.07 2132.56 2223.06C2128.02 2213.42 2119.23 2205.59 2112.75 2196.82M2118.83 2170.17C2114.32 2171.85 2116.68 2179.91 2117.33 2182.94C2119.29 2192.16 2122.06 2202.13 2129.51 2209.57C2130.8 2210.87 2132.27 2212.11 2133.78 2213.24C2146.17 2222.55 2143.04 2208.63 2139.21 2202.42C2136.85 2198.58 2133.94 2194.96 2131 2191.4C2126.82 2186.32 2121.72 2181.68 2119.07 2175.91M2131.88 2156.62C2131.59 2155.42 2130.54 2159.6 2130.53 2159.69C2130.47 2162.47 2130.88 2165.3 2131.55 2168.02C2133.78 2177.12 2137.68 2186.32 2144.43 2193.91C2145.7 2195.33 2150.36 2201.16 2153.5 2199.56C2157.32 2197.6 2154.43 2189.7 2153.41 2187.33C2148.84 2176.66 2139.58 2168.48 2133.32 2158.62M2146.97 2142.88C2147.44 2143.52 2144.72 2152.26 2144.86 2153.71C2145.68 2162.34 2149.25 2170.91 2153.62 2178.74C2156.39 2183.71 2159.81 2189 2164.73 2192.83C2171.51 2198.09 2175.33 2192.53 2175.18 2186.96C2175.13 2185.2 2174.84 2183.4 2174.44 2181.68C2171.39 2168.32 2160.13 2158.02 2152.83 2146.22M2166.87 2123.73C2167.59 2124.46 2164.8 2124.89 2164.55 2125.8C2163.9 2128.14 2164.01 2130.62 2164.06 2133C2164.25 2141.65 2165.32 2151.27 2171.6 2158.55C2179.03 2167.16 2186.93 2163.93 2185.01 2153.57C2182.94 2142.46 2175.84 2134.23 2168.61 2125.06M2176.55 2107.69C2175.91 2104.92 2176.86 2112.82 2176.92 2113.17C2177.64 2117.56 2178.31 2122.21 2180.27 2126.36C2180.97 2127.83 2183.69 2131.75 2186.44 2130.7C2188.92 2129.76 2188.95 2126.72 2189 2124.88C2189.19 2118.86 2187.35 2112.62 2184.21 2107.18C2183.26 2105.53 2181.48 2102 2178.56 2102M2175.97 2100.56C2176.53 2101.54 2164.04 2099.85 2163.73 2099.78C2156.47 2098.09 2134.48 2090.98 2140.07 2081.73C2142.4 2077.87 2149.56 2078.87 2153.44 2080.13C2162.68 2083.11 2169.7 2090.83 2176.15 2096.67M2169.34 2110.87C2168.98 2108.29 2154.73 2108.79 2152.22 2108.66C2141.25 2108.07 2127.49 2106.04 2117.69 2111.35C2113.25 2113.75 2111.96 2119.27 2117.97 2121.01C2124.47 2122.9 2132.78 2121.14 2139.15 2119.76C2145.55 2118.36 2151.63 2116.47 2157.65 2114.26M2150.67 2125.14C2151.61 2124.1 2134.82 2124.07 2133.54 2124.17C2121.71 2125.11 2107.72 2127.16 2097.57 2132.46C2094.55 2134.03 2088.59 2138.35 2090.06 2141.83C2091.79 2145.91 2102.85 2142.75 2106.03 2142.05C2120.32 2138.92 2132.82 2132.31 2145.78 2126.73M2135.08 2140.45C2135.64 2140.55 2133.95 2140.54 2133.39 2140.61C2132.05 2140.8 2130.7 2140.96 2129.35 2141.14C2125.26 2141.68 2121.22 2142.24 2117.2 2143.11C2103.93 2145.98 2091.5 2150.99 2080.78 2157.93C2078.41 2159.47 2069.89 2164.13 2071.56 2167.4C2073.17 2170.54 2081.98 2167.7 2084.17 2166.98C2097.43 2162.63 2108.6 2155.07 2119.92 2148.19M2119.72 2160.24C2119.72 2160.24 2115.46 2160.81 2115.22 2160.86C2111.72 2161.47 2108.37 2162.36 2105.05 2163.45C2093.47 2167.27 2081.49 2172.62 2072.39 2179.63C2069.03 2182.22 2063.62 2186.48 2065.34 2190.73C2067.18 2195.31 2076.27 2189.88 2078.62 2188.58C2089.69 2182.47 2099.09 2174.59 2108.75 2167.13M2108.2 2176.36C2108.16 2173.63 2095.43 2182.01 2094.86 2182.39C2087.58 2187.27 2079.89 2192.68 2075.81 2199.73C2075.08 2200.99 2070.47 2209.47 2074.65 2209.84C2079.01 2210.23 2084.43 2203.05 2086.43 2200.84C2088.72 2198.31 2090.85 2195.71 2092.93 2193.07C2096.81 2188.17 2100.48 2183.19 2104.14 2178.18M2100.18 2198.56C2100.28 2198.46 2096.74 2200.14 2096.22 2200.46C2093.67 2202.05 2091.29 2203.77 2089.05 2205.65C2082.55 2211.09 2077.3 2217.6 2074.03 2224.71C2073.16 2226.59 2071.47 2230.25 2073.49 2232.07C2076.27 2234.55 2080.97 2230.62 2082.42 2229.03C2088.84 2222.03 2091.62 2212.95 2095.22 2204.86M2100.24 2212.22C2100.43 2211.11 2098.09 2213.89 2098.08 2213.91C2096.49 2215.87 2095.21 2217.98 2093.98 2220.11C2090.51 2226.13 2086.52 2232.6 2085.71 2239.3C2085.42 2241.7 2085.64 2245.55 2088.9 2246.77C2092.96 2248.28 2096.03 2242.37 2097.09 2240.33C2101.41 2231.99 2101.62 2223.13 2102.59 2214.3" />
</svg>