<svg version="1.2" baseProfile="tiny-ps" xmlns="http://www.w3.org/2000/svg" viewBox="0 0 4446 2919" width="4446" height="2919">
	<title>orange flowers</title>
	<style>
		tspan { white-space:pre }
		.shp0 { opacity: 0.549;fill: #67b8a7 } 
		.shp1 { opacity: 0.549;fill: #c0ba3d } 
		.shp2 { opacity: 0.549;fill: #367a91 } 
		.shp3 { opacity: 0.549;fill: #f2bea2 } 
	</style>
	<path id="green leaves" class="shp0" d="M2625.53 855.03C2629.19 837.3 2632 816.45 2639.55 799.98C2659.96 755.45 2698.31 739.32 2729.06 715.71C2736.33 710.12 2743.55 704.16 2750.23 697.14C2753.26 693.96 2756.55 688.51 2759.97 686.28C2760.56 685.89 2759.03 687.61 2758.56 688.27C2757.52 689.72 2756.5 691.22 2755.48 692.7C2752.12 697.59 2748.61 702.26 2745.16 707.01C2735.42 720.41 2725.14 731.99 2713.01 740.34C2694.34 753.19 2673.42 765.03 2658.29 786.06C2644.35 805.42 2635.53 832.86 2626.07 857.16M2624.93 857.22C2625.43 857.68 2624.79 855.51 2624.69 854.65C2624.52 853.15 2624.27 851.69 2623.97 850.23C2622.94 845.36 2621.56 840.63 2620.16 835.97C2616.29 823.09 2609.39 809.05 2610.29 794.23C2610.56 789.87 2612.32 781.2 2615.95 780.44C2620.16 779.57 2623.33 789.91 2624.29 794.41C2628.03 812 2626.45 832.27 2625.24 850.25M2632.11 832.71C2630.46 818.94 2627.57 804.77 2625.55 790.92C2623.81 779.03 2622.25 766.27 2625.37 754.55C2627.71 745.74 2635.13 746.06 2637.66 754.62C2639.77 761.75 2638.74 770.83 2638.14 778.25C2636.81 794.65 2633.96 810.7 2632.39 827.05M2645.46 796.16C2645.47 796.16 2645.21 793.3 2645.2 793.21C2644.96 791.08 2644.73 788.96 2644.5 786.83C2643.88 781.1 2643.24 775.37 2642.95 769.59C2642.22 755.29 2642.53 740.15 2646.45 726.79C2647.93 721.76 2650.72 714.28 2655.04 714.02C2660.86 713.66 2660.65 727.27 2660.42 732.77C2659.66 750.91 2651.47 768.36 2647.42 785.23M2663.4 770.44C2663 770.55 2663.09 763.72 2663.09 763.65C2663.09 754.7 2663.14 745.71 2663.63 736.79C2664.1 728.28 2664.87 719.71 2666.29 711.42C2667.57 703.96 2669.57 695.42 2673.56 690.05C2678.54 683.34 2684.13 690.45 2684.62 698.49C2685.39 710.85 2679.27 725.45 2675.49 735.89C2671.96 745.65 2667.95 755.03 2664.63 764.96M2681.12 754.36C2680.34 754.12 2680.61 750.1 2680.63 749.48C2680.73 744.65 2681.32 739.79 2681.92 735.05C2683.37 723.61 2685.22 710.89 2690.17 701.49C2691.01 699.9 2691.9 698.53 2692.91 697.18C2693.59 696.27 2694.69 694.95 2695.49 694.25C2703.82 686.93 2700.07 706.29 2698.53 710.99C2696.82 716.22 2694.79 721.25 2692.77 726.23C2689.8 733.52 2686.65 740.64 2683.87 748.1M2700.46 739.94C2700.07 739.74 2700.57 735.4 2700.59 735.14C2700.99 729.4 2701.58 723.67 2702.19 717.97C2703.78 703.08 2705.15 683.19 2712.3 671.41C2716.28 664.86 2721.49 664.9 2722.7 674.54C2723.54 681.18 2722.39 687.6 2720.58 693.71C2718.94 699.24 2716.75 704.43 2714.56 709.53C2710.84 718.17 2706.76 726.46 2703.17 735.23M2718.58 728.37C2717.87 728.67 2718.7 723.49 2718.71 723.35C2719.44 717.6 2720.38 711.94 2721.43 706.3C2723.81 693.44 2726.04 676.54 2731.86 665.97C2733.68 662.66 2743.22 650.64 2744.43 660.84C2745.27 667.86 2741.12 676.65 2738.93 682.37C2736.69 688.24 2734.22 693.92 2731.65 699.48C2727.85 707.7 2723.82 715.7 2719.98 723.88M2732.09 715.82C2732.13 716.47 2732.25 714.51 2732.42 713.89C2732.77 712.55 2733.14 711.22 2733.54 709.91C2734.82 705.69 2736.29 701.61 2737.86 697.61C2742.66 685.35 2748.01 672.42 2754.71 662.17C2756.34 659.68 2759.68 654.91 2762.44 656.24C2766.64 658.25 2760.61 669.88 2759.53 672.04C2753.06 684.85 2744.86 695.99 2737.13 707.13M2746.34 701.25C2745.81 700.79 2747.92 697.57 2748 697.43C2750.19 693.67 2752.42 689.9 2754.79 686.39C2761.1 677.06 2768.84 667.81 2777.24 662.94C2778.53 662.2 2779.28 661.77 2780.61 661.36C2783.79 660.37 2787.61 662.06 2785.31 667.66C2783.18 672.87 2779.37 676.55 2775.89 679.58C2772.25 682.75 2768.42 685.45 2764.61 688.15C2759.33 691.9 2754.03 695.6 2748.8 699.51M2738.37 712.51C2738.01 713.07 2739.21 711.59 2739.68 711.23C2740.43 710.65 2740.86 710.37 2741.67 709.82C2743.63 708.48 2745.62 707.24 2747.63 706.05C2753.95 702.32 2760.62 699.59 2767.5 700.3C2769.94 700.54 2774.01 701.59 2774.79 705.76C2775.85 711.52 2769.59 712.79 2767.18 713C2756.98 713.91 2746.97 714.6 2736.86 716.95M2727.9 726.08C2727.35 724.84 2728.98 724.17 2729.44 723.95C2732.1 722.63 2735.02 722.1 2737.81 721.74C2747.31 720.5 2757.64 720.6 2766.19 727.56C2768.31 729.28 2773.36 733.69 2772.11 738.37C2770.53 744.27 2762.51 742.39 2759.54 741.51C2748.71 738.31 2738.99 728.83 2727.84 727.67M2714.18 733.57C2714.27 732.94 2716.19 733.08 2716.44 733.08C2718.86 733.02 2721.29 733.4 2723.69 733.9C2732.87 735.85 2742 739.73 2750.52 745.14C2752.34 746.3 2757.71 748.87 2757.11 753.18C2756.26 759.33 2748.54 756.27 2746.16 755.3C2734.5 750.57 2723.74 742.16 2711.99 737.81M2697.25 749.46C2697.04 747.85 2699.82 747.19 2700.51 746.99C2704.04 745.98 2707.66 746.04 2711.24 746.23C2722.73 746.84 2735.7 749.34 2743.88 762.41C2745.55 765.07 2750.39 772.3 2749.18 776.61C2748.71 778.3 2746.82 778.18 2745.85 778.05C2742.14 777.55 2738.37 775.24 2734.98 773.11C2722.5 765.25 2711.05 753.71 2697.26 751.33M2684.17 757.96C2682.38 756.84 2687.2 756.42 2687.64 756.38C2691.22 756.09 2694.8 756.82 2698.3 757.99C2707.07 760.9 2716.15 766.97 2723.01 775.59C2725.05 778.15 2729.54 784 2728.08 788.66C2726.25 794.52 2716.9 785.15 2714.85 783.47C2703.92 774.45 2692.03 762.33 2679.18 760.63M2662.84 775.41C2675.94 768.45 2694.21 774.98 2706.64 782.32C2710.84 784.79 2715.09 787.89 2717.33 793.92C2718.01 795.77 2719.58 799.98 2717.68 801.43C2713.7 804.48 2705.55 797.66 2702.08 795.43C2691.01 788.3 2678.85 777.35 2666.38 778.07M2650.44 792.66C2649.76 791.73 2653 790.72 2653.31 790.59C2657.07 789.03 2661 788.59 2664.89 788.64C2676.9 788.77 2689.82 792.61 2700.3 801.57C2702.5 803.46 2708.72 809.02 2707.08 814.32C2705.42 819.67 2695.13 813.71 2692.92 812.76C2679.23 806.89 2663.63 793.72 2649 795.72M2639.56 817.29C2639.37 817.24 2644.66 812.85 2645.13 812.61C2648.73 810.76 2652.42 809.89 2656.22 809.51C2667.67 808.39 2680.34 810.66 2690.86 817.64C2693.68 819.51 2699.18 823.38 2699.05 829.15C2698.88 837.26 2687.54 833.17 2685.02 832.24C2670.74 826.95 2655.85 816.72 2640.81 821.18M2631.03 838.27C2630.91 838.03 2633.87 835.9 2633.94 835.85C2637.6 833.47 2641.69 832.81 2645.64 832.29C2655.73 830.94 2666.59 830.91 2676.19 836.26C2679.15 837.91 2684.92 842.11 2684.21 848.22C2683.44 854.83 2673.83 853.9 2670.85 853.3C2657.17 850.54 2643.98 839.19 2629.93 844.79M2625.41 856.53C2625.42 855.91 2627.43 855.22 2627.72 855.09C2630.41 853.81 2633.22 853.26 2636.03 852.94C2642.58 852.2 2649.67 852.13 2656.09 854.43C2657.17 854.82 2658.15 855.26 2659.17 855.9C2661.83 857.55 2663.67 861.23 2659.97 862.96C2656.32 864.68 2652.32 865.14 2648.51 864.95C2645.46 864.79 2642.46 864.1 2639.5 863.01C2634.73 861.24 2630.03 859.16 2625.29 857.25M2626.89 858.12C2626.84 858.16 2623.87 849.99 2623.72 849.62C2621.37 843.8 2618.62 838.01 2614.93 833.84C2610.11 828.39 2603.8 825.35 2597.83 824.09C2594.83 823.46 2588.38 823.96 2592.16 830.46C2597.88 840.31 2607.53 844.12 2615.41 848.92C2618.55 850.84 2624.09 854.05 2625.77 858.97M109.2 318.58C109.26 320.3 106.91 316.01 105.97 314.58C103.68 311.08 101.28 307.65 98.93 304.19C92.12 294.15 85.65 283.9 79.56 273.41C60.35 240.32 52.12 202.3 57.24 164.23C58.3 156.36 62.7 132.77 73.48 130.51C78.02 129.55 75.25 142.17 74.96 143.45C71.13 160.04 66.48 176.23 66.84 193.47C67.5 225.15 78.19 256.69 91.6 285.05C95.69 293.71 98.4 305.37 104.33 312.99M97.38 299.43C97.73 299.73 97.02 297.24 96.97 297.02C96.59 295.53 96.13 294.06 95.71 292.58C94.51 288.29 93.78 283.81 93.94 279.35C94.32 268.42 99.7 254.33 107.41 246.54C109.94 243.98 115.11 239.56 119.02 241.81C124.16 244.78 120.51 252.68 118.31 256.32C112.5 265.93 102.92 274.89 100.12 286.06C98.53 292.45 99.86 298.56 100.44 304.95M85.23 275.76C85.33 276.06 84.6 274.15 84.52 273.8C84.18 272.38 84.02 270.89 83.89 269.44C83.46 264.85 83.66 260.23 84.05 255.64C85.27 241.03 90.36 228.62 98.3 216.46C100.61 212.92 105.32 206.57 110.35 208.29C117.01 210.57 114.6 220.28 112.05 224.83C102.36 242.13 91.01 257.22 85.53 276.69M74.48 246.89C74.46 247.04 73.38 240.8 73.45 239.52C73.73 234.21 74.74 228.95 75.85 223.76C76.65 220.02 77.53 216.3 78.59 212.62C79.5 209.47 80.57 206.38 81.8 203.34C84.85 195.81 95.25 172.47 107.33 179.07C113.31 182.35 109.25 190.35 106.39 194.15C99.65 203.1 90.44 209.86 84.65 219.56C79.05 228.92 77.8 239.4 73.11 248.78M64.71 208.55C64.06 209.2 65 206.72 65.16 205.81C65.5 203.8 65.45 203.97 65.93 201.9C67.08 196.94 68.51 192.08 70.42 187.34C76.41 172.49 85.4 159.22 98.11 149.34C101.21 146.93 110.17 139.26 114.66 143.57C120.7 149.36 107.27 160.68 104.14 163.68C89.84 177.38 70.7 192.36 65.31 212.28M68.09 162.83C68.05 162.99 68.65 160.95 68.77 160.6C69.23 159.23 69.74 157.87 70.27 156.54C71.91 152.38 73.73 148.28 75.64 144.25C77.21 140.93 78.94 137.68 80.81 134.52C82.04 132.44 83.31 130.34 84.72 128.39C89.61 121.63 106.46 105.39 115.68 113.96C122.82 120.6 112.07 126.1 107.27 130.08C92.98 141.96 78.12 154.92 67.34 170.15M64.23 144.19C62.32 145.34 65.03 139.81 65.53 137.64C66.67 132.63 67.8 127.62 69.17 122.68C73.25 108.04 79.35 92.02 90.08 80.86C93.33 77.48 99.06 72 104.21 74.73C112.8 79.29 106.99 90.36 103.69 96.4C94.69 112.86 81.61 126.59 72.4 142.96M56 185.91C58.24 179.96 49.46 167.1 47.33 162.27C39.87 145.31 32.45 128.65 33.04 109.75C33.36 99.8 42.64 82.05 50.56 98.56C51.48 100.48 52.03 102.06 52.59 104.14C58.32 125.39 57.23 148.64 57.82 170.46M61.11 215.89C61.43 215.05 51.73 205.56 51.04 204.8C40.39 192.99 29.01 180.05 22.11 165.59C20.69 162.62 14.92 147.7 20.82 145.54C25.65 143.76 33.67 154.55 36.01 157.47C48.91 173.53 55.37 191.45 60.14 211.21M64.16 240.83C64.85 237.37 52.97 231.88 50.64 230.71C36.73 223.65 19.47 217.33 9.87 204.27C6.63 199.85 2.56 190.89 7.06 185.82C10.78 181.64 21.63 187.94 25.29 189.79C42.37 198.43 54.72 215.14 64.45 231.06M74.78 246.6C76.67 247.28 70.77 245.95 68.94 245.12C65.34 243.49 61.65 242.04 57.97 240.6C48.57 236.94 37.36 232.29 27.1 234.22C23.85 234.83 18.61 236.25 17.42 239.83C15.16 246.6 24.02 249.97 28.93 250.54C37.8 251.54 47.15 249.9 55.9 248.57C60.28 247.9 66.46 246.14 70.74 248.08M76.83 265.3C76.28 266.78 74.28 263.4 72.84 262.76C69.72 261.36 66.34 260.41 63.03 259.56C54.13 257.29 44.86 255.57 35.64 255.66C25.52 255.77 11.45 257.61 2.84 263.59C-5.4 269.31 6.48 276.34 11.97 277.04C34.15 279.88 58.86 261.11 79.77 269.11M90.35 289.55C77.64 277.46 55.77 279.14 40.23 283.23C34.48 284.74 26.63 286.95 23.26 292.35C20.68 296.48 23.2 300.39 27.71 300.9C36.07 301.84 45.92 298.72 53.9 296.55C63.76 293.85 75.18 287.95 85.65 288.55M102.69 308.37C100.77 303.83 91.25 303.11 87.45 302.96C76.39 302.53 53.01 302.61 45.74 313.41C41.8 319.26 60.85 318.84 62.9 318.57C67.48 317.96 72.08 316.89 76.48 315.5C83.54 313.29 90.25 309.98 97.42 308.19M103.97 310.42C104.92 308.94 103.62 302.56 103.84 300.71C104.61 294.19 106.3 287.62 108.71 281.52C111.41 274.69 116.09 266.72 122.58 262.76C129.5 258.53 132.83 266.11 131.81 272.14C129.21 287.42 111.89 297.81 106.23 312.18M4419.29 1320C4421.06 1320.32 4413.21 1331.87 4412.87 1332.34C4404.36 1344.16 4394.05 1354.7 4383.06 1364.15C4353.64 1389.44 4313.63 1407.77 4306.48 1450.38C4304.7 1460.94 4305.17 1472.75 4308.9 1482.86C4309.4 1484.22 4311.08 1491.18 4312.61 1491.63C4313.44 1491.87 4313.13 1487.36 4313.12 1487.04C4312.9 1480.76 4312.94 1474.45 4313.08 1468.17C4313.41 1453.49 4315.73 1436.8 4324.61 1424.68C4337.97 1406.45 4360.46 1398.12 4377.19 1383.88C4396.05 1367.82 4408.96 1345.47 4417.21 1322.19M4310.62 1469.19C4307.76 1471.21 4311.22 1482.98 4311.87 1485.77C4314.52 1497.11 4319 1510.29 4326.89 1519.11C4329.5 1522.03 4336.65 1525.33 4336.29 1518.4C4336.02 1513.36 4331.8 1508.07 4329.13 1504.08C4326.69 1500.44 4323.99 1497 4321.38 1493.49C4316.78 1487.3 4312.16 1481.16 4309.08 1474.02M4315.5 1450.71C4309.79 1450.49 4312.44 1460.69 4313.34 1464.25C4316.4 1476.39 4321.68 1490.86 4331.18 1499.31C4334.13 1501.93 4340.52 1506.15 4344.73 1504.01C4349.7 1501.49 4344.54 1491.42 4342.93 1488.38C4335.29 1473.89 4319.86 1465.58 4312.28 1451.72M4317.77 1434.65C4317.84 1433.77 4317.78 1436.42 4317.78 1437.3C4317.78 1438.9 4317.89 1440.5 4318.22 1442.06C4319.12 1446.23 4320.94 1450.35 4323.03 1454.03C4327.85 1462.48 4350.36 1487 4361.8 1474.62C4365.43 1470.7 4357.42 1463.81 4355.01 1461.53C4344.26 1451.31 4329.29 1446.28 4319.66 1435.01M4332.13 1411.86C4328.21 1414.09 4332.89 1424.65 4334.12 1427.59C4338.5 1438.04 4345.71 1446.98 4355.34 1452.8C4357.48 1454.09 4359.69 1455.36 4362.02 1456.23C4378.91 1462.53 4368.01 1445.27 4362.28 1439.45C4359.14 1436.26 4355.73 1433.28 4352.19 1430.57C4346.65 1426.35 4340.91 1422.42 4335.52 1418M4352.64 1397.3C4346.86 1398.03 4356.01 1417.72 4356.66 1418.86C4362.15 1428.46 4374.24 1448.62 4386.99 1449.18C4390.7 1449.35 4390.85 1444.15 4390.22 1441.65C4388.19 1433.62 4381.43 1426.83 4375.54 1421.55C4369.86 1416.46 4363.58 1412.15 4357.88 1407.11M4373.34 1383.81C4368.15 1385.5 4374.24 1397.94 4375.46 1400.51C4380.47 1411.06 4387.58 1422.7 4397.16 1429.57C4413.18 1441.05 4408.91 1422.2 4403.22 1413.19C4400.48 1408.86 4397.08 1405.19 4393.27 1401.82C4388.17 1397.32 4382.53 1393.49 4377.22 1389.25M4390.69 1364.69C4392.44 1363.97 4390.03 1368.52 4390.3 1370.42C4390.9 1374.77 4392.22 1379.09 4393.89 1383.13C4398.54 1394.35 4405.87 1405.02 4414.56 1413.38C4416.82 1415.55 4422.27 1420.86 4425.83 1418.42C4432.01 1414.19 4427.63 1405.01 4424.48 1400.4C4416.09 1388.14 4400.65 1383.96 4392.46 1372.39M4402.7 1350.57C4402.95 1348.98 4402.2 1353.8 4402.45 1355.39C4403.05 1359.2 4404.12 1362.88 4405.64 1366.43C4409.81 1376.12 4417.01 1384.04 4425.58 1389.92C4427.93 1391.54 4432.13 1394.33 4435.16 1392.79C4439.72 1390.48 4434.29 1381.21 4432.55 1378.96C4424.89 1369 4414.18 1362.7 4405.31 1354.12M4415.5 1333.93C4408.62 1343.68 4424.67 1365.58 4431.38 1371.24C4433.64 1373.14 4441.76 1379.34 4445.07 1375.97C4448.33 1372.66 4442.05 1364.13 4440.3 1361.65C4432.75 1350.96 4419.75 1343.04 4416.88 1329.61M4414.61 1329.96C4414.71 1329.6 4410.68 1331.94 4409.35 1332.37C4404.61 1333.92 4399.45 1334.69 4394.48 1334.28C4381.29 1333.17 4351.41 1321.36 4343.63 1339.8C4341.67 1344.43 4347.85 1347.67 4351.12 1349.12C4361.1 1353.56 4373.61 1352.2 4383.47 1348.26C4391.2 1345.17 4398.59 1341.13 4405.72 1336.81M4403.21 1347.35C4405.2 1346.02 4398.99 1349.65 4396.76 1350.5C4391.63 1352.44 4386.34 1353.65 4380.93 1354.45C4367.69 1356.43 4354.4 1355 4341.21 1356.5C4337.45 1356.93 4331.04 1359.21 4330.67 1363.96C4330.19 1370.19 4343.05 1370.71 4346.75 1370.86C4363.27 1371.55 4377.75 1365.19 4392.02 1357.44M4376.45 1373.99C4381.31 1373.08 4361.53 1376.08 4359.42 1376.27C4346.27 1377.49 4331.87 1375.67 4319.03 1378.96C4314.87 1380.02 4308.01 1383.26 4308.49 1388.69C4309.07 1395.16 4318.92 1395.44 4323.4 1395.18C4340.11 1394.21 4354.9 1387.32 4370.07 1380.82M4345.63 1397.36C4346.44 1396.74 4341.82 1398.22 4340.69 1398.39C4336.46 1399.02 4332.24 1399.6 4328.03 1400.36C4315.12 1402.7 4301.79 1405.52 4290.69 1413.01C4287.7 1415.02 4282.32 1419.13 4283.23 1423.49C4285.08 1432.25 4296.39 1428.36 4301.37 1425.8C4316.15 1418.2 4328.75 1406.59 4343.3 1398.5M4321.44 1421.04C4322.28 1420.17 4316.11 1422.99 4315.65 1423.23C4311.8 1425.25 4308.04 1427.47 4304.31 1429.72C4292.29 1436.93 4279.51 1445.28 4271.49 1457.2C4269.73 1459.82 4265.66 1465.62 4267.45 1469.02C4270.12 1474.09 4279.5 1467.16 4281.84 1465.37C4295.78 1454.67 4305.94 1439.71 4318.55 1427.55M4310.93 1450.63C4309.8 1447.62 4295.95 1461.59 4295.24 1462.31C4288.42 1469.3 4271.68 1487.81 4276.81 1499.49C4278.38 1503.08 4282.9 1501.45 4285.14 1499.61C4290.47 1495.25 4293.04 1487.44 4295.64 1481.29C4298.17 1475.34 4300.59 1469.34 4303.21 1463.43M4309.54 1471.94C4309.68 1471.78 4306.94 1474.52 4306.48 1475.29C4304.5 1478.55 4302.86 1482.02 4301.34 1485.51C4298 1493.14 4285.67 1523.32 4295.24 1529.74C4300.7 1533.4 4305.74 1529.39 4307.87 1524.11C4312.27 1513.19 4311.84 1499.01 4311.84 1487.41M4310.93 1490.57C4309.12 1489.89 4310.2 1501.79 4310.29 1502.85C4311.15 1512.39 4311.65 1524.54 4317.16 1532.76C4322.83 1541.22 4326.17 1523.23 4325.71 1519.86C4325.21 1516.1 4324.25 1512.44 4323.03 1508.86C4321.32 1503.83 4319.63 1498.64 4317.56 1493.75M166.59 2394.57C167.31 2394.79 160.29 2394.94 147.9 2392.77C133.74 2390.29 120.3 2386.26 108.49 2379.37C79.51 2362.46 61.8 2336.09 43.46 2311.4C37.58 2303.49 31.36 2295.83 24.75 2288.35C17.89 2280.58 14.54 2277.22 14.77 2277.82C18.55 2287.33 37.56 2297.27 45.62 2304.18C72.23 2326.99 96.66 2352.09 127.72 2370.92C140.46 2378.64 154.06 2385.21 169.03 2389.61C172.45 2390.61 187.49 2391.85 189.6 2394.14C189.77 2394.33 183.95 2394.68 183.82 2394.69M176.86 2393.25C177.05 2393.43 174.47 2395.67 174.42 2395.72C171.32 2398.75 167.93 2401.62 164.44 2404.34C156.76 2410.32 148.73 2414.88 138.54 2416.73C135.59 2417.27 131.52 2417.97 128.95 2416.4C125.95 2414.56 128.84 2410.99 130.61 2409.14C135.44 2404.12 142.74 2401.6 149.8 2399.84C155.92 2398.32 162.19 2397.47 168.35 2396.11M154.23 2389.09C153.88 2392.45 142.24 2396.48 139.75 2397.61C130.43 2401.86 119.32 2406.64 108.81 2407.49C101.77 2408.05 90.41 2402.93 99.43 2396.9C105.08 2393.12 113.92 2392.81 120.59 2392.63C127.81 2392.44 135.02 2392.85 142.24 2392.25M128.88 2382.97C130.45 2383.55 126.2 2385.27 125.85 2385.43C122.37 2386.9 118.62 2388.04 114.93 2388.99C105.24 2391.5 94.68 2393.35 84.74 2392.21C81.67 2391.86 76.58 2391.32 75.88 2388.14C74.75 2383.02 83.59 2381.07 87.78 2380.94C99.93 2380.58 111.22 2384.67 123.26 2384.71M105.99 2372.2C106.46 2372.06 105.42 2373.38 105.05 2373.53C103.61 2374.09 102.03 2374.42 100.51 2374.73C96.36 2375.57 92.12 2375.98 87.91 2376.34C86.33 2376.48 82.13 2376.78 80.57 2376.87C71.81 2377.36 48.83 2379.43 48.31 2367.66C48.11 2362.93 55.69 2361.96 59.61 2362.43C72.35 2363.96 84.53 2369.27 96.98 2371.85M86.73 2359.03C87.08 2359.22 80.94 2360.13 80.39 2360.17C76.53 2360.48 72.68 2360.51 68.85 2360.32C58.58 2359.8 46.71 2359.33 37.25 2356C33.39 2354.64 29.24 2352.36 30.27 2348.32C31.86 2342.15 40.87 2342.73 46.13 2343.81C59.14 2346.47 70.77 2353.37 83.05 2357.62M73.07 2342.88C73.02 2343.77 69.1 2343.37 68.73 2343.35C63.22 2343.15 57.75 2342.32 52.37 2341.48C44.03 2340.19 34.93 2338.99 27.61 2335.36C23.52 2333.32 9.4 2320.9 22.29 2320.62C30.62 2320.44 38.83 2324.81 45.38 2328.39C51.36 2331.67 57.2 2335.12 63.15 2338.44M53.21 2320.79C52.24 2321.97 50.67 2321.48 48.92 2321.31C43.97 2320.84 39.23 2319.72 34.59 2318.31C23.43 2314.91 10.33 2310.44 2.77 2302.46C-1.12 2298.36 -1.84 2289.41 7.12 2289.27C11.72 2289.2 16.21 2291.72 19.85 2293.68C24.16 2296 28.03 2298.74 31.8 2301.64C37.66 2306.17 43.4 2310.79 49.39 2315.2M53.62 2314.36C53.84 2314.71 52.95 2313.79 52.69 2313.46C51.98 2312.57 51.37 2311.62 50.84 2310.64C49.7 2308.57 48.79 2306.39 48.02 2304.19C45.33 2296.57 43.01 2288.27 42.85 2280.18C42.8 2277.38 43.08 2272.55 47.4 2272.02C53.46 2271.29 53.59 2278.41 53.69 2281.74C54.03 2293.21 52.2 2304.56 54.5 2315.89M65.16 2325.21C62.82 2326.27 61.54 2316.09 61.49 2315.44C60.78 2306.33 61.89 2296.22 65.02 2287.29C65.74 2285.22 68.13 2277.27 72.25 2278.06C76.61 2278.89 75.78 2287.14 75.42 2289.74C73.61 2302.87 66.91 2315.05 68.72 2328.36M79.86 2338.8C80.31 2339.27 79.11 2337.75 78.88 2337.18C78.39 2335.96 78.01 2334.66 77.71 2333.39C76.92 2330.01 76.68 2326.49 76.62 2323.01C76.47 2313.27 77.35 2302.32 82.18 2293.11C83.77 2290.07 87.52 2284.77 92.32 2285.53C97.72 2286.38 95.2 2294.93 94.5 2297.86C91.14 2311.97 84.08 2325.23 83.54 2339.69M95.86 2354.65C95.51 2354.95 94.72 2353.47 94.67 2353.38C94.12 2352.35 93.74 2351.25 93.46 2350.13C92.31 2345.58 92.26 2340.82 92.34 2336.14C92.53 2323.78 93.4 2310.07 101.86 2299.17C104.34 2295.98 108.95 2291.02 113.96 2290.97C120.99 2290.89 117.39 2303.37 116.59 2306.24C112.44 2321.09 101.93 2335 100.08 2350.17M113.58 2365.39C112.64 2365.71 111.71 2363.59 111.55 2363.23C109.9 2359.77 109.6 2355.99 109.61 2352.23C109.67 2340.52 112.65 2327.7 118.45 2316.79C120.92 2312.13 125.47 2306.76 132.2 2307.36C139.46 2308 136.01 2316.54 134.71 2320.39C129.58 2335.59 121.09 2350.18 119.9 2366.02M138.66 2381.51C138.24 2381.81 136.32 2377.79 136.21 2377.54C133.97 2372.81 133.15 2367.77 133.11 2362.6C133.01 2349.82 136.07 2336.31 143.59 2324.79C145.88 2321.29 150.13 2314.41 155.89 2314.4C163.97 2314.38 160.24 2326.02 158.81 2329.63C152.61 2345.24 139.47 2360.22 140.58 2377.06M159.59 2387.62C158.91 2389.08 157.22 2381.38 157.22 2381.3C156.92 2376.82 157.34 2372.25 157.77 2367.75C158.76 2357.55 159.77 2346.25 165.44 2336.81C167.67 2333.1 171.84 2328.51 177.21 2328.14C183.66 2327.7 181.27 2336.33 180.32 2339.24C175.93 2352.71 165.77 2364.36 161.68 2377.97M178.71 2391.7C178.51 2392.24 177.61 2387.18 177.58 2386.6C177.45 2383.61 177.52 2380.6 177.71 2377.6C178.36 2367.59 180.13 2357.56 186.45 2348.63C188.23 2346.11 191.54 2341.39 195.58 2341.36C201.83 2341.31 201.32 2349.25 200.56 2352.54C197.71 2364.92 189.44 2375.42 183.49 2386.89M181.46 2394.4C179.07 2395.53 176.48 2399.06 174.67 2400.73C166.4 2408.38 159.65 2417.27 155.91 2427.07C154.37 2431.13 151.51 2445.97 162.43 2441.06C167.85 2438.62 170.59 2432.75 172.54 2428.22C177.09 2417.66 177.74 2400.52 188.97 2392.49" />
	<path id="yellow leaves" class="shp1" d="M1268.82 660.17C1269.03 660.1 1262.01 664.89 1260.8 665.74C1254.93 669.9 1249.32 674.62 1243.91 679.36C1227.81 693.47 1215.61 709.76 1205.28 728.45C1180.02 774.15 1169.33 827.92 1148.47 875.85C1140.88 893.26 1134.61 911.27 1125.97 928.21C1123.45 933.14 1120.59 937.76 1117.26 942.18C1115.35 944.71 1110.77 949.13 1110.77 949.13C1110.77 949.13 1118.17 944.01 1120.94 940.54C1126.05 934.13 1130.76 927.4 1135.84 920.96C1151.45 901.23 1163.05 883.63 1172.66 860.18C1189.72 818.61 1200.5 775 1217.73 733.54C1228.41 707.82 1240.82 682.36 1263.61 665.28M1131.88 922.57C1132.02 922.81 1130.44 925.2 1130.32 925.48C1128.96 928.66 1128.13 931.97 1127.83 935.42C1126.95 945.55 1128.77 959.6 1136.11 967.46C1136.63 968.02 1136.93 963.45 1136.94 963.24C1137.12 960.24 1137.28 957.24 1137.35 954.24C1137.55 945.21 1136.46 934.99 1132.36 926.78M1140.72 908.23C1139.69 907.01 1139.85 911.32 1139.46 912.87C1138.62 916.24 1138.12 919.74 1137.89 923.2C1137.24 933.02 1139.74 942.76 1143.9 951.61C1144.62 953.14 1146.36 958.54 1148.12 959.32C1148.59 959.53 1148.93 955.99 1148.93 955.97C1149.31 952.68 1149.52 949.37 1149.71 946.05C1150.39 934.21 1149.77 922.49 1143.52 912.07M1151.68 892.91C1151.75 893.01 1150.34 899.42 1150.35 900.1C1150.53 906.97 1151.54 914.27 1154.22 920.63C1155.47 923.59 1165.93 944.04 1165.19 931.77C1165.11 930.38 1164.99 928.99 1164.83 927.61C1164.62 925.73 1164.33 923.86 1163.95 922.01C1161.96 912.15 1157.25 903.82 1152.82 894.98M1161.71 873.43C1161.41 872.84 1160.56 877.89 1160.51 878.34C1160.08 882.59 1160.15 887.05 1160.82 891.27C1162.69 903.06 1169.24 913.12 1176.96 921.96C1177.65 922.75 1183.22 929.21 1184.99 928.68C1185.38 928.56 1184.76 925.29 1184.72 925.03C1184.29 921.49 1183.88 917.96 1183.21 914.46C1180.88 902.45 1173.94 883.38 1160.13 879.93M1168.99 858.11C1169.15 858.3 1168.66 865.62 1168.82 866.57C1169.99 873.35 1173.13 879.98 1176.58 885.86C1178.81 889.67 1181.42 893.16 1184.3 896.5C1188.16 900.98 1192.28 905.1 1196.95 908.74C1197.08 908.84 1200.34 911.43 1200.39 911.38C1201.41 910.19 1199.8 905.12 1199.54 904.02C1199.18 902.57 1198.78 901.1 1198.33 899.68C1197.49 897.04 1196.51 894.44 1195.38 891.92C1189.75 879.25 1180.88 868.7 1169.18 861.25M1178.32 831.39C1178.3 830.7 1177.45 833.36 1177.44 833.44C1177.17 835.28 1177.04 837.15 1177.13 839.01C1177.35 843.64 1178.48 848.37 1180.31 852.61C1186.51 866.97 1200.24 877.22 1212.42 886.29C1215.5 888.58 1218.58 890.89 1221.68 893.15C1221.99 893.37 1223.68 894.78 1224.15 894.24C1224.84 893.44 1223.68 890.93 1223.46 890.21C1221.99 885.4 1219.77 880.74 1217.53 876.25C1209.74 860.67 1197.87 840.85 1180.17 835.29M1187.65 804.34C1187.41 803.89 1187.33 806.98 1187.34 807.12C1187.48 808.72 1187.76 810.34 1188.09 811.91C1189 816.17 1190.52 820.42 1192.2 824.44C1198.76 840.12 1211.73 851.86 1225.57 861.23C1228.84 863.44 1232.2 865.53 1235.66 867.42C1235.96 867.58 1238.76 869.43 1239.06 868.89C1239.49 868.11 1237.99 865.26 1237.73 864.55C1235.97 859.84 1233.87 855.25 1231.53 850.81C1222.41 833.51 1209.36 819.15 1192.27 809.65M1199.11 774.53C1197.53 774.7 1197.99 779.26 1198.04 780.2C1198.41 786.65 1201.01 792.71 1204.14 798.28C1212.34 812.91 1224.44 825.49 1238.58 834.45C1242.58 836.99 1248.43 841.08 1253.27 841.79C1255.27 842.08 1252.58 834.74 1252.42 834.24C1250.28 827.45 1247.59 820.84 1244.07 814.64C1234.69 798.16 1219.8 781.72 1201.39 776.12M1206.81 748.81C1207.2 751.33 1206.59 753.86 1207.18 756.45C1209.45 766.39 1216.4 775.22 1223.32 782.37C1228.48 787.68 1234.28 792.35 1240.08 796.93C1246.65 802.12 1253.44 807.08 1260.81 811.07C1261.51 811.45 1265.67 814.37 1266.63 814.01C1267.11 813.83 1263.92 806.3 1263.79 805.98C1262.79 803.62 1261.73 801.29 1260.6 798.99C1258.63 795 1256.46 791.09 1254.19 787.27C1244.52 771.07 1230.06 754.45 1210.86 749.83M1220.1 721.02C1218.7 721.27 1218.81 724.88 1218.81 725.77C1218.78 731.83 1221.36 737.18 1224.79 742.06C1234.22 755.48 1246.83 766.81 1260.46 775.8C1264.7 778.6 1269.49 782.34 1274.4 783.92C1277.4 784.88 1274.48 779.5 1274.13 778.69C1271.43 772.33 1267.82 766.29 1264.09 760.5C1254.25 745.19 1240.11 727.91 1221.86 722.54M1237.11 695.53C1235.35 694.27 1235.2 696.9 1235.14 698.25C1234.96 702.37 1236.15 706.54 1237.56 710.37C1242.96 725.02 1254.89 737.04 1266.9 746.61C1269.67 748.81 1272.53 750.99 1275.66 752.68C1275.91 752.81 1278.42 754.29 1278.69 754.13C1279.02 753.93 1277.72 750.83 1277.62 750.56C1276.14 746.56 1274.33 742.67 1272.51 738.82C1264.53 722.01 1255.41 706.27 1238.99 696.72M1253.46 677.89C1253.06 675.28 1250.99 678.84 1251.17 680.48C1251.64 684.84 1253.72 689.09 1255.58 692.98C1260.74 703.77 1267.28 713.34 1276.33 721.22C1279.08 723.63 1281.96 725.89 1284.84 728.15C1285.1 728.36 1287.67 730.59 1288.18 730.14C1288.75 729.62 1287.93 727.45 1287.8 726.95C1286.76 723.12 1285.48 719.38 1284.07 715.67C1277.64 698.75 1269.16 686.42 1253.16 678.06M1250.01 676.61C1250.57 676.31 1248.77 676.92 1248.14 676.95C1246.97 677 1245.81 676.99 1244.64 676.89C1241.01 676.58 1237.07 675.73 1233.76 674.15C1223.89 669.41 1216.32 659.32 1209.89 650.77C1209.66 650.46 1204.31 642.2 1205.46 641.74C1206.04 641.51 1208.35 642.77 1208.92 642.96C1212.16 644.05 1215.37 645.18 1218.53 646.49C1232.2 652.16 1245.16 667.11 1250.66 680.86M1236.85 686.43C1240.34 685.97 1235.57 683.37 1234.66 683.02C1230.74 681.5 1226.34 680.52 1222.18 680C1210.84 678.6 1200.25 681.55 1190.42 687.08C1187.03 688.99 1183.87 691.11 1181.03 693.78C1180.89 693.92 1178.22 696.19 1178.34 696.43C1178.53 696.82 1181.6 696.89 1181.89 696.91C1185.52 697.15 1189.25 696.94 1192.88 696.72C1207.51 695.86 1221.78 693.93 1234.24 685.92M1224.24 701.27C1225.28 701.28 1218.67 700.12 1217.71 700.18C1213.64 700.41 1209.61 701.39 1205.71 702.54C1191.37 706.77 1178.98 713.79 1169.03 725.04C1168.04 726.16 1161.41 732.83 1162.4 734.6C1162.97 735.61 1166.1 734.43 1166.72 734.28C1171.26 733.13 1175.71 731.66 1180.11 730.06C1192.18 725.68 1203.42 719.9 1213.44 711.84C1216.3 709.53 1221.75 706.13 1223.48 702.68M1208.52 729.33C1192.47 728.27 1172.21 739 1160.8 751.05C1155.5 756.65 1150.48 762.76 1146.31 769.26C1146.16 769.51 1143.01 774.49 1143.78 774.76C1145.65 775.4 1149.82 772.88 1151.45 772.22C1153.72 771.29 1155.93 770.26 1158.11 769.14C1161.12 767.6 1164.06 765.93 1166.97 764.18C1171.88 761.22 1176.68 758.11 1181.36 754.79C1189.34 749.14 1198.67 742.69 1203.28 733.71M1195.3 759.09C1195.81 757.43 1190.21 760.16 1190 760.25C1185.7 762.24 1181.62 764.82 1177.69 767.47C1165.29 775.8 1153.75 786.05 1145.15 798.34C1144.61 799.11 1138.44 807.87 1139.98 809.41C1140.44 809.88 1142.75 808.61 1143.09 808.46C1146.86 806.76 1150.44 804.74 1153.8 802.33C1167.55 792.46 1179.06 779.81 1189.1 766.26M1181.24 798.07C1181.83 798.22 1179.83 798.14 1179.43 798.25C1177.63 798.71 1175.92 799.4 1174.2 800.1C1170.44 801.62 1166.93 803.49 1163.42 805.52C1149.72 813.41 1137.02 822.65 1127.13 835.14C1124.81 838.07 1122.44 841.1 1121.16 844.66C1121.12 844.77 1120.25 847.27 1120.59 847.43C1121.35 847.77 1124.5 845.93 1125.15 845.65C1128.96 844.02 1132.7 842.25 1136.29 840.19C1152.75 830.79 1166.13 818.16 1176.81 802.58M1171.08 831.35C1171.53 831.06 1165.56 832.46 1164.85 832.75C1160.37 834.6 1156.05 836.85 1151.87 839.28C1137.68 847.52 1125.26 858.08 1114.52 870.44C1112.04 873.3 1109.29 876.19 1107.48 879.54C1107.2 880.06 1106.1 882.07 1106.75 882.77C1107.43 883.5 1110.15 882.32 1110.82 882.1C1115.05 880.74 1119.21 879.09 1123.11 876.93C1139.55 867.82 1154.24 854.2 1164.71 838.59M1154.09 868.88C1154.18 868.98 1152.55 869.54 1152.38 869.61C1151.19 870.13 1150.02 870.68 1148.85 871.24C1145.02 873.08 1141.26 875.07 1137.63 877.27C1125.16 884.79 1113.2 894.09 1103.79 905.26C1101.48 908.01 1099.31 910.91 1097.45 913.98C1097.2 914.37 1095.71 916.37 1096.12 916.97C1096.56 917.63 1099.28 916.61 1099.73 916.46C1104.2 914.92 1108.51 912.46 1112.52 910.01C1126.49 901.49 1140.47 890.57 1148.65 876.13M1142.94 899.1C1143.39 899.47 1141.76 898.99 1141.2 899.16C1140.19 899.45 1139.35 899.77 1138.38 900.19C1135.32 901.51 1132.38 903.1 1129.5 904.76C1118.78 910.96 1109.17 918.73 1101.13 928.15C1099.13 930.5 1097.08 932.83 1095.27 935.33C1095.13 935.52 1093.83 937.04 1094.2 937.45C1094.44 937.71 1095.97 936.77 1096.08 936.71C1098.86 935.32 1101.63 933.94 1104.34 932.42C1116.15 925.81 1127.39 916.43 1135.59 905.63M1132.8 919.32C1132.86 919.41 1131.51 919.88 1131.47 919.9C1130.41 920.38 1129.39 920.95 1128.38 921.54C1125.43 923.29 1122.57 925.24 1119.79 927.25C1110.73 933.8 1102.76 941.83 1096.47 951.1C1095.86 951.99 1090.98 958.78 1092.64 960.24C1093.1 960.64 1094.52 959.03 1094.72 958.86C1096.83 957.04 1099.04 955.34 1101.17 953.54C1110.38 945.75 1118.69 937.04 1125.49 927.07M1123.15 936.4C1119.43 941.73 1115.69 946.79 1112.74 952.78C1110.8 956.71 1109.09 960.7 1107.88 964.92C1107.29 966.98 1106.8 969.06 1106.32 971.15C1105.92 972.91 1105.55 974.67 1105.21 976.43C1105.09 977.06 1104.83 978.42 1104.75 979.09C1103.69 987.41 1111.28 971.88 1112.26 970.12C1117.4 960.91 1122.31 950.17 1122.85 939.46M3945.08 4.63C3944.29 4.69 3953.56 14.02 3954.83 15.4C3961.21 22.3 3966.44 29.94 3971.53 37.61C3986.46 60.13 4001.61 83.91 4025.34 100.29C4033.39 105.85 4042.3 110.35 4051.58 114.09C4055.37 115.61 4063.91 117.05 4066.9 119.68C4068.39 120.99 4063.01 118.22 4061.23 117.22C4057.22 114.98 4053.65 112.11 4050.05 109.4C4040.47 102.2 4029.79 95.09 4021.55 86.67C3995.51 60.07 3977.68 29.63 3947.51 6.02M3948.44 9.5C3942.78 16.95 3941.34 27.85 3942.27 36.49C3942.51 38.71 3942.95 40.9 3943.59 43.06C3943.95 44.31 3944.22 45.1 3944.72 46.29C3944.88 46.69 3945.66 48.4 3945.87 48.8C3950.07 56.99 3950.82 40.53 3951.08 38.01C3951.42 34.6 3951.55 31.18 3951.19 27.76C3950.62 22.39 3949.22 17.06 3947.46 11.91M3959.06 16.66C3956.79 17.92 3955.91 23.02 3955.55 24.97C3953.91 33.89 3955.21 43.97 3957.2 52.77C3957.9 55.85 3961.7 71.5 3962.89 60.95C3963.01 59.91 3963.1 59.05 3963.19 57.99C3963.35 55.97 3963.44 53.94 3963.45 51.91C3963.46 48.01 3963.33 44.11 3963.04 40.22C3962.58 34.16 3961.59 28.34 3959.61 22.54M3971.24 35.21C3971.32 35.26 3969.85 38.3 3969.77 38.58C3969.22 40.56 3968.88 42.59 3968.6 44.61C3967.4 53.46 3967.87 62.54 3970.14 71.23C3970.37 72.12 3971.53 78.55 3973.33 78.55C3973.75 78.55 3973.95 76.71 3973.98 76.56C3974.56 73.74 3974.85 70.89 3975.08 68.03C3975.88 58.02 3975 47.81 3971.83 38.13M3983.51 50.29C3981.77 51.63 3981.28 55.81 3980.84 57.64C3978.97 65.4 3979.14 73.76 3980.32 81.6C3980.74 84.34 3983.95 99.3 3986.13 89.14C3986.31 88.31 3986.53 87.07 3986.67 86.25C3986.96 84.44 3987.21 82.62 3987.37 80.8C3987.69 77.17 3987.77 73.53 3987.61 69.9C3987.36 64.05 3986.12 58.18 3983.55 52.75M3996.87 68.87C3996.79 68.67 3995.25 72.57 3995.14 73C3994.51 75.41 3994.1 77.85 3993.92 80.33C3993.23 89.74 3994.38 99.28 3998.39 108.08C3998.7 108.77 4001.44 115.12 4003.02 114.97C4003.44 114.93 4003.4 113.27 4003.41 113.14C4003.62 110.4 4003.76 107.64 4003.84 104.9C4004.13 94.37 4001.17 83.72 3997.01 73.9M4010.39 84.82C4010.03 84.44 4009 88.05 4008.99 88.1C4008.38 91.67 4008.61 95.46 4008.94 99.04C4009.76 107.9 4012.91 116.56 4018.36 124.08C4019.21 125.25 4022.48 130.98 4024.5 131.07C4025.26 131.1 4025.44 128.95 4025.48 128.7C4025.9 125.93 4025.82 123.14 4025.61 120.36C4024.71 108.63 4020.54 96.22 4012.8 86.53M4029.03 99.21C4028.03 97.56 4028.06 103.44 4028.08 103.56C4028.52 107.12 4029.54 110.71 4030.65 114.15C4033.32 122.39 4037.67 130.13 4044.4 136.39C4045.82 137.71 4049.02 140.93 4051.44 141.09C4051.67 141.1 4050.99 138.48 4050.98 138.44C4050.27 135.81 4049.31 133.22 4048.33 130.66C4044.54 120.82 4039.12 111.63 4032.38 103.12M4047.42 110.37C4046.11 109.9 4046.32 112.36 4046.44 112.98C4047.04 116.16 4049.19 119.37 4050.98 122.12C4055.18 128.57 4060.63 134.87 4067.11 139.69C4068.23 140.52 4071.4 143.25 4073.22 142.98C4073.45 142.95 4072.58 141.04 4072.51 140.89C4071.63 138.86 4070.71 136.84 4069.58 134.9C4064.92 126.9 4058 119.29 4050.37 113.35M4052.88 112.22C4051.35 110.93 4058.53 116.13 4059.34 116.65C4066.4 121.19 4073.84 125.26 4082.06 127.93C4082.29 128 4089 129.76 4089 129.66C4089 127.92 4081.71 123.75 4080.45 122.92C4071.67 117.11 4062.27 113.02 4051.59 110.82M4037.22 102.44C4036.93 101.51 4039.18 103.34 4040.2 103.7C4042.34 104.45 4044.58 104.94 4046.83 105.39C4054.17 106.86 4061.57 107.85 4069.12 107.61C4069.66 107.59 4075.33 107.76 4075.63 106.97C4075.74 106.67 4074.18 105.93 4074.01 105.83C4071.51 104.28 4068.99 102.79 4066.28 101.53C4056.97 97.2 4044.97 93.66 4034.9 98.09M4006.43 73.48C4006.25 73.35 4006.09 73.23 4005.92 73.09M4001.09 69.57C3999.74 69.53 4001.94 71.82 4002.02 71.9C4004.63 74.33 4007.78 76.33 4011.07 77.98C4020.11 82.51 4030.6 85.42 4041.11 84.39C4044.65 84.05 4047.9 83.13 4051.15 81.91C4051.3 81.85 4053.93 80.98 4053.89 80.9C4052.83 78.41 4042.74 76.59 4040.56 76C4028.04 72.6 4015.4 70.31 4002.28 69.99M3989.2 54.31C3987.37 55.26 3991.09 57.4 3991.8 57.83C3995.95 60.36 4000.76 62.25 4005.49 63.74C4017.3 67.46 4032.11 66.53 4044.03 63.27C4046.29 62.65 4042.27 61.22 4041.56 60.9C4037.53 59.07 4033.23 57.57 4028.91 56.36C4018.43 53.43 4005.85 52.13 3994.92 53.98M3976 38.38C3974.9 40.57 3985.28 43.79 3986.54 44.13C3997.23 47.07 4009.21 47.76 4020.29 46.44C4023.58 46.04 4026.77 45.32 4030.01 44.71C4030.11 44.69 4032.6 44.36 4032.6 44.25C4032.6 43.85 4029.92 43.06 4029.69 42.98C4025.66 41.53 4021.49 40.39 4017.32 39.3C4006.34 36.43 3984.46 30.99 3974.22 40M3968.19 25C3967.43 26.01 3969.6 27.04 3970.37 27.39C3973.33 28.72 3976.76 29.4 3979.99 30C3988.45 31.57 3997.37 31.98 4005.92 30.81C4010.47 30.19 4020.43 27.83 4010.98 26.11C4010.03 25.94 4008.44 25.69 4007.51 25.54C4004.99 25.14 4002.46 24.75 3999.93 24.4C3995.59 23.8 3991.21 23.3 3986.81 23.27C3980.22 23.23 3973.31 22.8 3966.97 24.58M3955.19 13.23C3954.07 12.99 3958.27 14.84 3958.57 14.93C3961.81 15.91 3965.14 16.6 3968.51 17.13C3977.47 18.54 3986.74 18.51 3995.7 17.15C3996.78 16.98 4002.89 16.34 4003.3 14.9C4003.43 14.45 4001.44 14.05 4001.15 13.97C3998.08 13.1 3995.03 12.16 3991.97 11.26C3982.73 8.52 3966.57 8.57 3957.37 12.2M3947.51 6.63C3951.47 6.93 3956.74 9.16 3961.74 8.45C3964.91 7.99 3968.08 6.93 3971.05 5.89C3972.95 5.22 3974.8 4.45 3976.63 3.65C3980.3 2.05 3983.77 0.6 3979.8 0.35C3979.06 0.3 3978.31 0.25 3977.56 0.2C3976 0.11 3974.43 0.07 3972.87 0.04C3966.62 -0.06 3951.84 -0.14 3947.63 5.22M2610.63 2601.59C2609.09 2600.37 2614.94 2602.2 2615.23 2602.34C2618.47 2603.9 2621.6 2605.71 2624.37 2608.03C2632.54 2614.86 2639.4 2623.8 2645.32 2632.75C2664.21 2661.32 2673.53 2695.12 2680.5 2729.29C2682.82 2740.66 2685.39 2751.74 2688.74 2762.76C2689.89 2766.54 2691.02 2770.34 2692.03 2774.18C2692.45 2775.78 2694.01 2780.24 2692.9 2779.09C2690.36 2776.44 2689.46 2768.77 2688.24 2765.3C2684.19 2753.82 2679.63 2742.56 2675.55 2731.08C2658.69 2683.59 2647.47 2627.55 2604.38 2597.59M2626.52 2613.66C2629.36 2612.23 2631.26 2608.96 2634.47 2607.52C2645.67 2602.53 2659.53 2606.87 2669.55 2611.39C2671.48 2612.25 2681.09 2616.22 2681.13 2619.23C2681.13 2620.02 2669.32 2619.19 2668.44 2619.16C2654.51 2618.78 2640.69 2620.19 2628.22 2613.55M2637.76 2626.8C2637.7 2626.78 2642.25 2625.16 2642.86 2625.05C2646.29 2624.47 2649.66 2624.46 2653.05 2624.86C2664.84 2626.24 2677.32 2630.32 2686.53 2637.74C2686.99 2638.12 2695 2645.27 2694.24 2646.01C2693 2647.21 2683.41 2643.86 2682.19 2643.58C2669.38 2640.62 2657.25 2636.22 2645.86 2629.79M2648.76 2645.17C2651.99 2641.71 2661.34 2645.56 2664.76 2646.55C2678.27 2650.44 2689.39 2656.54 2699.29 2666.58C2701.14 2668.46 2702.89 2670.44 2704.61 2672.46C2705.66 2673.7 2706.38 2674.53 2707.29 2675.85C2712.83 2683.97 2698.37 2676.5 2696.07 2675.5C2693.36 2674.33 2690.73 2673.04 2688.1 2671.71C2683.46 2669.36 2678.95 2666.82 2674.61 2663.94C2666.84 2658.78 2659.32 2652.92 2652.55 2646.44M2656.94 2665.46C2656.72 2665.02 2662.47 2665.51 2662.7 2665.55C2667.46 2666.41 2671.8 2668.55 2676.01 2670.77C2688.12 2677.14 2701.42 2684.38 2710.25 2695.21C2711.68 2696.97 2717.29 2704.69 2715.71 2707.66C2715.45 2708.14 2710.86 2704.77 2710.49 2704.56C2707.49 2702.88 2704.43 2701.28 2701.43 2699.59C2686.83 2691.34 2671.6 2682.32 2660.3 2669.61M2667.98 2692.49C2684.16 2691.52 2698.96 2704.69 2709.78 2715.73C2712.28 2718.29 2714.59 2721.09 2716.63 2724.07C2717.32 2725.09 2718.42 2726.86 2719.05 2728.01C2719.77 2729.34 2722.68 2733.67 2722.14 2735.46C2722.07 2735.67 2719.56 2734.15 2719.39 2734.06C2717.96 2733.29 2716.51 2732.54 2715.08 2731.76C2710.6 2729.32 2706.17 2726.83 2701.88 2724.06C2697.59 2721.29 2693.48 2718.28 2689.46 2715.14C2681.59 2709.01 2674.73 2702.15 2668.94 2693.88M2677.24 2722.48C2689.07 2717.69 2707.55 2736.64 2714.58 2744.94C2715.19 2745.66 2723.62 2756.3 2721.23 2757.93C2720.2 2758.64 2717.43 2756.74 2716.68 2756.36C2712.53 2754.28 2708.42 2752.07 2704.52 2749.56C2700.93 2747.25 2697.51 2744.62 2694.24 2741.86C2689.26 2737.65 2685.11 2732.68 2681.09 2727.5M2683.48 2748.33C2685.21 2744.25 2696.49 2753.49 2697.69 2754.43C2704.54 2759.82 2712.11 2765.9 2716.83 2773.47C2719.06 2777.05 2720.61 2781.09 2721.2 2785.41C2721.25 2785.74 2721.74 2789.94 2721.09 2789.75C2716.93 2788.52 2711.96 2781.63 2709.01 2778.76C2705.73 2775.58 2702.54 2772.29 2699.5 2768.86C2695.31 2764.14 2691.34 2759.24 2687.67 2754.07M2689.26 2767.89C2691.7 2767.92 2693.48 2772.22 2694.3 2773.95C2697.89 2781.44 2699.92 2790.24 2700 2798.82C2700.02 2800.36 2699.97 2801.51 2699.88 2803.03C2699.81 2804.18 2699.74 2805.07 2699.61 2806.19C2698.61 2814.72 2696.03 2804.8 2694.78 2801.5C2694.01 2799.5 2693.31 2797.46 2692.7 2795.39C2691.59 2791.62 2690.68 2787.72 2690.07 2783.79C2689.21 2778.2 2689.29 2772.8 2690.18 2767.12M2684.5 2757.33C2684.47 2757.26 2685.47 2758.93 2685.58 2759.7C2685.94 2762.28 2685.9 2764.94 2685.86 2767.57C2685.74 2776.45 2685.23 2785.95 2681.62 2794.41C2681.4 2794.94 2678.21 2802.03 2677.35 2801.46C2676.88 2801.14 2676.98 2798.73 2676.94 2798.27C2676.67 2795.22 2676.57 2792.14 2676.6 2789.06C2676.7 2777.44 2677.72 2766.68 2683.92 2756.34M2678.88 2741.02C2679.98 2740.91 2680.26 2743.47 2680.37 2744.2C2680.9 2747.45 2680.73 2750.95 2680.45 2754.27C2679.72 2762.97 2677.77 2771.73 2674.77 2780.06C2674.3 2781.38 2673.88 2782.42 2673.35 2783.72C2672.99 2784.57 2672.62 2785.43 2672.22 2786.27C2668.55 2793.93 2669.3 2782.52 2669.19 2779.45C2669.09 2776.95 2669.07 2774.44 2669.13 2771.93C2669.24 2767.56 2669.55 2763.18 2670.23 2758.83C2671.44 2751.08 2674.03 2744.51 2680.27 2739.52M2675.16 2724.05C2676.01 2722.98 2675.44 2726.19 2675.41 2726.43C2675.03 2729.53 2674.38 2732.63 2673.63 2735.68C2671.38 2744.78 2667.34 2753.54 2662.22 2761.46C2660.82 2763.62 2659.18 2765.57 2657.61 2767.6C2657.6 2767.61 2656.62 2769.01 2656.55 2768.97C2656.49 2768.93 2656.93 2766.58 2656.94 2766.52C2657.34 2763.36 2657.91 2760.18 2658.58 2757.05C2660.97 2745.84 2664.88 2731.47 2673.73 2723.29M2667.68 2703.79C2669.96 2706.48 2667.36 2714.08 2666.65 2717.1C2664.25 2727.24 2660.94 2738.13 2655.8 2747.34C2654.84 2749.06 2653.76 2750.73 2652.66 2752.35C2652.12 2753.13 2651.6 2753.84 2651.03 2754.58C2645.79 2761.34 2648.16 2751.18 2648.58 2747.62C2648.93 2744.7 2649.29 2741.78 2649.71 2738.86C2650.44 2733.72 2651.44 2728.64 2653.19 2723.68C2655.66 2716.67 2659.28 2710.02 2663.95 2704.21M2659.26 2679C2659.15 2678.34 2659.63 2680.29 2659.72 2680.95C2659.93 2682.39 2659.93 2683.84 2659.89 2685.31C2659.81 2689.01 2659.42 2692.71 2658.88 2696.4C2657.34 2706.88 2653.56 2715.57 2648.02 2724.64C2647.12 2726.11 2644.84 2731.31 2643.01 2731.98C2642.63 2732.12 2643.33 2727.43 2643.36 2727.26C2643.86 2723.85 2644.32 2720.43 2644.84 2717.02C2647.07 2702.53 2651.7 2690.52 2660.39 2678.58M2654.52 2665.44C2654.89 2665.1 2654.59 2669.53 2654.58 2669.63C2654.06 2672.83 2653.24 2675.99 2652.27 2679.1C2649.18 2689.01 2644.99 2698.73 2639.19 2707.43C2637.1 2710.57 2634.72 2713.45 2632.08 2716.12C2631.95 2716.25 2630.21 2718.15 2629.95 2717.82C2629.57 2717.34 2630.47 2715.04 2630.61 2714.59C2631.61 2711.08 2632.88 2707.61 2634.15 2704.18C2639.17 2690.63 2645.03 2677.21 2653.45 2665.35M2646.78 2645.74C2646.81 2645.7 2647.19 2647.58 2647.19 2647.59C2647.3 2648.91 2647.32 2650.23 2647.24 2651.56C2647.04 2654.88 2646.61 2658.21 2645.84 2661.48C2643.14 2673.06 2638.17 2684.38 2632.23 2694.76C2630.53 2697.74 2628.75 2700.7 2626.75 2703.49C2626.74 2703.5 2624.95 2706.04 2624.72 2705.77C2624.38 2705.37 2624.95 2702.97 2625 2702.56C2625.48 2698.46 2626.21 2694.35 2627.05 2690.29C2629.06 2680.58 2632.41 2671.11 2636.27 2661.91C2638.59 2656.36 2640.91 2650.32 2644.98 2645.76M2635.76 2628.1C2636.36 2627.46 2636.79 2632.85 2636.79 2632.91C2636.89 2637.08 2636.54 2641.37 2636.02 2645.55C2634.57 2657.29 2630.38 2668.37 2624.24 2678.61C2623.05 2680.58 2619.9 2687.6 2617.4 2688.23C2617.3 2688.26 2617.63 2686.43 2617.65 2686.33C2617.89 2684.88 2618.12 2683.42 2618.33 2681.97C2618.99 2677.34 2619.81 2672.73 2620.71 2668.13C2623.25 2655.11 2625.58 2638.43 2633.99 2627.36M2624 2612.47C2625.04 2612.17 2625 2615.21 2625.02 2615.7C2625.18 2619.63 2624.53 2623.61 2623.7 2627.49C2621.72 2636.74 2618.75 2646.31 2614.69 2654.95C2613.96 2656.52 2613.2 2657.93 2612.34 2659.42C2612.02 2659.98 2611.69 2660.53 2611.35 2661.08C2611.07 2661.52 2610.79 2661.95 2610.51 2662.38C2606.37 2668.63 2609.6 2655.5 2609.87 2653.8C2610.24 2651.43 2610.6 2649.06 2611.02 2646.7C2611.81 2642.13 2612.83 2637.6 2614.09 2633.12C2616 2626.31 2618.39 2620.52 2622.61 2614.85M2615.76 2605.34C2616.05 2605.38 2616 2607.49 2616 2607.68C2615.97 2610.8 2615.18 2613.96 2614.33 2616.99C2612.16 2624.68 2609.74 2632.68 2606.13 2639.87C2605.47 2641.19 2604.6 2642.67 2603.79 2643.92C2603.36 2644.59 2602.48 2645.81 2601.97 2646.49C2597.05 2653.03 2600.47 2641.07 2600.92 2639.02C2601.38 2636.88 2601.93 2634.75 2602.45 2632.62C2603.37 2628.86 2604.22 2625.08 2605.24 2621.35C2606.82 2615.58 2609.01 2608.7 2613.2 2604.18M2614.73 2602.92C2614.89 2603 2616 2601.29 2616.11 2601.18C2617.19 2600.08 2618.42 2599.09 2619.67 2598.21C2623.82 2595.29 2628.55 2593.73 2633.4 2593.52C2636.95 2593.37 2640.39 2594.14 2643.72 2595.1C2645.17 2595.52 2646.57 2596 2647.95 2596.6C2648.5 2596.84 2650.1 2596.99 2649.57 2597.35C2647.87 2598.51 2643.81 2598.86 2641.86 2599.51C2633.76 2602.19 2624.25 2606.3 2616.56 2601.69" />
	<path id="dark blue leaves" class="shp2" d="M3427.37 1240.68C3426.67 1241.73 3424.22 1235.27 3424.07 1234.88C3421.73 1228.7 3420.72 1221.96 3420.41 1215.38C3419.55 1196.64 3422.37 1176.25 3428.31 1158.45C3428.57 1157.65 3439.36 1134.99 3439.39 1135.02C3444.01 1139.64 3437.6 1152.14 3446.09 1158.03C3452.59 1162.54 3462.14 1159.73 3463.91 1151.75C3465.31 1145.48 3463.55 1138.16 3459.78 1133.04C3457.7 1130.21 3450.88 1129.65 3451.73 1126.24C3452.5 1123.18 3457.97 1118.56 3459.84 1116.25C3462.34 1113.16 3464.92 1110.11 3467.47 1107.05C3471.18 1102.61 3475 1098.28 3478.87 1093.98C3483.3 1089.06 3488.25 1081.93 3494.24 1078.66C3496.36 1077.51 3494.35 1083.48 3494.61 1085.88C3495.07 1090.21 3496.64 1094.59 3499.16 1098.17C3503.85 1104.82 3514.77 1104.92 3520.44 1099.26C3527.47 1092.23 3523.55 1079.41 3518.76 1072.23C3517.76 1070.73 3512.01 1066.2 3512.23 1064.23C3512.54 1061.4 3521.99 1056.74 3524.04 1055.45C3538.15 1046.6 3553.72 1040.34 3569.59 1035.43C3571.92 1034.7 3585.21 1029.09 3587.47 1031.35C3590.06 1033.94 3584.06 1054.89 3583.44 1058.07C3580.06 1075.33 3574.39 1102.06 3562.94 1116.36C3561.52 1118.14 3555.56 1112.7 3553.32 1112.44C3546.12 1111.59 3540.34 1117.67 3537.69 1123.78C3535.31 1129.26 3534.15 1137.83 3540.57 1141.04C3544.28 1142.89 3549.3 1143.1 3553.38 1142.81C3554.12 1142.76 3559.05 1141.7 3558.87 1142.29C3552.63 1162.26 3529.8 1178.33 3513.69 1189.92C3512.79 1190.57 3497.11 1203.25 3496.65 1202.78C3490.27 1196.41 3487.92 1178.73 3472.33 1189.03C3466.32 1193.01 3470.17 1202.56 3474.42 1206.39C3476.46 1208.21 3479.27 1209.44 3481.95 1209.89C3482.36 1209.96 3487.07 1210.19 3486.71 1210.73C3475.57 1227.43 3445.22 1236.8 3427.05 1242.1M1808.75 2426.11C1804.08 2422.14 1790.02 2422.79 1784.57 2422.79C1779.01 2422.79 1773.46 2423.07 1767.92 2423.46C1764.3 2423.71 1760.67 2424.02 1757.07 2424.48C1735.4 2427.28 1769.28 2451.91 1748.6 2458.46C1733.29 2463.31 1732.63 2443.13 1723.34 2440.47C1719.71 2439.43 1710.5 2446.23 1707.89 2447.8C1693.21 2456.65 1673.66 2474.8 1670.65 2492.86C1670.58 2493.24 1679.09 2496.05 1679.91 2496.49C1686.27 2499.86 1696.45 2506.65 1693.6 2515.33C1691.07 2523.03 1680.86 2525.67 1673.8 2526.11C1673.37 2526.13 1664.48 2525.83 1664.47 2525.86C1663.35 2528.1 1665.45 2537.21 1665.56 2539.61C1666.24 2554.62 1666.78 2573.88 1675.43 2586.85C1676.83 2588.95 1687.07 2580.34 1687.97 2579.7C1695.35 2574.5 1726.61 2558.8 1726.61 2547.67C1726.61 2545.41 1717.71 2539.5 1717.22 2534.46C1715.42 2515.98 1734.46 2520.56 1743.87 2527.74C1746.44 2529.7 1749.69 2536.33 1752.47 2533.55C1760.63 2525.4 1773.2 2513.52 1776.94 2502.31C1777.14 2501.72 1771.13 2498.13 1770.46 2497.4C1765.8 2492.35 1763.19 2486.46 1768.1 2480.38C1772.38 2475.07 1779.55 2471.79 1786.21 2474.69C1787.72 2475.35 1791.65 2480.34 1792.93 2480.02C1796.77 2479.06 1800.84 2469.54 1802.26 2466.7C1810.4 2450.4 1811.76 2437.15 1809.83 2419.76M304.41 1418.42C304.3 1420.41 300.82 1416.72 299.14 1415.68C296.4 1414 293.84 1412.03 291.31 1410.06C283 1403.54 271.72 1391.62 271.72 1380.11C271.72 1378.31 275.32 1380.53 277.08 1380.25C280.87 1379.65 287.18 1377.82 287.28 1373C287.58 1359.03 274.28 1368.4 269.21 1365.85C266.97 1364.72 265.87 1357.2 265.42 1355.21C263.39 1346.32 260.22 1332.87 263.23 1323.79C263.74 1322.27 282.67 1326.61 285.67 1315.96C289.16 1303.58 271.42 1308.55 269.92 1305.04C266.49 1296.99 272.78 1275.86 273.95 1267.47C274.19 1265.76 274.8 1255.43 277.27 1255.02C281.09 1254.38 291.65 1266.13 293.68 1268.32C299.93 1275.06 306.08 1282.19 310.95 1290.02C311.54 1290.98 316.23 1297.02 315.59 1298.46C312.66 1305.1 294.91 1304.31 301.75 1318.06C304.97 1324.55 313.81 1322.29 319.29 1320.78C319.89 1320.62 325.78 1317.96 325.98 1318.21C327.81 1320.41 328.19 1326.31 329.02 1329.08C330.19 1333.01 335.8 1347.47 333.29 1351.68C330.25 1356.77 315.22 1351.08 314.5 1362.32C313.97 1370.66 323.04 1371.18 329.11 1369.71C329.57 1369.6 334.61 1367.54 334.85 1367.95C335.93 1369.76 330.75 1379.28 330.01 1381.11C324.39 1394.97 314.58 1407.08 305.35 1418.69M3880.82 2346.69C3872.06 2346.5 3895.84 2326 3896.86 2325.35C3904.44 2320.44 3941 2295 3951.03 2300.57C3956.77 2303.76 3943.39 2311.36 3940.68 2317.35C3937.03 2325.41 3932.99 2344.59 3945.55 2347.78C3958.4 2351.04 3973.59 2337.18 3976.59 2325.61C3976.94 2324.25 3976.51 2309.54 3976.85 2309.44C3993.23 2304.76 4013.28 2306.92 4029.98 2307.7C4037.74 2308.06 4053.11 2310.48 4053.11 2310.48C4053.11 2310.48 4046.28 2316.64 4044.24 2320.65C4040.65 2327.71 4035.74 2344.88 4044.68 2350.39C4056.94 2357.95 4074.78 2338.96 4078.59 2329.26C4078.94 2328.38 4080.73 2317.3 4080.94 2317.26C4084.2 2316.72 4093.17 2327.08 4094.85 2328.91C4108.26 2343.51 4118.14 2359.98 4125.28 2378.38C4127.97 2385.31 4131.54 2399.77 4131.54 2399.77C4131.54 2399.77 4123.3 2399.77 4119.2 2400.12C4111.08 2400.81 4102.89 2401.91 4095.11 2404.38C4094.25 2404.65 4071.67 2416.77 4070.5 2415.6C4064.98 2410.07 4071.84 2393.71 4057.2 2389.25C4047.26 2386.23 4027.01 2409.27 4036.5 2415.6C4038.67 2417.04 4031.28 2415.78 4028.68 2415.68C4023.72 2415.5 4018.73 2415.16 4013.81 2414.47C3998.5 2412.31 3979 2407.98 3965.46 2399.86C3963.95 2398.95 3971.38 2377.07 3958.33 2372.39C3942.02 2366.53 3932.59 2383.28 3932.59 2396.38C3932.59 2402.25 3921.54 2392.3 3916.42 2389.43C3900.29 2380.37 3889.21 2365.98 3875.9 2353.69M2296.57 292.03C2296.61 291.95 2291.2 291.95 2290.61 291.89C2285.97 291.38 2281.32 290.66 2276.74 289.76C2264.32 287.31 2252.55 283.19 2241.03 277.99C2236.25 275.83 2231.5 273.62 2227.05 270.85C2224.68 269.38 2217.88 265.94 2220.63 265.49C2231.63 263.69 2259.27 253.79 2239.77 238.39C2233.16 233.17 2223.22 232.66 2215.58 235.54C2212.25 236.79 2210.77 244.95 2207.88 242.89C2192.66 232.01 2169.21 205 2162.79 187.39C2161.83 184.75 2168.19 189.09 2170.98 189.53C2176.7 190.44 2183.8 190.64 2188.49 186.66C2197.57 178.95 2194.83 160.94 2183.36 157.11C2176.41 154.78 2158.92 165.53 2157.33 164.7C2151.5 161.67 2135.22 111.68 2132.3 103.49C2131.56 101.44 2125.19 88.98 2127.5 86.48C2130.33 83.43 2153.88 95.07 2156.86 96.24C2162.87 98.62 2215.83 120.5 2217.42 125.55C2220.37 134.87 2205.54 148.21 2220.42 157.93C2227.45 162.52 2237.37 157.46 2242.2 151.9C2245.05 148.62 2244.74 136.37 2247.3 139.89C2262.99 161.48 2295.59 183.08 2300.64 210.61C2301.41 214.79 2277.72 219.67 2283.78 233.41C2291.29 250.45 2307.16 234.2 2311.15 236.27C2318.97 240.33 2312.67 287.24 2311.26 296.01" />
	<path id="orange flowers" class="shp3" d="M764.41 2871.79C763.79 2872.26 755.12 2864.3 754.62 2863.65C748.11 2855.07 742.63 2838.5 755.35 2832.57C784.97 2818.74 767.02 2861.92 778.86 2865.69C788.44 2868.74 792.3 2841.71 807.44 2846.66C836.46 2856.13 792.54 2875.41 791.37 2879.58C787.96 2891.76 816.31 2897.44 801.64 2911.06C793.05 2919.03 783.86 2914.99 779.58 2905.79C778.83 2904.17 776.62 2895.77 773.98 2895.91C761.37 2896.61 765.2 2922.86 747.51 2918.43C732.45 2914.67 757.7 2897.31 754.23 2892.09C750.85 2887.03 737.62 2891.28 732.3 2887.42C718.7 2877.57 730.93 2863.55 744.08 2863.25C750.47 2863.11 757.97 2868.72 764.04 2867.2M325.36 758.32C308.83 759.35 303.18 722.87 321.46 717.62C358.38 707.02 334.42 748.66 351.47 753.64C365.83 757.82 374.15 720.18 391.81 735.3C420.75 760.09 362.9 757.8 363.76 773.05C364.62 788.52 410.37 796.51 385.07 819.74C356.37 846.1 360.78 790.68 348.75 792.67C334.56 795.02 346.22 840.56 316.24 832.36C291.92 825.7 331.43 797.36 326.9 789.11C321.57 779.42 299.7 794.29 291.78 790.52C270.62 780.44 288.22 759.08 302.65 754.5C310.16 752.12 315.32 758.26 322.33 756.87M3648.53 2861.9C3638.43 2857 3645.4 2834.72 3656.09 2834.48C3673.63 2834.08 3658.86 2859.54 3665.8 2863.01C3675.39 2867.81 3684.27 2842.32 3695.65 2857.2C3710.2 2876.22 3674.92 2871.23 3673.72 2881.37C3672.57 2891.2 3699 2906.03 3682.97 2916.38C3665.7 2927.52 3668.46 2897.86 3658.6 2896.3C3650.6 2895.04 3643.42 2921.89 3633.7 2914.33C3619.08 2902.96 3645.46 2892.03 3642.68 2882.76C3640.25 2874.66 3626.56 2877.86 3621.48 2871.33C3615.79 2864.02 3618.72 2847.98 3630.53 2850.07C3638.4 2851.46 3641.29 2859.05 3647.57 2862.81M3360.75 370.69C3360.74 373.12 3356.05 369.25 3354.04 367.9C3349.45 364.79 3346.84 359.82 3346.32 354.32C3345.25 342.95 3354.87 330.86 3367.03 332.42C3385.3 334.76 3373.95 356.45 3384.51 360.34C3392.86 363.42 3415.99 328.88 3419.4 359.58C3421.2 375.78 3396.2 369.62 3397.76 380.54C3399.09 389.85 3425 395.7 3416.17 409.23C3403.8 428.2 3391.86 394.71 3384.85 397.51C3373.67 401.99 3381.25 424.3 3368.3 429.59C3349.29 437.37 3364.44 400.03 3363.47 398.96C3353.96 388.5 3335.5 411.35 3328.41 395.9C3316.45 369.8 3364.57 378.05 3361.09 369.34M934.82 1921.32C935.55 1911.48 927.81 1886.02 947.54 1887.01C959.1 1887.6 963.49 1902.49 959.91 1911.73C958.75 1914.74 952.87 1920.47 955.18 1924.09C957.47 1927.69 964.92 1925.04 967.89 1924.26C976.71 1921.96 983.77 1921.83 987.82 1931.43C988.84 1933.85 989.33 1936.16 988.76 1938.76C984.11 1959.79 964.01 1937.36 957.91 1947.17C951.03 1958.25 969.89 1983.87 948.05 1986.82C929.24 1989.36 942.35 1962.09 934.95 1957.13C924.68 1950.24 911.44 1981.85 900.94 1967.08C895.12 1958.88 903.61 1949.6 910.84 1946.49C912.97 1945.57 919.16 1943.83 919.16 1940.78C919.16 1932.91 902.85 1927.04 900.26 1918.55C895.8 1903.93 914.79 1890.29 926.59 1901C931.87 1905.8 929.12 1915.47 933.93 1920.31M1399.49 88.79C1397.17 89.79 1390.51 78.23 1389.9 76.69C1385.63 65.91 1395.53 49.33 1407.65 49C1419.2 48.69 1418.23 65.56 1416.81 72.81C1416.36 75.11 1414.5 80.26 1417.13 81.9C1420.65 84.1 1425.43 78.43 1427.16 76.18C1432.57 69.17 1438.59 63.32 1447.23 70.14C1464.51 83.75 1429.35 86.1 1429.01 92.61C1428.44 103.7 1458.37 105.96 1445.34 123.61C1430.56 143.63 1423.49 105.43 1416.02 106.22C1408.91 106.97 1403.45 125.09 1396.93 129.43C1393.92 131.43 1388.64 133.82 1386.11 129.84C1381.64 122.84 1390.32 115.57 1394.52 111.02C1395.76 109.67 1399.82 106.7 1398.31 104.51C1394.35 98.74 1362.7 113.07 1370.11 93.35C1372.61 86.69 1380.75 83.44 1387.4 84.76C1388.05 84.89 1401.04 89.45 1401.04 87.58M3233.88 1863.21C3224.8 1848.46 3217.21 1822.09 3242.07 1815.61C3279.9 1805.74 3244.95 1855.33 3259.77 1860.98C3265.93 1863.32 3303.97 1813.12 3305.98 1853.35C3307.13 1876.32 3274.7 1866.56 3272.85 1878.3C3270.3 1894.45 3299.88 1915.9 3279.63 1928.84C3250.7 1947.32 3258.85 1898.37 3248.38 1895.14C3234.56 1890.9 3217.51 1942.03 3201.21 1920.84C3186.87 1902.19 3218.54 1896.45 3218.54 1884.7C3218.54 1869.7 3186.03 1873.16 3192.65 1853.92C3200.4 1831.36 3232.23 1844.07 3235.86 1862.2M940.37 1926.22C946.29 1926.22 951.09 1931.05 951.09 1937C951.09 1942.95 946.29 1947.78 940.37 1947.78C934.45 1947.78 929.66 1942.95 929.66 1937C929.66 1931.05 934.45 1926.22 940.37 1926.22ZM345.34 761.62C352.25 761.62 357.84 767.22 357.84 774.12C357.84 781.03 352.25 786.62 345.34 786.62C338.44 786.62 332.84 781.03 332.84 774.12C332.84 767.22 338.44 761.62 345.34 761.62ZM1413.95 85.91C1418 85.91 1421.28 89.18 1421.28 93.22C1421.28 97.26 1418 100.53 1413.95 100.53C1409.91 100.53 1406.62 97.26 1406.62 93.22C1406.62 89.18 1409.91 85.91 1413.95 85.91ZM3379.55 364.62C3387.6 364.62 3394.12 371.15 3394.12 379.2C3394.12 387.25 3387.6 393.78 3379.55 393.78C3371.5 393.78 3364.97 387.25 3364.97 379.2C3364.97 371.15 3371.5 364.62 3379.55 364.62ZM3251.39 1861.06C3259.44 1861.06 3265.97 1867.59 3265.97 1875.64C3265.97 1883.69 3259.44 1890.22 3251.39 1890.22C3243.34 1890.22 3236.81 1883.69 3236.81 1875.64C3236.81 1867.59 3243.34 1861.06 3251.39 1861.06ZM3659.47 2865.53C3666.37 2865.53 3671.97 2871.12 3671.97 2878.02C3671.97 2884.91 3666.37 2890.5 3659.47 2890.5C3652.57 2890.5 3646.97 2884.91 3646.97 2878.02C3646.97 2871.12 3652.57 2865.53 3659.47 2865.53ZM776.61 2869.84C782.37 2869.84 787.03 2874.51 787.03 2880.27C787.03 2886.02 782.37 2890.69 776.61 2890.69C770.85 2890.69 766.19 2886.02 766.19 2880.27C766.19 2874.51 770.85 2869.84 776.61 2869.84Z" />
</svg>