<svg version="1.2" baseProfile="tiny-ps" xmlns="http://www.w3.org/2000/svg" viewBox="0 0 1073 1521" width="1073" height="1521">
	<title>Layer1</title>
	<style>
		tspan { white-space:pre }
		.shp0 { fill: #f79a8a } 
		.shp1 { fill: #d28176 } 
		.shp2 { fill: #739d9b } 
		.shp3 { fill: #cea167 } 
		.shp4 { fill: #b87e6d } 
		.shp5 { fill: #a7ccc9 } 
		.shp6 { fill: #a1a0a5 } 
	</style>
	<g id="Layer1">
		<path id="light brown leaf" class="shp0" d="M373.36 650.66C374.9 651.62 372.56 647.1 372.26 645.31C371.65 641.65 371.57 637.82 371.68 634.12C372.01 623.52 374.99 610.64 381.01 601.6C381.47 600.92 381.04 603.24 381.04 604.07C381.04 606.02 381.3 607.81 382.5 609.44C385.48 613.44 391.12 614.54 395.35 611.9C408.35 603.76 388.87 597.62 387.27 591.31C385.53 584.47 393.2 576.58 397.18 572.12C398.84 570.26 402.6 564.66 405.31 564.21C406.72 563.97 405.67 567.08 406.28 568.36C407.72 571.37 410.78 576.1 414.64 575.78C423.1 575.08 419.71 563.09 422.34 558.26C426.58 550.46 442.62 548.36 450.41 547.63C452.9 547.39 457.98 546.47 460.23 548.1C462.25 549.56 458.02 560.5 457.63 562.16C455.23 572.31 452.97 582.48 449.49 592.33C448.18 596.04 446.57 602.3 442.93 604.67C441.82 605.4 435.57 600.52 432.41 601.57C422.28 604.95 438.5 614.67 437.2 618.87C435.01 625.96 423.98 629.35 417.44 629.42C416.38 629.43 411.92 629.68 411.04 628.81C410.63 628.4 411.86 629.63 412.26 630.06C413.04 630.88 413.84 631.67 414.64 632.46C417.71 635.54 422.87 639.21 418.91 643.18C406.78 655.3 391.9 660.9 375.2 656.13" />
		<path id="dark brown leaf" class="shp1" d="M444.24 618.16C444.84 617.66 444.19 619.72 444.18 620.5C444.16 622.1 444.22 623.71 444.55 625.29C445.64 630.36 448.68 635.33 451.88 639.34C458.96 648.24 469.77 652.18 480.89 652.41C483.69 652.46 489.59 652.74 491.99 650.54C494.67 648.09 486.43 636.28 485.28 634.75C477.66 624.63 465.86 617.15 453.49 614.41C451.45 613.96 443.16 612.51 441.25 614.41" />
		<path id="dark green smileey and leaves" class="shp2" d="M196.03 689.91C195.54 690.7 206.94 695 207.65 695.29C218.15 699.59 229.77 704.17 240.55 698.27C247.03 694.72 251.78 688.16 255.9 682.2C264.76 669.4 271.63 652.98 285.55 644.71C297.56 637.57 329.19 638.43 333.46 656.93C333.63 657.64 317.92 651.33 316.75 650.93C306.95 647.59 295.98 650.96 287.25 655.87C264.93 668.42 259.95 697.96 234.32 707.51C221.52 712.28 210.09 712.05 197.92 705.32C194.81 703.6 185.87 698.76 188.53 693.78M213.03 699.96C213.44 700.16 211.64 698.6 211.55 698.53C210.17 697.44 209.18 696.11 208.36 694.55C205.8 689.63 204.34 683.69 204.27 678.16C204.09 664.92 211.12 653.46 220.1 644.28C221.95 642.39 226.43 636.36 229.35 636.03C229.75 635.99 230.15 639.73 230.18 639.91C231.05 645.2 232.08 650.47 232.7 655.8C234.66 672.92 230.3 694.24 214.32 703.71M252.96 688.15C248.3 688.73 242.39 679.13 240.64 675.61C234.32 662.91 234.33 646.74 238.84 633.52C239.12 632.69 243.72 621.77 245.01 622.06C245.7 622.21 247.19 625.84 247.5 626.37C250.49 631.41 253.04 636.67 255.17 642.12C257.54 648.18 259.25 654.38 259.71 660.89C260.31 669.33 258.73 677.03 255.86 684.91M275.63 660.18C260.73 653.51 262.16 628.81 265.47 615.64C266.58 611.2 268.54 607.14 270.78 603.18C271.1 602.63 272.8 598.78 273.77 598.78C274.89 598.78 275.84 601.95 276.18 602.68C278.51 607.64 280.7 612.55 282.27 617.82C283.47 621.85 284.31 626.02 284.46 630.22C284.71 637.08 283.59 643.64 281.19 650.04M298.34 646.31C297.85 646.99 294.66 641.6 294.59 641.43C292.71 636.77 292.43 631.52 293.4 626.62C295.94 613.83 304.07 601.76 313.99 593.46C316.25 591.58 323.29 585.81 326.81 586.77C329.07 587.38 327.21 600.24 327.09 601.46C325.47 617.89 317.53 632.9 303.64 641.99M319.82 641.31C319.71 641.42 319.62 641.48 319.48 641.56M316.67 644.03C313.05 644.67 322.31 634.77 322.58 634.51C331.19 626.02 341.86 616.87 354.6 616.77C355.78 616.76 364.7 616.38 365.37 617.71C365.94 618.85 359.03 626.4 358.34 627.26C349.89 637.87 338.23 645.63 324.43 646.94M204.73 702.72C202.69 700.81 201.05 704.81 200.75 706.31C199.86 710.79 200.42 715.89 201.42 720.29C204.7 734.78 218.19 744.83 232.06 748.46C234.58 749.13 243.22 751.3 245.82 749.32C248.35 747.4 243.11 738.53 242.11 736.92C235.26 725.95 225.74 718.32 215.12 711.24M233.12 702.39C226.67 704.85 238.43 714.79 240.61 716.27C247.12 720.71 254.51 724.56 262.54 724.83C264.08 724.88 265.44 724.79 266.96 724.63C278.29 723.45 272.04 717.76 265.14 712.59C262.96 710.96 260.61 709.57 258.19 708.33C253.07 705.72 247.77 703.78 242.11 702.77M256.07 685.28C256.45 685.93 256.18 688.69 256.55 689.7C258.16 694.13 261.84 697.37 265.61 700.03C269.38 702.69 273.78 704.61 278.23 705.81C280.74 706.49 283.33 706.87 285.93 707.03C287.95 707.16 290.04 707.13 292.07 706.97C304.75 706.02 297.57 698.24 291.27 692.83C283.63 686.27 274.34 680.91 263.89 681.98M276.4 663.28C271.53 666.5 280.57 674.68 283.02 677.47C289.03 684.31 296.04 690.57 304.64 693.94C314.12 697.65 318.19 694.12 313.61 685.27C312.32 682.8 310.92 680.45 309.37 678.13C306.45 673.78 303.14 669.53 299.24 666.01C293.92 661.21 286.96 658.87 280 657.6M305.07 653.13C305.84 651.92 306.41 656.73 306.66 657.4C307.98 660.99 309.73 664.43 311.7 667.7C316.09 675 325.98 693.99 337.55 691.47C339.58 691.03 338.14 681.52 338.02 680.54C336.59 669.25 329.34 657.66 321.05 650.1M609.52 580.88C609.28 581.84 610.66 579.26 611.21 578.44C612.13 577.05 612.96 575.6 613.79 574.15C616.27 569.79 618.32 565.24 620.38 560.67C627.4 545.17 635.76 534.38 651.91 527.81C655.85 526.21 659.8 524.87 664.01 524.22C664.77 524.11 667.12 523.38 667.83 523.91C668.62 524.5 666.42 527.99 666.17 528.51C663.89 533.25 661.44 537.92 658.72 542.42C647.47 561 631.28 577.58 609.15 581.6M616.59 585.13C627.01 597.15 637.62 603.42 654.33 604.72C655.94 604.84 667.6 606.11 668.6 603.76C668.89 603.05 667.16 601.28 666.81 600.83C664.42 597.7 662.3 594.52 659.4 591.8C647.01 580.15 630.89 581.36 615.66 584.88M617.23 583.86C617.19 583.38 618.96 582.14 619.33 581.8C621.96 579.31 624.66 576.89 627.39 574.52C634.85 568.05 644.1 562.06 653.96 560.19C657.12 559.58 660.41 559.41 663.62 559.57C665.36 559.66 667.15 559.87 668.85 560.25C669.76 560.46 670.51 560.73 671.39 561.04C674.38 562.11 675.07 563.38 672.41 565.13C671.66 565.62 670.91 566.11 670.16 566.6C666.03 569.32 661.85 571.97 657.45 574.22C652.47 576.77 647.23 578.88 641.86 580.41C633.97 582.64 625.49 583.88 617.3 583.27M12.85 450.25C12.92 450.06 12.93 449.88 12.96 449.68M11.95 437.39C9.24 445.52 27.27 464.05 31.8 469.39C61.3 504.13 102.3 513.87 144.21 491.44C172.71 476.18 181.29 447.7 175.26 417.55C173.31 407.83 164.32 391.74 169.07 381.9C176.68 366.13 186.87 397.98 187.8 402.76C194.21 435.81 184.01 471.76 158.89 495.03C127.5 524.12 69.94 523.13 35.63 501.78C21.37 492.91 4.82 476.06 1.32 458.99C-0.17 451.73 -0.19 437.79 10.21 437.79M60.06 383.19C59.54 384.02 51.05 384.28 48.67 388.09C44.06 395.46 53.55 408.14 62 406.02C75.57 402.63 71.05 388.16 60.48 384.99M92.9 373.22C86.15 370.35 81.97 390.9 92.48 394.72C106.6 399.86 110.92 377.89 96.3 373.02" />
		<path id="yellow leaf" class="shp3" d="M480.88 619.46C482.84 617.34 486.4 618.24 488.03 613.75C490.54 606.88 487.16 598.95 485.72 592.21C482.63 577.78 484.32 559.96 499.9 553.66C512.28 548.65 528.99 555.46 532.09 569.06C533.79 576.52 529.16 591.5 519.74 592.11C518.92 592.16 522.48 586.12 522.73 585.63C524.8 581.62 526.12 577.15 525.63 572.59C524.64 563.27 512.31 557.49 504.34 562.14C499.44 564.99 498.67 573.14 498.63 578.12C498.51 593.59 507.32 608.74 491.49 619.76C489.1 621.43 486.92 622.75 483.96 622.96M783.04 312.55C783.66 313.11 781.54 313.44 781.07 314.14C779.82 316.02 779.04 317.96 778.88 320.24C778.38 327.45 781.04 334.54 785.75 339.95C789.28 344 794.73 346.49 800.1 346.57C804.15 346.63 808.22 345.27 811.93 343.75C842.36 331.33 809.73 284.72 788 304.74C785.61 306.95 784.14 312.8 789 313.08C798.09 313.6 808.02 303.11 814.34 316.11C820.31 328.41 806.55 338.31 795.35 334.31C790.88 332.72 786.84 328.84 786.98 323.78C787.11 319.16 792.8 310.84 784.57 311.87" />
		<path id="brown smiley" class="shp4" d="M626.15 28.22C625.74 27.03 615.71 27.43 614.6 27.38C604.91 27 584.57 21.51 588.07 38.29C588.78 41.7 598.21 41.05 600.53 41.16C605.45 41.38 610.4 41.36 615.33 41.28C624.93 41.14 628.91 41.24 627.2 31M508 4.2C507.75 2.89 506.38 6.5 506.14 6.99C504.82 9.67 504.38 11.74 506.84 13.99C513.54 20.16 522.58 25.22 530.75 29.13C532.01 29.73 538.06 33.86 539.58 32.01C551.19 17.92 530.69 10.5 519.82 5.49C518.56 4.9 507.63 -1.06 506.49 0.31M475.65 90.78C476.89 88.51 481.03 89.53 482.84 89.74C490.16 90.61 497.46 91.72 504.71 93.08C534.93 98.76 565.02 105.08 595.2 110.94C602.77 112.41 610.3 113.99 617.79 115.87C620.93 116.65 626.01 117.01 625.2 121.28C623.46 130.42 616.4 138.91 611.17 146.21C597.93 164.69 584.24 178.19 561.56 183.7C545.66 187.56 529.14 183.93 513.87 179.15C506.37 176.8 498.28 173.95 492.59 168.27C485.47 161.15 483.93 151.87 480.93 142.66C478.39 134.87 474.8 126.91 474.87 118.56C474.91 114.1 475.96 109.38 478.21 105.5C478.52 104.96 480.13 101.78 481.25 102.48C483.2 103.7 484.15 108.11 484.62 110.05C486.15 116.45 487.12 122.99 488.6 129.41C492.62 146.81 502.99 165.66 520.41 172.34C546.83 182.47 573.82 171.36 593.74 153.81C599.47 148.76 612.19 135.68 610.71 126.77C610.17 123.57 606.21 123.71 603.63 123.32C596.79 122.31 589.91 121.6 583.08 120.55C575.28 119.35 567.54 117.84 559.78 116.43C553.47 115.29 547.13 114.28 540.8 113.23C535.24 112.3 529.69 111.37 524.13 110.48C520.22 109.85 516.31 109.3 512.41 108.68C509.41 108.19 506.43 107.64 503.44 107.09C501.07 106.65 498.7 106.21 496.31 105.9C490.86 105.19 483 106.53 477.99 103.94C473.38 101.54 474.24 95.02 477.43 92.33M475.14 95.36C476.35 92.94 476.04 106.8 476 108.33C475.74 117.22 472.87 135.01 487.66 133.45C489.19 133.29 487.71 130.03 487.53 129.3C486.37 124.6 486.23 119.85 486.67 115.03C487.39 106.95 497.06 96.71 487.8 93.06" />
		<path id="light green smiley+ leaf" class="shp5" d="M538.52 578.25C538.56 577.21 539.76 579.92 540.23 580.84C541.3 582.91 542.29 585.04 542.73 587.34C543.88 593.42 544.83 605.59 551.16 609.04C551.46 609.2 551.72 606.02 551.78 605.76C552.2 603.87 553.98 599.75 556.54 600.25C562.36 601.38 558.02 610.79 561.17 613.83C562.6 615.2 564.5 616 566.31 616.73C567.67 617.29 569.14 617.85 570.6 618.04C571.6 618.16 572.62 618.09 573.62 617.96C574.64 617.84 577.8 617.5 578.37 616.36C579.45 614.21 578.39 612.04 581.58 611.12C586.07 609.82 585.15 616.4 587.7 617.47C594.74 620.4 605.64 616.52 611.23 612.3C612.5 611.34 615.32 609.71 616.02 608.13C616.76 606.46 615.33 602.85 614.91 601.3C613.27 595.15 611.43 589.14 607.95 583.73C606.96 582.2 604.38 578.03 602.06 578.13C600.75 578.18 599.79 580.76 599.44 581.71C598.48 584.37 598.02 593.86 593.65 593.69C589.02 593.5 587 584.74 588.93 581.39C589.85 579.79 592.07 579.18 592.81 577.92C593.18 577.28 592.3 576.42 591.89 576.08C588.17 573.03 580.01 569.73 575.08 571.14C572.35 571.92 571.03 577.88 566.86 575.53C564.3 574.08 566.04 570.98 564.81 568.99C563.95 567.59 560.75 567.3 559.36 567.12C553.35 566.3 547.44 567.51 541.74 569.56C541.08 569.8 534.81 571.84 534.81 572.84C534.81 573.76 536.67 575.33 537.13 576.1M334.12 366.6C335.07 363.5 332.39 357.3 332.19 354.06C331.98 350.72 331.4 345.97 333.09 342.9C335.31 338.86 341.21 339.08 343.28 343.15C345.99 348.48 341.87 355.29 345.61 360.07C348.99 364.39 361.71 360.29 366.14 359.82C368.59 359.56 372.37 360.88 372.06 363.98C370.94 375.46 351.72 366.59 348.16 375.16C345 382.78 350.82 390.08 350.94 397.61C350.99 400.82 350.33 405.24 345.93 404.48C339.15 403.32 338.35 392.83 337.84 387.6C337.69 386.1 337.92 382.48 336.5 381.48C331.99 378.31 322.77 384.87 317.35 383.88C315.47 383.53 312.08 382.87 311.41 380.67C309.4 374.1 324.05 371.87 327.87 370.91C328.47 370.76 333.95 370.27 333.95 369.47M1003.16 742.11C999.94 742.39 998.88 746.47 998.36 749.15C997.25 754.9 1000.3 760.09 1006.75 759.55C1012.32 759.07 1017.51 752.78 1015.33 747.14C1013.56 742.57 1008.84 740.85 1004.32 741.43M1040.03 741.87C1029.8 744.87 1034.16 760.44 1044.03 759.65C1049.54 759.21 1053.48 751.7 1051.33 746.81C1049.71 743.15 1046.02 741.7 1042.29 741.7M988.39 820.95C986.04 821.41 985.05 827.62 984.59 829.32C982.11 838.53 981.9 849.35 986.12 858.18C1001.35 890.11 1054.54 888.54 1069.46 856.52C1078.83 836.41 1068.9 809.91 1049.13 799.88C1033.54 791.98 1005.96 793.42 996.09 809.79C995.23 811.23 991.12 819.04 995.03 819.55C1002.03 820.46 1010.35 810.32 1016.02 807.16C1031.58 798.5 1050.13 805.26 1058.97 820.21C1075.13 847.53 1041.56 879.98 1014.09 870.74C1001.38 866.47 994.65 854.88 994.19 841.82C994.02 837.17 1000.92 818.76 990.12 820.56M998.19 807.66C998.23 807.2 991.14 814.29 990.47 815.08C986.59 819.7 978.93 835.66 989.34 838.5C991.6 839.11 993.55 837.7 994.01 835.47C995.37 828.92 995.51 824.3 999.78 818.59C1002.01 815.63 1007.88 812.2 1009.07 808.71C1009.67 806.96 1007.54 804.62 1006.09 803.93M707.98 1201.99C708.17 1202.29 707.24 1200.22 707.17 1200C706.53 1198.18 705.94 1196.35 705.53 1194.46C704.44 1189.52 699.9 1175.2 709.36 1176.78C717.74 1178.17 716.3 1193.86 719.58 1199.52C721 1201.95 732.2 1198.43 734.48 1198.16C740.11 1197.49 748.22 1199.11 742.29 1206.46C738.26 1211.46 725.72 1205.38 723.04 1210.43C719.69 1216.75 730.91 1235.06 721.47 1237.01C713.84 1238.58 712.69 1225.87 712.02 1220.69C711.87 1219.55 712.26 1215.45 711 1214.79C706.28 1212.31 686.9 1228.4 685.68 1216.54C684.37 1203.71 701.23 1202.98 710.73 1201.92" />
		<path id="grey smiley" class="shp6" d="M643.1 1381.76C642.27 1380.3 638.69 1383.93 638.39 1384.43C634.97 1390.02 637.19 1399.52 644.6 1399.81C654.93 1400.2 656.67 1384.3 646.18 1382.71M681.89 1380.52C673.63 1380.22 674.06 1396.4 680.89 1398.95C691.7 1402.98 694.71 1387.55 685.28 1383.19M582.97 1420.69C580.95 1421.53 581.72 1425.4 582.11 1427.69C583.11 1433.54 584.39 1439.26 586.57 1444.8C594.69 1465.52 607.38 1487.49 627.74 1498.18C641.47 1505.4 654.68 1504.9 668.83 1509.15C673.12 1510.43 676.1 1514.4 671.88 1518.01C664.09 1524.67 647.1 1517.99 639.14 1515.42C609.43 1505.86 583.07 1482.77 573.99 1451.9C571.4 1443.1 570.02 1433.93 572.83 1425.02C573.69 1422.31 576.95 1415.64 580.75 1418.62M176.78 1392.19C169.64 1390.69 167.93 1406.73 168.36 1410.37C170.99 1432.63 191.93 1440.8 207.82 1425.7C225.78 1408.62 211.39 1372.93 185.35 1384.72C182.96 1385.8 178.39 1392.24 182.1 1394.21C187.85 1397.26 195.4 1390.01 201.68 1392.21C214.46 1396.68 206.54 1419 197.91 1423.52C188.77 1428.3 179.27 1417.24 179.6 1408.66C179.82 1402.61 193.06 1390.34 181.07 1389.88C179.56 1389.82 178.24 1390.33 176.91 1391M188.42 1383.97C188.66 1384.3 185.45 1384.74 185.26 1384.78C183.42 1385.09 181.6 1385.58 179.92 1386.4C176.19 1388.21 168.87 1396.72 171.93 1401.32C177.24 1409.29 186.49 1396.29 189.98 1393.38C191.08 1392.46 194.72 1391.94 195.34 1391.08C195.8 1390.46 194.26 1389.75 193.96 1389.58" />
	</g>
</svg>