<svg version="1.2" baseProfile="tiny-ps" xmlns="http://www.w3.org/2000/svg" viewBox="0 0 630 1007" width="630" height="1007">
	<title>dark blue leaves and circ cles</title>
	<style>
		tspan { white-space:pre }
		.shp0 { opacity: 0.8;fill: #a1a0a5 } 
		.shp1 { opacity: 0.8;fill: #f79a8a } 
		.shp2 { opacity: 0.8;fill: #ae7650 } 
		.shp3 { opacity: 0.8;fill: #8f4935 } 
		.shp4 { fill: #a7ccc9 } 
		.shp5 { fill: #739d9b } 
	</style>
	<path id="dark grey leaves" class="shp0" d="M219.04 259.18C227.26 253.42 233.25 245.45 242.59 240.72C270.5 226.6 290.87 248.27 317.76 252.41C328.83 254.11 339.19 252.91 349.81 249.34C353.72 248.02 357.5 246.27 361.21 244.48C362.77 243.73 366.83 240.71 365.87 242.15C362.85 246.68 356.75 250.68 352.24 253.45C322.26 271.86 301.34 253.46 270.49 249.68C251.32 247.34 236.92 254.05 219.8 261.18M241.6 243.15C241.74 242.89 239.93 241.88 239.73 241.61C238.83 240.39 238.56 238.81 238.38 237.33C237.71 231.53 238.73 225.21 240.96 219.83C242.52 216.07 245.44 213.07 248.6 210.56C249.06 210.2 251.42 207.96 252.17 208.34C253.87 209.19 254.43 215 254.61 216.52C254.81 218.22 254.76 219.92 254.49 221.61C253.24 229.41 248.47 236.87 243.21 242.63M262.19 238.1C256.65 238.09 259.5 225.9 260.19 223.57C262.94 214.31 268.63 207.5 276.25 201.79C277.81 200.61 281.94 196.84 284.29 197.36C284.49 197.41 284.27 200.38 284.27 200.49C284.1 204.96 283.31 209.42 282.35 213.78C281.43 217.99 280.1 222.13 277.86 225.84C274.75 230.99 269.88 234.95 265.04 238.4M283.26 241.65C277.87 241.41 282.17 228.67 283.08 226.74C287.21 218.03 298.01 204.02 308.25 201.69C309.03 201.51 308.93 204.82 308.94 205.05C309.05 208.79 308.7 212.55 308.11 216.24C306.16 228.39 301.95 239.48 289.97 244.52M308.06 251.33C308.22 253.03 305.34 249.26 305.22 248.83C304.58 246.56 304.84 243.95 305.17 241.66C306.43 233.14 310.36 225.61 316.41 219.5C317.19 218.71 321.09 214.13 322.54 214.49C323.62 214.76 323.6 222.77 323.62 223.57C323.96 233.46 320.53 244.13 314.47 251.97M336.72 254.5C335.27 256.15 330.98 247.22 330.88 246.86C328.56 237.87 330.38 227.93 333.7 219.43C334.39 217.67 335.14 216.04 336.06 214.39C336.73 213.19 337.42 212.13 338.26 211.06C343.53 204.37 343.9 214.04 345.12 218.65C347.57 227.93 347.58 235.83 344.37 244.9M355.64 247.63C355.17 250.69 353.22 247.01 353.02 245.66C352.56 242.52 353.02 239.31 354.09 236.34C356.66 229.15 362.21 222.19 368.09 217.4C368.62 216.96 376.98 210.87 378.19 212.38C379 213.4 376.21 219.71 375.87 220.8C372.73 230.87 367.55 240.43 358.65 246.56M233.81 252.23C230.57 250.67 231.52 260.6 231.76 261.31C234.03 267.98 241.15 273.32 247.61 275.46C248.67 275.81 253.6 277.84 254.7 276.92C255.83 275.98 254.98 270.23 254.82 269.05C253.7 260.86 245.85 252.16 237.29 251.85M262.06 248.56C259.25 244.25 256.74 253.45 256.74 255.19C256.74 263.03 261.02 269.96 266.22 275.5C267.26 276.61 269.6 279.81 271.16 280.33C272.05 280.62 271.7 278.53 271.97 277.63C272.86 274.59 273.31 271.37 273.6 268.22C274.39 259.53 272.16 250.51 263.81 246.25M285.67 251.08C280.49 250.35 281.04 258.22 281.74 261.24C283.34 268.18 289.45 277.41 296.14 280.75C297.74 281.55 297.99 272.85 297.98 272.64C297.74 265.6 295.85 257.98 289.71 253.89M308.55 256.87C309.14 257.42 307.07 257.6 306.51 258.18C305.46 259.29 304.65 260.56 304.32 262.07C303.49 265.95 305.06 270.18 307.37 273.26C309.06 275.49 311.07 277.57 313.19 279.38C314.59 280.57 316.09 281.75 317.64 282.74C327.59 289.15 325.02 276.97 322.63 270.51C320.52 264.8 315.78 262.31 310.52 260.04M329.54 259.72C326.75 257.97 329.27 267.7 329.7 268.46C333.68 275.48 342.05 278.27 349.52 279.78C350.8 280.04 355.12 281.34 356.36 280.28C357.34 279.44 353.2 273.54 352.74 272.9C347.96 266.36 342.27 261.52 334.72 258.55M348.13 254.06C347.45 253.25 348.83 256.63 349.1 256.96C350.35 258.5 351.99 259.72 353.64 260.79C359.38 264.53 366.34 266.52 373.2 265.59C374.21 265.46 379.44 264.87 379.89 263.65C380.21 262.81 376.18 259.64 375.7 259.23C370.25 254.65 363.73 250.57 356.45 250.27M358.94 248.32C357.93 248.51 359.49 245.55 359.62 245.33C360.83 243.34 362.94 241.88 364.87 240.67C370.88 236.89 377.93 234.79 384.93 233.86C385.06 233.84 395.9 233.88 395.41 234.87C394.4 236.89 390.26 239.15 388.52 240.34C380.69 245.68 371.46 248.59 361.99 248.59" />
	<path id="cream dark leaf" class="shp1" d="M371.64 207.26C372.11 207.21 366.9 207.92 365.99 208.01C362.01 208.44 357.75 209.05 353.75 208.68C343.48 207.73 333.99 196.03 328.61 188.42C327 186.14 325.53 183.82 324.09 181.43C323.93 181.17 322.39 179.64 322.56 179.35C322.93 178.7 326.04 179.02 326.67 178.99C331.34 178.71 335.84 178.78 340.47 179.5C354.91 181.77 374.78 187.67 373.08 206.47" />
	<path id="dark yellow leaf" class="shp2" d="M381.58 206.34C380.85 204.36 377.58 203.45 376.85 200.39C371.74 179.19 392 160.07 408.29 151.03C415.08 147.26 422.17 144.48 429.69 142.58C430.78 142.3 436.37 140.23 437.32 141.47C438.27 142.7 437.02 146.26 436.75 147.49C435.66 152.41 434.18 157.27 432.52 162.03C425.54 182.06 409.94 208.08 385.61 208.69" />
	<path id="dark brown leaf" class="shp3" d="M405.04 204.62C404.05 204.93 408.04 204.89 408.28 204.85C410.56 204.45 412.8 203.74 415 203.05C421.65 200.94 427.74 198.01 433.76 194.5C450.46 184.77 472.81 173.16 490.16 188.43C494.21 192 497.85 196.48 498.11 202.09C498.6 212.8 491.65 220.27 482.98 225.48C476.18 229.57 467.31 233.91 459.15 233.53C441.37 232.71 423.97 218.11 408.57 210.4M404.86 208.27C413.1 216.68 413.89 233.97 419.1 244.3C423.43 252.89 438.97 258.91 439.59 244.69C440.31 228.11 419.12 210.59 404 207.84" />
	<path id="light green leaves" class="shp4" d="M591.93 26.88C591.93 26.88 589.58 19.56 589.47 19.09C588.42 14.65 584.85 2.63 591.45 0.79C602.55 -2.32 598.73 19.42 603.28 22.51C610 27.06 622.15 16.04 628.99 22.3C631.3 24.4 628.61 28.77 626.72 30.15C621.75 33.8 610.81 31.6 607.38 36.21C603.61 41.27 608.7 52.22 609.28 57.8C609.49 59.77 609.74 64.18 607.14 65.02C605.13 65.67 602.3 62.37 601.32 61.05C598.18 56.83 596.82 51.81 595.42 46.82C594.92 45.04 594.73 41.18 592.7 40.23C584.87 36.58 574.73 52.56 566.32 43.38C561.18 37.77 574.67 32.48 577.85 31.71C580.73 31.02 590.67 30.88 592.7 28.86M33.2 315.5C38.88 323.81 57.8 320.28 65.47 317.41C92.37 307.32 103.69 277.98 123.51 259.29C126.23 256.73 154.66 237.33 158.66 245.32C160.51 249.02 151.75 249.95 148.78 252.83C141.51 259.85 134.98 267.5 129.31 275.87C106.09 310.08 89.38 350.23 43.47 322.68M10.65 152.26C11.6 149.64 4.66 157.6 4.15 158.56C0.82 164.71 -1.05 171.47 1.63 178.23C6.48 190.47 26.97 194.26 36.92 186.47C51.72 174.88 49.9 145.19 27.77 144.45C24.95 144.36 19.36 147.2 22.08 150.79C28.25 158.95 45.18 162.95 33.54 176.04C32.01 177.76 30.03 179.31 27.8 180.01C15.69 183.78 6.47 171.91 12.45 160.81C13.86 158.19 20.85 154.5 20.71 151.59C20.52 147.6 11.58 150.89 10.08 151.92" />
	<path id="dark blue leaves and circ cles" class="shp5" d="M118.83 291.12C124.01 283.36 135.25 300.39 144.26 302.79C161.36 307.35 180.6 303.47 195 293.13C213.22 280.03 222.78 247.72 230.38 227.84C233.39 219.96 236.24 211.99 239.7 204.29C240.39 202.77 245.57 191.88 244.94 192.01C238.38 193.32 232.67 201.32 226.51 204.07C198.31 216.6 180.31 226.49 159.62 250.7C149.12 263 140.88 285.15 127.54 294.04M263.95 970.51C263.44 963.37 260.07 956.99 260.91 949.3C261.19 946.73 261.79 943.27 264.76 942.53C275.88 939.75 272.28 959.39 277.48 962.66C283.34 966.34 290.59 963.29 297 963.68C299.46 963.83 303.99 965.28 304.14 968.35C304.67 978.73 285.56 974.02 281.18 978.61C276.99 983.01 280.99 993.83 281.27 999.09C281.37 1000.9 281.9 1005.03 279.67 1005.98C277.25 1007 274.57 1003.58 273.45 1001.98C269.94 996.94 269.55 987.58 265.43 983.46C264.36 982.39 261.21 983.92 260.09 984.24C256.02 985.43 242.89 989.49 242.23 981.68C241.64 974.56 257.87 971.99 262.48 970.8M590.42 742.72C588.83 742.36 586.79 745.2 585.98 746.26C582.84 750.41 580.33 755.92 580.13 761.17C579.42 779.57 602.61 789.95 617.05 779.92C634.68 767.68 629.8 734.09 605.27 736.22C601.99 736.5 595.25 740.75 599.48 744.74C602.44 747.53 609.34 746.25 613.15 748.19C622.41 752.92 619.13 767.2 611.15 770.83C600.33 775.76 589.5 768.25 591.65 756.26C592.64 750.74 597.69 749.87 599.41 745.86C600.78 742.67 596.03 741.17 593.86 741.46C592.73 741.6 591.63 741.98 590.55 742.34" />
</svg>