<svg version="1.2" baseProfile="tiny-ps" xmlns="http://www.w3.org/2000/svg" viewBox="0 0 2912 3302" width="2912" height="3302">
	<title>Layer1</title>
	<style>
		tspan { white-space:pre }
		.shp0 { fill: #cea265 } 
		.shp1 { fill: #a1a0a5 } 
		.shp2 { fill: #739d9b } 
		.shp3 { fill: #f79a8a } 
		.shp4 { fill: #d28176 } 
	</style>
	<g id="Layer1">
		<g id="Group 1" style="opacity: 0.502">
			<path id="yellow leaves" class="shp0" d="M240.95 1700.08C242.96 1701.33 238.11 1695.9 238.19 1693.54C238.4 1687.42 239.48 1681.49 240.8 1675.52C244.51 1658.67 253.3 1644.81 263.58 1631.16C290.8 1594.98 345.84 1551.77 345.84 1501.85C345.84 1499.96 346.28 1505.62 346.44 1507.51C346.68 1510.46 346.73 1513.41 346.73 1516.37C346.73 1526.55 345.06 1534.17 340.85 1543.32C328.23 1570.75 312.84 1592.09 291.49 1613.44C269.68 1635.25 245.99 1662.3 239.53 1693.31M243.59 1668.74C245.55 1669.54 239.6 1670.4 237.49 1670.44C233.63 1670.52 229.73 1668.34 226.69 1666.2C217.01 1659.43 208.38 1648.85 207.97 1636.65C207.89 1634.4 207.06 1629.12 208.98 1627.2C209.91 1626.28 219.45 1631.91 220.27 1632.38C233.38 1639.7 241.36 1650.41 245.33 1664.7M254 1645.89C255.45 1648.22 248.7 1646.31 248.36 1646.18C244.38 1644.62 241.43 1641.8 238.84 1638.45C233.19 1631.17 218.39 1608.64 228.15 1598.88C228.81 1598.22 239.03 1606.6 239.81 1607.21C249.74 1615.02 259.5 1626.67 258.04 1640.25M272.35 1622.91C268.24 1628.51 259.34 1614.94 257.82 1612.54C250.45 1600.87 249.18 1589.34 251.4 1575.89C251.6 1574.7 253.02 1564.81 255 1564.94C259.68 1565.25 266.21 1574.66 268.62 1577.69C271.57 1581.42 274.31 1585.39 276.27 1589.73C279.66 1597.27 280.15 1604.1 279.08 1612.16M295.9 1594.12C282.35 1599.99 278.35 1569 277.55 1560.74C276.45 1549.43 280.51 1543.55 288.42 1552C290.5 1554.22 292.7 1556.36 294.57 1558.75C297.31 1562.25 299.24 1566.18 300.39 1570.46C302.09 1576.81 302.91 1583.4 302.26 1589.96M317.81 1571.14C315.35 1575.91 305.41 1562.69 304.81 1561.79C298.13 1551.77 293.9 1540.44 293.6 1528.34C293.56 1526.64 292.93 1518.13 295.32 1517.24C297.13 1516.56 305.26 1525.87 306.2 1526.76C309.71 1530.06 312.98 1533.43 315.65 1537.45C319.99 1543.99 322.64 1550.18 322.26 1558.08M333.53 1547.51C333.58 1547.21 330.5 1546.47 330.02 1546.15C327.41 1544.4 325.36 1541.97 323.64 1539.36C317.52 1530.1 315.07 1520.02 315.77 1509.02C315.94 1506.32 315.57 1500.1 318.13 1498.18C319.18 1497.4 323.98 1504.5 324.47 1505.12C331.97 1514.75 336.47 1523.21 336.7 1535.65M344.65 1522.92C346.31 1523.49 341.65 1520.79 340.93 1519.19C339.45 1515.89 338.29 1512.5 337.75 1508.91C336.08 1498.01 337.64 1487.18 341.5 1476.92C342.15 1475.19 344.33 1468.37 347.12 1468.37C348.84 1468.37 351.47 1477.55 351.92 1478.76C356.71 1491.53 356.96 1501.36 351.55 1514.12M343.94 1537.45C343.77 1538.54 344.5 1534.27 345.21 1533.03C347.15 1529.62 350.15 1526.95 353.16 1524.51C361.39 1517.86 371.63 1513.32 381.63 1510.04C383.31 1509.48 390.5 1506.76 392.39 1508.65C393.74 1510 384.22 1521.13 383.36 1522.15C372.91 1534.43 359.85 1540.94 343.33 1539.1M332.04 1557C330.24 1557.98 340.52 1550.82 342.62 1549.94C351.55 1546.21 362.3 1542.47 372.1 1544.17C374.1 1544.51 380.35 1545.93 381.22 1548.33C382.07 1550.69 371.57 1555.42 370.3 1556.09C357.4 1562.97 344.82 1564.97 330.32 1565.21M249.15 1664.74C241.26 1671.87 253.3 1677.66 259.24 1679.67C272.17 1684.04 284.62 1681.04 296.15 1674.46C304.51 1669.68 295.58 1666.96 289.59 1664.59C279.8 1660.73 266.47 1658.27 256.65 1663.05M271.64 1638.53C264.64 1641.38 266.05 1645.98 272.78 1650.3C280.49 1655.25 289.45 1655.9 298.25 1654.54C299.27 1654.38 306.78 1653.51 307.36 1651.95C307.97 1650.33 299.73 1644.01 298.81 1643.25C290.25 1636.17 275.29 1630.46 265.17 1638.38M282.25 1617.95C277.58 1623.33 289.69 1627.87 293.15 1629.08C304.4 1633 317.41 1631.32 327.36 1624.69C328.88 1623.67 316.41 1614.86 315.58 1614.41C305.82 1609.16 294.32 1608.81 284.86 1615.12M310 1591.99C304.51 1605.46 333.73 1605.02 342.51 1602.63C351.54 1600.18 354.19 1596.35 346.37 1591.38C344.55 1590.23 342.62 1589.22 340.67 1588.31C337.3 1586.73 333.77 1585.54 330.09 1584.9C324 1583.82 318.58 1584.76 313.03 1587.3M322.99 1568.04C323.57 1566.02 322.04 1572.36 322.78 1574.32C324.16 1577.97 328.06 1579.86 331.44 1581.18C341.25 1585 358.25 1584.79 366.44 1576.61C367.4 1575.64 359.05 1567.67 358.41 1567.23C350.69 1561.93 330.43 1555.8 325.41 1566.97" />
			<path id="grey leaves" class="shp1" d="M1388.94 2763.03C1390.71 2763.75 1385.62 2761.04 1383.85 2760.32C1379.9 2758.72 1375.83 2757.54 1371.78 2756.27C1360.62 2752.75 1349.65 2746.92 1339.49 2740.85C1309.65 2723 1282.44 2698.41 1269.36 2663.03C1266.44 2655.14 1258.95 2636.54 1264.79 2628.06C1266.3 2625.87 1281.78 2656.01 1282.99 2658.05C1295.72 2679.41 1311.03 2698.56 1328.2 2715.83C1349.19 2736.94 1374.24 2751.55 1401.53 2760.6C1410.93 2763.72 1420.08 2766.56 1429.19 2770.7C1433.33 2772.58 1444.63 2773.28 1441.46 2776.74C1439.96 2778.37 1432.43 2774.78 1430.82 2774.25C1418.73 2770.22 1407.78 2763.55 1395.4 2760.18M1282.14 2662.79C1276.66 2649.99 1282.11 2634.67 1288.77 2623.46C1289.34 2622.49 1296.49 2610.46 1298.55 2611.81C1301.3 2613.61 1300.57 2629.2 1300.57 2631.89C1300.57 2637.33 1299.71 2642.29 1297.34 2647.09C1294.48 2652.88 1290.61 2657.87 1285.97 2662.04M1300.43 2689.05C1299.6 2689.36 1298.25 2685.66 1298.11 2685.21C1296.59 2680.41 1296.61 2675.07 1297.41 2670.1C1299.69 2656.06 1306.85 2641.6 1318.2 2633.92C1320.19 2632.58 1320.26 2637.49 1320.45 2638.8C1321.32 2644.51 1321.1 2650.59 1320.45 2656.31C1318.82 2670.71 1309.96 2681.24 1299.77 2689.73M1328.6 2715.26C1329.19 2715.57 1327.29 2714.88 1326.8 2714.41C1325.51 2713.16 1324.53 2711.55 1323.69 2709.92C1321.65 2705.98 1321.31 2700.71 1321.28 2696.27C1321.19 2682.52 1323.93 2667.72 1332.23 2656.91C1333.14 2655.72 1338.83 2647.68 1340.47 2648.44C1343.21 2649.72 1345.55 2661.65 1346.52 2664.46C1352.63 2682.08 1353.33 2699.31 1342.2 2714.41C1338.93 2718.84 1336.64 2723.52 1331.09 2724.28M1362.95 2739.58C1363.36 2740.14 1360.95 2739 1360.79 2738.83C1359.89 2737.91 1359.13 2736.65 1358.51 2735.5C1356.68 2732.14 1355.59 2728.15 1355.14 2724.28C1353.8 2712.56 1357.46 2699.65 1362.11 2689.2C1363.02 2687.15 1365.7 2679.43 1368.63 2679.32C1371.95 2679.21 1376.53 2694.15 1377.28 2696.61C1382.88 2715.09 1379.93 2734.44 1363.04 2743.96M1389.55 2760.83C1384.77 2760.26 1384.03 2749.17 1383.72 2745.77C1382.72 2734.57 1384.82 2724.15 1390.3 2714.6C1391.63 2712.3 1394.13 2706.76 1396.77 2705.81C1397.81 2705.43 1398.47 2708.78 1398.64 2709.27C1400.29 2714.27 1401.54 2719.41 1402.49 2724.62C1404.94 2737.92 1403.72 2761.12 1389.39 2766.33M1415.79 2766.96C1415.04 2765.86 1412.56 2765.05 1411.53 2763.84C1408 2759.71 1406.66 2754.51 1406.38 2748.95C1406.09 2743.26 1407.09 2737.74 1408.58 2732.31C1409.41 2729.28 1410.45 2726.34 1411.71 2723.49C1412.36 2722.02 1413.23 2720.31 1414.04 2718.92C1414.73 2717.73 1417.68 2712.33 1419.45 2712.18C1420.06 2712.13 1420.74 2715.97 1420.85 2716.35C1422.02 2720.68 1423.25 2724.99 1424.32 2729.35C1427.51 2742.38 1430.42 2758.88 1422.27 2770.41M1439.4 2779.57C1437.03 2781.23 1434.48 2770.39 1434.26 2769.37C1431.83 2758.03 1433.91 2746.68 1438.71 2736.46C1439.04 2735.75 1444.77 2725.04 1446.53 2726.48C1448.04 2727.71 1447.49 2738.08 1447.59 2739.93C1448.2 2751.14 1449.81 2772.64 1439.49 2779.92M1274.19 2659.49C1274.24 2658.77 1262.49 2657.69 1262.05 2657.67C1255.07 2657.28 1233.54 2657.92 1231.53 2668.86C1231.44 2669.32 1234.37 2670.33 1234.64 2670.44C1238.22 2671.95 1241.89 2673.12 1245.64 2674.02C1256.08 2676.54 1272.49 2679.1 1279.27 2667.28M1267.37 2648.14C1268.61 2646.99 1264.21 2648.99 1262.59 2649.15C1259.32 2649.47 1255.82 2649.22 1252.73 2647.94C1244.82 2644.64 1238.34 2636.83 1235.98 2628C1235.67 2626.83 1233.91 2621.83 1234.48 2620.58C1234.89 2619.69 1242.52 2621.46 1243.26 2621.6C1253.9 2623.65 1262.09 2630.89 1269.01 2639.56M1274.28 2639.54C1260.29 2637.92 1265.38 2610.17 1268.68 2601.46C1270.04 2597.86 1272.08 2594.28 1274.35 2591.25C1274.42 2591.15 1276.49 2588.71 1276.52 2588.77C1278.07 2591.73 1278.42 2598.77 1278.96 2602.05C1279.47 2605.2 1279.89 2608.36 1280.25 2611.53C1280.96 2617.69 1281.39 2623.82 1281.16 2630.03C1280.84 2638.46 1279.29 2646.63 1276 2654.28M1262.06 2633.48C1262.16 2636.02 1256.08 2628.96 1255.97 2628.79C1251.07 2621.19 1247.61 2611.54 1247.97 2602.17C1248.01 2601.09 1248.17 2593.59 1249.62 2593.06C1250.81 2592.63 1255.26 2600.67 1255.58 2601.21C1261.71 2611.52 1266.15 2621.98 1269.2 2633.84M1278.39 2677.88C1276.11 2676.93 1271.85 2678.68 1269.79 2679.3C1262.83 2681.39 1255.8 2684.57 1249.65 2688.72C1249.44 2688.86 1239.98 2696.07 1241.83 2697.51C1245.43 2700.31 1253.9 2700.96 1258.06 2701.69C1262.61 2702.49 1267.17 2702.37 1271.73 2701.77C1278.39 2700.91 1283.68 2698.72 1288.53 2693.68M1314.18 2720.07C1314.91 2720.33 1311.78 2724.8 1311.7 2724.87C1308.77 2727.48 1304.35 2728.54 1300.75 2729.44C1289.55 2732.24 1278.22 2731.67 1267.98 2725.6C1266.13 2724.51 1260.09 2721.41 1259.54 2718.72C1259.14 2716.78 1270.35 2712.31 1271.37 2711.87C1284.06 2706.44 1298.5 2705.76 1311.03 2712.32M1338.9 2740.75C1339.91 2743.78 1327.66 2750.32 1326.02 2751.18C1315.48 2756.71 1303.21 2757.79 1291.85 2755.35C1288.63 2754.66 1283.55 2754.11 1281 2751.46C1279.65 2750.06 1283.04 2748.66 1283.8 2748.22C1288.57 2745.48 1293.47 2742.97 1298.4 2740.58C1313.62 2733.18 1328.37 2727.48 1342.3 2739.53M1365.4 2753.8C1367.85 2756.9 1358.77 2764.38 1357.34 2765.65C1349.69 2772.46 1339.52 2775.46 1329.77 2775.46C1327.66 2775.46 1325.54 2775.32 1323.43 2775.07C1315.23 2774.09 1318.75 2769.7 1323.97 2764.01C1325.54 2762.31 1327.23 2760.72 1329.07 2759.39C1332.83 2756.67 1337.11 2754.68 1341.35 2753.04C1347.66 2750.6 1354.26 2749.04 1360.97 2749.04M1392.94 2763.17C1394.17 2763.16 1391.52 2767.1 1391.49 2767.14C1388.81 2770.61 1385.69 2774.03 1382.46 2776.87C1374.19 2784.13 1356.84 2791.69 1346.21 2785.9C1345.85 2785.7 1347.41 2783.37 1347.46 2783.3C1349.7 2780.18 1352.52 2777.34 1355.38 2774.9C1365.42 2766.33 1376.16 2757.42 1389.55 2759.11M1393.35 2763.46C1392.13 2763.27 1402.8 2765.44 1404.77 2765.93C1413.79 2768.19 1422.43 2771.7 1431.33 2774.39C1433.82 2775.14 1436.33 2775.76 1438.84 2776.39C1440.17 2776.73 1444.16 2777.46 1442.8 2777.46C1439.19 2777.46 1433.32 2773.71 1430.09 2772.33C1420.4 2768.21 1410.98 2763.4 1401.46 2758.85C1398.69 2757.53 1390.36 2757 1388.28 2754.73M1417.04 2772.34C1419.13 2774.32 1413.94 2781.56 1412.9 2783.25C1406.52 2793.56 1395.38 2797.2 1384.5 2798.98C1384.27 2799.02 1372.13 2800.64 1372.13 2799.83C1372.13 2796.27 1378.36 2790.73 1380.28 2788.75C1388.92 2779.85 1403.12 2764.81 1416.27 2768.5M1434.76 2777.73C1439.37 2778.2 1432.42 2785.89 1431.23 2787.67C1426.65 2794.53 1420.7 2802.12 1413 2804.76C1411.37 2805.33 1406.35 2807.05 1404.77 2805.33C1403.58 2804.03 1409.96 2794.35 1410.52 2793.48C1415.75 2785.31 1427.94 2769.86 1438.89 2773.63" />
			<path id="blue leaves" class="shp2" d="M1632.99 455.62C1633.44 458.14 1630.24 451.18 1629.7 448.68C1628.46 442.85 1628.91 437.06 1629.96 431.23C1632.79 415.39 1638.72 399.75 1646.64 385.77C1669.21 345.91 1714.22 321.95 1755.21 305.35C1765.14 301.33 1775.31 297.62 1785.53 294.4C1786.02 294.24 1793.87 291.56 1794.44 292.42C1795.12 293.45 1789.52 302.65 1789.03 303.63C1782.39 317.05 1776.15 330.67 1769.35 344C1744.65 392.46 1704.86 454.41 1641.87 454.41M118.96 280.24C120.59 281.06 113.81 280.66 113.44 280.62C109.94 280.22 106.67 279.35 103.47 277.85C92.97 272.92 84.45 264.09 77.38 255.1C58.16 230.62 52.55 199.56 55.03 169.08C55.32 165.48 56.34 144.86 61.76 143.05C68.68 140.75 88.77 165.17 92.16 169.2C118.22 200.16 134.82 238.77 121.75 277.96M2157.29 1280.51C2155.52 1278.03 2161.6 1266.53 2162.38 1264.85C2168.99 1250.46 2177.7 1235.01 2189.26 1224.05C2190.68 1222.7 2203.26 1211.31 2206.15 1213.04C2206.74 1213.39 2202.63 1220.42 2202.42 1220.88C2199.66 1227.04 2192.37 1241.46 2202.17 1244.79C2216.08 1249.54 2226.54 1235.51 2227.66 1222.66C2228.25 1215.83 2219.26 1210.01 2219.69 1205.89C2220.14 1201.63 2227.69 1197.31 2230.76 1195.46C2242.66 1188.27 2259.98 1180.58 2274.28 1181.6C2275.08 1181.66 2272.5 1188.31 2272.39 1189.64C2271.96 1194.71 2272.02 1204.1 2277.83 1206.4C2293.98 1212.79 2289.65 1180.65 2293.14 1176.67C2295.69 1173.75 2304.21 1174.14 2307.56 1174.01C2317.12 1173.65 2351.86 1174.58 2358.55 1184.13C2360.87 1187.45 2354.58 1200.53 2353.68 1203.8C2349.06 1220.58 2345.73 1237.86 2339.13 1254.03C2338.02 1256.75 2334.58 1267.88 2331.09 1268.96C2330.26 1269.22 2325.68 1262.14 2324.83 1261.3C2319.25 1255.87 2311.54 1254.49 2304.78 1258.52C2298.04 1262.54 2291.27 1275.89 2299.71 1281.99C2303.1 1284.44 2308.44 1282.56 2311.17 1284.77C2318.84 1291.01 2303.77 1303.25 2299.65 1305.71C2295.62 1308.12 2291.44 1310.16 2287 1311.72C2277.36 1315.1 2267.53 1316.65 2257.39 1317.41C2257 1317.44 2248.41 1318.18 2248.41 1318.11C2248.41 1307.7 2253.87 1292.62 2235.76 1296.98C2219.77 1300.83 2230.45 1324.03 2221.65 1331.08C2215.31 1336.15 2204.01 1333.84 2196.79 1332.15C2176.73 1327.45 2160.31 1317.32 2150.99 1298.69M2166.27 2081.08C2160.49 2079.98 2182.41 2082.74 2184.33 2082.83C2199.04 2083.54 2214.64 2084.59 2228.78 2079.67C2269.1 2065.65 2300.84 2028.27 2293.28 1983.7C2286.12 1941.55 2207.78 1926.79 2203.62 1976.73C2201.9 1997.32 2223.44 2022.87 2242.83 2027.6C2248.97 2029.1 2282.08 2022.12 2282.05 2022.37C2279.34 2054.94 2218.03 2031.35 2205.79 2015.62C2165.01 1963.19 2245.23 1905.11 2287.83 1944.16C2340.16 1992.12 2261.99 2112.24 2202.09 2116.6C2188.89 2117.56 2169.72 2114.41 2161.67 2102.33C2154.49 2091.55 2146.88 2064.22 2170.61 2072.7M2305.76 2021.83C2319.74 1978.24 2403.26 1990.47 2419.08 2027.76C2433.89 2062.66 2384.37 2122.34 2353.77 2084.61C2333.93 2060.14 2376.88 2026.97 2384.43 2034.52C2388.07 2038.15 2341.07 2086.5 2386 2073.87C2420.87 2064.06 2404.82 2013.03 2371.03 2013.03C2347.52 2013.03 2330.81 2035.47 2306.57 2027.39M487.07 3226.23C471.94 3234.19 481.35 3201.74 482.89 3195.12C490.2 3163.85 501.01 3135.39 521.91 3110.77C572.67 3050.99 643.38 3046.77 708.89 3010.23C730.33 2998.27 750.94 2985.15 768.15 2967.46C775.92 2959.48 788.7 2941.09 788.7 2941.09C788.7 2941.09 789.29 2952.65 787.91 2958.18C784.8 2970.61 777.41 2979.45 768.25 2988.11C742.07 3012.85 705.33 3023.99 674.02 3040.65C609 3075.25 525.33 3084.7 506.4 3169.34C502.75 3185.67 500.98 3202.78 501.07 3219.51C501.21 3247.27 506.24 3274.77 510.06 3302.18M474.12 3188.76C476.13 3188.98 470.27 3190.33 468.26 3190.25C464.45 3190.12 460.71 3189.33 457.22 3187.78C447.02 3183.26 436.8 3174.26 435.14 3162.77C434.87 3160.9 433.49 3153.77 435.21 3152.31C438.48 3149.54 447.1 3153.15 450.43 3154.09C467.19 3158.81 476.85 3172.06 476.25 3189.53M488.27 3154.07C490.29 3154.07 484.25 3155.02 482.24 3154.78C477.74 3154.23 473.28 3152.99 469.45 3150.49C461.99 3145.63 448.1 3124.11 459.18 3115.92C462.39 3113.55 470.41 3118.12 473.16 3119.56C486.03 3126.28 493.95 3137.2 490.41 3151.87M507.93 3123.45C505.81 3125.36 498.42 3121.94 496.84 3121.01C487.65 3115.58 481.08 3103.8 483.15 3093.05C485.59 3080.33 495.49 3085.02 502.86 3091.38C510.98 3098.37 511.92 3106.38 510.38 3116.47M532.77 3096.45C530.88 3095.67 527.65 3096.97 525.38 3096.24C519.96 3094.51 516.6 3088.73 514.05 3084.04C510.7 3077.91 508.74 3070.96 509.65 3063.93C511.75 3047.73 521.81 3053.71 527.59 3062.91C529.91 3066.59 531.48 3070.79 532.86 3074.89C534.8 3080.68 535.24 3086.38 534.86 3092.43M553.68 3078.33C550.35 3082.76 541.74 3070 540.99 3068.5C535.97 3058.46 537.28 3032.57 551.6 3028.67C553.86 3028.05 557.74 3038.36 558.24 3039.53C563.61 3051.98 566.06 3065.91 557.01 3077.33M586.11 3057.82C585.97 3060.35 576.91 3051.45 576.69 3051.04C572.07 3042.39 572.36 3030.47 576.87 3021.88C577.63 3020.44 581.86 3013.67 584.28 3014.11C587.87 3014.76 591.46 3021.88 592.71 3024.57C597.79 3035.5 599.29 3048.21 590.74 3057.83M619.97 3045.7C620.66 3045.92 618.55 3046.02 617.83 3046.02C616.12 3046.03 614.16 3045.72 612.57 3045.12C607.96 3043.36 604.87 3038.94 603.02 3034.55C598.68 3024.29 602.59 3013.12 609.37 3004.96C610.34 3003.79 613.13 2999.43 614.82 2999C617.85 2998.25 623.64 3009.34 624.52 3010.95C631.04 3022.98 633.92 3034.74 623.94 3045.45M651.47 3034.4C632.85 3035.34 636.83 3006.37 641.98 2996.61C642.66 2995.32 648.47 2983.49 650.66 2984.23C655.74 2985.92 660.27 2996.9 662.25 3001.11C664.67 3006.27 665.66 3011.3 664.75 3016.98C663.69 3023.65 659.59 3028.78 654.95 3033.43M689.41 3014.82C681.63 3019.32 676.38 3011.47 673.54 3005.14C669.51 2996.17 669.74 2977.95 680.51 2972.57C682.43 2971.61 689.9 2979.79 690.83 2980.85C699.57 2990.84 702.25 3002.03 694.6 3013.27M723.45 2995.08C723.6 2997.57 718.25 2995.47 717.48 2994.97C713.35 2992.27 710.33 2987.89 708.22 2983.5C702.95 2972.53 704.61 2959.36 711.2 2949.48C712.09 2948.14 721.56 2956.62 722.16 2957.21C730.37 2965.24 735.53 2976.26 731.75 2987.6M756 2971.58C752.12 2977.15 743.3 2969.85 741.63 2965.96C736.48 2954 738.68 2941 745.73 2930.48C746.82 2928.86 750.97 2921.66 753.29 2921.41C755.53 2921.16 759.44 2930.82 760.15 2932.23C766.73 2945.24 767.19 2960.19 757.43 2971.92M778.54 2949.59C779.86 2948.4 775.47 2947.58 774.57 2946.06C772.6 2942.75 771.93 2938.94 771.7 2935.13C770.84 2921.15 775.25 2907.29 785.79 2897.66C798.29 2886.24 797.26 2905.23 797.19 2915.23C797.1 2928.13 788.72 2938.35 779.94 2946.9M803.77 2955.67C804.26 2953.94 800.02 2952.74 799.59 2951.44C798.27 2947.47 802.55 2942.89 805.07 2940.44C809.89 2935.75 815.88 2932.89 822.45 2931.62C826.16 2930.91 830.01 2930.61 833.78 2930.65C835.41 2930.67 850.39 2930.59 851.29 2932.84C852.37 2935.54 841.65 2945.69 840.24 2947.05C828.91 2958.02 810.87 2965.93 797.72 2953.55M789.63 2977.47C786.27 2974.49 799.79 2971.1 800.85 2970.89C812.94 2968.47 823.55 2971.74 832.65 2979.95C834.12 2981.27 839.16 2986.19 838.66 2988.72C838.25 2990.78 827.13 2991.66 825.66 2991.85C813.43 2993.39 799.33 2991.75 790.25 2982.67M509.46 3186.87C509.69 3185.53 510.42 3189.52 511.37 3190.5C513.58 3192.79 516.34 3194.45 519.33 3195.53C527.65 3198.55 538.28 3198.02 546.78 3195.98C548.03 3195.68 553.93 3194.66 554.3 3192.81C554.85 3190.04 546.04 3185.18 544.43 3184.25C535.82 3179.27 520.27 3178.72 512.55 3186.44M517.09 3152.27C517.84 3150.27 517.54 3156.57 518.27 3158.58C519.55 3162.09 521.27 3165.75 523.8 3168.53C529.11 3174.36 552.95 3181.49 559.29 3173.04C559.9 3172.22 550.73 3162.67 550.28 3162.15C543.27 3154.32 529.08 3143.22 518.76 3152.25M540.04 3131.52C532.08 3130.1 537.14 3138.61 540.08 3142.22C545.76 3149.17 554.38 3151.49 563.03 3151.84C565.33 3151.93 570.86 3152.48 572.17 3149.69C573.65 3146.51 569.06 3141.28 567.25 3139.21C561.38 3132.5 547.21 3125.34 538.46 3131.17M558.82 3104.04C559.4 3110.48 557.44 3114.95 562.62 3120.61C565.45 3123.7 569 3126.17 572.65 3128.17C575.44 3129.69 578.43 3130.91 581.43 3131.94C596.04 3137 593.29 3126.56 586.75 3116.63C580.51 3107.17 571.83 3101.56 560.67 3105.55M587.3 3089.92C588.09 3088.93 585.52 3092.12 585.73 3093.37C586.3 3096.7 588.86 3100.02 590.73 3102.75C594.18 3107.78 610.61 3121.56 617.65 3113.87C619.45 3111.91 615.18 3103.44 614.36 3101.73C609.45 3091.55 598.56 3082.66 586.66 3086.83M620.41 3075.38C622.02 3072.93 619.58 3077.04 620.86 3080.53C622.97 3086.3 626.16 3092.35 630.32 3096.9C631.08 3097.73 638.19 3104.79 640.23 3102.75C650.38 3092.6 637.99 3059.57 622.56 3069.85M647.72 3060.36C640.19 3068.74 655.61 3085.08 661.67 3088.7C662.12 3088.96 672.03 3093.67 672.35 3092.72C673.62 3088.92 671.65 3081.53 670.97 3077.81C670.21 3073.62 668.72 3069.66 666.47 3066.04C663.01 3060.49 657.44 3057.12 650.83 3057.47M676.92 3044.84C670.57 3056.34 684.23 3069.17 693.07 3074.08C694.16 3074.69 705.81 3081.02 706.67 3077.57C707.43 3074.55 702.83 3066.5 701.76 3063.72C700.38 3060.17 698.7 3056.78 696.11 3053.93C692.06 3049.48 686.18 3047.1 680.27 3046.46M708.63 3035.83C704.1 3034.83 707.68 3046.57 708.17 3047.8C711.68 3056.61 719.05 3063.58 727.91 3066.97C730.1 3067.81 735.38 3070.04 737.74 3068.27C738.57 3067.64 735.33 3058.01 735.1 3057.1C732.33 3046.25 725.15 3035.46 712.76 3035.46M733.55 3025.56C730.07 3023.79 734.46 3034.69 734.73 3035.17C739.94 3044.26 749.2 3050.12 759.14 3052.88C759.91 3053.09 767.11 3055.09 767.87 3053.57C768.9 3051.51 766.19 3044.98 765.6 3042.97C762.37 3032.04 745.89 3015.77 733.88 3024.78M758.4 3009.69C758.7 3016.84 757.44 3020.21 764.42 3026.08C767.92 3029.02 772.11 3031.54 776.48 3032.94C778.94 3033.73 781.51 3034.2 784.08 3034.44C785.96 3034.62 794.28 3036.07 795.77 3034.08C797.12 3032.28 791.85 3024.12 791.02 3022.67C785.28 3012.62 771.76 3003.75 760.28 3010.93M781.57 2990.33C782.99 2990.57 780.33 2993.01 780.22 2994.44C779.94 2997.87 780.49 3000.5 782.94 3003.13C788.24 3008.83 806.61 3019.42 813.28 3010.52C814.29 3009.18 808.16 3002.05 807.51 3001.27C802.25 2994.91 788.18 2982.63 779.45 2991.36" />
			<path id="cream leaves" class="shp3" d="M97.03 863.83C75.42 865.28 58.8 863.65 40.6 849.98C28.26 840.71 18.8 830.45 12.91 816.3C9.61 808.38 6.77 800.27 4.8 791.94C4.21 789.49 -1.99 764.77 1.45 762.54C7.35 758.73 27.81 765.08 33.48 766.48C66.17 774.54 97.5 791.53 105.09 825.41C106.71 832.62 111.23 853.89 104.45 860.47M2588.89 811.09C2588.82 811.22 2590.49 808.07 2590.71 807.32C2591.61 804.27 2592.11 801.02 2592.56 797.89C2593.97 788.14 2593.08 778.17 2591.49 768.5C2586.6 738.74 2574.35 706.46 2587.21 676.92C2597.34 653.63 2618.21 639.22 2641.74 632.18C2649.94 629.73 2658.28 627.89 2666.68 626.29C2669.51 625.76 2672.3 625.82 2675.14 625.51C2675.33 625.49 2679.6 624.89 2679.59 624.86C2679.22 624.13 2675.04 623.58 2674.39 623.41C2668.36 621.88 2661.66 620.73 2655.41 621.14C2632.67 622.64 2602.95 637.15 2589.06 655.48C2566.94 684.67 2576.12 714.73 2583.17 747.02C2587.51 766.89 2590.32 788.4 2587.65 808.68M2590.65 808.18C2591.41 812.19 2591.12 815.78 2593.22 819.95C2594.63 822.74 2596.38 825.02 2598.76 827.05C2600.3 828.37 2606.46 834.35 2609.01 833.26C2610.95 832.43 2610.48 824.94 2610.47 823.39C2610.4 814.76 2600.27 801.67 2590.54 806.52M2593.56 790.95C2591.29 792.55 2598.65 799.62 2599.39 800.29C2605.08 805.51 2612 810.54 2619.59 812.46C2620.82 812.77 2625.34 814.23 2626.61 813.49C2627.4 813.04 2627.14 809.57 2627.14 808.96C2627.14 804.62 2626.99 799.65 2625.46 795.55C2621.28 784.32 2603.69 778.02 2593.22 783.42M2588.44 758.15C2587.58 758.14 2589.21 760.74 2589.32 760.93C2591.22 763.92 2593.97 766.4 2596.72 768.6C2603.06 773.67 2611.26 775.87 2619.18 776.99C2621.79 777.35 2624.43 777.52 2627.06 777.43C2627.87 777.4 2629.6 778.2 2629.49 777.4C2629.01 774.03 2625.5 769.59 2623.81 766.79C2616.25 754.27 2602.17 739.48 2586.1 747.26M2580.28 712.3C2581.26 713.47 2581.65 715.46 2582.65 716.77C2586.53 721.88 2591.66 726.26 2597.14 729.58C2601.42 732.19 2606.14 733.78 2611 734.92C2613.75 735.56 2616.61 736.03 2619.44 736.12C2621.54 736.2 2623.59 735.94 2625.63 735.48C2626.28 735.33 2632.61 734.24 2632.78 733.38C2632.96 732.51 2629.98 728.96 2629.54 728.29C2626.21 723.24 2622.56 718.35 2618.35 713.99C2608.3 703.55 2594.18 698.69 2579.88 702.38M2589.37 667.91C2588.43 668.25 2589.51 671.51 2589.63 671.86C2590.88 675.61 2593.08 678.94 2595.43 682.1C2602.79 692.04 2614.58 700.08 2627.1 701.4C2629.27 701.63 2631.48 701.64 2633.66 701.57C2634.93 701.53 2636.2 701.46 2637.46 701.34C2642.06 700.93 2642.45 699.46 2640.44 695.39C2639.68 693.87 2638.94 692.34 2638.14 690.84C2636.51 687.79 2634.7 684.81 2632.75 681.95C2623.71 668.64 2611.37 662.31 2595.61 661.11M2613.5 642.49C2612.41 642.59 2613.25 646.54 2613.32 646.88C2614.32 651.98 2617.34 656.8 2620.41 660.89C2628.26 671.34 2641.16 679.35 2654.08 681.82C2654.49 681.89 2656.88 682.55 2657.21 682.27C2657.66 681.89 2657.08 678.79 2657.05 678.35C2656.74 673.17 2655.78 668.12 2654.18 663.18C2650.46 651.7 2639.38 639.7 2627.8 635.83M2646.44 628.78C2641.49 629.46 2646.25 639.74 2647.15 641.46C2651.29 649.37 2657.59 656.08 2665.64 660.03C2666.51 660.46 2672.83 663.9 2673.81 663.02C2674.42 662.49 2674.1 660.4 2674.1 659.75C2674.1 656.68 2673.81 653.61 2673.45 650.56C2673 646.86 2672.54 643.01 2671.06 639.57C2668.82 634.32 2664.94 629.87 2660.72 626.12M2671.73 625.48C2670.56 624.91 2672.17 631.92 2672.27 632.24C2674.32 638.64 2677.6 645.11 2683.4 648.81C2683.97 649.17 2688.7 652.33 2689.42 651.76C2690.61 650.82 2689.43 644.36 2689.27 643.14C2688.03 633.78 2683.27 626.87 2674.39 623.69M2654.93 624.18C2655.04 624.12 2653.19 623.27 2653.11 623.24C2651.87 622.77 2650.61 622.34 2649.37 621.84C2645.03 620.1 2640.88 617.77 2637.2 614.88C2629.25 608.66 2624.53 598.74 2622.98 588.86C2622.61 586.56 2621.91 579.73 2623.84 577.63C2624.33 577.11 2626.74 578.78 2627.15 579.01C2630.25 580.71 2633.3 582.51 2636.27 584.42C2645.65 590.42 2652.66 599.25 2656.93 609.5C2658.47 613.22 2660.43 618.04 2659.92 622.16M2626.12 629.12C2623.81 631.02 2618.71 630.47 2616 630.12C2603.94 628.57 2597.73 618.95 2593.24 608.65C2591.68 605.08 2590.16 601.48 2589.13 597.72C2589.07 597.5 2588.12 594.12 2588.27 594.09C2591.56 593.44 2597.94 596.72 2601.19 597.53C2604.43 598.33 2607.66 599.15 2610.69 600.6C2615.41 602.84 2619.92 606.19 2623.21 610.28C2627.07 615.06 2631.31 622.16 2632.23 628.34M2602.95 645.62C2603.61 645.54 2601.9 646.45 2601.29 646.71C2599.92 647.31 2598.47 647.72 2597.01 648.02C2592.97 648.85 2588.66 649.11 2584.56 648.72C2572.98 647.63 2566.72 637.95 2560.78 629.1C2560.13 628.14 2554.98 622.9 2555.45 621.49C2555.57 621.12 2558.41 620.78 2558.68 620.73C2562.7 619.97 2566.77 619.75 2570.86 619.72C2585.43 619.6 2595.39 622.71 2605.92 632.64C2608.04 634.65 2613.96 639.45 2613.24 643.01M2583.49 673.14C2584.11 673.9 2582.58 676.11 2582.21 676.6C2579.7 679.97 2575.98 682.66 2572.06 684.1C2561.3 688.04 2547.76 681.87 2538.12 677.04C2537.54 676.75 2536.96 676.43 2536.39 676.12C2536.1 675.96 2529.3 672.46 2529.4 671.66C2529.97 667.17 2538.76 661.71 2541.87 659.52C2556.01 649.58 2580.2 645.24 2592.5 661.19M2580.69 712.72C2579.72 713.27 2577.61 717.38 2576.53 718.48C2572.67 722.37 2568.01 725.53 2563.02 727.81C2559.57 729.38 2555.83 730.76 2552.12 731.55C2549.54 732.1 2546.91 732.37 2544.28 732.42C2541.32 732.48 2538.79 731.63 2535.92 731.3C2535.74 731.27 2533.89 731.51 2533.86 731.41C2533.43 729.94 2534.84 727.56 2535.35 726.33C2537.23 721.84 2539.42 717.5 2542 713.37C2545.74 707.41 2549.97 699.98 2555.74 695.75C2562.29 690.97 2572.01 691.78 2578.55 696.21M2587.09 747.78C2585.84 745.91 2580.54 744.85 2578.68 744.56C2568.4 742.97 2558.58 747.46 2551.58 754.88C2550.3 756.23 2549.1 757.67 2547.93 759.12C2547.22 760 2546.77 760.6 2546.13 761.51C2543.34 765.46 2543.83 766.8 2548.36 768.37C2549.68 768.83 2550.14 768.98 2551.54 769.32C2554.2 769.96 2556.93 770.35 2559.64 770.59C2563.78 770.95 2568.3 771.18 2572.35 770.03C2577.82 768.48 2583.47 764.57 2587.49 760.56M2591.36 782.04C2591.5 781.35 2589.99 780.22 2589.58 779.89C2587.28 778.11 2584.04 777.32 2581.23 776.9C2573.49 775.73 2564.91 778.07 2558.43 782.42C2557.58 782.99 2552.78 786.04 2552.88 787.42C2553 788.91 2558.41 791.66 2559.4 792.21C2561.22 793.2 2563.12 793.98 2565.13 794.49C2568.22 795.28 2571.49 795.62 2574.68 795.61C2579.77 795.59 2585.36 794.41 2589.64 791.52M2589.72 801.48C2589.75 801.49 2588.75 800.57 2588.58 800.48C2587.87 800.1 2587.09 799.87 2586.3 799.74C2584.12 799.35 2581.9 799.35 2579.72 799.73C2573.93 800.72 2568.37 804.1 2564.34 808.33C2563.18 809.55 2561.35 811.67 2561.59 813.55C2561.85 815.57 2567.21 815.03 2568.48 814.95C2575.63 814.51 2581.87 811.37 2587.17 806.6M2588.96 809.29C2589.21 809.02 2585.02 812.81 2584.24 813.85C2581.32 817.7 2579.32 821.99 2578.87 826.83C2578.78 827.79 2578.53 830.25 2579.39 831.11C2579.52 831.24 2580.72 830.47 2580.82 830.41C2582.44 829.35 2583.93 828.13 2585.25 826.72C2590.11 821.53 2592.62 814.97 2590.99 807.87M2700.11 2861.26C2689.35 2865.75 2666.37 2848.7 2659.83 2842.97C2637.35 2823.26 2596.9 2747.62 2624.04 2718.42C2628.1 2714.05 2662.34 2744.67 2665.66 2747.61C2699.05 2777.17 2726.15 2817.46 2703.89 2861.93M2039.42 3050.02C2041.56 3050.87 2031.32 3045.28 2030.3 3044.52C2024.24 3040.01 2018.72 3034.96 2013.35 3029.66C2001.14 3017.63 1975.46 2978.68 2002.13 2966.83C2048.13 2946.39 2039.76 3026.18 2039.76 3049.36" />
			<path id="dark brown leaves" class="shp4" d="M113.09 2605.6C114.08 2607.23 111.85 2602 111.06 2600.27C109.5 2596.86 107.54 2593.68 105.58 2590.48C99.14 2579.99 92.12 2569.87 85.73 2559.34C67.95 2530.07 50.81 2503.29 67.04 2469.26C71.45 2460.01 81.41 2448.52 92.1 2446.74C114.49 2443.01 131.31 2466.14 136.25 2484.73C147.3 2526.26 123.64 2566.53 120.51 2607.32M136.58 2596.35C132.48 2572.88 149 2543.06 162.33 2524.8C168.41 2516.47 176.11 2507.89 186.64 2505.6C210.51 2500.4 203.12 2533.24 193.02 2543.23C174.57 2561.51 152.33 2572.3 138.8 2595.79M2852.82 1778.93C2858.55 1779.54 2838.18 1778.89 2836.31 1778.65C2827.06 1777.47 2803.42 1771.33 2801.39 1759.57C2800.66 1755.35 2810.59 1760.28 2814.65 1758.55C2820.32 1756.15 2819.45 1748.1 2816.69 1744.1C2806.09 1728.77 2791.6 1746.12 2779.33 1746.54C2761.28 1747.16 2743.85 1720.6 2740.09 1706.1C2739.18 1702.59 2770.04 1712.73 2765.81 1691.11C2761.03 1666.65 2734.24 1688.68 2721.61 1682C2710.9 1676.33 2712.22 1654.3 2711.44 1644.39C2711.07 1639.65 2707.26 1624.4 2711.68 1620.13C2715.39 1616.56 2730.96 1615.76 2735.78 1615.03C2742.27 1614.04 2748.76 1613.22 2755.31 1612.75C2760.96 1612.34 2766.6 1612.2 2772.24 1612.59C2804.99 1614.88 2776.72 1644.31 2795.04 1650.2C2812.89 1655.94 2801.5 1627.84 2813.76 1626.96C2817.69 1626.68 2821.74 1627.21 2825.48 1628.37C2860.49 1639.27 2824.57 1660.28 2839.07 1670.77C2852.85 1680.74 2866.9 1659.71 2880.67 1675.48C2909.65 1708.68 2939.51 1779.59 2866.18 1779.59M2061.22 3036.54C2057.91 3039.8 2059.58 3027.41 2058.8 3022.84C2057.04 3012.61 2055.53 3002.34 2054.29 2992.03C2051.41 2968.18 2051.79 2892.69 2094.89 2901.47C2111.26 2904.81 2113.39 2925.15 2111.51 2938.56C2106.66 2973.04 2078.32 2995.87 2066.83 3027.46M2852.95 105.34C2851.6 108.34 2847.78 101.18 2844.79 99.81C2839.46 97.37 2833.81 95.54 2828.21 93.85C2808.73 87.97 2789.2 86.41 2769.42 91.57C2748.64 96.99 2788.12 113.74 2769.91 125.45C2753.92 135.73 2741.87 118.45 2736.02 106.75C2734.63 103.98 2708.43 121.07 2706.87 122.19C2701.91 125.73 2697.44 129.8 2693.48 134.43C2690.95 137.39 2688.71 140.55 2686.62 143.82C2685.01 146.35 2683.49 148.91 2682.13 151.58C2672.39 170.71 2711.14 151.27 2708.34 172.64C2705.32 195.69 2678.64 179.66 2668.08 183.18C2665.59 184.01 2661.67 196.87 2660.81 198.94C2654.84 213.33 2648.27 229.35 2648.97 245.23C2649.9 266.14 2675.02 239.87 2680.82 260.17C2684.57 273.28 2654.42 280.76 2654.44 280.99C2655.64 290.56 2665.87 336.61 2680.66 334.64C2686.7 333.83 2693.72 325.09 2697.64 321.33C2709.85 309.6 2734.94 291.99 2737.98 273.73C2738.62 269.91 2714.74 266.57 2726.79 251.44C2733.7 242.76 2746.21 243.02 2754.8 249.07C2757.17 250.74 2756.56 256.42 2759.46 256.42C2768.42 256.42 2784.99 230.67 2788.93 222.78C2789.82 221 2781.76 215.64 2780.69 214.37C2773.77 206.14 2768.54 190.26 2778.89 182.12C2792.92 171.07 2804.9 202.44 2805.84 202.04C2809.6 200.43 2832.51 187.27 2831.89 183.5C2830.81 177.03 2815.94 164.34 2824.29 157.29C2833.35 149.66 2841.01 158.64 2847.89 159.17C2858.18 159.96 2878.66 128.3 2878.1 118.92M926.86 29.55C927.87 31 923.31 29.79 921.56 30.1C918.13 30.7 914.84 31.64 911.54 32.75C905.28 34.86 876.29 45.94 876.29 55.32C876.29 61.09 897.26 63.08 895.59 73.66C893.44 87.25 873.55 75.24 869.48 88.29C868.21 92.39 867.13 96.53 866.46 100.77C866.01 103.62 865.71 106.47 865.57 109.35C864.71 127.14 883.65 108.69 891.99 124.41C897.24 134.31 882.03 135 882.03 138.98C882.03 140.9 889.18 147.18 890.35 148.5C897.22 156.23 909.41 173.6 920.36 176.17C922.24 176.61 927.26 168.99 928.25 167.79C935.4 159.1 946.95 146.73 948.42 134.94C948.92 130.99 928.96 129.38 941.42 116.6C948.71 109.13 954.7 120.61 957.69 119.12C966.57 114.68 967.03 97.08 969.73 88.98C969.9 88.48 947.81 83.74 952.84 74.29C959.09 62.54 969.09 69.32 977.05 66.67C977.57 66.49 980.05 51.43 980.33 50.27C981.1 47 982.72 42.94 982.03 39.49C980.77 33.22 961.17 39.5 963.43 27.07C964.34 22.04 969.92 18.06 974.84 18.06C977.57 18.06 981.93 23.29 982.6 20.64C993.02 -21.06 932.85 12.6 919.92 24.24" />
		</g>
	</g>
</svg>