<svg version="1.2" baseProfile="tiny-ps" xmlns="http://www.w3.org/2000/svg" viewBox="0 0 4468 2928" width="4468" height="2928">
	<title>orange flowers</title>
	<style>
		tspan { white-space:pre }
		.shp0 { opacity: 0.502;fill: #367a91 } 
		.shp1 { opacity: 0.502;fill: #c0ba3e } 
		.shp2 { opacity: 0.6;fill: #65b6a5 } 
		.shp3 { opacity: 0.502;fill: #f99362 } 
	</style>
	<path id="blue leaves" class="shp0" d="M1439.89 2677.53C1441.22 2678.22 1438.79 2674.72 1438.36 2673.28C1437.26 2669.63 1436.52 2665.83 1436.14 2662.04C1435.11 2651.9 1434.28 2636.64 1439.05 2627.08C1439.49 2626.18 1440.09 2628.79 1440.65 2629.61C1441.63 2631.04 1442.9 2632.27 1444.36 2633.21C1447.7 2635.37 1451.97 2634.25 1454.26 2631.1C1461.08 2621.73 1452.13 2620.68 1447.53 2616.08C1446.99 2615.53 1451.11 2608.4 1451.35 2607.95C1454.18 2602.6 1460.64 2587.78 1466.76 2584.72C1468.3 2583.94 1467.99 2587.96 1468.82 2589.47C1470.56 2592.61 1473.47 2596.85 1477.61 2594.88C1483.06 2592.28 1483.19 2586.09 1480.44 2581.5C1479.6 2580.09 1476.12 2579.62 1476.85 2578.16C1480.54 2570.75 1499.93 2567.04 1507.43 2565.7C1508.49 2565.51 1515.61 2563.25 1516.6 2564.24C1517.75 2565.4 1516.06 2576.02 1516.03 2577.55C1515.84 2585.91 1515.35 2599.93 1508.69 2606.61C1506.42 2608.88 1498.4 2603.12 1496.57 2611.51C1494.06 2623.07 1508.7 2618.16 1506.47 2627.08C1504.13 2636.47 1496.76 2644.13 1490.92 2651.5C1490.15 2652.47 1486.3 2658.94 1484.8 2658.94C1484.59 2658.94 1481.7 2655.65 1481.25 2655.33C1476.21 2651.81 1471.62 2651.13 1467.18 2655.95C1458.52 2665.34 1475.37 2664.58 1472.61 2671.28C1468.86 2680.37 1458.35 2682.36 1449.56 2682.36C1448.84 2682.36 1439.08 2682.86 1439.08 2680.83M1440.29 2685.32C1435.8 2686.09 1427.66 2680.09 1424.21 2677.92C1409.84 2668.84 1395.35 2651.97 1389.89 2635.55C1389.59 2634.66 1391.58 2636.4 1392.49 2636.63C1394.33 2637.07 1396.36 2636.65 1397.8 2635.4C1400.96 2632.65 1401.64 2626.98 1398.15 2624.17C1394.94 2621.58 1388.3 2625.75 1387.37 2625.05C1380.2 2619.65 1380.75 2602.46 1380.52 2594.76C1380.48 2593.21 1379.4 2587.48 1380.45 2585.9C1381.14 2584.86 1390.05 2589.22 1391 2589.66C1399.47 2593.6 1415.38 2602.76 1418.63 2612.55C1419.28 2614.48 1412.87 2618.08 1416.3 2622.79C1419.03 2626.52 1426.16 2626.23 1426.16 2620.6C1426.16 2619.78 1426.97 2622.04 1427.39 2622.75C1428.18 2624.09 1428.95 2625.44 1429.76 2626.77C1431.99 2630.47 1434.58 2634.22 1436.14 2638.27C1438.75 2645.07 1428.49 2646.69 1432.2 2654.34C1435.06 2660.21 1440.92 2655.3 1442.56 2656.94C1448.94 2663.34 1443.66 2678.32 1442.56 2686M1342.89 99.31C1342.87 99.31 1343.7 97.32 1343.71 97.28C1344.27 95.99 1344.87 94.73 1345.49 93.47C1348.95 86.49 1352.86 79.83 1358.05 73.98C1370.03 60.46 1385.62 52.18 1402.83 47.36C1406.81 46.25 1416.52 42.79 1420.96 44.27C1421.35 44.4 1418.06 49.64 1417.88 49.92C1414.18 55.65 1410.03 61.11 1405.77 66.43C1390.6 85.38 1369.5 95.02 1346.02 99.43M1343.83 99.4C1344.83 98.86 1342.2 97.75 1341.76 96.7C1340.73 94.2 1339.92 91.63 1339.18 89.03C1337 81.42 1335.02 73.77 1334.59 65.83C1333.65 48.36 1338.65 28.19 1348.31 13.45C1350.81 9.65 1353.93 6.67 1357.1 3.49C1357.29 3.3 1359.42 0.85 1359.71 1C1360.05 1.17 1359.48 6.73 1359.47 7.08C1359.32 13 1359.51 18.96 1359.74 24.88C1360.33 39.72 1361.99 56.57 1357.86 70.99C1354.99 80.98 1349.05 89.23 1343.57 97.86M1342.81 100.14C1343.37 99.56 1341.32 100.8 1340.52 100.89C1339.02 101.06 1337.34 100.68 1335.89 100.32C1330.65 99.05 1325.22 96.73 1321.31 92.92C1310.9 82.77 1307.11 69.5 1303.89 55.65C1303.3 53.1 1299.98 44.54 1301.31 41.9C1301.4 41.7 1302.9 42.98 1303 43.06C1304.29 44.05 1305.59 45.03 1306.94 45.92C1311.06 48.64 1315.34 51.11 1319.45 53.86C1334.43 63.92 1347.37 83.19 1345.81 102M3707.27 110.59C3708.35 111.52 3709.96 107.3 3710.17 106.86C3712.15 102.68 3713.35 98.09 3713.72 93.49C3715.04 77.1 3705.91 62.85 3696.07 50.48C3695.3 49.51 3687.11 38.85 3685.75 39.49C3682.61 41 3682.57 55.83 3682.55 58.3C3682.39 77.09 3688.2 98.64 3705.41 109.04M3717.77 108.31C3717.01 108.95 3718.57 104.12 3719.56 102.45C3721.61 99 3723.98 95.73 3726.6 92.7C3736.07 81.73 3748.4 76.58 3762.45 74.41C3763.12 74.31 3781.07 71.77 3781.09 72.56C3781.47 90.88 3761.95 114.3 3745.09 119.27C3739.01 121.07 3717.96 120.46 3715.77 111.48M3718.3 105.66C3718.74 105.91 3726.77 96.84 3727.35 96.03C3736 84.15 3739.03 68.29 3735.16 54.16C3734.84 52.98 3731.12 39.89 3729.52 40.04C3727.46 40.24 3722.1 56.15 3721.28 57.99C3714.44 73.3 3704.93 94.7 3715.04 110.77M2981.49 1234.35C2981.85 1234.33 2983.13 1233.09 2982.84 1232.97C2980.84 1232.12 2976.71 1232.56 2974.53 1232.51C2967.55 1232.36 2960.51 1232.96 2953.75 1234.3C2952.56 1234.54 2945.71 1235.81 2945.17 1237.26C2943.97 1240.5 2952.6 1244.49 2952.6 1247.33C2952.6 1247.51 2949.72 1247.19 2949.51 1247.17C2947.05 1246.9 2943.59 1245.51 2941.06 1245.94C2937.96 1246.47 2934.54 1254.46 2933.45 1256.25C2932.1 1258.46 2930.83 1260.7 2929.61 1262.94C2928.9 1264.25 2928.21 1265.55 2927.55 1266.87C2924.75 1272.47 2925.89 1273.21 2932.77 1275.97C2933.26 1276.16 2937 1277.17 2937.11 1277.53C2937.26 1278.05 2929.62 1278.54 2929.27 1279.16C2926.61 1283.83 2928.66 1292.79 2929.57 1297.61C2929.81 1298.91 2930.07 1302.91 2931.64 1303.91C2932.71 1304.6 2938.35 1300.91 2938.99 1300.55C2944.29 1297.6 2949.43 1294.41 2954.11 1290.89C2955.2 1290.06 2958.43 1288.25 2958.84 1286.99C2959.01 1286.45 2951.87 1284.34 2952.2 1283.31C2952.21 1283.27 2954.75 1283.81 2954.9 1283.83C2957.35 1284.3 2961.34 1285.9 2962.98 1283.95C2967.97 1278.03 2973.65 1270.24 2974.76 1263.13C2974.95 1261.9 2968.07 1259.41 2968.63 1258.54C2969.22 1257.63 2976.01 1260.1 2977.06 1259.21C2977.87 1258.52 2977.79 1253 2978.04 1251.99C2979.46 1246.11 2982.44 1240.05 2982.99 1234.07M2980.93 1232.6C2981.03 1232.55 2977.73 1231.68 2977.44 1231.61C2975.1 1231.06 2972.83 1230.46 2970.59 1229.7C2963.59 1227.3 2951.6 1223.9 2947.36 1218.47C2947.24 1218.32 2952.54 1213.76 2952.99 1213.28C2953.02 1213.25 2954.31 1211.93 2954.16 1211.86C2953.46 1211.54 2951.58 1211.92 2950.86 1211.98C2944.79 1212.52 2943.21 1213.51 2941.27 1209.07C2940.81 1208.02 2940.34 1206.97 2939.88 1205.93C2937.6 1200.76 2935.42 1195.45 2934 1190.11C2933.98 1190.04 2933.07 1185.85 2933.13 1185.85C2937.41 1185.85 2937.77 1185.74 2942.25 1183.75C2942.59 1183.6 2945.31 1182.69 2945.15 1182.23C2944.39 1179.87 2935.53 1182.02 2934.73 1180.79C2934.29 1180.12 2935.34 1178.21 2935.49 1177.5C2936.15 1174.3 2936.62 1171.06 2937.37 1167.87C2937.46 1167.48 2937.89 1164.18 2938.31 1164.02C2938.84 1163.81 2942.81 1165.97 2943.34 1166.2C2948.38 1168.4 2953.11 1170.97 2957.59 1173.79C2957.89 1173.98 2962.14 1176.23 2961.96 1176.63C2961.77 1177.08 2957.35 1179.99 2957.89 1180.31C2959.75 1181.41 2964.03 1180.02 2966.2 1180.57C2966.77 1180.72 2967.97 1184.87 2968.11 1185.22C2969.84 1189.5 2971.79 1193.88 2973.2 1198.2C2973.56 1199.34 2966.84 1203.47 2967.52 1204C2968.83 1205 2974.95 1202.95 2975.55 1203.56C2977.21 1205.26 2976.97 1209.02 2977.15 1210.98C2977.7 1216.79 2978.16 1222.6 2978.68 1228.41M2973.27 1228.64C2964.95 1224.47 2954.12 1221.19 2944.42 1219.69C2941.94 1219.3 2936.71 1217.83 2934.07 1218.64C2932.85 1219.02 2932.64 1224 2932.49 1224.92C2932.48 1224.96 2932.35 1226.49 2932.34 1226.5C2930.54 1226.77 2929.18 1221.06 2927.74 1220.69C2926.28 1220.31 2923.69 1221.04 2922.31 1221.28C2916.84 1222.24 2911.54 1223.58 2906.45 1225.4C2905.79 1225.63 2901.31 1226.8 2900.89 1227.45C2900.16 1228.57 2906.1 1232.2 2905.71 1233.7C2905.67 1233.85 2903.27 1232.49 2903.15 1232.42C2901.98 1231.71 2898.23 1228.76 2896.5 1229.54C2890.07 1232.42 2885.85 1237.85 2881.8 1242.46C2881.6 1242.69 2877.74 1247.51 2878.01 1247.62C2880.42 1248.55 2884.12 1248.65 2886.73 1249.02C2894.53 1250.14 2904.94 1251.37 2912.66 1248.99C2913.11 1248.86 2910.71 1244.09 2911.06 1244.07C2913.17 1243.94 2916.31 1247.02 2918.34 1247.65C2921.61 1248.67 2928.5 1244.89 2931.02 1243.68C2933.42 1242.52 2937.99 1240.91 2939.54 1238.93C2939.97 1238.37 2939.3 1234.53 2939.67 1234.46C2941 1234.24 2942.85 1237.55 2944.74 1237.39C2953.14 1236.7 2962.12 1231.93 2968.82 1228.31M3745.53 2394.17C3744.57 2392.78 3737.63 2394.34 3736.41 2394.5C3728.79 2395.49 3712.14 2396.86 3706.26 2402.76C3704.32 2404.71 3716.06 2415.86 3710.23 2419.89C3706.69 2422.32 3700.86 2421.52 3697.81 2418.72C3697.23 2418.19 3693.19 2411.6 3692.95 2411.74C3684.01 2416.87 3669.8 2433.87 3669.8 2444.75C3669.8 2445.17 3679.18 2445.92 3678.02 2451.09C3676.26 2458.95 3668.82 2457.51 3663.03 2457.51C3662.64 2457.51 3662.43 2464.88 3662.43 2465.33C3662.32 2474.1 3663.78 2483.38 3668.52 2490.94C3671.76 2496.09 3673.62 2492.74 3678.47 2489.47C3685.59 2484.68 3693.75 2478.69 3697.7 2470.77C3698.56 2469.04 3686.89 2464 3692.5 2459.66C3698.66 2454.88 3702.2 2461.48 3706.56 2460.86C3709.38 2460.45 3712.7 2455.79 3714.38 2453.95C3719.15 2448.71 3726.84 2440.81 3728.63 2433.63C3729.2 2431.35 3720.44 2428.82 3725.37 2423.72C3730.32 2418.6 3733.98 2425.33 3736.85 2424.24C3745.57 2420.96 3751.52 2401.6 3748.22 2393.34M3754.49 2398.81C3744.56 2403.48 3741.48 2425.7 3739.29 2435.96C3739.13 2436.67 3735.89 2449.09 3736.89 2449.59C3739.57 2450.93 3745.44 2444.13 3747.48 2451.36C3749.45 2458.35 3743.03 2459.09 3739.81 2462.32C3738.91 2463.23 3741.18 2468.63 3741.49 2469.49C3744.47 2477.81 3749.21 2484.62 3755.18 2491.05C3755.46 2491.35 3761.09 2497.38 3761.69 2496.98C3768.47 2492.44 3771.64 2474.95 3773.13 2467.84C3773.52 2465.98 3775.71 2460.07 3774.78 2458.19C3773.72 2456.06 3764.44 2459.95 3763.67 2452.82C3763.11 2447.66 3774.57 2444.7 3774.33 2443.51C3772.78 2435.72 3773.71 2426.42 3769.77 2419.29C3768.24 2416.53 3759.66 2420.94 3758.96 2414.74C3758.2 2408.04 3764.56 2408.67 3767.52 2405.69C3767.66 2405.56 3763.03 2399.59 3762.74 2399.2C3761.63 2397.71 3756.09 2389.28 3753.91 2389.28C3753.24 2389.28 3752.13 2398.08 3752 2398.78M3752.17 2387.24C3743.05 2382.55 3736.64 2372.05 3726.79 2367.28C3725.46 2366.63 3724.09 2366.05 3722.72 2365.51C3714.35 2362.21 3721.85 2375.88 3713.11 2376.36C3704.18 2376.86 3706.76 2368.07 3702.93 2366.15C3702.52 2365.94 3697.52 2369.33 3696.91 2369.64C3695.17 2370.53 3693.49 2371.53 3691.79 2372.5C3689.52 2373.78 3687.28 2375.11 3685.09 2376.51C3683.97 2377.24 3675.14 2382.08 3675.14 2383.72C3675.14 2386.7 3682.61 2388.8 3678.77 2394.09C3676.46 2397.29 3672 2397.81 3668.41 2397.24C3666.88 2397 3665.06 2394.83 3663.96 2395.93C3662.11 2397.79 3661.17 2402.24 3660.45 2404.64C3659.9 2406.47 3659.38 2408.31 3659.06 2410.2C3658.75 2412.06 3657.48 2416.86 3658.24 2418.76C3658.46 2419.31 3670.81 2413.53 3671.48 2413.2C3674.47 2411.75 3685.6 2408.42 3687.3 2405.02C3689.32 2400.97 3685.44 2394.9 3692.61 2393.52C3697.45 2392.6 3696.94 2397.59 3699.45 2398.86C3701.96 2400.12 3709.64 2397.03 3712.1 2396.34C3714.37 2395.7 3719.84 2394.76 3721.33 2392.51C3722.84 2390.25 3719.12 2385.49 3725.26 2385.49C3731.73 2385.49 3728.98 2393.33 3731.32 2394.5C3736.83 2397.27 3747.51 2394.54 3752.45 2391.23" />
	<path id="tellow leaves" class="shp1" d="M149.78 1403.58C133.6 1375.37 115.89 1352.82 92.37 1329.93C81.14 1319.01 69.63 1308.35 58.8 1297.03C47.12 1284.82 34.43 1270.71 30.85 1253.72C30.42 1251.66 27.38 1241.61 29.05 1239.7C30.89 1237.6 31.39 1244.77 32.6 1247.29C34.62 1251.5 36.68 1255.69 38.77 1259.86C45.66 1273.66 53.49 1287.76 64.61 1298.62C98.2 1331.42 146.07 1355.51 153.35 1406.85M149.57 1392.71C148.12 1392.48 150.51 1382.68 150.67 1381.89C152.13 1374.54 153.3 1366.94 156.06 1359.93C157.25 1356.92 160.93 1347.88 159.8 1356.35C159.63 1357.65 159.46 1358.95 159.29 1360.26C159 1362.36 158.75 1364.47 158.49 1366.58C157.99 1370.56 157.26 1374.54 156.46 1378.47C155.39 1383.68 154.19 1390.8 150.13 1394.7M143.55 1380.23C141.43 1379.21 142.12 1372.06 142.11 1370.46C142.1 1362.16 142.85 1354.01 145.69 1346.16C145.95 1345.44 149.69 1335.96 151.02 1336.42C151.2 1336.48 150.51 1341.49 150.49 1341.7C150.37 1342.86 150.26 1344.03 150.14 1345.19C149.91 1347.33 149.67 1349.46 149.47 1351.59C149.12 1355.52 148.84 1359.47 148.39 1363.39C147.69 1369.65 146.3 1375.52 144.38 1381.48M134.4 1366.21C134.18 1366.41 133.1 1362.72 133.03 1362.41C132.01 1357.83 131.8 1352.96 131.84 1348.28C131.93 1339.01 133.92 1329.77 136.91 1321.02C137.49 1319.33 138.46 1314.16 140.02 1312.97C140.51 1312.59 139.95 1314.2 139.94 1314.81C139.91 1316.12 139.95 1317.43 139.97 1318.74C140.05 1322.28 140.16 1325.8 140.31 1329.33C140.78 1340.76 141.65 1353.32 135.68 1363.55M125.4 1354.23C125.29 1354.54 124.03 1352.28 124.01 1352.24C123.38 1351.06 122.75 1349.87 122.24 1348.63C120.64 1344.76 119.52 1340.53 118.79 1336.42C116.7 1324.74 117.48 1312.27 120.57 1300.84C121.2 1298.53 121.92 1293.16 123.99 1291.4C124.5 1290.96 124.11 1292.75 124.12 1293.43C124.13 1295.19 124.19 1296.95 124.29 1298.7C124.56 1303.17 124.97 1307.64 125.42 1312.09C126.87 1326.26 127.14 1338.55 123.71 1352.4M109.52 1339.9C109.58 1339.99 108.72 1339.14 108.64 1339.02C108.03 1338.18 107.51 1337.27 107.07 1336.32C105.86 1333.7 105.18 1330.87 104.53 1328.06C102.12 1317.49 101.57 1306.79 104.87 1296.31C105.68 1293.75 106.81 1291.25 107.97 1288.83C107.99 1288.79 109.26 1286.3 109.44 1286.41C109.56 1286.48 109.28 1289.35 109.29 1289.5C109.46 1292.34 109.74 1295.18 109.98 1298.01C111.09 1310.84 113.27 1324.63 110.02 1337.34M95.11 1326.81C92.71 1325.86 91.73 1321.65 91.12 1319.47C88.67 1310.72 87.78 1301.92 89.51 1292.94C89.67 1292.1 91.53 1283.28 92.85 1283.27C92.94 1283.27 93.6 1286.62 93.65 1286.8C94.62 1290.48 95.47 1294.2 96.21 1297.94C96.98 1301.84 97.63 1305.78 97.91 1309.75C98.28 1315.21 97.31 1320.37 95.62 1325.54M81.88 1316.57C81.11 1316.72 79.7 1314.68 79.35 1314.25C76.66 1310.88 75.39 1306.45 74.4 1302.33C72 1292.26 72.02 1281.57 75.67 1271.79C76.37 1269.94 77.2 1268.17 78.08 1266.4C78.82 1264.88 78.76 1265.02 79.56 1263.49C84.06 1254.86 82.84 1266.01 83.43 1270.96C83.73 1273.52 84.02 1276.08 84.27 1278.64C84.75 1283.42 85.32 1288.19 85.57 1292.98C85.95 1299.97 85.89 1307.56 82.97 1314.07M66.15 1300.21C65.56 1301.24 63.88 1296.89 63.85 1296.77C62.75 1292.62 62.23 1288.23 61.96 1283.95C61.34 1274.12 63.88 1264.34 67.76 1255.38C68.43 1253.83 69.85 1248.85 71.68 1248.06C71.79 1248.01 71.73 1249.78 71.73 1249.88C71.7 1251.2 71.71 1252.52 71.72 1253.85C71.75 1257.73 71.7 1261.61 71.61 1265.49C71.33 1277.44 70.94 1289.71 66.76 1301.07M54.39 1287.89C54.44 1288.2 52.84 1285.15 52.73 1284.64C52.31 1282.76 52.19 1280.78 52.09 1278.86C51.61 1269.62 52.55 1260.49 55.74 1251.76C55.87 1251.39 59.56 1242.98 59.93 1243.27C61.2 1244.28 60.58 1253.78 60.68 1255.24C61.31 1263.73 62.06 1272.31 60.97 1280.8C60.53 1284.2 59.9 1288.52 57.17 1290.94M45.62 1277.07C45.55 1277.14 43.83 1274.37 43.78 1274.25C42.27 1270.91 41.97 1267.07 41.76 1263.46C41.25 1254.58 42.24 1245.43 45.44 1237.1C46.18 1235.18 47.1 1233.34 48.03 1231.51C48.61 1230.36 49.25 1227.05 49.94 1228.14C50.86 1229.57 49.98 1234.72 49.99 1236.3C50.01 1238.75 50.06 1241.19 50.07 1243.63C50.09 1247.38 49.98 1251.11 49.76 1254.84C49.34 1261.88 48.67 1268.86 46.38 1275.56M36.2 1256.97C34.55 1257.07 34.89 1247.66 34.9 1247.1C35.12 1239.39 36.02 1231.66 38.38 1224.29C38.83 1222.91 39.07 1222.25 39.62 1220.96C41.2 1217.24 42.45 1220.41 42.74 1224.57C42.88 1226.71 42.98 1228.85 42.99 1231C43 1235.27 42.87 1239.54 42.54 1243.79C42.12 1249.1 41.38 1254.88 38.9 1259.68M30.33 1243.4C27.87 1244.16 25.57 1235.39 25.21 1234.13C23.41 1227.7 23.97 1220.87 25.64 1214.49C26.02 1213.05 26.45 1211.64 26.96 1210.24C27.14 1209.74 27.51 1208.79 27.73 1208.28C30.36 1201.96 29.79 1210.89 30.08 1213.68C30.25 1215.39 30.42 1217.11 30.56 1218.82C30.82 1221.89 30.98 1224.96 31.15 1228.03C31.43 1232.85 31.44 1237.61 30.15 1242.3M33.46 1255.1C33.28 1255.03 29.84 1257.13 29.14 1257.19C25.3 1257.55 21.13 1256.15 17.76 1254.44C12.29 1251.66 8.11 1247.73 4.75 1242.65C4.61 1242.43 1.84 1238.59 2.09 1238.33C2.23 1238.2 3.56 1238.84 3.65 1238.88C5.68 1239.63 7.74 1240.28 9.77 1241.03C18.02 1244.09 26 1247.67 31.96 1254.34M29.84 1246.74C30.21 1246.81 28.13 1247.21 27.56 1247.06C26.1 1246.65 24.72 1245.99 23.42 1245.21C18.24 1242.11 13.78 1238.08 10.33 1233.13C10.05 1232.73 6.9 1228.36 7.56 1227.71C7.84 1227.44 13.08 1231.25 13.45 1231.49C19.01 1235.09 25.07 1238.64 28.56 1244.47M37.05 1265.66C29.47 1275.54 13.29 1267.52 5.92 1260.98C4.28 1259.51 1.2 1257.3 0.28 1255.18C0.12 1254.8 1.06 1255.45 1.45 1255.59C2.19 1255.86 2.93 1256.12 3.69 1256.36C6.12 1257.12 8.6 1257.73 11.07 1258.33C14.31 1259.12 17.56 1259.72 20.83 1260.33C25.79 1261.25 30.82 1262.97 34.95 1265.93M42.56 1276.14C43.3 1278.83 36 1279.73 34.83 1279.81C28.1 1280.28 20.63 1279.05 14.75 1275.61C13.75 1275.02 10.4 1273.09 10.08 1271.74C10 1271.37 10.84 1271.79 11.22 1271.84C11.88 1271.93 12.54 1272.01 13.2 1272.09C15.42 1272.34 17.64 1272.45 19.87 1272.54C22.77 1272.65 25.69 1272.71 28.59 1272.93C33.31 1273.29 37.84 1274.09 41.9 1276.62M51.45 1285.63C46.27 1294.84 31.63 1294.82 22.4 1292.94C19.05 1292.26 15.71 1291.24 12.62 1289.76C12.35 1289.64 9.81 1288.66 10.01 1288.12C10.33 1287.22 13.06 1287.47 13.69 1287.44C16.92 1287.26 20.15 1286.94 23.38 1286.71C26.64 1286.49 29.92 1286.17 33.19 1286.06C38.22 1285.9 43.78 1285.77 48.59 1287.44M57.8 1293.85C58.34 1293.7 56.6 1296.51 56.51 1296.61C55.04 1298.2 53.04 1299.19 51.06 1300C44.5 1302.7 35.78 1303.95 28.9 1301.74C28.24 1301.53 22.12 1299.73 22.16 1298.78C22.18 1298.46 24.02 1298.41 24.25 1298.38C26.62 1298.01 28.94 1297.42 31.27 1296.86C40.12 1294.7 48.76 1292.01 57.89 1294.08M65.41 1301.01C66.15 1301.99 64.9 1303.22 64.25 1303.89C62.05 1306.14 59.17 1307.76 56.4 1309.18C48.03 1313.5 40.68 1312.75 31.93 1310.44C30.02 1309.93 27.01 1309.7 25.27 1308.67C24.58 1308.26 26.82 1308.24 27.6 1308.05C29.49 1307.58 31.38 1307.09 33.27 1306.6C34.91 1306.17 36.56 1305.77 38.21 1305.4C41.68 1304.64 45.15 1303.86 48.63 1303.13C54.08 1301.99 59.17 1301.53 64.64 1302.61M74.24 1310.35C73.27 1310.4 69.84 1315.04 68.82 1315.78C64.78 1318.69 60.57 1320.81 55.6 1321.44C52.43 1321.84 49.23 1321.91 46.03 1321.81C42.57 1321.69 39.05 1321.31 35.66 1320.56C34.59 1320.31 33.53 1319.98 32.5 1319.58C32.06 1319.41 30.82 1319.32 31.2 1319.03C33.46 1317.3 37.97 1316.67 40.62 1315.79C50.53 1312.49 61.33 1309.54 71.83 1311.07M85.36 1319.63C85.43 1322.56 78.56 1326.5 76.54 1327.54C68.55 1331.65 59.9 1332.35 51.08 1332.52C48.72 1332.57 41.83 1333.35 39.69 1331.64C39.61 1331.58 41.99 1330.47 42.12 1330.41C43.97 1329.61 45.84 1328.87 47.72 1328.13C50.01 1327.24 52.32 1326.45 54.66 1325.7C58.56 1324.45 62.48 1323.24 66.43 1322.18C72.41 1320.58 78.23 1319.27 84.37 1320.5M94.88 1329.77C94.65 1329.73 93.1 1332.5 93 1332.64C91 1335.29 88.48 1337.78 85.67 1339.56C77.55 1344.73 65.3 1344.69 56.2 1342.76C54.35 1342.37 50.25 1342.04 48.7 1340.88C48.68 1340.87 50.1 1340.23 50.19 1340.19C51.13 1339.81 52.06 1339.4 53 1339.02C56.34 1337.68 59.74 1336.49 63.13 1335.29C73.06 1331.78 83.23 1328.83 93.79 1330.88M107.38 1342.18C107.62 1342.09 107.16 1342.65 107.03 1342.87C106.73 1343.38 106.41 1343.87 106.1 1344.37C105.13 1345.9 104.05 1347.31 102.8 1348.63C99.25 1352.4 94.84 1355.03 89.85 1356.37C82.43 1358.35 74.37 1358.24 66.71 1357.94C64.3 1357.85 61.81 1357.82 59.45 1357.28C58.73 1357.11 58.03 1356.83 57.32 1356.58C56.95 1356.45 56.24 1355.77 56.19 1356.17C56.17 1356.35 57.17 1356.35 57.19 1356.34C58.29 1356.29 59.37 1356.05 60.42 1355.74C64.5 1354.55 68.32 1352.49 72.17 1350.73C82.45 1346.01 95.24 1342.35 106.65 1345.01M119.72 1354.95C120.06 1355.33 118.76 1357.88 118.61 1358.24C116.96 1362.23 114.56 1364.82 110.42 1366.41C99.57 1370.59 87.54 1371.87 76.03 1371.1C73.2 1370.91 70.4 1370.6 67.61 1370.17C67.41 1370.14 64.65 1369.95 64.58 1369.76C64.37 1369.14 65.84 1369.39 66.46 1369.17C67.66 1368.75 68.85 1368.3 70.04 1367.86C74.21 1366.31 78.37 1364.72 82.53 1363.1C87.01 1361.36 91.48 1359.57 96.07 1358.12C102.78 1356.02 110.23 1354.63 117.27 1355.56M131.14 1368.01C131.01 1367.9 130.2 1369.58 130.19 1369.59C129.52 1370.68 128.63 1371.7 127.7 1372.57C124.49 1375.59 120.77 1378.06 116.8 1379.94C107.44 1384.38 95.67 1383.44 85.9 1381.23C84.14 1380.82 78.25 1380.28 77.13 1378.57C76.81 1378.06 78.33 1378.41 78.93 1378.35C80.14 1378.22 81.34 1378 82.53 1377.77C86.57 1377 90.58 1376.08 94.55 1374.98C106.01 1371.81 118.28 1367.64 130.35 1369.23M138.11 1379.89C138.12 1382.81 129.9 1386.99 127.98 1388.07C118.39 1393.49 109.22 1394.58 98.67 1392.24C95.8 1391.59 92.94 1390.81 90.14 1389.89C89.95 1389.82 87.97 1389.29 88.13 1388.98C88.4 1388.42 90.32 1388.3 90.78 1388.2C93.44 1387.61 96.08 1386.91 98.73 1386.29C101.05 1385.75 103.37 1385.25 105.69 1384.76C109.89 1383.87 114.07 1382.91 118.3 1382.15C125.27 1380.89 131.43 1380.35 138.35 1381.27M145.45 1388.68C145.65 1388.13 145.19 1389.86 144.86 1390.35C144.26 1391.24 143.51 1392.02 142.72 1392.74C140.42 1394.85 137.74 1396.58 134.87 1397.8C125.37 1401.83 114.88 1401.64 104.91 1399.84C104.55 1399.77 96.7 1398.28 96.79 1397.6C96.81 1397.48 99.5 1397.41 99.66 1397.39C102.72 1397.02 105.77 1396.39 108.81 1395.85C119.21 1394 131.86 1390.18 142.61 1391.6M149.47 1399.85C150.38 1400.22 148.32 1402.47 148.05 1402.78C145.68 1405.58 142.92 1407.83 139.79 1409.72C134.05 1413.19 126.64 1417.14 119.8 1417.36C115.53 1417.5 111.05 1416.23 107.01 1414.94C106.78 1414.86 103.18 1413.68 103.36 1413.42C103.91 1412.61 106.36 1412.28 107.12 1412.05C110.18 1411.11 113.22 1410.12 116.27 1409.14C120.16 1407.89 124.03 1406.63 127.92 1405.41C134.5 1403.35 141.44 1400.69 148.4 1400.32M2735.59 204.33C2735.19 203.47 2750.23 206.38 2751.72 206.53C2763.5 207.76 2774.67 206.9 2786.28 204.8C2818.95 198.87 2848.2 181.04 2877.21 166.02C2891.28 158.74 2905.07 151.02 2919.04 143.59C2923.83 141.04 2928.57 138.99 2933.78 137.5C2936.26 136.79 2943.51 134.15 2941.2 135.3C2912.54 149.59 2886.68 166.69 2859.56 183.72C2839.66 196.22 2820.66 208.97 2797.07 213.18C2776.92 216.78 2749.28 218.83 2732.99 203.44M2747.64 205.66C2744.92 207.96 2745.07 195.46 2745.17 194.94C2747.17 185.11 2753.04 176.05 2760.72 169.66C2761.31 169.16 2767.58 163.78 2768.46 164.41C2769.05 164.82 2764.61 173.37 2764.33 174.01C2759.88 184.11 2756.72 196.98 2748.3 204.73M2759.93 208.82C2755.93 208.7 2761.67 193.98 2762.17 192.71C2766.18 182.53 2772.34 173.9 2779.94 166.09C2780.71 165.29 2782.51 163.52 2783.33 162.75C2784.25 161.88 2785.11 161.12 2786.09 160.34C2793.33 154.56 2786.52 165.62 2785.36 168.61C2784.49 170.84 2783.6 173.06 2782.7 175.27C2780.93 179.64 2779.26 184.06 2777.25 188.32C2773.69 195.89 2769.35 203.25 2761.99 207.59M2784.62 208.37C2780.49 207.77 2783.93 196.29 2784.49 194.23C2787.16 184.32 2792.6 175.55 2798.44 167.21C2800.95 163.63 2808.1 152.71 2805.09 163.2C2804.73 164.48 2804.34 165.75 2803.96 167.03C2803.28 169.35 2802.63 171.67 2801.96 173.99C2800.7 178.4 2799.48 182.83 2798.04 187.19C2795.76 194.14 2792.88 201.59 2787.7 206.94M2807.35 202.64C2806.32 203.39 2805.06 201.17 2804.75 200.43C2803.26 196.81 2803.13 192.97 2803.78 189.14C2805.77 177.37 2811.29 158.94 2820.1 150.15C2820.57 149.67 2819.79 155.48 2819.73 156.06C2819.32 159.89 2819.04 163.75 2818.86 167.61C2818.27 180.38 2817.58 192.71 2809.31 203.03M2828.04 193.92C2823.72 194.75 2823.13 180.01 2823.17 178.11C2823.41 168.03 2826.58 157.88 2831.39 149.07C2832.95 146.22 2834.61 143.36 2836.52 140.72C2837.5 139.37 2839.04 135.18 2839.57 136.76C2841.07 141.26 2838.78 151.39 2838.49 156.08C2838.21 160.65 2837.87 165.24 2837.15 169.76C2835.97 177.13 2833.82 184.25 2829.75 190.55M2847.09 184.19C2847.15 184.57 2845.03 182.02 2844.86 181.6C2843.84 179.07 2843.83 176.42 2844.02 173.73C2844.73 163.3 2847.59 152.67 2852.23 143.3C2852.44 142.88 2857.76 133.83 2858.49 134.5C2859.7 135.6 2857.41 144.82 2857.23 146.13C2855.51 158.81 2854.92 172.69 2847.44 183.52M2864.88 175.2C2866.18 174.28 2863.06 172.48 2862.76 170.92C2862.18 167.96 2862.61 164.74 2863.23 161.83C2865.66 150.5 2871.27 137.6 2879.76 129.46C2888.9 120.69 2883.31 133.56 2881.94 139.33C2878.89 152.19 2875.97 164.48 2867.36 174.83M2887.92 160.7C2887.01 162.03 2885.59 158.22 2885.55 158C2884.96 154.72 2885.71 151.11 2886.34 147.89C2888.12 138.69 2892.49 129.35 2898.47 122.11C2899.45 120.92 2903.22 115.46 2905.18 115.78C2906.05 115.93 2902.85 125.22 2902.65 125.89C2899.61 136.36 2896.83 147.07 2890.91 156.35M2905.93 153.37C2902.36 151.29 2903.68 147.67 2904.84 143.74C2907.3 135.34 2912.07 127.77 2918.6 121.9C2919.07 121.48 2928.06 114.96 2928.65 116.26C2929.43 117.97 2923.71 127 2922.92 128.67C2921.51 131.62 2920.04 134.55 2918.44 137.39C2915.59 142.47 2912.19 147.05 2907.94 151.04M2922.03 144.43C2919.51 142.77 2924.8 135.64 2925.57 134.48C2929.62 128.4 2934.32 123.1 2940.47 119.09C2940.93 118.79 2949.83 114.65 2949.79 115.02C2949.49 117.34 2944.07 122.16 2942.65 123.84C2941.01 125.8 2939.37 127.76 2937.68 129.67C2934.92 132.78 2931.98 135.44 2928.63 137.89M2935.42 137.79C2933.55 136.65 2942.59 131.72 2943.47 131.27C2950.31 127.82 2957.8 125.64 2965.42 124.79C2965.89 124.74 2968.52 124.53 2969.02 124.5C2978.36 123.97 2968.73 127.35 2965.52 128.75C2963.67 129.57 2961.77 130.31 2959.89 131.06C2956.89 132.27 2953.87 133.36 2950.73 134.16C2945.99 135.37 2941.07 136.26 2936.18 136.55M2923.89 144.03C2922.78 144.8 2926.41 143.01 2927.73 142.77C2930.59 142.26 2933.41 142.42 2936.29 142.72C2944.94 143.63 2953.59 146.31 2961.23 150.46C2962.12 150.94 2967.21 153.13 2967.21 154.48C2967.21 154.69 2957.38 154.94 2956.81 154.95C2945.45 155.2 2935.97 152.75 2927.63 144.85M2907.24 153.29C2908.93 150.72 2913.63 151.42 2916.21 151.8C2924.01 152.98 2931.59 155.71 2938.68 159.1C2940.1 159.78 2941.17 160.34 2942.52 161.1C2946.63 163.4 2942.93 164.72 2938.39 164.62C2936.5 164.57 2934.6 164.44 2932.73 164.2C2929.5 163.77 2926.24 163.12 2923.1 162.23C2918.25 160.85 2913.93 158.59 2909.99 155.45M2892.23 162.28C2893.39 160.12 2900.03 160.98 2901.78 161.1C2909.75 161.65 2917.86 163.66 2924.73 167.84C2925.35 168.22 2926.8 169.19 2927.42 169.63C2931.65 172.69 2928.34 174 2923.13 174.12C2920.77 174.17 2918.4 174.15 2916.05 173.94C2912.64 173.62 2909.35 172.88 2906.15 171.65C2900.96 169.65 2896.51 166.42 2892.28 162.88M2876.58 172.85C2875.65 172.68 2879.35 171.48 2879.57 171.44C2881.96 171.03 2884.44 171.41 2886.81 171.78C2896.11 173.26 2905.45 176.42 2913.84 180.68C2914.34 180.94 2920.24 183.58 2919.97 184.67C2919.83 185.21 2909.05 184.46 2908.34 184.44C2895.59 183.99 2882.95 181.63 2873.94 172.05M2856.06 183.79C2855.95 183.69 2859.52 181.74 2859.73 181.65C2863.17 180.33 2866.92 180.59 2870.49 181.13C2880.29 182.61 2890.23 185.32 2898.97 190.08C2899.77 190.52 2905.68 193.65 2905.68 194.89C2905.68 195.16 2893.74 194.93 2893.2 194.91C2881.83 194.54 2866.55 194.05 2858.15 185.07M2840.19 192.83C2840.9 194.14 2843.08 192.03 2844.57 191.89C2848.18 191.56 2851.91 191.79 2855.49 192.31C2865.9 193.82 2876.3 197.01 2885.86 201.34C2889.72 203.09 2894.4 204.66 2897.02 208.2C2899.61 211.69 2882.18 210.02 2879.1 210.17C2865.05 210.83 2850.23 204.12 2840.28 194.2M2825.36 202.5C2823.82 201.7 2830.65 201.18 2830.81 201.19C2835.31 201.48 2839.38 202.7 2843.52 204.47C2852.21 208.18 2859.83 213.5 2867.12 219.43C2869.25 221.16 2873.95 223.83 2875.23 226.39C2875.99 227.91 2871.88 225.76 2870.23 225.31C2866.13 224.22 2862.04 223.07 2857.99 221.8C2847.4 218.47 2835.02 213.69 2827.33 205.26M2806.12 210.95C2808.96 208.36 2816.81 210.92 2819.6 211.77C2829.58 214.8 2838.48 220.9 2846.28 227.7C2846.6 227.98 2854.5 237.15 2853.83 237.39C2851.84 238.11 2846.87 235.65 2845.15 235.03C2842.77 234.17 2840.43 233.21 2838.1 232.22C2833.56 230.29 2829.04 228.26 2824.75 225.81C2818.04 221.98 2812.15 217.53 2807.02 211.79M2785.02 214.11C2797.89 213.48 2813.58 226.89 2822.46 234.63C2824.35 236.28 2826.12 238.02 2827.7 239.96C2828.45 240.89 2828.92 241.54 2829.57 242.51C2837.37 254.18 2816.81 241.74 2813.07 239.73C2808.76 237.41 2804.78 234.7 2800.99 231.59C2795.36 226.97 2789.37 221.73 2785.2 215.71M2767.73 214.69C2767.56 213.26 2770.64 215.31 2771.86 216.1C2775.49 218.43 2778.86 221.29 2782.09 224.13C2790.5 231.52 2798.1 239.96 2803.52 249.78C2803.89 250.46 2808.56 257.96 2807.65 258.87C2806.41 260.1 2796.05 252.82 2795.17 252.22C2783.21 244.18 2769.92 231.12 2767.44 216.23M2751.72 211.18C2751.67 210.96 2755.1 214.19 2755.39 214.51C2758.19 217.58 2760.71 220.86 2763.01 224.32C2768.3 232.23 2773.18 240.26 2776.28 249.28C2776.99 251.36 2779.12 255.56 2778.33 257.92C2778.28 258.07 2775.41 256.1 2775.36 256.06C2772.58 253.99 2769.96 251.68 2767.49 249.26C2758.67 240.61 2755 228.85 2751.43 217.36M2740.52 208.41C2739.4 207.66 2742.18 210.55 2742.84 211.72C2744.33 214.35 2745.62 217.08 2746.8 219.85C2750.43 228.32 2753.88 237.89 2754.38 247.16C2754.46 248.55 2754.62 254.97 2752.8 255.87C2750.22 257.16 2744.92 245.55 2744.43 244.53C2739.3 233.8 2733.41 219.85 2735.67 207.62M2877 174.77C2876.35 173.96 2877.48 174.64 2878.02 174.84M3103.28 2790.42C3102.55 2788.42 3094.57 2786.34 3092.21 2785.29C3082.73 2781.11 3074.99 2775.66 3067.51 2768.5C3037.79 2740.06 3013.77 2696.98 2972.76 2683.54C2967.44 2681.79 2943.67 2672.37 2938.17 2676.49C2936.08 2678.06 2943.07 2678.31 2945.52 2679.23C2950.01 2680.91 2954.54 2682.47 2958.99 2684.22C2973.6 2689.97 2987.48 2697.02 2999.56 2707.18C3025.01 2728.58 3039.18 2760.8 3067.86 2778.54C3079.83 2785.94 3091.18 2785.6 3104.06 2788.81M2947.21 2679.11C2947.27 2679.03 2937.89 2678.36 2937.23 2678.42C2931.54 2678.99 2925.94 2680.5 2920.9 2683.24C2917.39 2685.14 2917.08 2688.12 2921.03 2687.6C2922.72 2687.37 2924.41 2687.1 2926.08 2686.76C2928.74 2686.23 2931.39 2685.59 2934 2684.82C2938.28 2683.54 2943.02 2682.17 2946.78 2679.67M2959.73 2683.54C2952.94 2679.04 2938.02 2686.26 2932.19 2689.56C2931.14 2690.16 2922.05 2695.36 2922.37 2697.27C2922.47 2697.9 2930.38 2696.8 2930.9 2696.73C2932.69 2696.5 2934.48 2696.19 2936.26 2695.85C2940.06 2695.12 2943.77 2694.02 2947.28 2692.37C2951.77 2690.25 2956.06 2687.61 2959.58 2684.1M2973.89 2689.8C2974.21 2689.95 2972.92 2689.42 2972.66 2689.39C2971.54 2689.27 2970.41 2689.31 2969.29 2689.38C2966.27 2689.59 2963.25 2690.01 2960.28 2690.6C2951.61 2692.34 2944.31 2696.34 2937.91 2702.38C2937.29 2702.97 2932.64 2706.97 2932.64 2708.05C2932.64 2708.23 2934.9 2707.78 2935.01 2707.76C2938.31 2707.14 2941.56 2706.38 2944.77 2705.39C2955.44 2702.09 2966.56 2697.48 2974.81 2689.72M2986.68 2696.96C2988.19 2697.16 2983.69 2696.19 2982.16 2696.19C2978.82 2696.19 2975.49 2696.93 2972.3 2697.84C2962.83 2700.53 2949.02 2705.83 2943.18 2714.58C2942.89 2715.02 2944.24 2714.61 2944.77 2714.61C2945.85 2714.61 2946.94 2714.63 2948.02 2714.61C2951.55 2714.54 2955.12 2713.98 2958.59 2713.36C2969.68 2711.38 2981.06 2706.8 2987.5 2697.16M3075.83 2781.33C3075.84 2780.96 3075.84 2782.08 3075.75 2782.44C3075.56 2783.24 3075.21 2784.04 3074.79 2784.75C3073.41 2787.06 3071.32 2788.81 3069.15 2790.36C3062.19 2795.31 3053.5 2798.88 3044.95 2799.5C3043.75 2799.59 3036.73 2800.44 3036.01 2798.76C3035.8 2798.29 3037.52 2797.55 3037.72 2797.44C3040.14 2796.11 3042.57 2794.79 3044.95 2793.39C3054.41 2787.85 3063.74 2781.3 3074.95 2780.3M3064.33 2772.58C3064.38 2772.57 3062.14 2775.93 3061.91 2776.18C3059.98 2778.23 3057.79 2780.04 3055.38 2781.52C3048.3 2785.89 3040.01 2788.29 3031.78 2789.27C3028.68 2789.64 3025.5 2790.05 3022.38 2790.15C3022.26 2790.15 3020 2790.18 3020.07 2789.97C3020.23 2789.53 3021.89 2789.01 3022.26 2788.82C3024.87 2787.55 3027.43 2786.19 3029.99 2784.84C3040.49 2779.32 3051 2773.88 3063.19 2774.42M3051.17 2763.03C3051.46 2762.55 3051 2764.18 3050.73 2764.67C3050.16 2765.73 3049.42 2766.67 3048.62 2767.55C3046.6 2769.75 3043.92 2771.37 3041.27 2772.71C3031.92 2777.41 3019.94 2779.44 3009.54 2779.52C3008.5 2779.53 3000.59 2780.16 2999.96 2778.8C2999.89 2778.66 3002.43 2777.4 3002.57 2777.33C3005.63 2775.65 3008.64 2773.87 3011.73 2772.26C3023.44 2766.17 3035.28 2761.85 3048.66 2762.46M3040.74 2752C3041.17 2752.99 3039.99 2754.11 3039.29 2754.76C3036.37 2757.45 3032.44 2759.1 3028.74 2760.37C3019.2 2763.66 3009.24 2764.93 2999.17 2764.93C2997.15 2764.93 2995.91 2764.92 2993.93 2764.85C2993 2764.81 2991.28 2764.72 2990.29 2764.65C2980.8 2764.02 2992.69 2761.99 2996.12 2760.87C2998.48 2760.09 3000.85 2759.34 3003.21 2758.56C3007.6 2757.12 3012 2755.64 3016.45 2754.38C3023.24 2752.45 3030.28 2751.01 3037.34 2751.93M3031.14 2739.82C3030.36 2740.37 3029.67 2742.22 3028.55 2742.96C3019.03 2749.32 3005.5 2751.64 2994.33 2751.61C2990.93 2751.6 2987.52 2751.32 2984.15 2750.94C2983.82 2750.9 2980.42 2750.48 2980.07 2750.43C2979 2750.28 2977.94 2750.12 2976.89 2749.92C2974.51 2749.46 2975.56 2748.06 2977.83 2747.39C2982.31 2746.07 2986.8 2744.77 2991.3 2743.49C2995.29 2742.36 2999.29 2741.21 3003.32 2740.21C3010.62 2738.4 3018.1 2736.98 3025.64 2737.45M3017.71 2724.02C3018.94 2724.32 3015.81 2728.76 3015.69 2728.88C3012.69 2731.95 3008.29 2733.92 3004.36 2735.45C2994.54 2739.29 2983.99 2740.7 2973.51 2741.14C2971.69 2741.22 2965.53 2742.46 2963.99 2741.28C2963.88 2741.2 2969.43 2738.36 2969.73 2738.22C2973.02 2736.62 2976.31 2735.03 2979.64 2733.52C2991.2 2728.26 3002.81 2722.14 3015.83 2723.16M3004.91 2710.71C3003.84 2715.36 2999.38 2717.51 2995.19 2719.71C2987.55 2723.71 2979.39 2726.84 2970.9 2728.42C2966.68 2729.2 2962.42 2729.62 2958.13 2729.73C2957.87 2729.73 2953.59 2729.81 2953.78 2729.28C2954.13 2728.3 2956.89 2727.04 2957.68 2726.51C2961.27 2724.15 2964.96 2722.01 2968.79 2720.06C2972.13 2718.35 2975.49 2716.65 2979.03 2715.39C2985.23 2713.17 2991.75 2711.73 2998.31 2711.27M2993.88 2703.97C2993.83 2706.47 2989.94 2708.32 2987.3 2709.63C2981.34 2712.6 2975 2714.52 2968.55 2716.11C2965.75 2716.8 2953.44 2720.16 2961.64 2715.53C2962.38 2715.11 2963.74 2714.37 2964.47 2713.98C2966.12 2713.1 2967.79 2712.23 2969.46 2711.38C2972.48 2709.84 2975.53 2708.34 2978.71 2707.16C2983.69 2705.3 2988.95 2704.48 2994.25 2704.22M2942.91 2677.92C2943.89 2677.72 2940.91 2678.07 2939.91 2678.07C2938.05 2678.07 2936.23 2677.82 2934.45 2677.27C2927.75 2675.18 2922.01 2670.89 2917.39 2665.69C2917.03 2665.29 2913.73 2661.83 2914.02 2661.25C2914.06 2661.16 2916.16 2662 2916.21 2662.02C2918.16 2662.7 2920.13 2663.31 2922.1 2663.9C2930.52 2666.45 2939.64 2669.29 2945.73 2676.04M2956.95 2679.51C2949.54 2676.72 2945.07 2668.64 2942.4 2661.31C2942.29 2661 2940.19 2654.05 2940.69 2653.85C2940.81 2653.8 2942.1 2655.61 2942.15 2655.67C2943.99 2657.94 2945.94 2660.12 2947.84 2662.34C2949.57 2664.35 2951.34 2666.34 2952.98 2668.43C2955.68 2671.86 2958.36 2675.65 2959.91 2679.76M2972.97 2685.23C2969.28 2686.32 2964.51 2679.78 2962.8 2677.47C2957.35 2670.09 2951.22 2656.78 2953.22 2647.12C2953.34 2646.55 2953.93 2648.06 2954.23 2648.56C2954.83 2649.56 2955.47 2650.53 2956.15 2651.48C2958.09 2654.23 2960.23 2656.84 2962.28 2659.51C2963.73 2661.4 2965.2 2663.26 2966.68 2665.13C2969.73 2669.01 2978.9 2679.53 2975.69 2685.95M2989.38 2693.46C2989.76 2692.43 2987.32 2692.59 2986.53 2691.83C2984.68 2690.04 2983.25 2687.95 2982.01 2685.71C2977.65 2677.87 2973.8 2668.68 2973.01 2659.67C2972.88 2658.13 2972.04 2652.7 2973.22 2651.29C2973.27 2651.23 2974 2652.76 2974.04 2652.84C2974.43 2653.68 2974.85 2654.5 2975.29 2655.32C2976.74 2658.08 2978.41 2660.71 2980.1 2663.33C2985.59 2671.81 2991.03 2681.16 2989.77 2691.62M3001.8 2701.52C3001.74 2701.82 2998.97 2698.23 2998.87 2698.06C2997.04 2694.91 2996.07 2691.38 2995.21 2687.86C2992.97 2678.73 2990.93 2669.11 2991.16 2659.67C2991.2 2658.02 2990.91 2650.79 2992.68 2649.44C2993.17 2649.06 2993.14 2650.6 2993.32 2651.2C2993.75 2652.66 2994.23 2654.11 2994.73 2655.56C2995.93 2659.06 2997.17 2662.54 2998.36 2666.05C3001.92 2676.54 3005.51 2688.47 3003.33 2699.66M3015.51 2711.73C3012.33 2712.63 3010.18 2702.66 3009.59 2700.44C3007.15 2691.25 3007.29 2681.74 3007.93 2672.33C3008.13 2669.25 3008.27 2666.12 3008.79 2663.07C3008.79 2663.05 3009.21 2660.81 3009.48 2660.99C3010.36 2661.61 3010.92 2664.81 3011.22 2665.69C3011.73 2667.18 3012.01 2668.03 3012.47 2669.58C3013.23 2672.16 3013.94 2674.75 3014.63 2677.35C3015.95 2682.26 3017.29 2687.18 3018.39 2692.15C3019.94 2699.13 3021.28 2707.64 3018.81 2714.62M3029.58 2728.62C3028.81 2729.64 3026.64 2726.07 3026.41 2725.59C3024.55 2721.66 3023.99 2716.9 3023.72 2712.62C3023.17 2704.04 3023.94 2694.91 3026.36 2686.63C3026.85 2684.96 3027.57 2680.09 3028.94 2678.88C3028.95 2678.87 3029.28 2680.5 3029.3 2680.61C3029.56 2681.92 3029.9 2683.21 3030.22 2684.51C3031.08 2688.07 3031.83 2691.65 3032.52 2695.25C3034.52 2705.7 3037.44 2718.93 3031.82 2728.82M3041.85 2743.28C3040.98 2743.88 3040.54 2742.19 3040.39 2741.62C3039.73 2739.12 3039.74 2736.34 3039.67 2733.77C3039.43 2723.74 3039.98 2713.48 3042.57 2703.75C3043.29 2701.04 3044.29 2698.42 3045.46 2695.87C3045.53 2695.72 3046.11 2694.12 3046.5 2694.19C3046.99 2694.29 3047.21 2696.85 3047.26 2697.1C3047.97 2700.76 3048.69 2704.38 3049.26 2708.07C3050.67 2717.33 3051.79 2726.29 3050.07 2735.59C3049.36 2739.45 3048.24 2743.56 3045.14 2746.22M3056.58 2760.15C3053.71 2758.56 3053.76 2752.71 3053.56 2749.87C3052.9 2740.41 3054.33 2730.97 3056.62 2721.82C3057.53 2718.14 3058.52 2714.47 3059.67 2710.87C3060.41 2708.57 3061.9 2708.47 3062.28 2710.74C3062.51 2712.07 3062.57 2712.71 3062.75 2714.08C3063.01 2716.19 3062.98 2716 3063.16 2718.07C3063.38 2720.53 3063.58 2722.98 3063.66 2725.44C3063.81 2730.07 3063.55 2734.66 3062.81 2739.24C3061.78 2745.56 3060.66 2753.52 3056.18 2758.48M3069.6 2772.2C3069.62 2772.19 3068.82 2770.93 3068.76 2770.82C3068.36 2770.07 3067.98 2769.28 3067.67 2768.49C3066.51 2765.54 3066.01 2762.3 3065.75 2759.15C3065.09 2750.98 3066.03 2742.65 3067.48 2734.6C3068.23 2730.48 3069.31 2726.39 3070.78 2722.45C3070.8 2722.39 3072.28 2718.88 3072.49 2719.07C3072.87 2719.4 3072.76 2721.41 3072.81 2721.86C3073.11 2724.89 3073.52 2727.91 3073.85 2730.94C3075.29 2744.31 3075.66 2758.84 3070.27 2771.41M3085.15 2780.1C3084.74 2781.91 3081.93 2780.37 3081.42 2779.6C3079.45 2776.64 3078.94 2772.53 3078.57 2769.1C3077.44 2758.55 3078.12 2747.29 3080.33 2736.92C3080.89 2734.27 3081.59 2731.65 3082.35 2729.06C3082.43 2728.77 3082.88 2726.26 3083.43 2726.23C3083.81 2726.2 3083.97 2729.49 3083.98 2729.6C3084.38 2733.53 3084.75 2737.46 3085.1 2741.4C3085.97 2751.32 3087.15 2761.57 3085.87 2771.51C3085.4 2775.11 3084.69 2780.24 3082.2 2783.12M3090.23 2786.03C3087.06 2786.38 3084.03 2786.1 3080.94 2787.29C3072.69 2790.46 3066.21 2798.51 3061.02 2805.32C3059.26 2807.62 3057.63 2810.03 3055.94 2812.38C3055.76 2812.65 3054.32 2814.17 3054.44 2814.57C3054.52 2814.82 3057.33 2813.42 3057.46 2813.36C3060.73 2811.83 3063.95 2810.21 3067.05 2808.37C3077.16 2802.37 3087.84 2795.55 3090.86 2783.47M3093.04 2784.74C3093.08 2784.79 3092.09 2784.15 3091.95 2783.95C3091.45 2783.24 3091.05 2782.49 3090.68 2781.71C3089.68 2779.56 3088.96 2777.28 3088.49 2774.96C3086.71 2766.09 3087.72 2756.43 3089.21 2747.57C3089.32 2746.92 3090.28 2739.64 3091.26 2739.49C3091.65 2739.43 3091.98 2741.46 3092.03 2741.65C3092.72 2744.41 3093.47 2747.15 3094.15 2749.92C3097.06 2761.67 3099.03 2774.45 3094.04 2785.99M3100.24 2787.61C3100.11 2787.46 3097.6 2788.11 3097.48 2788.13C3094.48 2788.88 3091.84 2790 3089.45 2792.02C3083.83 2796.77 3080.01 2803.65 3077.32 2810.4C3076.35 2812.85 3075.67 2815.33 3075.34 2817.95C3075.31 2818.18 3074.92 2819.97 3075.47 2819.99C3077 2820.05 3080.08 2816.16 3081.07 2815.28C3082.46 2814.03 3083.85 2812.77 3085.18 2811.46C3087.6 2809.06 3089.94 2806.57 3092.2 2804.02C3096 2799.76 3099.95 2794.55 3100.27 2788.6M3101.21 2788.29C3101.21 2788.34 3099.54 2786.44 3099.42 2786.12C3098.63 2784.04 3098.48 2781.72 3098.39 2779.52C3098.1 2771.98 3100.42 2765.32 3103.93 2758.74C3104.18 2758.28 3106.59 2753.2 3107.2 2753.4C3107.53 2753.51 3107.41 2755.19 3107.42 2755.43C3107.54 2758.01 3107.86 2760.57 3107.93 2763.15C3108.18 2772 3108.29 2781.86 3101.8 2788.77" />
	<path id="green leaves" class="shp2" d="M220.03 2927.71C220.25 2929.03 218.48 2925.52 217.69 2924.43C216.04 2922.16 214.29 2919.98 212.56 2917.78C208.11 2912.14 203.48 2906.61 199.15 2900.89C186.88 2884.69 167.5 2829.82 204.57 2827.03C215.4 2826.21 219.69 2843.07 221.12 2850.74C225.99 2876.87 221.93 2901.4 219.46 2927.27M220.9 2908.61C220.02 2908.97 221.42 2906.78 221.7 2905.87C222.2 2904.3 222.76 2902.75 223.37 2901.21C225.03 2897.02 226.94 2892.93 228.94 2888.89C230.3 2886.14 231.73 2883.42 233.27 2880.77C234.83 2878.11 236.58 2875.62 238.52 2873.22C244.94 2865.29 261.07 2846.57 272.19 2857.88C277.78 2863.57 271.76 2873.48 267.81 2878.23C255.44 2893.14 232.99 2893.47 221.21 2908.03M219.22 2919.11C218.43 2918.99 221.44 2913.81 221.65 2913.52C224.81 2909.04 229.67 2905.94 234.43 2903.38C246.95 2896.65 261.31 2891.81 275.65 2891.32C280.93 2891.14 289.16 2891.99 291.54 2897.79C294.46 2904.87 282.53 2911.13 277.78 2913.21C265.81 2918.46 252.34 2919.71 239.46 2921.03C232.07 2921.78 224.36 2921.85 217.7 2925.54M383.12 145.35C382.81 146.16 381.27 141.46 381.12 141.09C379.75 137.78 378.29 134.53 376.67 131.33C372.39 122.84 367.18 114.82 360.98 107.61C343.04 86.74 311.2 62.96 313.67 31.83C313.74 30.97 314.97 22.81 316.72 23.07C319.04 23.42 320.43 32.9 320.76 34.56C323.15 46.44 326.25 57.85 332.96 68.09C351.95 97.11 378.7 111.81 384.99 149.27M381.66 140.62C381.9 140.63 382.12 137.71 382.13 137.54C382.43 133.8 382.26 130.02 382.17 126.27C381.86 113.5 379.52 99.83 384.79 87.73C386.55 83.68 389.64 77.99 394.94 78.73C402.36 79.77 402.13 89.6 401.56 95.16C400.01 110.5 390.96 124.7 382.28 137.01M372.76 123.31C370.48 112.93 369.42 100.11 369.81 89.54C369.95 85.77 370.22 79.12 374.76 77.73C379.28 76.35 381.31 83.46 381.54 86.47C382.32 96.88 377.83 108.79 374.3 118.44M361.6 100.08C361.09 101.59 359.42 97.49 359.39 97.41C358.22 94.11 357.91 90.73 357.89 87.23C357.83 78.35 359.11 68.69 364.29 61.23C365.76 59.11 368.5 55.69 371.55 56.68C377.06 58.48 373.62 66.1 372.18 69.48C367.4 80.72 361.61 91.23 360.96 103.74M346.73 91.66C342.5 80.87 344.3 65.86 347.93 55.26C349.1 51.85 354.81 40.05 359.38 46.84C361.62 50.16 360.42 55.73 359.44 59.3C356.62 69.54 346.41 78.19 345.22 88.81M338.32 75.22C338.15 75.58 336.32 71.94 336.2 71.66C334.99 68.64 334.91 65.16 334.94 61.96C335.05 52.54 337.25 43.19 340.93 34.55C342.29 31.36 345.09 25.52 349.52 26.08C354.83 26.74 351.76 37.92 350.87 40.64C346.86 52.85 335.34 64.04 336.7 77.7M326.04 63.04C323.76 61.47 324.52 53.06 324.6 51.09C324.98 41.57 325.68 27.87 331.31 19.78C333.32 16.9 337.48 16.12 338.75 20.18C339.83 23.64 338.77 27.69 337.88 31.06C337.1 34.05 336.13 37 335.14 39.93C333.52 44.69 331.72 49.37 329.88 54.04M319.48 38.12C318.83 38.13 317.74 29.56 317.67 28.95C316.77 21.42 317.69 12.61 320.79 5.63C325.96 -6.03 329.82 4.45 328.9 11.99C328.47 15.54 327.76 19.04 327 22.52C325.74 28.27 324.08 33.95 323.02 39.74M316.26 43.8C316.35 41.57 309.75 35.49 308.44 33.85C303.05 27.13 298.35 19.23 297.45 10.46C296.49 1.13 304.64 3.77 308.3 8.97C313.67 16.61 314.31 27.54 316.13 36.45M327.7 69.35C325.45 69.88 319.19 65.65 317.37 64.72C308.71 60.31 298.17 54.67 293.98 45.32C288.73 33.63 304.86 41.55 308.74 44.61C311.26 46.59 313.5 48.86 315.65 51.24C319.49 55.5 322.93 60.02 326.4 64.59M342.07 83.56C343.11 82.84 339.77 84.77 338.52 84.81C336.11 84.89 333.66 84.73 331.27 84.48C324.22 83.73 316.02 81.56 310.45 76.93C309.02 75.74 305.77 73.22 306.7 70.98C308.07 67.69 313.88 69.13 316.36 69.73C324.93 71.79 332.62 77.76 339.4 83.14M356.46 99.54C347.81 99.48 338.34 103.35 329.32 103.13C324.05 102.99 317.79 100.95 314.11 97.03C311.38 94.13 312.45 87.82 316.16 86.32C328.04 81.53 344.73 93.47 353.62 100.22M379.89 138.81C380.26 138.31 369.88 138.03 369.29 138.03C361.97 138.04 354.12 138.95 346.87 137.76C343.92 137.28 340.12 136.19 340.15 132.57C340.19 127.23 346.82 125.68 351.03 125.85C360.2 126.22 369.61 130.07 377.6 134.36M375.67 122.36C374.11 123.34 366.78 121.2 364.66 121.04C356.47 120.39 348.28 120.68 340.08 120.4C336.72 120.29 332.27 120.66 329.52 118.33C325.82 115.2 330.75 112.97 333.46 112.33C338.92 111.06 344.9 112.22 350.21 113.61C355.42 114.98 360.27 117.12 365.13 119.4M366.96 111.33C366.97 111.4 359.35 111.27 358.73 111.26C351.59 111.15 343.29 111.38 336.53 108.75C328.02 105.43 340.17 102.33 343.77 102.59C346.43 102.77 349.04 103.42 351.57 104.25C355.63 105.6 359.52 107.47 363.35 109.36M1714 1294.21C1714.07 1292.1 1720.27 1286.77 1721.3 1284.24C1724.3 1276.88 1723.52 1267.87 1723.47 1260.24C1723.37 1245.55 1721.22 1227.99 1730.24 1214.77C1737.4 1204.29 1751.56 1202.59 1760.03 1212.97C1767.16 1221.71 1765.14 1233.22 1762.16 1242.83C1755.48 1264.29 1740.87 1281.57 1718.74 1293.09M1724.92 1291.79C1724.72 1291.77 1729.18 1287.7 1729.5 1287.43C1733.38 1284.07 1737.4 1280.83 1741.44 1277.6C1751.96 1269.21 1763.11 1260.06 1776.5 1255.04C1781.11 1253.31 1789.29 1251.85 1792.66 1256.25C1798.46 1263.82 1792.34 1275.09 1785.69 1280.49C1767.57 1295.2 1745.02 1289.07 1722.93 1292.61M1718.66 1293.33C1718.03 1291.1 1728.76 1289.99 1730.63 1289.7C1742.21 1287.88 1760.32 1285.15 1771.15 1290.71C1788.44 1299.59 1777.85 1318.65 1759.73 1317.99C1741.47 1317.32 1733.31 1300.57 1718.45 1294.51M4413.96 1275.16C4416.59 1266.99 4409.93 1256.09 4410.18 1247.66C4410.53 1236.24 4418.81 1232.57 4423.47 1223.66C4430.93 1209.4 4430.15 1179.14 4453.39 1180.01C4467.58 1180.54 4468.05 1199.48 4464.2 1209.13C4460.5 1218.44 4452.16 1224.49 4447.38 1233.02C4444.34 1238.46 4446.23 1244.93 4444.06 1250.72C4439.68 1262.38 4428.27 1270.82 4417.68 1276.6M4413.5 1277.64C4413.51 1276.73 4408.72 1273.84 4408.04 1273.24C4402.96 1268.79 4397.32 1264.45 4393.54 1258.76C4387.28 1249.3 4391.76 1241.98 4389.85 1232.25C4386.78 1216.59 4368.95 1204.2 4381.33 1186.39C4390.44 1173.28 4404.22 1184.89 4408.64 1195.82C4412.4 1205.14 4409.22 1214.53 4411.07 1223.95C4412.06 1228.96 4416.43 1232.54 4418.08 1237.3C4421.96 1248.49 4421.46 1266.78 4415.42 1277.34M4410.28 1274.53C4410.72 1276 4413.31 1271.05 4413.76 1270.53C4416.22 1267.66 4419.47 1265.3 4422.98 1263.86C4427.39 1262.05 4432.2 1264.19 4436.63 1262.64C4445.3 1259.61 4461.85 1240.8 4467.52 1260.28C4470.22 1269.58 4461.25 1280.57 4452.09 1281.85C4447.65 1282.47 4443.26 1280.72 4438.81 1281.63C4433.9 1282.64 4428.93 1286.69 4423.76 1285.9C4417.58 1284.96 4414.58 1281.46 4410.18 1277.79M2585.13 824.52C2586.13 825.5 2585.66 821.78 2586.06 820.44C2586.69 818.4 2587.35 816.35 2588.08 814.35C2590.34 808.16 2593.11 802.02 2596.44 796.34C2605.9 780.17 2621.24 768.76 2638.3 761.41C2642.2 759.72 2649.74 756.01 2654.27 756.52C2654.66 756.56 2652.4 762.48 2652.29 762.76C2649.24 770.22 2645.66 777.49 2641.56 784.42C2629 805.66 2611.03 822.66 2586.57 826.15M2591.66 823.18C2591.85 823.32 2595.25 821.2 2595.58 821.04C2599.87 818.95 2604.4 817.4 2609.13 816.7C2622.54 814.71 2636.49 817.44 2648.53 823.5C2650.49 824.49 2656.81 826.34 2658.01 828.33C2658.01 828.34 2655.93 828.94 2655.88 828.95C2654.28 829.38 2652.68 829.8 2651.09 830.23C2646.07 831.57 2641.07 832.85 2635.96 833.78C2620.08 836.66 2599.57 837.93 2587.09 825.46M2588.97 815.93C2587.65 820.18 2585.94 816.87 2584.61 813.89C2582.28 808.62 2581.69 802.72 2582.14 797.02C2583.34 781.92 2590.12 769.35 2598.97 757.35C2601.69 753.66 2604.61 750.14 2607.53 746.61C2607.92 746.14 2609.19 743.99 2609.94 743.99C2610.08 743.99 2609.56 749.77 2609.53 750.16C2609.31 754.18 2609.19 758.19 2608.89 762.2C2607.46 781.38 2602.86 800.43 2589.41 814.83M2588.64 827.61C2588.76 827.03 2587.25 826.26 2587.66 825.48C2588.2 824.46 2590.67 824.82 2591.49 824.93C2596.04 825.56 2600.83 827.75 2604.81 829.95C2615.87 836.07 2625.1 846.15 2630.28 857.69C2631.11 859.54 2634.62 865.34 2633.98 867.56C2633.75 868.37 2629.45 867.78 2629 867.77C2623.77 867.67 2617.36 867.39 2612.58 865.13C2598.64 858.55 2586.21 840.68 2585.1 825.18M262.45 1981.58C268.15 1979.82 259.82 1955.95 258.86 1953.84C250.07 1934.4 234.57 1916.93 214.21 1909.49C212.07 1908.71 198.19 1903.88 195.76 1905.5C192.56 1907.64 201.42 1932.29 202.3 1934.96C211.31 1962.19 231.16 1988.4 262.11 1988.4M267.05 1995.58C267.49 1995.73 266.26 1994.49 266.01 1994.18C265 1992.91 263.99 1991.63 262.87 1990.45C259.34 1986.71 254.46 1984.38 249.68 1982.68C233.38 1976.9 215.64 1977.32 199.31 1982.7C195.62 1983.92 192 1985.31 188.4 1986.74C188 1986.9 185.02 1987.76 185.17 1988.56C185.37 1989.65 187.71 1990.91 188.45 1991.42C192.52 1994.24 196.85 1996.79 201.19 1999.16C216.57 2007.53 236.42 2014.68 253.57 2007.61C258.17 2005.72 264.78 2002.86 266.51 1997.67M269.24 2010.65C270.21 2010.72 264.56 2004.98 263.96 2004.66C258.79 2001.92 253.36 2003.22 248.12 2005.13C233.28 2010.56 221.98 2022.36 212.38 2034.5C210.98 2036.28 203.3 2045.2 204.97 2048.13C205.6 2049.23 208.62 2048.61 209.55 2048.55C214.94 2048.23 220.3 2047.89 225.65 2047.14C244.14 2044.52 265.71 2032.52 267.4 2011.37M257.81 1988.91C257.91 1979.41 256.56 1970.23 257.73 1960.63C258.41 1955.01 259.52 1949.34 261.29 1943.96C262.33 1940.81 263.65 1937.76 265.04 1934.75C266.85 1930.84 268.98 1927.19 271.3 1923.56C271.52 1923.21 272.88 1920.31 273.31 1920.23C273.42 1920.21 275.82 1926.49 275.9 1926.68C279.26 1934.54 282.3 1942.6 284.3 1950.93C289.18 1971.18 283.69 1993.93 264.6 2003.48M2517.49 1897.76C2521.45 1884.33 2523.57 1874.26 2533.51 1862.62C2544.41 1849.86 2559.44 1838.75 2575.76 1834.24C2576.62 1834 2590.84 1830.71 2591.21 1832.55C2592.17 1837.34 2583.24 1849.82 2581.14 1853.76C2566.48 1881.2 2547.93 1892.12 2519.19 1897.86M2515.01 1907.43C2516.67 1907.61 2523.83 1898.88 2525.29 1897.76C2532.9 1891.91 2542.56 1887.57 2552.33 1887.98C2566.11 1888.56 2576.9 1896.9 2585.53 1907.1C2586.82 1908.62 2593.73 1915.34 2592.94 1917.72C2591.84 1921 2578.34 1923.27 2575.59 1924.03C2556.36 1929.37 2532.29 1923.62 2517.23 1910.08" />
	<path id="orange flowers" class="shp3" d="M712.73 2352.51C702.37 2347.92 700.32 2324.92 713.3 2322.34C730.47 2318.92 722.35 2342.41 731.7 2344.87C740.72 2347.24 746.62 2324.35 759.55 2335.62C773.95 2348.16 742.72 2352.81 745.04 2361.71C747.48 2371.07 769.54 2377.98 758.85 2390.28C746 2405.05 740.17 2379.8 730.57 2380.48C718.72 2381.32 727.34 2416.49 709.26 2406.07C701.28 2401.47 697.94 2390.63 704.67 2383.73C707.35 2380.99 714.8 2375.7 712.84 2370.8C711.22 2366.79 698 2368.02 694.21 2364.15C690.9 2360.78 686.76 2349.48 694.05 2347.73C700.47 2346.19 708.19 2349.04 714 2351.56M771.71 2368.77C770.9 2369.8 768.22 2367.93 767.66 2367.51C765.27 2365.69 763.17 2361.91 765.81 2359.38C769.61 2355.72 771.81 2361.13 775.27 2360.49C778.4 2359.92 777.44 2354.4 782.11 2354.94C785.27 2355.31 788.7 2359.05 787.28 2362.31C786.51 2364.06 784.05 2364.51 784.87 2366.88C785.93 2369.93 790.98 2370.72 789.83 2374.65C789.66 2375.22 789.35 2375.73 788.91 2376.14C784.97 2379.89 783.25 2372.94 779.94 2374.43C778 2375.31 778.34 2378.52 776.58 2379.65C773.14 2381.86 769.09 2377.75 769.5 2374.29C769.7 2372.57 771.34 2371 771.34 2369.3M4325.83 113.93C4325.97 113.68 4317.59 103.87 4317.05 102.79C4312.78 94.25 4314.75 84.76 4319.54 76.94C4331.69 57.07 4351.3 74.45 4348.74 92.35C4348.08 97.01 4342.45 105.81 4345.65 110.3C4351.89 119.04 4377.21 101.35 4376.74 122.95C4376.24 146.05 4353.06 125.12 4349.9 135.26C4345.71 148.76 4363.49 179.15 4340.41 182.76C4323.97 185.33 4333 157.72 4323.84 152.77C4313.22 147.03 4299.5 169.59 4290.16 157.91C4277.01 141.47 4309.53 140.61 4310.31 134.16C4311.12 127.54 4292.05 121.1 4288.95 114.89C4285.8 108.58 4293.49 102.39 4299.33 102.02C4309.24 101.38 4318.49 109.16 4326.71 113.73M4362.3 162.66C4362.55 162.8 4360.43 161.23 4360.05 160.87C4358.79 159.69 4357.65 158.27 4356.9 156.72C4354.57 151.91 4356.91 146.35 4361.51 143.88C4371.06 138.75 4370.66 150.77 4376.71 152.78C4383.76 155.14 4388.57 147.45 4395.69 154.57C4397.48 156.36 4400.28 160.44 4398.73 163.08C4395.87 167.97 4386.99 164.73 4385.83 171.34C4384.53 178.71 4395.35 192.78 4382.97 196.59C4371.9 200 4376.06 182.01 4371.13 182.14C4366.42 182.27 4357.24 197.25 4353.97 193.16C4343.18 179.67 4367.71 173.48 4362.98 164.01M4387.02 96.43C4387.43 96.82 4382.15 96.63 4380.03 92.84C4377.17 87.72 4376.98 79.11 4382.39 75.53C4385.18 73.69 4388.84 74.05 4391.83 75.25C4396.01 76.92 4397.75 81.69 4401.7 83.72C4407.34 86.63 4417.47 79.64 4419.19 89.34C4420.85 98.76 4411.29 94.99 4407.74 100.14C4403.14 106.81 4414.11 116.33 4407.24 122.63C4404.78 124.9 4400.39 124.66 4397.8 122.71C4394.72 120.37 4395.84 115.26 4392.73 113.34C4388.91 110.97 4384.47 113.86 4380.46 112.8C4369 109.76 4378.79 100.49 4384.9 98.46M2440.59 1265.63C2437.43 1265.9 2433.96 1259.96 2432.66 1257.89C2427.3 1249.36 2430.52 1235.51 2441.87 1234.12C2443.47 1233.92 2445.11 1234 2446.7 1234.23C2456.56 1235.67 2452.89 1247.4 2459.11 1251.84C2466.61 1257.18 2475.9 1241.42 2483.09 1253.22C2484.03 1254.76 2484.65 1256.37 2484.88 1258.17C2485.55 1263.32 2483.44 1267.9 2478.61 1270.09C2476.49 1271.05 2471.46 1271.44 2471.11 1274.35C2470.08 1283 2483.2 1293.51 2475.16 1301.4C2470.04 1306.43 2461.44 1302.58 2457.94 1297.53C2456.32 1295.18 2454.59 1290.3 2450.91 1291.09C2442.86 1292.8 2442.33 1307 2434.43 1307C2424.3 1307 2425.26 1294.98 2429.42 1289.21C2430.44 1287.78 2433.8 1284.61 2433.48 1282.7C2432.33 1275.65 2417.08 1279.75 2419.21 1269.74C2419.48 1268.48 2419.93 1267.29 2420.61 1266.19C2426.37 1256.87 2435.09 1269.11 2441.48 1264.01M2486.82 1285.42C2485.76 1283.82 2484.22 1283.26 2483.8 1280.99C2483.14 1277.49 2485.51 1270.15 2490.36 1271.68C2494.13 1272.88 2493.88 1278.31 2497.05 1279.54C2501.28 1281.18 2504.48 1273.9 2508.57 1279.65C2509.06 1280.34 2509.46 1281.17 2509.7 1281.98C2511.79 1289.01 2502.36 1286.47 2502.19 1290.93C2502.05 1294.95 2507.21 1299.42 2503.49 1303.28C2498.27 1308.68 2496.15 1298.42 2493.32 1297.46C2489.53 1296.18 2488.48 1300.51 2485.43 1301.1C2483.56 1301.47 2482.06 1299.86 2481.33 1298.34C2478.26 1291.95 2485.96 1290.8 2486.38 1285.72M4197.95 2853.07C4195.41 2854.68 4192.36 2845.18 4192.22 2844.22C4190.8 2834.1 4200.07 2818.37 4212.74 2824.3C4222.44 2828.84 4215.23 2840.28 4222.04 2844.71C4225.35 2846.86 4230.61 2844.13 4234.17 2843.81C4241.23 2843.17 4248.29 2849.87 4246.82 2856.71C4244.89 2865.7 4228.67 2858.75 4227.48 2865.47C4225.9 2874.49 4246.17 2883.66 4233.74 2893.44C4226.89 2898.84 4218.1 2891.07 4216.18 2885.08C4215.64 2883.39 4215.32 2878.79 4212.83 2878.49C4200.78 2877.06 4201.04 2899.38 4189.53 2895.55C4174.86 2890.67 4194.8 2878.27 4191.44 2872.74C4188.8 2868.41 4179.47 2870.37 4175.67 2867.02C4162.79 2855.68 4187.4 2852.54 4194.84 2852.54M316.85 749.65C318.01 750.49 313.93 755.95 313.49 756.49C309.32 761.59 304.06 763.46 297.66 761.2C282.23 755.77 299.52 745.56 297.21 737.38C296.42 734.58 291.06 733.76 288.85 732.43C284.28 729.66 280.66 723.19 281.02 717.77C281.18 715.52 282.08 713.35 283.09 711.37C284.07 709.47 285.27 707.67 286.9 706.26C292.51 701.44 298.59 704.48 303.48 708.43C305.56 710.11 308.41 713.25 311.39 712.03C319.39 708.76 317.79 693.28 329.98 696.41C332.27 697 334.3 697.97 336.1 699.51C337.45 700.67 338.51 701.92 339.25 703.56C345.09 716.58 327.04 719.94 329.83 730.44C330.92 734.54 334.64 734.8 337.9 736.54C343.09 739.32 347.9 743.09 348.9 749.31C349.16 750.91 348.92 752.65 348.39 754.17C344.43 765.49 333.98 754.7 327.79 756.94C324.09 758.28 325 773.62 319.67 770.61C312.42 766.51 317.12 755.19 312.29 750.36" />
</svg>